/* XPM */
static char *a14845f8d5f54c18c028184ca07f2d9ayZiK78Nptt2H9CvL_0[] = {
/* columns rows colors chars-per-pixel */
"28 48 256 2 ",
"   c None",
".  c #030B18",
"X  c #040505",
"o  c #6D3E25",
"O  c #3B7838",
"+  c #2D6E2F",
"@  c #3A1F57",
"#  c #241E51",
"$  c #012547",
"%  c #1B224F",
"&  c #092658",
"*  c #1E2554",
"=  c #152C5D",
"-  c #183857",
";  c #262757",
":  c #232B4D",
">  c #032869",
",  c #002A75",
"<  c #00307E",
"1  c #113977",
"2  c #252967",
"3  c #37236A",
"4  c #262678",
"5  c #511C5C",
"6  c #601A55",
"7  c #55275E",
"8  c #65255F",
"9  c #551E64",
"0  c #5C1F69",
"q  c #4B2065",
"w  c #4A216E",
"e  c #432168",
"r  c #48316A",
"t  c #164E54",
"y  c #114470",
"u  c #2B416A",
"i  c #514C5C",
"p  c #69555F",
"a  c #4B7942",
"s  c #4E4F6D",
"d  c #6F5874",
"f  c #467073",
"g  c #7F7F7C",
"h  c #676971",
"j  c #B7061C",
"k  c #A20F3B",
"l  c #DC021A",
"z  c #C3071C",
"x  c #E1021A",
"c  c #EC021B",
"v  c #E00017",
"b  c #FB0015",
"n  c #F4001A",
"m  c #FE001A",
"M  c #F4071B",
"N  c #D80822",
"B  c #CD1C2F",
"V  c #FB0C23",
"C  c #F8172A",
"Z  c #F81E32",
"A  c #E81328",
"S  c #F52738",
"D  c #F4313F",
"F  c #B1651C",
"G  c #86602E",
"H  c #DC3142",
"J  c #F33A49",
"K  c #EA3F4B",
"L  c #A17E57",
"P  c #8B5A7E",
"I  c #87696B",
"U  c #96736B",
"Y  c #9B736B",
"T  c #F14551",
"R  c #EC5A64",
"E  c #F25D68",
"W  c #EA6C74",
"Q  c #F36B75",
"!  c #ED717A",
"~  c #368733",
"^  c #369535",
"/  c #3BAC38",
"(  c #4B8838",
")  c #40A33A",
"_  c #3F8F41",
"`  c #5D9D58",
"'  c #50A24B",
"]  c #6D8367",
"[  c #6EA36A",
"{  c #B59D2D",
"}  c #A7882A",
"|  c #CDB514",
" . c #C78524",
".. c #E8B829",
"X. c #ECD906",
"o. c #F1DF04",
"O. c #E1C30B",
"+. c #F9E401",
"@. c #FEEB00",
"#. c #F7E502",
"$. c #9C8458",
"%. c #BC8144",
"&. c #80846F",
"*. c #B08370",
"=. c #82AA7E",
"-. c #DFAF5B",
";. c #D89F72",
":. c #E6A075",
">. c #81C37D",
",. c #032C87",
"<. c #083388",
"1. c #11368A",
"2. c #163C83",
"3. c #012E94",
"4. c #002F9B",
"5. c #0A2D92",
"6. c #023393",
"7. c #01319B",
"8. c #0F3692",
"9. c #153C97",
"0. c #1B2B8A",
"q. c #0032A5",
"w. c #0133AB",
"e. c #0B37A8",
"r. c #0033B3",
"t. c #0335BB",
"y. c #194296",
"u. c #3A4D89",
"i. c #284D98",
"p. c #2A519F",
"a. c #1440AD",
"s. c #2F56AA",
"d. c #3F60A3",
"f. c #715881",
"g. c #5B6B8D",
"h. c #647795",
"j. c #626783",
"k. c #5471AA",
"l. c #5271AF",
"z. c #677EA1",
"x. c #0036C4",
"c. c #0338C7",
"v. c #0039D2",
"b. c #003CDE",
"n. c #0040CC",
"m. c #8F2FA7",
"M. c #894B81",
"N. c #A17D88",
"B. c #A535C3",
"V. c #C43FE6",
"C. c #C55AE1",
"Z. c #7D8F90",
"A. c #768DB8",
"S. c #798FB1",
"D. c #868994",
"F. c #8D8D8B",
"G. c #B69585",
"H. c #B5809B",
"J. c #8FB88C",
"K. c #8A8DA1",
"L. c #8B9AB8",
"P. c #8C98A7",
"I. c #9BA4AC",
"U. c #ACADB2",
"Y. c #ED8389",
"T. c #EE959A",
"R. c #F4959B",
"E. c #D5A788",
"W. c #F4B587",
"Q. c #E3B391",
"!. c #EC9DA2",
"~. c #C7B1A3",
"^. c #CBBBB0",
"/. c #EAA6AB",
"(. c #ECBABC",
"). c #F4B0B2",
"_. c #A6C59C",
"`. c #BAC4B9",
"'. c #B7D0B5",
"]. c #C0C1BE",
"[. c #ECCCBA",
"{. c #9AAACC",
"}. c #B7BDC7",
"|. c #A8B5CC",
" X c #BDC7D4",
".X c #C9C8CD",
"XX c #D9D9D7",
"oX c #CDCDCA",
"OX c #EEC8C9",
"+X c #F2C8C9",
"@X c #E8D3C7",
"#X c #F3D2D3",
"$X c #E6CFD2",
"%X c #DAE6D8",
"&X c #D0E4CE",
"*X c #E1E3DF",
"=X c #D0D7E3",
"-X c #E3E4E2",
";X c #E9E9E7",
":X c #EDEDEB",
">X c #E4E9E7",
",X c #F5E9E6",
"<X c #EFF0EE",
"1X c #F4F0EE",
"2X c #F4F5F3",
"3X c #FAF4F2",
"4X c #F9F9F7",
"5X c #FEFEFC",
"6X c #F4F8F7",
"7X c #EFF1F2",
"8X c black",
"9X c black",
"0X c black",
"qX c black",
"wX c black",
"eX c black",
"rX c black",
"tX c black",
"yX c black",
"uX c black",
"iX c black",
"pX c black",
"aX c black",
"sX c black",
"dX c black",
"fX c black",
"gX c black",
"hX c black",
"jX c black",
"kX c black",
"lX c black",
"zX c black",
"xX c black",
"cX c black",
"vX c black",
"bX c black",
"nX c black",
"mX c black",
"MX c black",
"NX c black",
"BX c black",
"VX c black",
"CX c black",
"ZX c black",
"AX c black",
"SX c black",
"DX c black",
"FX c black",
"GX c black",
"HX c black",
"JX c black",
"KX c black",
"LX c black",
"PX c black",
"IX c black",
"UX c black",
/* pixels */
"                          X.o.o.                        ",
"                        o.@.@.@.#.                      ",
"                        +.@.+.+.@.X.                    ",
"                        | O.{ } { |                     ",
"                        } | I U $.                      ",
"                    B.8 F ..Q.W.-.G                     ",
"                    V.m.o  .W.W.%.I                     ",
"                      C.h ( L U &.XX                    ",
"                    ~./.N._ t 2.U.:X4X                  ",
"                  :X[.:.;.i 1 p.A.{.S.h.                ",
"                2X5X,X@XG.i u <.7.1.q.c.                ",
"                4X5X2X2XXXg.u = , 1.w.n.                ",
"                {.5X2X;X5XXXa ] I.L.A.                  ",
"              t.a.P.-X;X5X>X( J.5X5X4X                  ",
"            c.v.r.& I.2X5X*XO [ 2X5X4X                  ",
"            x.7.> . F.5X5X%XO ` :X4X4X                  ",
"          v.c.1 & X ] 5X5X%X~ ' >X<X4X                  ",
"            9.a.w.. g 5X5X&X) ' %X;X4X                  ",
"              v.w.& I.2X5XoX~ ~ &X;X;X                  ",
"              v.v.8.i.D.[.`.+ ~ '.4XXX                  ",
"                e.1.9.G.Q._.^ ~ J.5XXX].                ",
"                  l.u.E.~.=./ / >.5X2XoX                ",
"                  2X X@X^.h.y t f 2X5X:XXX              ",
"                4X5X5X:X-Xk.3.,.2.=X5X5X2X4X            ",
"                5X5X5X-X:Xd.7.q.6.|.5X5X5X5X4X          ",
"              2X5X5X2X2X>Xi.q.r.> z.5X5X5X5X5X5X        ",
"              5X5X5X4X5X X6.r.,.> p.>X5X5X1X3X4X!       ",
"            4X5X5X5X5X5X{.s.s.> , 6.|.5X5X/./.(.!.c     ",
"            5X5X5X5X5X4XoX.XI.: , 4.k.4X5XT.T.R W H v   ",
"          2X5X5X5X5X5X;Xh s r # 7.q.y.=X,X(.(.Q b B j   ",
"          5X5X5X5X3X+X-X}.}.f.4 w.w.3.A.#XY.+XW E A j j ",
"        2X#X3X5X5X3X).L.y.y.3 4 w.w.7.u.$XJ V K OXD c z ",
"        Q R !.#X,XOX4Xk.3.5.q 3 w.r.q.2 U.).Z C E V n   ",
"      n Z ! T Y.T T.oXp.q.0.9 e w.t.w.3 f.6XR.b b m n   ",
"    x m V D D ! S W H.e.q.4 9 w e.x.7.@ 7 .XR.b m m n   ",
"    n m V ! T.T C Z M.< $ ; 9 q 5.3.$ @ 5 P J m m m c   ",
"  c m m m Z S m m b 0 w.,.e 9 q < w.3.e 9 6 N m m m l   ",
"  m m m m m m m m c 3 x.c.w 9 w t.b.c.w 9 9 k m m c     ",
"l n m m m m m m m l = 6.<.q 9 q - y y.        n m       ",
"    x c n m m m m N D.Z.        I.U.`.          x       ",
"              x c B :X:X          :X*X                  ",
"                    <X:X          <X*X                  ",
"                    K.K.          D.j.                  ",
"                    * *           % %                   ",
"                    * *           * *                   ",
"                  * * ;           ; * *                 ",
"                p i ;             2 2 s Y Y             ",
"                Y *.p                   d               "
};
