/* XPM */
static char *a14845f8d5f54c18c028184ca07f2d9ayZiK78Nptt2H9CvL_3[] = {
/* columns rows colors chars-per-pixel */
"27 48 256 2 ",
"   c None",
".  c #040B18",
"X  c #040506",
"o  c #6E3E25",
"O  c #377535",
"+  c #2F1E53",
"@  c #022447",
"#  c #1C224F",
"$  c #042259",
"%  c #1E2453",
"&  c #112C5A",
"*  c #163657",
"=  c #252757",
"-  c #302755",
";  c #042869",
":  c #002B77",
">  c #113977",
",  c #262966",
"<  c #3C256D",
"1  c #262678",
"2  c #3F3B7B",
"3  c #671A53",
"4  c #66255E",
"5  c #4D1F64",
"6  c #551E63",
"7  c #591E66",
"8  c #472169",
"9  c #592467",
"0  c #46326F",
"q  c #673669",
"w  c #164E54",
"e  c #114370",
"r  c #2B426A",
"t  c #524D5C",
"y  c #4B7942",
"u  c #4E4F6D",
"i  c #725B64",
"p  c #6E4D73",
"a  c #446F71",
"s  c #7F7F7C",
"d  c #686A72",
"f  c #B4051D",
"g  c #A91038",
"h  c #D4041A",
"j  c #EB021B",
"k  c #E7051C",
"l  c #FC0016",
"z  c #F4011A",
"x  c #FD001A",
"c  c #CA0B23",
"v  c #D90924",
"b  c #F8182C",
"n  c #F21429",
"m  c #F6283A",
"M  c #EC293B",
"N  c #B2651B",
"B  c #87602E",
"V  c #853A61",
"C  c #CB3444",
"Z  c #F43747",
"A  c #E53646",
"S  c #A17E57",
"D  c #88696B",
"F  c #9A6F67",
"G  c #93746B",
"H  c #9D7672",
"J  c #ED4857",
"K  c #F34654",
"L  c #F2515D",
"P  c #EC5964",
"I  c #F35762",
"U  c #EC6973",
"Y  c #F06F77",
"T  c #368734",
"R  c #369534",
"E  c #3BAC37",
"W  c #4B8838",
"Q  c #40A239",
"!  c #3F8F41",
"~  c #5D9E58",
"^  c #50A34A",
"/  c #6D8267",
"(  c #6EA36A",
")  c #7EC17A",
"_  c #B59E2C",
"`  c #A7882A",
"'  c #CCB514",
"]  c #C78525",
"[  c #E7B829",
"{  c #E9D706",
"}  c #F3DF03",
"|  c #E0C20B",
" . c #FCEA00",
".. c #F7E402",
"X. c #9D8458",
"o. c #BC8144",
"O. c #80846F",
"+. c #AF8270",
"@. c #82AA7E",
"#. c #DFAF5B",
"$. c #D89F72",
"%. c #E5A075",
"&. c #032C87",
"*. c #093388",
"=. c #143988",
"-. c #012E94",
";. c #012F9B",
":. c #0B2D92",
">. c #033393",
",. c #00319B",
"<. c #0F3792",
"1. c #153E97",
"2. c #1B2B8B",
"3. c #0132A5",
"4. c #0133AB",
"5. c #0A37A9",
"6. c #0033B2",
"7. c #0335BB",
"8. c #1B4396",
"9. c #284D9A",
"0. c #1440AD",
"q. c #3459AF",
"w. c #3F60A3",
"e. c #715882",
"r. c #596E93",
"t. c #687999",
"y. c #636783",
"u. c #526EA8",
"i. c #4D568D",
"p. c #0338C7",
"a. c #0038D2",
"s. c #003CDE",
"d. c #0040CC",
"f. c #8F2FA6",
"g. c #854B82",
"h. c #A7788A",
"j. c #B57A90",
"k. c #EB7981",
"l. c #F17982",
"z. c #A536C3",
"x. c #C43FE6",
"c. c #C65AE1",
"v. c #7C8E91",
"b. c #768DB8",
"n. c #6C86B4",
"m. c #868995",
"M. c #8E8D8B",
"N. c #B69585",
"B. c #B4819C",
"V. c #8DB68A",
"C. c #8A8DA1",
"Z. c #8898B9",
"A. c #8D98A7",
"S. c #9BA3AC",
"D. c #AAAFB0",
"F. c #DD959B",
"G. c #EE8C93",
"H. c #ED9198",
"J. c #F0888F",
"K. c #D5A888",
"L. c #F4B587",
"P. c #E3B390",
"I. c #ED9DA2",
"U. c #F19BA0",
"Y. c #C7B1A3",
"T. c #CFB5B4",
"R. c #EAA7AD",
"E. c #F4AEB2",
"W. c #E9B4B9",
"Q. c #F8B3B7",
"!. c #F0A2A6",
"~. c #A6C59C",
"^. c #B8C8B7",
"/. c #ECCCBA",
"(. c #9AAACC",
"). c #A4B2CA",
"_. c #B7BDC7",
"`. c #F7BEC0",
"'. c #B7C2D5",
"]. c #C5C7C9",
"[. c #CACED6",
"{. c #D5D5D4",
"}. c #DDDCD7",
"|. c #C9D5D0",
" X c #F6C8C9",
".X c #E8D3C7",
"XX c #F8CFD0",
"oX c #FADBDC",
"OX c #F5D4D5",
"+X c #EFC3C5",
"@X c #D1E4CE",
"#X c #DAE6D8",
"$X c #E1E1DE",
"%X c #E1E9DE",
"&X c #D0D7E3",
"*X c #E4E4E3",
"=X c #E9E9E7",
"-X c #ECEDEA",
";X c #E3E9E6",
":X c #FBE5E4",
">X c #FAECEA",
",X c #F4E5E2",
"<X c #F9F0EF",
"1X c #F1F0EE",
"2X c #F4F5F3",
"3X c #FBF4F2",
"4X c #F9F9F6",
"5X c #FEFEFC",
"6X c #EDEFEF",
"7X c black",
"8X c black",
"9X c black",
"0X c black",
"qX c black",
"wX c black",
"eX c black",
"rX c black",
"tX c black",
"yX c black",
"uX c black",
"iX c black",
"pX c black",
"aX c black",
"sX c black",
"dX c black",
"fX c black",
"gX c black",
"hX c black",
"jX c black",
"kX c black",
"lX c black",
"zX c black",
"xX c black",
"cX c black",
"vX c black",
"bX c black",
"nX c black",
"mX c black",
"MX c black",
"NX c black",
"BX c black",
"VX c black",
"CX c black",
"ZX c black",
"AX c black",
"SX c black",
"DX c black",
"FX c black",
"GX c black",
"HX c black",
"JX c black",
"KX c black",
"LX c black",
"PX c black",
"IX c black",
"UX c black",
/* pixels */
"                        } ..} {                       ",
"                      }  . . ...{                     ",
"                      .. ...} ..{                     ",
"                      ' | _ ` _ '                     ",
"                      ` ' D G X.                      ",
"                  z.4 N [ P.L.#.B                     ",
"                  x.f.o ] L.L.o.D                     ",
"                    c.d W S G O.}.                    ",
"                  Y.R.h.! w =.D.-X4X                  ",
"                6X/.%.$.t > 9.b.(.b.t.                ",
"              2X5X,X.XN.t r *.,.=.3.p.                ",
"              4X5X2X2X{.r.r & : =.4.d.                ",
"              (.5X2X=X5X}.y / S.Z.b.                  ",
"            7.0.A.*X=X5X;XW V.5X5X4X                  ",
"          p.a.6.$ S.2X5X%XO ( 2X5X4X                  ",
"          p.,.; . M.5X5X#XO ~ -X4X4X                  ",
"          p.> & X / 5X5X#XT ^ ;X1X5X                  ",
"          1.0.4.. s 5X5X@XQ W #X=X4X                  ",
"            a.4.$ S.2X5X|.T T @X=X=X                  ",
"            a.a.<.9.m./.^.O T ^.4X{.$X                ",
"              5.=.1.N.P.~.R T V.5X$X].                ",
"                n.r.K.Y.@.E E ) 5X2X{.                ",
"                2X[..XT.t.e w a 6X5X=X{.              ",
"              4X5X5X-X*Xu.-.&.=.&X5X5X=X2X            ",
"              5X5X5X-X-Xw.,.3.>.).5X5X3X3X<X          ",
"            2X5X5X4X2X;X9.3.6.; t.5X5X3X:X:X,X        ",
"            5X5X5X3X5X'.>.6.&.; 9.;X5X3X:XoXoXI.      ",
"          4X5X5X5X5X5X).q.q.; : >.).5X4XXXE.+XH.k     ",
"          3X5X5X5X5X4X[.].S.% : ;.u.2X3XE.k.k.F.A j   ",
"        OX:X>X<X5X5X-Xd u 0 % ,.3.1.[.>XW.I.l.n C c   ",
"        XX>XOXoX<X>X=X_._.e.1 4.4.-.Z.`.H.OXU.b n f f ",
"      +XXXoXXX:XXXR.Z.8.8.< 1 4.4.,.i.W.Y I m P U j c ",
"      E.H. X X+XXXOXu.-.:.8 < 4.6.3.0 h. XL l m K x k ",
"    M Z P J.U U !.T.9.4.2.6 8 4.7.3.0 p W.Q.m l x x j ",
"  k l Z Z U L I P B.5.3.1 6 8 5.p.;.- q j.Q.b x x x   ",
"  z x n K J.K b b g.: @ - 6 5 :.-.@ + 9 V J x x x j   ",
"j x x x Z m x x x 9 4.&.8 6 8 &.4.:.8 6 3 v x x z     ",
"x x x x x x x x k , p.p.8 6 8 7.s.p.8 6 6 g x x       ",
"j z x x x x x x c & >.*.8 7 5 * e 8.        k j       ",
"      z z z z x v m.v.        S.D.^.                  ",
"                  -X-X          -X$X                  ",
"                  -X-X          1X$X                  ",
"                  C.C.          m.y.                  ",
"                  % %           # #                   ",
"                % % %           % %                   ",
"                % % =           = % %                 ",
"              i t -             , , u H F             ",
"              F +.i                   p               "
};
