/* XPM */
static char *a14845f8d5f54c18c028184ca07f2d9ayZiK78Nptt2H9CvL_30[] = {
/* columns rows colors chars-per-pixel */
"28 48 256 2 ",
"   c None",
".  c #030B18",
"X  c #040505",
"o  c #6D3E25",
"O  c #3B7738",
"+  c #2D6E2F",
"@  c #3A1F57",
"#  c #241F51",
"$  c #012448",
"%  c #1B224F",
"&  c #072458",
"*  c #1E2554",
"=  c #122C5C",
"-  c #163557",
";  c #262757",
":  c #242B4D",
">  c #032869",
",  c #002B77",
"<  c #113977",
"1  c #262A68",
"2  c #37236A",
"3  c #262678",
"4  c #511C5C",
"5  c #601A55",
"6  c #65255E",
"7  c #551E64",
"8  c #5C1F69",
"9  c #4E1F63",
"0  c #4A2065",
"q  c #4A216E",
"w  c #432168",
"e  c #4D2E67",
"r  c #164E54",
"t  c #104470",
"y  c #2B426A",
"u  c #514C5C",
"i  c #4B7942",
"p  c #4E4F6D",
"a  c #69586F",
"s  c #467073",
"d  c #7F7F7C",
"f  c #676971",
"g  c #B7051B",
"h  c #B01333",
"j  c #DD021A",
"k  c #DE0017",
"l  c #E6011A",
"z  c #EC021B",
"x  c #F40015",
"c  c #FD0016",
"v  c #F3011A",
"b  c #FE001A",
"n  c #F80D1F",
"m  c #D80822",
"M  c #DB1B2F",
"N  c #FB0A22",
"B  c #F81A2D",
"V  c #F71328",
"C  c #F91D30",
"Z  c #E80F25",
"A  c #DA2B3D",
"S  c #F42939",
"D  c #F4313F",
"F  c #B2651B",
"G  c #87602E",
"H  c #F23242",
"J  c #A17F57",
"K  c #8A577B",
"L  c #88696B",
"P  c #977269",
"I  c #9D7772",
"U  c #EC4A55",
"Y  c #F24E5A",
"T  c #F35A66",
"R  c #E15F69",
"E  c #ED6871",
"W  c #ED767F",
"Q  c #EF6670",
"!  c #368733",
"~  c #369535",
"^  c #3BAC38",
"/  c #4B8838",
"(  c #40A33A",
")  c #3F8F41",
"_  c #5D9D58",
"`  c #50A24B",
"'  c #6D8367",
"]  c #6EA36A",
"[  c #AE922B",
"{  c #CDB514",
"}  c #C78525",
"|  c #E8B829",
" . c #ECD906",
".. c #F1DF04",
"X. c #E1C30B",
"o. c #F9E401",
"O. c #FEEB00",
"+. c #F7E502",
"@. c #9C8358",
"#. c #BC8145",
"$. c #80846E",
"%. c #B18370",
"&. c #82AA7E",
"*. c #E0AF5B",
"=. c #D89F72",
"-. c #E5A075",
";. c #81C37D",
":. c #032C87",
">. c #083388",
",. c #11368A",
"<. c #163C83",
"1. c #012E94",
"2. c #002F9B",
"3. c #0A2D92",
"4. c #023393",
"5. c #01319B",
"6. c #0F3792",
"7. c #153C97",
"8. c #1B2B8B",
"9. c #0032A5",
"0. c #0133AB",
"q. c #0B37A8",
"w. c #0033B2",
"e. c #0335BB",
"r. c #194396",
"t. c #3A4D8A",
"y. c #284D98",
"u. c #2A519F",
"i. c #1440AD",
"p. c #2F56AB",
"a. c #3F61A3",
"s. c #715881",
"d. c #5C6B8C",
"f. c #647895",
"g. c #626783",
"h. c #5471AB",
"j. c #5271B0",
"k. c #677EA1",
"l. c #0037C4",
"z. c #023BCB",
"x. c #0436C6",
"c. c #0039D3",
"v. c #003CDE",
"b. c #8F2FA6",
"n. c #894B81",
"m. c #87688A",
"M. c #A17D88",
"N. c #EE7E85",
"B. c #F47D85",
"V. c #A535C3",
"C. c #C43FE6",
"Z. c #C55AE1",
"A. c #7D8F90",
"S. c #7C91B8",
"D. c #738BB2",
"F. c #868995",
"G. c #8D8D8B",
"H. c #B69585",
"J. c #B5809C",
"K. c #8FB88C",
"L. c #8A8DA2",
"P. c #8C9AB8",
"I. c #8C98A7",
"U. c #9BA3AC",
"Y. c #AEAFB3",
"T. c #EC838A",
"R. c #ED969B",
"E. c #F48F95",
"W. c #D5A788",
"Q. c #F4B587",
"!. c #E3B391",
"~. c #EF9DA3",
"^. c #C7B1A3",
"/. c #D4AFAB",
"(. c #EAA2A7",
"). c #F0B1B3",
"_. c #A6C59C",
"`. c #BCC3BB",
"'. c #B7D0B5",
"]. c #ECCCBA",
"[. c #9AAACC",
"{. c #B7BDC7",
"}. c #A4B1C9",
"|. c #B9C3D4",
" X c #C7CACB",
".X c #CCCAD0",
"XX c #DCDCDA",
"oX c #D7D8D5",
"OX c #CECDC6",
"+X c #EEC4C5",
"@X c #EECDC6",
"#X c #F2C5C7",
"$X c #EBD1CF",
"%X c #DCE4D9",
"&X c #D0E4CE",
"*X c #E1E5DF",
"=X c #F3E0DF",
"-X c #D0D7E3",
";X c #E4E4E3",
":X c #ECEDEB",
">X c #E5E9E7",
",X c #F5E9E6",
"<X c #EEF0EE",
"1X c #F0F0EE",
"2X c #F8F1EF",
"3X c #F4F5F3",
"4X c #FBF2F1",
"5X c #F9F9F7",
"6X c #FEFEFC",
"7X c black",
"8X c black",
"9X c black",
"0X c black",
"qX c black",
"wX c black",
"eX c black",
"rX c black",
"tX c black",
"yX c black",
"uX c black",
"iX c black",
"pX c black",
"aX c black",
"sX c black",
"dX c black",
"fX c black",
"gX c black",
"hX c black",
"jX c black",
"kX c black",
"lX c black",
"zX c black",
"xX c black",
"cX c black",
"vX c black",
"bX c black",
"nX c black",
"mX c black",
"MX c black",
"NX c black",
"BX c black",
"VX c black",
"CX c black",
"ZX c black",
"AX c black",
"SX c black",
"DX c black",
"FX c black",
"GX c black",
"HX c black",
"JX c black",
"KX c black",
"LX c black",
"PX c black",
"IX c black",
"UX c black",
/* pixels */
"                           .....                        ",
"                        ..O.O.O.+.                      ",
"                        o.O.o.o.O. .                    ",
"                        { X.[ [ [ {                     ",
"                        [ { L P @.                      ",
"                    V.6 F | !.Q.*.G                     ",
"                    C.b.o } Q.Q.#.L                     ",
"                      Z.f / J P $.XX                    ",
"                    ^.(.M.) r <.Y.:X5X                  ",
"                  <X].-.=.u < u.S.[.D.f.                ",
"                3X6X,X@XH.u y >.5.,.9.z.                ",
"                5X6X3X3XoXd.y = , ,.0.z.                ",
"                [.6X3X>X6XXXi ' U.P.D.                  ",
"              e.i.I.;X>X6X>X/ K.6X6X5X                  ",
"            z.c.w.& U.3X6X*XO ] 3X6X5X                  ",
"            l.5.> . G.6X6X%XO _ :X5X5X                  ",
"          c.z.< = X ' 6X6X%X! ` >X1X5X                  ",
"            7.i.0.. d 6X6X&X( ` %X>X5X                  ",
"              c.0.& U.3X6XOX! ! &X>X>X                  ",
"              c.z.6.y.F.].`.+ ! '.5XoX                  ",
"                q.,.7.H.!._.~ ! K.6XXX`.                ",
"                  j.t.W.^.&.^ ^ ;.6X3XOX                ",
"                  3X|.$X/.f.t r s 3X6X>XXX              ",
"                5X6X6X:X;Xh.1.:.<.-X6X6X3X5X            ",
"                6X6X6X>X:Xa.5.9.4.}.6X6X6X6X5X          ",
"              5X6X6X3X3X>Xy.9.w.> k.6X6X6X6X6X6X(.      ",
"              6X6X6X5X6X|.4.w.:.> u.>X6X6X,X2X5XN.      ",
"            5X6X6X6X6X6X}.p.p.> , 4.}.6X6X(.(.).R.z     ",
"            6X6X6X6X6X5X.X XU.: , 2.h.5X6X~.R.Y R A k   ",
"          3X6X6X6X6X6X>Xf a e # 5.9.r.-X,X).+XT x h g   ",
"          6X6X6X6X4X#X;X{.{.s.3 0.0.1.S.$XN.#XQ Q Z g g ",
"        3X#X2X6X6X4X).P.r.r.2 3 0.0.5.t.$XD n U +XC z   ",
"        T E R.@X=X+X3Xh.1.3.0 2 0.w.9.1 Y.~.V C T b v   ",
"      x B N.H T.U T.OXu.9.8.7 w 0.e.0.2 m.6XB.c c b v   ",
"    l b N D S W S E J.q.9.3 7 q q.l.5.@ 7 .XT.c b b v   ",
"    v b N W ~.Y V B n., $ ; 7 0 3.1.$ @ 4 K H b b b z   ",
"  z b b b C S b b c 8 w.:.w 7 0 :.0.1.w 7 5 m b b b j   ",
"  b b b b b b b b z 2 l.x.q 7 q e.v.x.q 7 7 h b b v     ",
"j v b b b b b b b m = 4.>.0 7 9 - t r.        v b j     ",
"    l v v b b b b m F.A.        U.Y.`.        j l       ",
"            j l z M <X:X          :X*X                  ",
"                    1X:X          1X*X                  ",
"                    L.L.          F.g.                  ",
"                    * *           % %                   ",
"                    * *           * *                   ",
"                  * * ;           ; * *                 ",
"                  u ;             1 1 p I P             ",
"                P %.a                   a               "
};
