/* XPM */
static char *_85c59152a4d4ccce0fc19c7cea1f04a3LQ5iPqnxZn6qCxt_14[] = {
/* columns rows colors chars-per-pixel */
"51 55 256 2 ",
"   c None",
".  c #151519",
"X  c #1D1F2A",
"o  c #0A2A3A",
"O  c #1D243C",
"+  c #153135",
"@  c #25383A",
"#  c #333135",
"$  c #665519",
"%  c #5A452C",
"&  c #76652A",
"*  c #0D2D4C",
"=  c #0C324A",
"-  c #153446",
";  c #14365A",
":  c #0E2D5A",
">  c #232A55",
",  c #303656",
"<  c #063778",
"1  c #0C3674",
"2  c #2F3767",
"3  c #294965",
"4  c #554E54",
"5  c #6A5A5B",
"6  c #765C59",
"7  c #736B49",
"8  c #4D556B",
"9  c #645862",
"0  c #4D6271",
"q  c #726669",
"w  c #7B6F73",
"e  c #61686E",
"r  c #BB3D3A",
"t  c #DD0B0C",
"y  c #D40B0B",
"u  c #D81514",
"i  c #CA1313",
"p  c #EA0304",
"a  c #E30C0C",
"s  c #EC0A0B",
"d  c #E60606",
"f  c #F30304",
"g  c #F20909",
"h  c #FD0D0C",
"j  c #FD0807",
"k  c #FD110E",
"l  c #ED1B16",
"z  c #E81B18",
"x  c #F51613",
"c  c #FB1412",
"v  c #F31916",
"b  c #FC1817",
"n  c #FB1B1A",
"m  c #F31B19",
"M  c #F6201F",
"N  c #C92524",
"B  c #D12323",
"V  c #E72B29",
"C  c #F62927",
"Z  c #EA3937",
"A  c #F43937",
"S  c #F0332F",
"D  c #907431",
"F  c #AC7B2C",
"G  c #E3453F",
"H  c #BD4946",
"J  c #956C51",
"K  c #BF7B5B",
"L  c #82676D",
"P  c #D34F4C",
"I  c #F24A47",
"U  c #ED5B57",
"Y  c #F05451",
"T  c #D7625A",
"R  c #EA615E",
"E  c #F1625E",
"W  c #CA7570",
"Q  c #EC6663",
"!  c #EA6B68",
"~  c #F06B67",
"^  c #EB7A76",
"/  c #EA7875",
"(  c #EC716D",
")  c #A79A24",
"_  c #BDA123",
"`  c #A29518",
"'  c #F3DC12",
"]  c #EFD20C",
"[  c #F7E205",
"{  c #FBE601",
"}  c #FDEA02",
"|  c #FCEA0A",
" . c #F4E01D",
".. c #DEC23F",
"X. c #EAD626",
"o. c #E8D12D",
"O. c #D7C711",
"+. c #92817E",
"@. c #8A866D",
"#. c #B68776",
"$. c #A5A262",
"%. c #C8865F",
"&. c #D5AE49",
"*. c #D2B64F",
"=. c #D7966C",
"-. c #CE8F75",
";. c #ED827D",
":. c #E7817D",
">. c #E59F78",
",. c #D0A773",
"<. c #E8A37A",
"1. c #DEC566",
"2. c #E8D460",
"3. c #043A87",
"4. c #023D95",
"5. c #023E9B",
"6. c #093E99",
"7. c #003FA2",
"8. c #0B4598",
"9. c #13479C",
"0. c #1C4483",
"q. c #2A569D",
"w. c #0142AB",
"e. c #0643A3",
"r. c #0145BA",
"t. c #0D48B4",
"y. c #0154BD",
"u. c #1754B8",
"i. c #134AA0",
"p. c #2756A7",
"a. c #777783",
"s. c #6C738E",
"d. c #416FBD",
"f. c #014ACB",
"g. c #0349C3",
"h. c #0C55D0",
"j. c #0056E4",
"k. c #847A82",
"l. c #758AA8",
"z. c #A78E86",
"x. c #AC9A8E",
"c. c #BA958B",
"v. c #B69D97",
"b. c #AB958E",
"n. c #BDA39D",
"m. c #AFA297",
"M. c #979CA5",
"N. c #9FA2AD",
"B. c #B4AEB2",
"V. c #B7B2B0",
"C. c #C3988B",
"Z. c #C39E94",
"A. c #CC8D87",
"S. c #EA8581",
"D. c #E88B86",
"F. c #EC928D",
"G. c #E7908B",
"H. c #EA9F99",
"J. c #E89A95",
"K. c #F19993",
"L. c #CFA688",
"P. c #DCA785",
"I. c #C5A097",
"U. c #C5A39A",
"Y. c #CAA49B",
"T. c #CBA99E",
"R. c #D8B69A",
"E. c #EBB38C",
"W. c #F3B48C",
"Q. c #EBA29D",
"!. c #E7A39D",
"~. c #E9AA83",
"^. c #C6AAA2",
"/. c #CBADA3",
"(. c #D2ABA3",
"). c #CDB3AA",
"_. c #CFB0A3",
"`. c #D2B6AD",
"'. c #D3B8AD",
"]. c #D1B1A7",
"[. c #C7B9B7",
"{. c #D4BCB4",
"}. c #DABFB6",
"|. c #EBABA6",
" X c #E9A9A4",
".X c #EAB3AD",
"XX c #ECBBB5",
"oX c #EABAB4",
"OX c #D5C08E",
"+X c #FCC298",
"@X c #E3D29D",
"#X c #DBC3BB",
"$X c #DDC9BB",
"%X c #D4C7B6",
"&X c #EDC4BD",
"*X c #F0C5BE",
"=X c #E1CFA1",
"-X c #A9AFC2",
";X c #DDCAC3",
":X c #DACCC7",
">X c #D4CDCF",
",X c #EBC7C0",
"<X c #E2CCC4",
"1X c #EDCBC5",
"2X c #E7CEC8",
"3X c #F0CCC6",
"4X c #E4D3CC",
"5X c #EBD3CC",
"6X c #E5D3C6",
"7X c #F1D3CC",
"8X c #E6D7D0",
"9X c #EBD7D0",
"0X c #E7D8D1",
"qX c #EBDBD4",
"wX c #EDDFD9",
"eX c #F1DBD5",
"rX c #F1DDD7",
"tX c #EFE1DA",
"yX c #F2E5DF",
"uX c #F2E4DE",
"iX c #F2E5E0",
"pX c #F4E9E3",
"aX c black",
"sX c black",
"dX c black",
"fX c black",
"gX c black",
"hX c black",
"jX c black",
"kX c black",
"lX c black",
"zX c black",
"xX c black",
"cX c black",
"vX c black",
"bX c black",
"nX c black",
"mX c black",
"MX c black",
"NX c black",
"BX c black",
"VX c black",
"CX c black",
"ZX c black",
"AX c black",
"SX c black",
"DX c black",
"FX c black",
"GX c black",
"HX c black",
"JX c black",
"KX c black",
"LX c black",
"PX c black",
"IX c black",
"UX c black",
/* pixels */
"    v x c c x v                                                                                       ",
"  v c c c c k c x u                                   l v v x c c x x l                               ",
"z c c k c k k k k h p                           v x c c k c k k k k k c c c v                         ",
"  x c c b b c k k h f f p                 v x c k k k k k k k k k k k k k k k c l                     ",
"  v b b n b b k h h g p f f d t a l x x c k k k k k h h h h h c b h h h h k k k c v                   ",
"  l n n n b n I I c x d s g g f f k k k k k h h h h h h h h h b b h h h h h h k k c x                 ",
"    m n n S A *XJ.S.~ a a s s s s h k h h h h h h h h c b b c b b h h h h h h h k k c x               ",
"    S Q I |.! 5X9XwXQ.P u a a t a h c c h h v c h h c b b b x x b c h h h h h h h k k h p             ",
"    G |.XXiX,X5XyX5X/ J.H B t y t b E ~ h j A I h Y K.~ n C U I E ^ x A ( C A h h h k g f y           ",
"    T D.5XiXiXyXyXuX7X5XU.-.N y u A &XoXY c Q U C 3XiX9XY ( 9X5X5XuXU Q 7X!.F.C S n h f f p           ",
"      9XyXyXiXiXyXyXiXtX'.(.A.H B I / 1X,X! XXQ m F..X5X|.D.8XtXyXyXH.! uXiXH.F.7XQ s p p g c x l     ",
"      4XiXyXiXyXyXyXiXuX#XT.(.U.W &X7XuXeX9XuX&X^ (  XuXyX9X9XwXyXyXXX.XyXyX1X5X.XZ t d s h k c c c l ",
"      <XiXyXyXyXyXyXyXyX<XT.T.U.&XiXyXyXeX7XXX|.XXyXyXyXyXyXqXqXyXyXyXyXyXyXuX;.C z N t h h k c c v   ",
"      #XuXyXyXyXyXyXyXyX2XY.Y.U.wXiXiX7XH.oXD./ 1XiXyXyXyXyXwX9XyXyXyXyXyXyXuXU k N W V n A c c v     ",
"        tXyXyXyXyXyXuXyX5XY.Z./.uXyXiXoX X5X:.^ eXyXyXyXyXyXuX8XuXyXyXyXyXyXiX|.V r A.A U ;.c v       ",
"        qXyXyXyXyXyXyXyX5XT.C.`.yXyXyX,XG.XXQ ( 5XyXyXiXiXiXiXqXqXiXyXyXuXyXyX.XT T..XU Q.F.z         ",
"        4XiXyXyXyXyXyXyX9XY.c.#XyXyXyX5X X|.! ! 7XyXyXiXiXiXiXyX8XwXyXuXyXyXuX1X(.<X1X1X;.Z           ",
"        <XyXyXyXyXyXyXyX9XU.c.#XyXyXiX,X!.,XS.!.wXyXyXiXiXiXiXiXuX8XtXuXyXyXyX9X{.tXiXrXR             ",
"          tXyXyXyXyXyXyXwXI.c.;XyXyXyX,X1XuX1X1XyXyXuXuXiXiXiXiXiXqX;X8XyXyXyX4X<XiXiX5X              ",
"          9XiXyXyXyXyXyXwXU.I.<XyXyXyX&XJ.XXH.,XyXyXyXrXuXiXiXiXiX9X4X4XyXyXyX4XwXiXqX                ",
"          <XiXyXyXyXyXyX9XY.U.2XyXyXyXyX&X^ XXyXyXyXyXuXtXiXiXiXyX4XwX8XwXyXuX9XyXuX#X                ",
"          {.uXyXuXyXyXyXwX/.U.4XyXyXyXXX!.H.Q.3XuX9XuXyXtXyXyXyXwX4XuXtX8XyXuXyXyX2X                  ",
"            qXiXtX8XyXyXuX].U.4XyXyXyX&X*X.X1X7XyX<X}.wXtXuXyXtX4XwXyXuX8XuXyXiX5X                    ",
"            <XiXtX;XuXyXyX).I.4XyXyXyX3XH.F.Q.uXyXuX'.{.uXuXyX2X4XuXyXyXqXwXiXwX                      ",
"            {.uXtX{.tXyXyX{.Z.4XyXyXiXF.Q D.:.rXyXyX5X).qXuXyX#X<XyXyXyXtX9XqX_.            %.        ",
"              qXtX{.qXiXyX;Xc.4XyXyXuX( ! S.:.eXyXyXyX#X<XyXyX{.;XyXyXyXyX9X'.            ~.>.=.      ",
"              4XtX`.4XyXyX4XI.<XqXyXeXD.Q.|. XeXyXyXyX5X;XyXuX'.4XyXyXyXwX'.        e.p.R.+X<.        ",
"                9X{.;XyXyX9XU.{.wXyX,XJ.|.1X!.tXyXyXyXuX;XtXwX`.wXyXyXwX`.        9.u.h.n.W.          ",
"                ;X{.#XyXyXwXU.^.uXyXyX&XS.&X.XwXuXyXyXyX4XqX9X{.uXyX9X`.      9.r.f.u.8.#.            ",
"                  ).{.tXyXuX/.'.yXyXwX5X&X&X,X9X8XqXtXyXqXwX4X;XuX2X].C.  6.r.h.h.g.;                 ",
"                    /.qXiXyX).;XyX8X,XS.F. X! !.uX9X4XtXqXqX;X4X#XT.z.  5.r.f.9.1 ;                   ",
"                    v.;XyXuX/.#X4XqXD.( ! D.^ S.wXyXwX8XqX;X`./.`.v.1 5.r.f.8.-                       ",
"                      ^.4XwXU.).qXyX&X&X).5X7X1XtXyXyXqX;X/.I.^.wX>Xi.g.4.< -                         ",
"                        ).<Xn.4XyXwX4X8Xs.N.>XM.4XtXyXuX#X^.).4XiXwXd.7.=                             ",
"                        z./.{.tXwX$XOX=X7 8 e 0 :X4XwX8X4X4X8XyXiXpXl.=                               ",
"                          U.4XtX)./.o. .O.` ) $.@X:XwXwX8XwXuXiXiXiXV.                                ",
"                          n.4XwXU.,.X.{ { } [ [ 2.$XtX9XqXyXyXtX<X4X                                  ",
"                          :XqX#X'.*.[ } } } } } ' 1.6X9XtXyXtX{././.                                  ",
"                          4X9X8XR.o.| | | | | | [ ..$X<XuXuX{.+.e                                     ",
"                          [.#X$X1.] ' o.[ { '  .] 1.6X#X<X`.e 1 3.5.                                  ",
"                        s.0XwX,.&.F & @.) _ ` $ F &.L.v.+.8 1 4.5.6.                                  ",
"                      0.-XpX8X$X).z.6 k.9 q D % 9 m.4 @ o < 4.7.w.<                                   ",
"                      q.>XpXiXiX/.n.L -.P.P.L.7 q x.    * < w.r.r.e.                                  ",
"                      q.B.[.8XiX).5 4 J E.E.E.            1 g.f.f.3.                                  ",
"                    e.4.; ; 3 a.b.# #   <.P.              * 4.4.< -                                   ",
"                  3.e.w.4.4.3.< O . .                       @ 3 0                                     ",
"                t.r.r.r.7.w.9.5.< O X       J J               [.%X                                    ",
"                  j.j.j.4.i.h.f.u.9.6.< a.E.=.%.              B.V.                                    ",
"                  8.y.y.: o < w.p.g.w.3.Z.+XW.>.              , 2                                     ",
"                    - = o +     ; < 3.1 b.E.W.<.              O O                                     ",
"                                      - 4 6 J K               > > 2                                   ",
"                                      6 +.9 w 5               > > 2                                   ",
"                                          w                   2 8 a.L                                 ",
"                                          x.                    #.#.J                                 ",
"                                          x.                      4                                   "
};
