/* XPM */
static char *a14845f8d5f54c18c028184ca07f2d9ayZiK78Nptt2H9CvL_57[] = {
/* columns rows colors chars-per-pixel */
"27 48 256 2 ",
"   c None",
".  c #030B17",
"X  c #030505",
"o  c #6D3E25",
"O  c #3B7838",
"+  c #2E6E2F",
"@  c #3A1E57",
"#  c #241F51",
"$  c #012447",
"%  c #1B224F",
"&  c #082559",
"*  c #1E2454",
"=  c #102956",
"-  c #173657",
";  c #252757",
":  c #2D2656",
">  c #04286A",
",  c #002A75",
"<  c #0E3473",
"1  c #232B65",
"2  c #3A256C",
"3  c #262678",
"4  c #393676",
"5  c #541E5F",
"6  c #681A52",
"7  c #65255F",
"8  c #551F64",
"9  c #601F67",
"0  c #4B2065",
"q  c #4A216E",
"w  c #432168",
"e  c #4C2B67",
"r  c #663E6F",
"t  c #164E54",
"y  c #114370",
"u  c #2B426A",
"i  c #524D5C",
"p  c #4B7942",
"a  c #4E4F6D",
"s  c #6A586F",
"d  c #4B7375",
"f  c #7F7E7C",
"g  c #666870",
"h  c #A20F3B",
"j  c #BF2438",
"k  c #D2041C",
"l  c #EA021B",
"z  c #E7041C",
"x  c #F5011C",
"c  c #FC011A",
"v  c #FA0A1F",
"b  c #DA0A23",
"n  c #DA1125",
"m  c #C71027",
"M  c #FB0B22",
"N  c #E6162B",
"B  c #FA1429",
"V  c #F91E30",
"C  c #D6273A",
"Z  c #E3273A",
"A  c #F92337",
"S  c #F7303F",
"D  c #B1651C",
"F  c #86602E",
"G  c #F82F41",
"H  c #F83646",
"J  c #A17E57",
"K  c #924F79",
"L  c #87696B",
"P  c #96736B",
"I  c #97706A",
"U  c #E94A58",
"Y  c #F2414E",
"T  c #EA5A66",
"R  c #F55360",
"E  c #F25C67",
"W  c #F3727C",
"Q  c #EF6A74",
"!  c #378734",
"~  c #369534",
"^  c #3BAC38",
"/  c #4B8838",
"(  c #40A339",
")  c #3F8F41",
"_  c #5D9E58",
"`  c #50A34A",
"'  c #6D8268",
"]  c #6EA36A",
"[  c #AE932C",
"{  c #CCB414",
"}  c #C88524",
"|  c #E8B829",
" . c #EAD705",
".. c #E8D007",
"X. c #FAE601",
"o. c #FDEB00",
"O. c #F4E002",
"+. c #9C8358",
"@. c #BC8144",
"#. c #80846F",
"$. c #AF8270",
"%. c #82AA7F",
"&. c #DFAF5B",
"*. c #D99F72",
"=. c #E5A076",
"-. c #032C87",
";. c #083389",
":. c #11368A",
">. c #183E83",
",. c #012E94",
"<. c #002F9B",
"1. c #0A2D92",
"2. c #023393",
"3. c #01319B",
"4. c #0C3698",
"5. c #153D97",
"6. c #1B2B8A",
"7. c #0132A5",
"8. c #0134AC",
"9. c #0B39AC",
"0. c #0034B3",
"q. c #0335BB",
"w. c #1B4496",
"e. c #284E99",
"r. c #354E8C",
"t. c #1440AD",
"y. c #2F56AA",
"u. c #3F61A3",
"i. c #48568D",
"p. c #715881",
"a. c #5D7291",
"s. c #656E8C",
"d. c #5370A9",
"f. c #5373B7",
"g. c #033AC9",
"h. c #0336C5",
"j. c #0039D3",
"k. c #003CDE",
"l. c #0040CC",
"z. c #8F2FA7",
"x. c #957E9B",
"c. c #A17D88",
"v. c #EC7A82",
"b. c #F27A83",
"n. c #A536C4",
"m. c #C43EE6",
"M. c #C65AE1",
"N. c #7E8C8E",
"B. c #7D91B7",
"V. c #7188AD",
"C. c #878697",
"Z. c #8D8D8B",
"A. c #B69585",
"S. c #B6819C",
"D. c #90B88D",
"F. c #8A8DA1",
"G. c #8A97B5",
"H. c #8D98A7",
"J. c #9BA3AC",
"K. c #AAAFB0",
"L. c #EF858B",
"P. c #F08C92",
"I. c #F1959B",
"U. c #EB9197",
"Y. c #D5A888",
"T. c #F4B587",
"R. c #E3B391",
"E. c #F19FA4",
"W. c #C7B1A4",
"Q. c #C7B5B6",
"!. c #EAA3AA",
"~. c #F1A7AB",
"^. c #EDBABC",
"/. c #F0B7B9",
"(. c #84C280",
"). c #A6C59C",
"_. c #BAC4B9",
"`. c #B9D0B7",
"'. c #ECCCBA",
"]. c #9AAACC",
"[. c #A5B3CA",
"{. c #B7BDC7",
"}. c #A9B6CD",
"|. c #D8BDC5",
" X c #C9B6C1",
".X c #BDC6D4",
"XX c #C6C8CC",
"oX c #D7D7D5",
"OX c #C7DAC5",
"+X c #EEC2C4",
"@X c #ECCFC1",
"#X c #F4C9CA",
"$X c #F4D4D4",
"%X c #E2D8D4",
"&X c #D1E4CE",
"*X c #DBE4D9",
"=X c #E0E4DE",
"-X c #D0D8E3",
";X c #DFE3EA",
":X c #E3E4E2",
">X c #E6EAE3",
",X c #ECEDEB",
"<X c #E6E8E8",
"1X c #F4E8E6",
"2X c #EFF0EE",
"3X c #F1F0EE",
"4X c #F4F5F3",
"5X c #F9F5F3",
"6X c #F9F9F7",
"7X c #FEFDFC",
"8X c black",
"9X c black",
"0X c black",
"qX c black",
"wX c black",
"eX c black",
"rX c black",
"tX c black",
"yX c black",
"uX c black",
"iX c black",
"pX c black",
"aX c black",
"sX c black",
"dX c black",
"fX c black",
"gX c black",
"hX c black",
"jX c black",
"kX c black",
"lX c black",
"zX c black",
"xX c black",
"cX c black",
"vX c black",
"bX c black",
"nX c black",
"mX c black",
"MX c black",
"NX c black",
"BX c black",
"VX c black",
"CX c black",
"ZX c black",
"AX c black",
"SX c black",
"DX c black",
"FX c black",
"GX c black",
"HX c black",
"JX c black",
"KX c black",
"LX c black",
"PX c black",
"IX c black",
"UX c black",
/* pixels */
"                           . . .                      ",
"                        O.o.o.o.O.                    ",
"                        X.o.X.O.X. .                  ",
"                        { ..[ [ [ {                   ",
"                        [ { L P +.                    ",
"                    n.7 D | R.T.&.F                   ",
"                    m.z.o } T.T.@.L                   ",
"                      M.g / J P #.oX                  ",
"                    W.!.c.) t >.K.,X6X                ",
"                  2X'.=.*.i < e.B.].V.a.              ",
"                4X7X1X@XA.i u ;.3.:.7.g.              ",
"                6X7X4X4XoXa.u = , :.8.l.              ",
"                ].7X4X<X7XoXp ' J.G.V.                ",
"              q.t.H.:X<X7X>X/ D.7X7X6X                ",
"            g.j.0.& J.4X7X=XO ] 4X7X6X                ",
"            h.3.> . Z.7X7X*XO _ ,X6X6X                ",
"          j.g.< = X #.7X7X*X! ` >X3X7X                ",
"            5.t.8.. f 7X7X&X( / *X<X6X                ",
"              j.8.& J.4X7XOX! ! &X<X:X                ",
"              j.g.4.e.C.'._.+ ! `.6XoX                ",
"                4.:.5.A.R.).~ ! D.7X*X                ",
"                  f.r.Y.W.%.^ ^ (.7X6XoX              ",
"                  4X.X%XQ.a.y t d 4X7X,X<X            ",
"                6X7X7X,X:Xd.,.-.>.-X7X7X4X4X4X        ",
"                7X7X6X<X,Xu.3.8.2.[.7X7X6X4X7X6X      ",
"              4X7X7X6X4X<Xe.7.0.> V.7X7X7X6X6X3XU     ",
"              7X7X7X7X7X{.2.0.-.> e.;X7X6X+X#X1XE     ",
"            6X7X7X7X6X7X].y.y.< , 2.}.7X7XI.~.P.P.N   ",
"            7X7X7X7X7X6XXXXXJ.* , <.d.6X6X/.^.R T C   ",
"          4X7X7X7X7X7X<Xg g i # 3.7.5.-X$X$X/.R Y j k ",
"          1X5X7X7X7X#X%X{.{.p.3 8.8.,.B.#XP.v.I.b.Z m ",
"        U.P./.$X7X5X$XG.w.w.2 3 8.8.<.i.+XS G ^.W v b ",
"      z G E.Q ~.+X^.1Xd.,.1.0 2 8.0.7.4  XQ H W A c n ",
"      B H Q H v.E L.|.e.7.6.8 w 8.q.7.2 x.+XR H B c n ",
"    z A G E G W Y E S.9.7.3 8 q 9.h.3.@ r Q.T H M c l ",
"    x B M E !.R B V K , $ : 8 0 1.,.$ @ 5 K Z B c c l ",
"  l c M B B V c c c 9 8.-.w 8 0 -.8.,.w 8 6 b c c c l ",
"  x c c M M c c c l @ h.h.q 8 q q.k.g.q 8 8 h c c c z ",
"l c c c c c c c c k - 2.;.0 8 0 - y w.        l c x   ",
"  z x c c c c c c b N.N.        J.K._.          x     ",
"        k l c c x N ,X,X          ,X:X                ",
"                    2X,X          3X=X                ",
"                    F.F.          C.s.                ",
"                    * *           % %                 ",
"                    * *           * *                 ",
"                  * * ;           ; ; *               ",
"                  i :             1 1 a P I           ",
"                I $.s                   s             "
};
