/* XPM */
static char *_85c59152a4d4ccce0fc19c7cea1f04a3LQ5iPqnxZn6qCxt_2[] = {
/* columns rows colors chars-per-pixel */
"50 55 256 2 ",
"   c None",
".  c #151519",
"X  c #1D1F32",
"o  c #092A3A",
"O  c #1E263C",
"+  c #153135",
"@  c #25383A",
"#  c #333135",
"$  c #63511A",
"%  c #59452D",
"&  c #70612A",
"*  c #0D2D4C",
"=  c #0C324A",
"-  c #153446",
";  c #143659",
":  c #142B59",
">  c #272C57",
",  c #2C364D",
"<  c #033374",
"1  c #06387A",
"2  c #133A74",
"3  c #0C3567",
"4  c #3B3D62",
"5  c #24306A",
"6  c #154371",
"7  c #314C5F",
"8  c #554E54",
"9  c #765C59",
"0  c #6A5A5B",
"q  c #736B4A",
"w  c #445669",
"e  c #5C5170",
"r  c #645863",
"t  c #4D6271",
"y  c #72666A",
"u  c #7B6F74",
"i  c #61686E",
"p  c #DE0103",
"a  c #D40708",
"s  c #DA1918",
"d  c #EB0303",
"f  c #E50706",
"g  c #F20303",
"h  c #FD0D0C",
"j  c #F80A09",
"k  c #FD110E",
"l  c #F6100E",
"z  c #ED1916",
"x  c #F51613",
"c  c #FB1411",
"v  c #F21915",
"b  c #F91D1B",
"n  c #EC201C",
"m  c #CA2B2A",
"M  c #C03533",
"N  c #F52625",
"B  c #F32B2A",
"V  c #EA3936",
"C  c #F33735",
"Z  c #F2302E",
"A  c #907633",
"S  c #AB7A2B",
"D  c #CA423E",
"F  c #E1433F",
"G  c #956B51",
"H  c #BE7B5B",
"J  c #83676D",
"K  c #BD524E",
"L  c #F44543",
"P  c #F14D4B",
"I  c #EB5A58",
"U  c #F25855",
"Y  c #EA4A46",
"T  c #E5645F",
"R  c #C9746E",
"E  c #DE6F6B",
"W  c #ED6865",
"Q  c #F16965",
"!  c #E8716D",
"~  c #EA7572",
"^  c #EA7A76",
"/  c #E97C78",
"(  c #F17773",
")  c #DC5451",
"_  c #8D8E1F",
"`  c #9B9A25",
"'  c #BFA423",
"]  c #AF971D",
"[  c #F2DA0C",
"{  c #F2DB1A",
"}  c #E9CC0D",
"|  c #FEEB02",
" . c #FAE506",
".. c #E7D12C",
"X. c #D6C610",
"o. c #93827D",
"O. c #8B876A",
"+. c #B68775",
"@. c #A3A063",
"#. c #C8865F",
"$. c #D3B44C",
"%. c #D6AC49",
"&. c #CC857E",
"*. c #D29470",
"=. c #EC817D",
"-. c #E7837F",
";. c #E49F78",
":. c #C8A86D",
">. c #DFA67F",
",. c #E8A37A",
"<. c #DEC24D",
"1. c #DDC669",
"2. c #E9D464",
"3. c #043A86",
"4. c #023D95",
"5. c #013E9B",
"6. c #083E94",
"7. c #133D80",
"8. c #023FA0",
"9. c #0B4599",
"0. c #13479B",
"q. c #1B4483",
"w. c #2A569D",
"e. c #0240A4",
"r. c #0142AB",
"t. c #0944A3",
"y. c #0145BA",
"u. c #0E49B4",
"i. c #0153BD",
"p. c #1754B8",
"a. c #134AA0",
"s. c #2656A8",
"d. c #767783",
"f. c #6C738E",
"g. c #416FBD",
"h. c #014ACB",
"j. c #0349C3",
"k. c #0C55D0",
"l. c #0056E4",
"z. c #847A82",
"x. c #758AA8",
"c. c #918180",
"v. c #AA8E87",
"b. c #AC9A8E",
"n. c #B9958C",
"m. c #B69E97",
"M. c #A89892",
"N. c #BDA39D",
"B. c #AFA298",
"V. c #969CA5",
"C. c #9FA3AC",
"Z. c #B4AEB2",
"A. c #BAB5B3",
"S. c #C88B83",
"D. c #C6948B",
"F. c #D2928A",
"G. c #D9978F",
"H. c #C49D94",
"J. c #CE9F97",
"K. c #D88D87",
"L. c #EC8A85",
"P. c #EB8E89",
"I. c #E88682",
"U. c #EB938E",
"Y. c #E6928E",
"T. c #EB9A95",
"R. c #EA9D99",
"E. c #EA9893",
"W. c #F09792",
"Q. c #CEA688",
"!. c #DCA786",
"~. c #C5A39A",
"^. c #C8A299",
"/. c #D8B69A",
"(. c #DAA59E",
"). c #EBB38C",
"_. c #F3B48B",
"`. c #EDA29D",
"'. c #EDA791",
"]. c #C5ABA2",
"[. c #CBADA3",
"{. c #CDB3AA",
"}. c #CFB0A6",
"|. c #D1B5AC",
" X c #D2B7AB",
".X c #C8B9B6",
"XX c #D4BCB4",
"oX c #D9BEB5",
"OX c #ECABA5",
"+X c #EAABA5",
"@X c #ECB3AD",
"#X c #E3B2AB",
"$X c #EDBAB4",
"%X c #EDBEB8",
"&X c #E7BAB4",
"*X c #F0BBB5",
"=X c #F1AFAA",
"-X c #D5C08E",
";X c #FCC299",
":X c #E3D29E",
">X c #DAC4BC",
",X c #DBC7B9",
"<X c #C9C3BE",
"1X c #EDC3BC",
"2X c #E3C7BE",
"3X c #F1C3BD",
"4X c #E1CEA1",
"5X c #A9AFC2",
"6X c #DDCAC3",
"7X c #DACBC5",
"8X c #D4CDCF",
"9X c #E1CCC4",
"0X c #EECBC5",
"qX c #E8CCC5",
"wX c #F2C9C4",
"eX c #F2CAC4",
"rX c #E4D3CC",
"tX c #ECD3CC",
"yX c #E5D6C5",
"uX c #F1D4CE",
"iX c #E6D7D0",
"pX c #E6D8D1",
"aX c #EBDBD4",
"sX c #EDDFD8",
"dX c #EAD7D0",
"fX c #F1DBD5",
"gX c #F1DFD8",
"hX c #F0D7D1",
"jX c #EFE1DA",
"kX c #F2E4DE",
"lX c #F2E5E0",
"zX c #F7E9E3",
"xX c black",
"cX c black",
"vX c black",
"bX c black",
"nX c black",
"mX c black",
"MX c black",
"NX c black",
"BX c black",
"VX c black",
"CX c black",
"ZX c black",
"AX c black",
"SX c black",
"DX c black",
"FX c black",
"GX c black",
"HX c black",
"JX c black",
"KX c black",
"LX c black",
"PX c black",
"IX c black",
"UX c black",
/* pixels */
"    v c c c c                                                                                       ",
"n x c c c c c c z                                         v v c x c c v                             ",
"  x c k k k k k c f                                 v c c c c k c k k c c v                         ",
"  v c k k h h k k h g d f                     x x c k k k k k k k k k k k c v                       ",
"  v c k h h h h h h g g g g g g d x x x x c k k k k k h h h h h h h h h k k k c v                   ",
"  z c h c b b Q L c x d d d d d g k k k k k k k h h h h h h h h h h h h h k k k c x                 ",
"    b N C L.I wXU.L.Q f p d d d d k k h h h h h h h h h h h j j h h h h k h h h k c x               ",
"    Y P.U.wX`.1XaXaXP.) m a f p a h h c h h c c h h b N h h Z B c c h h b c h h h k c l             ",
"    F I.1XeXwXuXkXfXOX+XR R m a a b ( ( h j C L h U `.=XP Z OXOX=.U.B Z U N Z h h h k j d           ",
"    G.@XwXwXwXfXkXkXfXtX(.F.&.M a B OX@XP l W I N 3XeX%X`.I @X1XhXuXU.W 0XU.E.N L L k d g f         ",
"      0XhXuXeXuXkXkXuXtX#XF.F.&.D W P.tXtX-.1X/ B ~ Y.+XwX*X%XqXkXhX%X-.uXfX@X/ 3XR.z d d j v       ",
"      qXgXkXfXhXkXkXgXaX|.F.F.S.K.wXuXfXkXuXhX$XE.$X0XeXwXuXtXrXkXhXuXgXkXhXfX1X( N p p g k c c v   ",
"      9XgXkXkXkXkXkXkXsX&XF.F.S.1XuXgXgX%X$XR./ T.uXfXuXhXkXkXrXkXuXfXkXkXkXlX@Xv d m s j k c c c v ",
"      >XkXlXlXkXkXkXkXjX2XD.S.H.0XkXlX1XOXtXL./ 0XhXkXfXkXkXlXaXdXhXkXkXkXkXfX%XV a K V b C c c v   ",
"        jXlXkXkXkXkXkXkX9X^.D.|.aXkXkX0XR.0X^ ~ 0XkXkXkXkXlXlXjXrXkXlXkXkXuXeX0XE D S.L U L.c v     ",
"        aXlXkXkXkXkXkXkXrX^.n.oXjXkXkXtX+X@X~ I 1XkXkXlXkXkXlXlXaXaXlXlXhXwXwX%XK.J.#XW R.U.z       ",
"        rXlXkXkXkXkXkXkXrX^.D.>XkXkXlX0XR.0X-.E.tXkXkXlXlXkXlXlXkXaXaXkXgXuXeXrX>XoXtXtX=.V         ",
"        9XlXkXkXkXkXkXkXaXH.n.>XkXkXkX0XtXkX1X1XkXkXlXlXlXkXkXlXlXkXrXrXjXfXtXaX>XdXlXfXT           ",
"          jXkXkXkXkXkXkXaX~.^.9XkXkXkX$XU.eXT.$XkXkXlXlXlXkXkXlXlXkXpXrXaXfXaXaX9XkXlXtX            ",
"          aXlXkXkXkXkXkXaX~.^.9XkXkXkXfX@X~ `.gXkXkXkXlXlXlXkXlXlXjXaXjXaXkXaXaXsXlXaX              ",
"          rXlXkXkXkXkXkXaX[.^.9XkXkXkX0X#XU.R.0XkXaXkXkXkXlXkXkXkXaXsXkXaXjXjXjXkXkX2X              ",
"          XXkXkXkXkXkXkXkX|.H.9XkXkXkX@X$X+X%X0XkXrX>XaXkXkXkXjXrXaXkXkXaXaXkXlXkX9X                ",
"            aXlXjXrXkXkXkX{.^.9XkXkXkXfX0X$X0XkXkXkXXXXXkXkXkXaX6XjXkXkXsXaXkXlXaX                  ",
"            6XlXsX6XkXkXkXXXH.rXkXkXkX%X^ P.L.gXkXkXaX{.aXkXkXrX>XkXkXkXkXaXlXaX                    ",
"              jXsX>XjXkXkX>XH.rXlXkXkXP.W U.^ hXkXkXkX>X6XkXkX9XXXkXkXkXkXjXaX X            #.      ",
"              aXjXXXaXkXkX9Xn.rXkXkXkX/ ~ L.I.tXkXjXkXrX>XkXkX9X>XkXkXkXlXaX X            ).;.*.    ",
"              rXsX|.rXkXlXrX^.9XaXkXhXP.OX$X@XkXkXkXaXjX>XjXkX>X9XlXkXkXrX|.        t.s./.;X,.      ",
"                aXXX6XkXkXaX^.XXaXkXqXE.R.1XE.jXkXkXjXkXrXaXjX>XaXkXkXrX}.        0.p.j.N._.        ",
"                  oXoXkXkXsX~.].kXkXkX1XL.1X&XaXkXkXkXjXaXaXaX>XkXkXrX}.      0.y.h.p.0.+.          ",
"                  {.|.jXkXkX[.|.kXkXjXtX1X1X0XaXaXaXsXkXaXaX9XrXkX9X|.    8.y.k.k.j.;               ",
"                    [.aXlXkX{.6XkXpXqXI.U.+X! OXkXaXrXjXaXaX6XrXXX[.v.2 6.y.h.0.6 ;                 ",
"                    m.6XkXkX[.>XrXaXP.! W L.^ I.aXkXaXiXaX7X|.[.XXm.2 5.y.h.9.-                     ",
"                      ].rXaX~.{.aXkX1X1X{.tXuX0XjXkXkXaX6X[.^.].aX8Xa.j.4.1 -                       ",
"                        {.9XN.rXlXjXrXiXf.C.8XV.rXjXkXkX6X].{.rXlXsXg.8.=                           ",
"                        v.[.XXjXsX,X-X4Xq w i t 7XrXsXpXrXiXiXkXlXlXx.=                             ",
"                          ~.rXjX{.[...{ X._ ` @.:X7XaXaXpXjXkXlXlXkXZ.                              ",
"                          N.rXaX~.:.{ | | |  . .2.2XjXaXaXkXkXjX9XrX                                ",
"                          7XaX>X X$. .| | | | | { 1.yXaXjXkXjXXX[.[.                                ",
"                          rXaXiX/... . .| | |  . .<.,X9XkXkXXXo.i                                   ",
"                          .X>X,X1.} { .. .| [ { [ <.yX>X9X|.i 3 3.5.                                ",
"                        f.pXaX:.%.S & O.] ' ] $ S $.Q.m.o.w < 4.5.6.                                ",
"                      q.5XzXpX,X{.v.9 z.r y A % r B.8 @ o 3.4.8.e.1                                 ",
"                      w.8XzXlXlX[.N.J *.!.!.Q.q y b.    * 1 r.y.y.t.                                ",
"                      w.Z..XiXlX{.0 8 G ).).).            < j.h.h.3.                                ",
"                    t.6.; ; 7 d.M.# #   >.!.              * 3.5.3.-                                 ",
"                  6.e.e.4.4.3.< O . .                       @ 7 t                                   ",
"                u.y.y.y.e.r.0.5.< O X       G G               A.<X                                  ",
"                  l.l.l.3.t.k.h.p.0.6.1 d.).*.#.              Z.A.                                  ",
"                  9.i.i.3 o 1 r.s.j.r.7.H.;X_.;.              4 4                                   ",
"                    - = o +     ; 1 3.2 n.)._.,.              O O                                   ",
"                                      - 8 9 G H               > > >                                 ",
"                                      9 c.r u 0               > : 5                                 ",
"                                          u                   4 e d.J                               ",
"                                          M.                    +.+.G                               ",
"                                          b.                      8                                 "
};
