/* XPM */
static char *a14845f8d5f54c18c028184ca07f2d9ayZiK78Nptt2H9CvL_6[] = {
/* columns rows colors chars-per-pixel */
"27 48 256 2 ",
"   c None",
".  c #040B18",
"X  c #040506",
"o  c #6D3E25",
"O  c #3B7838",
"+  c #2E6E2F",
"@  c #2F1E53",
"#  c #022448",
"$  c #1B224F",
"%  c #042259",
"&  c #1E2554",
"*  c #142B5A",
"=  c #173657",
"-  c #272757",
";  c #2F2654",
":  c #04286A",
">  c #002B77",
",  c #113977",
"<  c #232A65",
"1  c #39246A",
"2  c #262678",
"3  c #6B1A52",
"4  c #65255F",
"5  c #551F64",
"6  c #4E1F63",
"7  c #4A2066",
"8  c #47216B",
"9  c #5D2668",
"0  c #46326F",
"q  c #164E54",
"w  c #104370",
"e  c #2B416A",
"r  c #524D5C",
"t  c #4B7942",
"y  c #4E4F6D",
"u  c #6D5473",
"i  c #497374",
"p  c #7F7F7B",
"a  c #6F666D",
"s  c #B3061D",
"d  c #B1102E",
"f  c #C4041A",
"g  c #EC021B",
"h  c #EA0019",
"j  c #F4011A",
"k  c #FD001A",
"l  c #FD0015",
"z  c #D90822",
"x  c #D81329",
"c  c #F8152A",
"v  c #F71E32",
"b  c #ED0B23",
"n  c #F52638",
"m  c #E32539",
"M  c #B1651C",
"N  c #86602F",
"B  c #8E375C",
"V  c #F23A4A",
"C  c #A17E57",
"Z  c #87696B",
"A  c #976D66",
"S  c #93746B",
"D  c #9D7772",
"F  c #AF647C",
"G  c #CB4959",
"H  c #E74555",
"J  c #F34D59",
"K  c #F7505D",
"L  c #EF5561",
"P  c #F3626D",
"I  c #F26873",
"U  c #EE6F78",
"Y  c #378834",
"T  c #369534",
"R  c #3BAC38",
"E  c #4B8838",
"W  c #40A339",
"Q  c #4E974D",
"!  c #50A34A",
"~  c #6D8267",
"^  c #6DA36A",
"/  c #AE932B",
"(  c #CCB514",
")  c #C78525",
"_  c #E7B829",
"`  c #EDDB05",
"'  c #F3DE03",
"]  c #E0C20B",
"[  c #FCEA00",
"{  c #F6E302",
"}  c #9C8458",
"|  c #BB8145",
" . c #80846F",
".. c #AE8170",
"X. c #83AD7F",
"o. c #DFAF5B",
"O. c #D99F72",
"+. c #E6A175",
"@. c #82C27E",
"#. c #032C87",
"$. c #093388",
"%. c #11368A",
"&. c #173E84",
"*. c #012E94",
"=. c #002F9B",
"-. c #0B2E92",
";. c #043393",
":. c #02319C",
">. c #0F3792",
",. c #153D97",
"<. c #1B2B8B",
"1. c #0132A6",
"2. c #0133AB",
"3. c #0A37AB",
"4. c #0033B2",
"5. c #0335BB",
"6. c #1A4396",
"7. c #274C98",
"8. c #1440AD",
"9. c #2F55AA",
"0. c #3E60A3",
"q. c #49578F",
"w. c #715881",
"e. c #5E7291",
"r. c #677999",
"t. c #636783",
"y. c #5471AA",
"u. c #5774B1",
"i. c #033ACA",
"p. c #0336C5",
"a. c #0039D3",
"s. c #003CDE",
"d. c #0040CC",
"f. c #8F2FA6",
"g. c #894A81",
"h. c #8A6588",
"j. c #AA7686",
"k. c #D17B8A",
"l. c #EE7A83",
"z. c #E77F86",
"x. c #F37C85",
"c. c #A53AC3",
"v. c #C54DE3",
"b. c #7D8F92",
"n. c #788DB4",
"m. c #878997",
"M. c #8D8D8A",
"N. c #B69585",
"B. c #B4839F",
"V. c #99BD97",
"C. c #8B9BB8",
"Z. c #8C95A5",
"A. c #9AA3AB",
"S. c #AAAFB0",
"D. c #DA888F",
"F. c #ED878E",
"G. c #F3838B",
"H. c #EC8D95",
"J. c #F48C93",
"K. c #F4949A",
"L. c #D5A788",
"P. c #F4B587",
"I. c #E3B390",
"U. c #F99CA2",
"Y. c #C7B1A3",
"T. c #D0B4B4",
"R. c #E9A2AA",
"E. c #F7A8AD",
"W. c #F3B3B7",
"Q. c #F4B2B6",
"!. c #A6C59C",
"~. c #B9C4B9",
"^. c #B6D0B4",
"/. c #ECCCB9",
"(. c #9DABC5",
"). c #97AAD2",
"_. c #A6B4CC",
"`. c #B6BDC7",
"'. c #F8BEC0",
"]. c #B5C1D4",
"[. c #C7C9CB",
"{. c #CAD2DD",
"}. c #D9DAD7",
"|. c #C6D9C4",
" X c #F4CBCD",
".X c #F6C6C8",
"XX c #E8D3C7",
"oX c #F3D2D2",
"OX c #F6DDDD",
"+X c #E7CDCF",
"@X c #D9E6D7",
"#X c #D0E4CE",
"$X c #E1E1DE",
"%X c #E0E9DE",
"&X c #F7E0DF",
"*X c #D3DAE4",
"=X c #DCE2E9",
"-X c #E4E4E2",
";X c #E9E9E6",
":X c #EDEDEA",
">X c #E2EAE4",
",X c #F6E7E5",
"<X c #EEF0EE",
"1X c #F4F2EF",
"2X c #F5F6F3",
"3X c #FAF6F4",
"4X c #F9FAF6",
"5X c #FDFEFB",
"6X c #F7F8F6",
"7X c #EFF1F1",
"8X c black",
"9X c black",
"0X c black",
"qX c black",
"wX c black",
"eX c black",
"rX c black",
"tX c black",
"yX c black",
"uX c black",
"iX c black",
"pX c black",
"aX c black",
"sX c black",
"dX c black",
"fX c black",
"gX c black",
"hX c black",
"jX c black",
"kX c black",
"lX c black",
"zX c black",
"xX c black",
"cX c black",
"vX c black",
"bX c black",
"nX c black",
"mX c black",
"MX c black",
"NX c black",
"BX c black",
"VX c black",
"CX c black",
"ZX c black",
"AX c black",
"SX c black",
"DX c black",
"FX c black",
"GX c black",
"HX c black",
"JX c black",
"KX c black",
"LX c black",
"PX c black",
"IX c black",
"UX c black",
/* pixels */
"                        ` ' ` `                       ",
"                      ' [ [ [ { `                     ",
"                      { [ { ' { `                     ",
"                      ( ] / / / (                     ",
"                      / ( Z S }                       ",
"                  c.4 M _ I.P.o.N                     ",
"                  v.f.o ) P.P.| Z                     ",
"                    v.a E C S  .}.                    ",
"                  Y.R.j.Q q &.S.:X4X                  ",
"                <X/.+.O.r , 7.n.(.n.r.                ",
"              2X5X;XXXN.r e $.:.%.1.i.                ",
"              4X5X2X2X}.e.e * > %.2.d.                ",
"              ).5X2X;X5X}.t ~ A.C.n.                  ",
"            5.8.Z.$X;X5X>XE V.5X5X4X                  ",
"          i.a.4.% A.2X5X@XO ^ 2X5X4X                  ",
"          p.:.: . M.5X5X@XO ! :X6X4X                  ",
"          i., * X ~ 5X5X@XY ! >X<X4X                  ",
"          ,.8.2.. p 5X5X#XW E @X;X2X                  ",
"            a.2.% A.2X5X|.Y Y #X;X-X                  ",
"            a.i.>.7.m./.~.+ Y ^.6X}.;X                ",
"              3.%.>.N.I.!.T Y V.5X-X[.                ",
"                u.q.L.Y.X.R R @.4X2X}.                ",
"                2X{.XXT.r.w q i 7X5X:X}.              ",
"              4X5X5X:X-Xy.*.#.&.*X5X5X;X:X            ",
"              5X5X5X:X:X0.=.1.;._.5X5X2X2X2X          ",
"            2X5X5X5X2X>X7.1.4.: r.4X5X1XOXOX&X        ",
"            5X5X5X4X5X].;.4.#.: 7.=X5X1X.X.X.XK.      ",
"          4X5X5X5X4X5X(.9.9.: > ;._.5X3X X'.E.H.x     ",
"          5X5X5X5X5X4X[.[.A.- : =.y.6X1XoXl.F.D.m h   ",
"        ,X,X4X5X5X5X-Xa y 0 & :.1.,.{.&X Xl.F.H G x h ",
"        Q.oX.X,X5X3X$X`.`.w.2 2.2.*.n.'.F.W.W.n g d s ",
"      G.Q. XU.,X.XoXC.6.6.1 2 2.2.=.q.R.P U.P n V b f ",
"      J.K.E.U. XQ.oXy.*.-.7 1 2.4.:.q.j.H.G.c l H v j ",
"    U P l.x.I z.K.T.7.1.<.5 8 2.5.1.0 h.k.U.K l j k k ",
"    c n L l.J U J B.3.1.2 5 8 3.p.:.@ u F K.V k k k j ",
"  j k n n H.J c c g.> # ; 5 7 -.*.# @ 9 B H c k k j   ",
"g k k c V v k k k 9 2.#.8 5 7 #.2.-.8 5 3 z k k g     ",
"j k k k k k k k g 1 p.p.8 5 8 5.s.i.8 5 5 d k j       ",
"h j j k k k k k z * ;.$.7 5 6 = w 6.        z         ",
"              j z m.b.        A.S.~.                  ",
"                  ;X:X          :X$X                  ",
"                  :X:X          <X$X                  ",
"                  m.Z.          m.t.                  ",
"                  & &           $ $                   ",
"                  & &           & &                   ",
"                & & -           - & &                 ",
"              a r -             < < y D A             ",
"              A ..a                   u               "
};
