/* XPM */
static char *_85c59152a4d4ccce0fc19c7cea1f04a3LQ5iPqnxZn6qCxt_20[] = {
/* columns rows colors chars-per-pixel */
"49 55 256 2 ",
"   c None",
".  c #161418",
"X  c #1D1F32",
"o  c #0A2A39",
"O  c #1E263C",
"+  c #1A3539",
"@  c #313236",
"#  c #675526",
"$  c #0D2E4B",
"%  c #0D3249",
"&  c #153546",
"*  c #143659",
"=  c #142B5A",
"-  c #293053",
";  c #033374",
":  c #07387B",
">  c #0E376B",
",  c #3B3D62",
"<  c #242F6B",
"1  c #284965",
"2  c #554E54",
"3  c #775C59",
"4  c #6A5A5B",
"5  c #736B49",
"6  c #4D556B",
"7  c #645862",
"8  c #4C6271",
"9  c #726669",
"0  c #7B6E74",
"q  c #62686E",
"w  c #D90607",
"e  c #E50304",
"r  c #ED0304",
"t  c #E60908",
"y  c #F20303",
"u  c #FD0D0B",
"i  c #F60A0A",
"p  c #FD110E",
"a  c #E91816",
"s  c #F51512",
"d  c #FB1412",
"f  c #F31915",
"g  c #F81B1A",
"h  c #F8201E",
"j  c #D62827",
"k  c #C63331",
"l  c #D53534",
"z  c #F52D2B",
"x  c #F82B29",
"c  c #EB3331",
"v  c #F53937",
"b  c #ED2928",
"n  c #816D3E",
"m  c #A67D28",
"M  c #EC403E",
"N  c #956B50",
"B  c #BE7C5B",
"V  c #83676D",
"C  c #D4514E",
"Z  c #F44846",
"A  c #F2524F",
"S  c #F25855",
"D  c #EB4845",
"F  c #E5645F",
"G  c #C96C67",
"H  c #D4726D",
"J  c #D97570",
"K  c #C67771",
"L  c #EA6B68",
"P  c #F26764",
"I  c #ED706D",
"U  c #EC7B78",
"Y  c #F37976",
"T  c #A69925",
"R  c #BA9F23",
"E  c #9F9218",
"W  c #F2DB18",
"Q  c #EDD30C",
"!  c #FAE402",
"~  c #FEEB02",
"^  c #F9E508",
"/  c #FDEC11",
"(  c #E6CF30",
")  c #D7C610",
"_  c #92817E",
"`  c #8C896D",
"'  c #B68775",
"]  c #A5A160",
"[  c #C8865F",
"{  c #D4B14A",
"}  c #D39274",
"|  c #ED827D",
" . c #F1837F",
".. c #E49F78",
"X. c #C8A86D",
"o. c #DFA67E",
"O. c #E8A37B",
"+. c #E1C557",
"@. c #DEC768",
"#. c #E9D462",
"$. c #043A87",
"%. c #023D95",
"&. c #013E9B",
"*. c #083E94",
"=. c #143E81",
"-. c #003FA0",
";. c #0A449A",
":. c #13479B",
">. c #1B4483",
",. c #2A569C",
"<. c #0340A4",
"1. c #0142AA",
"2. c #0945A3",
"3. c #0145BA",
"4. c #0D49B4",
"5. c #0252BD",
"6. c #1754B8",
"7. c #134AA0",
"8. c #2756A7",
"9. c #707489",
"0. c #426FBD",
"q. c #014ACB",
"w. c #0349C3",
"e. c #0C55D0",
"r. c #0056E4",
"t. c #847983",
"y. c #758AA8",
"u. c #A78E86",
"i. c #AD978D",
"p. c #BA9B93",
"a. c #B0938C",
"s. c #BDA39D",
"d. c #B6A199",
"f. c #969CA5",
"g. c #9FA3AC",
"h. c #B4ADB1",
"j. c #B7B1AF",
"k. c #DB918C",
"l. c #C39D94",
"z. c #C89C93",
"x. c #DE8682",
"c. c #EB8581",
"v. c #EC8985",
"b. c #EA8E8A",
"n. c #E78782",
"m. c #EB938F",
"M. c #E5908B",
"N. c #F2938E",
"B. c #EB9691",
"V. c #EB9A95",
"C. c #E89D98",
"Z. c #F39E99",
"A. c #F29894",
"S. c #F18883",
"D. c #D9A987",
"F. c #C5A097",
"G. c #C5A39A",
"H. c #CAA49B",
"J. c #C4AA9C",
"K. c #D6AD97",
"L. c #EBB38C",
"P. c #F2B58B",
"I. c #EBA39E",
"U. c #F4A29D",
"Y. c #E9AA83",
"T. c #C6ABA3",
"R. c #CBAEA4",
"E. c #CCB3AA",
"W. c #CCB0A5",
"Q. c #D2B5AB",
"!. c #D3B7AA",
"~. c #C7B9B6",
"^. c #D5BBB3",
"/. c #DABDB4",
"(. c #DDABA4",
"). c #ECA9A4",
"_. c #EAABA5",
"`. c #F2AAA5",
"'. c #ECB2AC",
"]. c #F1B1AC",
"[. c #EDB7B1",
"{. c #ECBBB5",
"}. c #EBBFB9",
"|. c #E6BAB3",
" X c #F1B9B4",
".X c #D4C08D",
"XX c #F4C79A",
"oX c #DAC2B6",
"OX c #DBC4BC",
"+X c #DECBBD",
"@X c #D4C6B5",
"#X c #ECC3BC",
"$X c #E7C4BD",
"%X c #E8C8AF",
"&X c #A9AFC1",
"*X c #DECAC3",
"=X c #DBCAC4",
"-X c #D4CDCF",
";X c #ECC6C0",
":X c #E2CCC5",
">X c #EECBC5",
",X c #E3CFC8",
"<X c #EECFC9",
"1X c #F1CFC9",
"2X c #F1C9C4",
"3X c #E4D3CC",
"4X c #ECD3CC",
"5X c #E5D6C5",
"6X c #F1D2CC",
"7X c #E6D7D0",
"8X c #ECD7D0",
"9X c #E6D8D1",
"0X c #EBDBD4",
"qX c #EDDFD8",
"wX c #F1D7D1",
"eX c #F1DBD5",
"rX c #F1DED8",
"tX c #EFE0DA",
"yX c #F2E4DE",
"uX c #F3E5E0",
"iX c #F6E8E2",
"pX c black",
"aX c black",
"sX c black",
"dX c black",
"fX c black",
"gX c black",
"hX c black",
"jX c black",
"kX c black",
"lX c black",
"zX c black",
"xX c black",
"cX c black",
"vX c black",
"bX c black",
"nX c black",
"mX c black",
"MX c black",
"NX c black",
"BX c black",
"VX c black",
"CX c black",
"ZX c black",
"AX c black",
"SX c black",
"DX c black",
"FX c black",
"GX c black",
"HX c black",
"JX c black",
"KX c black",
"LX c black",
"PX c black",
"IX c black",
"UX c black",
/* pixels */
"  f s s f d                                                                                       ",
"a s d d d d d d                                             s d d d d f                           ",
"  f d d p p p p s                                     s d d d p p p p d s                         ",
"  f d p p u u u p i t t t                         d p p p p p p p p p p p s                       ",
"  s d p p d u d u u y y y r r y r s s s s s s d p p p p u u u u u u u p p p s                     ",
"  f s p v P Z Y v g s r r r e e r p p p p p p p u u u u u u u i u u u u p p p p                   ",
"    Z A Y Z.U `.m.c.P a w e e e e u p u u u u u u u u u u u s h u u u u u u u p p d               ",
"    D c.Z.U.Z. XrX4XB.L C C l w w u g s u u d s u u x A z u P  .v h u p x d u u u p d             ",
"    F  .U.U.U.1XuXyX2X_.x.J H k w g  .P u u v M u A N.U.S.c I V.Z.N.Z v A z z u u u u i           ",
"    C.[.].`.`.1XuXyX>X}.M.J J G j z B.[.A s I S g `.`.v.U.N.N.V.2X2XZ.v.).c.v.z Z P v y r t       ",
"      }.6XwX2X#XyXyX;X$Xk.H H G F m.'.4X4Xb.}.m.S N.).Z.U.`.].|.yX6X].<XwX6X].| N.Y b e r i       ",
"      }.4XyXyXyXyXyXyX3X(.H H G B.].#XwXwX}.{.v.| 1X0X X].>XrX7XtX6X XyXuX<XeX6XI i e w r p d     ",
"      3XyXuXuXuXuXuXyX0X/.K G K ).2XyX4X'.>X).| A.].4X1X1XyXyXtX0X#X1XuXyX0XyX1XI r j j i d d d f ",
"      *XyXuXuXuXuXuXyX0XOXz.a.H.}.yXuXwX'.>Xb.c.#XrXyXrX4XyXuXyX3X<XyXuXyXyX2X`.b.j k M h v s d f ",
"        yXuXuXuXyXuXuXqXOXH.l.^.0XuXuXrX}.}.n.L {.uXyXuXyXyXuXuXyX0XyXuXyX XU.U.k.G } A S | s f   ",
"        0XuXuXuXyXyXyXyX:Xl.l.^.0XuXuX4XV.#Xc.b.;XuXyXuXuXyXyXuXuXyX0XyXyX[.U.I.(.Q._.I I.| a     ",
"        3XuXuXuXyXyXyXyX4Xl.p./.qXuXuX>X#XrX[.[.yXyXyXuXuXyXyXuXuXuXtX3X0XrX'.|.,X/.>X6X| c       ",
"        *XyXuXuXuXyXyXyX0XF.l.oXyXuXuX[.V.6XV.I.rXyXyXuXuXyXtXuXuXuXtX0X3X8X#X,X3X4XuXwXL         ",
"          yXuXuXuXyXyXyX0XH.H.OXyXuXuX6X).b.n.6XyXyXyXuXuXuXyXyXuXyX0XtX0X0X0X0X0XyXuX4X          ",
"          0XuXuXuXuXyXyX0XR.F.*XyXuXyX0X#XB.m.#XyXyXyXuXuXuXyXtXyXqX0XyX0XtX0X0XyXuX0X            ",
"          ,XuXuXuXuXyXyXqXQ.l.:XuXuXuX'._.C.I.[.uX0X3XyXyXuXuXyX0X0XyXyXtX0X0XyXuXqX              ",
"          /.yXuXyXqXuXuXyXW.F.:XuXuXuX>X6X;X4XrXyXyXOXOXyXuXuXyX*X9XyXyXyX0XqXuXyX:X              ",
"            0XuXqX7XuXuXyXW.H.:XuXuXuXwXC.m.V.rXyXyX0X^.0XuXuXyX/.3XyXyXyX0XyXuX0X                ",
"            :XuXqX:XuXuXyX^.F.3XuXuXuX).U V.m.rXyXyXyX:X*XuXyX0X^.0XqXyXuXqXyX0X                  ",
"              yXqXoXtXuXuX/.l.3XuXuXyXB.U m.b.wXyX0XyX0XoXyXyX0XoXyXyXtXyXyX0XoX            }     ",
"              0XqX^.0XuXuX*Xl.3XyXyXyXv.U b.C.wXyX0X0XyXOXqXyX3X+XyXyXyXtX4X^.            Y...    ",
"                tX^.3XuXuX3XF.:XqXyX8Xb.).[._.yXyXyX0X0X,X0XtX:X3XuXuXyX:XQ.        2.8.K.XXO.    ",
"                7X/.*XuXuX0XF.^.qXyX4XV.B.#XV.0XyXyXyX0X0X0X0XOX0XuXyX3XQ.        :.6.e.s.P.      ",
"                  /.oXuXuXqXH.T.yXyXyX}.M.#X|.tXyXyXyX0X0X0X3XOXyXyX,X^.    ;.:.3.q.6.:.'         ",
"                  W.^.yXuXyXR.Q.uXyXqX4X#X#X#X0X0X0X0XyX0X0X*X3XqX:XQ.    2.3.e.e.w.*             ",
"                    R.0XuXyXQ.*XyX9X;Xn.B._.L I.yX0X3XtX0X0X=X3XoXW.a.: *.3.q.:.> *               ",
"                    s.=XyXyXR.OX3X0Xb.I L v.U n.0XyX0X9X0X*XQ.W.^.d.=.&.3.q.;.&                   ",
"                      T.3X0XF.W.0XyX#X#XE.4X6X<XtXyXyX0X*XT.F.T.0X-X7.w.%.; &                     ",
"                        E.:Xs.3XyXtX7X9X9.g.-Xf.3XtXyXyX=XT.E.3XuXqX0.-.%                         ",
"                        u.W.^.yXqX+X.X%X5 6 q 8 =X3XqX9X3X7X7XyXuXuXy.%                           ",
"                          G.3XtXE.T.( W ) E T ] XX=X0XqX9XtXyXuXuXyXj.                            ",
"                          s.3X0XJ.X.W ~ ! ! ^ ^ #.+XtX0X0XyXyXtX:X3X                              ",
"                          *X0XOX!.{ ! ~ ~ ~ ~ ~ W @.5X9XyXyXyX^.R.R.                              ",
"                          3X0X7XK.( ^ / ^ ~ ~ ^ ^ ( %X,XyXyX/._ q                                 ",
"                          ~.OX+X@.Q W ( ^ ! Q W W +.4XoX:XQ.q > $.&.                              ",
"                        9.9X0XX.{ m # ` T R E # m { D.p._ 6 ; $.&.*.                              ",
"                      >.&XiX0XoXE.u.3 t.7 9 n # 7 d.2 @ o $.%.-.1.:                               ",
"                      ,.-XiXuXuXR.s.V } D.D.D.5 9 i.    $ : 1.3.3.2.                              ",
"                      ,.h.~.7XuXE.4 2 N L.L.L.            ; w.q.q.$.                              ",
"                    2.*.* * 1 9.i.@ @   o.D.              $ $.&.: &                               ",
"                  *.<.1.%.%.$.; O . .                       + 1 8                                 ",
"                4.3.3.3.1.1.:.&.; O X       N N               ~.@X                                ",
"                  r.r.r.$.:.e.q.6.:.*.: 9.L...[               h.j.                                ",
"                  ;.5.5.* o : 1.8.w.1.=.l.XXP...              , ,                                 ",
"                    & % o +     * : $.> a.L.P.O.              O O                                 ",
"                                      & 2 3 N B               - = -                               ",
"                                      3 _ 7 0 4               - = <                               ",
"                                          0                   , 6 9.V                             ",
"                                          i.                    ' ' N                             ",
"                                          i.                      2                               "
};
