/* XPM */
static char *a14845f8d5f54c18c028184ca07f2d9ayZiK78Nptt2H9CvL_63[] = {
/* columns rows colors chars-per-pixel */
"27 48 256 2 ",
"   c None",
".  c #040B17",
"X  c #040506",
"o  c #6D3F25",
"O  c #3B7838",
"+  c #2E6E2F",
"@  c #301F53",
"#  c #012448",
"$  c #1C224F",
"%  c #042258",
"&  c #1E2453",
"*  c #112C5A",
"=  c #173557",
"-  c #252757",
";  c #312755",
":  c #042869",
">  c #002B77",
",  c #113977",
"<  c #262966",
"1  c #3C256D",
"2  c #262678",
"3  c #3D3777",
"4  c #651A53",
"5  c #66255F",
"6  c #551F63",
"7  c #4E1F63",
"8  c #4A2066",
"9  c #46216A",
"0  c #592266",
"q  c #46316E",
"w  c #653266",
"e  c #164E54",
"r  c #114370",
"t  c #2B426A",
"y  c #524D5C",
"u  c #4C7941",
"i  c #4E4F6D",
"p  c #735C65",
"a  c #6C4B72",
"s  c #466F72",
"d  c #7F7F7B",
"f  c #686A72",
"g  c #B5051C",
"h  c #A71139",
"j  c #C8061C",
"k  c #E10219",
"l  c #EB021B",
"z  c #FC0015",
"x  c #F5011A",
"c  c #FD001A",
"v  c #C90A22",
"b  c #D90923",
"n  c #EC152A",
"m  c #F7192C",
"M  c #F90F25",
"N  c #F62437",
"B  c #B2651B",
"V  c #87602F",
"C  c #CB2F40",
"Z  c #F33848",
"A  c #E43647",
"S  c #A17E57",
"D  c #894268",
"F  c #88696B",
"G  c #96736A",
"H  c #9B736B",
"J  c #ED4D5A",
"K  c #F34854",
"L  c #F25761",
"P  c #EC6A74",
"I  c #EE6871",
"U  c #368734",
"Y  c #369534",
"T  c #3BAC37",
"R  c #4B8838",
"E  c #40A339",
"W  c #3F8F41",
"Q  c #5D9E59",
"!  c #50A34B",
"~  c #6D8267",
"^  c #6DA36A",
"/  c #7EC07A",
"(  c #B69E2C",
")  c #A7882A",
"_  c #CDB514",
"`  c #C78524",
"'  c #E8B829",
"]  c #EBD906",
"[  c #F2DF03",
"{  c #E1C20B",
"}  c #F9E501",
"|  c #FCEA00",
" . c #F7E502",
".. c #9C8458",
"X. c #BC8144",
"o. c #80846F",
"O. c #AF8271",
"+. c #82AA7F",
"@. c #DFAF5B",
"#. c #D89F72",
"$. c #E5A075",
"%. c #032C87",
"&. c #093388",
"*. c #12368A",
"=. c #173D84",
"-. c #012E94",
";. c #012F9B",
":. c #0B2E92",
">. c #033393",
",. c #00319B",
"<. c #0F3692",
"1. c #163E97",
"2. c #1B2B8A",
"3. c #0133A5",
"4. c #0133AB",
"5. c #0B37A9",
"6. c #0033B3",
"7. c #0335BB",
"8. c #1B4396",
"9. c #284D99",
"0. c #1440AD",
"q. c #3056AA",
"w. c #3F61A3",
"e. c #48518A",
"r. c #715881",
"t. c #586D93",
"y. c #677999",
"u. c #636783",
"i. c #526EA8",
"p. c #617FBD",
"a. c #0338C7",
"s. c #0038D2",
"d. c #003CDE",
"f. c #0040CC",
"g. c #8F2FA7",
"h. c #864B82",
"j. c #A67B8C",
"k. c #F07A83",
"l. c #A536C3",
"z. c #C43EE6",
"x. c #C65AE1",
"c. c #7C8E90",
"v. c #768BB6",
"b. c #798DB1",
"n. c #878697",
"m. c #898E8E",
"M. c #B69585",
"N. c #B8859C",
"B. c #8CB589",
"V. c #8A8DA1",
"C. c #8C9CB9",
"Z. c #8C98A7",
"A. c #9AA3AC",
"S. c #AAAFB0",
"D. c #DE9298",
"F. c #ED868D",
"G. c #EB969C",
"H. c #EF8D94",
"J. c #D6A889",
"K. c #F4B587",
"L. c #E3B391",
"P. c #ED9EA2",
"I. c #C7B1A3",
"U. c #D0B7B6",
"Y. c #EAA4A9",
"T. c #EBBABE",
"R. c #F7B3B7",
"E. c #F4ACB0",
"W. c #A6C59C",
"Q. c #B8C7B7",
"!. c #ECCCBA",
"~. c #9BAACC",
"^. c #A3B1CA",
"/. c #B7BDC7",
"(. c #E4B9C0",
"). c #B7C2D5",
"_. c #C4C6C8",
"`. c #C9CFD8",
"'. c #D5D6D4",
"]. c #DDDCD9",
"[. c #C7D9C5",
"{. c #F6C4C6",
"}. c #F3C9CB",
"|. c #E8D3C7",
" X c #F3D3D3",
".X c #FAD8D8",
"XX c #ECC1C3",
"oX c #D1E4CE",
"OX c #DAE6D8",
"+X c #E0E3DE",
"@X c #D2D8E3",
"#X c #E3E4E3",
"$X c #ECEDEA",
"%X c #E5E9E6",
"&X c #FBE3E3",
"*X c #FAECEB",
"=X c #F5E6E4",
"-X c #F1F1EF",
";X c #F5F5F4",
":X c #FBF4F3",
">X c #F9F9F7",
",X c #FEFEFC",
"<X c #F7F8F6",
"1X c #EEF0EF",
"2X c black",
"3X c black",
"4X c black",
"5X c black",
"6X c black",
"7X c black",
"8X c black",
"9X c black",
"0X c black",
"qX c black",
"wX c black",
"eX c black",
"rX c black",
"tX c black",
"yX c black",
"uX c black",
"iX c black",
"pX c black",
"aX c black",
"sX c black",
"dX c black",
"fX c black",
"gX c black",
"hX c black",
"jX c black",
"kX c black",
"lX c black",
"zX c black",
"xX c black",
"cX c black",
"vX c black",
"bX c black",
"nX c black",
"mX c black",
"MX c black",
"NX c black",
"BX c black",
"VX c black",
"CX c black",
"ZX c black",
"AX c black",
"SX c black",
"DX c black",
"FX c black",
"GX c black",
"HX c black",
"JX c black",
"KX c black",
"LX c black",
"PX c black",
"IX c black",
"UX c black",
/* pixels */
"                        ] [ ] ]                       ",
"                      [ | | |  .]                     ",
"                      } | } [ } ]                     ",
"                      _ { ( ) ( _                     ",
"                      ) _ F G ..                      ",
"                  l.5 B ' L.K.@.V                     ",
"                  z.g.o ` K.K.X.F                     ",
"                    x.f R S G o.].                    ",
"                  I.Y.j.W e =.S.$X>X                  ",
"                1X!.$.#.y , 9.b.~.b.y.                ",
"              ;X,X=X|.M.y t &.,.*.3.a.                ",
"              >X,X<X<X'.t.t * > *.4.f.                ",
"              ~.,X<X%X,X].u ~ A.C.v.                  ",
"            7.0.Z.#X%X,X%XR B.,X,X>X                  ",
"          a.s.6.% A.;X,X+XO ^ ;X,X>X                  ",
"          a.,.: . m.,X,XOXO Q $X>X>X                  ",
"          a., * X ~ ,X,XOXU ! %X-X>X                  ",
"          1.0.4.. d ,X,XoXE R OX%X>X                  ",
"            s.4.% A.;X,X[.U U oX$X%X                  ",
"            s.s.<.9.n.!.Q.+ U Q.>X'.].                ",
"              5.*.1.M.L.W.Y U B.,X+X_.                ",
"                p.t.J.I.+.T T / >X<X'.                ",
"                ;X`.|.U.y.r e s 1X,X$X'.              ",
"              >X,X,X$X#Xi.-.%.=.@X,X,X$X;X            ",
"              ,X,X,X$X$Xw.,.3.>.^.,X,X:X:X:X          ",
"            <X,X,X>X-X%X9.3.6.: y.,X,X:X*X&X=X        ",
"            ,X,X,X>X,X).>.6.%.: 9.%X,X:X*X&X&XG.      ",
"          <X,X,X,X,X,X^.q.q.: > >.^.,X>X}.E.XXH.l     ",
"          :X,X,X,X,X>X`._.A.- > ;.i.<X:XE.k.P D.A l   ",
"         X*X*X*X,X,X$Xf i q & ,.3.1.`.*XT.P.k.n C v   ",
"         X*X.X.X*X&X%X/./.r.2 4.4.-.b.{.G. XH.m n g g ",
"      }. X&X.X&X XY.C.8.8.9 2 4.4.,.e.T.P K N P I l j ",
"      E.F.{.}.}. X.Xi.-.:.8 1 4.6.3.3 j.{.K z Z Z c k ",
"    n Z J F.P P Y.U.9.3.2.6 9 4.7.3.q a (.R.m z c c   ",
"  k z N Z I L J I N.5.3.2 6 9 5.a.;.1 w N.R.m c c c   ",
"  x c M J F.K m m h.> # ; 6 8 :.-.# @ 0 D J c c c l   ",
"l c c c Z N c c c 0 4.%.9 6 8 %.4.-.9 6 4 b c c x     ",
"x c c c c c c c l < a.a.9 6 9 7.d.a.9 6 6 h c c k     ",
"x c c c c c c c v * >.&.8 6 7 = r 8.        l l       ",
"    k x x x x c b m.c.        A.S.Q.                  ",
"                  $X$X          $X#X                  ",
"                  $X$X          -X+X                  ",
"                  V.V.          n.u.                  ",
"                  & &           $ $                   ",
"                $ & &           & &                   ",
"                & & -           - & &                 ",
"              p y ;             < < i H H             ",
"              G O.p                   a               "
};
