/* XPM */
static char *a14845f8d5f54c18c028184ca07f2d9ayZiK78Nptt2H9CvL_66[] = {
/* columns rows colors chars-per-pixel */
"27 48 256 2 ",
"   c None",
".  c #040B18",
"X  c #040506",
"o  c #6D3E25",
"O  c #3B7838",
"+  c #2E6E2E",
"@  c #2F1E53",
"#  c #022448",
"$  c #1B224F",
"%  c #082458",
"&  c #1E2554",
"*  c #162C5C",
"=  c #173658",
"-  c #272757",
";  c #2F2654",
":  c #04286A",
">  c #002B77",
",  c #113977",
"<  c #232A65",
"1  c #3A246A",
"2  c #262678",
"3  c #6A1A52",
"4  c #65255F",
"5  c #551F64",
"6  c #4E1F63",
"7  c #4A2066",
"8  c #4A216E",
"9  c #432168",
"0  c #5D2669",
"q  c #46336F",
"w  c #164E54",
"e  c #114370",
"r  c #2B426A",
"t  c #524D5D",
"y  c #4B7942",
"u  c #4E4F6D",
"i  c #6D5372",
"p  c #497374",
"a  c #726C70",
"s  c #B6041E",
"d  c #B20E2E",
"f  c #CE051D",
"g  c #EC021B",
"h  c #E90019",
"j  c #F4011A",
"k  c #FD001A",
"l  c #FC0116",
"z  c #DB0823",
"x  c #D0152B",
"c  c #E60A22",
"v  c #FB0B23",
"b  c #F8172B",
"n  c #EB172B",
"m  c #F62436",
"M  c #EC2C3E",
"N  c #B1651C",
"B  c #86602F",
"V  c #8C355C",
"C  c #F7394A",
"Z  c #A17E57",
"A  c #87696B",
"S  c #96736B",
"D  c #9A726B",
"F  c #B0637D",
"G  c #CC4956",
"H  c #E74655",
"J  c #F44A57",
"K  c #F1525D",
"L  c #F55966",
"P  c #F16873",
"I  c #ED757E",
"U  c #EE6D76",
"Y  c #378834",
"T  c #369534",
"R  c #3BAC37",
"E  c #4B8838",
"W  c #40A33A",
"Q  c #4E964D",
"!  c #51A24B",
"~  c #768172",
"^  c #6EA36A",
"/  c #B59E2C",
"(  c #A7882B",
")  c #CCB514",
"_  c #C78525",
"`  c #E7B829",
"'  c #EDDB05",
"]  c #F2DE03",
"[  c #E0C30B",
"{  c #FCEB00",
"}  c #F6E302",
"|  c #9D8458",
" . c #BB8145",
".. c #80846F",
"X. c #AE8170",
"o. c #83AD7F",
"O. c #DFAF5B",
"+. c #D89F72",
"@. c #E5A075",
"#. c #83C47E",
"$. c #032C87",
"%. c #083388",
"&. c #11368A",
"*. c #183E84",
"=. c #012E94",
"-. c #002F9B",
";. c #0B2D92",
":. c #033393",
">. c #02319C",
",. c #0F3792",
"<. c #153C97",
"1. c #1B2B8B",
"2. c #0132A6",
"3. c #0133AC",
"4. c #0A37AB",
"5. c #0033B3",
"6. c #0335BB",
"7. c #1A4396",
"8. c #274C9A",
"9. c #1440AD",
"0. c #3359AF",
"q. c #3E60A3",
"w. c #49568E",
"e. c #715882",
"r. c #5D7291",
"t. c #677898",
"y. c #626783",
"u. c #5572AB",
"i. c #5774B1",
"p. c #033ACA",
"a. c #0336C5",
"s. c #0039D2",
"d. c #003CDE",
"f. c #0040CC",
"g. c #8F2FA7",
"h. c #875583",
"j. c #A97485",
"k. c #D37E8D",
"l. c #ED7D85",
"z. c #A53AC3",
"x. c #C54DE3",
"c. c #7D8F93",
"v. c #778CB7",
"b. c #798DB1",
"n. c #878998",
"m. c #8E8D8A",
"M. c #B69585",
"N. c #B4849F",
"B. c #9BBE98",
"V. c #8C9BB9",
"C. c #8C94A5",
"Z. c #9BA3AC",
"A. c #AAAFB0",
"S. c #DA8E94",
"D. c #ED848B",
"F. c #EA898F",
"G. c #F18B92",
"H. c #F5969C",
"J. c #EE888F",
"K. c #D5A788",
"L. c #F4B587",
"P. c #E3B391",
"I. c #F69AA1",
"U. c #EF9EA3",
"Y. c #C7B1A3",
"T. c #CFB4B3",
"R. c #E9A2AA",
"E. c #FBA3A8",
"W. c #F8AEB2",
"Q. c #F4B4B7",
"!. c #EEBCBE",
"~. c #A6C59C",
"^. c #BAC4B9",
"/. c #B8D0B5",
"(. c #ECCCBA",
"). c #9DABC5",
"_. c #97AAD3",
"`. c #B7BDC7",
"'. c #A6B4CC",
"]. c #F8BDC0",
"[. c #EEBFC1",
"{. c #B6C1D5",
"}. c #C7C9CB",
"|. c #DADAD6",
" X c #D8D8D7",
".X c #CAD6D0",
"XX c #F4C8CA",
"oX c #F4D2D3",
"OX c #F6DDDD",
"+X c #E6D6CF",
"@X c #D1E4CE",
"#X c #DAE5D8",
"$X c #E1E4DE",
"%X c #D1D8E3",
"&X c #DDE2EA",
"*X c #E3E3E1",
"=X c #E8E8E6",
"-X c #EDEDEB",
";X c #E4E9E4",
":X c #FAE1E1",
">X c #F6E9E7",
",X c #F0F0EE",
"<X c #F5F5F3",
"1X c #FBF5F3",
"2X c #F9F9F7",
"3X c #FEFDFC",
"4X c #EFF1F0",
"5X c black",
"6X c black",
"7X c black",
"8X c black",
"9X c black",
"0X c black",
"qX c black",
"wX c black",
"eX c black",
"rX c black",
"tX c black",
"yX c black",
"uX c black",
"iX c black",
"pX c black",
"aX c black",
"sX c black",
"dX c black",
"fX c black",
"gX c black",
"hX c black",
"jX c black",
"kX c black",
"lX c black",
"zX c black",
"xX c black",
"cX c black",
"vX c black",
"bX c black",
"nX c black",
"mX c black",
"MX c black",
"NX c black",
"BX c black",
"VX c black",
"CX c black",
"ZX c black",
"AX c black",
"SX c black",
"DX c black",
"FX c black",
"GX c black",
"HX c black",
"JX c black",
"KX c black",
"LX c black",
"PX c black",
"IX c black",
"UX c black",
/* pixels */
"                        ' ] ] '                       ",
"                      ] { { { } '                     ",
"                      } { } ] } '                     ",
"                      ) [ / ( / )                     ",
"                      ( ) A S |                       ",
"                  z.4 N ` P.L.O.B                     ",
"                  x.g.o _ L.L. .A                     ",
"                    x.a E Z S ..|.                    ",
"                  Y.R.j.E w *.A.-X2X                  ",
"                4X(.@.+.t , 8.v.).b.t.                ",
"              <X3X=XXXM.t r %.>.&.2.p.                ",
"              2X3X<X<X Xr.r * > &.3.f.                ",
"              _.3X<X=X3X|.y ~ Z.V.v.                  ",
"            6.9.b.$X=X3X;XE B.3X3X2X                  ",
"          p.s.5.% Z.<X3X#XO ^ <X3X2X                  ",
"          a.>.: . m.3X3X#XO ! -X2X2X                  ",
"          p., % X ..3X3X#XY ! ;X,X2X                  ",
"          <.9.3.. a 3X3X@XW E #X=X2X                  ",
"            s.3.% Z.<X3X.XY Y @X=X;X                  ",
"            s.p.,.8.n.(.^.+ Y /.2X X=X                ",
"              4.&.<.M.P.~.T Y B.3X*X}.                ",
"                i.w.K.Y.o.R R #.3X<X X                ",
"                <X%X+XT.t.e w p 4X3X-X X              ",
"              2X3X3X-X*Xu.=.$.*.%X3X3X=X-X            ",
"              3X3X3X-X-Xq.-.2.:.'.3X3X<X<X<X          ",
"            <X3X3X3X<X;X8.2.5.: t.2X3X>XOXOX:X        ",
"            3X3X3X2X3X{.:.5.$.: 8.&X3X1XXXXXXXU.      ",
"          2X3X3X3X3X3X).0.0.: > :.'.3X1XoX!.W.F.c     ",
"          3X3X3X3X3X2X}.}.Z.& : -.i.2X>XoXI F.S.M g   ",
"        OX:X2X3X3X3X=Xa u q & >.2.7.%X:XXXI D.H G x h ",
"        Q.oXXXOX3X1X*X`.`.e.2 3.3.=.v.].F.!.Q.m g s s ",
"      G.W.oXE.:X[.XXV.7.7.1 2 3.3.-.w.R.P H.L m H c f ",
"      H.I.W.E.XXQ.oXu.=.;.7 1 3.5.>.w.j.U.l.b l H b j ",
"    P L I D.P l.H.T.8.2.1.5 9 3.6.2.q h.k.E.J l j k j ",
"    v m J D.J U K N.4.2.2 5 8 4.a.>.; i F I.C k k k j ",
"  j k m M G.J b b h.> # ; 5 7 ;.=.# @ 0 V H v k k g   ",
"g k k v C m k k k 0 3.$.9 5 7 $.3.=.9 5 3 z k k g     ",
"j k k k k k k k g 1 a.a.8 5 8 6.d.p.8 5 5 d k j       ",
"g j j k k k k k z * :.%.7 5 6 = e 7.        c         ",
"              j z n.c.        Z.A.^.                  ",
"                  =X-X          -X$X                  ",
"                  -X-X          ,X$X                  ",
"                  n.C.          n.y.                  ",
"                  & &           $ $                   ",
"                  & &           & &                   ",
"                & & -           - & &                 ",
"              a t -             < < u D D             ",
"              S X.i                   i               "
};
