/* XPM */
static char *a14845f8d5f54c18c028184ca07f2d9ayZiK78Nptt2H9CvL_78[] = {
/* columns rows colors chars-per-pixel */
"27 48 256 2 ",
"   c None",
".  c #040B17",
"X  c #040506",
"o  c #6D3F25",
"O  c #3B7838",
"+  c #2E6E2F",
"@  c #301F53",
"#  c #012448",
"$  c #1C224F",
"%  c #042258",
"&  c #1E2453",
"*  c #112C5A",
"=  c #173557",
"-  c #252757",
";  c #312755",
":  c #042869",
">  c #002B77",
",  c #113977",
"<  c #262966",
"1  c #3C256D",
"2  c #262678",
"3  c #3D3777",
"4  c #651A53",
"5  c #66255F",
"6  c #551F63",
"7  c #4E1F63",
"8  c #4A2066",
"9  c #46216A",
"0  c #592266",
"q  c #46316E",
"w  c #653266",
"e  c #164E54",
"r  c #114370",
"t  c #2B426A",
"y  c #524D5C",
"u  c #4C7941",
"i  c #4E4F6D",
"p  c #735C65",
"a  c #6D4B72",
"s  c #466F72",
"d  c #7F7F7B",
"f  c #686A72",
"g  c #B5051C",
"h  c #A71139",
"j  c #C8061C",
"k  c #E10219",
"l  c #EB021B",
"z  c #FC0015",
"x  c #F5011A",
"c  c #FD001A",
"v  c #C90A22",
"b  c #D90923",
"n  c #EC152A",
"m  c #F7192C",
"M  c #F90F25",
"N  c #F62437",
"B  c #B2651B",
"V  c #87602F",
"C  c #CB2F40",
"Z  c #F33848",
"A  c #E43647",
"S  c #A17E57",
"D  c #894268",
"F  c #88696B",
"G  c #96736B",
"H  c #9B736B",
"J  c #ED4D5A",
"K  c #F34854",
"L  c #F25761",
"P  c #EC6A74",
"I  c #EE6871",
"U  c #368734",
"Y  c #369534",
"T  c #3BAC37",
"R  c #4B8838",
"E  c #40A339",
"W  c #3F8F41",
"Q  c #5D9E59",
"!  c #50A34B",
"~  c #6D8267",
"^  c #6DA36A",
"/  c #7EC07A",
"(  c #B69E2C",
")  c #A7882A",
"_  c #CDB514",
"`  c #C78524",
"'  c #E8B829",
"]  c #EBD906",
"[  c #F2DE03",
"{  c #E1C20B",
"}  c #F9E501",
"|  c #FCEB00",
" . c #F7E502",
".. c #9D8458",
"X. c #BC8144",
"o. c #80846F",
"O. c #AF8271",
"+. c #82AA7E",
"@. c #DFAF5B",
"#. c #D89F72",
"$. c #E5A075",
"%. c #032C87",
"&. c #093388",
"*. c #143988",
"=. c #012E94",
"-. c #012F9B",
";. c #0B2E92",
":. c #033393",
">. c #00319B",
",. c #0F3692",
"<. c #153D97",
"1. c #1B2B8A",
"2. c #0133A5",
"3. c #0133AB",
"4. c #0B37A9",
"5. c #0033B3",
"6. c #0335BB",
"7. c #1B4396",
"8. c #284D99",
"9. c #354E8C",
"0. c #1440AD",
"q. c #3056AA",
"w. c #3F61A3",
"e. c #485189",
"r. c #715881",
"t. c #5D7291",
"y. c #677999",
"u. c #636783",
"i. c #536FAC",
"p. c #0338C7",
"a. c #0038D2",
"s. c #003CDE",
"d. c #0040CC",
"f. c #8F2FA7",
"g. c #864B82",
"h. c #A67B8C",
"j. c #F07A83",
"k. c #A536C3",
"l. c #C43EE6",
"z. c #C65AE1",
"x. c #7C8E90",
"c. c #788CB7",
"v. c #768BAA",
"b. c #878697",
"n. c #898E8E",
"m. c #B69585",
"M. c #B8859C",
"N. c #8CB589",
"B. c #8A8DA1",
"V. c #8C9CB9",
"C. c #8C98A7",
"Z. c #9BA3AC",
"A. c #AAAFB0",
"S. c #DE9298",
"D. c #ED868D",
"F. c #EB969C",
"G. c #EF8D94",
"H. c #D5A888",
"J. c #F4B587",
"K. c #E3B391",
"L. c #ED9EA2",
"P. c #C7B1A3",
"I. c #D0B7B5",
"U. c #EAA4A9",
"Y. c #EBBABE",
"T. c #F7B3B7",
"R. c #F4ACB0",
"E. c #A6C59C",
"W. c #B8C8B7",
"Q. c #ECCCBA",
"!. c #9BAACC",
"~. c #A3B1CA",
"^. c #B7BDC7",
"/. c #E4B9C0",
"(. c #BAC4D5",
"). c #C4C6C8",
"_. c #CACFD7",
"`. c #D5D6D4",
"'. c #DDDCD9",
"]. c #C7D9C5",
"[. c #F6C4C6",
"{. c #F3C9CB",
"}. c #E8D3C7",
"|. c #F3D3D3",
" X c #FAD8D8",
".X c #ECC1C3",
"XX c #D1E4CE",
"oX c #DAE6D8",
"OX c #E0E1DE",
"+X c #E1E9DE",
"@X c #D2D8E3",
"#X c #E4E5E3",
"$X c #EDEDEB",
"%X c #E5E9E7",
"&X c #FBE3E3",
"*X c #FAECEB",
"=X c #F5E6E4",
"-X c #F1F1EF",
";X c #F5F5F4",
":X c #FBF4F3",
">X c #F9F9F7",
",X c #FEFEFC",
"<X c #F7F8F6",
"1X c #EEF0EF",
"2X c black",
"3X c black",
"4X c black",
"5X c black",
"6X c black",
"7X c black",
"8X c black",
"9X c black",
"0X c black",
"qX c black",
"wX c black",
"eX c black",
"rX c black",
"tX c black",
"yX c black",
"uX c black",
"iX c black",
"pX c black",
"aX c black",
"sX c black",
"dX c black",
"fX c black",
"gX c black",
"hX c black",
"jX c black",
"kX c black",
"lX c black",
"zX c black",
"xX c black",
"cX c black",
"vX c black",
"bX c black",
"nX c black",
"mX c black",
"MX c black",
"NX c black",
"BX c black",
"VX c black",
"CX c black",
"ZX c black",
"AX c black",
"SX c black",
"DX c black",
"FX c black",
"GX c black",
"HX c black",
"JX c black",
"KX c black",
"LX c black",
"PX c black",
"IX c black",
"UX c black",
/* pixels */
"                        ] [ ] ]                       ",
"                      [ | | |  .]                     ",
"                      } | } [ } ]                     ",
"                      _ { ( ) ( _                     ",
"                      ) _ F G ..                      ",
"                  k.5 B ' K.J.@.V                     ",
"                  l.f.o ` J.J.X.F                     ",
"                    z.f R S G o.'.                    ",
"                  P.U.h.W e *.A.$X>X                  ",
"                1XQ.$.#.y , 8.c.!.v.y.                ",
"              ;X,X=X}.m.y t &.>.*.2.p.                ",
"              >X,X;X;X`.t.t * > *.3.d.                ",
"              !.,X;X%X,X'.u ~ Z.V.c.                  ",
"            6.0.C.#X%X,X%XR N.,X,X>X                  ",
"          p.a.5.% Z.;X,X+XO ^ ;X,X>X                  ",
"          p.>.: . n.,X,XoXO Q $X>X>X                  ",
"          p., * X ~ ,X,XoXU ! %X-X>X                  ",
"          <.0.3.. d ,X,XXXE R oX%X>X                  ",
"            a.3.% Z.;X,X].U U XX%X%X                  ",
"            a.a.,.8.b.Q.W.+ U W.>X`.'.                ",
"              4.*.<.m.K.E.Y U N.,XOX).                ",
"                i.9.H.P.+.T T / ,X;X`.                ",
"                ;X(.}.I.y.r e s 1X,X$X`.              ",
"              >X,X,X$X#Xi.=.%.*.@X,X,X%X;X            ",
"              ,X,X,X%X$Xw.>.2.:.~.,X,X:X:X:X          ",
"            ;X,X,X>X-X%X8.2.5.: y.,X,X:X*X&X=X        ",
"            ,X,X,X:X,X(.:.5.%.: 8.%X,X:X*X&X&XF.      ",
"          <X,X,X,X,X,X~.q.q.: > :.~.,X,X{.R..XG.l     ",
"          :X,X,X,X,X>X_.).Z.- > -.i.;X:XR.j.P S.A l   ",
"        |.*X*X*X,X,X$Xf i q & >.2.<._.*XY.L.j.n C v   ",
"        |.*X X X*X&X%X^.^.r.2 3.3.=.c.[.F.|.G.m n g g ",
"      {.|.&X X&X|.U.V.7.7.9 2 3.3.>.e.Y.P K N P I l j ",
"      R.D.[.{.{.|. Xi.=.;.8 1 3.5.2.3 h.[.K z Z Z c k ",
"    n Z J D.P P U.I.8.2.1.6 9 3.6.2.q a /.T.m z c c   ",
"  k z N Z I L J I M.4.2.2 6 9 4.p.-.1 w M.T.m c c c   ",
"  x c M J D.K m m g.> # ; 6 8 ;.=.# @ 0 D J c c c l   ",
"l c c c Z N c c c 0 3.%.9 6 8 %.3.=.9 6 4 b c c x     ",
"x c c c c c c c l < p.p.9 6 9 6.s.p.9 6 6 h c c k     ",
"x c c c c c c c v * :.&.8 6 7 = r 7.        l l       ",
"    k x x x x c b n.x.        Z.A.W.                  ",
"                  $X$X          $XOX                  ",
"                  $X$X          -XOX                  ",
"                  B.B.          b.u.                  ",
"                  & &           $ $                   ",
"                $ & &           & &                   ",
"                & & -           - & &                 ",
"              p y ;             < < i H H             ",
"              G O.p                   a               "
};
