/* XPM */
static char *a14845f8d5f54c18c028184ca07f2d9ayZiK78Nptt2H9CvL_81[] = {
/* columns rows colors chars-per-pixel */
"27 48 256 2 ",
"   c None",
".  c #040B18",
"X  c #040506",
"o  c #6D3E25",
"O  c #3B7738",
"+  c #2E6E2E",
"@  c #2F1E53",
"#  c #022448",
"$  c #1B224F",
"%  c #082458",
"&  c #1E2554",
"*  c #162C5C",
"=  c #173658",
"-  c #272757",
";  c #2F2654",
":  c #04286A",
">  c #002B77",
",  c #113977",
"<  c #232A65",
"1  c #3A246A",
"2  c #262678",
"3  c #6A1A52",
"4  c #65255F",
"5  c #551F64",
"6  c #4E1F63",
"7  c #4A2066",
"8  c #46216B",
"9  c #5D2669",
"0  c #46336F",
"q  c #164E54",
"w  c #114370",
"e  c #2B416A",
"r  c #524D5D",
"t  c #4B7942",
"y  c #4E4F6D",
"u  c #6D5372",
"i  c #497374",
"p  c #7F7F7C",
"a  c #6E666C",
"s  c #B6041E",
"d  c #B20E2E",
"f  c #CE051D",
"g  c #EC021B",
"h  c #E90019",
"j  c #F4011A",
"k  c #FD001A",
"l  c #FC0116",
"z  c #DB0823",
"x  c #D0152B",
"c  c #E60A22",
"v  c #FB0B23",
"b  c #F8172B",
"n  c #EB172B",
"m  c #F62436",
"M  c #EC2C3E",
"N  c #B1651C",
"B  c #86602F",
"V  c #8C355C",
"C  c #F7394A",
"Z  c #A17E57",
"A  c #87696B",
"S  c #96736B",
"D  c #9A726B",
"F  c #B0637D",
"G  c #CC4956",
"H  c #E74655",
"J  c #F44A57",
"K  c #F1525D",
"L  c #F55966",
"P  c #F16873",
"I  c #ED757E",
"U  c #EE6D76",
"Y  c #378834",
"T  c #369534",
"R  c #3BAC37",
"E  c #4B8838",
"W  c #40A33A",
"Q  c #4E964D",
"!  c #51A24B",
"~  c #6D8267",
"^  c #6EA36A",
"/  c #B59E2C",
"(  c #A7882A",
")  c #CCB514",
"_  c #C78525",
"`  c #E7B829",
"'  c #EDDB05",
"]  c #F2DE03",
"[  c #E0C30B",
"{  c #FCEB00",
"}  c #F6E302",
"|  c #9D8458",
" . c #BB8145",
".. c #80846F",
"X. c #AE8170",
"o. c #83AD7F",
"O. c #DFAF5B",
"+. c #D89F72",
"@. c #E5A075",
"#. c #83C47E",
"$. c #032C87",
"%. c #093388",
"&. c #11368A",
"*. c #183E84",
"=. c #012E94",
"-. c #002F9B",
";. c #0B2D92",
":. c #033393",
">. c #02319C",
",. c #0F3792",
"<. c #153C97",
"1. c #1B2B8B",
"2. c #0132A6",
"3. c #0133AC",
"4. c #0A37AB",
"5. c #0033B3",
"6. c #0335BB",
"7. c #1A4396",
"8. c #274C9A",
"9. c #354E8C",
"0. c #1440AD",
"q. c #3359AF",
"w. c #3E60A3",
"e. c #4C548C",
"r. c #715882",
"t. c #5D7291",
"y. c #667898",
"u. c #626783",
"i. c #5672AB",
"p. c #5270AE",
"a. c #033ACA",
"s. c #0336C5",
"d. c #0039D2",
"f. c #003CDE",
"g. c #0040CC",
"h. c #8F2FA7",
"j. c #875583",
"k. c #A97485",
"l. c #D37E8D",
"z. c #ED7D85",
"x. c #A53AC3",
"c. c #C54DE3",
"v. c #7D8F93",
"b. c #778CB7",
"n. c #798DB1",
"m. c #878998",
"M. c #8E8D8B",
"N. c #B69585",
"B. c #B4839F",
"V. c #9ABE98",
"C. c #8C9BB9",
"Z. c #8C94A5",
"A. c #9BA4AC",
"S. c #AAAFB0",
"D. c #DA8E94",
"F. c #ED848B",
"G. c #EA898F",
"H. c #F18B92",
"J. c #F5969C",
"K. c #EE888F",
"L. c #D5A788",
"P. c #F4B587",
"I. c #E3B391",
"U. c #F69AA1",
"Y. c #EF9EA3",
"T. c #C7B1A3",
"R. c #CFB4B3",
"E. c #E9A2AA",
"W. c #FBA3A8",
"Q. c #F8AEB2",
"!. c #F4B4B7",
"~. c #EEBCBE",
"^. c #A6C59C",
"/. c #BAC4B9",
"(. c #B8D1B5",
"). c #ECCCBA",
"_. c #9DABC5",
"`. c #97AAD3",
"'. c #B7BDC7",
"]. c #A6B4CC",
"[. c #F8BDC0",
"{. c #EEBFC1",
"}. c #BAC4D4",
"|. c #C7C9CB",
" X c #DADAD6",
".X c #D8D8D6",
"XX c #C7D9C5",
"oX c #F4C8CA",
"OX c #F4D2D3",
"+X c #F6DDDD",
"@X c #E6D6CF",
"#X c #D1E4CE",
"$X c #DAE5D8",
"%X c #E1E4DE",
"&X c #D1D8E3",
"*X c #DDE2EA",
"=X c #E3E3E1",
"-X c #E8E8E6",
";X c #EDEDEB",
":X c #E4E9E4",
">X c #F7E6E4",
",X c #F0F0EE",
"<X c #F5F5F3",
"1X c #FBF5F3",
"2X c #F9F9F7",
"3X c #FEFDFC",
"4X c #EFF1F0",
"5X c black",
"6X c black",
"7X c black",
"8X c black",
"9X c black",
"0X c black",
"qX c black",
"wX c black",
"eX c black",
"rX c black",
"tX c black",
"yX c black",
"uX c black",
"iX c black",
"pX c black",
"aX c black",
"sX c black",
"dX c black",
"fX c black",
"gX c black",
"hX c black",
"jX c black",
"kX c black",
"lX c black",
"zX c black",
"xX c black",
"cX c black",
"vX c black",
"bX c black",
"nX c black",
"mX c black",
"MX c black",
"NX c black",
"BX c black",
"VX c black",
"CX c black",
"ZX c black",
"AX c black",
"SX c black",
"DX c black",
"FX c black",
"GX c black",
"HX c black",
"JX c black",
"KX c black",
"LX c black",
"PX c black",
"IX c black",
"UX c black",
/* pixels */
"                        ' ] ] '                       ",
"                      ] { { { } '                     ",
"                      } { } ] } '                     ",
"                      ) [ / ( / )                     ",
"                      ( ) A S |                       ",
"                  x.4 N ` I.P.O.B                     ",
"                  c.h.o _ P.P. .A                     ",
"                    c.a E Z S .. X                    ",
"                  T.E.k.E q *.S.;X2X                  ",
"                4X).@.+.r , 8.b._.n.y.                ",
"              <X3X-XoXN.r e %.>.&.2.a.                ",
"              2X3X<X<X.Xt.e * > &.3.g.                ",
"              `.3X<X-X3X Xt ~ A.C.b.                  ",
"            6.0.Z.=X-X3X:XE V.3X3X2X                  ",
"          a.d.5.% A.<X3X$XO ^ <X3X2X                  ",
"          s.>.: . M.3X3X$XO ! ;X2X2X                  ",
"          a., % X ..3X3X$XY ! :X,X2X                  ",
"          <.0.3.. p 3X3X#XW E $X-X2X                  ",
"            d.3.% A.<X3XXXY Y #X-X:X                  ",
"            d.a.,.9.m.)./.+ Y (.2X.X-X                ",
"              4.&.<.N.I.^.T Y V.3X=X|.                ",
"                p.9.L.T.o.R R #.3X<X.X                ",
"                <X}.@XR.y.w q i 4X3X;X.X              ",
"              2X3X3X;X=Xi.=.$.*.&X3X3X-X;X            ",
"              3X3X3X;X;Xw.-.2.:.].3X3X<X<X<X          ",
"            <X3X3X3X<X:X8.2.5.: y.2X3X,X+X+X>X        ",
"            3X3X3X2X3X}.:.5.$.: 8.*X3X1XoXoXoXY.      ",
"          2X3X3X3X3X3X_.q.q.: > :.].3X1XOX~.Q.G.c     ",
"          3X3X3X3X3X2X|.|.A.& : -.i.2X>XOXI G.D.M g   ",
"        +X>X2X3X3X3X-Xa y 0 & >.2.7.&X>XoXI F.H G x h ",
"        !.OXoX+X3X1X%X'.'.r.2 3.3.=.b.[.G.~.!.m g s s ",
"      H.Q.OXW.>X{.oXC.7.7.1 2 3.3.-.e.E.P J.L m H c f ",
"      J.U.Q.W.oX!.OXi.=.;.7 1 3.5.>.e.k.Y.z.b l H b j ",
"    P L I F.P z.J.R.8.2.1.5 8 3.6.2.0 j.l.W.J l j k j ",
"    v m J F.J U K B.4.2.2 5 8 4.s.>.; u F U.C k k k j ",
"  j k m M H.J b b j.> # ; 5 7 ;.=.# @ 9 V H v k k g   ",
"g k k v C m k k k 9 3.$.8 5 7 $.3.;.8 5 3 z k k g     ",
"j k k k k k k k g 1 s.s.8 5 8 6.f.a.8 5 5 d k j       ",
"g j j k k k k k z * :.%.7 5 6 = w 7.        c         ",
"              j z m.v.        A.S./.                  ",
"                  -X;X          ;X%X                  ",
"                  ;X;X          ,X%X                  ",
"                  m.Z.          m.u.                  ",
"                  & &           $ $                   ",
"                  & &           & &                   ",
"                & & -           - & &                 ",
"              a r -             < < y D D             ",
"              S X.a                   u               "
};
