/* XPM */
static char *a14845f8d5f54c18c028184ca07f2d9ayZiK78Nptt2H9CvL_84[] = {
/* columns rows colors chars-per-pixel */
"27 48 256 2 ",
"   c None",
".  c #030B17",
"X  c #030505",
"o  c #6D3F25",
"O  c #3B7838",
"+  c #2E6E2E",
"@  c #3A1E56",
"#  c #241F51",
"$  c #012447",
"%  c #1B224F",
"&  c #0A2658",
"*  c #1E2554",
"=  c #173657",
"-  c #272757",
";  c #242B4D",
":  c #04286A",
">  c #002B77",
",  c #133570",
"<  c #272865",
"1  c #3C256D",
"2  c #262678",
"3  c #3A2D70",
"4  c #6B1851",
"5  c #65255F",
"6  c #551F64",
"7  c #4B2065",
"8  c #47216B",
"9  c #5A2568",
"0  c #48316A",
"q  c #164E54",
"w  c #114370",
"e  c #2B426A",
"r  c #524D5C",
"t  c #4B7942",
"y  c #4E4F6D",
"u  c #6C5473",
"i  c #467173",
"p  c #7E7E7B",
"a  c #686A71",
"s  c #A60F39",
"d  c #EA031C",
"f  c #F4011B",
"g  c #FC011A",
"h  c #FC0117",
"j  c #CC0B22",
"k  c #D2172D",
"l  c #F80D23",
"z  c #E5182D",
"x  c #F41227",
"c  c #F9192E",
"v  c #EE1129",
"b  c #F4283A",
"n  c #B1651C",
"m  c #86602E",
"M  c #F63344",
"N  c #F33C4B",
"B  c #E1354A",
"V  c #A17E57",
"C  c #944065",
"Z  c #8A6968",
"A  c #96736A",
"S  c #9E7772",
"D  c #C64353",
"F  c #F3505C",
"G  c #FA4C5A",
"H  c #EA5A65",
"J  c #F95A67",
"K  c #DC747D",
"L  c #EE646D",
"P  c #F5616C",
"I  c #F66A75",
"U  c #EE737C",
"Y  c #EF6A75",
"T  c #378834",
"R  c #369534",
"E  c #3BAC37",
"W  c #4B8838",
"Q  c #40A33A",
"!  c #3F8F41",
"~  c #5D9D58",
"^  c #50A34B",
"/  c #6C8367",
"(  c #6DA36A",
")  c #B59E2C",
"_  c #A7882A",
"`  c #CCB514",
"'  c #C78525",
"]  c #E7B829",
"[  c #EBD905",
"{  c #EBD107",
"}  c #FCEB01",
"|  c #F8E501",
" . c #9D8458",
".. c #BB8145",
"X. c #80846E",
"o. c #AE8270",
"O. c #83AE7F",
"+. c #DFAF5B",
"@. c #D99F72",
"#. c #E6A075",
"$. c #81C37D",
"%. c #032C87",
"&. c #083388",
"*. c #143987",
"=. c #012E94",
"-. c #002F9A",
";. c #0A2D92",
":. c #033393",
">. c #01319C",
",. c #0D3698",
"<. c #153D97",
"1. c #1B2B8A",
"2. c #0132A5",
"3. c #0133AB",
"4. c #0B38AC",
"5. c #0033B2",
"6. c #0335BB",
"7. c #1A4396",
"8. c #274C98",
"9. c #354E8C",
"0. c #1440AD",
"q. c #2F55AA",
"w. c #3E60A3",
"e. c #4A528A",
"r. c #715881",
"t. c #5D7291",
"y. c #656E8C",
"u. c #5472AA",
"i. c #5474B8",
"p. c #697EA0",
"a. c #0237CA",
"s. c #0338C4",
"d. c #0039D2",
"f. c #003CDE",
"g. c #0040CC",
"h. c #8F2FA7",
"j. c #8D4D81",
"k. c #957E9C",
"l. c #AB7D8D",
"z. c #F07B83",
"x. c #A536C3",
"c. c #C43EE6",
"v. c #C65AE1",
"b. c #7C8B8E",
"n. c #768CB8",
"m. c #758CAA",
"M. c #878697",
"N. c #8D8D8A",
"B. c #B69585",
"V. c #B5829D",
"C. c #9BBF98",
"Z. c #8A8DA1",
"A. c #8797B6",
"S. c #8C98A6",
"D. c #BF94A4",
"F. c #9AA4AC",
"G. c #AAAFB0",
"H. c #CB8393",
"J. c #EC8389",
"K. c #F28389",
"L. c #EB8B91",
"P. c #F58D93",
"I. c #F4949A",
"U. c #D5A888",
"Y. c #F4B587",
"T. c #E3B390",
"R. c #EF9FA4",
"E. c #C7B1A3",
"W. c #CFB7B5",
"Q. c #EBA5AA",
"!. c #EEB3B6",
"~. c #F3B8BA",
"^. c #F3A8AC",
"/. c #A6C59C",
"(. c #B9C4B9",
"). c #B9D2B7",
"_. c #ECCCBA",
"`. c #9AAACB",
"'. c #A5B2C8",
"]. c #B7BDC7",
"[. c #A5B4D0",
"{. c #B9C4D4",
"}. c #DAD8D6",
"|. c #C9CFCB",
" X c #F4C7C8",
".X c #E8D3C7",
"XX c #F2D4D4",
"oX c #F7D8D7",
"OX c #D1E4CE",
"+X c #DBE4D9",
"@X c #E1E4DF",
"#X c #D0D8E2",
"$X c #DAE0E9",
"%X c #E9E9E6",
"&X c #EDEEEB",
"*X c #E2E6E2",
"=X c #F3E9E6",
"-X c #F6ECEA",
";X c #F8E2E1",
":X c #EEF0ED",
">X c #F1F2EE",
",X c #EEF1F1",
"<X c #F5F6F3",
"1X c #F7F8F5",
"2X c #FAFAF6",
"3X c #FDFEFB",
"4X c #FAF4F1",
"5X c black",
"6X c black",
"7X c black",
"8X c black",
"9X c black",
"0X c black",
"qX c black",
"wX c black",
"eX c black",
"rX c black",
"tX c black",
"yX c black",
"uX c black",
"iX c black",
"pX c black",
"aX c black",
"sX c black",
"dX c black",
"fX c black",
"gX c black",
"hX c black",
"jX c black",
"kX c black",
"lX c black",
"zX c black",
"xX c black",
"cX c black",
"vX c black",
"bX c black",
"nX c black",
"mX c black",
"MX c black",
"NX c black",
"BX c black",
"VX c black",
"CX c black",
"ZX c black",
"AX c black",
"SX c black",
"DX c black",
"FX c black",
"GX c black",
"HX c black",
"JX c black",
"KX c black",
"LX c black",
"PX c black",
"IX c black",
"UX c black",
/* pixels */
"                          [ [ [                       ",
"                        [ } } } [                     ",
"                        | } | | | {                   ",
"                        ` { ) _ ) `                   ",
"                        _ ` Z A  .                    ",
"                    x.5 n ] T.Y.+.m                   ",
"                    c.h.o ' Y.Y...Z                   ",
"                      v.a W V A X.}.                  ",
"                    E.Q.l.! q *.G.&X2X                ",
"                  &X_.#.@.r , 8.n.`.m.t.              ",
"                <X3X%X.XB.r e &.-.*.2.a.              ",
"                2X3X<X<X}.t.e & > *.3.g.              ",
"                `.3X<X%X3X}.t / F.A.n.                ",
"              6.0.S.@X%X3X*XW C.3X3X2X                ",
"            a.d.5.& F.<X3X+XO ( <X3X2X                ",
"            s.>.: . N.3X3X+XO ~ &X1X1X                ",
"            s., & X / 3X3X+XT ^ *X:X2X                ",
"            <.0.3.. p 3X3XOXQ ^ +X%X1X                ",
"              d.3.& F.<X3X|.T T OX%X*X                ",
"              d.a.,.8.M._.(.+ T ).<X|.                ",
"                ,.*.<.B.T./.R T C.3X*X                ",
"                  i.9.U.E.O.E E $.3X1X}.              ",
"                  ,X{..XW.t.w q i ,X3X:X%X<X          ",
"                2X3X3X&X*Xu.=.%.*.#X3X3X&X>X2X        ",
"                3X3X2X%X&Xw.-.2.:.'.3X3X2X<X3XXX      ",
"              <X3X3X2X1X*X8.2.5.: p.2X3X4X=X-XXXb     ",
"              3X3X3X2X3X{.:.5.%.: 8.$X3X4X~.~. XL     ",
"            2X3X3X3X2X3X'.q.q., > :.[.3X2X~. XP.L.    ",
"            3X3X3X3X3X2X|.|.F.; : -.u.2X-XXXQ.I K z   ",
"          <X2X3X3X3X2X%Xa y 0 # >.2.7.#XoXoXU K.H D k ",
"        ~.~.XX=X2X3X;X}.].].r.2 3.3.=.A. XJ.z. XN z k ",
"        N R.!.I.-XXX;XA.7.7.1 2 3.3.-.e.^.N L.!.M x k ",
"      x J I.I.P. X!.XXu.=.;.7 1 3.5.>.e.D.L z.F h x   ",
"      M P U J L J.K.W.8.2.1.6 8 3.6.2.3 k.H.I J l f   ",
"    d M b U H P L F V.4.2.2 6 8 4.s.>.@ u l.Y G g g   ",
"    f g c M R.F x c j.> $ - 6 7 ;.=.$ @ 9 C B c g g   ",
"  d g g c b c g g g 9 3.%.8 6 7 %.3.;.8 6 4 d g g g f ",
"  f g g g g g g g d < s.s.8 6 8 6.f.a.8 6 6 s g g g g ",
"f f f f g g g g g j = :.&.7 6 7 = w 7.        d g g f ",
"  f g g g g g g g j b.b.        F.G.(.          f f   ",
"      f f g g g g z :X&X          &X@X                ",
"            f f f   :X&X          >X@X                ",
"                    Z.Z.          M.y.                ",
"                    * *           % %                 ",
"                    * *           * *                 ",
"                  * * -           - * *               ",
"                  r -             < < y S A           ",
"                Z o.u                   u             "
};
