/* XPM */
static char *_85c59152a4d4ccce0fc19c7cea1f04a3LQ5iPqnxZn6qCxt_3[] = {
/* columns rows colors chars-per-pixel */
"50 55 256 2 ",
"   c None",
".  c #151519",
"X  c #1D1F32",
"o  c #0A2A39",
"O  c #1E263C",
"+  c #1A3539",
"@  c #303335",
"#  c #5A462C",
"$  c #6C5A22",
"%  c #0D2D4C",
"&  c #0B3249",
"*  c #153546",
"=  c #143659",
"-  c #0E2D5A",
";  c #242A55",
":  c #303656",
">  c #043274",
",  c #06397B",
"<  c #123A75",
"1  c #0C3567",
"2  c #2F3767",
"3  c #284965",
"4  c #554E54",
"5  c #765C59",
"6  c #6A5A5B",
"7  c #736B49",
"8  c #4D556C",
"9  c #645963",
"0  c #526771",
"q  c #72666A",
"w  c #7B6F74",
"e  c #63636E",
"r  c #DA0506",
"t  c #D41A19",
"y  c #CF0809",
"u  c #E50303",
"i  c #EC0303",
"p  c #E50B0A",
"a  c #F30202",
"s  c #FC0D0C",
"d  c #F80B0A",
"f  c #FD110E",
"g  c #F3110E",
"h  c #EC1B18",
"j  c #F51613",
"k  c #FB1412",
"l  c #F11916",
"z  c #F81B1A",
"x  c #C82C2A",
"c  c #F42826",
"v  c #F6302E",
"b  c #F53331",
"n  c #F23937",
"m  c #E6332F",
"M  c #816D3E",
"N  c #AC7A2B",
"B  c #E5433F",
"V  c #BC4441",
"C  c #956B50",
"Z  c #BF7B5B",
"A  c #82676D",
"S  c #C7514D",
"D  c #D64A47",
"F  c #F34947",
"G  c #E85B58",
"H  c #F35754",
"J  c #EC4E4A",
"K  c #CD7D77",
"L  c #EB6966",
"P  c #F16E6A",
"I  c #E9716D",
"U  c #EA7673",
"Y  c #EA7C79",
"T  c #F17C77",
"R  c #91911F",
"E  c #9E9C24",
"W  c #AA8D27",
"Q  c #BDA123",
"!  c #AE9314",
"~  c #F2DB19",
"^  c #EDD20D",
"/  c #FBE602",
"(  c #FEEB02",
")  c #FAE608",
"_  c #DEC23F",
"`  c #E7D12D",
"'  c #D7C610",
"]  c #93827D",
"[  c #8A886A",
"{  c #B68776",
"}  c #A4A161",
"|  c #C8865F",
" . c #D3B34D",
".. c #D6AD48",
"X. c #C8847D",
"o. c #D2857F",
"O. c #DB837E",
"+. c #D3946F",
"@. c #EC827D",
"#. c #E7817D",
"$. c #E49F78",
"%. c #C8A86D",
"&. c #DFA67E",
"*. c #E8A37A",
"=. c #E0C45B",
"-. c #DCC76B",
";. c #E4CD64",
":. c #043A87",
">. c #023D95",
",. c #033E9C",
"<. c #083E94",
"1. c #123C80",
"2. c #003FA0",
"3. c #0B4599",
"4. c #13479B",
"5. c #1C4483",
"6. c #2A569C",
"7. c #0240A5",
"8. c #0643A7",
"9. c #0145BA",
"0. c #0D48B4",
"q. c #0154BD",
"w. c #1754B8",
"e. c #134AA0",
"r. c #2656A7",
"t. c #777783",
"y. c #6D6D85",
"u. c #416FBD",
"i. c #6B7EA0",
"p. c #014ACB",
"a. c #0349C3",
"s. c #0C55D0",
"d. c #0056E4",
"f. c #847A82",
"g. c #758AA8",
"h. c #918080",
"j. c #A78E86",
"k. c #AD978D",
"l. c #BA968D",
"z. c #B99F95",
"x. c #A89892",
"c. c #B9A39C",
"v. c #979CA5",
"b. c #9FA3AC",
"n. c #B4AEB2",
"m. c #B9B5B3",
"M. c #D48680",
"N. c #C3968D",
"B. c #C39D94",
"V. c #DC9D96",
"C. c #EB8682",
"Z. c #EB8E8A",
"A. c #EA8A85",
"S. c #EB938E",
"D. c #E4918D",
"F. c #EA9691",
"G. c #EB9C98",
"H. c #F09994",
"J. c #F1948F",
"K. c #CEA689",
"L. c #DCA786",
"P. c #C5A299",
"I. c #C9A39A",
"U. c #C4AA9C",
"Y. c #D8B69A",
"T. c #D1A49B",
"R. c #EBB38C",
"E. c #F3B58B",
"W. c #ECA39E",
"Q. c #E0A29C",
"!. c #F2A19D",
"~. c #E9AA83",
"^. c #C5AAA2",
"/. c #CBADA3",
"(. c #CDB4AB",
"). c #CBB0A7",
"_. c #D2B5AC",
"`. c #D1B6AA",
"'. c #C8B9B6",
"]. c #D5BBB3",
"[. c #DABEB6",
"{. c #DEACA5",
"}. c #EBAAA4",
"|. c #EAA9A3",
" X c #ECB2AC",
".X c #E2B0A9",
"XX c #F3B3AD",
"oX c #ECB6B0",
"OX c #EDBAB4",
"+X c #EDBEB8",
"@X c #E6B6B0",
"#X c #F3BAB5",
"$X c #F1BAB5",
"%X c #F1ADA7",
"&X c #D5C18D",
"*X c #FCC299",
"=X c #E3D29E",
"-X c #DAC3BC",
";X c #DEC9BA",
":X c #D4C7B6",
">X c #ECC3BC",
",X c #E2C8BD",
"<X c #F1C3BD",
"1X c #E1CFA1",
"2X c #A9AFC2",
"3X c #DCC7C0",
"4X c #DDCBC4",
"5X c #DBCEC9",
"6X c #D4CDCF",
"7X c #E2CCC4",
"8X c #EDCBC4",
"9X c #EDCFC8",
"0X c #E7CBC4",
"qX c #F1CEC8",
"wX c #F1CBC5",
"eX c #E4D3CC",
"rX c #EBD4CC",
"tX c #E5D6C5",
"yX c #F1D4CD",
"uX c #E6D7D0",
"iX c #ECD7D0",
"pX c #E7D8D2",
"aX c #EBDBD4",
"sX c #EEDFD8",
"dX c #F1D7D0",
"fX c #F1DAD4",
"gX c #F1DFD9",
"hX c #EFE1DA",
"jX c #F2E4DD",
"kX c #F2E5E0",
"lX c #F7E9E3",
"zX c black",
"xX c black",
"cX c black",
"vX c black",
"bX c black",
"nX c black",
"mX c black",
"MX c black",
"NX c black",
"BX c black",
"VX c black",
"CX c black",
"ZX c black",
"AX c black",
"SX c black",
"DX c black",
"FX c black",
"GX c black",
"HX c black",
"JX c black",
"KX c black",
"LX c black",
"PX c black",
"IX c black",
"UX c black",
/* pixels */
"  l j k k k k                                                                                       ",
"h k k k k k k k l                                         l j k j k k l                             ",
"  j k f f f f f k p                                 l j k k k f f k f k k                           ",
"  l k f f s s s f d i i u                       j k f f f f f f s s f f f k l                       ",
"  l k f s s s s s s a a a a i a i j j j j k k f f f f s s s s s s s s s f f k j                     ",
"  l k s z b c P F k j u i i i u i f f f f f f s s s s s s s s d s s s s s f f f k l                 ",
"    v b H G.L #XF.A.P p r u u u u f f s s s s s s s s s s s s d s s s s f s s s f k j               ",
"    J Z.!.#X|.+XaXrXA.G x t r r r s k k s s k k s s c b k s F F z z s s c k s s s f k g             ",
"    J @.oX#X#XyXjXgXOX}.K K S y r z T P s d n F s J !.XXL c W.}.S.J.v b H c v s s s f a i           ",
"    V.oX+X#X#XdXjXjXdX8XG.M.o.S y c W. XJ s L G c OX$X|.%XL G. XyXqXJ.P >XZ.S.c F H z i a u         ",
"      8XdXqXwX8XjXjXqX8XQ.o.o.X.D Y G.rXrXC.<XC.n U D.W.#X#X$X+XjXyX+XG.yXfXoXU XXJ.h u u d l       ",
"      >XfXjXgXfXjXjXjXrX{.o.o.K D.<XqXfXjX8X9X}.F.<XrX<X#XwXaXeXjXyXqXjXjXyXgX8XP z u r a f k j     ",
"      7XjXjXkXjXjXjXjXaX[.X.X.X.OXqXgXfXoX>XW.Y G.<XaXqXrXjXjXaXsXqXdXjXjXgXjX<Xv i x t d k k k k h ",
"      3XjXkXjXjXjXjXjXsX;XN.X.B.8XjXkX8X}.rXS.Z.8XfXjXfXgXjXkXsXeXiXjXjXjXjXdX+XG y V B z n k k j   ",
"      ].hXkXjXjXjXjXjXhX7XI.N._.aXjXjX8X}.>XY I 8XkXjXjXjXjXkXjXaXhXkXkXjXwX#XOXO.S o.J H @.k l     ",
"        aXkXjXjXjXjXjXjX7XI.B.[.hXjXjXrX}. XU L >XjXjXkXkXjXkXkXjXuXjXkXfX$X#XoXV.T..XL W.@.h       ",
"        eXkXjXjXjXjXjXjXrXB.N.[.hXjXkX>XW.rXF.oXaXjXjXkXkXjXkXkXkXhXuXsXjXyX+X8X7X[.9XyX@.m         ",
"        3XkXjXjXjXjXjXjXaXB.l.-XjXjXjX+X>XjXOX}.jXjXjXkXkXjXjXkXkXkXaX4XaXfX0XaX7XiXkXfXG           ",
"          jXjXjXjXjXjXjXaXP.I.;XjXjXjX+X@. XZ.>XjXjXjXkXkXjXjXkXkXjXaXaXuXaXaXaXeXjXkXrX            ",
"          aXkXjXjXjXjXjXaX/.I.7XjXjXjXjX>X#.W.fXjXjXjXkXkXkXjXjXkXhXaXjXaXjXaXaXsXkXaX              ",
"          eXkXjXjXjXjXjXaX/.P.7XjXjXjX>X|.G.S.+XjXaXsXjXjXjXjXjXjXaXhXjXaXsXsXjXkXsX                ",
"          -XjXkXjXhXjXjXjX`.P.eXjXjXjXOX8X X8XrXjXaX-XaXjXjXjXsXeXaXjXjXaXaXjXkXjX7X                ",
"            aXkXhXeXjXjXjX/.I.eXjXjXjXgXOX}.oXjXjXjX7X_.hXjXjXaX;XaXjXjXjXaXjXkXaX                  ",
"            4XkXsX4XjXjXjX(.P.eXjXjXjXoXU S.S.gXjXjXhX].eXjXjXrX].sXjXjXjXaXjXaX                    ",
"              hXsX-XhXjXjX-XB.eXkXjXjXZ.U Z.C.fXjXjXjX7X-XjXjXeX].jXhXjXjXjXaX].            |       ",
"              aXhX].aXkXjX7Xl.eXjXjXjXC.U Z.F.yXjXaXjXaX].hXjX7X-XjXjXhXjXaX_.            ~.$.+.    ",
"                sX].eXjXjXrXP.7XaXjXiXZ.|.OX}.jXjXjXaXjX-XaXjX;XeXjXjXjXeX`.        8.r.Y.*X*.      ",
"                uX].4XjXjXaXP.].aXjX8XF.G.+XD.aXjXjXjXsXeXaXsX-XaXjXjXeX`.        4.w.s.c.E.        ",
"                4X].-XkXjXsXI.^.jXjXjX>XZ.>X@XsXjXjXjXsXaXaXrX-XjXjXeX`.      4.9.p.w.3.{           ",
"                  (._.hXjXjX/._.jXjXhXrX>X>X8XaXaXaXaXjXaXaX4XeXjX4X_.    ,.9.s.s.a.=               ",
"                    /.aXkXjX_.3XjXuX0XC.S.}.I |.hXaXeXhXaXaX3XeX[./.k.< <.9.p.4.< =                 ",
"                    z.3XjXjX/.-XeXaXZ.I L A.Y C.aXjXsXuXaX7X_./.].c.1.,.9.p.3.*                     ",
"                      ^.eXaXP.(.aXjX>X>X(.rXyX8XhXjXjXaX4X/.B.^.aX6Xe.a.>.> *                       ",
"                        ).7Xc.eXjXsXeXuXy.b.6Xv.eXhXjXjX3X^.).eXkXsXu.2.&                           ",
"                        j.).].hXsX;X&X1X7 8 e 0 5XeXsXuXeXuXuXjXkXkXg.&                             ",
"                          P.eXhX(./.` ~ ' R E } =X5XaXaXuXsXjXkXkXjXn.                              ",
"                          c.eXaXU.%.~ ( / / ) ) ;.;XhXaXaXjXjXhX7XeX                                ",
"                          5XaX-X`. ./ ( ( ( ( ( ~ -.tXaXhXjXhX]././.                                ",
"                          eXaXuXY.` ) ) ( ( ( ) ) _ ;X7XjXjX].] e                                   ",
"                          '.-X;X-.^ ~ ` ) / ^ ~ ~ =.eX-X7X_.e 1 :.,.                                ",
"                        i.pXaX%...N $ [ W Q ! $ W  .K.z.] 8 > :.,.<.                                ",
"                      5.2XlXuX;X(.j.5 f.9 q M # 9 c.4 @ o :.>.2.7.,                                 ",
"                      6.6XlXkXkX/.c.A +.L.L.K.7 q k.    % , 7.9.9.8.                                ",
"                      6.n.'.uXkX(.6 4 C R.R.R.            > a.p.p.:.                                ",
"                    8.<.= = 3 t.x.@ @   &.L.              % :.>., *                                 ",
"                  <.7.7.>.>.:.> O . .                       + 3 0                                   ",
"                0.9.9.9.7.8.4.,.> O X       C C               m.:X                                  ",
"                  d.d.d.:.3.s.p.w.3.<., t.R.+.|               n.m.                                  ",
"                  3.q.q.- o , 8.r.a.7.1.B.*XE.$.              : 2                                   ",
"                    * & o +     = , :.< k.R.E.*.              O O                                   ",
"                                      * 4 5 C Z               ; ; 2                                 ",
"                                      5 h.9 w 6               ; ; 2                                 ",
"                                          w                   2 9 y.A                               ",
"                                          x.                    { { C                               ",
"                                          k.                      4                                 "
};
