/* XPM */
static char *a14845f8d5f54c18c028184ca07f2d9ayZiK78Nptt2H9CvL_9[] = {
/* columns rows colors chars-per-pixel */
"27 48 256 2 ",
"   c None",
".  c #040B18",
"X  c #040506",
"o  c #6E3F25",
"O  c #3B7838",
"+  c #2E6E2E",
"@  c #3A1E56",
"#  c #241F51",
"$  c #022447",
"%  c #1B214F",
"&  c #042259",
"*  c #1E2454",
"=  c #102B58",
"-  c #173657",
";  c #272757",
":  c #242B4D",
">  c #04286A",
",  c #002B77",
"<  c #133570",
"1  c #262764",
"2  c #3C266D",
"3  c #262678",
"4  c #3A2C70",
"5  c #6B1851",
"6  c #65255F",
"7  c #551F64",
"8  c #4E1F63",
"9  c #4A2066",
"0  c #4A216E",
"q  c #442168",
"w  c #592467",
"e  c #48316B",
"r  c #164E54",
"t  c #114370",
"y  c #2B416A",
"u  c #52475B",
"i  c #53585F",
"p  c #4B7942",
"a  c #4E4F6D",
"s  c #6C5473",
"d  c #467173",
"f  c #7F7F7C",
"g  c #686A71",
"h  c #A50F3A",
"j  c #EB021B",
"k  c #E6041F",
"l  c #F4011B",
"z  c #FC011A",
"x  c #CB0B22",
"c  c #D2152C",
"v  c #F80B22",
"b  c #F9172B",
"n  c #EC172D",
"m  c #F72639",
"M  c #E32538",
"N  c #B1651C",
"B  c #86602E",
"V  c #C53E4F",
"C  c #F53747",
"Z  c #EB2F43",
"A  c #A17E57",
"S  c #914772",
"D  c #8A6968",
"F  c #96736B",
"G  c #9E7772",
"H  c #F64656",
"J  c #F3515D",
"K  c #EF505D",
"L  c #EA5D68",
"P  c #F75A67",
"I  c #DC707A",
"U  c #EB626D",
"Y  c #F1626E",
"T  c #F86773",
"R  c #EB757E",
"E  c #F6747E",
"W  c #378734",
"Q  c #369534",
"!  c #3BAC37",
"~  c #4B8938",
"^  c #40A33A",
"/  c #3F8F41",
"(  c #5D9D58",
")  c #50A24B",
"_  c #6C8267",
"`  c #6DA36A",
"'  c #B49D2C",
"]  c #A6882A",
"[  c #CBB414",
"{  c #C78525",
"}  c #E7B829",
"|  c #EFDD04",
" . c #E7D506",
".. c #E0C30B",
"X. c #FCEB00",
"o. c #F7E401",
"O. c #9C8358",
"+. c #BC8145",
"@. c #80846E",
"#. c #AE8170",
"$. c #83AE7F",
"%. c #DFAF5B",
"&. c #D99F72",
"*. c #E5A176",
"=. c #80C27D",
"-. c #032C87",
";. c #083288",
":. c #11368A",
">. c #173D84",
",. c #012E94",
"<. c #002F9B",
"1. c #0B2E92",
"2. c #033393",
"3. c #01319C",
"4. c #0D3696",
"5. c #153C97",
"6. c #1B2C8A",
"7. c #0132A5",
"8. c #0133AB",
"9. c #0C38AC",
"0. c #0033B2",
"q. c #0335BB",
"w. c #1A4397",
"e. c #274C98",
"r. c #354E8C",
"t. c #1440AD",
"y. c #3056AA",
"u. c #3E60A3",
"i. c #485189",
"p. c #715881",
"a. c #5D7291",
"s. c #656E8C",
"d. c #5472AB",
"f. c #5474B8",
"g. c #697FA0",
"h. c #0237CA",
"j. c #0338C4",
"k. c #0039D1",
"l. c #003CDE",
"z. c #0040CC",
"x. c #8F2FA7",
"c. c #A17D88",
"v. c #ED7E85",
"b. c #F27E85",
"n. c #A536C3",
"m. c #C43EE6",
"M. c #C65AE1",
"N. c #7B8B8E",
"B. c #768DB8",
"V. c #758BAA",
"C. c #878697",
"Z. c #928693",
"A. c #B69585",
"S. c #B6839B",
"D. c #99BE97",
"F. c #8A8DA1",
"G. c #8797B6",
"H. c #8C98A6",
"J. c #9AA4AB",
"K. c #AAAFB0",
"L. c #CC8A99",
"P. c #EC858C",
"I. c #F5949A",
"U. c #F58990",
"Y. c #D5A888",
"T. c #F4B587",
"R. c #E3B391",
"E. c #C29CAA",
"W. c #F29BA0",
"Q. c #C7B1A4",
"!. c #D0B7B6",
"~. c #ECA5AA",
"^. c #F1A9AC",
"/. c #F3BBBD",
"(. c #EDB0B3",
"). c #A6C59C",
"_. c #B9C4B9",
"`. c #B8D2B6",
"'. c #ECCDBA",
"]. c #9AAACB",
"[. c #A4B2CA",
"{. c #B6BDC7",
"}. c #B9C4D4",
"|. c #DAD8D6",
" X c #C9D0CB",
".X c #F1CCCD",
"XX c #F4C4C5",
"oX c #F4D9D8",
"OX c #E8D3C7",
"+X c #DBE4D9",
"@X c #D0E4CE",
"#X c #E1E4DF",
"$X c #D6DCE6",
"%X c #CFD8E3",
"&X c #E8E9E7",
"*X c #EDEEEB",
"=X c #E2E6E2",
"-X c #F6EEEC",
";X c #F4E7E2",
":X c #EEF0ED",
">X c #F1F2EE",
",X c #EEF1F1",
"<X c #F4F5F3",
"1X c #F7F8F5",
"2X c #FAFAF6",
"3X c #FDFEFB",
"4X c #FAF5F2",
"5X c black",
"6X c black",
"7X c black",
"8X c black",
"9X c black",
"0X c black",
"qX c black",
"wX c black",
"eX c black",
"rX c black",
"tX c black",
"yX c black",
"uX c black",
"iX c black",
"pX c black",
"aX c black",
"sX c black",
"dX c black",
"fX c black",
"gX c black",
"hX c black",
"jX c black",
"kX c black",
"lX c black",
"zX c black",
"xX c black",
"cX c black",
"vX c black",
"bX c black",
"nX c black",
"mX c black",
"MX c black",
"NX c black",
"BX c black",
"VX c black",
"CX c black",
"ZX c black",
"AX c black",
"SX c black",
"DX c black",
"FX c black",
"GX c black",
"HX c black",
"JX c black",
"KX c black",
"LX c black",
"PX c black",
"IX c black",
"UX c black",
/* pixels */
"                           .|  .                      ",
"                        | X.X.X.|                     ",
"                        o.X.o.o.o. .                  ",
"                        [ ..' ] ' [                   ",
"                        ] [ D F O.                    ",
"                    n.6 N } R.T.%.B                   ",
"                    m.x.o { T.T.+.D                   ",
"                      M.g ~ A F @.|.                  ",
"                    Q.~.c./ r >.K.*X2X                ",
"                  :X'.*.&.i < e.B.].V.s.              ",
"                <X3X&XOXA.u y ;.3.:.7.h.              ",
"                2X3X<X<X|.a.y = , :.8.z.              ",
"                ].3X<X&X3X|.p _ J.G.B.                ",
"              q.t.H.#X&X3X=X~ D.3X3X2X                ",
"            h.k.0.& J.<X3X+XO ` <X3X2X                ",
"            j.3.> . Z.3X3X+XO ( :X1X1X                ",
"            j.< = X _ 3X3X+XW ) =X>X3X                ",
"            5.t.8.. f 3X3X@X^ ~ +X&X1X                ",
"              k.8.& J.<X3X XW W @X&X=X                ",
"              k.h.4.e.Z.'._.+ W `.<X X                ",
"                4.:.5.A.R.).Q W D.3X#X                ",
"                  f.r.Y.Q.$.! ! =.3X1X|.              ",
"                  ,X}.OX!.a.t r d ,X3X*X&X<X          ",
"                <X3X3X*X=Xd.,.-.>.$X3X3X*X>X2X        ",
"                3X3X2X&X:Xu.<.7.2.[.3X3X2X<X3XoX      ",
"              <X3X3X2X4X=Xe.7.0.> g.2X3X4X-X-XoXZ     ",
"              3X3X3X3X3X}.2.0.-.> e.$X3X4X/./..XY     ",
"            2X3X3X3X2X3X[.y.y.< , 2.[.3X2X^./.U.P.M   ",
"            3X3X3X3X3X2X X XJ.: > <.d.2X-X.X^.T I c   ",
"          1X3X3X3X3X2X&Xg i e # 3.7.w.%XoXoXv.b.L V c ",
"        .XXX.X-X3X3XoX|.{.{.p.3 8.8.,.G.XXP.R XXH n c ",
"        H W.^.W.-XoX;XG.w.w.2 3 8.8.<.i.(.C P./.C v c ",
"      v H I.U.I.XX(.oXd.,.1.9 2 8.0.3.i.E.L E P l v   ",
"      Z P T P U v.b.!.e.7.6.7 q 8.q.7.4 Z.L.T P v l   ",
"    k C m R K Y L K S.9.7.3 7 0 9.j.3.@ s S.Y H z z   ",
"    l v b C ~.J b b S , $ ; 7 9 1.,.$ @ w S Z b z l   ",
"  j z z b m b z z l w 8.-.q 7 9 -.8.1.q 7 5 k z l l l ",
"  l z z z v z z z j 1 j.j.0 7 0 q.l.h.0 7 7 h l l z l ",
"l l l l l z l l z x = 2.;.9 7 8 - t w.        k z z j ",
"  l l l z z z z l x N.N.        J.K._.          z l   ",
"      l j l z z z n *X*X          *X#X                ",
"            j l     >X*X          >X+X                ",
"                    F.F.          C.s.                ",
"                    * *           % %                 ",
"                    * *           * *                 ",
"                  * * ;           ; * *               ",
"                  u ;             1 1 a G F           ",
"                D #.s                   s             "
};
