/* XPM */
static char *a14845f8d5f54c18c028184ca07f2d9ayZiK78Nptt2H9CvL_90[] = {
/* columns rows colors chars-per-pixel */
"28 48 256 2 ",
"   c None",
".  c #040B17",
"X  c #040506",
"o  c #6E3F25",
"O  c #3B7839",
"+  c #2D6D2F",
"@  c #3A1E57",
"#  c #251E51",
"$  c #012448",
"%  c #1B224F",
"&  c #042158",
"*  c #1E2554",
"=  c #122B5A",
"-  c #173657",
";  c #292757",
":  c #242B4D",
">  c #331F69",
",  c #042869",
"<  c #002B77",
"1  c #113977",
"2  c #262A68",
"3  c #38246B",
"4  c #262578",
"5  c #511C5D",
"6  c #601A56",
"7  c #65245E",
"8  c #551E64",
"9  c #4E1F63",
"0  c #4A2065",
"q  c #4A216D",
"w  c #432168",
"e  c #5A2565",
"r  c #48306A",
"t  c #164E54",
"y  c #114370",
"u  c #2B416A",
"i  c #524C5C",
"p  c #4B7942",
"a  c #4E4F6D",
"s  c #6B586A",
"d  c #467072",
"f  c #7F7E7B",
"g  c #676970",
"h  c #B9051D",
"j  c #B11635",
"k  c #DC061A",
"l  c #DD0417",
"z  c #E5071A",
"x  c #EB061A",
"c  c #EC091D",
"v  c #F2071A",
"b  c #FD061A",
"n  c #FD081B",
"m  c #F8061A",
"M  c #D40B22",
"N  c #DB1829",
"B  c #F91124",
"V  c #F71B2B",
"C  c #F01A2D",
"Z  c #F52939",
"A  c #F82334",
"S  c #B1651B",
"D  c #87602E",
"F  c #DA3140",
"G  c #F23543",
"H  c #EE3545",
"J  c #A17E57",
"K  c #88557A",
"L  c #87696B",
"P  c #96736B",
"I  c #9B736B",
"U  c #EC4E59",
"Y  c #F44654",
"T  c #F25B66",
"R  c #E7656E",
"E  c #ED6A73",
"W  c #ED767E",
"Q  c #F36670",
"!  c #368733",
"~  c #369534",
"^  c #3BAC37",
"/  c #4B8838",
"(  c #40A239",
")  c #3F8F41",
"_  c #5D9E59",
"`  c #50A34A",
"'  c #6D8267",
"]  c #6DA36A",
"[  c #AD922C",
"{  c #CCB514",
"}  c #C78524",
"|  c #E8B829",
" . c #ECD905",
".. c #F1DF04",
"X. c #E1C30B",
"o. c #FAE600",
"O. c #FEEC00",
"+. c #F7E202",
"@. c #9C8358",
"#. c #BC8144",
"$. c #80836E",
"%. c #B08371",
"&. c #83AD7F",
"*. c #DFAF5B",
"=. c #D99F72",
"-. c #E5A075",
";. c #80C27C",
":. c #032C87",
">. c #093388",
",. c #133887",
"<. c #012E94",
"1. c #002F9B",
"2. c #0B2D92",
"3. c #023393",
"4. c #01319B",
"5. c #0F3792",
"6. c #163C97",
"7. c #1B2B8A",
"8. c #0032A5",
"9. c #0133AB",
"0. c #0B37A8",
"q. c #0033B3",
"w. c #0335BB",
"e. c #194396",
"r. c #3A4D8A",
"t. c #284D98",
"y. c #29509E",
"u. c #1440AD",
"i. c #2F55AA",
"p. c #3F60A3",
"a. c #715881",
"s. c #5D7291",
"d. c #67799A",
"f. c #626783",
"g. c #5471AA",
"h. c #5271AF",
"j. c #033ACA",
"k. c #0336C5",
"l. c #0039D2",
"z. c #003CDE",
"x. c #0040CC",
"c. c #8F2FA7",
"v. c #894B80",
"b. c #846588",
"n. c #A17D88",
"m. c #F07B84",
"M. c #A536C3",
"N. c #C43EE6",
"B. c #C65AE1",
"V. c #7E9091",
"C. c #7C91B8",
"Z. c #738AB2",
"A. c #878697",
"S. c #898E8D",
"D. c #B69585",
"F. c #B5819C",
"G. c #99BD97",
"H. c #8A8DA1",
"J. c #8B9AB8",
"K. c #8C98A7",
"L. c #9BA3AC",
"P. c #AEAEB3",
"I. c #ED8289",
"U. c #EC888E",
"Y. c #EC989C",
"T. c #F4838B",
"R. c #D5A788",
"E. c #F4B587",
"W. c #E3B390",
"Q. c #EE9BA1",
"!. c #F19EA2",
"~. c #C7B1A3",
"^. c #D4AFAC",
"/. c #EBA3A9",
"(. c #ECB7B9",
"). c #F4ADB0",
"_. c #A6C49C",
"`. c #B8C8B7",
"'. c #C0C0BE",
"]. c #ECCCBA",
"[. c #9EACC6",
"{. c #98AAD3",
"}. c #A5B2CA",
"|. c #B7BDC7",
" X c #B9C3D3",
".X c #C9C8CC",
"XX c #DADAD7",
"oX c #CECCC6",
"OX c #EDC7C4",
"+X c #F1C7C9",
"@X c #EBD2D0",
"#X c #DAE6D8",
"$X c #D0E3CD",
"%X c #E1E3DE",
"&X c #CFD7E3",
"*X c #E4E4E3",
"=X c #E9E9E7",
"-X c #EDEDEB",
";X c #E3E9E7",
":X c #F4E7E5",
">X c #EFF0EE",
",X c #F3F1EF",
"<X c #F4F5F3",
"1X c #F9F9F7",
"2X c #FEFEFC",
"3X c #FBF2F1",
"4X c #EFF1F2",
"5X c black",
"6X c black",
"7X c black",
"8X c black",
"9X c black",
"0X c black",
"qX c black",
"wX c black",
"eX c black",
"rX c black",
"tX c black",
"yX c black",
"uX c black",
"iX c black",
"pX c black",
"aX c black",
"sX c black",
"dX c black",
"fX c black",
"gX c black",
"hX c black",
"jX c black",
"kX c black",
"lX c black",
"zX c black",
"xX c black",
"cX c black",
"vX c black",
"bX c black",
"nX c black",
"mX c black",
"MX c black",
"NX c black",
"BX c black",
"VX c black",
"CX c black",
"ZX c black",
"AX c black",
"SX c black",
"DX c black",
"FX c black",
"GX c black",
"HX c black",
"JX c black",
"KX c black",
"LX c black",
"PX c black",
"IX c black",
"UX c black",
/* pixels */
"                           .....                        ",
"                        ..O.O.O.+.                      ",
"                        o.O.o.+.o. .                    ",
"                        { X.[ [ [ {                     ",
"                        [ { L P @.                      ",
"                    M.7 S | W.E.*.D                     ",
"                    N.c.o } E.E.#.L                     ",
"                      B.g / J P $.XX                    ",
"                    ~./.n.) t ,.P.-X1X                  ",
"                  >X].-.=.i 1 y.C.[.Z.d.                ",
"                <X2X:XOXD.i u >.4.,.8.j.                ",
"                1X2X<X<XXXs.u = < ,.9.x.                ",
"                {.2X<X=X2XXXp ' L.J.Z.                  ",
"              w.u.K.*X=X2X;X/ G.2X2X1X                  ",
"            j.l.q.& L.<X2X#XO ] <X2X1X                  ",
"            k.4., . S.2X2X#XO _ -X1X1X                  ",
"          l.j.1 = X ' 2X2X#X! ` ;X>X2X                  ",
"            6.u.9.. f 2X2X$X( / #X=X1X                  ",
"              l.9.& L.<X2XoX! ! $X-X*X                  ",
"              l.j.5.t.A.].`.+ ! `.1XXX                  ",
"                0.,.6.D.W._.~ ! G.2XXX'.                ",
"                  h.r.R.~.&.^ ^ ;.2X<XoX                ",
"                  <X X@X^.s.y t d 4X2X-XXX              ",
"                1X2X2X-X*Xg.<.:.,.&X2X2X<X1X            ",
"                2X2X2X*X-Xp.4.8.3.}.2X2X2X2X1X          ",
"              1X2X2X<X<X;Xt.8.q., d.2X2X2X2X2X2X/.      ",
"              2X2X2X1X2X X3.q.:., y.;X2X2X:X3X1Xm.      ",
"            1X2X2X2X2X2X[.i.i., < 3.}.2X2X/./.(.Q.c     ",
"            2X2X2X2X2X1X.X.XL.: < 1.g.1X2X!.Y.T R F l   ",
"          <X2X2X2X2X2X-Xg g r # 4.8.e.&X:X(.OXT m j h   ",
"          2X2X2X2X3X+X*X|.|.a.4 9.9.<.C.@XI.+XR E C h h ",
"        <X+X3X2X2X3X(.J.e.e.3 4 9.9.4.r.@XG B U OXA x   ",
"        T E Y.+X:X+X<Xg.<.2.0 3 9.q.8.2 P.!.V A T n v   ",
"      v A I.G I.U U.oXy.8.7.8 w 9.w.9.3 b.<Xm.b n b x   ",
"    z n B G Z W Z E F.0.8.4 8 q 0.k.4.@ e .XT.n n n v   ",
"    v n B W Q.Y B V v.< $ ; 8 0 2.<.$ @ 5 K H b b n x   ",
"  x n n b A Z b b b e 9.:.w 8 0 :.9.<.w 8 6 M n n m k   ",
"  m n n n b b b n c 3 k.k.q 8 q w.z.j.q 8 8 j b n v     ",
"k m n n n n n n n M = 3.>.0 8 9 - y e.        c n k     ",
"    z v m m n n b N S.V.        L.P.`.        k z       ",
"            k z x N -X-X          -X%X                  ",
"                    >X-X          >X%X                  ",
"                    H.H.          A.f.                  ",
"                    * *           % %                   ",
"                    * *           * *                   ",
"                  * * *           ; * *                 ",
"                s i ;             2 2 a I I             ",
"                I %.s                   s               "
};
