/* XPM */
static char *a14845f8d5f54c18c028184ca07f2d9ayZiK78Nptt2H9CvL_12[] = {
/* columns rows colors chars-per-pixel */
"27 48 256 2 ",
"   c None",
".  c #040B17",
"X  c #040506",
"o  c #6D3F25",
"O  c #3B7838",
"+  c #2E6E2F",
"@  c #3A1E57",
"#  c #241F51",
"$  c #012447",
"%  c #1B214F",
"&  c #042158",
"*  c #1E2454",
"=  c #142B5A",
"-  c #173657",
";  c #272757",
":  c #242B4D",
">  c #04286A",
",  c #002B77",
"<  c #113977",
"1  c #222B65",
"2  c #392469",
"3  c #262678",
"4  c #373273",
"5  c #671953",
"6  c #65255F",
"7  c #551F64",
"8  c #4E1F63",
"9  c #4A2166",
"0  c #46216B",
"q  c #5A2064",
"w  c #48316B",
"e  c #643B6C",
"r  c #164E54",
"t  c #114370",
"y  c #2B416A",
"u  c #524D5C",
"i  c #4B7942",
"p  c #4F4F6D",
"a  c #6A586F",
"s  c #4B7476",
"d  c #7F7E7C",
"f  c #666870",
"g  c #A20F3A",
"h  c #BD2135",
"j  c #CF031C",
"k  c #EB021B",
"l  c #E6031C",
"z  c #F4011B",
"x  c #FD011A",
"c  c #D80822",
"v  c #C1162B",
"b  c #E30B21",
"n  c #FB0C22",
"m  c #E6152A",
"M  c #FA1429",
"N  c #F91E30",
"B  c #D6293C",
"V  c #E52639",
"C  c #F8293B",
"Z  c #B1651C",
"A  c #86602E",
"S  c #FA2F40",
"D  c #F53746",
"F  c #A07E57",
"G  c #93527C",
"H  c #87696B",
"J  c #96736B",
"K  c #97706A",
"L  c #E9525F",
"P  c #F4515E",
"I  c #EA5B67",
"U  c #F35864",
"Y  c #F36A75",
"T  c #EE656F",
"R  c #378734",
"E  c #369534",
"W  c #3BAC37",
"Q  c #4B8838",
"!  c #40A339",
"~  c #3F8F41",
"^  c #5D9E58",
"/  c #50A34A",
"(  c #6D8268",
")  c #6EA36A",
"_  c #AE922C",
"`  c #CCB514",
"'  c #C78525",
"]  c #E8B829",
"[  c #EBD905",
"{  c #E1C30B",
"}  c #FAE601",
"|  c #FDEC00",
" . c #F5E103",
".. c #9C8358",
"X. c #BC8144",
"o. c #80846F",
"O. c #AF8270",
"+. c #82AA7E",
"@. c #DFAF5B",
"#. c #D89F72",
"$. c #E6A176",
"%. c #032C87",
"&. c #08338A",
"*. c #143987",
"=. c #012E94",
"-. c #002F9B",
";. c #0A2D92",
":. c #023394",
">. c #01319B",
",. c #0D3698",
"<. c #153C97",
"1. c #1B2B8A",
"2. c #0132A5",
"3. c #0133AC",
"4. c #0B38AC",
"5. c #0033B3",
"6. c #0335BB",
"7. c #1A4396",
"8. c #284D99",
"9. c #354E8C",
"0. c #1440AD",
"q. c #2F55AA",
"w. c #3F60A3",
"e. c #46538A",
"r. c #715881",
"t. c #5E7291",
"y. c #656E8C",
"u. c #5673AB",
"i. c #5271AF",
"p. c #687EA2",
"a. c #0338C6",
"s. c #0039D2",
"d. c #003CDE",
"f. c #0040CC",
"g. c #8F2FA7",
"h. c #8E7694",
"j. c #AB7E91",
"k. c #ED7881",
"l. c #A536C3",
"z. c #C43EE7",
"x. c #C55AE1",
"c. c #7E8C8E",
"v. c #768CB8",
"b. c #7A8FB0",
"n. c #878597",
"m. c #8E8D8A",
"M. c #B69685",
"N. c #84B180",
"B. c #8A8DA1",
"V. c #8B98B5",
"C. c #8D98A7",
"Z. c #9AA3AC",
"A. c #AAAFB0",
"S. c #ED8188",
"D. c #F38088",
"F. c #EC8C93",
"G. c #F0959A",
"H. c #EF8D93",
"J. c #D5A888",
"K. c #F4B587",
"L. c #E3B390",
"P. c #C7B1A3",
"I. c #CABBB0",
"U. c #ECA5AB",
"Y. c #F0A5AA",
"T. c #EDB7BA",
"R. c #F0B4B7",
"E. c #92C38F",
"W. c #A6C59C",
"Q. c #BAC4B9",
"!. c #BBD1B8",
"~. c #ECCCBA",
"^. c #9DABC5",
"/. c #97AAD3",
"(. c #B7BDC7",
"). c #ABB7CD",
"_. c #C7B7C3",
"`. c #D6BAC2",
"'. c #EEBFC0",
"]. c #BDC6D4",
"[. c #C6C8CC",
"{. c #D3D4D2",
"}. c #DDDCD7",
"|. c #D2D2CB",
" X c #EDC3C5",
".X c #EFCACB",
"XX c #F5C5C7",
"oX c #E8D3C7",
"OX c #F2D6D6",
"+X c #E0DBDD",
"@X c #D1E4CE",
"#X c #DAE6D8",
"$X c #E0E0DE",
"%X c #E1E9DE",
"&X c #F7E0DF",
"*X c #D2D9E4",
"=X c #DFE3EA",
"-X c #E5E5E3",
";X c #E9E9E7",
":X c #EDEDEB",
">X c #E3EAE5",
",X c #F5E9E7",
"<X c #EFF0EE",
"1X c #F3F0EE",
"2X c #F5F5F4",
"3X c #F9F9F6",
"4X c #FEFDFC",
"5X c #F8F6F5",
"6X c black",
"7X c black",
"8X c black",
"9X c black",
"0X c black",
"qX c black",
"wX c black",
"eX c black",
"rX c black",
"tX c black",
"yX c black",
"uX c black",
"iX c black",
"pX c black",
"aX c black",
"sX c black",
"dX c black",
"fX c black",
"gX c black",
"hX c black",
"jX c black",
"kX c black",
"lX c black",
"zX c black",
"xX c black",
"cX c black",
"vX c black",
"bX c black",
"nX c black",
"mX c black",
"MX c black",
"NX c black",
"BX c black",
"VX c black",
"CX c black",
"ZX c black",
"AX c black",
"SX c black",
"DX c black",
"FX c black",
"GX c black",
"HX c black",
"JX c black",
"KX c black",
"LX c black",
"PX c black",
"IX c black",
"UX c black",
/* pixels */
"                          [ [ [                       ",
"                        [ | | |  .                    ",
"                        } | }  .} [                   ",
"                        ` { _ _ _ `                   ",
"                        _ ` H J ..                    ",
"                    l.6 Z ] L.K.@.A                   ",
"                    z.g.o ' K.K.X.H                   ",
"                      x.f Q F J o.}.                  ",
"                    P.U.j.~ r *.A.:X3X                ",
"                  <X~.$.#.u < 8.v.^.b.t.              ",
"                2X4X,XoXM.u y &.>.*.2.a.              ",
"                3X4X2X2X{.t.y = , *.3.f.              ",
"                /.4X2X;X4X}.i ( Z.V.v.                ",
"              6.0.C.-X;X4X>XQ N.4X4X3X                ",
"            a.s.5.& Z.2X4X%XO ) 2X4X3X                ",
"            a.>.> . m.4X4X#XO ^ :X3X3X                ",
"          s.a.< = X o.4X4X#XR / >X1X4X                ",
"            <.0.3.. d 4X4X@X! Q #X;X5X                ",
"              s.3.& Z.2X4X|.R R @X;X-X                ",
"              s.a.,.8.n.~.Q.+ R !.2X{.                ",
"                ,.*.<.M.L.W.E R W.4X#X                ",
"                  i.9.J.P.+.W W E.4X3X{.              ",
"                  2X].oXI.t.t r s 2X4X:X-X            ",
"                2X4X4X:X-Xu.=.%.*.*X4X4X2X2X2X        ",
"                4X4X4X-X:Xw.-.2.:.^.4X4X3X2X4X3X      ",
"              5X4X4X3X2X-X8.2.5.> p.4X4X4X3X4X1XL     ",
"              4X4X4X4X4X).:.5.%.> 8.-X4X3X.XOX,XI     ",
"            3X4X4X4X4X4X^.q.q.> , :.).4X4XG.Y.H.F.m   ",
"            4X4X4X4X4X3X[.[.Z.: > -.u.3X4XY.T.U I B   ",
"          5X4X4X4X4X4X-Xf f w # >.2.7.*X&XOX'.P D h j ",
"          1X3X4X4X4XXX+X(.(.r.3 3.3.=.b.XXH.S.F.D.V v ",
"        Y.H.T.OX4X5XOXV.7.7.2 3 3.3.-.e. XS C R.D.x b ",
"      b S G.T R. X X,Xu.=.;.9 2 3.5.2.4 _.k.C Y C x l ",
"      M S Y D k.U S.`.8.3.1.7 0 3.6.3.2 h.{.U S M x b ",
"    l C C P C k.D I j.0.2.3 7 0 4.a.>.@ e _.I C n x l ",
"    z M n Y Y.P n N G , $ ; 7 9 ;.=.$ @ q G V M x x k ",
"  k x x n M C x x x q 3.%.0 7 9 %.3.;.0 7 5 c x x x k ",
"  z x x n x x x x k 2 a.a.0 7 0 6.d.a.0 7 7 g x x x   ",
"k x x x x x x x x c = :.&.9 7 8 - t 7.        k x z   ",
"  l z x x x x x x c c.c.        Z.A.Q.          z     ",
"        c k z z z m :X:X          :X$X                ",
"                    1X:X          1X$X                ",
"                    B.B.          n.y.                ",
"                    * *           % %                 ",
"                    * *           * *                 ",
"                  * * ;           ; * *               ",
"                  u ;             1 1 p J K           ",
"                K O.a                   a             "
};
