/* XPM */
static char *_85c59152a4d4ccce0fc19c7cea1f04a3LQ5iPqnxZn6qCxt_5[] = {
/* columns rows colors chars-per-pixel */
"49 55 256 2 ",
"   c None",
".  c #151519",
"X  c #1D1F2A",
"o  c #0A2A3A",
"O  c #1E243C",
"+  c #143134",
"@  c #2C3438",
"#  c #624F19",
"$  c #69562C",
"%  c #0D2D4C",
"&  c #0C3249",
"*  c #153546",
"=  c #143659",
"-  c #0E2D5A",
";  c #242A55",
":  c #303656",
">  c #043374",
",  c #07397B",
"<  c #0E376B",
"1  c #2F3766",
"2  c #284965",
"3  c #554E54",
"4  c #775C59",
"5  c #6A5B5B",
"6  c #736B49",
"7  c #4D556B",
"8  c #645963",
"9  c #536771",
"0  c #72666A",
"q  c #6F6971",
"w  c #DA0506",
"e  c #E50304",
"r  c #ED0303",
"t  c #E90807",
"y  c #F30303",
"u  c #FC0D0C",
"i  c #F60A09",
"p  c #FC110E",
"a  c #F1120F",
"s  c #EB1815",
"d  c #F61512",
"f  c #FA1412",
"g  c #F31815",
"h  c #F71B1A",
"j  c #F7201F",
"k  c #D72928",
"l  c #C73231",
"z  c #D32A29",
"x  c #F52D2B",
"c  c #F82B29",
"v  c #E63A37",
"b  c #F43937",
"n  c #ED2B2B",
"m  c #907532",
"M  c #AD7C2C",
"N  c #F4423F",
"B  c #956C50",
"V  c #BF7D5A",
"C  c #82676D",
"Z  c #D44E4B",
"A  c #F24946",
"S  c #F1504E",
"D  c #F35654",
"F  c #ED524F",
"G  c #E6635E",
"H  c #F1625E",
"J  c #C86A64",
"K  c #D36E69",
"L  c #D96D6A",
"P  c #CD7772",
"I  c #EC6E6A",
"U  c #E96965",
"Y  c #F26864",
"T  c #ED7C78",
"R  c #F27874",
"E  c #E9706B",
"W  c #9F9C23",
"Q  c #B49C25",
"!  c #9E9119",
"~  c #F2DA19",
"^  c #EDD30D",
"/  c #FAE503",
"(  c #FEEB02",
")  c #F9E507",
"_  c #FDEC10",
"`  c #DFC33F",
"'  c #E7D22C",
"]  c #D7C610",
"[  c #93827D",
"{  c #8D8A6D",
"}  c #B68776",
"|  c #A4A161",
" . c #C8865F",
".. c #D4B04B",
"X. c #D7837D",
"o. c #D39671",
"O. c #ED827E",
"+. c #F1827D",
"@. c #E49F78",
"#. c #C8A76D",
"$. c #DEA77E",
"%. c #E8A37A",
"&. c #E0C559",
"*. c #DEC768",
"=. c #E9D462",
"-. c #043A87",
";. c #023D94",
":. c #023E9B",
">. c #083F99",
",. c #153D80",
"<. c #003FA0",
"1. c #0B4599",
"2. c #13469B",
"3. c #1C4483",
"4. c #2A569D",
"5. c #0240A4",
"6. c #0644A7",
"7. c #0145BA",
"8. c #0D49B4",
"9. c #0154BD",
"0. c #1754B8",
"q. c #134AA0",
"w. c #2756A7",
"e. c #727284",
"r. c #416FBD",
"t. c #6B7FA0",
"y. c #014ACB",
"u. c #0349C3",
"i. c #0C55D0",
"p. c #0056E4",
"a. c #847A82",
"s. c #758AA8",
"d. c #918080",
"f. c #A88E86",
"g. c #AD978E",
"h. c #B49E99",
"j. c #AC968F",
"k. c #BBA39B",
"l. c #969CA5",
"z. c #9FA3AC",
"x. c #BAB6B7",
"c. c #B4ADAB",
"v. c #C0948B",
"b. c #C39D94",
"n. c #D98D87",
"m. c #EA8480",
"M. c #EC8A85",
"N. c #EA8E8A",
"B. c #E68A86",
"V. c #F28E89",
"C. c #EB928D",
"Z. c #F2918D",
"A. c #EC9691",
"S. c #EB9B96",
"D. c #E69A95",
"F. c #F39A95",
"G. c #F49D99",
"H. c #F29792",
"J. c #CFA789",
"K. c #DCA786",
"L. c #C5A097",
"P. c #C5A39A",
"I. c #C9A49B",
"U. c #C7A599",
"Y. c #D8B69A",
"T. c #EBB38C",
"R. c #F2B58B",
"E. c #EBA29D",
"W. c #F2A39E",
"Q. c #E9AA83",
"!. c #C6ABA2",
"~. c #CBAEA4",
"^. c #CDB3AA",
"/. c #D2B5AC",
"(. c #D3B6AA",
"). c #C8B9B6",
"_. c #D5BBB3",
"`. c #DABCB4",
"'. c #DAA8A1",
"]. c #EBA6A0",
"[. c #ECABA5",
"{. c #E8AEA8",
"}. c #F2ABA6",
"|. c #ECB4AE",
" X c #E4B4AE",
".X c #F1B2AC",
"XX c #EDB6B0",
"oX c #EBBBB5",
"OX c #E7BCB6",
"+X c #F1BBB6",
"@X c #F0BFB9",
"#X c #D5C08D",
"$X c #F4C79A",
"%X c #DBC4BC",
"&X c #DBC7BA",
"*X c #D3C7B6",
"=X c #ECC3BD",
"-X c #E5C3BC",
";X c #E8CAB0",
":X c #AAAFC2",
">X c #DDCBC3",
",X c #DACAC4",
"<X c #D4CDCF",
"1X c #ECC6C0",
"2X c #E2CDC5",
"3X c #EECBC5",
"4X c #E8CFC8",
"5X c #F0CBC4",
"6X c #F1CFC9",
"7X c #F1C6C0",
"8X c #E4D3CC",
"9X c #ECD3CC",
"0X c #E5D6C5",
"qX c #F0D3CC",
"wX c #E6D7D0",
"eX c #E6D8D2",
"rX c #EBDBD4",
"tX c #EDDFD8",
"yX c #EED7D0",
"uX c #F1DAD4",
"iX c #F0DCD5",
"pX c #EFE1DA",
"aX c #F2E4DD",
"sX c #F2E5E0",
"dX c #F7E9E3",
"fX c black",
"gX c black",
"hX c black",
"jX c black",
"kX c black",
"lX c black",
"zX c black",
"xX c black",
"cX c black",
"vX c black",
"bX c black",
"nX c black",
"mX c black",
"MX c black",
"NX c black",
"BX c black",
"VX c black",
"CX c black",
"ZX c black",
"AX c black",
"SX c black",
"DX c black",
"FX c black",
"GX c black",
"HX c black",
"JX c black",
"KX c black",
"LX c black",
"PX c black",
"IX c black",
"UX c black",
/* pixels */
"  g f d g f                                                                                       ",
"s d f f f f p f                                             g f g g f g                           ",
"  g f f p p p p d                                     g f f p p p f p f g                         ",
"  g f p u u u u p i t e e                         g p p p p u u u u p p p g                       ",
"  g f p p d u f u u y y y r r y r a g g g g g f p p u u u u u u u u u u p p g                     ",
"  s d p b H A R b h d e r r e e t p p p p p p u u u u u u u u u u u u u u p p p                   ",
"    A S R H.R W.C.O.Y s w e e e e u u u u u u u u u u u u u d j u u u u u u u u p f               ",
"    A O.F.G.F.+XiX9XA.U Z Z z w w u h d u u d d u u c S x u H T b j u f x f u u u p f             ",
"    G T G.G.G.6XaXaX5X].X.L L l w h +.Y u u b N u S Z.G.+.n I C.F.Z.N b D x x u u u u i           ",
"    D..X.X.X}.3XaXaX=XOXB.K L J k x A.XXS d I H h [.}.O.F.V.V.C.3X=XH.M.[.M.M.c A Y b r r t       ",
"      oX6XuX5X1XaXtX1X-Xn.K K J Z N.|.9X9XM.oXC.D H.[.G.G.W..X XpXqX}.3XuXqX.XO.V.R n e e i       ",
"      OX9XaXaXaXaXaXaX8X'.K K J C.}.@XuXqXoXoXM.T 5XtX+X.X6XaXrXpXqXXXaXaX6XuXuXI i e w r u f     ",
"      8XaXaXaXaXaXaXaXrX`.P J P E.6XaX9XXX3X[.m.A..X9X6X6XpXaXpXrX=X5XaXaXtXaX6XU r z k u f f f g ",
"      %XaXsXaXaXaXaXaXtX%XL.v.I.OXaXaXyX|.3XC.m.=XiXaXaX9XpXsXaXeX9XaXsXaXtX7X}.B.k l v j b d f g ",
"        pXsXaXaXaXaXaXpX%XI.b./.rXaXaXtXOXoXm.U oXsXaXsXaXpXaXsXaXrXaXsXaX+XF.F.n.J X.S D O.g g   ",
"        rXsXaXaXaXaXaXaX2Xb.b._.tXaXsX9XD.=XO.N.1XaXaXsXsXaXaXsXsXaXrXaXaX+XG.S.'./.{.I E.O.s     ",
"        8XsXaXaXaXaXaXaX9Xb.v._.tXaXaX1X=XaX|.XXaXaXaXsXsXaXpXsXsXsXpX8XrXaX|. X2X`.1XqXO.v       ",
"        2XaXaXaXaXaXaXaXrXL.b.%XaXaXaXoXS.6XS.E.tXaXaXsXsXaXpXaXaXsXpXrX8XyX=X2X2X9XsXqXG         ",
"          pXsXaXaXaXaXaXrXU.I.%XaXaXaX9X].N.m.3XaXaXaXsXsXsXpXaXsXaXrXpXrXtXrXrXrXaXsX9X          ",
"          rXsXaXaXaXaXaXrX~.b.%XaXaXaXyXOXD.A.=XaXaXaXaXsXsXaXpXaXtXrXaXtXpXrXtXpXsXyX            ",
"          2XsXaXaXaXaXaXtX/.b.>XaXaXaX|.[.E.].oXaXrX8XaXaXaXaXaXrXrXaXaXpXrXtXaXsXtX              ",
"          _.aXsXpXtXaXaXaX~.L.2XaXaXaX3XqX1X6XiXaXaX%X%XaXaXaXaX>X8XaXaXaXrXtXaXaX2X              ",
"            rXsXtX8XaXaXaX^.I.2XaXaXaXuXE.C.S.iXaXaXtX_.rXaXaXaX`.8XpXaXaXrXpXsXrX                ",
"            >XsXtX2XaXaXaX_.L.8XaXaXaX[.T S.C.iXaXaXaX2X>XaXaXtX_.tXtXaXaXtXaXtX                  ",
"              pXtX%XpXsXaX_.b.8XaXaXaXS.T A.C.uXpXrXaXrX%XaXaXrX%XaXaXtXaXaXrX%X             .    ",
"              rXpX_.rXaXaX>Xh.8XaXaXaXM.T N.S.uXaXtX8XtX%XtXaX8X>XaXaXaXtX9X_.            Q.@.    ",
"              8XpX_.8XaXaX8Xb.2XtXaXyXN.].|.{.aXaXaXrXrX2XrXtX2X8XaXaXaX2X/.        6.w.Y.$X%.    ",
"                eX_.>XaXaXyXL._.tXaX9XS.A.=XD.tXaXaXaXrXrXrXrX%XrXaXaX8X/.        2.0.i.k.R.      ",
"                  `.%XsXaXtXI.!.pXaXaXOXN.=XOXpXaXaXaXtXrXtX8X%XaXaX8X_.    >.2.7.y.0.2.}         ",
"                  ^._.pXaXaX~.^.aXaXtX9X=X=X=XyXrXrXrXaXrXtX>X8XtX2X/.    <.7.i.i.u.=             ",
"                    ~.rXsXaX^.,XaXeX1Xm.C.[.E E.pXrX8XpXrXrX,X8X%X~.g., ;.7.y.2.< =               ",
"                    k.,XaXaX~.%X8XtXN.E U M.T m.tXaXtXeXrX>X/.~._.h.,.:.7.y.1.*                   ",
"                      !.8XtXP.^.rXaX=X=X^.9XqX6XaXaXaXrX,X!.L.!.tX<Xq.u.;.> *                     ",
"                        ^.2Xk.8XsXtXwXeXe.z.<Xl.8XpXaXpX,X!.^.8XsXtXr.<.&                         ",
"                        f.~._.pXtX&X#X;X6 7 9 9 ,X8XtXeX8XwXwXaXsXsXs.&                           ",
"                          P.8XpX^.!.' ~ ] ! W | $X,XtXtXeXtXaXsXsXaXc.                            ",
"                          k.8XtXU.#.~ ( / / ) ) =.&XpXrXtXaXaXtX2X8X                              ",
"                          >XrX%X(.../ ( ( ( ( ( ~ *.0XrXpXaXpX_.~.~.                              ",
"                          8XrXwXY.' ) _ _ ( ( _ ) ` ;X2XpXaX_.[ q                                 ",
"                          ).%X&X*.^ ~ ' ) / ^ ~ ~ &.8X%X2X/.8 < -.>.                              ",
"                        t.eXtX#...M $ { Q Q ! # M ..J.h.[ 7 > -.:.;.                              ",
"                      3.:XdXrX&X^.f.4 a.8 q m $ 8 k.3 @ o -.;.<.5.,                               ",
"                      4.<XdXsXsX~.k.0 o.K.K.J.6 0 j.    % , 5.7.7.6.                              ",
"                      4.c.).wXsX^.5 3 B T.T.T.            > u.y.y.-.                              ",
"                    6.;.= = 2 e.j.@ @   $.K.              % -.:., *                               ",
"                  -.5.5.;.;.-.> O . .                       @ 2 9                                 ",
"                8.7.7.7.5.6.2.:.> O X       B B               x.*X                                ",
"                  p.p.p.;.q.i.y.0.2.;., e.T.o. .              c.x.                                ",
"                  1.9.9.- o , 6.w.u.5.,.b.$XR.@.              : 1                                 ",
"                    * & o +     = , -.< g.T.R.%.              O O                                 ",
"                                      * 3 4 B V               ; ; 1                               ",
"                                      4 d.8 q 5               ; ; 1                               ",
"                                          q                   1 7 e.C                             ",
"                                          j.                    } } B                             ",
"                                          g.                      3                               "
};
