/* XPM */
static char *_85c59152a4d4ccce0fc19c7cea1f04a3LQ5iPqnxZn6qCxt_6[] = {
/* columns rows colors chars-per-pixel */
"49 55 256 2 ",
"   c None",
".  c #151519",
"X  c #1C1F32",
"o  c #0A2A39",
"O  c #1E263C",
"+  c #1A3539",
"@  c #313336",
"#  c #665426",
"$  c #0D2D4C",
"%  c #0C3249",
"&  c #153546",
"*  c #143659",
"=  c #142B5A",
"-  c #2C3255",
";  c #033374",
":  c #05387B",
">  c #0E376B",
",  c #2F3767",
"<  c #284965",
"1  c #5C5754",
"2  c #4F4554",
"3  c #765C59",
"4  c #6A5B5B",
"5  c #736B49",
"6  c #4D556B",
"7  c #635862",
"8  c #4C6271",
"9  c #766869",
"0  c #7B6E74",
"q  c #62686E",
"w  c #DC0909",
"e  c #D51515",
"r  c #E50304",
"t  c #EC0203",
"y  c #E60708",
"u  c #FD0D0C",
"i  c #F40808",
"p  c #FC110E",
"a  c #F3110F",
"s  c #ED1A16",
"d  c #E71817",
"f  c #F51613",
"g  c #FA1311",
"h  c #F31815",
"j  c #F81B19",
"k  c #EA0F10",
"l  c #F9211F",
"z  c #D92E2D",
"x  c #C23330",
"c  c #F72A29",
"v  c #E83B38",
"b  c #F43937",
"n  c #ED2423",
"m  c #816D3E",
"M  c #A77E29",
"N  c #F4403D",
"B  c #956C50",
"V  c #BF7C5B",
"C  c #856473",
"Z  c #D55351",
"A  c #D54543",
"S  c #F34543",
"D  c #F24C4A",
"F  c #E85D59",
"G  c #F35856",
"H  c #F0514F",
"J  c #C6625C",
"K  c #D0625E",
"L  c #EB615D",
"P  c #C76B65",
"I  c #D86562",
"U  c #CE7974",
"Y  c #EA6C68",
"T  c #F26764",
"R  c #E8706C",
"E  c #EC7975",
"W  c #F27A76",
"Q  c #9F9C23",
"!  c #B49C25",
"~  c #9E9218",
"^  c #F2DA18",
"/  c #EDD20D",
"(  c #FAE403",
")  c #FEEB02",
"_  c #F9E508",
"`  c #FCEB13",
"'  c #E6CF30",
"]  c #D7C610",
"[  c #93827D",
"{  c #8D8A6C",
"}  c #B68875",
"|  c #A4A060",
" . c #C8865F",
".. c #D4B04A",
"X. c #D19076",
"o. c #ED817D",
"O. c #E6807C",
"+. c #F1827E",
"@. c #E49F78",
"#. c #C9A86D",
"$. c #DFA67E",
"%. c #E8A27A",
"&. c #E1C558",
"*. c #DEC668",
"=. c #E9D462",
"-. c #043A87",
";. c #023D95",
":. c #023E9C",
">. c #083E93",
",. c #003FA0",
"<. c #194282",
"1. c #0B4599",
"2. c #13479B",
"3. c #29569D",
"4. c #0340A4",
"5. c #0142AA",
"6. c #0944A3",
"7. c #0145BA",
"8. c #0D48B4",
"9. c #0153BD",
"0. c #1754B8",
"q. c #134AA0",
"w. c #2656A7",
"e. c #707489",
"r. c #416FBD",
"t. c #014ACB",
"y. c #0349C3",
"u. c #0D55D0",
"i. c #0056E4",
"p. c #847A82",
"a. c #758AA8",
"s. c #918080",
"d. c #A88E86",
"f. c #AC9A8E",
"g. c #B3938A",
"h. c #B39E99",
"j. c #A89892",
"k. c #BDA49D",
"l. c #AFA196",
"z. c #969CA5",
"x. c #9FA3AC",
"c. c #B4AEB2",
"v. c #B7B2B0",
"b. c #C99C8B",
"n. c #C39D94",
"m. c #D68782",
"M. c #EA8681",
"N. c #EC8A85",
"B. c #E78D88",
"V. c #F58D89",
"C. c #F38883",
"Z. c #EB918C",
"A. c #F3918D",
"S. c #EA9A95",
"D. c #EC9E99",
"F. c #E99A95",
"G. c #F29B97",
"H. c #DBA785",
"J. c #C5A299",
"K. c #C9A39A",
"L. c #C4A398",
"P. c #D8B69A",
"I. c #D5A994",
"U. c #EBB38C",
"Y. c #F2B58B",
"T. c #ECA39D",
"R. c #EEA690",
"E. c #C6ABA2",
"W. c #CBADA4",
"Q. c #CDAFA8",
"!. c #DAA9A2",
"~. c #CDB3AA",
"^. c #D1B4AB",
"/. c #D2B6AC",
"(. c #C6B9B6",
"). c #D5BBB3",
"_. c #D9BCB4",
"`. c #EDAAA4",
"'. c #EBAAA5",
"]. c #F1A9A4",
"[. c #ECB3AD",
"{. c #E6B4AD",
"}. c #ECB6B0",
"|. c #EDBAB4",
" X c #ECBFB9",
".X c #E6BBB5",
"XX c #F0B9B3",
"oX c #F1BAB4",
"OX c #F1B2AD",
"+X c #D5C08E",
"@X c #FCC299",
"#X c #E3D19D",
"$X c #DAC4BC",
"%X c #DCC7BA",
"&X c #D4C7B6",
"*X c #ECC3BD",
"=X c #E4C4BD",
"-X c #E8C7AE",
";X c #A9AFC2",
":X c #DCC7C0",
">X c #DDCAC3",
",X c #DACEC9",
"<X c #D4CDCF",
"1X c #E2CDC5",
"2X c #EECCC6",
"3X c #EACBC5",
"4X c #F1CEC7",
"5X c #E4D3CC",
"6X c #EDD4CC",
"7X c #E5D6C5",
"8X c #F0D4CD",
"9X c #E6D7D0",
"0X c #ECD7D0",
"qX c #E6D8D2",
"wX c #EBDCD5",
"eX c #EDDFD8",
"rX c #F0DBD4",
"tX c #F1DFD8",
"yX c #EFE1DA",
"uX c #F2E4DE",
"iX c #F2E5E0",
"pX c #F7E9E3",
"aX c black",
"sX c black",
"dX c black",
"fX c black",
"gX c black",
"hX c black",
"jX c black",
"kX c black",
"lX c black",
"zX c black",
"xX c black",
"cX c black",
"vX c black",
"bX c black",
"nX c black",
"mX c black",
"MX c black",
"NX c black",
"BX c black",
"VX c black",
"CX c black",
"ZX c black",
"AX c black",
"SX c black",
"DX c black",
"FX c black",
"GX c black",
"HX c black",
"JX c black",
"KX c black",
"LX c black",
"PX c black",
"IX c black",
"UX c black",
/* pixels */
"  f f   s f                                                                                       ",
"s f g g g g g g                                             h g f f g h                           ",
"  h g g p p p p f                                     f g g p p p g p g f                         ",
"  f g p u u u u p i                               f g p p p u p u u p p p f                       ",
"  h g u j n g g u u i t t t t t t a f f f f f f p p u u u u u u u u u u p g                       ",
"  s j g D T D W b j f r t t r y t p p p p p p u u u u u u u u u u u u u u p p g                   ",
"    S G W V.W G.Z.o.T d e w y r y u u u u u u u u u u u u u j b u u u u u u u u p                 ",
"    v E V.V.V.XXeX0XT.Y Z Z A w w u j j u u g g u u c G N u G +.S c u g c g u u u p g             ",
"    Y C.A.V.A.4XuXuX2XF.E I I A w j W T u u b S u D C.V.C.S F C.A.V.S b G b c u u p p i           ",
"    B.|.OXOXT.*XuXtX|.{.E I I J z b S.}.H h R L j `.`.E V.C.C.N.2X*XV.D.].N.+.c b T S t t         ",
"      }.6XuX8X2XuXuX2X=Xm.I I J F Z.[.4X6XN.|.Z.G ]. XG.V.G.OX{.eX8XD.8XtX8X].N.+.T n r t i       ",
"      *X6XuXuXuXuXuXuX5X!.P K J N.G.XX8X2X[.|.o.E *X0X XOX6XuXwXwX8X`.tXuX4X6XrXW a t w t p f     ",
"      5XiXiXuXuXuXuXuXwX).X.P U F.4XuX8X|.6X`.B.S.].2X8X*XyXuXuX0X X2XuXuXeXuX4XE k e z u g g f   ",
"      :XuXuXuXuXuXuXuXeX_.K.n.Q.=XuXuXrX}.2XT.N.*XuXuXuX0XeXuXiXeX6XuXiXuXrXoXG.B.A x v l b j g h ",
"      ).yXiXuXuXuXuXuXuX$XK.n.).wXuXuXrX}.|.M.R [.iXuXiXiXyXuXiXuXeXeXiXuXoXV.V.m.U X.H G o.f h s ",
"        0XiXuXuXuXuXuXuX1Xn.n.).eXiXiX2XF.2XZ.'.6XuXuXiXiXyXyXiXiXuXeXeXuX2XG.Z.!./.'.R T.M.s     ",
"        5XiXuXuXuXuXuXuX0Xn.n.).eXuXuX*X*XrX[.'.uXuXuXiXiXuXyXiXiXiXuX5X9XuX|.!.1X).*X4Xo.v       ",
"        >XiXuXuXuXuXuXuXwXK.K._.uXuXuX*XB. XM.'.uXuXuXiXiXiXyXuXiXiXyXwXwX6X*X=X5X0XiX8XL         ",
"          uXiXuXuXuXuXuX0XW.J.$XuXuXuX6X[.O.M.*XuXuXuXiXiXiXuXyXiXuXwXuXeXeXwX5X0XuXiX6X          ",
"          wXiXuXuXuXuXuX0XW.n.$XuXuXuX6X{.F.N.}.uXyXuXuXuXiXiXyXyXeXeXuXyXeX0X0XuXiXwX            ",
"          1XiXuXuXuXuXuXeX^.n.$XuXuXuX[.[.'.|.*XuXeX1XeXuXuXuXuX5X5XuXuXuXwX0XuXiXeX              ",
"          ).uXiXyXeXuXuXuXQ.J.1XuXuXuX2X2X*X*XuXuXuX5X$XeXuXuXuX>X5XuXuXuXwXeXuXuX1X              ",
"            wXiXeX9XuXuXuX~.K.1XuXuXuX8XF.M.T.rXuXuXuX$X5XuXuXuX$X5XeXuXuXeXyXiXwX                ",
"            >XiXeX1XuXuXuX).J.5XuXuXuX].o.D.B.rXuXuXuX5X:XuXuXeX_.wXyXeXuXyXuXwX                  ",
"              yXeX$XyXuXuX).n.5XuXuXuXG.o.S.Z.8XuX6XeXeX:XuXuX0X$XuXuXeXuXuX0X).             .    ",
"              wXyX).wXuXuX1Xn.5XuXuXuXo.E Z.D.rXuXeX5XeX1XeXuX5X>XuXuXuXwX5X).            U.@.    ",
"                eX).5XuXuX5Xn.1XeXuX6XN.T.[.'.uXuXuXwX0X9XwXeX1X5XuXuXuX1X^.        6.w.P.@X%.    ",
"                0X).>XuXuX0XJ.).eXuX6XD.S. XF.eXuXuXuX5X0X0X0X$XeXuXuX5X/.        2.0.u.k.Y.      ",
"                  ).$XuXuXeXK.E.yXuXuX*XB.*X.XeXyXuXuXeX0XwX5X$XuXuX1X).    ,.2.7.t.0.1.}         ",
"                  ~./.yXuXuXW./.uXuXeX6X*X*X*X0X9X0XeXuX0XeX>X5XyX1X).    ,.7.u.u.y.*             ",
"                    W.wXiXuX~.:XuX9X3XM.Z.'.R T.yXwX5XyXwXeX:X5X$XQ.g.  ;.7.t.2.> *               ",
"                    L.:XuXuXW.$X5XwXB.R Y N.E M.eXuXeX9X0X>X/.W.).h.-.:.7.t.1.&                   ",
"                      E.5XeXL.~.wXuX*X*X~.6X8X2XyXuXuXwX,XW.n.E.eX<Xq.y.;.; &                     ",
"                        ~.1Xk.5XiXeX5X9Xe.x.<Xz.5XyXuXyX:XE.~.5XiXeXr.,.%                         ",
"                        d.W.).uXeX%X+X#X5 6 q 8 ,X5XeX9X5X9X9XuXiXiXa.%                           ",
"                          L.5XyX~.W.' ^ ] ~ Q | #X,XeXeX9XeXuXiXiXuXv.                            ",
"                          k.5XeXL.#.^ ) ( ( _ _ =.%XyX0XeXuXuXyX1X5X                              ",
"                          ,XwX$X/...( ) ) ) ) ) ^ *.7X0XyXuXyX).W.W.                              ",
"                          5X0X9XP.' _ ` ) ) ) ) _ ' -X1XuXuX).[ q                                 ",
"                          (.$X%X*./ ^ ' _ ( / ^ ^ &.7X$X1X/.q > -.:.                              ",
"                        e.qXeX#...M # { ! ! ~ # M ..I.h.[ 6 ; ;.:.>.                              ",
"                      <.;XpX9X%X~.d.3 p.7 9 m # 7 l.1 @ o -.;.,.5.:                               ",
"                      3.<XpXiXiXW.k.9 X.H.H.b.5 9 f.    $ : 5.7.7.6.                              ",
"                      3.c.(.9XiX~.4 1 B U.U.U.            ; y.t.t.-.                              ",
"                    6.>.* * < e.j.@ @   $.H.              $ -.;.: &                               ",
"                  >.4.5.;.;.-.; O . .                       + < 8                                 ",
"                8.7.7.7.5.5.2.:.; O X       B B               (.&X                                ",
"                  i.i.i.;.2.u.t.0.2.>.: e.U.@. .              c.v.                                ",
"                  1.9.9.* o : 5.w.y.5.-.n.@XY.@.              - ,                                 ",
"                    & % o +     * : -.> g.U.Y.%.              O O                                 ",
"                                      & 2 3 B V               - = -                               ",
"                                      3 s.7 0 4               - = ,                               ",
"                                          0                   , 7 e.C                             ",
"                                          j.                    } } B                             ",
"                                          f.                      2                               "
};
