/* XPM */
static char *a14845f8d5f54c18c028184ca07f2d9ayZiK78Nptt2H9CvL_18[] = {
/* columns rows colors chars-per-pixel */
"27 48 256 2 ",
"   c None",
".  c #040B17",
"X  c #040505",
"o  c #6D3F25",
"O  c #3B7838",
"+  c #2E6D2F",
"@  c #2F1F53",
"#  c #012448",
"$  c #1C214F",
"%  c #042258",
"&  c #1E2453",
"*  c #112C5A",
"=  c #173657",
"-  c #252757",
";  c #302755",
":  c #042869",
">  c #002B77",
",  c #113977",
"<  c #262966",
"1  c #3C256D",
"2  c #262678",
"3  c #3D3879",
"4  c #661B53",
"5  c #65255E",
"6  c #551E63",
"7  c #4E1F63",
"8  c #4A2065",
"9  c #4A216D",
"0  c #432168",
"q  c #592366",
"w  c #45326F",
"e  c #653267",
"r  c #164E54",
"t  c #114370",
"y  c #2B426A",
"u  c #524D5C",
"i  c #4B7941",
"p  c #4E4F6D",
"a  c #735B64",
"s  c #6D4B72",
"d  c #436E70",
"f  c #707175",
"g  c #B4051D",
"h  c #AB0F37",
"j  c #C8051C",
"k  c #EC021B",
"l  c #E5041B",
"z  c #FC0015",
"x  c #F5011A",
"c  c #FD001A",
"v  c #DA0923",
"b  c #CA0C23",
"n  c #EC162A",
"m  c #F8172B",
"M  c #FA1128",
"N  c #F62738",
"B  c #EC2A3D",
"V  c #B1651C",
"C  c #87602E",
"Z  c #833B63",
"A  c #CC3747",
"S  c #F43848",
"D  c #E53748",
"F  c #A17E57",
"G  c #88696B",
"H  c #96736B",
"J  c #9B736B",
"K  c #ED4A59",
"L  c #F34E5B",
"P  c #F64855",
"I  c #EA5863",
"U  c #F05660",
"Y  c #EC6C75",
"T  c #F16A73",
"R  c #368734",
"E  c #369534",
"W  c #3BAC38",
"Q  c #4B8838",
"!  c #40A339",
"~  c #3F8F41",
"^  c #5D9E58",
"/  c #50A34A",
"(  c #768172",
")  c #6EA36A",
"_  c #7DC078",
"`  c #B59E2C",
"'  c #A7882A",
"]  c #D1BE0E",
"[  c #C4A51F",
"{  c #C78525",
"}  c #E7B829",
"|  c #E9D706",
" . c #F3DF03",
".. c #E0C20B",
"X. c #F9E501",
"o. c #FCEB00",
"O. c #F3E203",
"+. c #9C8458",
"@. c #BC8144",
"#. c #80846E",
"$. c #AF8270",
"%. c #83AE7F",
"&. c #DFAF5B",
"*. c #D89F72",
"=. c #E5A075",
"-. c #032C87",
";. c #093388",
":. c #12368A",
">. c #163C83",
",. c #012E94",
"<. c #012F9B",
"1. c #0B2D92",
"2. c #033393",
"3. c #00319B",
"4. c #0F3793",
"5. c #153D97",
"6. c #1B2B8A",
"7. c #0133A5",
"8. c #0133AC",
"9. c #0A37A9",
"0. c #0033B3",
"q. c #0335BB",
"w. c #1B4496",
"e. c #284D9A",
"r. c #354E8C",
"t. c #1440AD",
"y. c #3459AF",
"u. c #3F61A3",
"i. c #4C548C",
"p. c #715881",
"a. c #5E7291",
"s. c #677999",
"d. c #636783",
"f. c #526FAC",
"g. c #0338C7",
"h. c #0038D2",
"j. c #003CDE",
"k. c #0040CC",
"l. c #8F2FA6",
"z. c #864A82",
"x. c #A67A8B",
"c. c #B37C93",
"v. c #EA7B84",
"b. c #F17982",
"n. c #A536C3",
"m. c #C43EE6",
"M. c #C65AE1",
"N. c #7D8F92",
"B. c #768CB4",
"V. c #878597",
"C. c #8A8F8F",
"Z. c #B69585",
"A. c #B4819C",
"S. c #95BA93",
"D. c #8A8DA1",
"F. c #8898B9",
"G. c #8D98A7",
"H. c #9BA3AC",
"J. c #AAAFB0",
"K. c #DF9A9F",
"L. c #ED949B",
"P. c #EF8E95",
"I. c #D5A788",
"U. c #F4B587",
"Y. c #E3B390",
"T. c #F09CA1",
"R. c #C7B1A3",
"E. c #CFB6B5",
"W. c #EBA6AB",
"Q. c #E9B7BC",
"!. c #F6B5B9",
"~. c #F2AAAF",
"^. c #A6C59C",
"/. c #B8C8B6",
"(. c #ECCCBA",
"). c #9BAACC",
"_. c #A3B1CA",
"`. c #B7BDC7",
"'. c #F1BCC0",
"]. c #BBC4D4",
"[. c #C5C7C9",
"{. c #D4D5D3",
"}. c #DDDCD7",
"|. c #C9D2D1",
" X c #EDCCC6",
".X c #F4CACC",
"XX c #F7C7C9",
"oX c #F4D1D2",
"OX c #FAD6D7",
"+X c #E4D6CD",
"@X c #DAE6D8",
"#X c #D1E3CE",
"$X c #E1E1DE",
"%X c #E1E9DE",
"&X c #CFD6E3",
"*X c #FCDFE0",
"=X c #E3E4E3",
"-X c #E8E8E6",
";X c #ECEDEB",
":X c #E2E8E6",
">X c #FBE3E3",
",X c #FBECEB",
"<X c #F4E6E3",
"1X c #F1F1EE",
"2X c #F8F0EF",
"3X c #F4F5F4",
"4X c #FBF5F3",
"5X c #F9F9F6",
"6X c #FEFEFC",
"7X c #EEF0EF",
"8X c black",
"9X c black",
"0X c black",
"qX c black",
"wX c black",
"eX c black",
"rX c black",
"tX c black",
"yX c black",
"uX c black",
"iX c black",
"pX c black",
"aX c black",
"sX c black",
"dX c black",
"fX c black",
"gX c black",
"hX c black",
"jX c black",
"kX c black",
"lX c black",
"zX c black",
"xX c black",
"cX c black",
"vX c black",
"bX c black",
"nX c black",
"mX c black",
"MX c black",
"NX c black",
"BX c black",
"VX c black",
"CX c black",
"ZX c black",
"AX c black",
"SX c black",
"DX c black",
"FX c black",
"GX c black",
"HX c black",
"JX c black",
"KX c black",
"LX c black",
"PX c black",
"IX c black",
"UX c black",
/* pixels */
"                         .O.O.|                       ",
"                       .o.o.o.X.|                     ",
"                      X.o.X. .X.|                     ",
"                      ] ..` ' ` ]                     ",
"                      ' [ G H +.                      ",
"                  n.5 V } Y.U.&.C                     ",
"                  m.l.o { U.U.@.G                     ",
"                    M.a Q F H #.}.                    ",
"                  R.W.x.~ r >.J.;X5X                  ",
"                7X(.=.*.u , e.B.).B.s.                ",
"              3X6X<X XZ.u y ;.3.:.7.g.                ",
"              5X6X3X3X{.a.y * > :.8.k.                ",
"              ).6X3X-X6X}.i ( H.F.B.                  ",
"            q.t.G.$X-X6X:XQ S.6X6X5X                  ",
"          g.h.0.% H.3X6X@XO ) 3X6X5X                  ",
"          g.3.: . C.6X6X@XO ^ ;X5X5X                  ",
"          g., * X #.6X6X@XR / :X1X6X                  ",
"          5.t.8.. f 6X6X#X! Q @X-X5X                  ",
"            h.8.% H.3X6X|.R R #X-X-X                  ",
"            h.h.4.r.V.(./.+ R /.5X{.$X                ",
"              9.:.5.Z.Y.^.E R S.6X$X[.                ",
"                f.r.I.R.%.W W _ 5X3X{.                ",
"                3X].+XE.s.t r d ;X6X-X{.              ",
"              5X6X6X;X=Xf.,.-.>.&X6X6X-X3X            ",
"              6X6X6X;X;Xu.3.7.2._.6X6X4X4X2X          ",
"            3X6X6X5X1X:Xe.7.0.: s.6X6X4X,X>X>X        ",
"            6X6X6X5X6X].2.0.-.: e.:X6X4X,X>X>XW.      ",
"          5X6X6X6X6X6X_.y.y.: > 2._.6X6X.X!..XL.l     ",
"          4X6X6X6X6X5X|.[.H.& : <.f.3X4X~.v.v.K.D k   ",
"        oX,X,X,X6X6X;Xf p w & 3.7.5.&X,XQ.T.b.n A b   ",
"        oX,XOXOX2X,X:X`.`.p.2 8.8.,.F.XXL.oXT.m n g g ",
"      XXoX>XOX>XoXW.F.w.w.0 2 8.8.3.i.'.Y L N I Y k j ",
"      !.L..X.X.XoXOXf.,.1.8 1 8.0.7.3 x.XXL z N L c l ",
"    B S I P.Y Y W.E.e.7.6.6 0 8.q.8.w s Q.'.N z c c k ",
"  l z S S T L U T A.9.7.2 6 9 9.g.<.; e c.!.m c c c   ",
"  x c M P P.P m m z.> # ; 6 8 1.,.# @ q Z K c c c k   ",
"k c c c S N c c c q 8.-.0 6 8 -.8.,.0 6 4 v c c x     ",
"c c c c c c c c l < g.g.9 6 9 q.j.g.9 6 6 h c c       ",
"k x c c c c c c b * 2.;.8 6 7 = t w.        k k       ",
"      x x k x c v C.N.        H.J./.                  ",
"                  ;X;X          ;X$X                  ",
"                  ;X;X          1X$X                  ",
"                  D.D.          V.d.                  ",
"                  & &           $ $                   ",
"                & & &           & &                   ",
"                & & -           - & &                 ",
"              a u ;             < < p J J             ",
"              J $.a                   s               "
};
