/* XPM */
static char *_85c59152a4d4ccce0fc19c7cea1f04a3LQ5iPqnxZn6qCxt_7[] = {
/* columns rows colors chars-per-pixel */
"48 55 256 2 ",
"   c None",
".  c #161418",
"X  c #1D1F32",
"o  c #0A2A39",
"O  c #1E263C",
"+  c #1A3539",
"@  c #313336",
"#  c #634F1A",
"$  c #67552C",
"%  c #0D2E4B",
"&  c #0D3248",
"*  c #153445",
"=  c #143659",
"-  c #142B59",
";  c #293053",
":  c #033374",
">  c #073979",
",  c #0C3667",
"<  c #3B3D61",
"1  c #24306A",
"2  c #284965",
"3  c #554E54",
"4  c #775C59",
"5  c #6A5A5B",
"6  c #726B49",
"7  c #4D556B",
"8  c #645962",
"9  c #4C6271",
"0  c #726669",
"q  c #6C6B70",
"w  c #D81616",
"e  c #DC0405",
"r  c #E50304",
"t  c #EC0203",
"y  c #EB0809",
"u  c #F40D0C",
"i  c #FD0D0C",
"p  c #F50404",
"a  c #FC110E",
"s  c #F3100E",
"d  c #EA1A18",
"f  c #F51512",
"g  c #FA1411",
"h  c #F31915",
"j  c #F91B1A",
"k  c #F81A18",
"l  c #F8201E",
"z  c #DB312F",
"x  c #C53835",
"c  c #F82422",
"v  c #F72B29",
"b  c #F43533",
"n  c #F33C3A",
"m  c #EB3634",
"M  c #816D3E",
"N  c #A77D29",
"B  c #F3403D",
"V  c #956B50",
"C  c #BE7C5B",
"Z  c #82676D",
"A  c #C95652",
"S  c #DB5A56",
"D  c #D65754",
"F  c #D74F4C",
"G  c #F34D4A",
"H  c #F34543",
"J  c #F35856",
"K  c #E45D59",
"L  c #EF625E",
"P  c #DC7F79",
"I  c #CB746E",
"U  c #EC6A67",
"Y  c #F36461",
"T  c #F36B68",
"R  c #EA706C",
"E  c #EA7976",
"W  c #F57D7A",
"Q  c #F27774",
"!  c #9F9D22",
"~  c #BBA023",
"^  c #A3931D",
"/  c #F1DA17",
"(  c #EDD312",
")  c #FAE602",
"_  c #FDEA02",
"`  c #F8E407",
"'  c #FCEB13",
"]  c #DFC43F",
"[  c #E7D12C",
"{  c #D6C610",
"}  c #93827D",
"|  c #8B886C",
" . c #B68876",
".. c #A5A162",
"X. c #C8865F",
"o. c #D3B34B",
"O. c #D7AC49",
"+. c #D09273",
"@. c #ED827E",
"#. c #E6807C",
"$. c #F6807D",
"%. c #E59F78",
"&. c #C8A76D",
"*. c #DFA67E",
"=. c #E8A27A",
"-. c #E0C557",
";. c #DEC768",
":. c #E8D461",
">. c #053A86",
",. c #023D95",
"<. c #013E9C",
"1. c #083E94",
"2. c #163F81",
"3. c #003FA1",
"4. c #0A4598",
"5. c #13479A",
"6. c #1B4483",
"7. c #29569C",
"8. c #0340A4",
"9. c #0142AA",
"0. c #0944A3",
"q. c #1348A1",
"w. c #0145BA",
"e. c #0D48B4",
"r. c #0252BD",
"t. c #1754B8",
"y. c #2656A8",
"u. c #70748A",
"i. c #426FBD",
"p. c #014ACB",
"a. c #0349C3",
"s. c #0C55D0",
"d. c #0056E4",
"f. c #847A82",
"g. c #758AA8",
"h. c #918080",
"j. c #A78E86",
"k. c #AC9A8E",
"l. c #B3948B",
"z. c #B49E99",
"x. c #A89892",
"c. c #BDA29B",
"v. c #BFA89F",
"b. c #AFA196",
"n. c #969CA5",
"m. c #9FA3AC",
"M. c #B4AEB2",
"N. c #B9B5B3",
"B. c #D28882",
"V. c #CB9A8A",
"C. c #C49D94",
"Z. c #DA9D96",
"A. c #EB8581",
"S. c #EB8985",
"D. c #E98C88",
"F. c #F48582",
"G. c #F18B87",
"H. c #EA948F",
"J. c #E7908B",
"K. c #F1918D",
"L. c #EC9995",
"P. c #EB9E99",
"I. c #E69792",
"U. c #F29692",
"Y. c #DCA785",
"T. c #C9A39A",
"R. c #C6A399",
"E. c #D8B69A",
"W. c #CFAE8A",
"Q. c #ECB38C",
"!. c #F3B28A",
"~. c #ECA19C",
"^. c #F0A39E",
"/. c #EEB189",
"(. c #C6AAA2",
"). c #CBADA4",
"_. c #CDB3AA",
"`. c #D2B5AD",
"'. c #D1B8AD",
"]. c #D0B0A6",
"[. c #C8B9B6",
"{. c #D5BBB3",
"}. c #D9BDB5",
"|. c #D7BFB8",
" X c #D0AEA5",
".X c #EDA6A0",
"XX c #ECAAA5",
"oX c #EAACA7",
"OX c #F0ABA5",
"+X c #ECB3AD",
"@X c #E4B3AD",
"#X c #EBBCB5",
"$X c #EDBEB9",
"%X c #EAB9B3",
"&X c #F1B8B3",
"*X c #D5C08E",
"=X c #FCC298",
"-X c #E3D29D",
";X c #DAC3BB",
":X c #DDC8BA",
">X c #D4C7B6",
",X c #EDC3BC",
"<X c #E3C4BE",
"1X c #E8C7AE",
"2X c #A9AFC2",
"3X c #DECAC3",
"4X c #DACBC5",
"5X c #D3CDCF",
"6X c #ECC7C0",
"7X c #E1CDC5",
"8X c #EDCBC5",
"9X c #E6CFC8",
"0X c #F0CDC7",
"qX c #E4D3CC",
"wX c #ECD3CC",
"eX c #E5D6C5",
"rX c #F0D3CD",
"tX c #E6D7D0",
"yX c #E6D8D1",
"uX c #EBDCD5",
"iX c #EEDFD8",
"pX c #EDD7D1",
"aX c #F0DBD4",
"sX c #F0DDD8",
"dX c #EFE0DA",
"fX c #F2E5DE",
"gX c #F2E4DE",
"hX c #F2E5E0",
"jX c #F7E9E3",
"kX c black",
"lX c black",
"zX c black",
"xX c black",
"cX c black",
"vX c black",
"bX c black",
"nX c black",
"mX c black",
"MX c black",
"NX c black",
"BX c black",
"VX c black",
"CX c black",
"ZX c black",
"AX c black",
"SX c black",
"DX c black",
"FX c black",
"GX c black",
"HX c black",
"JX c black",
"KX c black",
"LX c black",
"PX c black",
"IX c black",
"UX c black",
/* pixels */
"g f   h g                                                                                       ",
"h g g g g g g                                             h g f f g f                           ",
"h g g a i a a f                                       g g g a a g a g f                         ",
"f g a i i i i a u         p p                   f g a a a a i i i a a a                         ",
"h a i c b j j i i p t p t r t t s f f f f   f g a i i i i i i i i i i a g                       ",
"d c j J T J T n k f r t t r r y a a a a a a a i i i i i i i i i i i i i a a                     ",
"  G Y W $.Q K.L.W U d w w d r r u i i i i i i i i i i i i c G k i i i i i i i a                 ",
"  m T $.$.$.&XsXuXXXU S F D w e u l j i i k k i i v J G f H Q J v i g v g i i i a               ",
"  R F.F.F.F.0XfXfX6XI.R S S F w k Q Y i i b H i G $.W W J J Q G.G.G n J b b i i g g p           ",
"  P +XOX,X^.#XfXaXXX@XR S S A z b L.&XJ k R L c .XOXR W W $.@.,X,XF.XX.XS.E v b Y G y t         ",
"    XXwXfXaXpXfXgX0X<XB.D D A K K.+X8XwXA.+XS.Y &X8X^.$.L.$X#XuXrXU.rXfXrX~.L.Q J d r t u       ",
"    <XpXfXfXfXfXfXfXqX].I A A E U.+XwX8X@X#XE T +X0X,XXXuXfXdXuXrXP.aXfXwX0XfXK.h t e t a f     ",
"    7XhXfXfXfXfXfXfXuX}.V.I +.I.rXfXaX#XrX+XH.L.~.8XsX$XuXfXfXuX#X,XfXfXuXgX8XA.d w z u g g f   ",
"    7XgXfXfXfXfXfXfXiX}.T.C.].<XgXfXaX,X8X.XS.$XfXfXfXsXiXgXhXgXpXgXhXfXsXOXF.#.D x m c B k g h ",
"    ;XdXhXfXfXfXfXfXfX;XR.C.`.uXhXfXaXXX%X#.E @XfXfXhXhXdXdXhXfXdXuXfXhX,XW W P I B.G J @.f h h ",
"      uXhXfXfXfXfXfXfX9XC.C.`.uXhXhX8X~.wXP.+XsXfXfXhXhXgXiXhXhXhXdXuXdXaX^.#.Z.}.oXR .X@.d     ",
"      qXhXfXfXfXfXfXfXuXR.C.{.dXfXfX#X%XaX~.L.sXfXfXhXhXfXiXfXhXhXfXuXtXdX$XZ.3X}.$X0X@.m       ",
"      7XhXfXfXfXfXfXfXuXT.T.}.gXfXfX8XS.XXE +XgXfXfXhXhXhXdXdXhXhXdXuXdXuX6X<XqXuXhXrXU         ",
"        dXfXfXfXfXfXfXuX).C.;XfXfXfXpX#XD.A.#XfXfXfXhXhXhXfXiXfXfXuXgXgXiXuXqXuXfXhXwX          ",
"        uXhXfXfXfXfXfXuX].C.;XfXfXfX8XXX~.A.XXfXuXuXfXfXhXhXgXuXuXiXfXgXuXuXuXfXhXpX            ",
"        9XhXfXfXfXfXfXdX].C.7XfXfXfX@X,X@X,X8XfXdX7XqXfXhXhXfXqX9XgXfXfXuXuXdXhXdX              ",
"        |.gXhXdXiXfXfXgX).T.7XfXfXfXrX,X&X&XsXfXfXuX;XuXhXfXfX7X9XuXfXfXuXuXfXfX7X              ",
"          uXhXuXuXfXfXgX_.T.7XfXfXfXwXH.S.~.sXfXfXgX7XqXhXfXfX;XqXuXgXfXdXdXhXwX                ",
"          7XhXuX3XgXfXfX{.R.7XfXfXfX.XS.~.H.pXdXuXfXuX3XfXfXgX;XuXgXuXfXgXgXuX                  ",
"            dXiX;XiXfXfX;XC.qXfXfXfX~.@.H.P.wXgXqXqXiX3XdXfXuX;XdXfXiXdXhXuX}.            X.    ",
"            uXdX|.uXfXfX3XC.qXgXfXgX@.E J.L.aXfXgX7XuXqXuXdXqX7XgXfXfXuXqX{.            /.%.    ",
"              iX{.qXfXfXqXC.7XdXfXwXD.~.+XP.gXfXfXuXqXuXuXpX7XqXfXfXgX7X'.        0.y.E.=X=.    ",
"              uX{.3XfXfXuXR.{.uXfXwX~.L.,X~.uXfXfXfXqXuXuXpX;XuXfXgXqX|.        5.t.s.c.!.      ",
"                |.|.fXfXiXT.(.dXfXgX#XJ.,X%XdXgXfXfXuXtXuXqX;XfXgXqX;X    3.q.w.p.t.4. .        ",
"                `.'.dXfXgX).'.fXfXiXwX,X,X,XpXuXuXuXgXuXuX3X9XiX7X{.    0.w.s.s.a.=             ",
"                  ).uXhXfX_.3XfXyX6XA.H.XXR ~.dXuXqXdXuXuX3XqX;X].l.> 1.w.p.5., =               ",
"                  c.3XfXgX).;XqXuXJ.R U S.E A.uXfXuXtXuX3X`.).{.z.2.<.w.p.4.*                   ",
"                    (.qXuXR._.uXfX,X,X_.wXrX0XdXfXfXuX4X(.R.(.uX5Xq.a.,.> *                     ",
"                      _.7Xc.qXhXdXqXyXu.m.5Xn.qXdXfXdX3X(._.qXhXiXi.<.&                         ",
"                      j.).{.dXiX:X*X-X6 7 q 9 4XqXiXyXqXtXtXfXhXhXg.&                           ",
"                        R.qXdX_.).[ / { ^ ! ..-X4XuXuXyXdXgXhXhXfXM.                            ",
"                        v.qXuXR.&./ ) ) ) ` ` :.:XdXuXuXfXfXdX7XqX                              ",
"                        7XyX;X'.o.) _ _ _ _ _ / ;.eXuXdXfXdX{.).).                              ",
"                        qXyXtXE.[ ` ' _ _ _ _ ` ] 1X9XdXgX|.} q                                 ",
"                        [.;X:X;.( / [ ` ) ( ( / -.eX;X7X`.8 , >.<.                              ",
"                      u.yXuX&.O.N $ | ^ ~ ^ # N O.W.z.} 7 : ,.<.1.                              ",
"                    6.2XjXuX:X_.j.4 f.8 q M $ 8 b.3 @ o >.,.3.9.>                               ",
"                    7.5XjXhXhX).c.Z +.Y.Y.V.6 0 k.    % > 9.w.w.0.                              ",
"                    7.M.[.tXhX_.5 3 V Q.Q.Q.            : a.p.p.>.                              ",
"                  0.1.= = 2 u.x.@ @   *.Y.              % ,.<.> *                               ",
"                1.8.9.,.,.>.: O . .                       + 2 9                                 ",
"              e.w.w.w.9.9.5.<.: O X       V V               N.>X                                ",
"                d.d.d.,.5.s.p.t.5.1.> u.Q.%.X.              M.N.                                ",
"                4.r.r., o > 9.y.a.9.>.C.=X!.%.              < <                                 ",
"                  * & o +     = > >., l././.=.              O O                                 ",
"                                    * 3 4 V C               ; - ;                               ",
"                                    4 h.8 0 5               ; - 1                               ",
"                                        q                   < 7 u.Z                             ",
"                                        x.                     . .V                             ",
"                                        k.                      3                               "
};
