/* XPM */
static char *a14845f8d5f54c18c028184ca07f2d9ayZiK78Nptt2H9CvL_21[] = {
/* columns rows colors chars-per-pixel */
"27 48 256 2 ",
"   c None",
".  c #040B18",
"X  c #040506",
"o  c #6D3E25",
"O  c #3B7738",
"+  c #2E6E2E",
"@  c #2F1E53",
"#  c #022448",
"$  c #1B224F",
"%  c #082458",
"&  c #1E2554",
"*  c #162D5C",
"=  c #173657",
"-  c #272757",
";  c #2F2654",
":  c #04286A",
">  c #002B77",
",  c #113977",
"<  c #222B65",
"1  c #39246A",
"2  c #262678",
"3  c #6B1952",
"4  c #65255F",
"5  c #551F64",
"6  c #4B2065",
"7  c #4A216E",
"8  c #442168",
"9  c #5E2668",
"0  c #463370",
"q  c #164E54",
"w  c #114370",
"e  c #2B416A",
"r  c #52475B",
"t  c #53585F",
"y  c #4B7942",
"u  c #4E4F6D",
"i  c #6D5473",
"p  c #497374",
"a  c #7F7F7C",
"s  c #676971",
"d  c #B3051E",
"f  c #B2102F",
"g  c #C4031A",
"h  c #EC011B",
"j  c #EB031A",
"k  c #F4011A",
"l  c #FD001A",
"z  c #FD0015",
"x  c #DA0722",
"c  c #D9142A",
"v  c #F8152A",
"b  c #F01128",
"n  c #F52638",
"m  c #E4263A",
"M  c #B1651C",
"N  c #86602F",
"B  c #8D345B",
"V  c #EF3B4B",
"C  c #A17E57",
"Z  c #AD5E78",
"A  c #856869",
"S  c #986E66",
"D  c #93746B",
"F  c #9D7672",
"G  c #CD4D5B",
"H  c #E64959",
"J  c #F44956",
"K  c #F45763",
"L  c #F26873",
"P  c #EF727C",
"I  c #378834",
"U  c #369534",
"Y  c #3BAC38",
"T  c #4B8938",
"R  c #40A33A",
"E  c #4E964D",
"W  c #50A24B",
"Q  c #6D8267",
"!  c #6EA36A",
"~  c #AF932C",
"^  c #CCB514",
"/  c #C78525",
"(  c #E7B829",
")  c #EDDB05",
"_  c #F2DF04",
"`  c #E1C30B",
"'  c #FDEB00",
"]  c #F7E402",
"[  c #9D8458",
"{  c #BB8145",
"}  c #80846F",
"|  c #AF8170",
" . c #83AD7F",
".. c #DFAF5B",
"X. c #D89F72",
"o. c #E5A175",
"O. c #82C27E",
"+. c #032C87",
"@. c #093388",
"#. c #123888",
"$. c #012E94",
"%. c #012F9B",
"&. c #0B2D92",
"*. c #043493",
"=. c #01319C",
"-. c #0F3793",
";. c #153D97",
":. c #1B2B8B",
">. c #0132A6",
",. c #0133AC",
"<. c #0A37AB",
"1. c #0033B3",
"2. c #0335BB",
"3. c #1B4396",
"4. c #1B4085",
"5. c #264C98",
"6. c #354E8C",
"7. c #1440AD",
"8. c #2F55AA",
"9. c #3E60A3",
"0. c #4C568E",
"q. c #715882",
"w. c #5D7291",
"e. c #667898",
"r. c #636783",
"t. c #5572AB",
"y. c #5270AE",
"u. c #033ACA",
"i. c #0336C5",
"p. c #0039D3",
"a. c #003CDE",
"s. c #0040CC",
"d. c #8F2FA7",
"f. c #885482",
"g. c #A97384",
"h. c #D07888",
"j. c #EE7B84",
"k. c #A53AC3",
"l. c #C54DE3",
"z. c #7D9093",
"x. c #788DB7",
"c. c #768BAA",
"v. c #878998",
"b. c #8E8D8A",
"n. c #B69585",
"m. c #B5839F",
"M. c #99BC97",
"N. c #8C9BB9",
"B. c #8C94A5",
"V. c #9AA3AC",
"C. c #AAAFB0",
"Z. c #DA8B92",
"A. c #EA8188",
"S. c #F2858D",
"D. c #EC8C93",
"F. c #F7969C",
"G. c #EF939A",
"H. c #D5A788",
"J. c #F4B587",
"K. c #E3B390",
"L. c #F69CA2",
"P. c #C7B1A3",
"I. c #D0B4B3",
"U. c #EAA2AA",
"Y. c #FBA1A6",
"T. c #F3A5AA",
"R. c #F9AEB2",
"E. c #F4B2B6",
"W. c #F0BDBF",
"Q. c #A6C59C",
"!. c #BAC4B9",
"~. c #B7D0B4",
"^. c #ECCCBA",
"/. c #9EABC5",
"(. c #98AAD2",
"). c #B7BDC7",
"_. c #A6B4CC",
"`. c #F9BEC0",
"'. c #EEBEC0",
"]. c #BAC4D4",
"[. c #C7C9CB",
"{. c #DADAD7",
"}. c #C9D6D2",
"|. c #F5C8CA",
" X c #E8D3C7",
".X c #F4D3D3",
"XX c #F6DCDC",
"oX c #F9DFDF",
"OX c #ECD5D7",
"+X c #D1E4CF",
"@X c #DAE6D8",
"#X c #E1E3DE",
"$X c #D4DAE4",
"%X c #DCE1EA",
"&X c #E3E3E1",
"*X c #E9E9E7",
"=X c #EDEDEB",
"-X c #E4E9E4",
";X c #F7E6E5",
":X c #F1F0EE",
">X c #F5F5F3",
",X c #FBF5F4",
"<X c #F9F9F7",
"1X c #FEFEFC",
"2X c #EFF0F0",
"3X c black",
"4X c black",
"5X c black",
"6X c black",
"7X c black",
"8X c black",
"9X c black",
"0X c black",
"qX c black",
"wX c black",
"eX c black",
"rX c black",
"tX c black",
"yX c black",
"uX c black",
"iX c black",
"pX c black",
"aX c black",
"sX c black",
"dX c black",
"fX c black",
"gX c black",
"hX c black",
"jX c black",
"kX c black",
"lX c black",
"zX c black",
"xX c black",
"cX c black",
"vX c black",
"bX c black",
"nX c black",
"mX c black",
"MX c black",
"NX c black",
"BX c black",
"VX c black",
"CX c black",
"ZX c black",
"AX c black",
"SX c black",
"DX c black",
"FX c black",
"GX c black",
"HX c black",
"JX c black",
"KX c black",
"LX c black",
"PX c black",
"IX c black",
"UX c black",
/* pixels */
"                        _ _ _ )                       ",
"                      ] ' ' ' ] _                     ",
"                      ] ' ] _ ] )                     ",
"                      ^ ` ~ ~ ~ ^                     ",
"                      ~ ^ A D [                       ",
"                  k.4 M ( K.J...N                     ",
"                  l.d.o / J.J.{ A                     ",
"                    l.s T C D } {.                    ",
"                  P.U.g.E q #.C.=X<X                  ",
"                2X^.o.X.t , 5.x./.c.e.                ",
"              >X1X*X Xn.r e @.=.#.>.u.                ",
"              <X1X>X>X{.w.e * > #.,.s.                ",
"              (.1X>X*X1X{.y Q V.N.x.                  ",
"            2.7.B.&X*X1X-XT M.1X1X<X                  ",
"          u.p.1.% V.>X1X@XO ! >X1X<X                  ",
"          i.=.: . b.1X1X@XO W =X<X<X                  ",
"          u., % X Q 1X1X@XI W -X:X<X                  ",
"          ;.7.,.. a 1X1X+XR E @X*X<X                  ",
"            p.,.% V.>X1X}.I I +X*X-X                  ",
"            p.u.-.5.v.^.!.+ I ~.<X{.*X                ",
"              <.#.;.n.K.Q.U I M.1X&X[.                ",
"                y.6.H.P. .Y Y O.1X>X{.                ",
"                >X]. XI.e.w q p 2X1X=X{.              ",
"              <X1X1X=X&Xt.$.+.#.$X1X1X*X=X            ",
"              1X1X1X=X=X9.%.>.*._.1X1X>X>X>X          ",
"            >X1X1X1X>X-X5.>.1.: e.<X1X:XoXXX;X        ",
"            1X1X1X<X1X].*.1.+.: 5.%X1X,X|.|.|.T.      ",
"          <X1X1X1X<X1X/.8.8.: > *._.1X,X.X`.T.D.c     ",
"          1X1X1X1X1X<X[.[.V.- > %.t.<X;X.Xj.D.Z.m h   ",
"        XX;X<X1X1X1X*Xs t 0 & =.>.3.}.;X|.j.S.H G c j ",
"        E..X|.oX1X,X#X).).q.2 ,.,.$.x.`.D.W.E.n j f d ",
"      S.R..XY.oX'.|.N.3.3.1 2 ,.,.%.0.U.L L.K n V b g ",
"      F.L.R.Y.|.E..Xt.$.&.6 1 ,.1.=.0.g.G.S.v z H n k ",
"    P L j.S.L A.F.I.5.>.:.5 8 ,.2.>.0 f.h.Y.K z k l l ",
"    v n K A.J P J m.<.>.2 5 7 <.i.=.1 i Z F.J l l l k ",
"  k l n n D.J v v f.> # ; 5 6 &.$.# @ 9 B H v l l k   ",
"h l l v V n l l l 9 ,.+.8 5 6 +.,.$.8 5 3 x l l h     ",
"k l l l l l l l h 1 i.i.7 5 7 2.a.u.7 5 5 f l k       ",
"j k k l l l l l x * *.@.6 5 6 = w 3.        x         ",
"              k x v.z.        V.C.!.                  ",
"                  *X=X          =X#X                  ",
"                  =X=X          :X#X                  ",
"                  v.B.          v.r.                  ",
"                  & &           $ $                   ",
"                  & &           & &                   ",
"                & & -           - & &                 ",
"              A r -             < < u F S             ",
"              S | i                   i               "
};
