/* XPM */
static char *a14845f8d5f54c18c028184ca07f2d9ayZiK78Nptt2H9CvL_24[] = {
/* columns rows colors chars-per-pixel */
"27 48 256 2 ",
"   c None",
".  c #040B18",
"X  c #040506",
"o  c #6D3F25",
"O  c #3B7838",
"+  c #2E6E2F",
"@  c #3A1E56",
"#  c #241F51",
"$  c #022447",
"%  c #1B224F",
"&  c #042259",
"*  c #1E2554",
"=  c #102B58",
"-  c #173657",
";  c #272757",
":  c #242B4D",
">  c #04286A",
",  c #002B77",
"<  c #133570",
"1  c #272765",
"2  c #3C266D",
"3  c #262678",
"4  c #3B2E71",
"5  c #6C1850",
"6  c #65255E",
"7  c #551E64",
"8  c #4E1F63",
"9  c #4A2166",
"0  c #4A216E",
"q  c #442168",
"w  c #5A2668",
"e  c #48316A",
"r  c #164E54",
"t  c #114370",
"y  c #2B426A",
"u  c #52475B",
"i  c #53595F",
"p  c #4B7942",
"a  c #4E4F6D",
"s  c #6D5574",
"d  c #477173",
"f  c #7F7F7C",
"g  c #686A71",
"h  c #A50F39",
"j  c #EA041D",
"k  c #F4011A",
"l  c #FC011A",
"z  c #CC0B23",
"x  c #D1152D",
"c  c #F70C22",
"v  c #FA152A",
"b  c #F81C30",
"n  c #E6142B",
"m  c #F7283A",
"M  c #ED2A3D",
"N  c #B1651C",
"B  c #86602E",
"V  c #F53747",
"C  c #E13147",
"Z  c #A07E57",
"A  c #964165",
"S  c #896968",
"D  c #96736B",
"F  c #9E7772",
"G  c #C64151",
"H  c #F84E5C",
"J  c #F5535F",
"K  c #EB5C68",
"L  c #F75965",
"P  c #DC727C",
"I  c #F1626E",
"U  c #F9606B",
"Y  c #F86A75",
"T  c #EE6E77",
"R  c #378834",
"E  c #369534",
"W  c #3BAC37",
"Q  c #4B8938",
"!  c #40A33A",
"~  c #3F9041",
"^  c #5D9D58",
"/  c #50A24B",
"(  c #6D8267",
")  c #6EA36A",
"_  c #B69E2C",
"`  c #A7882A",
"'  c #CCB514",
"]  c #C78525",
"[  c #E7B829",
"{  c #EBD905",
"}  c #E1C30B",
"|  c #FCEB00",
" . c #F8E401",
".. c #9D8458",
"X. c #BC8145",
"o. c #80846E",
"O. c #AE8270",
"+. c #82AA7E",
"@. c #DFAF5B",
"#. c #D89F72",
"$. c #E5A175",
"%. c #82C47E",
"&. c #032C87",
"*. c #093388",
"=. c #11368A",
"-. c #173E84",
";. c #012E94",
":. c #002F9B",
">. c #0B2E92",
",. c #033493",
"<. c #01319C",
"1. c #0D3697",
"2. c #163D98",
"3. c #1B2C8A",
"4. c #0132A5",
"5. c #0133AB",
"6. c #0B38AC",
"7. c #0033B3",
"8. c #0335BB",
"9. c #1A4397",
"0. c #274C98",
"q. c #354E8C",
"w. c #1440AD",
"e. c #3056AA",
"r. c #3F61A3",
"t. c #4B548B",
"y. c #715881",
"u. c #5E7291",
"i. c #656E8C",
"p. c #5572AB",
"a. c #5474B8",
"s. c #697EA1",
"d. c #033AC9",
"f. c #0336C5",
"g. c #0039D2",
"h. c #003CDE",
"j. c #0040CC",
"k. c #8F2FA7",
"l. c #8E4E82",
"z. c #AC7D8D",
"x. c #EC7981",
"c. c #F57E86",
"v. c #A536C3",
"b. c #C43EE6",
"n. c #C55AE1",
"m. c #7C8B8F",
"M. c #768DB8",
"N. c #768BAA",
"B. c #878597",
"V. c #938795",
"C. c #B69685",
"Z. c #B6829E",
"A. c #84B180",
"S. c #8A8DA1",
"D. c #8796B6",
"F. c #8D98A7",
"G. c #9BA3AB",
"H. c #AAAFB0",
"J. c #CB8090",
"K. c #EC858C",
"L. c #F3868E",
"P. c #F68D94",
"I. c #F49198",
"U. c #EE9096",
"Y. c #D5A888",
"T. c #F4B587",
"R. c #E3B391",
"E. c #C297A6",
"W. c #F39FA4",
"Q. c #C7B1A3",
"!. c #D0B6B5",
"~. c #EAA6AD",
"^. c #F3B7BA",
"/. c #F0AAAE",
"(. c #9BC099",
"). c #A6C59C",
"_. c #BAC4B9",
"`. c #BAD2B7",
"'. c #ECCCBA",
"]. c #9AAACC",
"[. c #A6B3CA",
"{. c #B7BDC7",
"}. c #A6B5D1",
"|. c #F9BFC0",
" X c #BAC4D4",
".X c #D9D9D6",
"XX c #C9D0CC",
"oX c #F4C7C8",
"OX c #F3D3D4",
"+X c #F6D9D9",
"@X c #E5D3CC",
"#X c #D1E4CE",
"$X c #DAE6D8",
"%X c #E1E3DE",
"&X c #D7DDE7",
"*X c #CED7E2",
"=X c #E2E3E1",
"-X c #E9E9E7",
";X c #ECEDEA",
":X c #E3EAE4",
">X c #F6E8E7",
",X c #EDF0EE",
"<X c #F0F1EE",
"1X c #F4F5F3",
"2X c #F9F9F6",
"3X c #FDFDFC",
"4X c #F9F5F3",
"5X c #EEF1F1",
"6X c black",
"7X c black",
"8X c black",
"9X c black",
"0X c black",
"qX c black",
"wX c black",
"eX c black",
"rX c black",
"tX c black",
"yX c black",
"uX c black",
"iX c black",
"pX c black",
"aX c black",
"sX c black",
"dX c black",
"fX c black",
"gX c black",
"hX c black",
"jX c black",
"kX c black",
"lX c black",
"zX c black",
"xX c black",
"cX c black",
"vX c black",
"bX c black",
"nX c black",
"mX c black",
"MX c black",
"NX c black",
"BX c black",
"VX c black",
"CX c black",
"ZX c black",
"AX c black",
"SX c black",
"DX c black",
"FX c black",
"GX c black",
"HX c black",
"JX c black",
"KX c black",
"LX c black",
"PX c black",
"IX c black",
"UX c black",
/* pixels */
"                          { { {                       ",
"                        { | | | {                     ",
"                         .|  . . .{                   ",
"                        ' } _ ` _ '                   ",
"                        ` ' S D ..                    ",
"                    v.6 N [ R.T.@.B                   ",
"                    b.k.o ] T.T.X.S                   ",
"                      n.g Q Z D o..X                  ",
"                    Q.~.z.~ r -.H.;X2X                ",
"                  ;X'.$.#.i < 0.M.].N.u.              ",
"                1X3X>X@XC.u y *.<.=.4.d.              ",
"                2X3X1X1X.Xu.y = , =.5.j.              ",
"                ].3X1X-X3X.Xp ( G.D.M.                ",
"              8.w.D.=X-X3X:XQ A.3X3X2X                ",
"            d.g.7.& G.1X3X%XO ) 1X3X2X                ",
"            f.<.> . V.3X3X$XO ^ ;X2X2X                ",
"            d.< = X o.3X3X$XR / :X<X3X                ",
"            2.w.5.. f 3X3X#X! Q $X-X2X                ",
"              g.5.& G.1X3XXXR R #X-X=X                ",
"              g.d.1.0.B.'._.+ R `.1XXX                ",
"                1.=.2.C.R.).E R (.3X=X                ",
"                  a.q.Y.Q.+.W W %.3X2X.X              ",
"                  1X X@X!.u.t r d 5X3X<X-X1X          ",
"                2X3X3X;X=Xp.;.&.-.&X3X3X;X<X2X        ",
"                3X3X2X-X5Xr.<.4.,.[.3X3X2X1X3XOX      ",
"              2X3X3X3X2X:X0.4.7.> s.2X3X4X>X>XOXM     ",
"              3X3X3X3X3X X,.7.&.> 0.&X3X4X^.^.oXI     ",
"            2X3X3X3X2X3X[.e.e.< , ,.}.3X2X^.oXL.K.    ",
"            3X3X3X3X3X2XXXXXG.: > :.p.2X<XOX/.Y P x   ",
"          2X3X3X3X3X2X-Xg i e # <.4.9.*XOX+Xx.L.K G x ",
"        ^.^.oX>X3X3X>X.X{.{.y.3 5.5.;.D.|.K.x.oXV n x ",
"        V W./.I.>X+X>XD.9.9.2 3 5.7.:.t./.V U.^.V c   ",
"      c H I.P.P.oX/.OXp.;.>.9 2 5.7.<.t.E.K c.L l c   ",
"      V U Y L K K.c.!.0.4.3.7 q 5.8.4.4 V.J.Y L c k   ",
"    j V m T L I I J Z.6.4.3 7 0 6.f.<.@ s z.I H l l   ",
"    k c v V W.L v b l., $ ; 7 9 >.;.$ @ w A C v l k   ",
"  j l l b m b l l k w 5.&.q 7 9 &.5.;.q 7 5 z l k k k ",
"  k l l l c l l l j 1 f.f.0 7 0 8.h.d.0 7 7 h k k l k ",
"k k k k k l k k l z = ,.*.9 7 8 - t 9.        j l l k ",
"  k k k l l l l k z m.m.        G.H._.          k k   ",
"      k k k l l l n ,X;X          ;X%X                ",
"            k k k   <X;X          <X%X                ",
"                    S.S.          B.i.                ",
"                    * *           % %                 ",
"                    * *           * *                 ",
"                  * * ;           ; * *               ",
"                  u ;             1 1 a F D           ",
"                S O.s                   s             "
};
