/* XPM */
static char *a14845f8d5f54c18c028184ca07f2d9ayZiK78Nptt2H9CvL_27[] = {
/* columns rows colors chars-per-pixel */
"27 48 256 2 ",
"   c None",
".  c #040B18",
"X  c #040506",
"o  c #6D3F25",
"O  c #3B7838",
"+  c #2E6E2E",
"@  c #3A1E57",
"#  c #241F51",
"$  c #012548",
"%  c #1B224F",
"&  c #082559",
"*  c #1E2453",
"=  c #102957",
"-  c #173657",
";  c #262757",
":  c #2D2656",
">  c #04286A",
",  c #002A75",
"<  c #0E3473",
"1  c #232B65",
"2  c #3A256C",
"3  c #262678",
"4  c #3A3676",
"5  c #541E5F",
"6  c #681952",
"7  c #65255F",
"8  c #551F64",
"9  c #4B2065",
"0  c #46216B",
"q  c #4C2B67",
"w  c #642F6C",
"e  c #164E54",
"r  c #114370",
"t  c #2B416A",
"y  c #524D5C",
"u  c #4B7942",
"i  c #4E4F6D",
"p  c #6A586F",
"a  c #4B7476",
"s  c #7F7F7C",
"d  c #666870",
"f  c #A1103B",
"g  c #BE2034",
"h  c #DB071D",
"j  c #C7051E",
"k  c #EB021C",
"l  c #E6011B",
"z  c #F5021C",
"x  c #FD011A",
"c  c #D80923",
"v  c #C70F27",
"b  c #FB0C23",
"n  c #E6152A",
"m  c #FA142A",
"M  c #F81F32",
"N  c #E00A21",
"B  c #D6283A",
"V  c #E42438",
"C  c #F9293B",
"Z  c #F3303F",
"A  c #B1651C",
"S  c #86602E",
"D  c #FB2E41",
"F  c #F73545",
"G  c #A17E57",
"H  c #93507A",
"J  c #87696B",
"K  c #96736B",
"L  c #97706A",
"P  c #E94856",
"I  c #F7515C",
"U  c #F14F5C",
"Y  c #E85A65",
"T  c #F15B66",
"R  c #F2606A",
"E  c #F4737C",
"W  c #EE6974",
"Q  c #378734",
"!  c #369534",
"~  c #3BAC37",
"^  c #4B8838",
"/  c #40A339",
"(  c #3F8F41",
")  c #5D9E58",
"_  c #50A34A",
"`  c #6D8368",
"'  c #6EA36A",
"]  c #AE932C",
"[  c #CCB513",
"{  c #C78524",
"}  c #E7B829",
"|  c #EBD805",
" . c #E0C30B",
".. c #FAE601",
"X. c #FDEB00",
"o. c #F5E003",
"O. c #9C8358",
"+. c #BC8145",
"@. c #80846F",
"#. c #AF8271",
"$. c #82AA7E",
"%. c #DFAF5B",
"&. c #D99F72",
"*. c #E6A176",
"=. c #032D87",
"-. c #08338A",
";. c #11368A",
":. c #183E84",
">. c #012E94",
",. c #002F9B",
"<. c #0A2E92",
"1. c #023394",
"2. c #01319B",
"3. c #0C3698",
"4. c #153C97",
"5. c #1B2B8A",
"6. c #0132A5",
"7. c #0134AC",
"8. c #0A32AD",
"9. c #0034B3",
"0. c #0335BB",
"q. c #1A4396",
"w. c #294E99",
"e. c #354E8C",
"r. c #1240AC",
"t. c #3056AB",
"y. c #3F61A3",
"u. c #48558C",
"i. c #715881",
"p. c #5D7291",
"a. c #656E8C",
"s. c #5371AA",
"d. c #5373B7",
"f. c #0338C6",
"g. c #0039D2",
"h. c #003CDE",
"j. c #0040CC",
"k. c #8F2FA7",
"l. c #A17D88",
"z. c #ED7B83",
"x. c #F17D84",
"c. c #A536C4",
"v. c #C43EE7",
"b. c #C55AE1",
"n. c #7D8B8E",
"m. c #7D91B7",
"M. c #7188AE",
"N. c #878597",
"B. c #938895",
"V. c #B69685",
"C. c #B7819C",
"Z. c #91B88D",
"A. c #8A8DA1",
"S. c #8A97B5",
"D. c #8D98A7",
"F. c #9BA3AC",
"G. c #AAAFB0",
"H. c #EC868D",
"J. c #F18C93",
"K. c #F09298",
"L. c #D5A888",
"P. c #F4B587",
"I. c #E3B391",
"U. c #F19CA1",
"Y. c #C7B1A3",
"T. c #CABBB1",
"R. c #EAA3AA",
"E. c #F1A5A9",
"W. c #EEB9BB",
"Q. c #F1B5B8",
"!. c #85C381",
"~. c #A6C59C",
"^. c #BAC4B9",
"/. c #BAD1B8",
"(. c #ECCCBA",
"). c #9AAACC",
"_. c #A6B3CA",
"`. c #B7BDC7",
"'. c #A9B6CD",
"]. c #CAB6C2",
"[. c #D6BAC1",
"{. c #EDBFC1",
"}. c #BDC6D4",
"|. c #C6C8CC",
" X c #D7D7D5",
".X c #D2CEC8",
"XX c #EFC5C6",
"oX c #F6C4C6",
"OX c #E8D3C7",
"+X c #F4D6D6",
"@X c #E0D9DB",
"#X c #D1E4CE",
"$X c #DBE4D9",
"%X c #E1E4DF",
"&X c #D0D8E3",
"*X c #DFE4EA",
"=X c #E4E4E3",
"-X c #E9E9E7",
";X c #EDEEEB",
":X c #E4E9E5",
">X c #F5EAE8",
",X c #F0F0EE",
"<X c #F5F5F4",
"1X c #FAF5F4",
"2X c #F9F9F7",
"3X c #FDFDFC",
"4X c #F7F8F6",
"5X c #EEF0EF",
"6X c black",
"7X c black",
"8X c black",
"9X c black",
"0X c black",
"qX c black",
"wX c black",
"eX c black",
"rX c black",
"tX c black",
"yX c black",
"uX c black",
"iX c black",
"pX c black",
"aX c black",
"sX c black",
"dX c black",
"fX c black",
"gX c black",
"hX c black",
"jX c black",
"kX c black",
"lX c black",
"zX c black",
"xX c black",
"cX c black",
"vX c black",
"bX c black",
"nX c black",
"mX c black",
"MX c black",
"NX c black",
"BX c black",
"VX c black",
"CX c black",
"ZX c black",
"AX c black",
"SX c black",
"DX c black",
"FX c black",
"GX c black",
"HX c black",
"JX c black",
"KX c black",
"LX c black",
"PX c black",
"IX c black",
"UX c black",
/* pixels */
"                          | | |                       ",
"                        | X.X.X.o.                    ",
"                        ..X...o...|                   ",
"                        [  .] ] ] [                   ",
"                        ] [ J K O.                    ",
"                    c.7 A } I.P.%.S                   ",
"                    v.k.o { P.P.+.J                   ",
"                      b.d ^ G K @. X                  ",
"                    Y.R.l.( e :.G.;X2X                ",
"                  ;X(.*.&.y < w.m.).M.p.              ",
"                <X3X>XOXV.y t -.2.;.6.f.              ",
"                2X3X4X4X Xp.t = , ;.7.j.              ",
"                ).3X4X-X3X Xu ` F.S.M.                ",
"              0.r.D.=X-X3X:X^ Z.3X3X2X                ",
"            f.g.9.& F.<X3X%XO ' <X3X2X                ",
"            f.2.> . B.3X3X$XO ) ;X2X2X                ",
"            f.< = X @.3X3X$XQ _ :X,X3X                ",
"            4.r.7.. s 3X3X#X/ ^ $X-X2X                ",
"              g.7.& F.<X3X.XQ Q #X-X=X                ",
"              g.g.3.w.N.(.^.+ Q /.4X.X                ",
"                3.;.4.V.I.~.! Q Z.3X$X                ",
"                  d.e.L.Y.$.~ ~ !.3X2X X              ",
"                  <X}.OXT.p.r e a <X3X;X-X            ",
"                2X3X3X;X=Xs.>.=.q.&X3X3X<X4X4X        ",
"                3X3X2X-X5Xy.2.7.1._.3X3X2X4X3X4X      ",
"              4X3X3X2X4X:Xw.6.9.> M.3X3X3X2X2X>XP     ",
"              3X3X3X3X3X`.1.9.=.> w.*X3X2XXXXX+XT     ",
"            2X3X3X3X3X3X).t.t.< , 1.'.3X3XK.E.H.H.n   ",
"            3X3X3X3X3X2X|.|.F.* , ,.s.2X2XQ.W.I Y B   ",
"          4X3X3X3X3X3X-Xd d y # 2.6.4.&X+X+XW.I P g j ",
"          >X1X3X3X3XoX@X`.`.i.3 7.7.>.m.oXJ.z.K.x.V v ",
"        K.H.Q.+X3X4X+XS.q.q.2 3 7.7.,.u.{.Z F XXE x N ",
"      k C U.R E.XXW.>Xs.>.<.9 2 7.9.6.4 ].W D E C x h ",
"      m F R F z.T x.[.w.6.5.8 0 7.0.7.2 B..XI F M x h ",
"    k C D T Z z.F T C.8.6.3 8 0 8.f.2.@ w ].U D b x k ",
"    z m b W E.T b M H , $ : 8 9 <.>.$ @ 5 H V m x x k ",
"  k x x b m M x x x 7 7.=.0 8 9 =.7.>.0 8 6 c x x x k ",
"  z x x b b x x x k @ f.f.0 8 0 0.h.f.0 8 5 f x x x l ",
"k x x x x x x x x j 1 1.-.9 8 9 - r q.        k x z   ",
"  l z x x x x x x c n.n.        F.G.^.          z     ",
"        h k x x z n ;X;X          ;X%X                ",
"                    ,X;X          ,X%X                ",
"                    A.A.          N.a.                ",
"                    * *           % %                 ",
"                    * *           * *                 ",
"                  * * ;           ; ; *               ",
"                  y :             1 1 i K L           ",
"                L #.p                   p             "
};
