/* XPM */
static char *_099ae5874a7412abe6b08fc46d1ba46M8m2cie1MNXeMQwT[] = {
/* columns rows colors chars-per-pixel */
"50 50 199 2 ",
"   c None",
".  c #11141A",
"X  c #191719",
"o  c #0F1316",
"O  c #241314",
"+  c #2B1516",
"@  c #2D1719",
"#  c #231D1B",
"$  c #261A19",
"%  c #331A1C",
"&  c #391C1F",
"*  c #34141D",
"=  c #2B231D",
"-  c #151A21",
";  c #191E26",
":  c #181F29",
">  c #3D1E21",
",  c #1B212B",
"<  c #1F2631",
"1  c #2B2524",
"2  c #2E2928",
"3  c #2B2428",
"4  c #342721",
"5  c #3E2023",
"6  c #322D2B",
"7  c #372B27",
"8  c #3D3129",
"9  c #242D3B",
"0  c #202732",
"q  c #3B3335",
"w  c #373331",
"e  c #481F1F",
"r  c #411F21",
"t  c #452225",
"y  c #492326",
"u  c #4C262A",
"i  c #4E282D",
"p  c #53292D",
"a  c #5B2A2D",
"s  c #42342C",
"d  c #46372E",
"f  c #542A30",
"g  c #5C2C31",
"h  c #522634",
"j  c #463530",
"k  c #453931",
"l  c #4A3C34",
"z  c #413939",
"x  c #5E333D",
"c  c #5B3F35",
"v  c #642E33",
"b  c #692D30",
"n  c #732D32",
"m  c #7B2F36",
"M  c #623136",
"N  c #61333B",
"B  c #6C3239",
"V  c #73323B",
"C  c #7C353D",
"Z  c #733034",
"A  c #632C2D",
"S  c #55453A",
"D  c #5A4A3E",
"F  c #58423A",
"G  c #6E403F",
"H  c #734434",
"J  c #293242",
"K  c #2C3749",
"L  c #303B4E",
"P  c #333F53",
"I  c #433C43",
"U  c #6B3C47",
"Y  c #6F3E4A",
"T  c #7B3B43",
"R  c #753945",
"E  c #364257",
"W  c #4D4646",
"Q  c #4C434C",
"!  c #524A4A",
"~  c #5A4A42",
"^  c #5D5354",
"/  c #514C57",
"(  c #614E44",
")  c #74414B",
"_  c #635245",
"`  c #655549",
"'  c #6C5A4C",
"]  c #695549",
"[  c #715E4F",
"{  c #7E5B49",
"}  c #7D4654",
"|  c #764250",
" . c #725E51",
".. c #7D5E53",
"X. c #756153",
"o. c #7A6555",
"O. c #7D6957",
"+. c #796759",
"@. c #414E66",
"#. c #655C65",
"$. c #6E6464",
"%. c #666566",
"&. c #716A71",
"*. c #777177",
"=. c #7B767B",
"-. c #7A6C60",
";. c #81373F",
":. c #833B44",
">. c #893C45",
",. c #8C3F48",
"<. c #823E49",
"1. c #8C424C",
"2. c #92444E",
"3. c #834959",
"4. c #8C4E5E",
"5. c #814857",
"6. c #934751",
"7. c #954954",
"8. c #9A4B56",
"9. c #9D4D59",
"0. c #9D515C",
"q. c #A04F5B",
"w. c #A3525E",
"e. c #836C5B",
"r. c #8D6D5F",
"t. c #87705E",
"y. c #88705E",
"u. c #9B654E",
"i. c #A46A54",
"p. c #B36D53",
"a. c #A9735E",
"s. c #B3674A",
"d. c #8D5863",
"f. c #9D5D6E",
"g. c #A35360",
"h. c #A85663",
"j. c #A55A65",
"k. c #AB5965",
"l. c #AE5D6B",
"z. c #B05D6A",
"x. c #B05E67",
"c. c #AC5F70",
"v. c #866E62",
"b. c #9B646F",
"n. c #8A7763",
"m. c #957664",
"M. c #887C7A",
"N. c #9E707C",
"B. c #B6646F",
"V. c #A96C74",
"C. c #B66371",
"Z. c #B96672",
"A. c #BD6B77",
"S. c #AA707E",
"D. c #B0726E",
"F. c #C3717C",
"G. c #95816D",
"H. c #AB967E",
"J. c #D7906F",
"K. c #D59070",
"L. c #C88B6E",
"P. c #5A678B",
"I. c #5B6B8A",
"U. c #57668A",
"Y. c #7F7F8E",
"T. c #69789B",
"R. c #827C82",
"E. c #B97788",
"W. c #C47881",
"Q. c #9F9B9E",
"!. c #989397",
"~. c #9B918C",
"^. c #B78D82",
"/. c #AF9B82",
"(. c #BB9A86",
"). c #B3A599",
"_. c #B3B0B3",
"`. c #CF9E87",
"'. c #DC9E83",
"]. c #C58D9C",
"[. c #DCA688",
"{. c #D9AC98",
"}. c #D3B19B",
"|. c #EAB39A",
" X c #F0B99C",
".X c #C490A0",
"XX c #ECBCA3",
"oX c #F1BFA5",
"OX c #DBC0AC",
"+X c #DEC3B5",
"@X c #EEC3AD",
"#X c #F5CBB4",
"$X c #F6CFB8",
"%X c #F6D2BD",
"&X c #EBC5AF",
"*X c #BFB9C0",
"=X c #D9DADB",
"-X c #EAD0C1",
";X c #F2D5C5",
/* pixels */
"                                            E.V.                                                    ",
"                                        E.c.h.8.>.  V.                                              ",
"                                        V.h.g.7.:.V x                                               ",
"                                        b.=XR./ d.y                                                 ",
"                                        e *.I $ j l                                                 ",
"                                        o.5 j F ` ..7                                               ",
"                                        t.o.r.^.^.U =                                               ",
"                                        d n m ;.m r 7 _ ' n.                                        ",
"                                      H._ % p m & e d ' [ O.G )                                     ",
"                                  &Xy.r.X.G 7.:.V C ` +.O.` G 7.                                    ",
"                                ;XXXG.e.[ ' -.M.'  .'  .` S u C l.A.                                ",
"                                [.J.p.+.-X+X@X(.m.e.] S k $ & a T 1.x.                              ",
"                            $X@XJ.s.H %X#X#XXXm.`.y.X.[ k = O & T ,.v q.w.                          ",
"                          OX;X;X#X@XoX|.i.F L.m.M.e.O.X.D = $ $ y p T 8.8.                          ",
"                        ;X@XoX[.'.a.    s [ { e.~.o.X.[ D 4 = X     w.8.2.                          ",
"                        i.L.p.u.        ' O.o.O.o.[ X.[ _ s = =     k.q.,.u                         ",
"                                          n.X.X.+. .] ` D l 8 $ W.C.C.2.>.t                         ",
"                                          n.G.e.O.+.X. .8 F S 1 C.C.x.>.g >                         ",
"                                            n.t.e.O.X.X.8 8 s 0.M f T p t @                         ",
"                                            ] O.X. . .' 8 = = u % O @ u > @                         ",
"                                          /.' ' ' ] _ D 8 1 = =   b @ y %                           ",
"                                          o.m.e.X.X.O.O.X.S S 8     > @ +                           ",
"                                        d.h 7 F D _ D D S = X 5     & O O                           ",
"                                        4.3.N * O % % @ $ a C 1.                                    ",
"                                      U 3.} Y i y A t 1.9.x.x.w.                                    ",
"                                  .XE.4.3.} Y n C >.2.8.B.A.F.w.                                    ",
"                                E.d.} } | U y * > B 2.7.q.B.F.k.9.                                  ",
"                            ].f.5.| | U 5 5 O O O O r A 1.8.B.B.h.                                  ",
"                          b.3.} | U u t % + o o o   O @ Z 6.0.F.k.f.                                ",
"                          3.| R 7.g t @ $ X . .       O t 1.9.F.l.h.                                ",
"                      S.4.} 6.9.6.r > X , < . .         @ f T k.C.h.7.                              ",
"                    N.} 0.k.9.2.y O . 9 9 0 . .         + u M g.A.l.9.                              ",
"                    U Z.C.9.M > . X 9 K J , ,             t u 9.Z.C.w.                              ",
"                    U g.8.g > X - 9 E U.J , ,             O > <.g.z.w.                              ",
"                      B :.n % - < K E P.J 9 ,               @ u 9.0.z.2.                            ",
"                      C ;.n @ ; L E I.P.J , ,                 5 <.9.Z.h.R                           ",
"                      v g r + ; E @.T.P.9 - ,                   r i 0.h.T                           ",
"                      j q 3 ; <     I.U.- ; ,                   @ 5 1.8.1.                          ",
"                        !./ Q           , , , -                   O b ;.V t                         ",
"                        _.&.%.          : ; < -                     + % & I                         ",
"                        *XR.                                            0 #.Q.                      ",
"                        Q.%.3                                           #.&.~.                      ",
"                        ! q 6                                             *.=.!.                    ",
"                      $.1 X 1                                             q W W                     ",
"                    ^ ! w 2 2                                             1 2 w $.                  ",
"              ).(.! z q 6 2                                                   1 ! $.                ",
"              }.[.i.X = 2 1                                                   8 ! ^                 ",
"              ~ l 2                                                           6 W !                 ",
"                                                                              XX{.}.                ",
"                                                                              { l q                 "
};
