/* XPM */
static char *_26e2a037a3e4017aca28d1b178e1bcfbzneiqjqRwN75BZT[] = {
/* columns rows colors chars-per-pixel */
"50 50 198 2 ",
"   c None",
".  c #0E0F0D",
"X  c #0F100E",
"o  c #11110E",
"O  c #131411",
"+  c #171815",
"@  c #191917",
"#  c #1D1C1A",
"$  c #191716",
"%  c #211F1E",
"&  c #1F201C",
"*  c #22211E",
"=  c #252322",
"-  c #282724",
";  c #2C2A26",
":  c #2E2C2A",
">  c #312E2C",
",  c #2F312C",
"<  c #32312E",
"1  c #39342F",
"2  c #252B35",
"3  c #2C2E3B",
"4  c #242939",
"5  c #2B3539",
"6  c #363331",
"7  c #3A3633",
"8  c #373B32",
"9  c #3C3A33",
"0  c #31343B",
"q  c #3A3C3B",
"w  c #353C3D",
"e  c #403C37",
"r  c #423E3B",
"t  c #3E4236",
"y  c #3D433A",
"u  c #43443B",
"i  c #49443E",
"p  c #454A3D",
"a  c #4A4B3E",
"s  c #2B2D42",
"d  c #2B2F48",
"f  c #2E334B",
"g  c #2F3746",
"h  c #33364E",
"j  c #36384E",
"k  c #393B48",
"l  c #2F3551",
"z  c #333655",
"x  c #343956",
"c  c #353758",
"v  c #363A59",
"b  c #3A3D5C",
"n  c #393A54",
"m  c #3F414A",
"M  c #3E4545",
"N  c #3B425D",
"B  c #3B495A",
"V  c #374152",
"C  c #3E4060",
"Z  c #3F4B60",
"A  c #4B4541",
"S  c #444C43",
"D  c #4C4C43",
"F  c #444645",
"G  c #534E4B",
"H  c #504744",
"J  c #4D5144",
"K  c #45524A",
"L  c #4A544A",
"P  c #4B594E",
"I  c #455047",
"U  c #515345",
"Y  c #55544B",
"T  c #56594A",
"R  c #5B5C4C",
"E  c #59514E",
"W  c #43435B",
"Q  c #4A4855",
"!  c #5B5652",
"~  c #5E5C53",
"^  c #565157",
"/  c #635C55",
"(  c #645D5A",
")  c #5F6050",
"_  c #5E6953",
"`  c #636453",
"'  c #666957",
"]  c #6D6D5C",
"[  c #696559",
"{  c #71735F",
"}  c #434463",
"|  c #4C4A64",
" . c #484865",
".. c #4F516D",
"X. c #53536B",
"o. c #5A5A68",
"O. c #4E5170",
"+. c #5A5B73",
"@. c #5A5C79",
"#. c #575E75",
"$. c #514D65",
"%. c #655E6D",
"&. c #665F67",
"*. c #635D72",
"=. c #5F617C",
"-. c #6B6562",
";. c #686569",
":. c #736B65",
">. c #746B68",
",. c #79746A",
"<. c #676173",
"1. c #6B6574",
"2. c #62637D",
"3. c #6B667A",
"4. c #686977",
"5. c #736B79",
"6. c #716A74",
"7. c #7D7471",
"8. c #7F7A75",
"9. c #7B777B",
"0. c #837A75",
"q. c #847B7A",
"w. c #887C77",
"e. c #8B827B",
"r. c #8E8A7B",
"t. c #848378",
"y. c #95927B",
"u. c #7E7584",
"i. c #716C83",
"p. c #847C83",
"a. c #8E848A",
"s. c #938582",
"d. c #948A84",
"f. c #958C8A",
"g. c #998D8A",
"h. c #998C88",
"j. c #9C9184",
"k. c #9E9A83",
"l. c #9D918C",
"z. c #9F998E",
"x. c #938892",
"c. c #9E969A",
"v. c #8E8691",
"b. c #A09585",
"n. c #A2958C",
"m. c #A59A8B",
"M. c #A29591",
"N. c #A69994",
"B. c #A69B9E",
"V. c #A99E9A",
"C. c #A99E97",
"Z. c #9EA484",
"A. c #AAA38C",
"S. c #A4A289",
"D. c #A7A196",
"F. c #ACA49A",
"G. c #ACA792",
"H. c #B5AE95",
"J. c #B3AA9B",
"K. c #B9B296",
"L. c #B6B29C",
"P. c #BCB69A",
"I. c #B2AA8F",
"U. c #A89CA1",
"Y. c #ADA2A1",
"T. c #B2A5A3",
"R. c #B5ABA4",
"E. c #BAADA7",
"W. c #B6A9AA",
"Q. c #BCAEAA",
"!. c #BEB1AC",
"~. c #BEB9A8",
"^. c #C4BDA3",
"/. c #C2B3AE",
"(. c #C3BCAA",
"). c #C3B5B1",
"_. c #C5BAB3",
"`. c #BAC4A6",
"'. c #CAC5AC",
"]. c #CEC9AA",
"[. c #C6C5A6",
"{. c #D1C9AD",
"}. c #D1D2AD",
"|. c #CCC6B1",
" X c #D5CEB5",
".X c #CFD3B2",
"XX c #D6D2B4",
"oX c #DAD4B6",
"OX c #DADAB4",
"+X c #DDD5BA",
"@X c #DDDABB",
"#X c #E2DBBD",
"$X c #E3E1BD",
"%X c #E6DEC1",
"&X c #E5E1C1",
"*X c #E7E0C1",
"=X c #E9E1C3",
"-X c #EBE4C4",
/* pixels */
"                                                                                                    ",
"                                                    `.`.                                            ",
"                                              `..XXX@XOX@X.X                                        ",
"                                              OX&X&X&X&X&X$X$X.X                                    ",
"                                            OX$X%X&X&X-X&X&X&X$XXX                                  ",
"                                          }.@X&X&X%X-X-X-X&X&X&XOX].      =.#.} B B B               ",
"                                        ].OX@X@X#X%X%X-X-X-X&X&XOX].    o.=.N N N N N N B           ",
"                                        t.f.D. X@X@X%X-X&X-X-X@XOXP.r.X.=.Z b b v v v N N N         ",
"                                      r.q.a.5.%.x.|.+X#X%X%X%X+X^.H.o.2. .N v v x x v x v N B       ",
"                                    ~._.)./.).W.p.<.R.+X@X#X#X{.K.8.+.2.C b v v z x x x v N N B     ",
"                                    F.0.e.z.W./.).Y.1.c. X#XoX^.A.<.i.O.} b b v x x z l v v v B     ",
"                                  r.7 : - : q -.N.!.R.6.f. X^.H.9.i.*. .} } N b v x v z l x N V     ",
"                                ~.E.f.7.G = # = 7 8.R.Y.%.F.H.m.d.U.U.W.U.p.X.C C v v c l x v g     ",
"                              J.r.A D -.! $ $ ; = : ,.Q.q.( m.J././././././.Q.x.O.b v c x x g 0     ",
"                              z.q - # + O O # 8.( ; > q.f.G e./.E.0.>.W.Q./.!./.Y.X.C v v h 3 w     ",
"                            (.Q.f.~ & O . . $ ( B.0.: > w.( F.m.r - > g./ 6.R./.).Y. .C v d 0 y     ",
"                          ~.E.l.( > # O o o O $ A T.>.r w.s.( = % % r ^ # - 0.M.Q./.a.W j 3 q       ",
"                          :.9 : - % # # o o % @ # ( Y.w.s.J.e % $ # $ $ # 6 F , p./.Q.6.k q u       ",
"                        L.q 6 : < A -.G $ $ ( e = : p.w.C.s.% $ 6 -.o O O $ # & E E./.s.F i         ",
"                      '._.0.:.g.Q./.Q.7.% @ / l.6 E s.j./.E % % ,.G X X - O + # 7.E.E.s.E           ",
"                    L.|.!.Q.).).).)./.M.; % r B.n.w.s.M.:.; % ; ^ + . < 1 X o @ D T.N.h./           ",
"                  :.-.%.*.6.p.U.).).)./.E - : s.g.s.g.D ; - % $ + O # D o X > - : d.n.b.            ",
"                  [.|.(.N.q.%.*.u.T.)./.7.: : 0.d.n.N.E G ( ( 7 # + D 6 o X e % = -.b.b.            ",
"                $X=X&X@X#X#X_.d.3.3.U./.g.6 : -.s.W.)././.Q./.0.= # ; E # O O $ - w.b.              ",
"              OX-X-X-X-X-X#X#X+XL.9.1.U.E.7.>.s.N.).).).).).)./.0.- # - -.G $ % U j.                ",
"              $X-X-X-X-X-X-X=X#X+X(.9.*.B.W.s.s./.).).).).).).)./.g.> % 6 r ; e e.j.                ",
"            $X-X-X-X-X-X-X-X-X-X%X+X|.%.5.h.p.g.M.u.i.p.p.U.W./.)./.M.> * % / w.j.                  ",
"          OX-X-X-X-X-X-X-X-X-X-X%X+X XV.Q q.o.@.i.C } } O. .*.x.Q././.h.q ; i r.j.                  ",
"          OX$X$X#X$X-X-X-X-X-X-X%X#XoX(.! ^ X.i.} C b b C } } } 3.T././.C./ >.n.                    ",
"        OX+XoX#X#X#X%X-X-X-X-X-X%X#XoXH.w.W i.O.C c c c c c c }  .3.W././.n.n.b.                    ",
"      Z.A.y.y.P.].OX#X#X-X-X-X=X%X#X{.H.0.O.@.} c c c z c c c C C | v./.C.n.m.                      ",
"    _ ' ' ' [ ] 0.b.(.#X%X%X=X=X#X XP.m.X.i. .c c c z z z c c c c C o.C.n.m.                        ",
"    T T R R ) ` ` ' ,.I.oX#X#X#X@X[.I.6.+.+.b v x z z z z z z z c v W &.l.n.                        ",
"  P L J D U T R R ) [ ] S.{.OX+X].K.r.+.@.} v v z z z z z l z z z c z F j.                          ",
"  P p p a i A H U R ) ` ] I. X{.K.A.o.i...n v v z z z z l z l z z z 3 q r.                          ",
"  P p J u A A A D D T R ` ] H.^.I.,.$.~ Q m k j z z z z z x z l l s 3 q                             ",
"  P J p 8 < 6 7 r H a T R R ,.A.y.` ) R J Y D D m j z z x z l l d 4 0 y                             ",
"    I y > : : : > 9 H a a R R y.' U R U D D J U G A k z x l l f 4 4 0                               ",
"    K y , : ; ; > > u 1 U T T ` a a J U U U U U U J D m h l l s 4 3                                 ",
"      I 6 : : : ; > : 1 a a U a a u p p a A i D D U J D k h d 4 4 6                                 ",
"      K y , : ; ; > : 8 t u p p J p p u u i A A a U U J S g 2 2 2                                   ",
"        M y t , : > 9 u y y p L U a t 8 1 > e A a a a J D w 2 2 5                                   ",
"            I p t u D J J I     K L < , > : > < i i a a a J 2 2                                     ",
"                S I L I K       K J 8 , : ; : : > u t J a J 5 5                                     ",
"                                  K S , : : : ; : : 9 a p a y                                       ",
"                                    I p , : ; : : : t u y I                                         ",
"                                      S p 8 , : : t 8 t y M                                         ",
"                                          p p u p a t p S                                           ",
"                                                  J I                                               ",
"                                                                                                    "
};
