/* XPM */
static char *_b137a772ea54b85b6718c5ff727de5fS7Mzefahrb8Zg2jc[] = {
/* columns rows colors chars-per-pixel */
"50 50 2 1 ",
"  c None",
". c #D0000000",
/* pixels */
"                                                  ",
"              .                                   ",
"             ..                                   ",
"                      .                           ",
"      ..              .                           ",
"                .                                 ",
" .                                                ",
"                                                  ",
"                                                  ",
" .                      ...                       ",
"             ..        ....  .                    ",
"       ...   .          ...                       ",
"       ....        ..    .                        ",
"       ....                                       ",
"        .                                         ",
"                                                  ",
"                   ...  ...                       ",
"               ..  ... ....                       ",
"          ..            ...  ..                   ",
"         ....               ..                    ",
"          ..                ..                    ",
"   ..                       ..                    ",
"                             .                    ",
"                   .                              ",
"..                 .......                        ",
"..            ..      ....                        ",
".      ....   ..      ...                         ",
"       ....                                       ",
"       ....                                       ",
"                                                  ",
"                    ..                            ",
"                        ..                        ",
"       ..       ..     ....                       ",
"                       ....                       ",
" ..                    ...                        ",
" ..                                               ",
"               .                                  ",
"              ..       ..                         ",
"       .               ..                         ",
"                       .                          ",
"          ..         ..                           ",
"   ...   ....    .. ...                           ",
"  .....  ....    ..   .   ..                      ",
"   ...     .      ..       .                      ",
"   ..              ..                             ",
"                   .                              ",
"  ..        .                                     ",
"  ..                                              ",
"                                                  ",
"                    ..                            "
};
