/* XPM */
static char *af9fe229c382433082185dfe31e692dc8L9tlsGvDAkhgLaq[] = {
/* columns rows colors chars-per-pixel */
"50 50 164 2 ",
"   c None",
".  c #2E251E",
"X  c #32261E",
"o  c #34291E",
"O  c #3A291E",
"+  c #2F2620",
"@  c #322720",
"#  c #362A22",
"$  c #3B2D23",
"%  c #3E2F28",
"&  c #3E3126",
"*  c #3D3229",
"=  c #46321F",
"-  c #422E23",
";  c #433225",
":  c #4A3426",
">  c #4D3927",
",  c #443529",
"<  c #4A3629",
"1  c #46392C",
"2  c #4C3A2D",
"3  c #543627",
"4  c #593725",
"5  c #553925",
"6  c #583924",
"7  c #523629",
"8  c #533C2C",
"9  c #5A3D2D",
"0  c #4D3D31",
"q  c #533E31",
"w  c #5B3F30",
"e  c #603726",
"r  c #653D2C",
"t  c #623F30",
"y  c #53402F",
"u  c #5C422D",
"i  c #4E4132",
"p  c #4F4538",
"a  c #544233",
"s  c #5B4433",
"d  c #574836",
"f  c #5D4935",
"g  c #564639",
"h  c #5B4739",
"j  c #54493A",
"k  c #5C4B3A",
"l  c #5E513E",
"z  c #604327",
"x  c #64432D",
"c  c #6C472D",
"v  c #6B4B2F",
"b  c #70482F",
"n  c #7C512F",
"m  c #624532",
"M  c #6A4634",
"N  c #644A35",
"B  c #6B4C35",
"V  c #604738",
"C  c #634D3A",
"Z  c #6B4E3A",
"A  c #724C35",
"S  c #7B4B34",
"D  c #724F3A",
"F  c #794F3A",
"G  c #65513D",
"H  c #6C523C",
"J  c #745136",
"K  c #7A5236",
"L  c #73533C",
"P  c #7B553B",
"I  c #73593E",
"U  c #7C593D",
"Y  c #5F4D41",
"T  c #604F41",
"R  c #635343",
"E  c #6A5541",
"W  c #655945",
"Q  c #6C5944",
"!  c #6B5B4B",
"~  c #735641",
"^  c #785640",
"/  c #745A42",
"(  c #7B5C43",
")  c #745D4A",
"_  c #7B5F49",
"`  c #766446",
"'  c #7E6246",
"]  c #7B634C",
"[  c #786252",
"{  c #7B6A5C",
"}  c #824F37",
"|  c #845337",
" . c #8B5036",
".. c #865A37",
"X. c #83553A",
"o. c #8B563B",
"O. c #835B3D",
"+. c #8B5A3D",
"@. c #95573C",
"#. c #935E3C",
"$. c #8E613E",
"%. c #92603B",
"&. c #835C42",
"*. c #8C5D42",
"=. c #955F44",
"-. c #836245",
";. c #8B6344",
":. c #8D6847",
">. c #83644A",
",. c #8B654A",
"<. c #86684A",
"1. c #8C6A4B",
"2. c #926444",
"3. c #906A41",
"4. c #9A6B45",
"5. c #946349",
"6. c #936B4B",
"7. c #9A6C4B",
"8. c #8F714D",
"9. c #97724F",
"0. c #9C714D",
"q. c #846651",
"w. c #846A54",
"e. c #8E6D54",
"r. c #816A5A",
"t. c #8A6E58",
"y. c #956B50",
"u. c #8F735E",
"i. c #967151",
"p. c #9D7452",
"a. c #9F7955",
"s. c #9D7458",
"d. c #A66D44",
"f. c #A3724C",
"g. c #AA744F",
"h. c #A6794A",
"j. c #AD7B4D",
"k. c #B27B4F",
"l. c #A17455",
"z. c #A97651",
"x. c #A37954",
"c. c #AA7C52",
"v. c #A57B5E",
"b. c #B47C51",
"n. c #BA7F50",
"m. c #897665",
"M. c #877A6F",
"N. c #8B786B",
"B. c #937A65",
"V. c #917B6B",
"C. c #B38256",
"Z. c #BA8151",
"A. c #9F8060",
"S. c #AC8664",
"D. c #A2836C",
"F. c #BE8D63",
"G. c #B39269",
"H. c #BA947A",
"J. c #C08454",
"K. c #C58857",
"L. c #C9996C",
"P. c #D19E70",
"I. c #B49D8E",
"U. c #CFAB8B",
/* pixels */
"                                                                                                    ",
"                                                                                                    ",
"                                                                                                    ",
"                                      G.        L.h.      x.F.S.L.P.                                ",
"                                  ) &.h.j.-.' f.Z.X.J :.x K.Z.O.L %.U.                              ",
"                          B./ [ u B &.&.L f.b U / ~ u P H 4.z.p.N -.;.H.                            ",
"                        0.:.M E s =.p.&.Z.Z.4.$.-.H 0.h.O.j.6.;.9 6.=.&.,.,.                        ",
"                    O.&.^ P *.l.H 2.7.( :.u f.j.C.P 0.j.U -.S J $ 8 w ~ *.&.y.                      ",
"                  5.J &.x B 7.L x 7.f.C U K j.k.C.6 x 9.: s U v -.( x - ; : =.*.>.                  ",
"                r.L 9 ;.;.-.r $ z.z.:., x +.b.+.;.J > ( c.N N 4.6.+.+.B $ K M =.m y.                ",
"                ] _ &.=.1...v.f U m N 6.x.y P ;.;.u :.Z.Z.J : | x M ..+.F &.A 9 < y.7.              ",
"              ) Z e.&.,.u X.B > ; > -.0.9.u B L ( > :.b.j.u y x :.4 P *.&.9 Z O 4 &.7.s.            ",
"              ~ Z ^ Z D 9 8 f G ; ' ;.y.H 0.B 1.c.x.P #.n 8.$.c b.+.3 &.&.: 2 2 P B ( ,.            ",
"          M.R i q ~ s m ' 1.L f C U / H ' x.( ;.j.h.b d.J 9.j.%.k.g.= o w < : < ^ s N /             ",
"          d ! 2 _ G 2 I ' 8 G u 8 u 9 L p.f.v x k.d.6 O.( -.4.9.:.+.A ; 2 Z &.P N 8 , g             ",
"        { f , a ( Z s Z N H ~ G 8.( o -.2.O.B u U ..= > 9 v 6.:.U P P - M 9 ( ^ 8 w a * C ]         ",
"          j j k ' ; N N C <.B / 1.B - 7.;.-.> < ( &.Z P B 5 6.1.M J U o 8 > L P 8 a ~ < & G         ",
"        H G 0 i N l h s I <.N ( f 1 s 4.*.B < ; B K u 1.f.X.U U o < B o 0 - $ ( E < k Q < a I       ",
"        I E ; 2 ` k < f P ' V q & , : v F B 8 ; K o.M / 4.U m L o q a < s G a E G ; < 2 2 < 5 m.N.  ",
"        G h $ s ] l o G L H N $ # C i.1.; - : w *.#.c 5 2.K O 8 -.9 > m H I Z s Z $ $ , C 8 Q s [   ",
"      w.N ; # k ' i * G L B e.9 s 0.0.0.C & x w 9 X.m < ;.U ( m P D m < s N B < a $ G a G G B I 8   ",
"    B.s V G 0 s N 2 i Z I I L y -.0.0.0.G O / ; ; 8 - $ :.f.f.O.B P m 8 1 2 8 1 k ; G ; B Z u H     ",
"    ] < / m 2 a N 2 a I I -.s u 0.0.0.a.& N 1.< &.;.8 F K 7.7.F 8 L ; > O h * 1 C 0 H 2 s Z s 1     ",
"  u.~ a H 1 1 i a / y Z / f 2 U 0.9.;.U ; -.:.s F o.c o.m B m 9 o % @ 2 $ a G , a > L 9 < N U ; V.  ",
"  t.N s C + * g d s $ k , 1 ; 1.;.U J Z ; -.;.Z M S t S t M X.5.: o , ~ a ! ~ & , : Z N O Q U < h   ",
"  Q < h h k G q N a & G ` I O ) U O.&.< $ >.5.t - w 7 r - F o.o.O.N , 2 < f H a , 2 y & . # g , 0   ",
"  s 1 a a a a k G k i G * 2 0 . & y - @ $ P } r - =.o.9 ; A o.X.B G 2 C & s a & 1 d l 1 a . p j a   ",
"  E q q 0 0 2 h k 1 i G o , 0 a ' G a # q L } r r @.@.: O s P P m C f / 8 k 1 a f Q G y k $ 0 i a   ",
"  ! 8 y k 1 ; a i o i C @ # $ ` >.( <.2 s D P t 4  .o.< . : A A $ 1 q / I , d ` G f f u 2 j * j !   ",
"  j < 8 k # 0 h l * 1 j @ < 0 ' >.>.I 1 9 F K 4 r } F < . # 7 < h 2 2 h ] . i / B f f ; G R , {     ",
"    < a 0 0 C k a i j 0 1 2 G ' ' ' I 2 H X.r 9 4 } D w w @ - ^ ( > ; # Q o 2 s C u > * R T i       ",
"    < h a s j C , i l p * i 2 ( I ( >.2 &.&.o.3 - F w w Z + , ^ ~ 2 a f # j l s d , o i 0 T C       ",
"      < H 1 i d o , , j p 2 , H I ( >.s &.+.*.3 O ; - w Z ; w ^ Z : E H * j Q 2 2 & * @ 1 k G       ",
"        u G H G i 1 d k i & i s ~ -.E C &.*.o.8 # - - q w % T ~ C 2 Q H 2 k G & * p a o * j G       ",
"        v f Q G a a H k 2 G G y Z L q Z L o.+.w $ s q ; % - s Z w k g C 2 a k 2 * W f # * a )       ",
"        N ; a G i G I j k Q 1 > s q ; q D L x Z L D 0 @ ; q ; 2 ; ; 2 s , 2 y W 1 2 G < * a [       ",
"            a < & H G y G G 2 $ 0 @ # $ < 8 ~ P Z a < < Z Z E $ o $ # 0 @ 0 a R a $ G a # *         ",
"            y , a Z m & H I 2 . % 8 w $ # C L M s w $ C Z D Z $ R q # , + 0 a k k & G C $ 1 ( /     ",
"            / s , 2 ; i H H 1 # h m ~ N - ; ; $ 1 % 1 D D L L % Q C N q , 2 a s N # G G C M {       ",
"              a & i H 2 C k o a Z L w @ $ $ + X $ @ q Z L L t ; R s G 2 1 , q s g , C H L           ",
"                  E G 2 a ; 0 s C s m + w V N 0 2 # h Z - q 7 1 ! k N a R # 8 s 2 1 , E             ",
"                      < O k C H N 8 s # Z L C 0 , C 8 a 0 ; # 0 G N s a 0 & $ 0 2 1 C               ",
"                      ! , 8 s H E 9 s q ~ I ~ s ; ~ 8 $ a q # 0 s N s q & 0 # k   A                 ",
"                      ) 1 a q G N w a a L P L < < D < Z ^ ~ @ , q q s a . d )     (                 ",
"                        ! r.Y 2 y f H N N P / $ q 2 2 L L P $ ; ; * s 8 @ R                         ",
"                            g I.L h C u , N 8 2 L ^ s u J B $ # k # 1 [                             ",
"                                    2 j 1 2 O L P B h 2 u u $ 1 l 2 d H D.                          ",
"                                          T   t.q.      [ !                                         ",
"                                                                                                    ",
"                                                                                                    "
};
