/* XPM */
static char *_90156a81b1549eff87a5540bda248f4YOGrBZIQjOpmfyNI[] = {
/* columns rows colors chars-per-pixel */
"50 50 2 1 ",
"  c None",
". c #010002",
/* pixels */
"                                                  ",
"                         .                        ",
"                        ..                        ",
"                       ....                       ",
"                       ....                       ",
"                       ....                       ",
"                      ......                      ",
"                      ......                      ",
"                     ........                     ",
"                    ..........                    ",
"                    ..........                    ",
"                    ..........                    ",
"                   .......... .                   ",
"                      ......                      ",
"                       ....                       ",
"                       ....                       ",
"                       ....                       ",
"                       ....                       ",
"                       ....                       ",
"                     ........                     ",
"          ...       ..........        ..          ",
"         ....      ............      ......       ",
"      ........     ...... ......    ........      ",
"   .....................   ....................   ",
"  .....................     ..................... ",
" .....................      ..................... ",
"   ....................    ....................   ",
"      ........     .....  .....     ........      ",
"       ......      ............      ......       ",
"         ...        ..........        ...         ",
"            .        ........                     ",
"                      .....                       ",
"                       ....                       ",
"                       ....                       ",
"                       ....                       ",
"                       ....                       ",
"                      ......                      ",
"                     ........                     ",
"                    ..........                    ",
"                    ..........                    ",
"                     .........                    ",
"                     ........                     ",
"                      .......                     ",
"                      ......                      ",
"                       .....                      ",
"                       ....                       ",
"                       ....                       ",
"                        ..                        ",
"                        ..                        ",
"                         .                        "
};
