/* XPM */
static char *a6e4e7a563da4a7d9fd47c447f3748d5P0qzCNMVGYEoUdW4[] = {
/* columns rows colors chars-per-pixel */
"50 50 2 1 ",
"  c None",
". c #010002",
/* pixels */
".                                                .",
" ...                                          ... ",
" ......                                    ...... ",
" .........                              ......... ",
"  ..........                          ..........  ",
"  .............                    .............  ",
"  ...............                ...............  ",
"   ..............                ..............   ",
"   ..............                ..............   ",
"   .............                  .............   ",
"    ............                  ............    ",
"    ............                  ............    ",
"     ............                ............     ",
"     .............              .............     ",
"     ..............            ..............     ",
"      ..............   ....   ..............      ",
"      ...   ..........................   ...      ",
"             ........................             ",
"              ......................              ",
"               ....................               ",
"                ..................                ",
"                ..................                ",
"                .......    .......                ",
"               .......      .......               ",
"               .......      .......               ",
"               .......      .......               ",
"               .......      .......               ",
"                .......    .......                ",
"                ..................                ",
"                ..................                ",
"               ....................               ",
"              ......................              ",
"             ........................             ",
"      ...   ..........................   ...      ",
"      ..............   ....   ..............      ",
"     ..............            ..............     ",
"     .............              .............     ",
"     ............                ............     ",
"    ............                  ............    ",
"    ............                  ............    ",
"   .............                  .............   ",
"   ..............                ..............   ",
"   ..............                ..............   ",
"  ...............                ...............  ",
"  .............                    .............  ",
"  ..........                          ..........  ",
" .........                              ......... ",
" ......                                    ...... ",
" ...                                          ... ",
".                                                ."
};
