/* XPM */
static char *_6847585d3874e3cd2d7b11be71e6d363hDTPtsfjEjGZkaR_0[] = {
/* columns rows colors chars-per-pixel */
"59 95 256 2 ",
"   c None",
".  c #1D0708",
"X  c #1B080A",
"o  c #190506",
"O  c #240606",
"+  c #2B0705",
"@  c #2C0806",
"#  c #240A0A",
"$  c #2A0B0B",
"%  c #230708",
"&  c #310907",
"*  c #320C0B",
"=  c #390F0F",
"-  c #39100F",
";  c #350F10",
":  c #2A1414",
">  c #351111",
",  c #3A1213",
"<  c #3D151A",
"1  c #36191A",
"2  c #290E12",
"3  c #3E2A2A",
"4  c #421516",
"5  c #44161A",
"6  c #4A171B",
"7  c #461A1B",
"8  c #4C1A1C",
"9  c #4A1716",
"0  c #531C1D",
"q  c #591A1C",
"w  c #58191A",
"e  c #40100E",
"r  c #7F1A1D",
"t  c #611E1D",
"y  c #59211F",
"u  c #43211F",
"i  c #69201D",
"p  c #4C1B23",
"a  c #4F1C29",
"s  c #461720",
"d  c #521D23",
"f  c #5B1E21",
"g  c #521F2A",
"h  c #601F26",
"j  c #4C2223",
"k  c #492829",
"l  c #552123",
"z  c #5C2325",
"x  c #562229",
"c  c #5C2329",
"v  c #5A2A2D",
"b  c #5B2C32",
"n  c #562E36",
"m  c #483333",
"M  c #58383B",
"N  c #4E2E30",
"B  c #632525",
"V  c #6B2524",
"C  c #652927",
"Z  c #6C2A27",
"A  c #622629",
"S  c #692628",
"D  c #652929",
"F  c #6C2C2A",
"G  c #722625",
"H  c #7A2523",
"J  c #732B27",
"K  c #7C2B27",
"L  c #732C29",
"P  c #7C2D29",
"I  c #782628",
"U  c #6C312C",
"Y  c #66312E",
"T  c #72312D",
"R  c #7B322E",
"E  c #643333",
"W  c #633B3C",
"Q  c #6D3C3A",
"!  c #693635",
"~  c #733431",
"^  c #7C3332",
"/  c #773C39",
"(  c #6D413F",
")  c #5B3841",
"_  c #643A42",
"`  c #5A4646",
"'  c #4D4546",
"]  c #634545",
"[  c #6B4544",
"{  c #634B4A",
"}  c #684A4A",
"|  c #724C4D",
" . c #784745",
".. c #6A504E",
"X. c #77504C",
"o. c #684E51",
"O. c #6C5C5C",
"+. c #6A5454",
"@. c #745453",
"#. c #7C5453",
"$. c #745B5C",
"%. c #7A5D5C",
"&. c #7D5957",
"*. c #78605E",
"=. c #785F60",
"-. c #7C6564",
";. c #796867",
":. c #797173",
">. c #85191A",
",. c #9A1B1D",
"<. c #B50E1A",
"1. c #A51C1C",
"2. c #B9161B",
"3. c #A4221F",
"4. c #961D22",
"5. c #8C1F2B",
"6. c #A91C28",
"7. c #B31321",
"8. c #BB1524",
"9. c #BB1B2C",
"0. c #B81A29",
"q. c #842B26",
"w. c #842E29",
"e. c #892827",
"r. c #972628",
"t. c #83312C",
"y. c #8B332E",
"u. c #94312E",
"i. c #833531",
"p. c #8C3632",
"a. c #8C3A35",
"s. c #833E3A",
"d. c #863B36",
"f. c #933531",
"g. c #9B3333",
"h. c #923B36",
"j. c #943D39",
"k. c #9D3E39",
"l. c #9B3A36",
"z. c #982A33",
"x. c #A4232B",
"c. c #AC242B",
"v. c #A52C2E",
"b. c #A52725",
"n. c #B5232B",
"m. c #BB212D",
"M. c #AC2C33",
"N. c #A62E32",
"B. c #B12530",
"V. c #A23D3A",
"C. c #A33938",
"Z. c #AB3436",
"A. c #D70D0F",
"S. c #CE0F19",
"D. c #D20D12",
"F. c #DC0C16",
"G. c #D30D1D",
"H. c #DB0B1A",
"J. c #DD0713",
"K. c #CC111C",
"L. c #C6161A",
"P. c #D11218",
"I. c #E6060D",
"U. c #ED050C",
"Y. c #E60A0E",
"T. c #E9090C",
"R. c #F0040A",
"E. c #E60613",
"W. c #E90611",
"Q. c #E20A13",
"!. c #E90810",
"~. c #CA0F20",
"^. c #D10F20",
"/. c #C31423",
"(. c #CB1223",
"). c #C21629",
"_. c #C81A25",
"`. c #D31422",
"'. c #E01820",
"]. c #C92127",
"[. c #CE3034",
"{. c #8B423D",
"}. c #81423E",
"|. c #98403C",
" X c #A1403D",
".X c #9E3E45",
"XX c #A93840",
"oX c #864945",
"OX c #954C46",
"+X c #9B4844",
"@X c #9A4847",
"#X c #82524E",
"$X c #8A514D",
"%X c #94524C",
"&X c #885956",
"*X c #9E5A54",
"=X c #985856",
"-X c #B7474C",
";X c #AB4E54",
":X c #AD5555",
">X c #87625D",
",X c #93625D",
"<X c #9B625C",
"1X c #A4635E",
"2X c #836563",
"3X c #836965",
"4X c #846B69",
"5X c #8C6967",
"6X c #956661",
"7X c #946964",
"8X c #936C68",
"9X c #9D6B67",
"0X c #94736E",
"qX c #99716C",
"wX c #8A7674",
"eX c #867978",
"rX c #977875",
"tX c #88716F",
"yX c #A76A65",
"uX c #A3746D",
"iX c #AB736D",
"pX c #A47873",
"aX c #B47B7A",
"sX c #8C8485",
"dX c #8A8888",
"fX c #948886",
"gX c #9F908F",
"hX c #A89998",
"jX c #B19896",
"kX c #B2ADAD",
"lX c #C19D9D",
"zX c black",
"xX c black",
"cX c black",
"vX c black",
"bX c black",
"nX c black",
"mX c black",
"MX c black",
"NX c black",
"BX c black",
"VX c black",
"CX c black",
"ZX c black",
"AX c black",
"SX c black",
"DX c black",
"FX c black",
"GX c black",
"HX c black",
"JX c black",
"KX c black",
"LX c black",
"PX c black",
"IX c black",
"UX c black",
/* pixels */
"                                            9.                                                                        ",
"                                            (.                                                                        ",
"                                            G.                                                                        ",
"                                      (.(.  G.                                                                        ",
"                                      G.G.  G.                                                                        ",
"                                      H.^.).G.G.                                                                      ",
"                                F.H.  H.G.(.H.H.G.                                                                    ",
"                                Y.F./.F.Y.E.E.Y.Q.H.                                                                  ",
"                /.              F.F.F.Y.T.R.R.U.Q.G.                                                                  ",
"                (.(.            G.H.Q.T.U.R.R.W.J.G.G.                                                                ",
"                G.G.            G.G.G.D.D.D.D.S.K.D.H.                                                                ",
"                D.D.        Y.  H.^.0.4.H H >.e.b.S.J.                                                                ",
"                D.D.        J.H.H./.e.h x D B ~ i.3.G.H.                                                              ",
"                            J.H.H.2.B a x D S / s.y.0.(.G.                                                            ",
"                            U.F.H.<.d g A F T d.j.h.N._.F.                                                            ",
"                          Y.W.E.F.7.B D ~ / d.d.a.j.N.L.Q.H.                                                          ",
"                        Y.T.U.U.Q.7.S S #XrX0X0XpXaXZ.P.T.Q.                                                          ",
"                        Q.T.U.R.E.7.B B &XhXgXhXkXlX-XP.U.Y.                                                          ",
"                G.(.).^.    U.R.W.<.w x ^ OXyXjXhXyXC.K.I.Y.                                                          ",
"                G.G.~.  G.Q.U.U.I.<.6 g A R OXiXiX+XC.L.R.U.T.                                                        ",
"                H.H.G.G.G.H.H.[.[.,.9 p c F d.9XpX%Xk.L.I.W.T.T.                                                      ",
"                H.G.^.(./.7.6.*X*Xs.l p d D s.rXfX6XOXM._.K.F.Q.E.                                                    ",
"                    n.n.e.S h v | *.[ j , l / 6X6X .} &X*Xu.8.^.F.I.T.F.G.Q.                                          ",
"                  L.r.w.K Z D g x } wXM s p j Q / E %.0XqX&Xf.b.n./.G.G.^.Q.                            (.).9.m.9.    ",
"                T.L.u.i.y.y.i.S l ` eX) p x 8 l z A X.>X3X2X#X%X*X;XXXx.7.G.G.                          /.6.r.r.x.0.  ",
"              F.Q.].V.V.V.V.k.w.Q +.O.k 8 S F l 8 B F Q ] { 4X0XrXsX%./ p.M.9.(.F.8.x.b.1.r.q.  P G P g.1.r x A K q.  ",
"  Y.Y.      W.I.G.m.V.V.k.k.h.L W ` x z z A F D 8 e G B p b %.-.@.@. .#X8X9XOXu.r.I B q w B c g A c f f h f p l A c g ",
"  T.U.Y.(.F.U.U.2.r.y.f.p.L F | +.] V J L F A L B 5 B B d x } ;.;.-.2X2X*.[ E B B d b [ E ~ ^ ^ i.^ L B V V z c x x   ",
"Y.U.R.Q.K.F.R.I.v.R i V U W _ $.O.} t.y.y.P c L L p x A A x { O.$.$.%.+.M 8 9 9 7 j | 7XoXh.l.k.k.j.p.q.w.P F c x     ",
"W.U.R.E.D.A.I.`.*X..j j M -.4X| { } i.a.p.P A G V x g A D x $.` , 7 8 p 8 8 6 9 p W &XyX|.N.N.C.                      ",
"  U.R.  S.J.'.:X5X:.sXsXwXtX-.N p _ ,X{.w.w.P F D B 8 z B x 2X} 5 5 t G G i w 8 z r.;XyXV.M.B.                        ",
"        F.J.`.-X8XeXeXeXwXwX-.u $ k -.&XoX^ t.F D D , 0 C v 2X#.A I 4.2.2.2.>.  B 7.-XyXC.B.                          ",
"        F.H.~.6.=X3XO.O.;.-...7 $ 1 ' ;.4X#Xi.F S F , 8 U Q 4X#.P N._.E.W.R.                                          ",
"        ).^.<.q ! >XdXdXeX{ , d c d 1 ' :.rX+XL S P 4 6 ! 2X4X .>.8.                                                  ",
"        ).7.r 4 7 k m m 3 m { ] E Z D E [ #X<X/ F R 4 , x Q ( ~ e./.                                                  ",
"        K.,.w 4 , * + O o 1 o.;.%.#X$X~ V R %X/ R i.4 , g V V C G L.                                                  ",
"      H.L.>.5 5 4 = @ @ @ > n :.wXqX8XoX^ t.K w.y.i.7 < c P F b b                                                     ",
"    Q.G.b.V 5 , = * & & * k O.) _ &.qXqX8X,X{.t.w.P 4 < d F ( +.-.                                                    ",
"  K.].-X=X| n 7 * + & , , N $.;.-.@. .#X7XrX,Xs.J L 4 , 8 D ] | j.(.                                                  ",
"    Z.1X8X&X ._ N 1 = 4 5 p W 4XwX2X| X.&X>X,X$Xs.T 4 , d S W ^ 6.G.                                                  ",
"      |.|.k.+X6X-.` 7 9 6 7 p Y #.wXsXeX#.~ }.<X*Xi.6 7 B K D e.9.                                                    ",
"      j.k.V. X+XOX .W p 9 5 7 { ;.O.M *.&X}.<XiX*XP g 8 q K / z.).                                                    ",
"      y.f.l.V.V.f.~ n p 5 5 8 M o.@.o.#.$X<XuXiX*XP L 0 9 K #X.X9.                                                    ",
"      e.w.f.V.V.f.I g 8 7 6 6 7 v  .2X#X=XiXuXiX*Xt.t.0 4 P &X@X0.                                                    ",
"        w.p.j.k.k.i.B 8 7 7 7 5 l F R &XqXuXuXiX*Xt.t.0 5 L s.l.M.                                                    ",
"      G.v.p.p.j.p.y.i.S 9 - , 4 y L h.6XrXqXuXpX=XF P 0 , F T p.C.                                                    ",
"      G.m.c.r.y.t.p.j.p.0 @ = 4 z L a.%X9XpXuX<X( l P 0 4 F B R C.                                                    ",
"        G.(.6.H P y.j.k.w + * 5 B P w.p.=XuXiXoXi 6 J B 0 F 8 Z g.).                                                  ",
"        H.H.  D Z L y.w.9 $ , p F w.w.w.OXuXuX .0 6 G V B Z 9 l w.0.                                                  ",
"        H._.d.D l q f f , * 5 l L w.w.w.a.OX{.F l z Z F F Z d g F g.                                                  ",
"        H.n.i.A 8 5 7 5 , - 8 B R y.y.y.p.p.G B A F U T L D c g x y.c.                                                ",
"        G.6.F c 8 9 7 5 5 5 8 J y.h.j.h.h.^ c B F F F F Z D A 8 0 q.8.^.                                              ",
"          H D x 8 9 6 9 7 7 8 Z t.y.y.h.p.Z 8 l D D D D D C C 8 5 L v.n.                                              ",
"            B d 8 9 9 9 6 6 d G P w.w.h.R 8 4 l D A A A D D B 6 , c p.C.                                              ",
"          A x 8 9 9 9 9 9 8 c J q.w.y.a.S , , l D D D D D D D 6 ; p R N.                                              ",
"        Z z g 8 9 9 9 9 9 8 A P w.y.a.^ 8 $ > z F F F F U F U 8 $ 5 G 3.L.                                            ",
"          d 8 6 9 9 6 6 9 d A w.y.p.w.z > # > z L J J L L L T 8 $ s B q.r.              9.                            ",
"            9 9 9 9 6 6 9 p c J t.^ V 4 $ # > y L J J J G G T 8 $ 5 l Z w.              9.                            ",
"            6 6 6 9 6 6 9 p c F L F z = + $ , z L G J J G L T 8 $ , p A P               /.                            ",
"              6 6 6 6 6 6 d c F F S C , + @ > l D C Z Z L L T 8 $ 4 l D Z               D.                            ",
"                        9 0 F L F F Z , + @ # > , 6 8 0 d c A < # 4 B Z Z P             Q.                            ",
"                          z F J L L Z , + + . X # , 4 , > < < 2 X 4 B Z S q.            W.                            ",
"                            S G G J Z , % @ # o # , 4 > # . X o X 4 B S A q.            Y.                            ",
"                            A L L J Z , % @ $ . # , 4 = + # . o # 5 B F c S                                           ",
"                            A L L J Z , % @ $ # $ 4 5 = @ @ . o $ y Z Z c c                                           ",
"                            D L L L Z > % @ $ $ ; 9 5 = @ @ # o $ B J Z x g                                           ",
"                            D L L L F > O @ @ * , 9 5 - & @ # X 2 B J S x 8                                           ",
"                            D L J L F > X $ * , 5 9 5 = @ # # X 2 B J S c                                             ",
"                            D Z G L F > . $ , 5 8 5 , $ # # # X $ B L D c                                             ",
"                              D F J Z , $ , 6 8 5 , $ # # # # . $ B F D g                                             ",
"                              D S G G 5 7 B C 0 4 , > * @ # # # > z Z Z                                               ",
"                                A S L z z F Z 0 4 , , ; * * * > 5 l A                                                 ",
"                                d d z c D F C 0 4 , , , , , 5 5 6 g                                                   ",
"                                  4 , 8 x D c d 4 , ; > , 5 p p 9                                                     ",
"                                    > , 5 p x d 5 4 * = , 7 a a                                                       ",
"                                    > > 5 g x 0 8 s * @ * - 7                                                         ",
"                                    , , 7 c c 0 p p * + @ *                                                           ",
"                                    , , 8 A x 8 p p * + $ ,                                                           ",
"                                    5 , 8 D g p p p * * >                                                             ",
"                                    7 , 8 D p 6 p p - , 5                                                             ",
"                                    7 , 8 z 8 9 p p , 4 9                                                             ",
"                                    7 , 7 g 8 9 6 7 , 4 9                                                             ",
"                                      > 5 a 6 9 5 , , 5 6                                                             ",
"                                      > 5 a d d 5 * = 5 6                                                             ",
"                                      , 5 g c c 5 @ * , 7                                                             ",
"                                      , 6 c c     @ @ , 5                                                             ",
"                                      > 6 c g       @ * = 4                                                           ",
"                                      , 8 c g       * @ * ,                                                           ",
"                                      5 d c g       > * * =                                                           ",
"                                    , d c c x         > * @                                                           ",
"                                    , l A c                                                                           ",
"                                    , d c c                                                                           ",
"                                    * 5 p g                                                                           ",
"                                    $ > 5                                                                             ",
"                                      *                                                                               "
};
