/* XPM */
static char *_6847585d3874e3cd2d7b11be71e6d363hDTPtsfjEjGZkaR_10[] = {
/* columns rows colors chars-per-pixel */
"63 85 256 2 ",
"   c None",
".  c #1B0403",
"X  c #190504",
"o  c #240603",
"O  c #290705",
"+  c #2B0A06",
"@  c #240A0A",
"#  c #2D0C0A",
"$  c #250A07",
"%  c #330E0C",
"&  c #3B0E0D",
"*  c #390706",
"=  c #35100F",
"-  c #3C110E",
";  c #3A0E12",
":  c #351112",
">  c #3B1314",
",  c #3D1519",
"<  c #3B181B",
"1  c #2B1217",
"2  c #39201E",
"3  c #382222",
"4  c #440D0C",
"5  c #590E13",
"6  c #431516",
"7  c #4A1917",
"8  c #44161A",
"9  c #4C161A",
"0  c #46181B",
"q  c #4A1A1B",
"w  c #491416",
"e  c #531316",
"r  c #5C1215",
"t  c #52161A",
"y  c #5B141B",
"u  c #531B1D",
"i  c #5B1B1D",
"p  c #45100F",
"a  c #621519",
"s  c #6B151A",
"d  c #641A1C",
"f  c #6B1C1C",
"g  c #661215",
"h  c #75151A",
"j  c #7E151A",
"k  c #75181A",
"l  c #7A1618",
"z  c #52201F",
"x  c #7E201E",
"c  c #431C21",
"v  c #4D1B21",
"b  c #4C1720",
"n  c #551C22",
"m  c #5B1C24",
"M  c #5D1D2A",
"N  c #541924",
"B  c #641C24",
"V  c #6A1F23",
"C  c #631E2C",
"Z  c #6C1F2A",
"A  c #621622",
"S  c #761D25",
"D  c #651F30",
"F  c #4A2224",
"G  c #4A292A",
"H  c #462524",
"J  c #542122",
"K  c #5C2224",
"L  c #5C222A",
"P  c #58272B",
"I  c #493438",
"U  c #5B3B3C",
"Y  c #5A3436",
"T  c #5D2932",
"R  c #632324",
"E  c #6D2425",
"W  c #64232B",
"Q  c #6B232B",
"!  c #652A2A",
"~  c #6B2A2B",
"^  c #6F2827",
"/  c #722425",
"(  c #7D2222",
")  c #752827",
"_  c #72252B",
"`  c #732B2A",
"'  c #792C2B",
"]  c #7E2529",
"[  c #79302F",
"{  c #652134",
"}  c #6C2532",
"|  c #6B2B33",
" . c #662C36",
".. c #722C31",
"X. c #782B33",
"o. c #623A3B",
"O. c #673437",
"+. c #743232",
"@. c #7B3434",
"#. c #7D3837",
"$. c #743B3C",
"%. c #7B3A3A",
"&. c #7B3739",
"*. c #553B40",
"=. c #6B3943",
"-. c #633F40",
";. c #723A46",
":. c #5D4647",
">. c #5E4D51",
",. c #654344",
"<. c #6D434A",
"1. c #644A4C",
"2. c #6B4A4C",
"3. c #694446",
"4. c #734B4C",
"5. c #774547",
"6. c #6B4D52",
"7. c #764B54",
"8. c #6C5758",
"9. c #6C5859",
"0. c #735D5E",
"q. c #795A5B",
"w. c #765457",
"e. c #785D62",
"r. c #6C6161",
"t. c #7B6365",
"y. c #7B6669",
"u. c #7D6C6D",
"i. c #756768",
"p. c #7C7475",
"a. c #7C6F70",
"s. c #831B1C",
"d. c #8D1C1D",
"f. c #86141A",
"g. c #9B151B",
"h. c #9C1B1C",
"j. c #94181A",
"k. c #AB151C",
"l. c #AC1A1D",
"z. c #A5171B",
"x. c #B5141B",
"c. c #BD151D",
"v. c #B81B1E",
"b. c #8C1D22",
"n. c #881C24",
"m. c #9A1A23",
"M. c #A81A22",
"N. c #A71724",
"B. c #BC1422",
"V. c #B21A22",
"C. c #B81726",
"Z. c #822222",
"A. c #872829",
"S. c #942223",
"D. c #9A262A",
"F. c #802E35",
"G. c #833535",
"H. c #883535",
"J. c #853937",
"K. c #883837",
"L. c #89353B",
"P. c #853A3A",
"I. c #8C3C3B",
"U. c #84333A",
"Y. c #933333",
"T. c #923D3C",
"R. c #9B3D3C",
"E. c #9D3436",
"W. c #912D33",
"Q. c #A82629",
"!. c #B7262A",
"~. c #AB3334",
"^. c #A23937",
"/. c #A33B39",
"(. c #A53635",
"). c #CD0F1D",
"_. c #C40F1C",
"`. c #C4131D",
"'. c #CB131E",
"]. c #C4191E",
"[. c #C8191D",
"{. c #D1121E",
"}. c #CC0F20",
"|. c #D30E21",
" X c #C51322",
".X c #CC1221",
"XX c #C21C21",
"oX c #CB1920",
"OX c #D21120",
"+X c #C33037",
"@X c #9A403F",
"#X c #83403F",
"$X c #923B40",
"%X c #8D4343",
"&X c #854B4B",
"*X c #8E4B4B",
"=X c #844446",
"-X c #944242",
";X c #934C4C",
":X c #994849",
">X c #9A4341",
",X c #825454",
"<X c #875A5B",
"1X c #965A59",
"2X c #A4504F",
"3X c #A3605F",
"4X c #845F60",
"5X c #8B6464",
"6X c #826A6B",
"7X c #886868",
"8X c #9F6B6B",
"9X c #956668",
"0X c #846F71",
"qX c #837575",
"wX c #8D7474",
"eX c #867C7C",
"rX c #897A7C",
"tX c #937575",
"yX c #9C7D7C",
"uX c #967878",
"iX c #A36766",
"pX c #8D7F80",
"aX c #8D8181",
"sX c #8D8A8A",
"dX c #928283",
"fX c #938C8C",
"gX c #9B8D8E",
"hX c #949393",
"jX c #9C9292",
"kX c #9B9A9A",
"lX c #988F90",
"zX c #A48484",
"xX c #A49898",
"cX c #B59896",
"vX c #ADA8A7",
"bX c #C1A6A4",
"nX c black",
"mX c black",
"MX c black",
"NX c black",
"BX c black",
"VX c black",
"CX c black",
"ZX c black",
"AX c black",
"SX c black",
"DX c black",
"FX c black",
"GX c black",
"HX c black",
"JX c black",
"KX c black",
"LX c black",
"PX c black",
"IX c black",
"UX c black",
/* pixels */
"                                                  C ~                                                                         ",
"                                                n m R W                                                                       ",
"                                            u t 9 u r C | }                                                                   ",
"                                            9 u n M A ..+._ {                                                                 ",
"                                          ~ q e B ....&.#.+.~                                                                 ",
"                                          ..n i +.5.5.P.=X,X&.A.                                                              ",
"                                            C ..w.0Xq.*X9XaX=XQ.C.                                                            ",
"                                            m +.5XjXfXcXbXxX*XQ.XX                                                            ",
"                                            9 R 5.9X8XcXvXxXR.l.[.                                                            ",
"                                            8 w a ) -XyXkXpXW.l.!.`.                                                          ",
"                              |.            > 0 i Z I.yXkXaX&.H.R.                                                            ",
"                                z.F.q.sXfX8.< 0 m } %XzXxXqX .5.5X:X~.                                                        ",
"                                s / ,.0.u.e.*.F 0 M &.tXuXw.=.e.7XI.E.(.                                                      ",
"                              y i K n q Y q.a.Y > 0 { ;.$. .6.u.t.$.=X;X1XwXjXjX                                              ",
"                            ) F.P.P.+.a e -.eXU u K v L } | 5.t.qXeXrXaXdXjXxXdX7.%.      { { { { { { { { { C u u u t C {     ",
"                          E.Y.R.R.R.T.( ! ,.7.P n W ! L n R %.3.:.>.i.0.2.4.7.q.y.6Xt.1.u n n n M m B Q _ ..| R R R B m M n   ",
"                        ~././././.R.Y.] 5.6.{ n m W +.! q n +.R 6 c 1.2.o.o.O.7.u.u.8.U q q F Y O.W E ' A.G.#.[ ` ' ` R t t u ",
"                      '.Q.^.^.^.R.G.) | <.2.{ ~ ~ ~ ~ ~ L c ! R u n 1.i.p.p.u.t.2.P u 9 q q U i.6X=XL.L.K.K.L.G.) [ J.&.i 5   ",
"                      '.S.' ' ' E a K t.1.P @.G.G.@.Q [ ~ c M W K u J H 3 3 2 H J q q q q q 8.yX&XP.K.P.                      ",
"                      !.*X<.W W O.4.q.6X8.o.P.I.T.U.D ' ` N n W W u o.G o % * 4 e e 9 9 e d <XjX%X  P.                        ",
"                      2XwXy.;.;.e.aXfX4.,.8.,X%XK.@.} Q Q W 9 K R J t.1.> i s l l g e e g s.1XxX                              ",
"                    +XzX6X6XgXgXpXqXu.G , *.dX&X) ' G.} Q ! 6 J R L u.8.u s.z.`.}.                                            ",
"                  ).V.5.u.sXhXhXhXwX=.v 1 1 I 6XwX,XP.} Q E - u ~ { u.q.+.Y.C.).                                              ",
"                    j.w 2.0XqXqX0X7.C t 8 > , 6.p.a.,X .Q ` > 7 | 7.w.5.#.T.!.                                                ",
"                  s.f % 0  .3.3.T M  .P ! ` W v U i.6X;._ @.8 > Y t.$.~ ` U.                                                  ",
"                d.l e % % % % % O 3 8.0.4.%.#.&.&.=X;X&.+.@.> : J +.` Q Z Z.                                                  ",
"              `.b.d w > # O O O O > U r.qXtX<X=X#.#.P.#.P.P.> : K +.f A _ Q.].                                                ",
"              x.j u , : # O # : : 0 U 1.t.qXqX5X<X,XP.P.I.#.> : J ` ~ | U.!.oX                                                ",
"              A.K c < : + O % 8 8 I r.=.W o.0XdXgXyX;XP.#.~ , : 0 J ,.&XR.                                                    ",
"            jXyXu.i.0.1.< + : 0 8 q Y 0XaXqXe.<.;.4.7X&XP.+.: : u R F E l.'.                                                  ",
"          iX8X9X1X1X5Xu.:.G 6 q q 6 v t.6Xe.y.e.5.%.<X*XI.@.: : K +.K s.c.'.                                                  ",
"          ~.(.W.R.R.:X5Xt.,.q q q 8 0 3.<.<.u.rX5XP.-X;X;X@.7 6 P &.$.D.[.                                                    ",
"          ~.Q.h.R.R./.>X&XO.0 q q 8 c 1.t.u.0.w.&X:X:XyXtX&.` i K &.4.E.).      XXXX                                          ",
"          XXc.M.Y.T././.I. .0 q q q q F O.4.0.t.wXyXuXjXuXP.G.u 6 ` =X~.'.'.                                                  ",
"            `.V.Y.I.@X^.T.~ q q q q q 6 u +.4.<XtXhXhXkXtXG.P.J 6 +.P.(.XX'.                                                  ",
"              XXD.I.@X/.R.+.u q q q q 8 L ..P.%X7XfXjXxX5X` #.J 8 +.&.Y.!.'.                                                  ",
"              c.B.Q.I.R.T.X.A u q q q 8 K +.%X5XrXhXjX8XP.K &.F : ~ W n.C.'.      XX                                          ",
"                '.C.D.A.G.K.H.[ u , 0 q ! #.I.*XtXgX3XT.E v &.P 0 ~ n S M.'.      XX                                          ",
"                {..XV.Z.' K.>X$Xu % , t ~ P.P.K.1X8X>XZ.i q ..~ K Q 9 i S.[.{.    [.                                          ",
"                |.{.c.b.) @.I.T.u # > e ) K.K.K.I.:X%XE e u ~ ~ ~ ~ v J ] XX'.).).).                                          ",
"                  ). XN.] ~ Q d 4 # 8 R G.-XI.K.I.I.+.W B ~ ` ` ` ~ W n E Q.oX|.|.).                                          ",
"                    `.k.S M 9 p & > 9 ` P.I.$XT.T.J.K M C Q B B Q Q C N u S.XX|.|.|.                                          ",
"                    `.h.S N 8 > < 0 q +.P.K.L.-XI.` 9 m Q B C B C C C v 8 x l.'.|.|.|.                                        ",
"                    c.n.Z M q 0 q q u +.P.K.K.-X+.u 8 K ~ ~ ~ ~ ~ ~ W b , E d.x.'.|.).'.                                      ",
"                    x.Z.Q M q q q e r +.K.K.K.I.~ > : n B a a A W W D 0 : 9 E m.B.'.[.[.                                      ",
"                    c.Z.B n q q q t A G.K.K.I.F.u # : n E d d R ~ ~ ~ 9 # 8 R A.M.'.[.[.                                      ",
"                  '.c.Z.i q q q q n C G.I.K.P.Q ; o : K ` ` ` ` ` ` ` q + q K / b. XOX|.                                      ",
"                B.`.V.) n 9 q q q n W P.-XP.~ 9 # o > K ) ` ` ) ) ` ` 7 O 8 e d _ N..X.XC.                                    ",
"                '.`.N.Q n q q q q 9 m Q ..} C ; o O > R ` ) ) ) ) ) ` 7 O , e t K b.B.OX X                                    ",
"                {.`.j.M q q q q q q K B B C W & o + : u R E Q _ ) ) ` q O > u i i ( V.{.{.                                    ",
"                {.x.f.u q q q q q n ~ ` E Z ~ > O + # > q u M W W E ~ 6 o > K V r / M.{.|.                                    ",
"              [.{.g.a q q q q q 0 J ~ ` ~ ` ~ - O O o . @ , 0 > : 8 6 # @ > R E r B m.`.`.                                    ",
"              [. Xf.e q q q q q q n Q ` ` ` / & o O o X . : 8 & O # @ X . > R E r i b.B.'.                                    ",
"            {.'.B.f.9 q 0 0 0 q q 9 M Q ) ) ` & o + O . @ > 8 & O o X X . , R E r u s.B.'.                                    ",
"          |.|..Xk.k q 0 0 0 0 0 q 9 y E ) ) ` & o + O . @ 8 0 : O O o X @ q E V r q s.B.|.                                    ",
"        |.|.OX[.S.B 9 q 0 0 0 0 q 9 r E ) ) ~ & o + + o # 0 0 : O O o X @ K ` V e 9 j x.|.                                    ",
"        |.|.'.l./ n q q 0 0 0 0 q t r E ) ) E & o # + # : q 0 : # + o . @ W ` V r 9 s g.oX                                    ",
"        |.|.`.j.d q q 0 0 0 0 0 q 9 r E ) ) E = . O # : 8 q 8 : # O o . @ W ` f r q t j XX                                    ",
"        ).[.v.d.i 9 8 0 0 0 0 0 q 9 r E ` ) E # . + % 6 q 0 : # o o o . @ W ` E r q q h c.                                    ",
"      |.|. XV.                0 q 9 t Q ` ) ^ # . : 6 q q 8 & O o O o . # W ` R t q q h _.                                    ",
"      '..XB.                    q q q K ~ ) ` 6 , J K u 0 > % # + O o o % W W m 9 9 9 h `.'.                                  ",
"      [.c.                          q u K ~ Q m K ~ ~ J 6 : : : % O O + : M n q 9 9 9 h ].`.                                  ",
"  |.OX'.k.                            q u m C B B ` ~ J 6 : : : : & > 8 q u q q q q 9 k XX`.                                  ",
"  |.OX[.h.                    q q q q q q q 8 u R ~ W n 6 : : : , 6 w i R R R i e 0 0 k XX`.                                  ",
"  |..Xv.s.                    q q q q q q 8 : , u W C n 0 > % : , 9 s s.S.m.m.d.l d u k ].`.c.                                ",
"`.)..XN.d                   q q q q q q 0 6 : = 6 u M m u q & % > r m. X'.|.|.).x.d.k f.[.`.                                  ",
"  |.`.g.s l k.C.      [.S.d e q q q q q q 0 < : 6 u C S x f & O p s.c.{.|.        c.x.x.'.                                    ",
"  |.`.z.g.k.c. X        l.g.j y e e q d f f d 6 0 R / m.l.s.& $ 4 j.c.                                                        ",
"c.}. XV.'.|.|.|.        `.c.N.g 5     Z.d.z.h.e q ` ( B.'.j.4 # r h.                                                          ",
"                                        .X|.}.s J ` Z.B.`.j.4 w / (.                                                          ",
"                                        |.|.}.s J _ j.c.c.s.6 i (                                                             ",
"                                          |..Xs q E d.x.g.i 6 i ]                                                             ",
"                                            [.h q i /     , : u /                                                             ",
"                                            '.f.t u W W N : = 6 u                                                             ",
"                                            .Xk.h u W M 9 % % 6 u                                                             ",
"                                            }.M.( m M B q % # > 9                                                             ",
"                                              ~ ~ R y R K > # : <                                                             ",
"                                              0 9 r u       # # & 9                                                           ",
"                                            5 6 9 m u       > % & 8                                                           ",
"                                            e u L C m       8 : : <                                                           ",
"                                            < K W C C         > , ,                                                           ",
"                                            > e A C                                                                           ",
"                                            = w t y                                                                           ",
"                                            # > 9 5                                                                           ",
"                                            O > 8                                                                             "
};
