/* XPM */
static char *_6847585d3874e3cd2d7b11be71e6d363hDTPtsfjEjGZkaR_11[] = {
/* columns rows colors chars-per-pixel */
"59 90 256 2 ",
"   c None",
".  c #1B0304",
"X  c #1A0304",
"o  c #240405",
"O  c #2C0505",
"+  c #230708",
"@  c #2A0708",
"#  c #25090A",
"$  c #2C0A0B",
"%  c #300606",
"&  c #340B0C",
"*  c #3A0D0E",
"=  c #350708",
"-  c #3B100F",
";  c #360E10",
":  c #3A0F10",
">  c #3B1214",
",  c #3A1416",
"<  c #450909",
"1  c #41100E",
"2  c #460F11",
"3  c #421416",
"4  c #45161A",
"5  c #49171A",
"6  c #46181B",
"7  c #4A181C",
"8  c #481716",
"9  c #53161A",
"0  c #5C171A",
"q  c #531B1E",
"w  c #5B1617",
"e  c #650C0D",
"r  c #6A0A0A",
"t  c #7B0B0B",
"y  c #6D1315",
"u  c #63191C",
"i  c #6D1B1D",
"p  c #66161A",
"a  c #731314",
"s  c #75161C",
"d  c #7B1719",
"f  c #6E0F11",
"g  c #54201F",
"h  c #7B201D",
"j  c #4D1C21",
"k  c #461D22",
"l  c #541C22",
"z  c #5A1D22",
"x  c #671E23",
"c  c #7E1A22",
"v  c #711E21",
"b  c #4B2527",
"n  c #552124",
"m  c #5C2324",
"M  c #5C242A",
"N  c #56292C",
"B  c #572B31",
"V  c #5C3539",
"C  c #583639",
"Z  c #493135",
"A  c #632426",
"S  c #692326",
"D  c #652927",
"F  c #6B2B26",
"G  c #632529",
"H  c #6A2629",
"J  c #66292A",
"K  c #6C2B2A",
"L  c #752322",
"P  c #722D2C",
"I  c #7C2E2D",
"U  c #762428",
"Y  c #76312D",
"T  c #7D312E",
"R  c #692D32",
"E  c #6A363A",
"W  c #683539",
"Q  c #763433",
"!  c #7B3431",
"~  c #7E3936",
"^  c #733C3E",
"/  c #783B3C",
"(  c #723030",
")  c #5F3F41",
"_  c #683D42",
"`  c #713B40",
"'  c #694246",
"]  c #68464A",
"[  c #734144",
"{  c #7C4544",
"}  c #734549",
"|  c #7A4B4B",
" . c #764D51",
".. c #735255",
"X. c #7C5353",
"o. c #79595C",
"O. c #7B5E61",
"+. c #7A6668",
"@. c #7D7273",
"#. c #8C0C0D",
"$. c #850C0C",
"%. c #9B0C0D",
"&. c #940B0C",
"*. c #841213",
"=. c #8B1415",
"-. c #89161A",
";. c #921113",
":. c #92141A",
">. c #981819",
",. c #980E15",
"<. c #A40606",
"1. c #AC0B0C",
"2. c #A30809",
"3. c #BC0B0C",
"4. c #B50809",
"5. c #A40C14",
"6. c #AC0F13",
"7. c #B90E18",
"8. c #A7121A",
"9. c #B31318",
"0. c #B4100F",
"q. c #82221F",
"w. c #861B21",
"e. c #961A23",
"r. c #AD1C2C",
"t. c #A41A26",
"y. c #BB1525",
"u. c #BC1629",
"i. c #B51A2C",
"p. c #BB1A2A",
"a. c #B41623",
"s. c #AC1529",
"d. c #862529",
"f. c #9D2126",
"g. c #922D2E",
"h. c #9A292F",
"j. c #83312F",
"k. c #8D2F30",
"l. c #982C31",
"z. c #833532",
"x. c #8B3332",
"c. c #833935",
"v. c #8B3A35",
"b. c #8D3D3B",
"n. c #863C3A",
"m. c #913233",
"M. c #943B35",
"N. c #983D36",
"B. c #933D3A",
"V. c #993F38",
"C. c #9D3436",
"Z. c #A2232C",
"A. c #A82727",
"S. c #B82A37",
"D. c #AD282F",
"F. c #C30C0C",
"G. c #CB0C0C",
"H. c #C50706",
"J. c #DC0907",
"K. c #D40B0B",
"L. c #DB090B",
"P. c #D70707",
"I. c #CC0B12",
"U. c #CC0D1A",
"Y. c #C20D15",
"T. c #D40B14",
"R. c #DC0914",
"E. c #D30D1B",
"W. c #DB0A1C",
"Q. c #DC0711",
"!. c #CB111C",
"~. c #C21216",
"^. c #D6101C",
"/. c #E50706",
"(. c #EB0605",
"). c #E40807",
"_. c #E6070D",
"`. c #EB060C",
"'. c #E5080A",
"]. c #E8080D",
"[. c #F20505",
"{. c #F10609",
"}. c #FA0301",
"|. c #E50712",
" X c #E90711",
".X c #E20914",
"XX c #E1091A",
"oX c #E80811",
"OX c #CD0E23",
"+X c #C90F28",
"@X c #D40D22",
"#X c #DA0B20",
"$X c #C51325",
"%X c #C11529",
"&X c #C81529",
"*X c #D01123",
"=X c #CB2B31",
"-X c #84413E",
";X c #99413B",
":X c #933B42",
">X c #AC3745",
",X c #B53341",
"<X c #874846",
"1X c #974747",
"2X c #86504E",
"3X c #974D54",
"4X c #845554",
"5X c #8B5554",
"6X c #845B5A",
"7X c #8B5C5B",
"8X c #815758",
"9X c #985659",
"0X c #8C4F4F",
"qX c #A1454D",
"wX c #87605F",
"eX c #985C63",
"rX c #825E62",
"tX c #856363",
"yX c #8A6363",
"uX c #856A6B",
"iX c #8C6C6C",
"pX c #876669",
"aX c #956A6B",
"sX c #836E71",
"dX c #8B7474",
"fX c #8C7A7A",
"gX c #897476",
"hX c #927A7B",
"jX c #967372",
"kX c #8E6F71",
"lX c #8F7F80",
"zX c #8D8384",
"xX c #8E8889",
"cX c #968787",
"vX c #959191",
"bX c #A69394",
"nX c #AAA8A8",
"mX c black",
"MX c black",
"NX c black",
"BX c black",
"VX c black",
"CX c black",
"ZX c black",
"AX c black",
"SX c black",
"DX c black",
"FX c black",
"GX c black",
"HX c black",
"JX c black",
"KX c black",
"LX c black",
"PX c black",
"IX c black",
"UX c black",
/* pixels */
"                                              @XW.                                                                    ",
"                                          u.u.                                                                        ",
"                                          %X$X                                                                        ",
"                                          !.U.                                                                        ",
"                                        F.F.~.                                                                        ",
"                                    u.6.1.6.f.k.g.r.                                                                  ",
"                                  OX6.d y s U P I h.$X                                                                ",
"                                W.Y.=.0 j z A K P d.u.                                                                ",
"                                L.0.z l m J F ! I d t.                                                                ",
"                                $Xt.l l H ! ! c.c.z.g.    W.    F.                                                    ",
"                                T.9.G A [ 7X2X<X7XaXC.r.%X    U.U.                                                    ",
"                                _.Y.S K 8XxXdXjXcXbX>Xu.%X      @X                                                    ",
"                    @Xi.      W.XX7.z K 6XxXvXnXnXbX>Xy.OX    OXOXOX                                                  ",
"                    +X%Xi.i.@X.XW.s.5 z ( | 7XhXcXhX:Xu.@X  W.T.U.OX                                                  ",
"                    OXU.y.%XW.W.@X8.5 7 z K b.yXgXpXg.7.@XOXW.T.E.E.W.                                                ",
"                  #XW.T.Y.y.*XS.=XZ.7 7 z F -XiXfXyX>.9.&X+XW.W.W..X.XoX`.                                            ",
"                W.W.@XOX5.-.1XaXkXX.b j z R 4XcXcX6XU n.qX%XE.oX{.[.[.{.(.      ).                                    ",
"                |.T.6.e.s u J V _  ...N 3 5 E 4X2XE { 6X5Xl.u.OX.X[.}.}.}.[.].oX                                      ",
"                `.I.>.U U F A q l _ fXV 3 5 z K K A { pXpX<X:X>X,X=X=X*X_.`.`.`.                  K.U.                ",
"                `.!.h.g.M.M.v.K M _ sXV l J z M J J P tXfXyXyXyXiXdXsX3Xy.^.|.`.{.oX.X          G.T.E.u.        r.u.OX",
"              J._.!.h.N.V.;XB.c.{  .W n l m F m l l Q 4XpXtXyXyXyXtX[ R j.:XS.U.)..XQ.P.G.a.r.u.I.E.U.0.*.u p #.e.i.+X",
"          _.oX_.E.i.C.;X;Xv.z.( ^ ^ D A A A K J n j P Q E ` tXdXfXfXuXo.6XyX:Xw.:.:.:.;.=.c d.h.A.Z.f.-.L A p &.f.t.5.",
"        '.`.`.].a.g.z.z.! P K ` W A P Y Y Y J P J n J A z M  .+.+.+.+.+.O.o.V 7 l l M W W A P c.z.x.d.i P J v =.e.>.&.",
"        _.{.[..Xe.H G G M M E rX] M z.v.v.z.A P P l M J J l G M l l n n b j 7 7 7 6 E yXyXB.g.C.h.r.8.t T ! F S ;.1.1.",
"        G.).`.*X9XuXX.X.O.sXsX[ } | c.b.b.! F K K G z J J n ..] k 7 6 6 6 6 4 6 6 q o.cX3XC.i.%Xp.!.G.          7.T.Q.",
"          /.`.%XeXgXiXiXiXfXfXB B ..wX<Xz.Y Y K J J 7 m H M uXo.z d -.-.=.w.*.d c e.3XaXS.i.  @X$XT.              XX  ",
"            ].u.3XgXlXlXdXuXo.b , Z +.8X{ / ~ K F K 3 q K A uXo.U 7.E.E.I.$X7.6.i.+X>X3X&X                            ",
"            _.p.eXxXvXvXvX+.N l > @ , +.zXuX-XH J Q 3 q K R pX6Xg.E..X|.                                              ",
"            U.s V ' ' ' ) V M l m A q b C  .uX^ P ! 3 4 W X.| Q d.Q.`.`.                                              ",
"          T.5.8 , 4 1 1 & 3 R _ / c.Y q q / pX{ Y ! 3 , B | Q D c T.`.{.                                              ",
"        |.Y.*.3 , > % O O : R uX7X<X<X-Xc.c.<X~ ! z.3 3 m P K J w.E.`.{.                                              ",
"        G.>.x 7 , & O O O : J 4XdXfXgXyX<Xc.n.c.v.x.1 : m ! A U Z..X                                                  ",
"      '.H.*.j 6 > & % & & b | [ [ ..uXfXhXjX5X-Xz.P 3 , l J J ! D.W.                                                  ",
"    W.R.r.L > > = % & > > n | } }  .7XtXsXfXiX<XT K 3 , j z m I D.T.                                                  ",
"  %X%Xp.9X' 6 , & % & 4 4 5 M +.zXfXtX` R ^ yX2Xn.I * : l K 7 a 3.J.                                                  ",
"  eX9X1X3XyX@.+.N : 3 4 7 3 6 X. .' uXfX8X/ yXiX7Xz.3 3 m ! i ,.Q.(.                                                  ",
"  S.qX:X;X9XaXaXo.V 7 7 7 4 4 E } ..pXtX4X5XyXfXpX! D l m c.<XC.!.{.{.oXW.+X+X                                        ",
"_.W.u.g.M.V.;X1XyX} 5 5 7 4 6 n } pX7X{ 2XaXiXfXtXQ c.m q ~ 5X<Xt.L.`.]..XE.@X@X                                      ",
"'..X%Xg.M.N.;XN.-XK 4 7 7 7 6 4 m / 6XwXdXxXxXzXyXz.c.q 3 P c.Q U 5.K.{.[.'.R.W.                                      ",
"  ].E.Z.m.M.;XN.N.P q 7 7 7 6 4 g P -X7XdXxXxXxXtX! c.n 7 ! c.! K i %.P.{.|.T.G.                                      ",
"    Q.~.Z.m.M.;X;Xj.A q 7 7 6 4 n P x.7XfXxXzXhXX.F ! n 3 Q ! P F l i 8.E.XXT.I.                                      ",
"      J.y.h.x.N.N.v.P A 7 4 6 4 m I x.5XdXzXfXyX/ l ! q > J A F F 7 n U t.T..X.X                                      ",
"      ].J.9.g.x.x.v.B.c.q = 4 q K c.z.x.5XfXyX{ m 7 ! H z F 7 A Q l l m L 6.P.'.K.                                    ",
"        /.E.r.k.c.v.V.B.9 % , q P z.x.j.<X7X<XK q 7 K F D D 7 n J z 7 l A h 0.J.'.                                    ",
"        .X.X!.f.j.c.M.B.9 & 3 z I v.x.x.b.;X! D z m F K F D n l z A q 7 z D =.3.].{.                                  ",
"        W.oX/.3.d.( ! ! 8 & 7 F z.N.M.x.v.v.F A D F K K K F J m l K l 6 7 m a %.T.`.                                  ",
"          `.'.F.q.D l 7 * : 7 Y c.x.x.M.B.! l m J J J J J J A j 7 J m 7 7 l m d 1.Q.                                  ",
"            ].T.;.p q 4 > 3 7 Q c.x.x.N.z.A 7 m F J J J J D A 7 4 J m q 7 7 l x =.I.R.                                ",
"            `.oX<.f z 7 7 7 l ! c.x.x.M.P 5 3 m F F F F F F J 7 > m A l 7 7 l z v 0.T.W.                              ",
"              _.<.a m 7 4 7 x ! x.x.x.x.A & & q J G A A J D J 5 & 5 A A 7 7 7 l A =.F.].'.                            ",
"              oX2.a m 7 4 j G ! x.x.M.P 5 o ; m K K K K K K K 8 $ 4 A m 7 7 7 7 z t 3.(.).                            ",
"              oX2.a m 7 4 j J z.x.k.j.z ; o ; m P K K K K K F 8 @ 4 n l 7 7 7 7 q y 6.)._.                            ",
"              oX2.a m 7 4 7 A ! x.j.S 3 @ o > m P F F F F F F 8 + 3 q q 7 7 7 6 7 m >.K.oX                            ",
"              oX2.f l 7 7 7 l D F J A : o O > m P P P K F K K 8 @ > q l 7 7 7 7 7 l :.G.(.                            ",
"              `.<.e 7 7 7 q A F J D D * O O & 7 m m A D K P P 7 @ > n m q 7 7 7 7 l a 1.Q.                            ",
"              (.<.e 7 7 6 l F P K F F 1 O O O $ > 5 7 5 q q q > + , m D z 7 7 7 7 7 p &.Q..X                          ",
"              (.<.e 7 7 6 l F K K F F * O O o X + > , & O O O . X > A H z 7 7 7 7 7 0 =.J..XW.                        ",
"              ).%.0 7 7 7 q A F F F F * o O O X . > , & O o o X X > A H z 7 7 7 7 7 0 =.J.]..X                        ",
"              F.*.q 7 7 6 7 z D F K F > o O O . # , 3 & O O o X . 5 D H z 7 7 7 7 7 q -.Q.oXoX                        ",
"              ;.p 7 7 7 7 7 l F F K J : o O O o $ 4 4 & % O o X # z K H z 7 7 7 7 6 z w.R.oX_.                        ",
"              i q 6 7 7 7 7 l F K K K & o O O O & 4 4 & % O o . $ m F D z 7 7 6 6 7 l w.R.`.'.                        ",
"            x q 7 7 7 7 7 7 l F K K J ; o O O & > 7 6 * % O o . # m K H z 7 7 6 7 7 l w.L.].oX                        ",
"          x z 7 6 7 7 7 7 7 l F P P F & . O & > 6 6 3 & O O o . # m K D z 7 7 7 7 7 j c J.]..X                        ",
"            7 7 7 7 7 7 6 7 l F P P K $ . & : 4 7 4 * @ o o o . # m F A l 7 7 7 7 7 q -.J.].oX                        ",
"            7 7 7 7 7 7 7 6 7 A K P K & $ 5 l 7 6 , = O o o o . # m F m 7 7 7 7 7 6 y 1.`.`.'.                        ",
"            7 7 7 7 7 7 7 7 7 q A K K 7 7 J G l 4 > ; & $ O o o & m m q 7 7 7 7 7 6 *.G.{./.J.                        ",
"          7 7 7 7 7 7 7 7 7 7 6 q m H A J P K l 4 > > > & & & & 3 l l 7 7 7 7 7 7 7 =.K.{.(.                          ",
"            7 7 7 7 7 7 7 7 7 7 7 7 l m D K F l 4 > : > > > 5 7 7 7 7 7 7 7 7 7 7 q ;.J.{.                            ",
"              7 7 7 7 7 7 7 7 7 7 4 > 4 n A z q 4 : & * 4 7 l 7 7 4 7 7 7 7 7 7 5 e 1.].{.                            ",
"                        7 7 7 7 6 3 > > 7 z z q 4 3 % = > 4 w e e e p q j k 7 6 5 r 4.{.`.                            ",
"                        6 6 6 6 6 4 > > 4 l M l j 6 = O * w #.<.<.<.2.=.s s y 0 0 $.H.{..X                            ",
"                        9 9 9 9 9 9 8 > 5 z G S x 0 * O < %.L.`.`.`.'.K.3.3.1.;.d 1.P.].@X                            ",
"    {.W.1.            t #.%.%.%.%.%.#.2 7 F v t.7.#.= $ w 3.(.{.oX|.    J.T.I.7.y.L._..X                              ",
"    {..XY.Y.K.W.L.K.3.2.3.I.I.P.P.P.G.y n P d I.L.%.< < $.J.{.{.                                                      ",
"      ].@XE.K.W.L.K.F.F.T.XXXX`.}.}.`.d m L %.J.P.=.2 e 4.(.{.                                                        ",
"                              ).{.}.(.d n L 3./.~.S 6 *.K.[.                                                          ",
"                                {.[.(.a k i G.].9.q 4 *.F.                                                            ",
"                                  {./.#.9 p F.I.,.3 , y :.                                                            ",
"                                    J.<.y u 2.1.t = & 7 G                                                             ",
"                                      %.d u $.&.r % % 3 l                                                             ",
"                                      w u D i t r * % : 4                                                             ",
"                                      , 7 A m a r > % & ;                                                             ",
"                                      , 7 l z       % O & ,                                                           ",
"                                    l q m D l       3 * & &                                                           ",
"                                    7 m A A m         : & ;                                                           ",
"                                    3 m A z A           : >                                                           ",
"                                    > 7 z G                                                                           ",
"                                    = 3 q z                                                                           ",
"                                    @ & 3                                                                             ",
"                                    o &                                                                               "
};
