/* XPM */
static char *_6847585d3874e3cd2d7b11be71e6d363hDTPtsfjEjGZkaR_12[] = {
/* columns rows colors chars-per-pixel */
"64 92 256 2 ",
"   c None",
".  c #1C0503",
"X  c #170202",
"o  c #240703",
"O  c #250905",
"+  c #2B0905",
"@  c #240908",
"#  c #2D0C0A",
"$  c #330A07",
"%  c #340D0A",
"&  c #3C0E0C",
"*  c #3A0A07",
"=  c #36100D",
"-  c #3B110E",
";  c #3D1412",
":  c #3B1917",
">  c #2D1514",
",  c #3D211F",
"<  c #440E0C",
"1  c #40110F",
"2  c #4E110F",
"3  c #431414",
"4  c #4B1515",
"5  c #451817",
"6  c #4B1917",
"7  c #461619",
"8  c #4A171A",
"9  c #46191A",
"0  c #4B191C",
"q  c #52171A",
"w  c #531B1C",
"e  c #5B1D1D",
"r  c #571716",
"t  c #580E0C",
"y  c #6A1514",
"u  c #6B1817",
"i  c #631D1D",
"p  c #6C1C1B",
"a  c #641617",
"s  c #751816",
"d  c #731B1A",
"f  c #771816",
"g  c #6B0C09",
"h  c #5D201F",
"j  c #57201F",
"k  c #65201E",
"l  c #69221F",
"z  c #74211F",
"x  c #4D1E20",
"c  c #541F21",
"v  c #5A1F20",
"b  c #651D21",
"n  c #721B21",
"m  c #4B2422",
"M  c #4C2728",
"N  c #552122",
"B  c #5C2323",
"V  c #532C2D",
"C  c #59282A",
"Z  c #582F30",
"A  c #593738",
"S  c #423536",
"D  c #632423",
"F  c #6B2524",
"G  c #6D2826",
"H  c #642A2A",
"J  c #6C2B2A",
"K  c #672729",
"L  c #722524",
"P  c #722926",
"I  c #742C2A",
"U  c #7B2E2C",
"Y  c #7A2529",
"T  c #7C312F",
"R  c #74302F",
"E  c #792E32",
"W  c #643B3B",
"Q  c #663434",
"!  c #7C3331",
"~  c #773736",
"^  c #6C302F",
"/  c #58403E",
"(  c #5E3F41",
")  c #693C40",
"_  c #5F4445",
"`  c #4D4242",
"'  c #6A4445",
"]  c #644A4B",
"[  c #6A4E4E",
"{  c #634445",
"}  c #724443",
"|  c #7A4647",
" . c #684E50",
".. c #6C5354",
"X. c #6E5B5C",
"o. c #655555",
"O. c #735C5D",
"+. c #7B5C5D",
"@. c #755356",
"#. c #714F51",
"$. c #75605F",
"%. c #745F61",
"&. c #7A6364",
"*. c #7A6B6D",
"=. c #766567",
"-. c #7D6E70",
";. c #7C7475",
":. c #7D7B7A",
">. c #6D6162",
",. c #841614",
"<. c #8C1613",
"1. c #831916",
"2. c #88191C",
"3. c #951512",
"4. c #9D1412",
"5. c #981819",
"6. c #BD0F0D",
"7. c #B20E0B",
"8. c #AD120E",
"9. c #A2130F",
"0. c #B2110E",
"q. c #BB110D",
"w. c #A31210",
"e. c #AB1312",
"r. c #AB1A19",
"t. c #B4161B",
"y. c #BF0B14",
"u. c #90201E",
"i. c #961A25",
"p. c #BB172C",
"a. c #B81825",
"s. c #BA1B33",
"d. c #B71A33",
"f. c #A61D28",
"g. c #842323",
"h. c #832E2D",
"j. c #8A282C",
"k. c #962627",
"l. c #83312F",
"z. c #88302E",
"x. c #932D35",
"c. c #843332",
"v. c #8C3533",
"b. c #8E3936",
"n. c #813C3D",
"m. c #8A3939",
"M. c #923535",
"N. c #923A37",
"B. c #953C39",
"V. c #9A3C3B",
"C. c #99333A",
"Z. c #A6272B",
"A. c #A92536",
"S. c #B52537",
"D. c #A3323C",
"F. c #B33434",
"G. c #C30E0C",
"H. c #CC0E0A",
"J. c #DD0C06",
"K. c #D40D0A",
"L. c #DC0D0B",
"P. c #D60806",
"I. c #C2100D",
"U. c #CA100F",
"Y. c #C50E12",
"T. c #CC0E12",
"R. c #CD0F1D",
"E. c #D40E14",
"W. c #DD0C15",
"Q. c #D40E1C",
"!. c #DB0D1B",
"~. c #C3121C",
"^. c #CD121D",
"/. c #C51615",
"(. c #D6141B",
"). c #DC100D",
"_. c #E40606",
"`. c #ED0605",
"'. c #E40A06",
"]. c #EB0905",
"[. c #EC060C",
"{. c #E40A0B",
"}. c #E9090C",
"|. c #F40404",
" X c #FA0203",
".X c #F20409",
"XX c #F00803",
"oX c #EA0711",
"OX c #E30A14",
"+X c #E80813",
"@X c #E50813",
"#X c #D30F22",
"$X c #D80E20",
"%X c #C31323",
"&X c #CC1323",
"*X c #C3162D",
"=X c #C41929",
"-X c #D11224",
";X c #C01730",
":X c #C21930",
">X c #D42329",
",X c #90413E",
"<X c #933943",
"1X c #A93844",
"2X c #AC3042",
"3X c #8A4C4C",
"4X c #864748",
"5X c #974646",
"6X c #865656",
"7X c #975759",
"8X c #96524F",
"9X c #B0424D",
"0X c #885D63",
"qX c #925B64",
"wX c #A05965",
"eX c #866769",
"rX c #976666",
"tX c #986771",
"yX c #827474",
"uX c #8B7373",
"iX c #847C7C",
"pX c #85797A",
"aX c #8F7476",
"sX c #AE7272",
"dX c #8A7E81",
"fX c #B67D85",
"gX c #8C8383",
"hX c #878687",
"jX c #958788",
"kX c #929495",
"lX c #999597",
"zX c #A88588",
"xX c #AE9296",
"cX c #BB9DA1",
"vX c #C39EA0",
"bX c #C4A9AC",
"nX c black",
"mX c black",
"MX c black",
"NX c black",
"BX c black",
"VX c black",
"CX c black",
"ZX c black",
"AX c black",
"SX c black",
"DX c black",
"FX c black",
"GX c black",
"HX c black",
"JX c black",
"KX c black",
"LX c black",
"PX c black",
"IX c black",
"UX c black",
/* pixels */
"                                                H.                                                                              ",
"                                                  G.H.H.                                                                        ",
"                                                  K.K.E.                                                                        ",
"                                                  {.OXOX                                                                        ",
"                                      *X*X  J.{.OX}.[.].J.J.^.;X                                                                ",
"                                      !.W.{.`.|.|. X X X|.OXQ.&XG.                                                              ",
"                                      oX.X].'.J._.J._.`. XoXW.T.G.                                                              ",
"                                    #X+X|.J.0.w.w.w.e.I.{.}.L.H.K.                                                              ",
"                                    !.oXL.4.a w i p p g.s.!.!.Q.{.K.                                                            ",
"                    J.              {.{.6.u 0 w h H W ) x.s.#XOX{.K.                                                            ",
"                  J.'.'.            L.E.e.w w k F I } } h.Z.^.OXW.                                                              ",
"                L.'.XX'.J.J.  J.J.L.Q.$Xa.v e I n.~ ~ ~ b.r.E.!.Q.H.H.                                                          ",
"              s.!. X X XXX`.      {.L.OX~.p F 6XdXeX&.uXzX1X^.W.G.G.G.  G.              ;X                                      ",
"                W..X X.X[.[.      {.'.{.Y.i G 6XkXlXxXcXcX9X^.`.K.T.    H.              &X*X                                    ",
"                  }.|.}.OX!.    L.L.'.`.I.e D | uXzXvXbXxX1XE. X'.W.    H.              Q.&X%X                  a.a.            ",
"                          #X  '.L.Q.[.XX6.4 0 D R ,XaXlXgXk.P. X|.|.|.  G.              H.H.G.                  6.6.            ",
"                            OX[.[.@XW.L.7.4 0 N F c.eXhXpXk.P. X X XOX#XE.L.              H.H.      H.                          ",
"                          OX}.{.E.=X1X9Xv.6 6 w F b.sXlXyXh.t.!.}.|.[.OX[.}.{.              H.    H.H.H.                        ",
"                      '.{.W.H.0.5.b.+.=.O.A x 0 e c.sXzXO.} <X2X%XW.}.[. X.X].'.              K.H.H.H.H.                        ",
"              #X      |.{.q.1.p k D N Z #.;.A & - x W W Z O.yX6Xc.A.S.*X).].`.XXXX}.OXOXOX{.L.W.Q.Q.  H.        *X*X            ",
"            d.*X*X  #X.XW.Z.z.c.c.U i w { gXA 6 N x N C H ' &.-.+.eXtXtXsXsX9X&X`. X|..X.X|.`..XoX!.#XQ.Q.Q.L.OX!.Q.L.Q.        ",
"          d.a.a.    E.`.(.2XV.V.V.N.P H ( X.V w H D N w B ^ } O.*.;.;.;.dX*.@.C./.(.).`.[.oX[.oX+XW.Q.#X#XQ.L.T.Y.Y.K.W.OX      ",
"      ;Xd.p.Y.G.G.  L.L.=XD.V.V.V.N.! } ] N N N B I K 0 3 I K V [ X.X.[ [ W A #.5XB.Z.q.~.%X%X%X%X~./.&X&X~.q.3.1.<.0.K.'.J.    ",
"      ;Xd.s.R.K.^.=XW.=XD.V.V.N.c.R ' [ ' J J J G F G D 0 k B N H O.pXiXiXiXyX*.&.W e a i i a p n Y j.j.x.g.d Y G u 3.4.0.H.W.  ",
"              {.OXOXOXZ.E K J K H ' %.] H U l.l.U B I J x e D B N Q ( / / ] { ( A V 7 9 0 Z ] [ ~ ! c.m.x.k.d U R P f s 3.H.{.!.",
"              [.|.|.!.M.{ A A A ] X.O.{ Q 4Xb.v.l.D I I w w K K N Q m $ $ ; 7 7 7 7 0 0 q #.dXqX<XZ.Z.Z.s.a.4.k.k.k.<.,.w.H.].W.",
"              ]. X[.*XqX:.;.:.:.iX*.Z A ..*.4Xv.l.I I G i q B K C *.o.0 0 0 0 0 0 w e p s 7XfXS.p.~.K.L.Q.R.G.6.I.G.H.G.G.K.J.  ",
"              XX X[.:XqX*.....X.-.:.m % S ;.3Xh.I T P F K 1 w K C ;.X.w u s s s s <.e.I.H.(.>XOXOXOX].{.OX      H.H.            ",
"              }.|.`.%X7X;.yXyXyX*.] m # > ` +.eX6Xc.F F J - w ^ W -.O.Y e.6.G.G.6.H.{.XXXX|..X.X[.  .X+X                        ",
"              OX[.J.9.| -.gXgXiXO.V x 6 - > o.:.pX3XJ K I - 6 W ..&.| k.W.|. X X X.X|. XXX|..X[.                                ",
"            #XOX+Xy.t 0 M M V m Z o.Z D I G : M O.gX} L U 1 ; A &.} G <.L.|. X|.[.[.[.                                          ",
"      [.{.L.OX.X!.f.4 7 3 % % + , o.*.&.} I F J n.3X~ U U 3 3 C | R F 1.K.`.                                                    ",
"      oXL.K.OX.X~.Y 0 7 ; + + o : [ *.;.*.6Xm.v.h.h.T c.c.3 ; B U K G k.L.                                                      ",
"      Q.T.H.OXW.5.w 7 3 = + + $ m [ [ &.gXgX7X5X4Xn.c.m.c.- ; B I C E S.}.        OXOX                                          ",
"    U.p.^.'.'.6.f 0 7 & + + ; & M >.*.O.[ O.yXjXjXeX| ! J 3 ; 6 C { 4XS.}.        OXOX                                          ",
"    K.Q.{.{.&X5X' N & + + $ 3 7 m _ =.yX;.=.O.+.6X3Xm.c.I - - w D V Y t.OX{.      T.H.                                          ",
"  E.'.[.{.(.S.6X&...A : % - 7 6 7 0 X.*.*.-.&.} R 3X3X4Xh.- & e I j ,.T.!.W.L.    Y.Y.                                          ",
";XQ.|.XX!.S.V.V.rXjXgX{ 0 9 7 0 3 3 ] ( A *.hXeXn.eXgXuXT 3 ; B T R f.OXOXQ.#X  H.E.#X                                          ",
"Q.OX X XOXp.M.B.5X8X8XeX .7 7 7 7 7 C ..;.-.@.n.V.5XaXuXT I N N ! +.1XoXoX        OXOX                                          ",
"  }..X XoX=XM.V.V.V.V.6X' 0 7 7 7 9 7 W +.O.#.6XrXrXjXuXc.c.N 6 T 3XF.{..X                                                      ",
"    }.`.[.^.C.N.V.V.V.v.K 0 9 7 7 7 3 w ^ } &.gXkXkXkXuXc.c.6 - U c.Z.L.|.                                                      ",
"      '.`.OXd.x.N.V.V.V.T e 6 7 7 7 5 w L m.0XdXkXkXkXeXI T w 3 I T k.&X.X].J.                                                  ",
"        [.}.W.S.C.N.V.V.c.K e 6 7 7 9 j P v.0XhXjX7X8X| B T 6 - J K 2.Y.|.`.{.OX                                                ",
"          [.}.-XA.v.b.b.v.l.I q ; 7 7 B U c.4XqXwX1XM.G q U j 5 J j d r.}. X|.[.oX                                              ",
"            +XOXa.! ! c.b.V.M.r % 3 6 K T c.c.x.A.C.T j 4 U K B I 0 N j.E.|. X|.}.OX                                            ",
"        J.L.OXOXa.R I U c.B.V.w # 3 0 J c.c.c.v.M.v.K c w k G K k 0 0 p w.K. X X[.!.#X                                          ",
"      #XL.L.OX{.r.I F D J c.c.6 % 9 K ! b.N.c.v.v.P H H G G I I K i w w g.e.K.|.}.OX                                            ",
"      #XW.{.}.{.r.G k w N D k 1 % 6 I c.b.N.b.b.c.i D J P G G G G l r 0 I g.e.'.[.oX                                            ",
"        oX[. X].r.G h w 7 7 & & ; 0 I c.c.v.B.b.I 0 e l k k k k i i 4 3 G J 2.G.`.[.Q.*X                                        ",
"        oX.X X}.e.d e 0 7 7 7 7 7 0 I c.c.c.V.! N 9 B J J J J K k i 4 1 e D p <.K.`.{.-X                                        ",
"        {.]. X.X6.,.i 0 7 7 7 7 0 e U c.c.v.b.G ; - w K K F K F k K 6 % 0 B B p 8.'.[.OX                                        ",
"        L.'. X XK.3.i 0 7 7 7 7 0 D U c.c.v.c.w + $ q F l l l l F J 0 # 9 D C e 1.G.].[.                                        ",
"        OX[. X XJ.4.e 0 7 7 7 7 q D U v.v.b.K : @ % h I I I I I I I 6 # 0 h e q i 3.H..X+XOX                                    ",
"        Q.!.[. XL.4.w 0 7 7 8 7 q k l.b.z.z 4 # @ % h I I I I I I I 6 @ 5 w w 0 e f e.}..X'.J.                                  ",
"          Q.OX|.P.3.q 8 7 0 0 7 0 h P U P a & O O % k I I I I I I I 6 O ; 0 w 0 w i <.K..X`.{.                                  ",
"            OX.XG.1.q 8 8 7 8 7 0 N k k k k % o + % w G K G G I I I 0 O ; j e q 7 w d 0.`..X[.                                  ",
"            OXOXt.G q 7 0 0 7 7 c J I F l G - + + + - 9 0 c N D K ^ 9 O ; B G e 6 7 r <.K.|.[.Q.                                ",
"            +X{.e.i q 7 0 0 7 7 c J I P P P - o + @ @ # ; 5 ; - ; ; # @ ; K G e 0 7 0 p 0._..XOX                                ",
"          OX[.'.w.e 0 8 0 0 0 7 w G I I I P - o + @ . @ % ; % o o o X . ; D G e 0 7 0 w <.H..X.X{.                              ",
"        #XOX|.{.4.w 0 8 0 0 0 7 w B P I I P - o + + . O - 3 = + + . X @ 3 D G e 0 7 7 0 u e.@X|.'.L.                            ",
"        OX}.|.OXi.w 0 0 0 0 0 8 0 N G I I P - o + + o # 3 9 = + + O . @ w G K e 0 7 7 0 w 2.H.XX}.!.#X                          ",
"        oX[..XY.2.c 0 0 0 0 0 7 0 N G I I P - o + + o % 7 7 % + + O . @ e P G e 0 7 7 7 0 p w.{..X}.OXL.                        ",
"        ]..X.X7.d x 0 8 0 0 0 7 w B P I I P = o + + + = 7 7 % + + O . # i P G e 0 0 7 7 0 w ,.T.|. X|.{.                        ",
"      L.`. X].0.d x 0 0 0 0 0 7 0 B P I U G % . O $ - 3 7 7 - + + O . @ e P G e 0 0 0 0 0 w d 0._. X|.OX                        ",
"      OX.X XL.u.D 0 0 0 0 0 0 7 0 N J I I J # X O % 3 6 7 & + O O O . O e P G c 0 0 0 0 0 0 a w.J. X X|.                        ",
"    K.{.|.|.E.g.N 7 0 0 0 0 0 8 0 w F P I J % O ; 4 0 7 3 % + O O O . @ e F D 0 0 0 0 0 0 7 q 1.H. X X|.                        ",
"    K.`. X[.%Xn 0 8 0 0 0 0 0 8 7 0 e F I I 3 ; N D w 4 1 - % + + o . # e i e 7 8 0 0 0 0 7 0 i q.`. X[.                        ",
"    }. X XOXA.b 7 0 0 0 0 0 0 7 7 7 0 B J I k D J J v 3 & ; - $ $ + + & e w 0 7 0 8 7 7 7 7 0 i 0.`.|.[.                        ",
"    |. X XK.2.q 7 7 0 0 0 0 0 8 8 7 7 w v F k F I J N 3 < & - - & 3 3 4 q 0 7 7 7 7 7 7 7 7 7 w 8.'.|.                          ",
"  W. X XXXq.p 0 7 7 8 0 0 0 0 0 0 6 7 7 4 q w D K H c 3 * * ; 5 4 0 0 0 7 7 7 7 7 7 7 0 0 0 0 0 3.H.OX                          ",
"*XQ. X XJ.4.w 0 7 7 0 0 0 0 0 0 8 7 7 7 7 1 3 0 e c 0 7 & $ - 9 0 x 0 0 7 7 7 0 q q e i i i i p <.t.Q.L.E.#X                    ",
"OX}. X XG.f q 7 7 7 0 0 0 0 0 0 8 7 7 7 7 ; & 7 c i q 7 7 % + % - 7 0 7 7 7 w i f f <.e.q.q.q.q.H.W.W.K.                        ",
"  |. X|.G.3.  a a w 6 0 0 0 0 8 8 0 7 7 7 3 & 3 N e w 7 7 % + $ - 7 0 w a s <.4.q.8.                                            ",
"     X XK.      f d s r w 0 0 7 7 8 8 8 6 7 & 4 B N 0 0 4 $ + % 6 r s ,.4.9.8.G.J.                                              ",
"                  w.8.<.u e q q q 0 0 8 7 7 & w K N 0 0 7 % * 2 d 3.0.G.J.                                                      ",
"                      H.q.4.,.i.j.a q 7 7 7 & q J B q 0 0 & t <.I.E.E.                                                          ",
"                              %X=Xi.d p u s < 4 K U G N 0 ; y 4.                                                                ",
"                                !.p.5.1.3.8.t 3 D N.l.D 7 1 y <.                                                                ",
"                                          K.g 3 N   l e 3 & y 1.                                                                ",
"                                            a w c e N 6 % % 4 i                                                                 ",
"                                            w w e i w 3 + $ 5 N                                                                 ",
"                                            4 w D i e 3 # + 3 0                                                                 ",
"                                            1 w K D a r ; + % &                                                                 ",
"                                            1 0 B N i     + + % 3                                                               ",
"                                            5 w B N       & $ $ 3                                                               ",
"                                          7 0 D K N       9 - $ *                                                               ",
"                                          1 B H D i         ; - *                                                               ",
"                                          & N B e                                                                               ",
"                                          $ 5 w v                                                                               ",
"                                          + - 6 N                                                                               ",
"                                          + % 1                                                                                 ",
"                                            *                                                                                   "
};
