/* XPM */
static char *_6847585d3874e3cd2d7b11be71e6d363hDTPtsfjEjGZkaR_13[] = {
/* columns rows colors chars-per-pixel */
"62 95 256 2 ",
"   c None",
".  c #1C0503",
"X  c #170302",
"o  c #240703",
"O  c #250805",
"+  c #2C0906",
"@  c #2C0B0B",
"#  c #250806",
"$  c #300A07",
"%  c #330D0C",
"&  c #3A0F0D",
"*  c #3A110F",
"=  c #36100F",
"-  c #370F10",
";  c #390F10",
":  c #2D1312",
">  c #3C1213",
",  c #3B1817",
"<  c #421415",
"1  c #4B1415",
"2  c #451619",
"3  c #4A171B",
"4  c #45191A",
"5  c #4C191B",
"6  c #4B1817",
"7  c #521416",
"8  c #53171A",
"9  c #5A1619",
"0  c #541A1D",
"q  c #5B1A1C",
"w  c #581816",
"e  c #641516",
"r  c #6D1516",
"t  c #631719",
"y  c #6A1618",
"u  c #641B1B",
"i  c #6A1D1C",
"p  c #731414",
"a  c #7A1514",
"s  c #771B1C",
"d  c #5C201E",
"f  c #69201F",
"g  c #76201E",
"h  c #4C1E21",
"j  c #541E21",
"k  c #5D1E20",
"l  c #621F21",
"z  c #7B1E20",
"x  c #4A2223",
"c  c #4C292A",
"v  c #552224",
"b  c #5C2224",
"n  c #5C2628",
"m  c #542B2D",
"M  c #55272A",
"N  c #5B2E30",
"B  c #4A3232",
"V  c #553A3B",
"C  c #5A3739",
"Z  c #642424",
"A  c #6B2524",
"S  c #6D2826",
"D  c #642728",
"F  c #642C2D",
"G  c #6C2B2B",
"H  c #682827",
"J  c #732524",
"K  c #7C2423",
"L  c #732926",
"P  c #742C2A",
"I  c #7A2E2C",
"U  c #792927",
"Y  c #7C312E",
"T  c #73302D",
"R  c #6D3132",
"E  c #62393B",
"W  c #653738",
"Q  c #733332",
"!  c #7C3232",
"~  c #7D3A38",
"^  c #6D302F",
"/  c #73403E",
"(  c #663E40",
")  c #5C4243",
"_  c #554A4A",
"`  c #634445",
"'  c #6B4344",
"]  c #654B4C",
"[  c #6A4C4D",
"{  c #694748",
"}  c #774646",
"|  c #774F51",
" . c #6B5354",
".. c #6C5B5C",
"X. c #695556",
"o. c #725B5C",
"O. c #7A5A5B",
"+. c #715151",
"@. c #6F4F50",
"#. c #775F60",
"$. c #766263",
"%. c #7A6464",
"&. c #766768",
"*. c #7B6C6C",
"=. c #76696A",
"-. c #7B6F70",
";. c #7C7575",
":. c #7D7A7A",
">. c #777575",
",. c #9B100F",
"<. c #831614",
"1. c #8A1412",
"2. c #881A1A",
"3. c #931112",
"4. c #9B1413",
"5. c #9A1A1A",
"6. c #A80E0D",
"7. c #B80E0D",
"8. c #A8110E",
"9. c #B5100E",
"0. c #B90E13",
"q. c #A41313",
"w. c #AA1312",
"e. c #A8181B",
"r. c #BD1212",
"t. c #B51517",
"y. c #A80F12",
"u. c #8A221E",
"i. c #BB1D24",
"p. c #BA1B22",
"a. c #A21D21",
"s. c #822E2C",
"d. c #8C2C2B",
"f. c #872526",
"g. c #972A28",
"h. c #83322E",
"j. c #8B322D",
"k. c #96332F",
"l. c #843432",
"z. c #8B3632",
"x. c #8E3934",
"c. c #873B3A",
"v. c #923633",
"b. c #943A34",
"n. c #9C3C35",
"m. c #9B3333",
"M. c #AC292B",
"N. c #A72726",
"B. c #B52529",
"V. c #BA2328",
"C. c #B32A2C",
"Z. c #B92327",
"A. c #A33533",
"S. c #A33935",
"D. c #A73A3A",
"F. c #B33434",
"G. c #AA2E2F",
"H. c #C20C0B",
"J. c #CB0C0C",
"K. c #D30605",
"L. c #D40807",
"P. c #D40A0A",
"I. c #DC0A0C",
"U. c #DB0805",
"Y. c #C20E14",
"T. c #CD0E12",
"R. c #D50C12",
"E. c #DD0C14",
"W. c #DD0D18",
"Q. c #D60F1B",
"!. c #C51114",
"~. c #C3141B",
"^. c #CC131C",
"/. c #C71416",
"(. c #D3121D",
"). c #D9121A",
"_. c #D41515",
"`. c #E50605",
"'. c #EC0504",
"]. c #E20806",
"[. c #EE070C",
"{. c #E4090C",
"}. c #EB090D",
"|. c #E00708",
" X c #F40404",
".X c #F90302",
"XX c #F3060A",
"oX c #F1080D",
"OX c #E40B14",
"+X c #EB0A11",
"@X c #E20C18",
"#X c #E01312",
"$X c #CC1521",
"%X c #C31B22",
"&X c #C51821",
"*X c #C32426",
"=X c #DF2323",
"-X c #87413D",
";X c #98423D",
":X c #884845",
">X c #9B4646",
",X c #845D5C",
"<X c #885755",
"1X c #955B5D",
"2X c #955656",
"3X c #91514D",
"4X c #A64445",
"5X c #B64347",
"6X c #A35855",
"7X c #90615E",
"8X c #875F60",
"9X c #826A6A",
"0X c #866666",
"qX c #986B69",
"wX c #837474",
"eX c #837B7B",
"rX c #8A7777",
"tX c #967574",
"yX c #A67877",
"uX c #B87B7D",
"iX c #B2656A",
"pX c #C86D73",
"aX c #957E80",
"sX c #A97F82",
"dX c #888384",
"fX c #978586",
"gX c #9A9597",
"hX c #8F9192",
"jX c #A39697",
"kX c #BC9599",
"lX c #AC888A",
"zX c #AE9CA0",
"xX c #D49A9E",
"cX c #D0A4AA",
"vX c black",
"bX c black",
"nX c black",
"mX c black",
"MX c black",
"NX c black",
"BX c black",
"VX c black",
"CX c black",
"ZX c black",
"AX c black",
"SX c black",
"DX c black",
"FX c black",
"GX c black",
"HX c black",
"JX c black",
"KX c black",
"LX c black",
"PX c black",
"IX c black",
"UX c black",
/* pixels */
"                                          B.$X                                                                              ",
"                                        i.B.V.                                                                              ",
"                                      (.&XB.M.      i.                                                                      ",
"                                      W.^.V.  B.C.B.&X                                                                      ",
"                                      @X$XV.$XT./.  Y.                                                                      ",
"                            @XW.    L.J.T./.T.P.L.                                                                          ",
"                            @XW.    P.J.J.P.P.P.P.P.                                                                        ",
"                            W.W.    ^.W.OX  OX{.{.E.P.                                                                      ",
"                                P.P.I.[.+X@X+X X X[.{.                                                                      ",
"                                I.{.'.].P.R.P.|.'.XXoX{.                                                                    ",
"                                +X+XI.9.,.8.8.6.H.{.XX].P.                                                                  ",
"                            W.W.+XI.4.e 9 y r p 1.9.{.{.P.E.                                                                ",
"                              OX[.J.y 0 j D D W Q f.~.E.}.}.+X                                                              ",
"                              [.'.7.q 0 Z P Q E / l.M.).XXXX[.                                                              ",
"                      P.{.+X+X X'.9.q q P c.~ ~ c.;XG._..XXX                                                                ",
"                    W.E.}. X X.XXX~.G S <XfX9X%.rXsXD.R..XXX        `.`.                                                    ",
"              W.@X@XOX[. X.X.X.X X!.H S ,XgXjXlXkXkXF.I..X X        {.{.                                                    ",
"              E.W.@X+X X.X.X.X.X XH.9 Z } rXlXxXcXlXN.K..X.X        E.E.                                                    ",
"              P.^.W.oX.X.X.X.X.XoX0.3 5 Z Y ;XuXjXrXg.K..X.X        P.I.W.      P.^.                                        ",
"              P.^.(.+X.X.X X[.].E.t.2 8 u f j.qXhXrXg.P. X.X      @X{.{.OX      %X$X$X                  $X                  ",
"              E.Q.W.{.oX|.T.*XF.4Xx.5 3 9 i z.yXgXwXd.t.E.+XoX   X[.'.'.}.OX  $X%X(.(.            Q.T.B.^.T.                ",
"              OXOX{.I.T.y.5.x.O.&.o.C h 7 u l.yXsXo./ v.C.p.).}.'. X X X'.+XOXW.(.W.            (.R.T.Z.T.J.J.              ",
"              P.'.}.~.<.y u k j N +.;.C > < j Q R m o.9X,Xl.A.V.(.@X+X}.XX X X[.@X            P.+X+XOXW.E.+X{.P.^.(.@X      ",
"              E. X#XM.j.h.h.I t 8 ( dXV 3 b 0 j b F ' %.-.O.0XqXiXpXiX5X(.XX X XoX@XR.P.P.|.'.'. X X X XXXXXXX{.+X}.+X(.T.  ",
"              +XXX_.S.n.n.n.b.K D ) ..m 0 D Z k 0 n ^ ' ..&.>.>.;.aX*.| m.*X_.#X}.OXI.L.L.U.`.'.'.'.'.'.U.J.J.P.[.XXXXW.R.P.",
"              [.OX*XS.S.S.n.b.! { ] v j 0 k P Z 5 2 P D M ] .... .@.W E +.:Xn.N.H.H.H.H.H.H.H.J.J.J.J.H.4.<.1.6.R.}. XXX+XE.",
"            I.+X*XA.n.n.v.l.Q '  .{ G S L S i S Z h F n 5 n o.:.eXeXeX;.=.o.E q t t t t y r s d.d.g.d.U U A r 3.4.9.P. XXX+X",
"            `.{.N.I J S Z F ' #.] F Y h.h.I u L G j b Z b 0 ( ` V ) ` ` C V c 2 2 2 N { Q P ! c.v.m.g.K Y Y L a a 4.T. XXX+X",
"          .X XI.v.` E E C ` ..o.` W :Xx.x.h.A P P v q H H k ' m % % > 2 2 2 2 5 5 7 +.tXS.m.N.N.C.*Xt.w.N.M.N.4.3.t.W.XX}.OX",
"        oX X X$X1X:.;.;.:.:.=.N C ..*.:Xx.h.P P G F j Z H b =.X.5 2 3 3 8 3 0 q t p 2XuXV.!.J.P.OX+X[.[.[.[.[.[.+X+XoXoXI.P.",
"        oX X X$X1X=. . .X.=.;.c % B ;.:XI I ! S H G < v H b -...0 e p a a a 1.w.Y.J._.=X}.'.'. X.XXXoXoXoXoXoXoXoXoX        ",
"        +XXX'./.1XeXrXrXwX&.] x % : _ O.0X<Xl.i A S > 0 R E *.o.J w.0.9.q.e.!.I.oXXX'. XXX X X XXXoX  oXoXoXoXoXoX          ",
"        +XXXU.4.| wXfXaXeX..m h 3 > : X.:.rX3XS A P < 5 E ..$.} f.Q.+XE.T.(.@X[.oXXXXXoXoX'.`.`.OX                          ",
"      OXXXoXY.7 x c M M h B ] m Z P H , c #.fX} f I < < C %.} H <.~.W.OXE.W.(.(.OX                                          ",
"      I. XI.4.3 4 < % % + ,  .%.%.| P A G -X3X~ I Y 2 < n } Q Z a &X).      W.+X[.                                          ",
"    Q.{.[.r.a 3 2 > + + + , { %.eXrX,X-Xj.s.s.Y l.h.2 > b I H Z K p.          [..X                                          ",
"  ^.Q.[.OX4.9 2 > % + % % x ] { $.dXfX1X:X:X~ ! l.l.> > b P n G ~                                                           ",
"$X!.P.}.r.a 5 2 & + @ > > c ..=.o.[ o.wXfXlX9X} ! G < > 3 v ( [ [                                                           ",
"C.i.!.(.>X} v > + + % < 2 x C &.wX*.$.o.O.8X*.:Xh.P < > 0 Z m m N                                                           ",
"G.5X5XC.2X%.X.V , % > 2 3 2 h ..*.=.-.$.} ~ *.,X:Xh.* > b P b u s                                                           ",
"V.iXyX;Xb.7XdXdX` 5 4 2 2 2 4 ] ) C *.dX,Xc.0XdXqXY 1 < b ! Q d.M.                                                          ",
"r.F.4Xv.n.;X>X3X9X] 3 2 2 2 4 E o.>.*.+.~ b.;XyXtX! P b b ! O.>XV.                                                          ",
"    k.z.b.n.S.n.<X' 3 2 2 3 4 x ` O.| ~ 3XqXqXlXtXl.l.b 3 ! :Xn.V.                                                          ",
"      z.x.b.n.n.x.H 3 3 2 3 4 > j G Y -XqXgXgXjXtXl.l.8 < I l.m.M.                                                          ",
"      n.v.b.n.S.n.Y 0 3 3 3 3 4 8 J z.,XeXhXjXjXtXT ! 0 2 P ! z.b.                                                          ",
"      /.M.m.b.n.n.h.A 9 5 3 2 4 0 U z.0XdXfX6X6X:Xn Y 5 * G A f.C.).                                                        ",
"      P./.N.z.v.x.z.h.L 6 > 2 4 b I l.:X7X1XS.k.H 5 I d 6 G 0 J M.(.                                                        ",
"        L.e.l.! l.x.n.v.8 @ < 5 H Y l.l.v.A.A.s.b 3 U S Z L 3 v d.&X                                                        ",
"        H.e.Y P I l.b.n.w @ < 0 S l.l.l.z.x.z.H 0 0 u H S y 8 0 k                                                           ",
"        ^.e.g A Z L h.l.8 % 4 H h.x.x.l.z.z.J H H H A L P S q 0 j P                                                         ",
"        (.w.a u 9 0 Z b < % 3 P z.x.b.x.x.h.q Z S A A A A H i 0 0 P z.                                                      ",
"      $XJ.q.y 0 5 2 < > ; > 5 P l.l.z.b.x.S 3 9 u u u u u u u 1 < G x.n.                                                    ",
"      i.w.1.u 8 2 2 2 2 2 2 0 P l.l.l.b.Y j 4 b G G S S G G u 1 < q U l.                                                    ",
"      r.w.<.9 3 2 2 2 3 5 3 q I l.l.z.v.S > * 0 A A A A H G G 5 & 3 S Y                                                     ",
"      r.8.a 9 2 2 2 2 2 2 8 u I l.l.x.h.0 @ % w i i i u A G R 5 % 4 H Y                                                     ",
"      i.4.a 9 2 2 2 2 2 2 8 u s.z.x.z.H > # - b P L L L L P P 6 @ 5 H Y x.                                                  ",
"      r.8.a 9 2 3 3 3 2 2 8 i h.x.s.i 1 % # > b P P P P P P P 3 @ 4 0 H h.M.                                                ",
"      7.5.s 9 3 3 3 3 2 2 3 9 J U J Z > + + > Z P P P P P P P 6 # > 8 Z U a.                                                ",
"        ! S 9 5 3 3 2 2 2 5 q u u f G > + + % 0 H H S L L P T 6 # > 0 Z J 1.q.                                              ",
"        I A 9 5 3 3 2 2 2 j G L f i S < + + + > 2 5 0 9 f G R 4 # > n H y 1.t.$X                                            ",
"      M.2.i 0 3 3 3 3 3 2 j G P L L S * + + O O @ > 2 < & > > @ O < H H 9 p a.%XP.                                          ",
"      t.q.p 0 3 2 3 3 3 2 0 H L P P S * o + O . O > > % o o . X O < H H 9 9 s e.7.                                          ",
"      r.8.a 0 3 2 2 3 3 2 8 q L P P S * # + + . # > < % + + . X O < H S 9 5 9 a 4.                                          ",
"      i.w.<.q 3 2 2 2 3 3 8 q S P P S * # + + o @ 2 < % + + # . # 8 S S 9 3 8 l s.5.                                        ",
"        9.1.9 2 2 2 2 2 3 8 0 S P P S * # + + o % 2 < % + + # . @ n P A 9 3 3 0 H K                                         ",
"        H.3.0 2 2 2 2 2 2 5 0 S P P S = o + + + * 2 2 * + + # . : F T A 9 3 4 3 0 n H                                       ",
"        H.3.9 2 2 2 2   2 5 0 L P P S % . + % > 2 2 4 > % + # . @ F T A 9 2 2 2 5 5 9 r <.                                  ",
"        H.3.9 2             q J P P S % . # % < 5 2 & + # # O . @ F P A 0 3 2 2 2 2 3 8 t a                                 ",
"          ,.9               u G P P S % O > 1 3 2 < % + o # # . @ F Q H 0 2 2 2 2 2 2 3 5 t y                               ",
"                              F G P L < > 0 u 0 2 > % % + + # . @ D G n 3 2 2 2 2 3 8 8 8 9 t r                             ",
"                              j Z P L 0 b L G j < > > - % + + + & u 0 0 2 2 2 2 5 0 t p <.<.<.                              ",
"                                j k l u A P P v < > > > - % > < 3 8 5 5 2 2 2 j S y r                                       ",
"                                2 2 2 8 u H Z j < > % > > 2 5 5 5 2 2 2 3 9 l H I s                                         ",
"                                  < > > 5 q 0 5 2 > % & < 5 0 5 5 2 4 2 9 a f.!                                             ",
"                                    > > < 0 9 8 2 2 % $ % > 2 5 2 3 4 8 p 6.                                                ",
"                                    > > < 0 9 8 5 5 % + % > 2 3 2 2 5 0                                                     ",
"                                    > > 3 b q 5 5 5 % + % < 2 3 8 5 0                                                       ",
"                                    < > 0 G j 3 5 5 % % > 2 5 0 q 0                                                         ",
"                                    4 > 0 G j 5 5 5 % > 2 2 0 9                                                             ",
"                                    2 > 5 A y Z b 5 > 1 0 0 9                                                               ",
"                                    2 > 2 u <.u.A 2 > 7 t 9                                                                 ",
"                                      > < q 1.4.a 2 > w p                                                                   ",
"                                      > < 0 r a e > ; 1 8                                                                   ",
"                                      > 2 0 t e 7 % % < 5                                                                   ",
"                                      > 5 u u u 1 % + > 2                                                                   ",
"                                      > 0 G 0     % @ % ;                                                                   ",
"                                      > 5 b 0       $ + % <                                                                 ",
"                                      2 5 b 0       * % % >                                                                 ",
"                                    5 j Z H 0       4 > % +                                                                 ",
"                                    > n D q           % % +                                                                 ",
"                                    > j l 9                                                                                 ",
"                                    > 2 0 q                                                                                 ",
"                                    + % 2 0                                                                                 ",
"                                    + - <                                                                                   ",
"                                      >                                                                                     "
};
