/* XPM */
static char *_6847585d3874e3cd2d7b11be71e6d363hDTPtsfjEjGZkaR_3[] = {
/* columns rows colors chars-per-pixel */
"58 94 256 2 ",
"   c None",
".  c #1C0504",
"X  c #160201",
"o  c #220706",
"O  c #2A0706",
"+  c #2C0806",
"@  c #210708",
"#  c #250909",
"$  c #2C0B0B",
"%  c #240907",
"&  c #330C0C",
"*  c #3A0E0F",
"=  c #35100F",
"-  c #39100F",
";  c #2C0D10",
":  c #230A10",
">  c #330E12",
",  c #3A0F11",
"<  c #361112",
"1  c #3B1213",
"2  c #3C141A",
"3  c #361419",
"4  c #2D161F",
"5  c #3E252B",
"6  c #431415",
"7  c #4B1616",
"8  c #44161B",
"9  c #4A171A",
"0  c #44181A",
"q  c #4C191C",
"w  c #4D1817",
"e  c #52171B",
"r  c #531B1D",
"t  c #591D1E",
"y  c #641C1D",
"u  c #6C1A1C",
"i  c #771A1E",
"p  c #5A201F",
"a  c #67201F",
"s  c #4C1B21",
"d  c #471A21",
"f  c #551B22",
"g  c #5A1E23",
"h  c #621E22",
"j  c #741D27",
"k  c #4C2A2D",
"l  c #4A2223",
"z  c #542225",
"x  c #5D2124",
"c  c #5C252A",
"v  c #55292D",
"b  c #5A2B2D",
"n  c #512D33",
"m  c #593438",
"M  c #47373E",
"N  c #632226",
"B  c #6A2626",
"V  c #662429",
"C  c #6A262A",
"Z  c #6D292B",
"A  c #65282E",
"S  c #732529",
"D  c #722C2C",
"F  c #7D2C2C",
"G  c #762729",
"H  c #77302F",
"J  c #78312F",
"K  c #6B2B33",
"L  c #652E36",
"P  c #742D31",
"I  c #7A2E30",
"U  c #633336",
"Y  c #6D3236",
"T  c #63353A",
"R  c #6B343C",
"E  c #65393C",
"W  c #6C3B3D",
"Q  c #753234",
"!  c #7C3232",
"~  c #7B3A3C",
"^  c #78383B",
"/  c #523A40",
"(  c #653B40",
")  c #6B3B42",
"_  c #733B42",
"`  c #7B3F42",
"'  c #5F4D52",
"]  c #5F4649",
"[  c #6C4B4E",
"{  c #694448",
"}  c #744245",
"|  c #7A4244",
" . c #734549",
".. c #7D464A",
"X. c #774C4F",
"o. c #6B4D51",
"O. c #644C51",
"+. c #734C51",
"@. c #794950",
"#. c #6E5559",
"$. c #6D5658",
"%. c #735154",
"&. c #7A5559",
"*. c #755A5C",
"=. c #7B5B5D",
"-. c #7B5356",
";. c #7C5E61",
":. c #745D62",
">. c #766264",
",. c #7B6264",
"<. c #7B6B6D",
"1. c #78686A",
"2. c #7D6D70",
"3. c #756E71",
"4. c #7B7676",
"5. c #9A181C",
"6. c #A5191D",
"7. c #B81519",
"8. c #9B1A26",
"9. c #9D1D30",
"0. c #891B22",
"q. c #A81A24",
"w. c #BD1B22",
"e. c #BA1B2C",
"r. c #B51D25",
"t. c #BA1833",
"y. c #B21C32",
"u. c #832D2D",
"i. c #8B2D2E",
"p. c #8D2326",
"a. c #942C2E",
"s. c #9D292A",
"d. c #85312F",
"f. c #8A302F",
"g. c #842F31",
"h. c #872433",
"j. c #992A31",
"k. c #833333",
"l. c #8B3232",
"z. c #8C3936",
"x. c #833C3C",
"c. c #8B3A3A",
"v. c #853737",
"b. c #923433",
"n. c #9A3232",
"m. c #9E3837",
"M. c #953C39",
"N. c #9C3C3B",
"B. c #A32425",
"V. c #B5232C",
"C. c #B82427",
"Z. c #AB2A35",
"A. c #B52534",
"S. c #A13B3B",
"D. c #AA3439",
"F. c #D70F14",
"G. c #DD0E14",
"H. c #CC151C",
"J. c #C7171F",
"K. c #D4131A",
"L. c #D91016",
"P. c #C30F14",
"I. c #E50A0E",
"U. c #EB070B",
"Y. c #E10C11",
"T. c #E90B11",
"R. c #CC1621",
"E. c #C51C23",
"W. c #C61727",
"Q. c #99403E",
"!. c #963B40",
"~. c #AB3A49",
"^. c #8D4344",
"/. c #844A4C",
"(. c #874748",
"). c #934545",
"_. c #9B4544",
"`. c #964B4C",
"'. c #914F52",
"]. c #845354",
"[. c #8B5355",
"{. c #825A5C",
"}. c #8D5A5B",
"|. c #955C5C",
" X c #844E52",
".X c #A54A4C",
"XX c #A8555B",
"oX c #865D62",
"OX c #856464",
"+X c #896060",
"@X c #82696C",
"#X c #8A6B6D",
"$X c #816669",
"%X c #94696B",
"&X c #976466",
"*X c #846F71",
"=X c #8E6F71",
"-X c #936F70",
";X c #837475",
":X c #8B7272",
">X c #857D7E",
",X c #8B7D7E",
"<X c #8A7678",
"1X c #927B7B",
"2X c #997678",
"3X c #867F80",
"4X c #8C8182",
"5X c #8E8B8B",
"6X c #898385",
"7X c #9A8486",
"8X c #918A8A",
"9X c #948587",
"0X c #998E90",
"qX c #8F9292",
"wX c #919494",
"eX c #9C9395",
"rX c #969899",
"tX c #A18A8D",
"yX c #A6989A",
"uX c #B2999A",
"iX c #BAA9A9",
"pX c #C2A8A7",
"aX c black",
"sX c black",
"dX c black",
"fX c black",
"gX c black",
"hX c black",
"jX c black",
"kX c black",
"lX c black",
"zX c black",
"xX c black",
"cX c black",
"vX c black",
"bX c black",
"nX c black",
"mX c black",
"MX c black",
"NX c black",
"BX c black",
"VX c black",
"CX c black",
"ZX c black",
"AX c black",
"SX c black",
"DX c black",
"FX c black",
"GX c black",
"HX c black",
"JX c black",
"KX c black",
"LX c black",
"PX c black",
"IX c black",
"UX c black",
/* pixels */
"                                    F.F.                                                                            ",
"                                    Y.Y.                                                                            ",
"                                                                                                                    ",
"                                                                                                                    ",
"                                        K.H.                                                                        ",
"                                        G.G.                                                                        ",
"                                        I.G.                                                                        ",
"                                      G.I.G.                                                                        ",
"                                    t.R.I.Y.                                                                        ",
"                                  t.e.J.F.F.C.Z.t.            R.R.                                                  ",
"                                R.e.8.5.5.6.a.Z.W.          K.K.H.                                                  ",
"                              G.H.q.y q f g V p.7.            Y.                                                    ",
"                              T.P.u r f g N Z ! i.m.                                                                ",
"                              G.7.q s N Z Z P ! ! b.C.                                                              ",
"                            K.H.q.f g Y | _ ^ x.(.b.w.L.                                                            ",
"                            K.W.9.V Z X.*X=.[.%X9X.XE.K.  R.                                                        ",
"                    I.      Y.K.q.h D oXeX0XuXpXiX.XV.W.R.                                                          ",
"                            I.G.6.f x ..-X2XuXiXuX.XV.W.K.G.                                                        ",
"                            Y.L.q.9 q N ! ).2XrX4X_.V.R.K.Y.I.                                                      ",
"                      R.J.H.K.R.8.6 9 g Z (.1XqX3XM.y.W.R.G.I.                                                      ",
"                I.U.U.H.w.A.XX&X..2 9 g Z /.tXeXOXv.j.A.e.H.F.                                                      ",
"              I.I.I.H.6.0.h.%.>.#.m l q z ` 2X2X} | ^.!.j.q.C.                                                      ",
"            I.U.Y.J.s.a q r q x _ <.n 1 0 A | ~ A +.;.-.~ z.N.`.oX}.~.y.                            x f f f f       ",
"            I.U.K.Z.        r e E 4Xm e x r x V C ^ ,.>X>X,X,X9X0XeX%Xg.! =.oXZ.r.s.k.H N g N N g f f f f f f f f f ",
"            G.Y.K.          C U [ &.v r V V t r g D W ] O.1.>.[ %.-.&.=.=.+.R j i u C ` Q D F k.k.! D D D S N t r f ",
"            K.H.E.          Z } +.K f f V D N q r D x 6 d o.%.E E E %.2.:.m 9 9 6 v  . Xx.i.n.Q._.Q.v.v.l.u.V r r f ",
"            H.w.Z.N.      N A L K C D Z V C Z c d C N f z [ 1.4.4.4.<.%.c q 7 9 7 *.0X[.c.i.                        ",
"            G.B.F D C f e c >.{ f F u.u.F V P Z 8 x V N g c v k n n b z q 7 9 7 7 =.yX                              ",
"            H._.{ h h T o.*.;.o.T d.z.z.g.V D D f f V C x ( n 1 6 7 7 7 q q q 7   =.                                ",
"            ~.%X>.W W *.4X6X) ( %./.^.c.I S D D V r c C c 1.O.8 q w 7 r f f f                                       ",
"            tX#X@X5X5X>X;X<.k 2 / 3X].! ! k.D C Z 2 f C c 2.#.f f                                                   ",
"          C.[.<X5XqXqXwX;XE d > 4 M <.:X&.k.C C Z 3 s K K <.&.Z                                                     ",
"          B.B %.*X;X@X$X+.f q 8 8 2 ' 3.<.{.Y C D 3 8 Y @.&.} P                                                     ",
"        i.S 1 q U  .L f f b c Z D N s m >.>X .S F 1 1 U >._ Z C K                                                   ",
"      D.G 9 = & < 3 < ; 5 $.*.} ! ! P Q x.'.~ I F 1 < z Y Q Z V                                                     ",
"      G h 6 6 < $ O % @ 3 m 1.;X#X{.x.F ! v.! v.v.1 & t I C C D                                                     ",
"      t q 7 6 - $ + & $ 2 m o.>.;X;X+X}.].x.k.v.~ 1 1 t D g V k.                                                    ",
"    b.Z z s 0 & + & , * k $.T c ( 2.9XeX7X[.v.! Z 2 3 q f f f                                                       ",
"  yX7X,X<.>.*.k & & 6 8 d m <.,X;X>. ._ @.$X/.k.P 3 3 r C 9 y j.                                                    ",
"5X1X%X&X&X}.}.*.{ f 9 9 6 q >.@X*.1.;.} Q {.^.b.F 3 < p H f y                                                       ",
"  {.l.m.S.N.Q.%X;.A r 7 6 0 [  .{ <.6XOXx.^.`._.F q 6 t ! ^ R                                                       ",
"    v.M.N.S.S.M.P f q 7 7 q [ 1.1.>.=.].`._.2X#X! D t t ! ;.2.                                                      ",
"    k.l.M.S.S.n.G f 9 9 7 9 l T @.&.].#X7X1X8X:Xk.k.r 6 ! ].'.S.                                                    ",
"    k.k.b.m.S.m.u.f 9 6 6 7 6 f P ../.=XrXwXwX:Xk.k.q 2 ! ^.!.D.E.                                                  ",
"      k.l.b.m.N.v.D t 6 1 7 9 f S k./.*X5XwX8XOXQ ! r 0 Q ! l.Z.E.                                                  ",
"      J ! l.z.k.v.M.u.7 $ 1 8 z F b.{.3X5X5X&X~ g I s 2 K V D l.                                                    ",
"          ! D ! k.b.M.r O & 6 N ! l. X<X8X|.^.Z s I x q Z f N !                                                     ",
"            C I k.k.z.r $ , q C k.k.c.}.%X_.k.x q D V x Z q f Z                                                     ",
"                  ! J 0 ; 8 f D k.k.k.c.).).K t t Z Z C C s s f                                                     ",
"                      & & 9 V v.M.a.f.l.a.P C V Z D D D Z N f f                                                     ",
"                        * q D z.b.a.b.b.u.g x C C C C C B N r q Z                                                   ",
"                          r D k.u.l.M.z.D q f C C C C V N N q 9 C                                                   ",
"                          r D ! k.k.M.! t 9 x C C C C C C C q 2 N                                                   ",
"                          N D k.k.d.l.B 2 1 r N N N N V V V 9 & r N                                                 ",
"                          C ! k.l.z.g.t $ = t C B B B C C C 9 & 7 N Z                                               ",
"                          Z k.l.l.z.Z 1 @ < x D D D D D D Z q $ 9 f x                                               ",
"                          D i.a.i.C q $ o < x D D D D D D Z 0 # 6 f g                                               ",
"                          N S S C V 1 # $ 1 N D D D D D D Z 9 # 1 r g                                               ",
"                          N V V N N 1 % $ & t N N C Z D D D 9 # 1 f N                                               ",
"                          P D C C Z 1 O + + - 7 r f g N C C 9 $ 2 f V                                               ",
"                          D D D P Z 1 O O o . $ 1 6 * * 6 6 $ o 1                                                   ",
"                          Z D D D Z 1 O O % X o < 1 & $ $ # . . &                                                   ",
"                          V Z D D Z < o + $ . @ 3 8 > $ # . X . &                                                   ",
"                          N Z D D Z < o + $ . $ 8 8 > + O o . . 3                                                   ",
"                          C D D D Z < O + + # > 9 9 * + + o . # 6                                                   ",
"                          D D D D Z & o + + $ 1 9 9 1 $ O # . # 6                                                   ",
"                          D D D D Z & . $ $ < 6 9 9 1 $ # # . % 6                                                   ",
"                            D D D Z $ . $ = 6 9 9 1 $ # @ @ . o 6                                                   ",
"                            P D D Z $ . < 9 q 9 8 < # @ # o X o 6                                                   ",
"                            Z Z D Z 6 1 r f r 9 2 < $ # # @ . o 6                                                   ",
"                            V V C Z t x C C r 6 1 1 < & $ $ $ $                                                     ",
"                              f x V V C K C r 6 1 1 1 < < 6 6 7                                                     ",
"                                q 9 r N V N r 6 1 = - 1 6 q r                                                       ",
"                                  < 6 r f x r 6 1 & & 6 9 r                                                         ",
"                                  < 1 6 r x r 7 6 & & 3 8                                                           ",
"                                  < < 6 f x r 7 7 & + $ <                                                           ",
"                                  2 < 9 N f r 7 7 & O $ =                                                           ",
"                                  8 3 q V f r r q & $ & 1                                                           ",
"                                    1 q C x V N r - 3 8                                                             ",
"                                    1 r Z K I D f 1 1                                                               ",
"                                    1 9 V P k.D s 1                                                                 ",
"                                    < 6 f Q ! V 8 3 1                                                               ",
"                                    1 6 t K P x 1 1 9 f                                                             ",
"                                    2 9 f A A q & & 6 q                                                             ",
"                                    2 s x N x 6 & + * 6                                                             ",
"                                    2 q V g     1 $ & ,                                                             ",
"                                    1 9 g f       & $ & &                                                           ",
"                                    6 r g f       & & + &                                                           ",
"                                    r f N r       1 & & $                                                           ",
"                                  1 f N f           < & $                                                           ",
"                                  1 r N x                                                                           ",
"                                  & 9 f x                                                                           ",
"                                  $ 3 q f                                                                           ",
"                                  : ; 1                                                                             "
};
