/* XPM */
static char *_6847585d3874e3cd2d7b11be71e6d363hDTPtsfjEjGZkaR_6[] = {
/* columns rows colors chars-per-pixel */
"57 94 256 2 ",
"   c None",
".  c #160303",
"X  c #1A0405",
"o  c #1E0508",
"O  c #1F0806",
"+  c #220907",
"@  c #23060A",
"#  c #26090B",
"$  c #2C0B0D",
"%  c #28060A",
"&  c #330D0E",
"*  c #3B0D0E",
"=  c #36100F",
"-  c #3B100F",
";  c #2E0D10",
":  c #320E11",
">  c #3A0F10",
",  c #361012",
"<  c #3B1213",
"1  c #3C1318",
"2  c #3D191C",
"3  c #400F11",
"4  c #431515",
"5  c #4A1616",
"6  c #461817",
"7  c #491917",
"8  c #441619",
"9  c #4C151E",
"0  c #461818",
"q  c #4B1A1A",
"w  c #51151F",
"e  c #531D1D",
"r  c #5A1D1D",
"t  c #5A1212",
"y  c #641919",
"u  c #6A191A",
"i  c #791819",
"p  c #57201F",
"a  c #4C1421",
"s  c #401F23",
"d  c #4C1923",
"f  c #511521",
"g  c #541D21",
"h  c #5B1E23",
"j  c #5C1F28",
"k  c #681E22",
"l  c #4C2325",
"z  c #492727",
"x  c #552122",
"c  c #5C2323",
"v  c #572B2A",
"b  c #5C2C2D",
"n  c #5A2329",
"m  c #5A2B30",
"M  c #522D38",
"N  c #4D373A",
"B  c #5D3233",
"V  c #5E3B3C",
"C  c #5C323B",
"Z  c #632525",
"A  c #6B2525",
"S  c #662827",
"D  c #692827",
"F  c #642628",
"G  c #6B252B",
"H  c #662929",
"J  c #6C2B2A",
"K  c #762426",
"L  c #722D2B",
"P  c #7B2F2B",
"I  c #772629",
"U  c #65302F",
"Y  c #76302E",
"T  c #7C322E",
"R  c #6B2E30",
"E  c #672433",
"W  c #722D33",
"Q  c #792D33",
"!  c #7D2F3A",
"~  c #7C2336",
"^  c #6D3334",
"/  c #62353B",
"(  c #633A3B",
")  c #6B3A3C",
"_  c #653233",
"`  c #743233",
"'  c #7D3332",
"]  c #7F3936",
"[  c #7D323A",
"{  c #733B3B",
"}  c #7C3A3B",
"|  c #7B403F",
" . c #653E43",
".. c #7D3A43",
"X. c #584346",
"o. c #6B4343",
"O. c #6F4448",
"+. c #664B4C",
"@. c #6C4C4D",
"#. c #664348",
"$. c #734444",
"%. c #7B4442",
"&. c #734B4B",
"*. c #7A4B4B",
"=. c #764448",
"-. c #7D4F51",
";. c #6D5253",
":. c #6A5658",
">. c #745354",
",. c #7C5353",
"<. c #74575B",
"1. c #755A5C",
"2. c #7A5E5E",
"3. c #765757",
"4. c #6A4A52",
"5. c #746365",
"6. c #7D6363",
"7. c #7C6C6D",
"8. c #7A686B",
"9. c #7E7071",
"0. c #890E13",
"q. c #990E13",
"w. c #8B1113",
"e. c #891D1D",
"r. c #9F1917",
"t. c #961218",
"y. c #A90D0F",
"u. c #B50B0B",
"i. c #BD0A0D",
"p. c #A40F12",
"a. c #A80D16",
"s. c #B90E15",
"d. c #801D2D",
"f. c #931A29",
"g. c #A31924",
"h. c #802727",
"j. c #902629",
"k. c #80342F",
"l. c #833434",
"z. c #893936",
"x. c #83323B",
"c. c #8A353D",
"v. c #823B39",
"b. c #8D393A",
"n. c #883835",
"m. c #913C3B",
"M. c #88233C",
"N. c #B8232C",
"B. c #C8090F",
"V. c #D2090F",
"C. c #C50B17",
"Z. c #CB0A13",
"A. c #D10910",
"S. c #80403C",
"D. c #95413D",
"F. c #893441",
"G. c #873C48",
"H. c #893F52",
"J. c #814442",
"K. c #8C4245",
"L. c #824847",
"P. c #8A4846",
"I. c #8A474E",
"U. c #844C4B",
"Y. c #8E4A49",
"T. c #924847",
"R. c #84514F",
"E. c #88504F",
"W. c #834953",
"Q. c #845454",
"!. c #8C5454",
"~. c #835857",
"^. c #865A5A",
"/. c #8A605F",
"(. c #86615F",
"). c #895960",
"_. c #836564",
"`. c #896465",
"'. c #8C6769",
"]. c #846C6C",
"[. c #8A6C6C",
"{. c #856669",
"}. c #87706F",
"|. c #97706F",
" X c #896F70",
".X c #837474",
"XX c #8A7474",
"oX c #8C7B7B",
"OX c #857778",
"+X c #917B7B",
"@X c #967C7B",
"#X c #916A68",
"$X c #8D7F82",
"%X c #8E8383",
"&X c #928383",
"*X c #9B8584",
"=X c #948A89",
"-X c #9B8E8D",
";X c #998788",
":X c #959393",
">X c #9A9696",
",X c #A28080",
"<X c #B08D91",
"1X c #A39B9B",
"2X c #AB9B9D",
"3X c #B4A5A7",
"4X c #B2ABAC",
"5X c black",
"6X c black",
"7X c black",
"8X c black",
"9X c black",
"0X c black",
"qX c black",
"wX c black",
"eX c black",
"rX c black",
"tX c black",
"yX c black",
"uX c black",
"iX c black",
"pX c black",
"aX c black",
"sX c black",
"dX c black",
"fX c black",
"gX c black",
"hX c black",
"jX c black",
"kX c black",
"lX c black",
"zX c black",
"xX c black",
"cX c black",
"vX c black",
"bX c black",
"nX c black",
"mX c black",
"MX c black",
"NX c black",
"BX c black",
"VX c black",
"CX c black",
"ZX c black",
"AX c black",
"SX c black",
"DX c black",
"FX c black",
"GX c black",
"HX c black",
"JX c black",
"KX c black",
"LX c black",
"PX c black",
"IX c black",
"UX c black",
/* pixels */
"                                      C.                                                                          ",
"                                    C.C.                                                                          ",
"                                  C.C.C.                                                                          ",
"                                    u.u.                                                                          ",
"                                      B.C.                                                                        ",
"                                      A.Z.                                                                        ",
"                                      V.A.                                                                        ",
"                          V.    C.    A.C.C.C.  V.V.V.                                                            ",
"                            i.u.      i.i.Z.A.A.Z.Z.                                                              ",
"                              u.    e.r.r.s.B.Z.C.                                                                ",
"                                  Z J Y P e.a.s.                                                                  ",
"                                f d g c Z A K h.                                                                  ",
"                              w.f d g c Z ^ { Y Z                                                                 ",
"                            u.q.f g c H ^ | J.' J                                                                 ",
"                            p.w.r Z W ..U.S.J.U.]                                                                 ",
"                            M.~ Z D ~.;X XXX*X<XH.f.u.                                                            ",
"                            f.d.j F E.,X-X1X4X2XW.g.i.                                                            ",
"                              0.a c Y Y.*X3X3X%X=.g.Z.                                                            ",
"                                < e Z W Y.@X:XXX{ I                                                               ",
"                          %X.X( < q c D L.XX%X}.{ *.                                                              ",
"                    a.q.  ].].>.0 4 e F *.+X&X_.^ ,.XX                                                            ",
"                    u u F O.6.2.B 6 4 c O.+X+X&._ 3.{...b.D.                                                      ",
"                i A Z Z Z x x o..XC 8 q l ) { b 1.9.8.-.U.U.Q.oX2X2XoX                      c f f a q q e c Z     ",
"                I l.l.l.Y Z r ( oXB 9 F c h h S o.6..X].[.`.`.XX&X}.*.3.6.&.c r q 5 e r Z P J D F Z Z S c c g f   ",
"              z.n.D.D.D.m.L H  .>.v r J J h g c G O.<.2.oXoXoXoX.X2.$.1.;.( x e x b ( R L ' x.l.' L Y ] ` g a a f ",
"            D.D.m.m.m.m.z.` &.@.l c c Z J Z q 1 W E d b 6.oXoXXXXXXX].1.B 0 0 4 V 6.].I.z.b.F.F.c.  Y x.c.  w f   ",
"            b.m.m.m.z.P H ;.5.>.J L J D D L S e F c g c _ { %.) ) ( B v q 7 0 4 3.*X^.                            ",
"            Q G G A A H +.7.1.) [ x.x.Q Z L L c c Z Z c Z r q e e e q 7 7 q q 5 2.>X!.                            ",
"          K.{ / / ( ( @.7.6.O.^ I.F.c.x.D L L c g Z Z c ) l $ 1 q q q q q q q 9 <.>X                              ",
"        N.'.OX&X-X-X=X%X].B V 5.[.I.x.T Y J D Z d n Z c _.+., ,                                                   ",
"          OXoX6.o.o.2.oX.Xz 1 N .X[.*.L Y J D D 1 g D c {.3.e                                                     ",
"        M +.6.6.>.>.6.6.+.l > 2 X.7.].,.v.J D J , q J ) ].,.J                                                     ",
"        9 6 ( _.=X=XoX;.l g c q 1 +..XoX!.^ J L 4 q ^ 1.8.*.L                                                     ",
"        8 : < q l l s N :.b Z J J b b $.[.$.L ! 1 < b -.{ J J                                                     ",
"        8 * & & $ $ % 2 o.6._.R.[ A A Y U.} [ x.8 < c G.W Z r                                                     ",
"      a 8 * : $ $ $ $ 2 ( 5.OXXX).U.S.T P T n.x.6 < c [ D b V                                                     ",
"    n d 4 , $ $ $ * & z :.M 4.oX-X&X^.] ] ' l.x.1 , x J n  .5.                                                    ",
"  1X8.V q : $ $ , 4 * z 1.8.6.>.o._.&X*XXX%.P D 1 1 d c o.#.B                                                     ",
"+X|./.*. .X.s : > 4 4 q ( _.]._.3.2.`.`.`.P.l.W 8 1 g S / m w                                                     ",
"'.K.D.P.Q._.#.l 4 4 q 5 q O.].oXXX{.*.` Q.!.Y.[ 6 4 c Y Z f f                                                     ",
"  c.m.D.K.Y.[.@.4 7 q 4 4 +.5.2.2..X`.~.[.oX/.Y e q c Y ` `                                                       ",
"  l.b.m.    L.U 4 7 q 4 6 v ;.9.].,.~.XXXXoX`.T L x g ' ^.].                                                      ",
"  T z.      P Z 5 7 q 0 0 4 B 3.,.%.~.oX%X%X/.' k.c q ' R.[.                                                      ",
"            l.J e q 7 q 6 3 e D L L.`.%X:X=X(.Y T e 0 Y T ~.$X                                                    ",
"            b.L q 0 q q 0 4 r J c.`.oX%X:X=X2.D Y e 8 ` ` } G.                                                    ",
"          F.n.Y D Z e 0 0 6 c L F.'.oX%X%X[.$.c Y e 8 J S W [                                                     ",
"          ! ' k.l.' x < 4 q Z Y x.Q.[.oX#XU.J q P c q J r F [                                                     ",
"          D P l.m.m.x $ < e J T T T R.[.T.' c q L D c J 5 h `                                                     ",
"            J L l.c.g $ 3 r J T T T v.K.l.S r c D J D S e e F x.                                                  ",
"                P k 4 & 4 Z ' z.z.x.c.x.J Z Z D J L J S c e c !                                                   ",
"                  * & < q L n.b.b.c.c.[ c Z D J J J D D Z e e `                                                   ",
"                        e L ' T k.b.n.J q p Z Z Z Z Z F F q 8 R                                                   ",
"                        e L T T T b.Y e 4 r D S S S S F Z q 1 c W                                                 ",
"                        Z P T T n.n.Z , * r D Z Z Z D D F q : q H Q                                               ",
"                        J Y l.n.c.' q # , x D Z Z Z D J L q $ 6 Z J                                               ",
"                        J Y n.c.x.Z , @ , c L L J L L L L q $ q Z S                                               ",
"                        J Y l.' G q $ @ , c L L L L L L L q $ 4 g c                                               ",
"                        Z L P J Z < # # , c L L L L L L L q @ * q c                                               ",
"                        Z D Z Z D , @ $ & e Z Z S D J L L q @ * e c                                               ",
"                        L L D D L 1 # $ @ $ , 4 q e c S F 8 @ * c J                                               ",
"                        L L J J J < @ $ o X # * 4 > : , , # X * Z L                                               ",
"                        J L L L J , @ $ @ X + , < $ o . . . X > Z Y                                               ",
"                        S J L L J , @ $ $ X + , 4 > $ # o . O 6 Z ` [                                             ",
"                        Z J L L J , @ $ $ @ $ 4 3 & $ $ @ . @ g D L L                                             ",
"                        D L L L J , @ $ $ # : 6 4 & $ $ @ . $ Z J L L                                             ",
"                        L L L L J , @ $ $ $ , 0 0 , $ $ @ . $ Z L L L                                             ",
"                        L L L L J $ X $ $ < 0 q 6 , $ $ @ X # c J J D                                             ",
"                          J L L J $ . # & 4 q 6 : # @ # @ . # c J S c Z                                           ",
"                          J L L J , # 1 q q 5 1 $ @ @ @ @ . # c D c e Z                                           ",
"                          L L L L 6 8 c Z r 4 * , ; $ # # @ $ c Z r q c                                           ",
"                            S D L Z Z D D p 4 , , , : : ; : < c e q q w                                           ",
"                            e r c Z D J S r 4 , , , , > 4 6 q e q 7 q w                                           ",
"                              7 6 e c Z Z r 4 - , , 4 4 q e q q 6 6 q w                                           ",
"                                , * 5 x c e 4 * $ , 6 q e q q q 0 0 q w                                           ",
"                                , - 4 x c e q 4 & $ : , 7 q 0 0 0 6 q g                                           ",
"                                * - q c c q q q & $ $ & 4 q q 0 0 0 q x                                           ",
"                                < - q Z x q q q & $ & < 4 q q q 6 q q g                                           ",
"                                4 , q Z r e e q : & 4 7 q q 0 q 9 g x                                             ",
"                                  * e A y I L c < 4 e r d 9 9 a a f                                               ",
"                                  * q A t.g.j.r < q c c f a a a f                                                 ",
"                                  * 0 k s.C.q.q - e A                                                             ",
"                                  , 4 y y.i.w.4 - t i                                                             ",
"                                  * 4 e i e.y , , 5 r                                                             ",
"                                  4 5 p F S q $ & 8 q                                                             ",
"                                  4 q c Z S e $ $ 1 a                                                             ",
"                                  * q Z c     1 $ : ,                                                             ",
"                                  * 5 c r       : ; ; ,                                                           ",
"                                  4 e c g       1 : & &                                                           ",
"                                0 r Z Z c       a 1 : $                                                           ",
"                                < c Z c           , : $                                                           ",
"                                - e c c             :                                                             ",
"                                > 4 q x                                                                           ",
"                                $ & -                                                                             ",
"                                  & -                                                                             "
};
