/* XPM */
static char *_6847585d3874e3cd2d7b11be71e6d363hDTPtsfjEjGZkaR_9[] = {
/* columns rows colors chars-per-pixel */
"60 98 256 2 ",
"   c None",
".  c #150203",
"X  c #1A0406",
"o  c #1F0608",
"O  c #200707",
"+  c #22070A",
"@  c #25090C",
"#  c #2B0B0D",
"$  c #330D0F",
"%  c #2C0C10",
"&  c #340E11",
"*  c #390E11",
"=  c #360F19",
"-  c #361113",
";  c #3B1214",
":  c #37131A",
">  c #3B141A",
",  c #3C191C",
"<  c #3D1523",
"1  c #4A0D16",
"2  c #5E0E1C",
"3  c #431516",
"4  c #4A1617",
"5  c #461817",
"6  c #491817",
"7  c #441619",
"8  c #4A1719",
"9  c #46191A",
"0  c #4B191B",
"q  c #541619",
"w  c #5C161A",
"e  c #521C1D",
"r  c #5A1B1E",
"t  c #521717",
"y  c #760E1D",
"u  c #64161B",
"i  c #6C151B",
"p  c #611C1E",
"a  c #6C191D",
"s  c #74151D",
"d  c #7A141E",
"f  c #660D1B",
"g  c #55201F",
"h  c #59211F",
"j  c #4D0F27",
"k  c #450F20",
"l  c #550E26",
"z  c #471522",
"x  c #4C1523",
"c  c #431D23",
"v  c #4C1C22",
"b  c #4A1028",
"n  c #4C1D2A",
"m  c #531222",
"M  c #5A1525",
"N  c #541E22",
"B  c #5B1E20",
"V  c #581F29",
"C  c #6A0E22",
"Z  c #7A0D23",
"A  c #661120",
"S  c #641E22",
"D  c #6B1423",
"F  c #751421",
"G  c #731B25",
"H  c #751A25",
"J  c #462224",
"K  c #46232A",
"L  c #4C252A",
"P  c #552222",
"I  c #5B2424",
"U  c #5E2827",
"Y  c #5C2429",
"T  c #54292B",
"R  c #5B2B2B",
"E  c #552A36",
"W  c #4C3538",
"Q  c #5D3233",
"!  c #5D393A",
"~  c #573637",
"^  c #4A2D33",
"/  c #622626",
"(  c #6A2423",
")  c #622827",
"_  c #6A2827",
"`  c #652729",
"'  c #6D2528",
"]  c #652A29",
"[  c #6C2B2A",
"{  c #722A25",
"}  c #722D2C",
"|  c #7A282A",
" . c #6B302D",
".. c #75312D",
"X. c #7C332E",
"o. c #6A2F34",
"O. c #643434",
"+. c #6D3332",
"@. c #633A3B",
"#. c #6C3B3B",
"$. c #6F3738",
"%. c #753332",
"&. c #7C3531",
"*. c #7D3934",
"=. c #743C3B",
"-. c #7B3D3B",
";. c #6F403F",
":. c #7E423E",
">. c #584244",
",. c #644244",
"<. c #6B4343",
"1. c #664A4D",
"2. c #6D4C4D",
"3. c #66414E",
"4. c #754344",
"5. c #7A4140",
"6. c #7B4847",
"7. c #734C4C",
"8. c #784C4B",
"9. c #764847",
"0. c #76504F",
"q. c #684A51",
"w. c #665255",
"e. c #6D585B",
"r. c #6A5055",
"t. c #725355",
"y. c #7C5454",
"u. c #745458",
"i. c #765B5C",
"p. c #7B5C5D",
"a. c #7A5658",
"s. c #745F66",
"d. c #7C6364",
"f. c #7D6669",
"g. c #7B6B6C",
"h. c #736465",
"j. c #8A0F23",
"k. c #850F22",
"l. c #940E24",
"z. c #9B0D28",
"x. c #831322",
"c. c #8D1123",
"v. c #881C29",
"b. c #9B1325",
"n. c #981425",
"m. c #A40C27",
"M. c #AD0E26",
"N. c #AC0B28",
"B. c #B30D27",
"V. c #BC0D27",
"C. c #B50E28",
"Z. c #BB0E28",
"A. c #A51126",
"S. c #84232A",
"D. c #8B212A",
"F. c #81332C",
"G. c #8D2F30",
"H. c #833631",
"J. c #893732",
"K. c #843933",
"L. c #8B3A34",
"P. c #8B3E3A",
"I. c #843E3A",
"U. c #913C36",
"Y. c #943E39",
"T. c #993E3A",
"R. c #C00D27",
"E. c #83413C",
"W. c #8C433E",
"Q. c #95413D",
"!. c #9A403C",
"~. c #834542",
"^. c #854947",
"/. c #834C4B",
"(. c #8D4B4A",
"). c #8C4845",
"_. c #924743",
"`. c #84514F",
"'. c #89504D",
"]. c #845353",
"[. c #8A5554",
"{. c #845C5B",
"}. c #895D5B",
"|. c #89605F",
" X c #836465",
".X c #8A6463",
"XX c #856B6C",
"oX c #8A6D6D",
"OX c #8A6768",
"+X c #926E6E",
"@X c #8C6F70",
"#X c #837374",
"$X c #8A7374",
"%X c #8C7778",
"&X c #8C7B7C",
"*X c #857678",
"=X c #927C7C",
"-X c #937778",
";X c #8F7F80",
":X c #927F80",
">X c #8E8383",
",X c #928484",
"<X c #9C8584",
"1X c #948B8B",
"2X c #9A8B8B",
"3X c #9D8788",
"4X c #949292",
"5X c #989293",
"6X c #A18382",
"7X c #B08E90",
"8X c #A39C9C",
"9X c #A89999",
"0X c #B5A8AA",
"qX c #BEB1B2",
"wX c #A8A2A1",
"eX c black",
"rX c black",
"tX c black",
"yX c black",
"uX c black",
"iX c black",
"pX c black",
"aX c black",
"sX c black",
"dX c black",
"fX c black",
"gX c black",
"hX c black",
"jX c black",
"kX c black",
"lX c black",
"zX c black",
"xX c black",
"cX c black",
"vX c black",
"bX c black",
"nX c black",
"mX c black",
"MX c black",
"NX c black",
"BX c black",
"VX c black",
"CX c black",
"ZX c black",
"AX c black",
"SX c black",
"DX c black",
"FX c black",
"GX c black",
"HX c black",
"JX c black",
"KX c black",
"LX c black",
"PX c black",
"IX c black",
"UX c black",
/* pixels */
"                                              Z.                                                                        ",
"                                              Z.                                                                        ",
"                                              Z.                                                                        ",
"                                                                                                                        ",
"                                                                                                                        ",
"                                            C.                                                                          ",
"                                            Z.                                                                          ",
"                                            B.                                                                          ",
"                                                                                                                        ",
"                                                                                                                        ",
"                                                                                                                        ",
"                                            V.V.                                                                        ",
"                                          x.b.b.v.                                                                      ",
"                                        l M I ` ` `                                                                     ",
"                                      j b x I ) ` _ [                                                                   ",
"                                      b x N I ) $.=.} [                                                                 ",
"                                      x N I ] +.5.~.*...                                                                ",
"                                      e ` ..:./.E.~.].-.                                                                ",
"                                      I [ }.3X@X$X3X7X^.                                                                ",
"                                      Y [ [.6X2X8X0X9X~.                                                                ",
"                                      b Y &.(.6X0X0X>X=.                                                                ",
"                                      < v I %.(.<X5X$X$.                                                                ",
"                                qX3X,.< 0 I [ ~.oX>XoX$.                                                                ",
"                                3X=Xt.n z N ] /.-X,X XO.#.                                                              ",
"                          g I ] 7.d.p.O.n z I 4.-X=X7.O.a.OX-.P._._.                                                    ",
"                      M I ) ) ) I R <.*X! 5 8 N #.#.R i.#XXXy./.^.[.%X8X8X$X-.            `     ` I e 0 0 e 0 e ) ]     ",
"                      | &.H.K.&.` r @.&X~ 8 I I I I ] <.d.#XXXXXOXOX%X>X$X0.8.a.7.I P 0 0 I I ] [ [ [ ` ) ) ) ) I P N   ",
"                    Y.Y.!.!.!.Q...] <.u.T e [ [ I P U [ <.e.p.%X&X%X%X*Xd.8.i.t.@.P e T Q @. .} *.H.H.&.} ..&.%.I e 0 e ",
"                  Q.T.T.T.T.Q.W.%.7.q.n Y U I [ ] 0 ; } ` 0 R d.%X%X%X$X$XXXi.Q 8 8 8 ,.#XoX).J.L.H.J.L.  &.H.H.[ M l   ",
"                  U.U.U.U.L.X.+.t.h.t.+.+.[ _ ] ..] 0 ) I P I O.;.4.#.#.@.Q T 0 8 8 4 i.2X}.                            ",
"                  } [ ( ( (  .1.g.i.#.&.H.H...) ....I I I ) I ) P 0 e e 0 0 4 8 8 0 4 p.9X}.                            ",
"                  <.@.! @.@.2.g.d.2.$.E.P.J.&.] } } I P ` ` I #.T % 3 8 8 0 0 0 0 0 4 p.wX                              ",
"                &X&X>X1X2X1X>XXXQ ! h.oX(.J.H.%.[ _ _ 0 I ` I d.1.: : 5 0                                               ",
"                %X&Xd.,.<.i.*X$XJ - W #XoX/.} X.[ _ _ > P [ R XXu.N                                                     ",
"              R 2. X Xt.t.d.d.1.c $ , >.g.XXy.I.[ [ [ > v +.<.g.a.[                                                     ",
"              8 5 @. X1X1X%Xr.K P h 0 : 1.*X&X[.$.[ X.7 0 O.i.d.8.&.                                                    ",
"              k % > J K J 9 ^ w.Q ) [ } R O.8.oX4.} X.3 ; R y.=.[ _                                                     ",
"            N 7 ; $ # # # + , ,.d. X`.H.{ { &./.-.&.H.5 > I -.../ I                                                     ",
"          I e 5 3 $ # # # # , @.h.*X$X}.'.E.X.F.&.K.H.7 > I X._ ] @.                                                    ",
"          T 0 5 ; # # # - = ^ e.E q.=X2X:X}.I.I.*.K.X.; ; P +.I ,.g.                                                    ",
"      8X4Xh.! 5 $ # # $ 3 ; ^ i.f.f.i.<. X,X<XoX6..._ ; = z I <.,.Q                                                     ",
"    2X,X+X}.6.@.>.c & ; 8 5 v @.{.oXf.u.d.OX.X.X/.K.} 3 : N ] @.E m                                                     ",
"      OX_.Q._.[.OX3.L 8 8 8 5 0 7. XXXXX X9...].[.(.&.9 3 I X.I x j                                                     ",
"        L.Y.T.Q.(.OX2.8 8 8 5 , w.7.=.=.OX{.:.oX%X|.&.e 8 I X.%.%.                                                      ",
"        F.L.Y.T.Q.^.O.6 8 8 8 5 T 2.d. X8.y.OX$X&X X&.} P N *.{.OX                                                      ",
"        &.H.U.!.T.H.` 8 4 8 8 8 0 @.a.a.5.].&X,X;X.XH.H.P z %.].OX                                                      ",
"        %.H.L.Y.T.L.[ 0 4 8 8 8 5 e _ %./..X;X4X,X|.&.&.0 3 %.&.`.oX                                                    ",
"    [ _ _ %.H.U.T.Q.%.0 6 8 8 8 5 e } K..X%X&X4X,Xp.[ &.e 3 %.%.*.I.                                                    ",
"    _ ` I ] ..J.U.L.&.[ ) e 8 8 5 I } K.OX&X&X,XoX4.I ..e 3 +.[ ..&.                                                    ",
"    ` ) P N ) ..H.F.&.*.*.I ; 5 8 ` X.H.[.oX&X%X].[ 0 ..I 0 +.P ) %.                                                    ",
"    ] ) e 8 e I _ ..&.  Q.I # ; N } H.H.H.'.$XoX4.h 0 .._ I +.0 P %.                                                    ",
"            0 t e I [ H.L.e # ; q { H.H.H.P.).E.] g I _ _ _ ] e e ) &.                                                  ",
"              8 0 0 P I I ; $ 5 ( F.L.P.L.J.H.} ` ` _ _ [ [ _ I e I &.                                                  ",
"            8 8 8 8 8 5 ; * ; 0 ..H.L.Q.U.L.&.I ) [ _ _ _ [ _ ) N 0 ..                                                  ",
"        8 8 8 8 8 8 8 8 5 5 5 t ..H.H.H.Q.P.[ 0 I ) I I I ) ] ] 0 3 _                                                   ",
"        0 8 8 8 8 8 8 8 8 8 8 e ..H.H.H.Q.%.e 6 I _ _ _ _ ] ) ) 8 ; I ..                                                ",
"      I 0 8 8 8 8 8 8 8 8 8 0 I ..H.H.H.P.] ; ; I _ ] ] _ _ ] ] 8 $ 8 } H.                                              ",
"    ] ) e 8 8 8 0 8 8 8 8 8 e ) X.H.H.J.&.e # $ N _ ] ] ] _ [ [ 0 # 5 [ &.                                              ",
"    ] ) e 8 8 0 0 8 8 8 8 8 e ] &.J.L.H./ ; + - I } [ [ } } } } 0 % 0 ) _                                               ",
"    ] I e 0 8 8 8 8 8 8 8 8 e ` X.H.F.( 8 % @ - I } } } } } } } 0 % > P S Z                                             ",
"    ( S 0 8 8 8 8 8 8 8 8 8 0 I } ..{ p > # # - I } [ } } } } } 0 @ - v / G                                             ",
"    d u 8 8 8 8 8 8 8 0 0 8 0 I _ _ ] _ ; @ # - e ) ) ` _ [ [ [ 8 @ - P _ |                                             ",
"  M.j.A 0 8 8 8 0 0 0 0 0 8 e _ [ _ _ [ > @ # + # > 8 0 e I ] ) > + - I S.b.                                            ",
"  v.G r 8 8 8 8 0 0 0 8 8 8 e [ } [ [ _ ; @ # X X + > > - & - - + O > I D.M.                                            ",
"  ] I 0 8 8 8 8 8 0 0 0 0 8 e _ [ } } _ ; @ # + . o - ; # X X . . X 3 ) D.M.                                            ",
"  [ I 8 8 8 8 8 8 0 0 0 0 8 0 I [ } } [ ; @ # @ X + ; 5 - # @ X . O 5 ) S.A.                                            ",
"  } I 8 8 8 8 8 8 0 0 0 0 8 0 I [ } } [ ; @ # # + % 3 5 - # # o . + P _ X.G.                                            ",
"  | p 8 8 8 8 8 8 8 8 0 0 8 0 I [ } } _ - + # # @ & 8 5 - # # + X # I [ } X.                                            ",
"  F w 4 8 8 8 8 8 0 8 0 0 8 0 I [ } } _ & o # # # ; 8 6 - # # + X # ) } [ [                                             ",
"  I e 8 8 8 8 8 8 0 0 0 0 8 0 I [ } } _ # X # $ > 5 8 5 ; # # @ X + I } [ _ %.                                          ",
"d e 0 8 8 8 8 8 0 0 0 0 0 8 0 I _ } } [ # X @ & 3 8 5 & + + @ + X + I [ ` / v.                                          ",
"s q 8 8 8 8 8 0 0 0 0 0 0 8 8 e ` [ } [ - @ > 8 0 8 > % + + + + X + I _ I r l.                                          ",
"u 0 8 8 8 8 8 0 0 0 0 0 0 8 8 0 I ] } [ 5 5 I ` N 3 ; ; & # @ @ + # I ) P r l.M.                                        ",
"0 8 8 0 0 0 0 0 0 8 8 0 8 8 8 8 0 I ] [ ) ) _ _ I 3 ; ; - * # $ & > I e 8 e c.M.R.                                      ",
"8 8 8 0 0 0 0 8 8 8 8 8 8 8 8 8 8 0 P I ) _ [ _ N 3 ; ; ; - - 3 5 8 e 0 8 q c.B.R.                                      ",
"4 8 8 8 8 8 8 8 8 8 8 8 8 8 0 8 8 8 8 5 0 I ) ) N 3 - * ; > 3 0 e 0 8 8 5 q l.B.                                        ",
"  8 8 8 8 8 8 8 8 8 8 8 8 8 8 8 8 8 5 ; ; 3 e I e 5 ; $ ; 5 0 e e 0 8 8 5 q l.                                          ",
"  0 0 0 8 8 8 8 6 8 8 8 8 8 8 4 8 8 5 ; - 5 g I e 8 5 * # $ * 5 0 8 8 8 8 q l.B.R.                                      ",
"      t q 0 0 8 4 8 8 4 8 8 8 6 8 8 5 3 ; 5 I I 0 8 8 * # # ; 5 8 8 8 8 8 q l.C.V.                                      ",
"        w q t q w q q q 4 8 8 4 8 8 8 5 ; 8 I P 0 8 8 * # & 5 8 8 8 8 8 8 e l.B.R.                                      ",
"                i i d d q 0 0 4 4 q q 4 ; 0 _ e t t 0 & & 3 8 8 8 8 q q t p l.                                          ",
"                        x.d u t i x.j.k.1 0 ' D Z x.A * 1 C k.j.j.j.j.j.x.x.                                            ",
"                          c.s q d l.N.N.w 0 ' c.m.z.C * f z.M.B.M.m.m.m.m.                                              ",
"                                      Z.i 9 ( A.V.l.m * y C.V.V.                                                        ",
"                                      C.i 9 p A.C.c.4 ; y m.                                                            ",
"                                      Z.c.p r l.b.s ; * w G                                                             ",
"                                      V.A.H B x.x.2 $ $ 5 P                                                             ",
"                                      Z.b.G ) a F 2 $ # > 0                                                             ",
"                                      M.i B ) r M m 5 $ $ ; 0                                                           ",
"                                        q 0 I g N     $ # * 8                                                           ",
"                                        0 e I P       ; * * 3                                                           ",
"                                      w I I ) I       0 3 * ;                                                           ",
"                                      5 I ) I           5 3 :                                                           ",
"                                      ; 0 I I             3                                                             ",
"                                      - > e I                                                                           ",
"                                      @ - 0 I                                                                           ",
"                                      # > 0                                                                             ",
"                                      $ 3                                                                               "
};
