/* XPM */
static char *b81f218b486c42998c20f8f989b7d2cdvapYSCf9JM2Q9OBz_1[] = {
/* columns rows colors chars-per-pixel */
"29 36 32 1 ",
"  c None",
". c #1D1D1D",
"X c #1E1E1E",
"o c gray12",
"O c #202020",
"+ c gray13",
"@ c #222222",
"# c #232323",
"$ c gray14",
"% c #252525",
"& c gray15",
"* c #272727",
"= c #282828",
"- c gray16",
"; c #2A2A2A",
": c gray17",
"> c #2C2C2C",
", c #2D2D2D",
"< c gray19",
"1 c #313131",
"2 c #373737",
"3 c #3A3A3A",
"4 c #3E3E3E",
"5 c gray25",
"6 c gray27",
"7 c gray31",
"8 c gray32",
"9 c gray39",
"0 c black",
"q c black",
"w c black",
"e c black",
/* pixels */
"       8                     ",
"       59                    ",
"       ,67                   ",
"        134                  ",
"        $,12                 ",
"        #$--                 ",
"         #$$$                ",
"         #$$$-               ",
"         ###$$-              ",
"         $#####              ",
"          #####              ",
"           ####$             ",
"            $###    ####---, ",
"             ##o#-  ##oo##$  ",
"             $##o#########$  ",
"             -############   ",
"         -   $o#  #o#o###$   ",
"        $#######  $##$$##    ",
"       $##ooo##o$ ,##        ",
"      $oo#o#o#ooo####        ",
"     $oooooo#####oo##        ",
"    #ooooooo##$  ####$       ",
"   #ooooooooo#    #o##$      ",
"  $ooooooooooo     #o##$     ",
" #ooooooo#o##      #o###$    ",
"#o###               o####    ",
"                    oo###    ",
"                    ooooo$   ",
"                     oooo#   ",
"                      oooo$  ",
"                       ooo#  ",
"                        #o#  ",
"                         oo$ ",
"                          o# ",
"                           o ",
"                            #"
};
