/* XPM */
static char *b81f218b486c42998c20f8f989b7d2cdvapYSCf9JM2Q9OBz_3[] = {
/* columns rows colors chars-per-pixel */
"34 38 64 1 ",
"  c None",
". c #1E1E1E",
"X c gray12",
"o c #202020",
"O c gray13",
"+ c #222222",
"@ c #232323",
"# c gray14",
"$ c #252525",
"% c gray15",
"& c #272727",
"* c #282828",
"= c gray16",
"- c #2A2A2A",
"; c gray17",
": c #2C2C2C",
"> c #2D2D2D",
", c gray18",
"< c #2F2F2F",
"1 c gray19",
"2 c #313131",
"3 c #323232",
"4 c gray20",
"5 c #343434",
"6 c #353535",
"7 c gray21",
"8 c #373737",
"9 c #393939",
"0 c #3A3A3A",
"q c gray23",
"w c #3C3C3C",
"e c #3F3F3F",
"r c gray25",
"t c #414141",
"y c gray26",
"u c #434343",
"i c #464646",
"p c #484848",
"a c #494949",
"s c gray29",
"d c #4C4C4C",
"f c gray30",
"g c #4E4E4E",
"h c gray31",
"j c #505050",
"k c #535353",
"l c gray33",
"z c #565656",
"x c gray34",
"c c #585858",
"v c #5A5A5A",
"b c black",
"n c black",
"m c black",
"M c black",
"N c black",
"B c black",
"V c black",
"C c black",
"Z c black",
"A c black",
"S c black",
"D c black",
"F c black",
/* pixels */
"                   3              ",
"                   *:             ",
"                  :%*             ",
"                  *%%             ",
"                  %%%:            ",
"                 *%%%*            ",
"                 %%%%*            ",
"@@%%::           %%%%%*           ",
" @XX@%%*5tjvv     %%%@%           ",
"   XX@%%:9axxx    %%%@%           ",
"    @@%%*3thxh    *%%%            ",
"      @@*:9ijht9 5*%%%            ",
"       @%*5wahi95:*%%%            ",
"        %%:9tait5:**%@%           ",
"          %:wttt93:  @@%          ",
"           *3t 555:  *@@%%@%      ",
"                 33: 3%@@XXX@     ",
"                  ::*%%@@X@XX@    ",
"                  ::*%%@@@@@@X@*  ",
"                  3:*%*  %@@@XX@% ",
"                  5:*%3   @@@@@X@@",
"                  53*%:    @X%X@%*",
"                 333:**           ",
"                 *33:**           ",
"                 *:3::*%          ",
"                  *:::**          ",
"                  %*::*:          ",
"                  %**:*:          ",
"                   %***:          ",
"                   @%**           ",
"                   %%%*           ",
"                   %@%*           ",
"                    @%*           ",
"                    @%*           ",
"                    @@            ",
"                    %@            ",
"                     @            ",
"                     *            "
};
