/* XPM */
static char *b81f218b486c42998c20f8f989b7d2cdvapYSCf9JM2Q9OBz_6[] = {
/* columns rows colors chars-per-pixel */
"35 38 32 1 ",
"  c None",
". c #1D1D1D",
"X c #1E1E1E",
"o c gray12",
"O c #202020",
"+ c gray13",
"@ c #222222",
"# c #232323",
"$ c gray14",
"% c #252525",
"& c gray15",
"* c #272727",
"= c #282828",
"- c gray16",
"; c #2A2A2A",
": c gray17",
"> c #2C2C2C",
", c #2D2D2D",
"< c gray19",
"1 c black",
"2 c black",
"3 c black",
"4 c black",
"5 c black",
"6 c black",
"7 c black",
"8 c black",
"9 c black",
"0 c black",
"q c black",
"w c black",
"e c black",
/* pixels */
"                    <              ",
"                    ;              ",
"                   ;$              ",
"                   ##;             ",
"                  $##$             ",
"                  ####             ",
"$$;;             #o###;            ",
" ######$$;        o###$            ",
"   oo#######$     #####            ",
"    #o#######$    >####            ",
"     $oo######$   ;###$            ",
"       #oo######$;####             ",
"        #oo####oo#####             ",
"         #ooo##ooo#$#o$            ",
"           oo####o#  ##$           ",
"                ###  $##$ $        ",
"                 #o$ >####o#$      ",
"                  #####o#o#o#$     ",
"                  #o#o########$    ",
"                  #o##$  ####oo#   ",
"                  $###    #######  ",
"                  #o##     ##oo###;",
"                 ooooo$            ",
"                 ooooo#            ",
"                 #ooooo#           ",
"                 #ooooo$           ",
"                 #ooooo$           ",
"                  oooo#            ",
"                  oooo#            ",
"                  #ooo$            ",
"                  $ooo             ",
"                   oo#             ",
"                   oo#             ",
"                   #o$             ",
"                   #o              ",
"                   $#              ",
"                    #              ",
"                    >              "
};
