/* XPM */
static char *b81f218b486c42998c20f8f989b7d2cdvapYSCf9JM2Q9OBz_7[] = {
/* columns rows colors chars-per-pixel */
"31 33 32 1 ",
"  c None",
". c #1E1E1E",
"X c gray12",
"o c #202020",
"O c gray13",
"+ c #222222",
"@ c #232323",
"# c gray14",
"$ c #252525",
"% c gray15",
"& c #272727",
"* c gray16",
"= c #2A2A2A",
"- c gray17",
"; c #2C2C2C",
": c gray18",
"> c #353535",
", c black",
"< c black",
"1 c black",
"2 c black",
"3 c black",
"4 c black",
"5 c black",
"6 c black",
"7 c black",
"8 c black",
"9 c black",
"0 c black",
"q c black",
"w c black",
"e c black",
/* pixels */
"-                              ",
"#:>                            ",
" o#-:                          ",
"  o##-                         ",
"   oooo#                       ",
"   oXoooo           -#         ",
"    oooooo#       -ooo         ",
"     oooooo#    #oooo#         ",
"     #oooooo    #oooo#         ",
"      oXoooo#    ooooo         ",
"       oooooo#  :oooo#         ",
"        ooooooo#ooooo#         ",
"           ooooooooooo         ",
"            ooo#ooo#           ",
"            #oo  oo#           ",
"             oo  #o#           ",
"             oo# :oo           ",
"             ooooooo#          ",
"          ##oooooooooo#        ",
"         oXXooooo#oooooo-      ",
"         oXXXooo   oooooo      ",
"         oXXXXXo    ooooo#     ",
"         XXXXXXo     ooooo#    ",
"         XXXXXXX     oooooo    ",
"        oXXXXXXX#     #oXooo   ",
"        oXXXXXXo        oXXo#  ",
"        oXXXXXo           ooo  ",
"        oXXXX#              oo ",
"        XXXX#                 #",
"        XXX#                   ",
"       #XX                     ",
"       oo                      ",
"       o                       "
};
