/* XPM */
static char *b81f218b486c42998c20f8f989b7d2cdvapYSCf9JM2Q9OBz_0[] = {
/* columns rows colors chars-per-pixel */
"29 35 32 1 ",
"  c None",
". c #1D1D1D",
"X c #1E1E1E",
"o c gray12",
"O c #202020",
"+ c gray13",
"@ c #222222",
"# c #232323",
"$ c gray14",
"% c #252525",
"& c gray15",
"* c #272727",
"= c #282828",
"- c gray16",
"; c #2A2A2A",
": c gray17",
"> c #2C2C2C",
", c gray18",
"< c gray19",
"1 c #313131",
"2 c #323232",
"3 c #353535",
"4 c gray23",
"5 c gray24",
"6 c #3E3E3E",
"7 c gray28",
"8 c gray32",
"9 c #5B5B5B",
"0 c black",
"q c black",
"w c black",
"e c black",
/* pixels */
"    ,8                       ",
"     69                      ",
"     :67                     ",
"      :14                    ",
"      &::3                   ",
"      O&&&1                  ",
"       O&&&1                 ",
"       OOOO&1                ",
"       OoOOOO:               ",
"        OOOOO&               ",
"        OOOOO&               ",
"         &OOOO     &&OO::,   ",
"           OOOO    OOOOOO:   ",
"            OOOO: &OOOOOO    ",
"            OOOOOOOOOOOO&    ",
"            &OO&OOOOOOOO     ",
"            &OO  OOOOOO&     ",
"        &&  OOO  &OO         ",
"       :OOOOOOO& ,OO         ",
"      :OOOOOOOOOOOOO         ",
"     ,OooOOOOOOOOOOO&        ",
"     &oooooOOO& &OOOO        ",
"    &ooooooooO    OOOO       ",
"   &oooooooooO    &OOOO&     ",
"  &ooooooooooO     OOOOO     ",
"  OoooooooOO       OOOOO:    ",
" OooooO&           OoOOOO    ",
"&OO                 ooooO    ",
"                     ooooO   ",
"                      Oooo   ",
"                       ooo&  ",
"                        OoO  ",
"                         Oo& ",
"                          Oo ",
"                           O:"
};
