/* XPM */
static char *b81f218b486c42998c20f8f989b7d2cdvapYSCf9JM2Q9OBz_2[] = {
/* columns rows colors chars-per-pixel */
"33 39 64 1 ",
"  c None",
". c #1D1D1D",
"X c #1E1E1E",
"o c gray12",
"O c #202020",
"+ c gray13",
"@ c #222222",
"# c #232323",
"$ c gray14",
"% c #252525",
"& c gray15",
"* c #272727",
"= c #282828",
"- c gray16",
"; c #2A2A2A",
": c gray17",
"> c #2C2C2C",
", c #2D2D2D",
"< c gray18",
"1 c #2F2F2F",
"2 c gray19",
"3 c #313131",
"4 c #323232",
"5 c gray20",
"6 c #343434",
"7 c #353535",
"8 c gray21",
"9 c #373737",
"0 c gray22",
"q c #393939",
"w c gray23",
"e c #3E3E3E",
"r c #414141",
"t c gray26",
"y c #444444",
"u c #484848",
"i c #494949",
"p c #4E4E4E",
"a c #515151",
"s c gray33",
"d c #565656",
"f c gray35",
"g c #5B5B5B",
"h c #626262",
"j c gray39",
"k c #656565",
"l c #676767",
"z c #6D6D6D",
"x c #6F6F6F",
"c c #747474",
"v c gray46",
"b c black",
"n c black",
"m c black",
"M c black",
"N c black",
"B c black",
"V c black",
"C c black",
"Z c black",
"A c black",
"S c black",
"D c black",
"F c black",
/* pixels */
"             8f                  ",
"             8h                  ",
"             8kv                 ",
"              kv                 ",
"              szz                ",
"              yfhz               ",
"              8iaf               ",
"              >wtis              ",
"              =>8wtp             ",
"              &=>38e             ",
"               &&=>8             ",
"                &&=3             ",
"                 &&>             ",
"                 &&&>            ",
"          &OO    &&&&>  3>3w     ",
"       >&OOOOO&&&OO=&&====>>38w  ",
"     >&OOOOOOOOOOOO  &&&&&==>>>33",
"   =OOOOOOOOOOOOOOO  &&&&&&&===> ",
"=&OoooooOOOOOOOOOOO& >OO&&&&&&>  ",
"  oooooooOOOOOOOOOOOOOOO  &&&    ",
"      OOooooOOO&   OOOO&         ",
"          &OOOO     OOO&         ",
"                    &OOO         ",
"                     OOO&        ",
"                     OOOO=       ",
"                     OOOOO&      ",
"                     oOOOO&      ",
"                     OooOOO      ",
"                      ooooO      ",
"                      Ooooo      ",
"                       oooo      ",
"                        oooO     ",
"                        OooO     ",
"                         ooO     ",
"                          oO     ",
"                          Oo     ",
"                           o=    ",
"                           &O    ",
"                            =    "
};
