/* XPM */
static char *b81f218b486c42998c20f8f989b7d2cdvapYSCf9JM2Q9OBz_4[] = {
/* columns rows colors chars-per-pixel */
"30 33 32 1 ",
"  c None",
". c #1E1E1E",
"X c gray12",
"o c #202020",
"O c gray13",
"+ c #222222",
"@ c #232323",
"# c gray14",
"$ c #252525",
"% c gray15",
"& c #272727",
"* c #282828",
"= c gray16",
"- c #2A2A2A",
"; c gray17",
": c #2C2C2C",
"> c #2D2D2D",
", c gray18",
"< c gray19",
"1 c #323232",
"2 c gray21",
"3 c gray23",
"4 c gray26",
"5 c #434343",
"6 c gray27",
"7 c gray31",
"8 c #535353",
"9 c #5D5D5D",
"0 c #676767",
"q c gray42",
"w c gray45",
"e c black",
/* pixels */
";                             ",
" ;7                           ",
"  5w                          ",
"  10q8                        ",
"   6952                       ",
"   ,53;;,                     ",
"    ;1;%%%            1       ",
"     %%%ooo        ,%o%       ",
"     o%%oooo     ;%ooo%       ",
"      oooooo     ooooo;       ",
"       ooooo%    ooooo%       ",
"       oooooo%   ooooo        ",
"         %oooooo%ooooo        ",
"           ooooooooooo        ",
"            ooo%oooo          ",
"            %oo  oo%          ",
"             oo  %o%          ",
"             oo% ,oo          ",
"            %ooooooo%         ",
"         oooooooooooo%        ",
"         ooooooo%%oooooo      ",
"        %ooooooo   ooooo%     ",
"        ooooooo%    ooooo     ",
"        ooXXXXX%     ooooo    ",
"        oXXXXXXo     ooooo%   ",
"       %XXXXXXXo     ooXooo   ",
"       oXXXXXXo        oXooo  ",
"       oXXXXX%           oXo% ",
"       oXXXX              oXo ",
"      %XXXo                 oo",
"      %XXo                    ",
"      oX                      ",
"      o                       "
};
