/* XPM */
static char *_85c59152a4d4ccce0fc19c7cea1f04a3LQ5iPqnxZn6qCxt_0[] = {
/* columns rows colors chars-per-pixel */
"49 55 256 2 ",
"   c None",
".  c #161519",
"X  c #1D1F32",
"o  c #0A2A39",
"O  c #1E263C",
"+  c #1A3539",
"@  c #313336",
"#  c #615019",
"$  c #5A452C",
"%  c #746329",
"&  c #0D2D4C",
"*  c #0B3249",
"=  c #153446",
"-  c #14365A",
";  c #142A59",
":  c #292F53",
">  c #033274",
",  c #073879",
"<  c #113973",
"1  c #3B3D62",
"2  c #243069",
"3  c #154371",
"4  c #324C5F",
"5  c #5B5754",
"6  c #4F4554",
"7  c #6A5B5B",
"8  c #765C59",
"9  c #736B49",
"0  c #455669",
"q  c #5B5270",
"w  c #645963",
"e  c #536770",
"r  c #776868",
"t  c #6F6970",
"y  c #BA3332",
"u  c #D50304",
"i  c #DD0102",
"p  c #DC0F0F",
"a  c #CB1313",
"s  c #CC0D0C",
"d  c #E40303",
"f  c #EC0103",
"g  c #E50908",
"h  c #F30203",
"j  c #F60B0B",
"k  c #FC0C0B",
"l  c #FB0807",
"z  c #FD110E",
"x  c #EE1916",
"c  c #E71E18",
"v  c #F41613",
"b  c #FA1411",
"n  c #F21815",
"m  c #F81A19",
"M  c #CA2222",
"N  c #C63331",
"B  c #F52523",
"V  c #E83835",
"C  c #F33C3A",
"Z  c #F43634",
"A  c #E6322F",
"S  c #8F7331",
"D  c #AA782B",
"F  c #956B51",
"G  c #BF7C5B",
"H  c #856474",
"J  c #BC6B66",
"K  c #B85451",
"L  c #CD4442",
"P  c #F24A47",
"I  c #EA5B58",
"U  c #F25553",
"Y  c #EF4847",
"T  c #D3726D",
"R  c #EC6562",
"E  c #EB6966",
"W  c #E76865",
"Q  c #F06C68",
"!  c #EC716E",
"~  c #E7726F",
"^  c #EB7A76",
"/  c #9E9D21",
"(  c #BEA222",
")  c #A3931D",
"_  c #F4DB0B",
"`  c #F2DC18",
"'  c #EACA0D",
"]  c #F7E204",
"[  c #FBE601",
"{  c #FEEB02",
"}  c #FCEA0B",
"|  c #E3CC2C",
" . c #F1DD21",
".. c #E6D139",
"X. c #D6C610",
"o. c #93817E",
"O. c #89856B",
"+. c #B68775",
"@. c #A3A163",
"#. c #C7865F",
"$. c #D5AD4A",
"%. c #D1B64F",
"&. c #CF8B68",
"*. c #D49A74",
"=. c #E7827E",
"-. c #EB837E",
";. c #EA907A",
":. c #C8A86D",
">. c #DFA67E",
",. c #E8A27A",
"<. c #DDC141",
"1. c #DDC566",
"2. c #E7D363",
"3. c #043A87",
"4. c #023D95",
"5. c #023E9C",
"6. c #083E99",
"7. c #003FA0",
"8. c #0B4599",
"9. c #13479B",
"0. c #1B4483",
"q. c #29569C",
"w. c #0240A5",
"e. c #0643A7",
"r. c #0145BA",
"t. c #0D48B4",
"y. c #0154BD",
"u. c #1754B8",
"i. c #134AA0",
"p. c #2656A8",
"a. c #767683",
"s. c #6C738E",
"d. c #416FBD",
"f. c #014ACB",
"g. c #0349C3",
"h. c #0D55D0",
"j. c #0056E4",
"k. c #847A82",
"l. c #758AA8",
"z. c #A88E86",
"x. c #B48E86",
"c. c #AC9A8E",
"v. c #BB958C",
"b. c #B69E97",
"n. c #A89992",
"m. c #B9A29B",
"M. c #969CA5",
"N. c #9FA3AC",
"B. c #B4ADB1",
"V. c #BAB4B2",
"C. c #C29E95",
"Z. c #CC9E97",
"A. c #CE918C",
"S. c #ED8985",
"D. c #EB8E89",
"F. c #E88581",
"G. c #EA938E",
"H. c #EB9D99",
"J. c #E99994",
"K. c #F08E89",
"L. c #CEA68A",
"P. c #DCA786",
"I. c #C4A39B",
"U. c #CBA39B",
"Y. c #C7A499",
"T. c #D8B69A",
"R. c #DFA49F",
"E. c #EBB38C",
"W. c #F3B48C",
"Q. c #EBA29D",
"!. c #E6A19C",
"~. c #E9AA83",
"^. c #C5AAA2",
"/. c #CBACA3",
"(. c #D1A9A2",
"). c #CDB3AA",
"_. c #D2B5AC",
"`. c #D3B9AC",
"'. c #D4B4AB",
"]. c #C8B9B6",
"[. c #D4BCB4",
"{. c #D9BDB5",
"}. c #EBAAA4",
"|. c #E8AAA5",
" X c #EBB2AC",
".X c #EBBBB4",
"XX c #F1A7A2",
"oX c #D5C08D",
"OX c #FCC298",
"+X c #E4D29D",
"@X c #DBC4BC",
"#X c #DCC8BA",
"$X c #D4C6B6",
"%X c #ECC3BC",
"&X c #E6C0BA",
"*X c #E1CFA1",
"=X c #A9AFC1",
"-X c #DDCBC4",
";X c #DBCAC4",
":X c #D4CDCE",
">X c #E2CCC5",
",X c #EECBC4",
"<X c #EDCEC8",
"1X c #E6CBC4",
"2X c #F0CCC5",
"3X c #E5D3CC",
"4X c #ECD3CC",
"5X c #E6D4C6",
"6X c #F1D3CC",
"7X c #E6D7D0",
"8X c #E6D8D1",
"9X c #EBDCD5",
"0X c #EDDFD8",
"qX c #E9D7D0",
"wX c #F0D7D0",
"eX c #F1DCD5",
"rX c #F1DFD9",
"tX c #EFE1DA",
"yX c #F2E5DF",
"uX c #F2E5DF",
"iX c #F2E4DE",
"pX c #F2E6E0",
"aX c #F2E5E0",
"sX c #F4E9E3",
"dX c black",
"fX c black",
"gX c black",
"hX c black",
"jX c black",
"kX c black",
"lX c black",
"zX c black",
"xX c black",
"cX c black",
"vX c black",
"bX c black",
"nX c black",
"mX c black",
"MX c black",
"NX c black",
"BX c black",
"VX c black",
"CX c black",
"ZX c black",
"AX c black",
"SX c black",
"DX c black",
"FX c black",
"GX c black",
"HX c black",
"JX c black",
"KX c black",
"LX c black",
"PX c black",
"IX c black",
"UX c black",
/* pixels */
"  n b b b b v                                                                                     ",
"n b b b z b b v p                                     x n v b b b v x                             ",
"b b z z z z z b j g                             n b b b z z z z z z b b v                         ",
"n b z z z k k z k h h g                 x v b b z z z z z z z z z z z z z b v                     ",
"x b z k k k l l k h f h h f g g v v v b b z z z z z k k k k k k k k k z z z z v c                 ",
"x b z k l k Y P b j f f h h h h z z z z z z k k k k k k k k k k k k k k k z z z b n               ",
"  b b m Y C 6XQ.S.Q d d f f f f z k k k k k k k k k k k k k k k k k k k k k k z z b v             ",
"  V ! R ,X^ 4X9X0XJ.L a i d i i k l k k k b k k l b k l l j k k k l l l l l k k z b k g           ",
"  V }.<XpX9X9XpX4X=.!.K N u u u m Q Q k l C Y k U XXK.m B -.W E S.m Z Q B Z k l k z h h           ",
"  T J.9XpXpXpXyXyXiX9X^.Z.L s u Z %X.XP j R I B ,XsXtXE R 9X0X9XyX! R wXH.H.B C B k f h g         ",
"    0XpXyXpXpXyXpXpXiX{.(.U.J M Y ~ <X,X~ %X! v ^ !.1X,XJ.5X0XpXpX|.I rXsX}.D.eX-.f d f j v x     ",
"    3XpXyXpXyXyXyXyXyX@XU.(.Y.T 2XeXyXiXiXpX4XS.^ |.iXpXyX9X9XyXyX4X%XyXyX4X4XH.Z i d h z b b b n ",
"    >XpXyXyXyXyXyXyXpX>XU.U.C.>XpXyXpXwX,X|.H. XsXpXyXyXyX0X9XyXyXyXpXpXpXpXS.k g M p j k z b b n ",
"    @XyXyXyXyXyXyXyXyX3XU.Y.Y.0XpXpX,XJ..XF.~ 6XpXyXyXyXyXiX3XyXyXyXyXyXyXpXS.l a J V m Z b b n   ",
"      iXyXyXyXyXyXyXyXqX/.C.^.iXpXpX%XQ.,X~ F.eXyXyXyXyXpXyX8XtXpXyXyXyXyXpX<XV y A.C U -.b n     ",
"      0XpXyXyXyXyXyXyX9X/.v.`.yXyXpX,XJ..XW R 4XyXyXpXpXpXpXtX7XyXpXyXyXyXyX.XT Z..XI Q.G.c       ",
"      3XpXyXyXyXyXyXyX9XU.v.@XyXyXyX4X!..XW W <XyXyXpXpXpXpXpX9X8XyXyXyXyXyX9X'.-X4X,X^ A         ",
"      >XpXyXyXyXyXyXyX0XY.x.@XpXyXpX,X.X6XQ.%X0XyXpXpXpXpXpXpXyX9X8XtXyXyXyX0X{.0XpXrXI           ",
"        tXpXyXyXyXyXyX0XC.v.>XyXyXyX.X.XyX%X.XyXyXpXpXpXpXpXpXpXiX-X-XiXyXyX4X>XpXpX4X            ",
"        9XpXyXyXyXyXyX0XI.Y.>XyXyXyX,XD.H.H.4XyXyXpXpXpXpXpXpXpX0X9X3XtXyXyX3X0XpX0X              ",
"        5XpXyXyXyXyXyX9X^.Y.>XyXyXyXiX%X=..XiXyXyXyXyXpXpXpXpXyX3X0X9X9XyXiX9XyXiX#X              ",
"        [.iXyXyXyXyXyX0X).Y.>XyXyXyX XQ.Q.}.,XyX5X9XyXyXyXyXyX0X3XyXiX3XiXyXyXyX5X                ",
"          9XpXiX3XyXpXyX).Y.5XyXyXyXwX6X.XwXeXyX5X'.5XyXyXyX0X3XiXyXyX9X0XpXpX9X                  ",
"          -XpXtX;XiXyXyX).Y.5XyXyXyX2XD.D.J.yXyXyX@X/.iXyXyX>X>XyXyXyX0X9XpX0X                    ",
"            tXtX[.tXpXyX[.C.5XpXyXpXS.R D.=.iXyXyX0X/.3XyXyX@X@XyXyXyXiX9X0X`.            &.      ",
"            9XiX[.9XpXyX>Xv.5XyXyXyX! R -.^ wXyXyXyX@X@XyXyX{.@XyXyXyXpX0X`.            ~.*.&.    ",
"              tX_.3XyXyX3XY.>X9XyXwXD.XX X|.iXyXyXyX9X[.iXiX[.3XpXyXpX0X`.        e.p.T.OX,.      ",
"              9X[.-XyXyX9XY.[.9XyX1XJ.}.,XH.tXyXyXyXiX@X0XiX`.9XyXpX9X'.        9.u.h.m.W.        ",
"              @X[.@XyXyX0XI.^.iXyXyX%X=.%X|.0XiXyXyXyX3X0X9X[.iXyXqX).      9.r.f.u.8.+.          ",
"                ).`.tXyXiX/._.pXyXtX4X%X%X,X9X8X9X0XyX9X0X3X-XiX>X/.    6.r.h.h.g.-               ",
"                  /.9XpXyX).;XyX8X1XF.G.}.~ }.iX8X3XtX9X9X-X3X[.U.x.  4.r.f.9.3 -                 ",
"                  b.-XyXiX/.@X3X9XD.! E S.^ F.eXyX0X7X9X-X_./._.b.< 5.r.f.8.=                     ",
"                    ^.5X0XI.).9XyX%X%X).4X6X<XiXyXyX9X-X^.C.^.0X:Xi.g.4., =                       ",
"                      ).>Xm.3XyXtX3X8Xs.N.:XM.3XtXyXtX@X^.).3XpX0Xd.7.*                           ",
"                      z./.[.tX0X#XoX*X9 0 e e ;X3X0X8X3X3X7XyXpXsXl.*                             ",
"                        I.3XtX)./...` X.) / @.+X;X0X0X8X0XiXpXpXpXB.                              ",
"                        m.3X0XI.:. .[ [ { ] ] 2.#XtX9X0XyXyX0X>X3X                                ",
"                        -X9X@X`.%.] { { { { { ` 1.5X9XtXyXtX[.^./.                                ",
"                        3X9X7XT.| } } { { { } ] <.#X>XtXiX[.o.t                                   ",
"                        ].@X#X1.' ` | ] { _ ` _ 1.3X@X>X_.w < 3.6.                                ",
"                      s.8X0X:.$.D % O.) ( ) # D $.L.b.o.0 > 4.5.4.                                ",
"                    0.=XsX7X#X).z.8 k.w t S $ w m.5 @ o 3.4.7.w.,                                 ",
"                    q.:XsXpXpX/.m.H *.P.P.L.9 r c.    & , w.r.r.e.                                ",
"                    q.B.].3XyX).7 5 F E.E.E.            > g.f.f.3.                                ",
"                  e.4.- - 4 a.n.@ @   >.P.              & 4.4., =                                 ",
"                3.w.w.4.4.3.> O . .                       + 4 e                                   ",
"              t.r.r.r.w.e.9.5.> O X       F F               V.$X                                  ",
"                j.j.j.4.i.h.f.u.8.4., a.E.*.#.              B.V.                                  ",
"                8.y.y.- o , e.p.g.w.3.C.OXW.,.              1 1                                   ",
"                  = * o +     - , 3.< x.E.W.,.              O O                                   ",
"                                    = 6 8 F G               : ; :                                 ",
"                                    8 o.w r 7               : ; 2                                 ",
"                                        r                   1 q a.H                               ",
"                                        n.                    +.+.F                               ",
"                                        c.                      6                                 "
};
