/* XPM */
static char *_85c59152a4d4ccce0fc19c7cea1f04a3LQ5iPqnxZn6qCxt_1[] = {
/* columns rows colors chars-per-pixel */
"49 55 256 2 ",
"   c None",
".  c #151519",
"X  c #1D1F2A",
"o  c #0A2A3A",
"O  c #1E253C",
"+  c #153134",
"@  c #25383A",
"#  c #343135",
"$  c #5C4C1A",
"%  c #59462C",
"&  c #74632A",
"*  c #0D2D4C",
"=  c #0C324A",
"-  c #153446",
";  c #143659",
":  c #0E2D5A",
">  c #242A55",
",  c #303656",
"<  c #033374",
"1  c #06387A",
"2  c #133B78",
"3  c #0C3566",
"4  c #2F3866",
"5  c #154271",
"6  c #324C5F",
"7  c #554E54",
"8  c #6A5A5B",
"9  c #775C59",
"0  c #736B49",
"q  c #455669",
"w  c #5B5270",
"e  c #645962",
"r  c #536771",
"t  c #726669",
"y  c #6F6970",
"u  c #BD3E3A",
"i  c #D50304",
"p  c #DD0001",
"a  c #DE0A09",
"s  c #C81617",
"d  c #D31110",
"f  c #E30203",
"g  c #EC0203",
"h  c #E90B0A",
"j  c #F20202",
"k  c #FC0D0D",
"l  c #F90807",
"z  c #FD110E",
"x  c #ED1A15",
"c  c #E91C18",
"v  c #F41613",
"b  c #FB1311",
"n  c #F21915",
"m  c #F41C1A",
"M  c #F91A18",
"N  c #CC2C2B",
"B  c #F52725",
"V  c #F43331",
"C  c #F13B39",
"Z  c #EF312F",
"A  c #8E7232",
"S  c #AA772B",
"D  c #E5413D",
"F  c #B85D59",
"G  c #956C50",
"H  c #BB645F",
"J  c #82676D",
"K  c #D0514E",
"L  c #E94744",
"P  c #F34A47",
"I  c #E75A57",
"U  c #F15755",
"Y  c #C07C5B",
"T  c #F1615E",
"R  c #CB7872",
"E  c #EA6966",
"W  c #EC716D",
"Q  c #ED7975",
"!  c #E97975",
"~  c #F0716D",
"^  c #8A8C1D",
"/  c #9D9B22",
"(  c #BEA323",
")  c #AD941E",
"_  c #F1DB1A",
"`  c #F0D40C",
"'  c #FAE502",
"]  c #FEEB03",
"[  c #F8E408",
"{  c #FDEC10",
"}  c #F1DB22",
"|  c #E4CE31",
" . c #D5C511",
".. c #93827D",
"X. c #8B876A",
"o. c #B68775",
"O. c #A3A063",
"+. c #C8865F",
"@. c #D3AF4C",
"#. c #D39470",
"$. c #EA817D",
"%. c #E59F78",
"&. c #C8A86D",
"*. c #DFA67E",
"=. c #E8A37A",
"-. c #DEC250",
";. c #DDC66A",
":. c #E7D366",
">. c #043A86",
",. c #023D95",
"<. c #013E9B",
"1. c #083E94",
"2. c #003FA0",
"3. c #0A4599",
"4. c #13479B",
"5. c #1B4483",
"6. c #29569D",
"7. c #0340A4",
"8. c #0644A7",
"9. c #0145BA",
"0. c #0E48B4",
"q. c #0154BD",
"w. c #1754B8",
"e. c #134AA0",
"r. c #2656A8",
"t. c #777783",
"y. c #6D6D85",
"u. c #416FBD",
"i. c #6B7FA0",
"p. c #014ACB",
"a. c #0349C3",
"s. c #0C55D0",
"d. c #0056E4",
"f. c #847A83",
"g. c #758AA8",
"h. c #918080",
"j. c #A78E86",
"k. c #B58E86",
"l. c #AC9A8E",
"z. c #BB958C",
"x. c #B79E97",
"c. c #A79992",
"v. c #BAA39C",
"b. c #969CA5",
"n. c #9FA3AC",
"m. c #B4AEB2",
"M. c #BAB5B2",
"N. c #C7988C",
"B. c #C39D93",
"V. c #CC9B93",
"C. c #D29D95",
"Z. c #D48C85",
"A. c #EA8581",
"S. c #EB8A85",
"D. c #EB8E89",
"F. c #E78682",
"G. c #EB928D",
"H. c #E5948F",
"J. c #EB9A95",
"K. c #EB9E99",
"L. c #E89893",
"P. c #F0928C",
"I. c #DCA786",
"U. c #C5A39A",
"Y. c #CAA299",
"T. c #C8A69B",
"R. c #D8B69A",
"E. c #CEAC8D",
"W. c #EBB38C",
"Q. c #F3B48B",
"!. c #EBA29D",
"~. c #EDA891",
"^. c #C6AAA2",
"/. c #CBADA3",
"(. c #CCB3AB",
"). c #D1B5AC",
"_. c #D4B6AB",
"`. c #C7BBB8",
"'. c #D5BBB3",
"]. c #DBBCB4",
"[. c #D7BFB8",
"{. c #D4A8A0",
"}. c #EBAAA4",
"|. c #EAAAA4",
" X c #EBB3AC",
".X c #E3B4AD",
"XX c #EBBBB5",
"oX c #F1ABA6",
"OX c #D4C08D",
"+X c #FCC299",
"@X c #E3D29E",
"#X c #DBC4BC",
"$X c #DBC5B9",
"%X c #D4C7B6",
"&X c #E3C5BC",
"*X c #EDC4BE",
"=X c #E0CFA1",
"-X c #A9AFC2",
";X c #DAC7C0",
":X c #DDCBC3",
">X c #DACDC9",
",X c #D4CDCF",
"<X c #E2CCC4",
"1X c #EDCBC5",
"2X c #E9CCC5",
"3X c #F0CBC4",
"4X c #E4D3CC",
"5X c #ECD3CC",
"6X c #E6D3C6",
"7X c #F1D3CC",
"8X c #E6D7D0",
"9X c #ECD7D0",
"0X c #E6D8D1",
"qX c #EBDBD4",
"wX c #EEDFD8",
"eX c #F2D6D1",
"rX c #F1DBD5",
"tX c #F2DFD8",
"yX c #EFE1DA",
"uX c #F2E5DE",
"iX c #F2E4DD",
"pX c #F2E5E0",
"aX c #F7E9E3",
"sX c black",
"dX c black",
"fX c black",
"gX c black",
"hX c black",
"jX c black",
"kX c black",
"lX c black",
"zX c black",
"xX c black",
"cX c black",
"vX c black",
"bX c black",
"nX c black",
"mX c black",
"MX c black",
"NX c black",
"BX c black",
"VX c black",
"CX c black",
"ZX c black",
"AX c black",
"SX c black",
"DX c black",
"FX c black",
"GX c black",
"HX c black",
"JX c black",
"KX c black",
"LX c black",
"PX c black",
"IX c black",
"UX c black",
/* pixels */
"  n b b b b                                                                                       ",
"v b b z z b b v                                       x n v b b b v n                             ",
"v b z z z z z b h a                             v v b b b z z z z z b b v                         ",
"n b z z k k k z k j g f                   v v b b z z z z z z k k z z z b b x                     ",
"x b z k k k k k k l g j j g g h v v v b b z z z z z k k k k k k k k k z z z b n                   ",
"x b z k k b U P v v f g g g j j z z z z z z k k k k k k k k k k k k k k k z z z v x               ",
"  M M B ~ P 3XK.S.E f f g g g g k k k k k k k k k k k k k k k k k k k k k k k z b b x             ",
"  L $.A.7XH.1X9XqXL.K s p f p i k k b k k b b k k M v k k m v k b k k b k k k k z b k h           ",
"  L L.1XeX7XeXiX9XK.|.F K d i i M Q W k l C P k U oX!.V V !.G.W P.B V T B V k k k z l j           ",
"  Z.}.7XeXeXiXiXiXiX5X{.C.R s i V  X XP k E U B *XrX5XS.I 1X5X9XrXS.E 5XL.K.B P V k g j f         ",
"    9XtXeXeXtXiXiXtXrX].C.C.R N U $.5X1X! *XQ m W H.XX7X|.*X5XiXtX XE eXiX XS.7XG.h f g l v       ",
"    4XiXiXtXrXiXiXiXrX.XC.C.N.Z.7XrXiXiXrXtX*XG.J.XXeXeXrX9X8XiXrX7X5XiXtX9X*XA.Z p p g z b b v x ",
"    <XiXiXiXiXiXiXiXiX&XV.V.N.2XrXiXiX3XXX!.S.}.iXiXrXrXiXyX8XiXrXiXiXiXiXpXJ.k h N d k z b b b n ",
"    :XiXiXpXiXiXiXiXiX2XV.N.B.5XiXpX*XK.1XS.A.7XtXiXtXiXiXiX8XwXtXiXiXiXiXiXoXm d H D M V b b n   ",
"    ].iXiXiXiXiXiXiXiX5XY.N./.tXiXiX1XK.1XW $.9XiXiXiXiXpXpXqX9XpXpXiXiXrXeX5XI u Z.P U S.b v     ",
"      wXpXiXiXiXiXiXiX9XT.z.'.iXiXiX1X|. XE I 5XiXiXpXiXpXpXiX8XyXpXiXrXeXeX&XR Y..XE !.G.c       ",
"      4XpXiXiXiXiXiXiX9XT.z.[.iXiXpX1XL.*XW ! 1XiXiXpXpXiXpXpXyX8XyXiXtXrXeXqX#X#X5X1XQ Z         ",
"      <XpXiXiXiXiXiXiXwXU.k.#XiXiXiX1X1XrXXX1XiXiXiXpXpXiXpXpXiXyX4X9XiXtXqXwX#XqXpXrXI           ",
"      [.iXiXiXiXiXiXiXwXU.B.&XiXiXiX|.K.eX}.|.iXiXpXpXpXiXpXpXpXiX4X>XwXiXiX9X4XpXpX5X            ",
"        qXpXiXiXiXiXiXwXT.Y.<XiXiXiX7XJ.A.}.iXiXiXiXpXpXpXiXpXpXwX9XqXqXiXiX8XwXpXwX              ",
"        4XpXiXiXiXiXiX9X/.Y.<XiXiXiX9XXXD. XrXiXiXiXiXpXpXpXpXiX4XwXiX9XiXiXwXiXiX&X              ",
"        #XiXiXiXiXiXiXyX).Y.<XiXiXiX X|.!.}.1XiX6X4XiXiXiXiXiXqX9XiXiX8XiXiXiXiX6X                ",
"          qXpXiX4XiXiXiX(.Y.4XiXiXiXrX7XXX5XiXiXqX_.#XiXiXiX9X<XiXiXiXqXqXpXpX9X                  ",
"          ;XpXyX;XiXiXiX).B.4XiXiXpX3X$.D.G.iXiXiX4X/.wXiXiX4X:XiXiXiXyX9XpXwX].                  ",
"            yXiX#XyXpXiX[.B.4XpXiXpXD.E D.A.tXiXiXiX'.:XiXiX<X[.iXiXiXiXwXwX$X            +.      ",
"            qXiX'.qXpXiX<Xz.4XiXiXiXQ W A.A.eXiXiXiX<X[.iXiX#X#XiXiXiXpXwX'.            W.%.#.    ",
"              yX'.4XiXiX5XU.<XqXiXeXG.}. X XiXiXiXiXwX'.yXiX$X<XpXiXiXqX_.        8.r.R.+X=.      ",
"              9X'.:XiXiX9XU.'.wXiX1XG.!.*XL.yXiXiXiXiX;XwXiX[.9XiXpX9X).        4.w.s.v.Q.        ",
"                [.[.iXiXwXU.^.iXiXiX*XF.XX.XwXiXiXiXiX4XwXwX#XiXiX4X).      4.9.p.w.3...          ",
"                (.).yXiXiX/.).iXiXyX4X*X*X1X9X8XqXwXiX9XwX<X4XiX<X/.    7.9.s.s.a.;               ",
"                  /.qXpXiX).;XiX8X2XF.H.}.W }.iX8X4XyXqX9X;X4X'./.k.  1.9.p.4.5 ;                 ",
"                  x.:XiXiX/.#X4XqXD.W E S.Q A.rXiXwX8X9X>X)./.'.x.>.<.9.p.3.-                     ",
"                    ^.4XwXU.(.qXiX*X*X(.5X7X1XiXiXiXqX>X/.B.^.wX,Xe.a.,.< -                       ",
"                      (.<Xv.4XiXwX4X4Xy.n.,Xb.4XyXiXyX;X^.(.4XpXwXu.2.=                           ",
"                      j./.'.yXwX#XOX=X0 q r r >X4XwX8X4X8X8XiXpXpXg.=                             ",
"                        U.4XyX(./.| }  .^ / O.@X>XwXwX8XwXiXpXpXiXm.                              ",
"                        v.4XwXT.&.} ' ' ' [ [ :.$XyX9XwXiXiXyX<X4X                                ",
"                        >X9X#X_.@.' ] ] ] ] ] _ ;.6X9XyXiXyX'././.                                ",
"                        4X9X8XR.| [ { ] ] ] { [ -.$X<XyXiX[...y                                   ",
"                        `.#X$X;.` _ | [ ] ` _ ` -.4X#X<X).e 3 >.<.                                ",
"                      i.0XwX&.@.S & X.) ( ) $ S @.E.x...q < ,.<.1.                                ",
"                    5.-XaX8X$X(.j.9 f.e y A % e v.7 @ o >.,.2.7.1                                 ",
"                    6.,XaXpXpX/.v.J #.I.I.N.0 t l.    * 1 7.9.9.8.                                ",
"                    6.m.`.8XpX(.8 7 G W.W.W.            < a.p.p.>.                                ",
"                  7.1.; ; 6 t.c.# #   *.I.              * ,.<.>.-                                 ",
"                1.7.7.,.,.>.< O . .                       @ 6 r                                   ",
"              0.9.9.9.7.8.4.<.< O X       G G               M.%X                                  ",
"                d.d.d.,.3.s.p.w.3.1.1 t.W.%.+.              m.M.                                  ",
"                3.q.q.: o 1 8.r.a.7.>.B.+XQ.%.              , 4                                   ",
"                  - = o +     ; 1 >.2 k.W.Q.=.              O O                                   ",
"                                    - 7 9 G Y               > > ,                                 ",
"                                    9 h.e y 8               > > 4                                 ",
"                                        y                   4 w y.J                               ",
"                                        c.                    o.o.G                               ",
"                                        l.                      7                                 "
};
