/* XPM */
static char *_85c59152a4d4ccce0fc19c7cea1f04a3LQ5iPqnxZn6qCxt_10[] = {
/* columns rows colors chars-per-pixel */
"50 56 256 2 ",
"   c None",
".  c #151519",
"X  c #1D1F32",
"o  c #0A2A39",
"O  c #1E263C",
"+  c #1A3539",
"@  c #313336",
"#  c #665325",
"$  c #0D2D4C",
"%  c #0C3249",
"&  c #153546",
"*  c #143659",
"=  c #142B5A",
"-  c #2C3255",
";  c #033374",
":  c #06397B",
">  c #0E376B",
",  c #2F3767",
"<  c #284965",
"1  c #554E54",
"2  c #775C59",
"3  c #6A5B5B",
"4  c #736B49",
"5  c #4D556B",
"6  c #645962",
"7  c #4C6271",
"8  c #6E6A6E",
"9  c #DA0A0A",
"0  c #DD1917",
"q  c #E50606",
"w  c #EC0303",
"e  c #ED0B0B",
"r  c #F50404",
"t  c #F40B0A",
"y  c #FD0D0C",
"u  c #FA0807",
"i  c #FC110E",
"p  c #F7100E",
"a  c #EE1915",
"s  c #EB1D19",
"d  c #E61615",
"f  c #F51613",
"g  c #FB1411",
"h  c #F21916",
"j  c #F91D1B",
"k  c #F71B19",
"l  c #FA201F",
"z  c #DD2927",
"x  c #CB3533",
"c  c #D93636",
"v  c #F82927",
"b  c #E7312F",
"n  c #F6302F",
"m  c #E53838",
"M  c #F43836",
"N  c #E52525",
"B  c #816D3E",
"V  c #A77D29",
"C  c #E8413F",
"Z  c #F4413E",
"A  c #956C50",
"S  c #BE7D5B",
"D  c #83676D",
"F  c #CF5551",
"G  c #F44340",
"H  c #F44D4A",
"J  c #F84845",
"K  c #F6514E",
"L  c #F8514E",
"P  c #F55451",
"I  c #F85451",
"U  c #F75A57",
"Y  c #E65250",
"T  c #D3615E",
"R  c #F2615E",
"E  c #C66863",
"W  c #D27570",
"Q  c #ED6A66",
"!  c #F26865",
"~  c #E8726E",
"^  c #EC7975",
"/  c #EB7B77",
"(  c #F17874",
")  c #F0716D",
"_  c #A69825",
"`  c #BEA123",
"'  c #9E9018",
"]  c #F2DA16",
"[  c #EDD113",
"{  c #FAE503",
"}  c #FEEB02",
"|  c #F9E508",
" . c #FDEB13",
".. c #E2CA2A",
"X. c #E7D034",
"o. c #D7C610",
"O. c #93827D",
"+. c #88856C",
"@. c #B68776",
"#. c #A6A362",
"$. c #C8865F",
"%. c #D3B34C",
"&. c #D7AD49",
"*. c #D49671",
"=. c #EC827D",
"-. c #EA907A",
";. c #C8A76E",
":. c #DEA67E",
">. c #E8A37A",
",. c #DFC55B",
"<. c #DEC768",
"1. c #E9D462",
"2. c #043A87",
"3. c #023D95",
"4. c #023E9B",
"5. c #083E93",
"6. c #183F80",
"7. c #003FA0",
"8. c #0B4598",
"9. c #13479A",
"0. c #1B4483",
"q. c #2A569C",
"w. c #0240A4",
"e. c #0142AA",
"r. c #0944A3",
"t. c #1449A0",
"y. c #0145BA",
"u. c #0E49B4",
"i. c #0152BD",
"p. c #1754B8",
"a. c #2756A7",
"s. c #70748A",
"d. c #426FBD",
"f. c #014ACB",
"g. c #0349C3",
"h. c #0C55D0",
"j. c #0056E4",
"k. c #847A83",
"l. c #758AA8",
"z. c #918080",
"x. c #A88E86",
"c. c #AC9A8E",
"v. c #B99D95",
"b. c #AF968E",
"n. c #BDA39D",
"m. c #AFA296",
"M. c #969CA5",
"N. c #9FA3AC",
"B. c #B4AEB2",
"V. c #BAB5B2",
"C. c #C39C93",
"Z. c #C99C93",
"A. c #DB9993",
"S. c #D69687",
"D. c #EB8581",
"F. c #E98A86",
"G. c #F08E89",
"H. c #E9928D",
"J. c #EB9691",
"K. c #EB9B96",
"L. c #EC9E99",
"P. c #F09692",
"I. c #DCA785",
"U. c #CAA39B",
"Y. c #C7A399",
"T. c #D5B394",
"R. c #EBB38C",
"E. c #F3B58B",
"W. c #EBA19C",
"Q. c #E7A09B",
"!. c #E9AA83",
"~. c #CCADA4",
"^. c #C6ABA2",
"/. c #CCB3AA",
"(. c #D2B6AD",
"). c #D3B9AD",
"_. c #D8B4AD",
"`. c #C8B9B6",
"'. c #D5BCB3",
"]. c #D8BEB5",
"[. c #EAA6A0",
"{. c #ECAAA4",
"}. c #EDAEA8",
"|. c #E6ACA7",
" X c #ECB3AD",
".X c #E3B2AC",
"XX c #F0B3AD",
"oX c #ECBBB5",
"OX c #EBBFB8",
"+X c #ECB6B0",
"@X c #F0BBB5",
"#X c #D5C08D",
"$X c #F4C79A",
"%X c #DAC3BB",
"&X c #DCC8BA",
"*X c #D4C7B6",
"=X c #ECC3BC",
"-X c #E9CAB0",
";X c #A9AFC2",
":X c #DECBC4",
">X c #DACBC5",
",X c #D4CDCF",
"<X c #EDC6C0",
"1X c #E2CCC5",
"2X c #EDCBC5",
"3X c #E6CFC8",
"4X c #F0CCC5",
"5X c #E4D3CC",
"6X c #EBD4CC",
"7X c #E5D3C6",
"8X c #E6D7D0",
"9X c #EAD7D0",
"0X c #E6D8D1",
"qX c #EBDCD5",
"wX c #EDDFD8",
"eX c #F0D6D0",
"rX c #F0DBD4",
"tX c #F1DED8",
"yX c #F3D2CA",
"uX c #EFE0DA",
"iX c #F2E4DD",
"pX c #F2E5E0",
"aX c #F5E8E2",
"sX c black",
"dX c black",
"fX c black",
"gX c black",
"hX c black",
"jX c black",
"kX c black",
"lX c black",
"zX c black",
"xX c black",
"cX c black",
"vX c black",
"bX c black",
"nX c black",
"mX c black",
"MX c black",
"NX c black",
"BX c black",
"VX c black",
"CX c black",
"ZX c black",
"AX c black",
"SX c black",
"DX c black",
"FX c black",
"GX c black",
"HX c black",
"JX c black",
"KX c black",
"LX c black",
"PX c black",
"IX c black",
"UX c black",
/* pixels */
"        h h s                                                                                       ",
"    h h g g g f 0                                       s                                           ",
"s g g f g g g g y w                           h f f g g g g g g f f h h f                           ",
"f g g i i i i i i r w                     f g g g i i g g g i i i i g g i g g f                     ",
"f g i j j y y i y r r w               f g i i i i i i i i i y i i i i i i i i i f s                 ",
"h g g Z Z n l y y t w r r 9       f g g i i y i i i y y y y y y y y y i y y i i g g a               ",
"s M M L L H K G k f w w w e q q p i i i i y y y y y y y y i n j y y y y y y y i i g g a             ",
"  M H I I I G.L./ ) N z N m s q t y y y y y y y y y g l g j H n y y y y y y y y i g g t             ",
"  Z K I U R 4XqXqX+XY Y m m c d i v j y y h f y y v J L M n H J v y i v y y y y i i y r 9           ",
"  Q J.( }./ <XiXiX}.S.F c m c 0 k ! ! i u M Z y H ( K L P K L ) ( v M ( M M y y g j u r q           ",
"  ~ {.<XiX2X2XiXrXW..XE c c x b H }.oXP j Q ! n  X4XD.P ! D.=.OX2XR P.=X[./ n v J M e w r a h       ",
"    [.6XpXpXiXiXiXiX5XU.E x x Y Q L.=X2X^ }.) P 4XqX<X( =XqX9XqXiXD. XpXiXJ.}.G.G e w w t g g g g f ",
"    9XpXiXiXiXiXiXiXqX(.Z.E F T P.oXeX=X=X=X=.H ^ |.qXW.2XuXpXiX6XF.<XpXqX=XaXXXm q 9 w y i g g g   ",
"    5XpXiXiXiXiXiXiXiX'.U.Y.U.A.rXpXtX2X9X=X{.[.OXrXiXrX9XuXpXiX6X<XiXpXiXqXXX! C 9 z f y g i g h   ",
"    :XiXiXiXiXiXiXiXiX%XY.Y.~.5XpXiXiX=X=XL.F. XaXiXiXpXiXqXiXiXiXuXuXpXiXL.I Y E F b v Z k g a     ",
"      uXpXiXiXiXiXiXiX3XY.Y.~.qXpXpX6XL.=XJ.W.rXiXiXiXiXiXqXiXiXiXiXuXuXiXL.P Y W A.G R =.f a       ",
"      qXpXiXiXiXiXiXiX6XY.Z./.wXpXpXoX XrXJ.H.rXiXiXiXiXpXqXuXpXiXiXiXqXuXrX/ W _..XQ [.D.s         ",
"      5XpXiXiXiXiXiXiXqXU.Z.'.iXiXpX=XD.OX^ W.iXiXiXpXpXpXiXqXpXpXiXuXiXuX2XA._.1XoX4X=.b           ",
"      :XpXiXiXiXiXiXiXqX~.C.%XiXiXiX6X XJ.~ J.iXiXiXpXpXpXpXwXwXpXuXuXiXuXqX1X1XwXpXeXR             ",
"        iXiXiXiXiXiXiXqX~.C.%XiXiXiX2X|.{./ Q.iXiXiXpXpXpXpXiXqXqXuXiXiXuXiX1XqXpXpX6X              ",
"        qXpXiXiXiXiXiXqX~.v.&XiXiXiXoX=X=X=X<XiXiX9XqXiXpXpXpXwX:XqXiXiXuXqX5XiXpX9X                ",
"        3XpXiXiXiXiXiXiX~.Y.1XiXiXiXOX X=X+X9XiXiXqX3XwXpXpXpXqX:X5XiXiXiXqXqXpXiX                  ",
"        %XiXpXwXuXiXiXwX~.U.1XiXiXiXiX XD. XiXiXiXiX6X9XpXpXiXqX1XwXqXiXiXqXiXiX3X                  ",
"          qXpXwXqXiXiXiX(.U.5XiXiXiX XH.L.J.eXiXqXiXqX5XiXiXiX5X5XiXqXiXiXuXpX9X                    ",
"          :XpXwX:XiXiXiX(.Y.5XiXiXiX@X[.{.}.eXiX1X5XuX5XuXiXuX1XqXiXwXqXpXiXqX                      ",
"          '.uXuX%XwXiXiX%XC.5XiXiXiXL.^ F.K.rXiXwX%X5XqXqXiX5X5XuXiXiXqXuXqX).            $.        ",
"            qXuX].qXpXiX1XC.3XiXiXiX/ ^ H.J.iXiXiX6X%XqXqXuX1X5XiXiXiXqX1X(.            !.*.*.      ",
"            5XwX'.5XiXiX6XC.:XwXiX6X=.K.[.K.rXiXiXiX1X8XqXqX'.9XiXiXuX5X'.        r.a.T.$X>.        ",
"              qX'.:XiXiX9XY.].qXiX2XL.W.=X[.qXiXiXiXqX5XuXqX'.wXiXiX5X'.        9.p.h.n.E.          ",
"              5X].%XiXiXqXY.~.iXiXiX=XF.OX.XuXuXiXiXiX5XwX6X].iXiX5X].Y.    t.y.f.p.9.@.            ",
"                ).(.uXiXiX~.(.iXiXuX6X=X=X<X9XqXqXqXiX8XwX1X:XuX3X(.Y.    y.h.h.g.*                 ",
"                  ~.qXpXiX(.:XiX8X<XD.H.{.~ [.uXqX5XuXqXqX>X5X%X~.b.  4.y.f.9.> *                   ",
"                  v.:XiXiX~.%X5XqXH.~ Q F.^ D.qXuXuX8XqX:X'.~.(.v.6.4.y.f.8.&                       ",
"                    ^.5XqXY./.qXiX=X=X/.6XyX2XuXiXiXqX>X~.Y.^.qX,Xt.g.3.; &                         ",
"                      /.1Xn.5XpXuX5X8Xs.N.,XM.5XuXiXiX>X^./.5XpXwXd.7.%                             ",
"                      x.~.'.iXwX&X#X-X4 5 8 7 >X5XwX8X5X8X8XiXpXaXl.%                               ",
"                        Y.5XuX/.~.X.] o.' _ #.$X>XqXqX8XwXiXpXpXiXB.                                ",
"                        n.5XqXY.;.] } { { | | 1.&XuXqXqXiXiXuX1X5X                                  ",
"                        5X0X%X).%.{ } } } } } ] <.7X8XuXiXuX'.~.~.                                  ",
"                        5X0X8XT...|  .} } } } | X.-X3XuXiX].O.8                                     ",
"                        `.%X&X<.[ ] ..| { ] ] ] ,.7X%X1X(.6 > 2.4.                                  ",
"                      s.0XqX;.&.V # +._ ` ' # V &.T.v.O.5 ; 2.4.5.                                  ",
"                    0.;XaX8X&X/.x.2 k.6 8 B # 6 m.1 @ o 2.3.7.e.:                                   ",
"                    q.,XaXaXpX~.n.D *.I.I.S.4 8 c.    $ : e.y.y.r.                                  ",
"                    q.B.`.8XaX/.3 1 A R.R.E.            ; g.f.f.2.                                  ",
"                  r.5.* * < s.c.@ @   :.I.              $ 2.4.: &                                   ",
"                5.w.e.3.3.2.; O . .                       + < 7                                     ",
"              u.y.y.y.e.e.9.4.; O X       A A               V.*X                                    ",
"                j.j.j.2.9.h.f.p.9.5.: s.R.*.$.              B.V.                                    ",
"                8.i.i.* o : e.a.g.e.2.C.$XE.>.              - ,                                     ",
"                  & % o +     * : 2.> b.E.E.>.              O O                                     ",
"                                    & 1 2 A S               - = -                                   ",
"                                    2 z.6 8 3               - = ,                                   ",
"                                        8                   , 5 s.D                                 ",
"                                        c.                    @.@.A                                 ",
"                                        c.                      1                                   "
};
