/* XPM */
static char *_85c59152a4d4ccce0fc19c7cea1f04a3LQ5iPqnxZn6qCxt_11[] = {
/* columns rows colors chars-per-pixel */
"50 56 256 2 ",
"   c None",
".  c #151418",
"X  c #1D1F33",
"o  c #0A2A39",
"O  c #1E263C",
"+  c #1A3539",
"@  c #313336",
"#  c #614F1A",
"$  c #68552C",
"%  c #0D2E4B",
"&  c #0D3249",
"*  c #153545",
"=  c #143659",
"-  c #142B5A",
";  c #293053",
":  c #033374",
">  c #06397B",
",  c #143C77",
"<  c #0C3666",
"1  c #3B3D61",
"2  c #23306A",
"3  c #284965",
"4  c #5C5754",
"5  c #4F4653",
"6  c #775C59",
"7  c #6A5B5B",
"8  c #736B49",
"9  c #4D556B",
"0  c #645963",
"q  c #4C6271",
"w  c #726669",
"e  c #6C6B70",
"r  c #DD0707",
"t  c #DA1A19",
"y  c #EB0304",
"u  c #E90909",
"i  c #F40304",
"p  c #FD0D0C",
"a  c #F70A09",
"s  c #FC110E",
"d  c #F7100E",
"f  c #EE1A16",
"g  c #E71A17",
"h  c #F51613",
"j  c #FB1411",
"k  c #F21915",
"l  c #FA1816",
"z  c #F91D1B",
"x  c #F61A19",
"c  c #C92C2A",
"v  c #DC2B2A",
"b  c #CB3936",
"n  c #E52323",
"m  c #E52D2C",
"M  c #F92422",
"N  c #F62B29",
"B  c #E03C3B",
"V  c #F63A37",
"C  c #F0312E",
"Z  c #907533",
"A  c #AD7D2B",
"S  c #E9413F",
"D  c #F1403D",
"F  c #F8413E",
"G  c #946B51",
"H  c #BF7C5B",
"J  c #83676D",
"K  c #D94341",
"L  c #DB5E5B",
"P  c #F94542",
"I  c #F34D4A",
"U  c #F64643",
"Y  c #F35A57",
"T  c #E65350",
"R  c #DE645E",
"E  c #F2605D",
"W  c #C46864",
"Q  c #CA7771",
"!  c #EC6966",
"~  c #EC6E6A",
"^  c #F06965",
"/  c #EB726E",
"(  c #EC7975",
")  c #F17975",
"_  c #F0716D",
"`  c #A69823",
"'  c #BEA223",
"]  c #9E9018",
"[  c #F1DA14",
"{  c #EACC0F",
"}  c #FAE501",
"|  c #FEEB02",
" . c #F9E508",
".. c #FDEC12",
"X. c #E3CB29",
"o. c #F1DC21",
"O. c #E6D13A",
"+. c #D7C611",
"@. c #92827D",
"#. c #8A856C",
"$. c #B68876",
"%. c #A5A162",
"&. c #C8865F",
"*. c #D3B34C",
"=. c #D7AD48",
"-. c #D8986E",
";. c #CD9075",
":. c #ED817D",
">. c #E49F78",
",. c #C8A86D",
"<. c #DEA67F",
"1. c #E8A37A",
"2. c #DFC440",
"3. c #E0C55B",
"4. c #DEC96B",
"5. c #E4CD63",
"6. c #043A87",
"7. c #023D95",
"8. c #023E9C",
"9. c #083E94",
"0. c #003FA1",
"q. c #0B4598",
"w. c #13479B",
"e. c #1B4483",
"r. c #2A569D",
"t. c #0240A4",
"y. c #0142AA",
"u. c #0944A3",
"i. c #0145BA",
"p. c #0E48B4",
"a. c #0152BD",
"s. c #1754B8",
"d. c #134AA0",
"f. c #2756A7",
"g. c #707489",
"h. c #416FBD",
"j. c #014ACB",
"k. c #0349C3",
"l. c #0C55D0",
"z. c #0056E4",
"x. c #847A83",
"c. c #758AA8",
"v. c #918080",
"b. c #A88E86",
"n. c #AC9A8E",
"m. c #B8948A",
"M. c #B79C96",
"N. c #A89892",
"B. c #BDA39B",
"V. c #AFA196",
"C. c #969CA5",
"Z. c #9FA3AC",
"A. c #B4AEB2",
"S. c #BAB5B3",
"D. c #C29C93",
"F. c #C89F92",
"G. c #D4968E",
"H. c #EB8985",
"J. c #EA8F8A",
"K. c #E78783",
"L. c #F08480",
"P. c #E9938E",
"I. c #EA9590",
"U. c #EB9B95",
"Y. c #EC9E99",
"T. c #F09C97",
"R. c #D9A987",
"E. c #C5A49B",
"W. c #CAA39B",
"Q. c #C6A399",
"!. c #D5AF93",
"~. c #EBB38C",
"^. c #F3B58B",
"/. c #EBA39E",
"(. c #E3A19B",
"). c #F0A19C",
"_. c #E9AA83",
"`. c #C6ABA3",
"'. c #CCACA3",
"]. c #CDB3AB",
"[. c #C9B1A7",
"{. c #D2B6AD",
"}. c #D3B9AD",
"|. c #C8BBB8",
" X c #D4BBB2",
".X c #D9BDB3",
"XX c #DEB7B0",
"oX c #D9ABA4",
"OX c #ECA6A1",
"+X c #EBAAA4",
"@X c #EAADA8",
"#X c #ECB2AC",
"$X c #E4B2AC",
"%X c #ECBBB5",
"&X c #EBBEB9",
"*X c #F1BDB7",
"=X c #D5C08D",
"-X c #F4C79A",
";X c #DBC4BC",
":X c #DCC7BA",
">X c #D4C7B6",
",X c #ECC3BC",
"<X c #E8C9AE",
"1X c #A9AFC2",
"2X c #DECBC3",
"3X c #DACCC7",
"4X c #D4CDCF",
"5X c #EBC7C0",
"6X c #E1CDC5",
"7X c #EDCBC4",
"8X c #E2CEC8",
"9X c #F0C9C2",
"0X c #E4D3CC",
"qX c #EBD4CC",
"wX c #E5D6C5",
"eX c #F2D1CA",
"rX c #E6D7D0",
"tX c #EBD7D1",
"yX c #E6D8D1",
"uX c #EBDBD4",
"iX c #EEDFD8",
"pX c #F0DBD4",
"aX c #F1DCD6",
"sX c #EFE0DA",
"dX c #F2E4DD",
"fX c #F2E5E0",
"gX c #F5E8E2",
"hX c black",
"jX c black",
"kX c black",
"lX c black",
"zX c black",
"xX c black",
"cX c black",
"vX c black",
"bX c black",
"nX c black",
"mX c black",
"MX c black",
"NX c black",
"BX c black",
"VX c black",
"CX c black",
"ZX c black",
"AX c black",
"SX c black",
"DX c black",
"FX c black",
"GX c black",
"HX c black",
"JX c black",
"KX c black",
"LX c black",
"PX c black",
"IX c black",
"UX c black",
/* pixels */
"        f k                                                                                         ",
"    l l j h h f                                           g                                         ",
"f h j h j j j j a u                             f k h h h h h h h k k k                             ",
"h j j j j s s s p i y                     k h j j s s j j j s s s s j j j h h f                     ",
"h j s M M s p s p i i y               k h s s s s s s s s s s s s s s s s s s j k                   ",
"k l l V V N z p p a y i i r       h h s s s s s s p p p p p p j p p p p p p s s j h g               ",
"g C V P P F U U x h y y y g u y d s s s s p p p p p p p p s N M p p p p p p p s s j h               ",
"  N F P P U T.Y.:._ n n n m n u d p p p p p p p p p l M l l V N p p p p p p p s s j j u             ",
"  D I U Y Y eXuXuX#XT B m m v g p M l p p l l p p M V P V C F V M p p z p p p p s s p i             ",
"  T /.( ,XH.,XgXiX/.G.K v m c t l E ^ s a C D p I ) I F P P P ^ ) z V ( V V p p l j i i u           ",
"  R OX7XgXuXuXdXpX+XXXW b v c v I %X%XI z _ ^ C %XpXY.I ~ U.P.,XqXY L.7X#XL.N M V M i y y g         ",
"    #XqXgXdXdXdXdXdX0X'.Q b c S Y I.5X7X/ @X! I 9XtXqX/ ,XsXsXiXsXH./.gXdXI.+XT.P u y y a j j h h l ",
"    uXgXgXdXgXdXdXdXiX{.W.;.W L ).,XpX5X5X7XJ.I ! (.iX#X,XiXgXdXqXK.&XgXdX&XdX*XU u r u p s j j h k ",
"    0XgXdXdXdXdXdXdXdX.XW.W.'.oXiXgXdXqXpX7X#X#X9XpXdXdXiXuXdXdXiXqXdXdXdXuX/.Y B t t h p s j h k   ",
"    2XdXdXdXdXdXdXdXdX;XW.W.'.0XgXdXdX%X&XU.H.#XfXdXdXdXdXtXdXdXdXdXsXdXgXOXP D W W m M D l j f     ",
"      dXgXdXdXdXdXdXdX0XW.W.'.iXgXgX7XY.5XI.I.pXdXdXdXdXdXuXsXdXdXdXdXsXdX%XY K W G.D E :.l f       ",
"      tXgXdXdXdXdXdXdXtXW.F.].dXdXdX&X+XqXH.P.pXdXdXdXdXgXsXuXgXdXdXdXsXsXdXK.Q {.$X! +XH.g         ",
"      0XgXdXdXdXdXdXdXtX'.D. XdXdXdX7XP.#X! I.dXdXdXgXgXgXdXuXsXgXdXsXdXsXqXY.oX6X&X9X:.m           ",
"      2XdXdXdXdXdXdXdXiX'.D.;XdXdXdXuX#X/./ J.dXdXdXdXdXgXgXsXuXdXsXsXdXdXdX6X2XsXfXtXR             ",
"        sXdXdXdXdXdXdXuX'.m.;XdXdXdX7X@X%XI.@XdXdXiXdXgXgXgXgXuXyXiXdXdXdXdX6XtXgXgXqX              ",
"        tXgXdXdXdXdXdXiXW.M.6XdXdXdX%X,X7X,X7XdXdXuXuXdXgXgXgXdX2X0XdXdXdXiX0XdXgXuX                ",
"        8XgXdXdXdXdXdXsXE.W.6XdXdXdX7XOX#X#XuXdXdXdXqXiXgXgXgXiX6X0XiXdXdXiXuXgXsX.X                ",
"        ;XdXgXsXsXdXdXiX'.W.6XdXdXdXaX#XK.#XdXdXdXdXuXrXdXgXgXtX6XdXtXdXdXiXdXdX0X                  ",
"          uXgXiXuXdXdXdX{.W.8XdXdXdX#XP./.OXpXdXtXdXsX0XdXgXdX0X0XdXuXiXdXdXgXqX                    ",
"          2XgXiX2XdXdXdX{.Q.0XdXdXdX,X+X+X%XpXdX0X;XiXtXsXdXiX8XiXdXdXtXdXdXiX.X                    ",
"            sXsX;XsXdXdX;XD.0XdXdXdXU.~ J.P.pXdXdX;X6XuXiXdX0X0XdXdXdXuXiXtX.X            ;.        ",
"            yXsX XuXgXdX6XD.6XdXdXdX( / P.J.dXdXdXiX;XtXuXdX;X0XdXdXdXiX0X X            _.-.-.      ",
"            0XiX X0XgXdXqXD.6XiXdXqX:.U.OXU.aXdXdXdX6X0XiXiX}.0XdXdXsXqX.X        u.f.!.-X1.        ",
"              tX X2XdXdXtXQ..XiXdX7XP./.,X+XiXdXdXdXtX2XsXiX XiXdXdXqX.X        w.s.l.B.^.          ",
"              2X.X;XdXdXiXQ.`.dXdXdX&XK.&X$XsXdXdXdXdX0XsXtX.XdXdXqX.XD.    w.i.j.s.w.$.            ",
"                {.{.sXdXdX'.{.dXdXsXqX,X,X5XuXuXuXiXdXtXsX6X2XsX8X{.F.    i.l.l.k.=                 ",
"                  `.uXgXdX].2XdXyX5XK.P.+X/ /.sXuX0XsXuXiX2X0X.X'.m.  8.i.j.w., =                   ",
"                  B.2XdXdX`.;X0XuXJ./ ! H.( :.iXdXiXyXtX2X{.'.{.M., 8.i.j.q.*                       ",
"                    `.0XiXQ.].uXdX,X,X].qXeX7XsXdXdXuX2X`.F.`.uX4Xd.k.7.: *                         ",
"                      [.6XB.0XdXsX0XyXg.Z.4XC.0XsXdXdX;X`.].0XgXiXh.8.&                             ",
"                      b.'. XdXiX:X=X<X8 9 e q 3X0XiXyX0X0XyXdXgXgXc.&                               ",
"                        E.0XsX].`.O.o.+.] ` %.<X3XiXiXyXsXdXgXgXgXA.                                ",
"                        B.0XiXE.,.o.| } }  . .5.:XsXtXiXdXdXsX6X0X                                  ",
"                        3XuX;X}.*.} | | | | | [ 4.wXtXsXdXsX X'.'.                                  ",
"                        0XuXyX!.X. ...| | | |  .2.<X8XsXdX.X@.e                                     ",
"                        |.;X:X4.{ [ X. .} [ [ [ 3.wX;X6X{.0 < 6.8.                                  ",
"                      g.yXiX,.=.A $ #.` ' ] # A =.R.M.@.9 : 7.8.9.                                  ",
"                    e.1XgXrX:X].b.6 x.0 e Z $ 0 V.4 @ o 6.7.0.y.>                                   ",
"                    r.4XgXgXgX'.B.J ;.R.R.G.8 w n.    % > y.i.i.u.                                  ",
"                    r.A.|.rXgX].7 4 G ~.~.~.            : k.j.j.6.                                  ",
"                  u.9.= = 3 g.N.@ @   <.R.              % 6.7.> *                                   ",
"                9.t.y.7.7.6.: O . .                       + 3 q                                     ",
"              p.i.i.i.y.y.w.8.: O X       G G               S.>X                                    ",
"                z.z.z.6.w.l.j.s.w.9.> g.~.-.&.              A.S.                                    ",
"                q.a.a.< o > y.f.k.y.6.D.-X^.>.              1 1                                     ",
"                  * & o +     = > 6., m.~.^.1.              O O                                     ",
"                                    * 5 6 G H               ; - ;                                   ",
"                                    6 v.0 e 7               ; - 2                                   ",
"                                        e                   1 9 g.J                                 ",
"                                        N.                    $.$.G                                 ",
"                                        n.                      5                                   "
};
