/* XPM */
static char *_dee9ba828d948fcdd1831683750095bIAt6Fn3CIQZyxXwi_110[] = {
/* columns rows colors chars-per-pixel */
"82 93 256 2 ",
"   c None",
".  c #121117",
"X  c #151C2B",
"o  c #052935",
"O  c #172E33",
"+  c #173237",
"@  c #102C32",
"#  c #34383B",
"$  c #292C34",
"%  c #221E22",
"&  c #4F3A35",
"*  c #553B25",
"=  c #6C6225",
"-  c #163543",
";  c #042A55",
":  c #1C2756",
">  c #043257",
",  c #0F304D",
"<  c #232954",
"1  c #2E364E",
"2  c #053567",
"3  c #033678",
"4  c #0C316C",
"5  c #2F3669",
"6  c #463C4E",
"7  c #37494E",
"8  c #2A4B78",
"9  c #534D53",
"0  c #695151",
"q  c #4B5570",
"w  c #655863",
"e  c #78586C",
"r  c #736C6F",
"t  c #60656C",
"y  c #2C4537",
"u  c #CD0708",
"i  c #DC0203",
"p  c #D40C0C",
"a  c #D11111",
"s  c #E40304",
"d  c #EB0303",
"f  c #E60B09",
"g  c #F30403",
"h  c #F50C0B",
"j  c #FD0D0B",
"k  c #FA0807",
"l  c #FD110D",
"z  c #F7110F",
"x  c #EC1B16",
"c  c #EA1A17",
"v  c #F51513",
"b  c #FB1411",
"n  c #F41815",
"m  c #F61918",
"M  c #E1110E",
"N  c #D7211C",
"B  c #F5201F",
"V  c #E22119",
"C  c #CF2E2D",
"Z  c #EA2B2A",
"A  c #F52422",
"S  c #F42B2A",
"D  c #EC3736",
"F  c #F23C3A",
"G  c #F33432",
"H  c #9A6822",
"J  c #F1413E",
"K  c #C0423E",
"L  c #8D6D53",
"P  c #877470",
"I  c #B97667",
"U  c #A05E56",
"Y  c #CD4B47",
"T  c #EB4846",
"R  c #F34946",
"E  c #E95856",
"W  c #EF5351",
"Q  c #C67C50",
"!  c #EC625F",
"~  c #C86B65",
"^  c #CB746D",
"/  c #D3746F",
"(  c #DC716D",
")  c #D97974",
"_  c #CD7670",
"`  c #E86966",
"'  c #EA716E",
"]  c #E87A76",
"[  c #F26F6C",
"{  c #B91414",
"}  c #BA8D24",
"|  c #A3941D",
" . c #CEAF0F",
".. c #D5B23B",
"X. c #D5A51A",
"o. c #F3DC07",
"O. c #EBCF0E",
"+. c #FEEB01",
"@. c #FBE707",
"#. c #F9E71A",
"$. c #EBD52F",
"%. c #E7D229",
"&. c #AF8A74",
"*. c #A6905A",
"=. c #CDAE4F",
"-. c #CA8869",
";. c #C69778",
":. c #DA9976",
">. c #D08A6C",
",. c #EA837E",
"<. c #EB9479",
"1. c #D9AB75",
"2. c #E6A078",
"3. c #CD825D",
"4. c #DEC750",
"5. c #E3CD55",
"6. c #EEDE57",
"7. c #013A8C",
"8. c #043984",
"9. c #013C94",
"0. c #013E9B",
"q. c #0A3D92",
"w. c #173F83",
"e. c #003FA1",
"r. c #07429B",
"t. c #174795",
"y. c #14438C",
"u. c #264B89",
"i. c #0241A5",
"p. c #0042AC",
"a. c #0B47A6",
"s. c #0144B4",
"d. c #0045BB",
"f. c #0849B9",
"g. c #1551B2",
"h. c #2B5EB1",
"j. c #3666B3",
"k. c #54678F",
"l. c #6C718A",
"z. c #5B699E",
"x. c #0047C2",
"c. c #0049CC",
"v. c #0349C6",
"b. c #004CD3",
"n. c #004ED8",
"m. c #0354DB",
"M. c #1C5CC0",
"N. c #005BE7",
"B. c #1464DC",
"V. c #4C7DC8",
"C. c #877E83",
"Z. c #75859B",
"A. c #928E90",
"S. c #A99388",
"D. c #B8948B",
"F. c #A99893",
"G. c #BD9C92",
"H. c #B59C92",
"J. c #B38E85",
"K. c #BAA49B",
"L. c #A6A19E",
"P. c #ADA8AB",
"I. c #9A9DAC",
"U. c #C5988D",
"Y. c #C39C94",
"T. c #C89F97",
"R. c #D69790",
"E. c #EB8581",
"W. c #EB8E89",
"Q. c #E78A85",
"!. c #F18C87",
"~. c #EA928D",
"^. c #E5928D",
"/. c #EC9A95",
"(. c #E99994",
"). c #F29E99",
"_. c #F19792",
"`. c #F1918C",
"'. c #C4A49B",
"]. c #CAA39A",
"[. c #C6A598",
"{. c #D5B08F",
"}. c #EAAC85",
"|. c #F3B48B",
" X c #EBA39D",
".X c #E5A19B",
"XX c #F4A29D",
"oX c #F1B58E",
"OX c #C5ACA3",
"+X c #CCADA3",
"@X c #D6AEA7",
"#X c #CCB3AB",
"$X c #C9B2A7",
"%X c #D2B4AB",
"&X c #D5B7AA",
"*X c #D4BBB3",
"=X c #D9BDB5",
"-X c #D6BFB8",
";X c #CAB8B1",
":X c #E5ABA5",
">X c #EBAAA5",
",X c #EBAAA5",
"<X c #F3A5A1",
"1X c #F2AAA5",
"2X c #F1AEA9",
"3X c #ECB2AD",
"4X c #E5B1AB",
"5X c #F1B2AD",
"6X c #EDB6B1",
"7X c #EDBBB5",
"8X c #E9BCB6",
"9X c #F0BBB5",
"0X c #FBC49C",
"qX c #FAC397",
"wX c #DBC4BC",
"eX c #D7C4BA",
"rX c #D8C6AE",
"tX c #EBC4BD",
"yX c #E2C4BC",
"uX c #F0C3BD",
"iX c #F0CEAC",
"pX c #BCBEC7",
"aX c #C5BFC0",
"sX c #DDCBC3",
"dX c #D9CCC7",
"fX c #DCD1CB",
"gX c #CFCDCE",
"hX c #EDC7C0",
"jX c #E2CCC5",
"kX c #EDCBC4",
"lX c #EBCFC8",
"zX c #F1CBC4",
"xX c #E4D3CC",
"cX c #ECD3CC",
"vX c #E5D3C5",
"bX c #F0D4CD",
"nX c #F0D0C6",
"mX c #E6D7D0",
"MX c #EBDCD4",
"NX c #EDDFD8",
"BX c #E8D8D1",
"VX c #F0DCD5",
"CX c #F1DFD8",
"ZX c #F1D7D0",
"AX c #EFE1DA",
"SX c #F2E4DD",
"DX c #F2E5E0",
"FX c #F6E8E2",
"GX c black",
"HX c black",
"JX c black",
"KX c black",
"LX c black",
"PX c black",
"IX c black",
"UX c black",
/* pixels */
"  x n b n   x n b                                                                                                                                                   ",
"x v b v b b b v b b b                                                                                     x n v b n                                                 ",
"n b n b b b b b l l b b v                                                                         n v b b v v b b b c                                               ",
"x n b b b l l l l l l l b c                                                                 n b b b b b b b b v z b b n                                             ",
"V n b b l l l l l l l l l z M                                                         n b b b l l l l l l l l l l l l l v                                           ",
"N v b b l l l j j j j l l l h f p                                               c v z l l l l l l l l l l l l l l l l l l n                                         ",
"  n b b l l j j j j j j j l j k k g g g d f g g g d d M                     n v b l l l l l l l j j j j j j j j j l l l l b x                                       ",
"  n b l l l j j j j j j j j j k g d g g g d d g g g g h v v v v v v v v b z l l l l l l j j j j j j j j j j j j j j l l l l z v                                     ",
"  x b l l j j F B j S F A j j j k d d d g g s s d d d h z l l b l l l l l l l l l j j j j j j j j j j h j j j j j j j j l l l l z n                                 ",
"  V b b j j S `.E A !.XXE.J m A m d s s d d d d s s d h l l l l l l l l l l j j j j j j j j j j j j j h j j j j j j j j j l l l l l v                               ",
"    v R R v [ <X_.W !.XX>X! T E.W g i i s d d d d d i h l l j j j j j j j j j j j j j j j j j j j j j h j j j j j j j j j j j j j l l z v                           ",
"    c ] ,.W ).<X<XW.E.1XkX:X7XSX Xx C C i i i s s s u h l j j j j j j j j j j j j j j j j j j j j j G Z j j j j j j j z b j j j j j l l b b                         ",
"    V ` )./.<X<X<XXX).6XSXSXZXhXW.D E.Y C Y C a i i u h j j h j j j j j z B j j j j j A F F m j j W _.Q.G b v j j j j G S j j j j j j l l l b c                     ",
"      Z E Q.<X<X<X<X<XzXSXSXSXVX7X_. X^ ~ ) ) Y a i u h b T ! R n j j j A F b j j v W !.XX).' v n E.XX(.!.` ,.J j j A R S v A j j j j j l l l k s                   ",
"      ] ,.).<X<X<XXX1XZXSXSXSXDXbX6X:X(.) ) ) ) Y u u j S _.2X!.m j j j F /.A j n ` XX<XXXXX).T v ` XX~.XX1X3X).W v W [ G S W A j j j j j j j k g s                 ",
"      .X1X9X1XXX<XXX1XVXSXSXSXSXnXkX8X(.) ) ) ) ^ K p h S /.bX3XR v k k T 7XS k E cXhX<XW._.XX_.' ] ).~.1XbXcX1X).` ] bX,.W (.!.A h A F F A j g g g s               ",
"      R.5XCX9X1XzX5X<XkXSXSXSXcX3XkX8X(.) / ) / _ ~ N D G ! .XVXbXQ.x S ~.8Xx k W 6XkX(.` ).XXXXXXXXXX(.kXSXVX3XXX3X] 6XSXtX,X).D D !.XXXX' h d d d g M             ",
"      U.3XSXZXkXSXbX2X8XMXSXSXMX3XZX8X(.) / / / ^ ~ D ' 3X2XtXkXSXlXQ._.hXcX' F W ` ] ^./.XXXXXXXX1X2X:XMXSXSX6X<XcXkXkXSXVX2X5X] ' <XXX] G d s s d k z c           ",
"        :XuXVXSXSXSXcXVXSXSXSXSXMXAX=X@X) / / / ^ I ] ).uXnX6XkXSXSXzX3XVXnXXX!.6XZXVXSX9XXXXX<X9XVXcXjXBXSXSX7X1XVXSXSXSXnX7XSXcX>X`.T v k i i s d h b v           ",
"        wXhXhXNXDXDXSXSXSXSXSXSXSXSXjXjX>./ / / ~ _ <X<X<X5XkXSXSXcX4XtX3X(.] W <XcXMXMXnX<X7XkXMXSXAXBXxXSXSX7X3XSXSXSXSXkXcXSXSXuXW g k d i i s h l l b b x       ",
"        wXSXSXSXDXDXSXSXSXSXSXSXSXSXcXlXU.^ ^ ^ I R.<X6XnXCXSXCX6X X3XVX>X] ' W.XX<X3XcXVX5XVXAXAXSXSXNXfXSXVX2XkXSXSXSXSXcXSXSXSX9XE g k a C a d j j l l b b n     ",
"        *XAXDXDXDXDXSXSXSXSXSXSXSXSXBXlX].-.^ ^ I R.<XkXDXSXSXtX,XnXcXCXW./.E.3X5X6XcXSXSX9XZXAXSXDXDXSXxXcX8X7XSXSXSXSXSXAXSXSXcX1X' f d { ~ Y h j v B v b b b n V ",
"        ].MXDXDXSXSXSXSXSXSXSXSXSXSXBXlX+XT.U.&.Y.=X6XcXDXSXSXVX8X~.kXVX] Q./.tXSXSXSXSXSXbXnXAXSXDXDXDXNXjXlXSXDXDXSXSXSXSXVXhX1XXX^.Z a { Y T z B F S b b b n n   ",
"          xXDXDXSXSXSXSXSXSXSXSXSXSXBXxX%X].T.D.+XsXcXSXSXSXSXVXQ.7XkXtX,.! ` 4XSXSXSXSXSXSXMXAXAXDXDXSXSXBXBXDXDXDXDXSXSXcX5XXXXX X@X( Y ~ / J j ! /.G l b n n     ",
"          wXDXDXSXSXSXSXSXSXSXSXSXSXMXxX%X].U.Y.+XsXAXSXSXSXSXSXlXhX,XtX' ] E >XDXSXSXSXDXDXDXSXAXDXDXSXSXSXxXMXDXDXDXSXVX2XXXXXXX(.>.Y I R./.[ m W.7XF b n c       ",
"          *XSXDXDXSXSXSXSXSXSXSXSXSXSXcX%XT.D.].%XsXAXSXSXSXSXNXtXE.6XhXE ] E :XDXSXSXSXDXDXDXSXAXDXDXDXDXSXSXxXMXSXDXSXcX<XXXXXXX(.R.R.+X=XQ.T F 8XtXF n c         ",
"          +XMXDXDXSXSXSXSXSXSXSXSXSXSXNX%XY.D.T.%XjXAXSXDXDXSXMX] (.cXcX] /.tXcXSXSXSXDXDXDXDXSXNXSXDXDXDXDXSXAXxXNXSXSXSXkX2XXX X&XyXwX=XhX/.W.6XhX/.Z c           ",
"            xXDXDXSXSXSXSXSXSXSXSXSXSXSX=XY.D.D.#XjXSXSXSXSXSXcX4XVXSXVX3X3XVXSXSXSXSXDXDXDXDXSXAXAXDXDXDXDXDXSXAXxXMXMXSXSXcX>X4XxXcX%X@X8XnXSXtXR Z N             ",
"            jXDXDXSXSXDXSXSXSXSXSXSXSXSXwXG.J.Y.%XxXSXSXSXSXSX4X:XSXSXbXtX(.,XSXSXSXSXDXDXDXDXDXSXNXDXDXDXDXDXDXSXxXfXsXSXSXkX>XyXcXxX*XcXSXDXCX/.A c               ",
"            =XSXDXDXSXSXSXSXSXSXSXSXSXSXjXG.Y.].%XxXSXSXSXSXSX3X` (.VXuX~.] tXSXSXSXSXDXDXDXDXDXSXNXSXDXDXDXDXDXAXxXAXsXMXcXtXkXxXBXjXxXDXDXDXVX,XT                 ",
"              NXDXDXSXSXSXSXSXSXSXSXSXSXxXG.].].%XBXSXSXSXSXSXVX(.] 3X/.` 7XVXSXSXSXSXDXDXDXDXDXDXAXAXDXDXDXDXSXBXMXSXBXBXMXSXcXxXMXjXAXDXDXDXMX@X                  ",
"              cXDXDXSXSXSXSXSXSXSXSXSXSXjX'.].Y.*XMXSXSXSXSXSXMXkXnX] E ~.7XVXSXSXSXSXSXDXDXDXDXDXSXNXSXDXDXDXSXxXAXSXMXBXSXAXxXBXBXBXDXDXDXSXyX                    ",
"              wXDXDXSXSXDXSXSXSXSXSXSXSXsX+X].Y.wXMXSXSXSXSXSXSXMX8X XE.4X>XVXSXSXSXSXSXSXDXDXDXDXDXSXAXSXSXSXBXBXSXSXSXxXSXAXxXNXBXSXDXDXSXjX                      ",
"              %XSXDXDXSXDXSXSXSXSXSXSXSXsX+XY.Y.=XMXSXSXSXSXSXcX^.4X X/.] ' VXSXSXMXMXSXSXSXSXSXSXDXSXNXAXSXMXxXSXSXSXSXxXAXNXBXSXAXDXDXSXcX                        ",
"                BXDXDXSXSXSXSXSXSXSXSXSXxX+XY.Y.wXAXSXSXSXSXSX X' bXQ. X7X) cXSXSXBXwXxXSXSXSXSXSXSXSXSXBXMXxXSXSXSXSXSXBXMXMXBXSXDXDXDXMX                          ",
"                eXDXDXDXSXSXAXSXSXSXSXSXMX+XY.'.wXAXSXSXSXSXSX8XkXSX:XtXSXMXSXSXSXSXjX%XjXAXSXSXSXSXSXSXxXsXsXSXSXSXSXSXMXBXMXMXSXDXDXSX=X                          ",
"                OXAXDXDXSXMXxXSXSXSXSXSXNX'.Y.].wXSXSXSXSXDXSXbXuXVXAXcXhXZXSXSXSXSXSXwX%XsXSXSXSXSXSXSXxXwXxXAXSXSXSXSXAXBXMXSXDXDXDXvX                            ",
"                  mXDXDXDXMXsXSXSXSXSXSXAX'.Y.].wXSXSXSXSXSXSXSXtXW.E.` E.VXSXSXSXSXSXBX%X*XAXSXSXSXSXSXjX=XMXMXSXSXSXSXSXxXNXSXDXDXMX+X                            ",
"                  eXDXDXDXMXwXSXSXSXSXSXSXOXY.].sXSXSXSXSXSXSXbX] Q.~.,XE.bXSXSXSXSXSXSXwX#XmXSXSXSXSXSXwX#XMXMXMXSXSXSXSXBXNXDXDXSXyX                              ",
"                  OXNXDXDXMX*XMXDXDXSXSXSX#XG.].sXSXSXSXSXSXSX XT W.(.^.` cXSXSXSXSXSXSXxX%XsXSXSXSXSXSX=X#XNXSXMXNXSXSXSXMXMXDXSXwX                                ",
"                    xXDXDXMX%XsXSXDXSXSXSX=XD.].sXSXSXDXSXSXSX_.[  X(.W.` hXSXSXMXSXSXSXSX=X*XSXSXSXSXNX%X*XSXSXSXMXSXSXSXSXSXSXwX                    -.3.          ",
"                    dXSXDXAX*XeXSXDXSXSXSXwXJ.'.jXSXSXSXSXSXSXE.E E.~./.~.8XSXSXMXxXMXSXSXjX$XMXSXSXSXBX%XsXSXSXSXSXMXSXDXDXAXwXY.                    :.-.:.        ",
"                      MXDXSX=X;XSXSXDXSXSXxXD.G.jXSXSXSXSXSXVX' ` W.,.` ,.7XSXSXSXMXxXBXSXMX#XBXSXSXSXxX%XxXSXSXSXSXAXNXSXMXwX'.                  :.}.}.:.-.        ",
"                      xXDXSX=X$XAXSXSXSXSXcX[.Y.sXMXMXSXSXSXSX] `  X3X X7XSXSXSXSXSXMXxXAXSXeXxXSXSXMXxX%XMXSXSXSXSXDXNXxX=X'.              y.u.;.0X0X|.:.:.        ",
"                        MXSXwXOXMXSXSXSXSXMX+XD.sXBXNXSXSXSX4X]  XhXzX,XQ.SXSXSXSXSXSXBXxXSXjXsXSXMXBXsX*XSXSXSXSXDXSXxX*X[.              r.s.d.L.0X0XoX}.3.        ",
"                        fXSXwX'.xXDXSXSXSXSX%XJ.=XsXAXSXSXcX:X] ] 8XkX3X] MXSXSXSXSXSXSXxXAXBXsXSXMXBXwXsXSXSXSXSXSXxX=X].              u.g.x.c.z.0X0XoX>.          ",
"                          BXwX'.sXDXSXSXSXSX=XD.'.sXSXSXSXAXcX7X] ] kX7X] jXSXSXSXSXSXSXBXMXAXfXSXMXxX=XmXSXSXSXSXxX=X'.            r.i.a.j.v.b.z.oX:.              ",
"                          sXjX+X*XDXSXSXSXSXwXD.D.fXSXSXSXSXSXtX,.] VX:X4XAXSXSXSXSXSXSXAXBXSXxXSXMXwX*XSXSXSXSXjX=X%X        r.w.a.d.c.b.M.h.e.q }.>.              ",
"                            wX%X#XAXDXSXSXSXjXY.J.BXSXSXSXSXSXyX8X8XVXjXMXSXBXxXBXSXSXSXSXBXNXxXSXMX*XsXSXSXNXjX=X%X      q.i.s.g.h.b.m.m.r., -                     ",
"                            OX%X+XMXDXSXSXSXxXY.K.SXSXSXSXMXxXVXcXhXtX8X7XnXSXNXxXxXBXMXSXNXMXxXSXcX$XMXSXBXwX*X%XY.    w.i.s.v.c.V.m.N.i.- +                       ",
"                              '.+XsXDXDXSXSXcX'.#XSXSXSXxXxXkXQ.Q.(.>X~.T ` nXSXAXxXsXfXSXSXMXxXSXsXeXSXxX=X*X%XU.    3 0.s.v.n.b.u.y.3 -                           ",
"                                '.*XSXDXDXSXBXG.*XSXSXxXjXSX] E ' E.SX] !.~.(.SXAXAXBXxXBXSXMXxXSXeXxXjX*X+X+XU.  3 7.0.d.c.n.b.3 - + +                             ",
"                                G.OXMXSXDXDXjXD.wXMXeXxXSX6XD ~.E D Q.T ' ] ` SXSXSXSXNXxXNXBXxXjX#X%X+X'.eX#Xw 8.9.i.d.x.n.b.8.+ #                                 ",
"                                  H.wXmXSXDXwXJ.%X#XxXSXSX X` /..X:XtX9X2X X>XSXSXSXSXSXMXfXBXsXOX'.].'.$XSXMXk.9.i.d.x.p.d.3 +                                     ",
"                                    OXwXMXSX*XJ.'.xXSXSXSXSXSXFXgXP.SXSXFXFXSXSXSXSXSXSXSXBXsX$XY.].[.G.mXDXFXI.e.d.c.r.> > +                                       ",
"                                      +XsXMX+XJ.sXDXSXSXSXxXBXSXgX8 P.xXBXdXL.MXmXSXSXSXSXBXeXH.G.Y.OXsXDXDXFXgXg.c.s.; @                                           ",
"                                      S.OXxX'.K.SXSXSXSXxXjXsXjXL.> 8 fXaXq q BXfXMXSXSXSXMXxXwX*XwXsXSXDXDXDXAXj.p.> O                                             ",
"                                        D.*X'.sXDXAXSXMXeX{.&XBX=.y > A.q ; l.xXxXxXSXMXxXxXsXMXNXfXAXDXDXSXDXFXZ.> O                                               ",
"                                        &.+XOXAXDXxXwXwXOX..%.6.$.| - = | , P.yXsXsXMXxXMXAXsXAXxXNXDXDXDXSXDXFXL.O                                                 ",
"                                          '.eXDXSXBXG.H.;X5.+.o.o.o.| O. .*.4.4.BX*XMXSXSXxXxXSXSXSXSXDXDXDXSXSX;X                                                  ",
"                                          D.sXAXSXAXG.&.rX4.+.+.@.+.o.+.o.o.+.5.vXwXBXSXSXjXNXSXSXSXSXDXAXxXmXAXeX                                                  ",
"                                          K.xX*XsXSX$X*.%.O.+.+.+.+.+.+.+.+.+.%.5.wXjXSXAXsXSXSXSXDXDXMX*X*XxXwX                                                    ",
"                                          dXDXBX$XjX*X[...@.+.+.+.+.@.@.+.+.+.@.$.5.{.SXMXxXSXSXSXDXMX%XG.#X#XD.                                                    ",
"                                          MXFXFXxX*X+X=.4.o.+.+.+.+.@.@.+.+.+.+.o.4.rXMXxXxXSXSXSXNX*XG.'.H.&.                                                      ",
"                                          MXsXBXSXjX&X=.o.+.@.#.#.@.+.+.@.@.@.+.o.%.1.jXsXsXFXDXAXwXD.P 9 <                                                         ",
"                                        q dX;XOXsXAX{...@.#.6.$.#.+.+.@.@.#.#.#.O.1.yXDXsX*XNXxX=XF.1 , 2 8.0.y.                                                    ",
"                                        l.fXSXmX&X1.O.O. .O. .} O.@.o.o. . .O.O.o.4.rXBXwX+X*X#XS.1 2 7.7.0.p.t.                                                    ",
"                                      8 pXMXSXSX;.} ..*.H = 9 L.|  .H  .| * * H } X.=.@X+XK.F.r 1 2 7.7.9.e.i.                                                      ",
"                                    4 z.AXDXDXwX;.{.eXOX0 & t Z.l.= r r } = $ $ F.&X&.&.w # X ; 8.7.9.9.e.p.8.                                                      ",
"                                    w.I.FXDXDXxXMXMXK.K.P.0 :.P q w r q 9 H & 1 K.P.7 + X X o 7.8.9.0.i.p.p.3                                                       ",
"                                  y.t.gXFXDXDXDXDXAX'.J.sXw L {.J.}.}.;.G.;.# $ K.S.        , 7.8.i.p.s.d.d.i.                                                      ",
"                                  0.h.MXFXDXDXDXDXSX#X&.K.A.& }.oX0X|.oXoX:.    [.          O o 7.d.d.x.x.v.p.                                                      ",
"                                  0.j.dXfXmXAXFXDXAX*Xr 6 A.% L oX{.}.oXoX      &.            O 9.x.x.c.c.b.9.                                                      ",
"                                r.e.w.6 1 7 w A.dXBX=XP X w % & 2.{.{.}.                      O 3 x.c.c.c.s.>                                                       ",
"                                i.i.0.4 ; 2 ; ; 1 t F.P . % %     2.:.                          o 3 8.3 3 > +                                                       ",
"                              w.i.i.i.0.7.0.0.9.8.; $ $ . . %                                     @ o o o 7                                                         ",
"                          t.r.9.p.p.p.0.0.0.7.8.8.3 X . . .             L L                         r Z.A.L.                                                        ",
"                          f.d.d.d.d.d.p.i.p.t.t.9.0.3 , $ .             L *.*                         gXgXeX                                                        ",
"                          v.n.b.n.n.n.e.7.b.h.v.d.d.s.r.8 4 4   4 q &.2.Q H -.                        fXmXdX                                                        ",
"                          g.N.N.N.N.N.i.; a.M.m.n.c.h.g.p.p.0.3 8 [.0X0X|.-.>.                        L.gXL.                                                        ",
"                            a.m.N.N.N.r.o o > p.n.m.V.v.x.s.9.3 k.oX0XoX|.|.>.                      1 5 q 5 1                                                       ",
"                            # > 3 a.2 o o o O - 2 2 8 s.c.d.7.8.l.0X0X|.|.|.2.                        X : <                                                         ",
"                                + - + o @ +         O , 8.i.2 3 l.0XoX|.|.|.2.Q                       X X X                                                         ",
"                                                        O , o , 1 0 I &.>.2.3.                        < : < 5                                                       ",
"                                                                # 6 9 6 6 L                           < : : 5                                                       ",
"                                                              0 P F.w 9 r 9                           < : : 5                                                       ",
"                                                              L   H.w r K.&.0                         < : : 5 5                                                     ",
"                                                                  L.w A.    0                         5 5 q k.l.e                                                   ",
"                                                                  P.C.S.                              0 &.}.}.2.Q                                                   ",
"                                                                  ;XP.                                  &.I ^ L 0                                                   ",
"                                                                  F.K.                                  6 6 6 6                                                     ",
"                                                                  A.&.                                                                                              ",
"                                                                  S.                                                                                                "
};
