/* XPM */
static char *_dee9ba828d948fcdd1831683750095bIAt6Fn3CIQZyxXwi_113[] = {
/* columns rows colors chars-per-pixel */
"80 94 256 2 ",
"   c None",
".  c #121217",
"X  c #141C2A",
"o  c #062A35",
"O  c #182A33",
"+  c #183337",
"@  c #112A30",
"#  c #34383B",
"$  c #292C33",
"%  c #302A20",
"&  c #4E3B35",
"*  c #50381A",
"=  c #6A5B28",
"-  c #143444",
";  c #042A55",
":  c #1C2754",
">  c #043257",
",  c #0E314C",
"<  c #232956",
"1  c #2F354E",
"2  c #043568",
"3  c #013777",
"4  c #0D326C",
"5  c #2E376A",
"6  c #463C4E",
"7  c #39494C",
"8  c #2A4B78",
"9  c #554E54",
"0  c #674F50",
"q  c #716659",
"w  c #4B5470",
"e  c #655963",
"r  c #75586D",
"t  c #4E6376",
"y  c #736C6F",
"u  c #2B4636",
"i  c #D90809",
"p  c #D51917",
"a  c #E30203",
"s  c #EC0203",
"d  c #E70B0B",
"f  c #F30303",
"g  c #FD0D0B",
"h  c #F50A09",
"j  c #FD110E",
"k  c #F4100F",
"l  c #EA1916",
"z  c #F41613",
"x  c #FB1311",
"c  c #F41B18",
"v  c #EA100F",
"b  c #F6201E",
"n  c #EB211D",
"m  c #CF2B29",
"M  c #EA2928",
"N  c #F42827",
"B  c #EC3735",
"V  c #F33937",
"C  c #F4302E",
"Z  c #DF211D",
"A  c #A35929",
"S  c #DD413E",
"D  c #E5413F",
"F  c #B94D46",
"G  c #8D6D53",
"H  c #877470",
"J  c #B87A69",
"K  c #975E56",
"L  c #D6514E",
"P  c #DB5451",
"I  c #D55653",
"U  c #C9514C",
"Y  c #EA4A47",
"T  c #F24B48",
"R  c #F1504E",
"E  c #E75855",
"W  c #F25C59",
"Q  c #F35754",
"!  c #E9514D",
"~  c #CB7155",
"^  c #F0615E",
"/  c #D87773",
"(  c #C76C67",
")  c #E76966",
"_  c #F36A66",
"`  c #E8716E",
"'  c #F3716E",
"]  c #E97A76",
"[  c #F57572",
"{  c #F67975",
"}  c #F47C7A",
"|  c #B18A24",
" . c #A7961B",
".. c #D1B310",
"X. c #E3B90A",
"o. c #D4AF36",
"O. c #C48B22",
"+. c #F2DB07",
"@. c #ECD30D",
"#. c #FAE501",
"$. c #FDEA01",
"%. c #FAE709",
"&. c #FAEA1A",
"*. c #E9D02B",
"=. c #F6E72C",
"-. c #DDC423",
";. c #AE8A72",
":. c #A6905B",
">. c #CDAD4F",
",. c #CA8869",
"<. c #CA837D",
"1. c #C69678",
"2. c #DA9A76",
"3. c #D58B6A",
"4. c #EA817E",
"5. c #ED907B",
"6. c #DAAC74",
"7. c #E5A178",
"8. c #CE835D",
"9. c #DDC553",
"0. c #E3CD51",
"q. c #E7D16F",
"w. c #013A8C",
"e. c #033984",
"r. c #013C94",
"t. c #013E9B",
"y. c #173F87",
"u. c #013FA1",
"i. c #08429B",
"p. c #184896",
"a. c #13428D",
"s. c #264B8A",
"d. c #0241A5",
"f. c #0142AC",
"g. c #0B47A7",
"h. c #0044B5",
"j. c #0045BB",
"k. c #0849B8",
"l. c #1351B2",
"z. c #2B5EB1",
"x. c #3666B3",
"c. c #54678F",
"v. c #6B728A",
"b. c #5B689E",
"n. c #0047C3",
"m. c #0049CC",
"M. c #054AC5",
"N. c #004CD4",
"B. c #004ED9",
"V. c #0354DB",
"C. c #1C5CC1",
"Z. c #005AE7",
"A. c #0165EC",
"S. c #2965C6",
"D. c #4B7CC7",
"F. c #867E83",
"G. c #75869B",
"H. c #928E90",
"J. c #AA948A",
"K. c #B8958B",
"L. c #BD9D93",
"P. c #B49C93",
"I. c #AC938B",
"U. c #B9A49B",
"Y. c #A6A19E",
"T. c #A59FA4",
"R. c #AEAAAB",
"E. c #8E9CB7",
"W. c #C39C93",
"Q. c #CD9D96",
"!. c #C8958C",
"~. c #EB8481",
"^. c #EB8985",
"/. c #ED8E8A",
"(. c #E58883",
"). c #F18986",
"_. c #EC928D",
"`. c #E6918C",
"'. c #EB9591",
"]. c #EC9A95",
"[. c #EC9E99",
"{. c #E69894",
"}. c #F19792",
"|. c #F1928E",
" X c #C4A59B",
".X c #CAA49B",
"XX c #C5A498",
"oX c #D1B799",
"OX c #D6AA8E",
"+X c #E8AC85",
"@X c #F3B48B",
"#X c #EBA29D",
"$X c #E5A49D",
"%X c #F8BC93",
"&X c #EEAD8E",
"*X c #C5ACA3",
"=X c #CDADA3",
"-X c #CDB3AB",
";X c #CAB1A7",
":X c #D2B4AB",
">X c #D6B7AB",
",X c #D4BCB4",
"<X c #D9BEB5",
"1X c #D6BFB8",
"2X c #CEB3AC",
"3X c #EBABA5",
"4X c #EAAAA5",
"5X c #F0ABA6",
"6X c #ECB2AC",
"7X c #E3B1AB",
"8X c #ECBAB4",
"9X c #ECBFB9",
"0X c #E8B8B2",
"qX c #F0BAB2",
"wX c #FBC49C",
"eX c #FBC499",
"rX c #DBC4BC",
"tX c #D8C4B9",
"yX c #D6C6AD",
"uX c #ECC3BC",
"iX c #E4C6BC",
"pX c #ECCCB3",
"aX c #BCBEC6",
"sX c #C5BFC0",
"dX c #DDCAC3",
"fX c #D9CBC6",
"gX c #DCD0CB",
"hX c #CFCDCE",
"jX c #E1CCC4",
"kX c #EDCBC4",
"lX c #E9CBC4",
"zX c #F1CDC7",
"xX c #E4D3CC",
"cX c #ECD4CD",
"vX c #E5D4C6",
"bX c #F0D3CC",
"nX c #E7D7D0",
"mX c #E7D8D1",
"MX c #EBDBD4",
"NX c #EEDFD8",
"BX c #EAD8D1",
"VX c #F0DCD5",
"CX c #F0DCD5",
"ZX c #EFE1DA",
"AX c #F2E4DD",
"SX c #F2E5E0",
"DX c #F6E8E2",
"FX c black",
"GX c black",
"HX c black",
"JX c black",
"KX c black",
"LX c black",
"PX c black",
"IX c black",
"UX c black",
/* pixels */
"            c                                                                                                                                                   ",
"            c c x                                                                                                                                               ",
"    l z x   l c x x x                                                                                                                                           ",
"  l z x x x x z x j x x                                                                           c z x x x c l   z l                                           ",
"  c x x x x j j j j j x z                                                                     z z x x x j x x z x x x z                                         ",
"l x x x x j j g g g j j j v                                                               x x x j j j j j j j j j j j x                                         ",
"l x x x x j j g g g g j j k v                                                       z x x j j j j j j j j j g j j j j j z                                       ",
"l x x x j j g z g g g g g j h v d a s s s d                                     z x j j j j j j g g g g g g g g g j j j x                                       ",
"  z x x j g b W N x c g g g g h h s f f f f i i         l z z z z z z       z x j j j g g g g g g g g g g g g g g g g g j z                                     ",
"  l x x g k T { R C _ R c k g h h s s s f f s i i i d v k j j x j x x k x x j j g g g g g g g g g g g g g g g g g g g g g k k                                   ",
"  Z z V N N ' { ' R ' { _ R c N z s a s s s s s s s a h j j j j j j j j j j g g g g g g g g g g g g g x g g g g g g g g g j j j k                               ",
"    n _ R W } { { _ _ } 4X' B ).W f i p i a i d s s a v j j g g g g g g g g g g g g g g g g g g g g C W N g g g g g g g g g g g g j                             ",
"    n W ' [ } { { { [ [.cX8X4XbX'.M Y L p S Y S i a i v j g g g g g g g g g g g g g g g x c c g g b _ [ R j g g g g g g g g g g g g j k                         ",
"    Z N Y ' { { { { } kXAXAXxXVX8X_ ` ) L E E E B i i h g z c k g g g g x b g g g g k C W ' _ C h N ' [ _ Q C j g g g C N g g g g g g j j                       ",
"      _ ' { { { [ [ ).CXAXAXAXSXzX~./ ` I P P E P m i h z Q _ R z g g g c T z g g z T [ { { { _ M N E [ ' { [ Q b g N ' T x N g g g g g j j k                   ",
"      ] /.[.{ } }.{ |.AXAXAXAXAXkX4X$X` I P P P I U p h N ' }.^.b g g h B _.N g z ) /.} ' ' { [ ' ' [ [ _ }.#X} _ V W { R C _ b g g g g j x g f                 ",
"      ] 5XVX/.].MX[.~.uXAXAXAXlX[.6X>X/ I P P P I U M c c 4.zX6XT z h h R 6XN h ! cXVX5XE _ { { { [ [ ' (.CXCX_.[ /.6X#X' E '._ C g b T W ^ V f s s             ",
"      / 4XAXuXcXSXbX#X0XZXAXAXkX/.kX>X/ I L L L U F B R ` /.9XMXzX^.B T /.9XV z W ].5X6X~.[ { [ [ 4./.4.0XAXAX6X[ 4XAXbXkX8X4X{ W c W { { ^ M s s s s           ",
"      <./.6XcXAXSXAXAXAXAXAXAXAXcXAX:XQ.( L L L U F W [ 6XzX8X8XAXMX'.{ 8XkX[ W [.zXzXVXzX} { ^.[.zXcX7XxXAXAXuX} 5XAXAXAXAX4X'.8X(.[ ' V v f a s s h k         ",
"        uX6XuXAXSXAXAXAXAXAXAXAXAXAX1XrX!.U L L U U { [ 4./.'.cXAXbX`.[.9X#XW T _.MXAXMXNX|./.cXBXAXAXMXMXNXAXkX} 6XAXAXAXNX#XkXAXVX|.T s f s a s s g x z       ",
"        xXSXAXSXSXAXAXAXAXAXAXAXAXAXjXrX.XJ U U F ( ] /.#X8XMXVX9X8X7XMX8X[.E W { '.#X0XAX3X].AXMXAXAXAXNXMXAX9X~.kXAXAXAXMX8XAXAXNX}.T s s i i s h g j z       ",
"        rXAXSXSXAXAXAXAXAXAXAXAXAXAXBXrX=XW.J ( J <.] 0XAXAXAXMXkX8XcXAX4X#X].~.4.~.#XcXAXcX[.CXMXAXSXAXAXBXlX`.4XAXAXAXAXMXMXAXAXuX4.E s a m m v g g j x z     ",
"        ,XZXSXSXAXAXAXAXAXAXAXAXAXAXMXrX=X.X.XK.=X:X{.kXAXAXAXAX6X6XCXMX#X_.].6XcXbXAXAXAXAXkXcXMXAXSXSXAXMXjXlXNXSXSXSXAXAXAXMX8X~.[ ) l i m ! c g x c z x z   ",
"          BXSXSXAXAXAXAXAXAXAXAXAXAXMXrX=X.XW.W.:X,XiXAXAXAXAXAXuXCX9XcX4X'.^.#XAXAXAXAXAXSXAXAXMXZXSXSXAXAXMXMXAXSXSXSXAXAXkX_.{ [ ` <.I F m D x b R V x x x l ",
"          jXSXSXAXAXAXAXAXAXAXAXAXAXAXjX=X.XW..X:X,XNXAXAXAXAXAXZX9X6XuX~.] ) ] AXAXAXAXSXSXSXAXNXZXSXSXAXAXAXMXMXAXSXSXAXCX/.[ [ [ / !.( <.) R x W _.N j x c   ",
"          rXAXSXSXAXAXAXAXAXAXAXAXAXAXBX=XW.W..X:X,XAXAXSXSXAXVX4X~.6XuX) 4.(.4XAXAXAXAXSXSXSXAXAXNXSXSXSXSXAXAXMXMXAXAXAXcX4.[ [ [ / / !..X` _ N /.uXY x c l   ",
"          rXZXSXSXAXAXAXAXAXAXAXAXAXAXAX:XW.W.W.-X1XAXAXSXSXAXVX`.[.zXMX{.].cXAXAXAXAXAXAXSXSXSXAXBXAXSXSXSXSXAXAXBXBXAXAXAX8X~.[ / <.Q.<XiX`.Y Y 9XuXT z l     ",
"            MXSXSXAXSXAXAXAXAXAXAXAXAXAX<XW.L.W.=XrXAXAXAXAXAXuX{.CXAXcX[./.6XAXAXAXAXAXAXSXSXSXAXMXZXSXSXSXSXSXAXAXxXnXBXAXAX9X] !.<XjXrX7X_.'.uXuX/.M l       ",
"            xXSXSXAXAXSXAXAXAXAXAXAXAXAXrXL.K..X-XjXAXAXAXAXAX0X{.kXMXuX#X4.`.MXAXAXAXAXSXSXSXSXSXNXMXSXSXSXSXSXAXZXBXMXxXAXAX8X4.=XjXrX=X6XuXNXuXR M Z         ",
"            dXSXSXAXAXSXAXAXAXAXAXAXAXAXjXW..X.X:XxXAXAXAXAXAXcX] ) kXqX) ~.zXAXAXAXAXAXSXSXSXSXSXAXMXAXSXSXSXAXAXMXMXAXBXMXiX4X7XrXxXjXBXAXSXAX_.C l           ",
"            ,XAXSXAXAXAXAXAXAXAXAXAXAXAXjXXX.XW.:XcXAXAXAXAXAXcX'._.[.^.! _.9XAXAXAXAXAXSXSXSXSXSXSXNXMXSXSXSXAXAXmXAXAXMXMXMXMXjXjXcXxXAXSXSXNX'.P             ",
"            =XNXSXSXAXAXAXAXAXAXAXAXAXAXdX.X.XW.,XBXAXAXAXAXAXcXlXuX[.) ].].kXAXAXAXAXAXSXSXSXSXSXSXAXmXZXSXSXAXBXMXAXAXNXMXAXMXrXxXBXZXSXSXSXAX>X              ",
"              xXSXSXAXAXAXAXAXAXAXAXAXAXdX=XW.W.<XMXAXAXAXAXAXAXkX$XuX] ~.] kXAXAXAXAXAXAXAXSXSXSXSXSXZXMXAXAXMXBXAXAXAXZXMXAXBXdXMXNXSXSXSXAXtX                ",
"              rXSXSXAXAXSXAXAXAXAXAXAXAXjX=XW.W.:XMXAXAXAXAXAXkX] 8X8X~./.) uXAXAXNXBXAXAXAXAXSXSXSXSXAXMXBXMXBXAXAXAXAXAXMXAXcXxXAXAXSXSXAXiX                  ",
"              ;XAXSXSXAXAXAXAXAXAXAXAXAXxX=XK.W.<XZXAXAXAXAXAX6X`.CX[.#XkX6XcXAXAXAXxXjXMXAXAXSXSXSXSXAXAXxXxXBXAXAXAXAXAXMXAXxXBXSXSXSXAXjX                    ",
"                nXSXSXAXAXAXAXAXAXAXAXAXBX.XW..XrXAXAXAXAXAXAX4X3XAX8XkXcXkXAXAXAXAXNXjXrXBXAXSXSXSXAXAXAXdXrXxXAXAXAXAXAXMXZXxXZXSXSXSXMX                      ",
"                dXSXSXSXAXNXMXAXAXAXAXAXBXL.W..XtXAXAXAXAXAXAXzX3XuXVX8X6XkXAXAXAXAXAXcXrXrXZXSXSXSXSXAXAXrXjXxXMXAXAXAXAXMXMXBXAXSXSXAXtX                      ",
"                -XAXSXSXAXMXnXAXAXAXAXAXBXL..X.XrXAXAXAXAXAXAXAXVX#X] ] #XCXAXAXAXAXAXZXjX,XBXSXSXSXSXAXAX<XdXZXxXAXAXAXAXNXMXNXSXSXAXcX                        ",
"                  nXSXSXSXMXxXAXAXAXAXAXMX*XW..XrXAXAXAXAXAXAXVX`.`.] 6X].zXAXAXAXAXAXAXcX<XdXSXSXSXAXAXMX,XdXAXMXBXAXAXSXAXMXAXSXSXMX:X                        ",
"                  rXSXSXSXMXdXZXSXAXAXAXAX:XW..XrXAXAXAXAXAXAX3XE #X'.$X` kXAXAXAXAXAXAXZXrXrXAXSXSXAXAXcX:XxXAXAXmXMXAXAXAXMXAXSXAXtX                          ",
"                  -XNXSXSXMX,XxXSXSXSXAXAX,XK..XrXAXAXAXAXAXAX3X^.3X#X8X(.9XAXAXxXcXAXAXAXxXrXZXAXAXAXAXjX,XBXAXAXZXmXAXAXAXZXSXAXrX                            ",
"                    xXSXSXMX,XdXAXAXAXAXAXrXK..XjXAXAXAXAXAXAX5X~._.^.[.[.uXAXAXZXjXjXMXAXMXrXMXAXAXAXZXdXrXZXAXAXAXMXMXSXSXSXAXjX                    ,.8.      ",
"                    dXAXSXZX1X1XAXSXAXAXAXdXK.W.jXAXAXAXAXAXVX^.^ /._.4._.8XAXAXAXNXjXrXMXAXdXxXAXAXAXBXdXdXAXAXAXAXAXBXZXAXMXrX=X                    2.,.2.    ",
"                      NXSXZXrX,XAXAXSXAXAXxXK.W.jXZXAXAXAXAXbX) ! 4./.] '.cXAXAXAXAXMXrXxXAXxXdXAXAXBXxXrXxXAXAXAXAXSXZXxXxXrX=X                  2.+X+X2.,.    ",
"                      xXAXZXrX-XZXAXAXAXAXBXW.W.jXMXZXAXAXAXCX4.] 5X6X#X`.AXAXAXAXAXAXcXdXZXBXdXAXAXxXxXrXMXAXAXAXSXSXMXdX<X.X              a.s.!.wXwX@X2.2.    ",
"                        MXZXrX*XMXAXAXAXAXMX.XK.dXmXZXAXAXMX6X` /.6X8X#X) CXAXAXAXAXAXAXdXxXZXdXZXAXjXjXdXAXAXAXAXSXNXxXrX:X              i.h.j.T.wXwX%X+X8.    ",
"                        xXZXrX XxXSXAXAXAXZX:XK.,XxXMXAXAXMXkX[.(.8XkX8X_.xXZXAXAXAXAXAXcXdXAXxXZXAXjX:XxXAXAXAXAXZXxXrX:X              s.l.n.m.b.wXwX@X3.      ",
"                          MXrX XrXSXAXAXAXAX>XK. XdXZXAXAXMXuX4X` ^.kX6X`.cXAXAXAXAXAXAXAXdXMXmXZXAXrX-XBXAXAXAXNXxXjX:X            i.d.g.x.M.N.b.&X2.          ",
"                          xXdX=X,XAXAXAXAXAXrXK.K.dXAXAXAXAXAXlX(.` bX7X4XMXAXAXAXAXAXAXAXxXBXMXZXAX<X,XAXAXAXMXjXjX,X          y.g.j.m.N.S.z.f.t +X3.          ",
"                            rX:X-XZXSXAXAXAXjXW.I.MXAXAXAXAXAXiX8X8XVXlXcXAXMXBXMXAXAXAXAXZXmXBXZXAX-XdXAXAXMXjXjX>XXX        f.l.z.N.Z.V.i., -                 ",
"                            ,X-X*XMXSXAXAXAXjXW.U.AXAXAXAXMXBXMXcXkX9X8XuXcXMXMXBXmXmXMXAXAXnXBXAXMX*XMXAXBXjXrX:XW.      d.h.n.m.D.V.Z.d.- +                   ",
"                               X=XdXSXSXAXAXcXW.-XAXAXAXxXxXlX`.(.{.3X`.Y ) zXAXMXBXgXxXZXAXBXnXAXjX,XZXxXrX<X=XW.      u.h.n.B.N.s.a.3 -                       ",
"                                 X,XSXSXSXAXBXL.,XAXAXxXgXAX` E ` ~.AX] ^._.].SXZXZXBXxXnXAXBXxXAXtXxXjX,X*X XW.    w.t.h.m.B.m.3 - + +                         ",
"                                L.*XMXAXSXSXjXK.rXMXtXxXAX6XB _.W B (.Y ' ] ) AXAXAXAXNXgXMXMXxXvX-X>X=X XtX;Xe e.r.d.j.n.B.N.e.+ #                             ",
"                                  P.dXnXAXSXrXK.:X-XxXAXAX#X) ].$X4XuXqX5X#X4XAXAXAXAXAXMXgXmXdX*XXX.XXX-XZXMXc.r.d.j.j.f.j.3 +                                 ",
"                                    *XrXMXAX>XK. XxXAXAXAXAXAXDXfXR.AXDXDXDXAXAXAXAXAXAXAXmXdX;XW..XXXL.nXSXDXE.u.j.m.t.> > +                                   ",
"                                      *XdXMX=XI.dXSXAXAXAXxXBXAXhX8 R.xXBXfXT.MXnXAXAXAXAXBXtXP.W.W.*XdXSXSXDXhXl.m.h.; @                                       ",
"                                      J.*XxX XU.AXAXAXAXxXvXdXvXY.> 8 gXhXt t mXgXMXAXAXAXMXxXrX,XrXdXAXSXSXSXZXx.f.> O                                         ",
"                                        K.,X XdXSXZXAXMXtXoXoXBX>.u > H.w ; v.xXxXxXAXMXxXxXdXMXNXgXZXSXSXAXSXDXG.> O                                           ",
"                                        ;.=X*XZXSXxXrXrX*Xo.*.q.*. .- =  ., T.pXdXrXMXxXMXZXdXZXxXNXSXSXSXSXSXDXY.O                                             ",
"                                           XtXSXAXBXL.P.-X0.$.+.+.+. .@...:.0.9.mX,XNXAXSXxXxXAXAXAXAXSXSXSXAXAX-X                                              ",
"                                          K.dXZXAXZXL.;.yX0.$.#.#.#.+.$.+.+.#.0.vXrXMXSXAXdXNXAXAXAXAXSXZXxXnXAXtX                                              ",
"                                          U.xX,XdXAX;X:.-.@.$.$.$.$.$.$.$.$.#.@.9.iXvXAXZXdXAXAXAXSXSXMX,X:XxXrX                                                ",
"                                          fXSXmX;XjX,XXXo.#.$.$.$.$.%.%.$.$.$.#.*.9.oXAXMXxXAXAXAXSXMX:XL.-X;XK.                                                ",
"                                          MXDXDXxX,XoX>.9.+.$.$.$.%.%.%.$.$.$.#.+.0.yXMXxXxXSXAXAXNX,XL. XP.;.                                                  ",
"                                          MXdXmXAXdX>X>.+.#.%.&.&.%.$.$.%.%.%.#.+.-.6.jXdXdXSXSXZXrXK.H 9 <                                                     ",
"                                        t gX2X*XdXZXoX-.%.&.=.=.%.$.$.%.&.&.&.&.*.6.iXDXdX,XNXxX<XI.1 ; 2 e.t.a.                                                ",
"                                        v.gXAXxX,X6.@.@.X.X...| X.#.+.+.....X.@.+.0.yXBXrX=X>X:XJ.1 2 w.w.t.d.p.                                                ",
"                                      8 aXMXAXAX1.O.o.:.A = 7 Y.|  .| .. .* * A O.o.>.oX=XU.I.y - 2 w.w.r.u.d.                                                  ",
"                                    4 b.ZXSXSXrX1.OXtX*Xq & t G.v.= y q  .= $ # I.>X;.;.e # X ; e.w.r.r.t.f.e.                                                  ",
"                                    y.E.DXSXSXxXMXMXU.U.R.0 2.H w e y w 9 | & 1 U.R.7 $ X X o w.e.r.t.d.f.f.3                                                   ",
"                                  a.p.hXDXSXSXSXSXZX XI.dXe G +XK.&X+X1.L.1.# $ U.J.        , w.3 d.f.h.j.j.d.                                                  ",
"                                  t.z.MXDXSXSXSXSXAX-X;.U.H.& +X%XwX@X@X@X2.    XX          O o w.h.j.n.n.n.f.                                                  ",
"                                  t.x.fXgXmXZXDXDXZX,XH 6 H.X G %X+XOX%X@X      ;.            O r.n.n.m.m.N.r.                                                  ",
"                                i.u.y.6 # 1 e H.fXMX,XH . e $ & 7.OXOX+X                      O 3 n.m.m.m.h.>                                                   ",
"                                d.d.t.2 ; 2 ; ; 1 e I.H . X X     7.7.                          o 3 e.3 3 > +                                                   ",
"                              y.d.d.d.t.w.t.t.r.e.; $ $ . . .                                     @ o o o 7                                                     ",
"                          p.i.r.f.f.f.t.t.t.w.e.e.3 X . . .             G G                         y G.H.Y.                                                    ",
"                          k.j.j.j.j.j.f.f.f.p.p.r.t.3 , $ .             G :.&                         hXfXtX                                                    ",
"                          M.B.N.B.B.B.u.w.N.z.M.j.j.h.i.8 4 4   4 w ;.7.~ A ,.                        gXmXfX                                                    ",
"                          l.Z.Z.Z.Z.Z.d.; g.C.V.B.m.z.l.f.f.t.3 8 XXwXwX@X,.3.                        T.hXT.                                                    ",
"                            g.N.A.A.Z.i.o o > f.B.V.D.M.n.h.r.3 c.%XwX%X@X@X3.                      1 5 w 5 1                                                   ",
"                            # > 3 h.2 o o o O - 2 2 8 h.m.j.w.w.v.wXwX@X@X@X7.                        O : :                                                     ",
"                                + - , o + +         + , e.u.2 3 v.wX%X@X@X@X7.~                       X X O                                                     ",
"                                                        + , o , 1 0 J ;.3.7.8.                        < : < 5                                                   ",
"                                                                # 6 9 6 6 K                           < : < 5                                                   ",
"                                                              0 H J.e 9 y 9                           < : < 5                                                   ",
"                                                              G   P.e y U.;.0                         1 : : 5 5                                                 ",
"                                                                  Y.e H.    q                         5 5 w c.v.r                                               ",
"                                                                  R.F.J.                              0 ;.&X+X7.~                                               ",
"                                                                  -XR.                                  ;.J ,.K 0                                               ",
"                                                                  Y.U.                                  6 6 6 6                                                 ",
"                                                                  H.;.                                                                                          ",
"                                                                  J.                                                                                            "
};
