/* XPM */
static char *_85c59152a4d4ccce0fc19c7cea1f04a3LQ5iPqnxZn6qCxt_12[] = {
/* columns rows colors chars-per-pixel */
"51 56 256 2 ",
"   c None",
".  c #161418",
"X  c #1D1E33",
"o  c #0A2A39",
"O  c #1E263C",
"+  c #153135",
"@  c #2D3438",
"#  c #5F4E1B",
"$  c #68552B",
"%  c #0D314B",
"&  c #163546",
"*  c #143659",
"=  c #0E2C54",
"-  c #242955",
";  c #2D3452",
":  c #033374",
">  c #073979",
",  c #123A73",
"<  c #3B3D62",
"1  c #24306A",
"2  c #284965",
"3  c #5C5754",
"4  c #4F4654",
"5  c #765C59",
"6  c #6A5A5B",
"7  c #736B49",
"8  c #4D556B",
"9  c #645862",
"0  c #4C6271",
"q  c #726669",
"w  c #7B6F74",
"e  c #62686E",
"r  c #DB0A09",
"t  c #D91918",
"y  c #EB0404",
"u  c #EC0B0B",
"i  c #E30808",
"p  c #F40303",
"a  c #FD0D0B",
"s  c #F90908",
"d  c #FD110E",
"f  c #EE1916",
"g  c #E81917",
"h  c #F51614",
"j  c #FB1411",
"k  c #F21816",
"l  c #F91816",
"z  c #FA1C1A",
"x  c #E9110E",
"c  c #D6211E",
"v  c #CB211E",
"b  c #E3221D",
"n  c #DE2A29",
"m  c #CF2F2D",
"M  c #E52322",
"N  c #EA2220",
"B  c #FA2321",
"V  c #F92D2B",
"C  c #F62A28",
"Z  c #E8302E",
"A  c #F9312F",
"S  c #E13433",
"D  c #FA3432",
"F  c #F43C3A",
"G  c #F73836",
"H  c #8E7232",
"J  c #AC7B2C",
"K  c #CB403D",
"L  c #F4413E",
"P  c #956B50",
"I  c #BF7C5B",
"U  c #83676D",
"Y  c #CC514D",
"T  c #F34D4A",
"R  c #F54542",
"E  c #E95753",
"W  c #F25C59",
"Q  c #EF4E4C",
"!  c #D7605D",
"~  c #C47A75",
"^  c #CC6561",
"/  c #EE6461",
"(  c #EB6E6A",
")  c #E96A66",
"_  c #F06763",
"`  c #EC716D",
"'  c #ED7B77",
"]  c #F07673",
"[  c #F0716D",
"{  c #A69924",
"}  c #BBA123",
"|  c #9D901A",
" . c #F1DA16",
".. c #EED10E",
"X. c #FAE502",
"o. c #FEEB03",
"O. c #F9E508",
"+. c #E7D12B",
"@. c #D7C610",
"#. c #93827D",
"$. c #8B886C",
"%. c #B68776",
"&. c #A6A261",
"*. c #C7865F",
"=. c #D4B14A",
"-. c #D7966D",
";. c #CD8F74",
":. c #EC827E",
">. c #E49F78",
",. c #C8A76D",
"<. c #DFA67F",
"1. c #E8A37A",
"2. c #DFC44E",
"3. c #DFC768",
"4. c #E8D462",
"5. c #043A87",
"6. c #023D95",
"7. c #023E9C",
"8. c #083E93",
"9. c #003FA1",
"0. c #0B4598",
"q. c #13479B",
"w. c #1B4483",
"e. c #2A569C",
"r. c #0340A4",
"t. c #0142AA",
"y. c #0944A3",
"u. c #0145BA",
"i. c #0E48B4",
"p. c #0252BD",
"a. c #1754B8",
"s. c #134AA0",
"d. c #2756A7",
"f. c #70748A",
"g. c #426FBD",
"h. c #014ACB",
"j. c #0349C3",
"k. c #0D55D0",
"l. c #0056E4",
"z. c #847A82",
"x. c #758AA8",
"c. c #918180",
"v. c #A88E86",
"b. c #AC9A8E",
"n. c #B69289",
"m. c #B79E97",
"M. c #A89892",
"N. c #BDA39D",
"B. c #AFA295",
"V. c #969CA5",
"C. c #9FA3AC",
"Z. c #B4AEB2",
"A. c #BAB5B3",
"S. c #C5988C",
"D. c #C29C93",
"F. c #C89A93",
"G. c #DA9994",
"H. c #EA8A85",
"J. c #EA8D89",
"K. c #E88681",
"L. c #EA918D",
"P. c #E4938F",
"I. c #EA9B96",
"U. c #EB9A95",
"Y. c #F28480",
"T. c #DCA785",
"R. c #C5A39A",
"E. c #CAA49B",
"W. c #C7A59B",
"Q. c #D8B69A",
"!. c #D0A889",
"~. c #EBB38C",
"^. c #F2B48B",
"/. c #EAA19C",
"(. c #EDA690",
"). c #C6ABA3",
"_. c #CBACA3",
"`. c #CEA7A0",
"'. c #CDB3AA",
"]. c #D3B5AC",
"[. c #D7B9AD",
"{. c #C8B9B6",
"}. c #D4BBB3",
"|. c #DABEB6",
" X c #D6BFB8",
".X c #D3AAA2",
"XX c #EBAAA4",
"oX c #ECAFA9",
"OX c #E9A8A3",
"+X c #EDB2AC",
"@X c #E4B3AD",
"#X c #ECB7B1",
"$X c #ECBBB5",
"%X c #ECBFB8",
"&X c #F0B9B3",
"*X c #D4C08D",
"=X c #F4C79A",
"-X c #DAC3BB",
";X c #DDC9BA",
":X c #D4C7B6",
">X c #EBC3BC",
",X c #E5C3BC",
"<X c #E0CFA1",
"1X c #A9AFC2",
"2X c #DDCBC3",
"3X c #DBCBC5",
"4X c #DFD2CC",
"5X c #CECAD0",
"6X c #ECC7C0",
"7X c #E2CCC4",
"8X c #EDCAC4",
"9X c #E1CFC8",
"0X c #ECCFC8",
"qX c #F1CBC4",
"wX c #E4D3CC",
"eX c #EBD4CC",
"rX c #E5D6C5",
"tX c #F1D4CD",
"yX c #E5D7D0",
"uX c #EAD7D0",
"iX c #E6D8D2",
"pX c #EBDBD4",
"aX c #EDDFD8",
"sX c #F1DCD5",
"dX c #F1DAD3",
"fX c #EFE0DA",
"gX c #F2E4DD",
"hX c #F2E5E0",
"jX c #F7E9E3",
"kX c black",
"lX c black",
"zX c black",
"xX c black",
"cX c black",
"vX c black",
"bX c black",
"nX c black",
"mX c black",
"MX c black",
"NX c black",
"BX c black",
"VX c black",
"CX c black",
"ZX c black",
"AX c black",
"SX c black",
"DX c black",
"FX c black",
"GX c black",
"HX c black",
"JX c black",
"KX c black",
"LX c black",
"PX c black",
"IX c black",
"UX c black",
/* pixels */
"          g                                                                                           ",
"    f k h j j h g                                                                                     ",
"  f j j j j j j j u r                               f h j h j j j h k f f                             ",
"g j j d j j d d d a p i                       h j j j j j j j d d d d j j j j h                       ",
"  h j d B B j a d a p p y               f h j d d d d d d d d d d a d d d d d d h b                   ",
"  k z z D D V z a a s y p p r r   f h h j d d d d d d a a a a j j a a a a a d d d j f                 ",
"  g V A G G D R R h h y y u f u y d d d d d a a a a a a a a a V B a a a a a a a d d j k               ",
"    C D G D F /.U.:.] M M M N g u a d a a a a a a a a h B z j V V a a a a a a a a d j j x             ",
"    F T L [ W tXpXaX+XY n M M n x a B l a a h j a a z A D D A D D z a a l a a a a d d a p             ",
"    E XXL.tXI.,XhXpXL.G.K c b c t l W / a s F L a T Y.T D D F F / [ j G ' A F a a j d p p r           ",
"    ! L.eXhXgXgXgXsX#X,X~ Y c v n T >X$XE z ( / V %XgX+XR ' +XOX>XpXQ ] qXoXH.C C V h p p y g         ",
"      %XaXhXgXhXgXgXhXpX].S.Y v S T H.6X6X( +X/ F $X0XeX] oXaXgXgXgXJ.L.hXgXU.XX#XT u y y s j j h h f ",
"      iXhXgXgXhXgXgXgXgX[.`.F.;.! oXqXsX8X8XtXI.Q / /.aX6X%XpXgXgXaXP.#XhXgX,XgX%XR i i u a d j j j f ",
"      9XhXgXgXgXgXgXgXgX|.E.E._.[.gXgXgXdXdX8X#X#XdXgXgXgXgXpXgXgXgXaXgXgXgXpXJ.R S t t j a d j j k   ",
"      -XgXgXgXgXgXgXgXgX7XE.E._.pXhXgXgX+X$XL.J.$XhXgXgXgXgXpXfXgXgXgXfXgXhX$XF A Y ~ Z B L l j f     ",
"        fXhXgXgXgXgXgXgXwXE.E._.aXhXhX>X/.8XL.H.sXgXgXgXgXgXaXaXgXgXgXgXfXfXeX_ S Y G.F W :.h k       ",
"        pXhXgXgXgXgXgXgXiXE.F.'.gXgXgX>X/.6X' L.sXgXgXgXgXhXgXpXgXhXgXgXgXfXgXI.^ ].@X/ XXL.b         ",
"        wXhXgXgXgXgXgXgXpXE.S.}.gXgXgX8XI.XX) :.dXgXgXhXhXhXhXpXpXhXgXfXgXgXiXOX.X9X,X8X' Z           ",
"        2XhXgXgXgXgXgXgXpXE.S.-XgXgXgXeXXXoX( H.sXgXgXhXhXhXhXgXpXfXgXgXgXgXgXwX-XfXhXdXE             ",
"          gXgXgXgXgXgXgXaXE.n.-XgXgXgX8X%X6XOX%XgXgXaXgXhXhXhXhXgXwXpXgXgXgXgX9XeXhXhXeX              ",
"          pXhXgXgXgXgXgXfXW.D.7XgXgXgX#X$XeX$X6XgXgXaXpXgXhXhXhXgXwX2XpXgXgXfXwXgXhXpX                ",
"          9XhXgXgXgXgXgXaXW.E.7XgXgXgXdXoXU.+XsXgXgXgXpXaXhXhXhXgXwXpXiXgXgXaXpXhXgX}.                ",
"          -XgXhXfXgXgXgXaX_.E.9XgXgXgXtXOXJ.XXsXgXgXgXaXpXgXhXhXaX9XgXpXfXgXfXgXgXwX                  ",
"            pXhXfXpXgXgXgX].E.9XgXgXgX+XI.XXXXeXgX9XpXgXpXgXgXgXwXwXgXaXpXgXgXhXpX                    ",
"            2XhXaX2XgXgXgX}.R.9XgXgXgXqXoX/.#XsXgXeX}.wXaXaXgXpXwXaXgXgXpXgXhXaX                      ",
"            }.fXfX-XfXgXgX-XD.wXgXgXgXU.( K.J.sXgXgX7X XaXaXgX7XwXgXgXgXaXpXpX].            ;.        ",
"              pXgX}.pXhXhX2XD.wXgXgXgX' ( J.J.gXgXgXaX XpXaXgX|.wXgXgXgXfXwX[.            ~.>.-.      ",
"              4XfX}.wXgXgXwXD.9XaXgXdXK.I.OXI.sXgXgXgX9XwXfXgX].wXgXgXgXiX}.        y.d.Q.=X1.        ",
"                pX}.2XgXgXpXR. XaXgX8XI.OX8XoXfXgXgXgXaX9XfXaX].aXgXgXpX}.        q.a.k.N.^.          ",
"                2X|. XgXgXaXR.).gXgXgX%XK.,X@XaXgXgXgXgXwXaXpX XgXgXiX}.S.    q.u.h.a.0.#.            ",
"                  ].}.fXgXgX_.].gXgXaX0X>X,X>XuXpXpXaXgXpXaX9X2XgXwX].S.  9.u.k.k.j.*                 ",
"                    ).pXhXgX'.2XgXiX6XK.L.OX( /.gXpXwXfXpXpX2XwX|._.n.  6.u.h.q., *                   ",
"                    m.2XgXgX_.-XwXpXJ.( ) H.' K.aXgXaXiXpX2X}._.].m., 7.u.h.0.&                       ",
"                      ).wXaXR.'.pXgX>X>X'.eXtX8XfXgXgXpX2X).R.).aX5Xs.u.6.> &                         ",
"                        '.9XN.wXgXaXyXiXf.C.3XV.4XfXgXgX2X).'.wXhXaXg.7.%                             ",
"                        v._.}.fXaX;X*X<X7 8 e 0 3XwXaXiXwXwXyXgXhXhXx.%                               ",
"                          R.wXfX'.).+. .@.| { &.<X3XaXaXiXaXgXhXhXgXZ.                                ",
"                          N.wXaXW.,. .o.X.X.O.O.4.;XfXpXaXgXgXaX9XwX                                  ",
"                          4XpX-X].=.X.o.o.o.o.o. .3.rXpXfXgXfX}._._.                                  ",
"                          wXpXyXQ.+.O.O.o.o.o.o.O.2.;X9XfXgX X#.e                                     ",
"                          {.-X;X3... .+.X.X. . ...2.rX-X7X].e , 5.6.                                  ",
"                        f.iXaX,.=.J $ $.{ } | # H =.!.m.#.8 : 6.7.8.                                  ",
"                      w.1XjXpX;X'.v.5 z.9 q H # 9 B.3 @ o 5.6.9.t.>                                   ",
"                      e.4XjXhXhX).N.U ;.T.T.!.7 q b.    % > t.u.u.y.                                  ",
"                      e.Z.{.wXgX'.6 3 P ~.~.~.            : j.h.h.5.                                  ",
"                    y.8.* * 2 f.M.@ @   <.T.              % 5.6.> &                                   ",
"                  8.r.t.6.6.5.: O . .                       @ 2 0                                     ",
"                i.u.u.u.t.t.q.7.: O X       P P               A.:X                                    ",
"                  l.l.l.5.q.k.h.a.q.8.> f.~.-.*.              Z.A.                                    ",
"                  0.p.p.= o > t.d.j.t.5.D.=X^.>.              < <                                     ",
"                    & % o +     * > 5., n.~.^.1.              O O                                     ",
"                                      & 4 5 P I               - - ;                                   ",
"                                      5 c.9 w 6               - - 1                                   ",
"                                          w                   < 8 f.U                                 ",
"                                          M.                    %.%.P                                 ",
"                                          b.                      4                                   "
};
