/* XPM */
static char *_85c59152a4d4ccce0fc19c7cea1f04a3LQ5iPqnxZn6qCxt_13[] = {
/* columns rows colors chars-per-pixel */
"51 55 256 2 ",
"   c None",
".  c #15141A",
"X  c #1D1E33",
"o  c #0A2A3A",
"O  c #1E253C",
"+  c #1A3539",
"@  c #313236",
"#  c #624F19",
"$  c #69552B",
"%  c #0C3249",
"&  c #153546",
"*  c #143659",
"=  c #0E2D53",
"-  c #242955",
";  c #2D3353",
":  c #033374",
">  c #073979",
",  c #123A73",
"<  c #3B3C62",
"1  c #242F6A",
"2  c #284965",
"3  c #554E54",
"4  c #765C59",
"5  c #6A5A5B",
"6  c #736B4A",
"7  c #4D556B",
"8  c #645862",
"9  c #4C6271",
"0  c #7B6F74",
"q  c #68676C",
"w  c #BC2F2D",
"e  c #DC0B0A",
"r  c #DD1413",
"t  c #D41818",
"y  c #CB1314",
"u  c #ED0404",
"i  c #EC0B0C",
"p  c #E40909",
"a  c #F40303",
"s  c #FD0D0B",
"d  c #F80A09",
"f  c #FD110E",
"g  c #E21614",
"h  c #ED1A16",
"j  c #E61C1A",
"k  c #EB1918",
"l  c #F51613",
"z  c #FB1412",
"x  c #F21915",
"c  c #FA1D1B",
"v  c #FB1816",
"b  c #E1100F",
"n  c #F8211F",
"m  c #D12A29",
"M  c #E12A28",
"N  c #FA2423",
"B  c #FB2827",
"V  c #F52C2B",
"C  c #FA2B29",
"Z  c #F62624",
"A  c #F33D3A",
"S  c #F53735",
"D  c #E93432",
"F  c #907131",
"G  c #AC7A2B",
"H  c #C4423F",
"J  c #BC4A46",
"K  c #956B51",
"L  c #BF7C5B",
"P  c #83676D",
"I  c #DC4F4B",
"U  c #ED4240",
"Y  c #F24442",
"T  c #F24B48",
"R  c #EB5A58",
"E  c #F25855",
"W  c #E6514E",
"Q  c #C7625E",
"!  c #F0615F",
"~  c #CD736E",
"^  c #EE6360",
"/  c #EB6B67",
"(  c #E8716D",
")  c #EC7D79",
"_  c #ED7874",
"`  c #F06D68",
"'  c #A8991A",
"]  c #B39A25",
"[  c #908F1B",
"{  c #F2DA16",
"}  c #EFD10E",
"|  c #FAE602",
" . c #FEEB03",
".. c #F9E506",
"X. c #FDEC10",
"o. c #EAD626",
"O. c #E8D12E",
"+. c #D6C610",
"@. c #93827D",
"#. c #8B876C",
"$. c #B58775",
"%. c #A6A261",
"&. c #C8865F",
"*. c #D4B04B",
"=. c #D29470",
"-. c #EA837E",
";. c #E49F78",
":. c #C8A76D",
">. c #DEA67E",
",. c #E8A37A",
"<. c #DFC340",
"1. c #DEC666",
"2. c #E8D360",
"3. c #043A87",
"4. c #023D95",
"5. c #023E9C",
"6. c #083E94",
"7. c #033FA0",
"8. c #0B4598",
"9. c #13479B",
"0. c #1B4483",
"q. c #2A569D",
"w. c #0240A4",
"e. c #0142AA",
"r. c #0944A3",
"t. c #0145BA",
"y. c #0D48B4",
"u. c #0253BD",
"i. c #1754B8",
"p. c #134AA0",
"a. c #2656A7",
"s. c #717284",
"d. c #416FBD",
"f. c #6B7EA0",
"g. c #014ACB",
"h. c #0349C3",
"j. c #0C55D0",
"k. c #0056E4",
"l. c #847A82",
"z. c #758AA8",
"x. c #918080",
"c. c #A88E86",
"v. c #BA8D85",
"b. c #AC9A8E",
"n. c #B9948B",
"m. c #B99D96",
"M. c #A89892",
"N. c #BAA39B",
"B. c #969CA5",
"V. c #9FA2AC",
"C. c #B4AEB2",
"Z. c #BAB5B3",
"A. c #C6978A",
"S. c #C39E94",
"D. c #D99792",
"F. c #EA8A85",
"G. c #EB8E89",
"H. c #E78883",
"J. c #EA938E",
"K. c #EB9691",
"L. c #EA9C97",
"P. c #F1918C",
"I. c #CFA78A",
"U. c #DCA785",
"Y. c #C5A39A",
"T. c #CBA49C",
"R. c #C5A59A",
"E. c #D8B69A",
"W. c #EBB38C",
"Q. c #F2B58B",
"!. c #EBA39E",
"~. c #E5A39E",
"^. c #E9AA84",
"/. c #CBACA3",
"(. c #C5AAA2",
"). c #CDB3AA",
"_. c #D1B6AD",
"`. c #D4B9AE",
"'. c #D1B1A7",
"]. c #C8B9B6",
"[. c #D5BBB3",
"{. c #DABDB5",
"}. c #D3ACA4",
"|. c #EBA6A1",
" X c #EBAAA4",
".X c #E5A9A3",
"XX c #ECB2AD",
"oX c #E3B4AE",
"OX c #ECBBB5",
"+X c #EABAB4",
"@X c #F0ADA8",
"#X c #D4C08D",
"$X c #F4C79A",
"%X c #DAC3BB",
"&X c #DDC8BA",
"*X c #D4C7B6",
"=X c #ECC3BD",
"-X c #E1CFA1",
";X c #A9AFC2",
":X c #DCC7C0",
">X c #DDCBC3",
",X c #DBCEC9",
"<X c #DFD1CB",
"1X c #CECAD0",
"2X c #ECC7C1",
"3X c #E2CCC5",
"4X c #ECCAC4",
"5X c #E5CDC6",
"6X c #F1CCC5",
"7X c #E5D3CC",
"8X c #ECD4CD",
"9X c #E6D3C6",
"0X c #F1D2CB",
"qX c #E6D7D0",
"wX c #E6D8D1",
"eX c #EBDCD5",
"rX c #EDDFD8",
"tX c #EAD7D0",
"yX c #F0DBD4",
"uX c #F1DFD8",
"iX c #EFE1DA",
"pX c #F2E5DF",
"aX c #F2E4DD",
"sX c #F2E5E0",
"dX c #F5E8E2",
"fX c black",
"gX c black",
"hX c black",
"jX c black",
"kX c black",
"lX c black",
"zX c black",
"xX c black",
"cX c black",
"vX c black",
"bX c black",
"nX c black",
"mX c black",
"MX c black",
"NX c black",
"BX c black",
"VX c black",
"CX c black",
"ZX c black",
"AX c black",
"SX c black",
"DX c black",
"FX c black",
"GX c black",
"HX c black",
"JX c black",
"KX c black",
"LX c black",
"PX c black",
"IX c black",
"UX c black",
/* pixels */
"    h l z z z l k                                                                                     ",
"  x z z z z z z z b                                   x l l z z z z x h                               ",
"j z z f z z f f z s u e                       x l z z z f z z f f f f z z z z x                       ",
"  l z z N c z f f s a a p                 x z f f f f f f f f f f f f f f f f z h                     ",
"  h c c C B N v s s d u a a p e e h l z z f f f f f f s s s s z v s s s s s f f f z h                 ",
"  h Z B C C B A T l l i i i l i u f f f f f s s s s s s s s s N n s s s s s s f f z z h               ",
"    n B C V S @XL.-._ j j k k k i s f s s s s s s s s v n c l N N s s s s s s s s f z z g             ",
"    D E Y J.R 0XtXeX XI M g g g g s c l s s l z s s c B B B Z B B l s s z s s s s f f s u             ",
"    W XX XaXXX4XsX8XH.D.m t r t r c R ^ s d A Y d T P.E N V U S ! ) z S _ V A s s f f a a e           ",
"    I G.qXsXsXpXpXaX=X3Xv.Q t y t Y =XOXE l / ! V =XsX4XY ) 4X+X4XeXE / 6X XJ.V V c d a a u r         ",
"      4XaXsXpXsXpXpXsXeX_.T.Q w M T ) 2X=X/ XX^ V |.=X8XG.K.eXpXpXpXJ.) pXsXK.!.2XE i u u d z z x h   ",
"      qXsXpXpXpXpXpXpXaX[.T.T.A.Q OX0XaX8X8XyXXXR ^ L.rXyX2XqXaXpXaX~.XXpXpX4XeXXXU b p i f f z z z h ",
"      5XsXpXpXpXpXpXpXpX%XT.T.T.{.pXpXaXyXyX2XXX=XuXpXpXpXpXeXaXpXpXaXpXpXpXyX-.S M m r z s f z z x   ",
"      :XpXpXpXpXpXpXpXpX5XT.T.T.tXsXpXyX X+XJ.F.4XsXpXpXpXpXeXrXpXpXpXaXaXpX8XY n H ~ D n A l z x     ",
"        aXpXpXpXpXpXpXpX8XT.T.(.rXsXsX+X|.8XK.F.yXpXpXpXpXpXiXeXpXpXpXpXaXaXaXG.M J D.A E ) z x       ",
"        eXpXpXpXpXpXpXpXtX/.S.'.aXpXpX4XJ.OX/ F.eXpXpXpXsXsXpXeXaXsXpXaXaXaXaX XQ }.oX^  XF.j         ",
"        7XsXpXpXpXpXpXpXeX/.n.[.pXpXpX4X X X/ _ yXpXpXsXsXsXsXiXtXpXpXaXaXpXeX+X}.3X2X2X) D           ",
"        3XsXpXpXpXpXpXpXeX/.n.{.pXpXpX4X|.XX( F.eXpXpXsXsXsXsXsXeXtXaXaXpXpXpXtX%XiXsXyXR             ",
"          aXpXpXpXpXpXpXeXT.v.%XpXpXpX2X=X8X=X4XaXpXiXaXsXsXsXsXpX7X7XrXpXaXpX7X7XsXsX8X              ",
"          eXsXpXpXpXpXpXaXR.S.3XpXpXpXXXL.4X X+XpXpXaXeXaXsXsXsXpX7X>X7XpXpXaX7XaXsXeX                ",
"          7XsXpXaXpXpXpXeX(.T.3XpXpXpXaXXXH.OXaXpXpXsXrXrXsXsXsXaX7XeX7XaXpXiXtXpXaX                  ",
"          %XaXpXaXaXpXpXeX/.T.7XpXpXpX2X~.L.|.yXpXiXpXaXeXpXsXsXeX7XpXeXeXpXaXaXpX9X                  ",
"            eXsXiXtXpXpXaX_.T.7XpXpXpXOXXX XOX8XpX3X5XaXeXaXpXaX7XeXpXaXtXpXpXsXeX                    ",
"            >XsXiX:XaXpXpX).Y.7XpXpXpX6X!.K.XXuXpXeX`.>XrXiXpX7X7XiXpXpXtXiXsXeX                      ",
"              iXiX%XrXpXpX[.S.7XpXpXpXK./ F.G.uXpXpX7X_.eXiXpX&X7XaXpXpXrXtXeX`.            =.        ",
"              tXaX[.tXsXpX&Xn.7XpXpXaX_ / F.J.uXpXpXaX[.7XiXaX[.>XpXpXpXaX7X`.            ^.;.=.      ",
"              <XiX[.7XpXpX7XS.3XeXpXyXG.L. X!.uXpXpXpX7X:XiXaX`.7XpXpXaXtX[.        r.a.E.$X,.        ",
"                eX[.>XpXpXtXY.[.eXpX4XK.|.4X!.rXpXpXpXrX:XiXeX_.eXpXaXeX[.        9.i.j.N.Q.          ",
"                >X[.%XpXpXeXY.(.aXpXpX+X-.=X.XeXaXpXpXpX7XrXtX[.aXaXqX`.A.    9.t.g.i.8.@.            ",
"                  ).[.aXpXaX/._.pXpXrX8X=X=X=X8XtXeXrXpXtXeX5X>XaX3X'.A.  r.t.j.j.h.*                 ",
"                    /.eXsXpX).:XpXwX2XH.J. X( !.iXwX7XaXtXeX:X7X{./.v.  6.t.g.9., *                   ",
"                    m.>XpXaX/.%X7XeXG.( / F.) H.eXpXrXwXtX>X_./.[.m., 5.t.g.8.&                       ",
"                      (.7XeXY.).eXpX=X=X).8X0X4XiXpXpXeX>X/.Y.(.eX1Xp.h.4.> &                         ",
"                        ).3XN.7XpXiX7XqXs.V.,XB.<XiXpXaX:X(.).7XsXrXd.7.%                             ",
"                        c./.[.iXrX&X#X-X6 7 q 9 ,X7XrXwX7XqXqXpXsXdXz.%                               ",
"                          R.7XiX)./.O.{ +.[ ' %.-X,XeXrXwXrXaXsXsXpXC.                                ",
"                          N.7XeXR.:.o.| | | ....2.&XiXeXeXpXpXrX3X7X                                  ",
"                          <XtX%X_.*.|  . . . . .{ 1.9XtXiXpXiX[.(./.                                  ",
"                          7XtXqXE.O...X. . . . ...<.&X>XiXaX[.@.q                                     ",
"                          ].%X&X1.} { O.| | { { } 1.9X%X3X_.q , 3.5.                                  ",
"                        f.wXeX:.*.G $ #.] ] ' # G *.I.m.@.7 : 4.5.6.                                  ",
"                      0.;XdXtX&X).c.4 l.8 q F $ 8 N.3 @ o 3.4.7.e.>                                   ",
"                      q.<XdXdXsX/.N.0 =.U.U.I.6 q b.    % > e.t.t.r.                                  ",
"                      q.C.].qXdX).5 3 K W.W.W.            : h.g.g.3.                                  ",
"                    r.6.* * 2 s.M.@ @   >.U.              = 3.4.> &                                   ",
"                  6.w.e.4.4.3.: O . .                       + 2 9                                     ",
"                y.t.t.t.e.e.9.5.: O X       K K               Z.*X                                    ",
"                  k.k.k.4.r.j.g.i.9.6.> s.W.;.&.              C.Z.                                    ",
"                  8.u.u.= o > e.a.h.e.3.S.$XQ.;.              < <                                     ",
"                    & % o +     * > 3., n.W.Q.,.              X O                                     ",
"                                      & 3 4 K L               - - ;                                   ",
"                                      4 x.8 0 5               - - 1                                   ",
"                                          0                   < 7 s.P                                 ",
"                                          M.                    $.$.K                                 ",
"                                          b.                      3                                   "
};
