/* XPM */
static char *_85c59152a4d4ccce0fc19c7cea1f04a3LQ5iPqnxZn6qCxt_16[] = {
/* columns rows colors chars-per-pixel */
"49 55 256 2 ",
"   c None",
".  c #151519",
"X  c #1E1F2A",
"o  c #0A2A3A",
"O  c #1E243C",
"+  c #1A3539",
"@  c #313336",
"#  c #5D4D19",
"$  c #5A462C",
"%  c #756429",
"&  c #0D2D4C",
"*  c #0B3249",
"=  c #153446",
"-  c #143659",
";  c #0E2D5A",
":  c #242A55",
">  c #303656",
",  c #043374",
"<  c #083878",
"1  c #113A73",
"2  c #2F3866",
"3  c #154271",
"4  c #324C5F",
"5  c #554E54",
"6  c #6A5A5B",
"7  c #775C59",
"8  c #736B49",
"9  c #455669",
"0  c #5B5270",
"q  c #645962",
"w  c #4C6271",
"e  c #726669",
"r  c #6C6B70",
"t  c #BF1B1B",
"y  c #BD3A38",
"u  c #D40304",
"i  c #DD0001",
"p  c #DD0B0A",
"a  c #CF1313",
"s  c #E30102",
"d  c #EB0203",
"f  c #E80B0A",
"g  c #F20303",
"h  c #FD0D0B",
"j  c #FA0807",
"k  c #FE110E",
"l  c #ED1A16",
"z  c #EA1C18",
"x  c #F51613",
"c  c #FC1311",
"v  c #F21915",
"b  c #F51C1B",
"n  c #FA1A19",
"m  c #F81A17",
"M  c #CB2E2D",
"N  c #F52827",
"B  c #F53331",
"V  c #F53735",
"C  c #E6322F",
"Z  c #8F7232",
"A  c #AA782A",
"S  c #E5433F",
"D  c #956C50",
"F  c #BB6E5B",
"G  c #82676D",
"H  c #BA6662",
"J  c #D05451",
"K  c #EA4845",
"L  c #F34947",
"P  c #E85A58",
"I  c #F25957",
"U  c #F4504D",
"Y  c #ED615F",
"T  c #CF7873",
"R  c #EB6E6B",
"E  c #EB6764",
"W  c #ED7976",
"Q  c #E97B78",
"!  c #EF726E",
"~  c #9E9C21",
"^  c #BFA322",
"/  c #A2921D",
"(  c #F2DC19",
")  c #F1D50B",
"_  c #FAE502",
"`  c #FEEB02",
"'  c #F9E507",
"]  c #FDEC10",
"[  c #F1DC21",
"{  c #E4CE31",
"}  c #D6C610",
"|  c #92827E",
" . c #89866B",
".. c #B68775",
"X. c #A4A163",
"o. c #C8865F",
"O. c #D4AF4B",
"+. c #D08C69",
"@. c #D09476",
"#. c #E9827E",
"$. c #E59F78",
"%. c #C9A86D",
"&. c #DFA67F",
"*. c #E8A37A",
"=. c #DEC242",
"-. c #E0C45C",
";. c #DEC76A",
":. c #E8D364",
">. c #043A86",
",. c #023D95",
"<. c #023E9C",
"1. c #083E94",
"2. c #003FA0",
"3. c #0B4599",
"4. c #14479B",
"5. c #1B4483",
"6. c #29569C",
"7. c #0340A4",
"8. c #0142AA",
"9. c #0944A3",
"0. c #0145BA",
"q. c #0D48B4",
"w. c #0154BD",
"e. c #1754B8",
"r. c #134AA0",
"t. c #2656A7",
"y. c #767783",
"u. c #6C738E",
"i. c #416FBD",
"p. c #014ACB",
"a. c #0349C3",
"s. c #0D55D0",
"d. c #0056E4",
"f. c #847A82",
"g. c #758AA8",
"h. c #A78E86",
"j. c #AC9A8E",
"k. c #BA948A",
"l. c #B79F98",
"z. c #AB948D",
"x. c #BDA39D",
"c. c #AFA398",
"v. c #969CA5",
"b. c #9FA3AC",
"n. c #BAB6B6",
"m. c #B4ADAB",
"M. c #D88F88",
"N. c #C8958D",
"B. c #C39C92",
"V. c #CC9F96",
"C. c #EA8581",
"Z. c #ED8A86",
"A. c #EA8D89",
"S. c #E68682",
"D. c #EB928D",
"F. c #EA9B96",
"G. c #EA9E99",
"H. c #E99793",
"J. c #F19791",
"K. c #CFA68A",
"L. c #DCA786",
"P. c #C5A39A",
"I. c #CBA39A",
"U. c #C8A59A",
"Y. c #D1A39C",
"T. c #D8B69A",
"R. c #EBB38C",
"E. c #F3B289",
"W. c #EDA39E",
"Q. c #EEB289",
"!. c #C6AAA2",
"~. c #CBADA3",
"^. c #CCB3AB",
"/. c #D2B5AC",
"(. c #D2B8AE",
"). c #D1B1A7",
"_. c #C8BBB8",
"`. c #D4BBB3",
"'. c #DABDB5",
"]. c #D6BFB8",
"[. c #D3AEA6",
"{. c #EBABA5",
"}. c #EAABA6",
"|. c #ECB3AE",
" X c #E5B1AC",
".X c #EBBAB4",
"XX c #EBBAB3",
"oX c #F1AEA8",
"OX c #D5C08D",
"+X c #FCC299",
"@X c #E4D29E",
"#X c #DBC3BC",
"$X c #DBC6B9",
"%X c #D4C8B6",
"&X c #ECC3BD",
"*X c #E1C5BB",
"=X c #E1D0A1",
"-X c #A9AFC1",
";X c #DDCAC3",
":X c #DBCBC5",
">X c #D4CDCF",
",X c #E2CBC4",
"<X c #EDCCC5",
"1X c #E2CFC8",
"2X c #ECC9C3",
"3X c #F0C8C2",
"4X c #E4D3CC",
"5X c #EAD4CD",
"6X c #E5D2C7",
"7X c #F1D3CC",
"8X c #E6D7D0",
"9X c #E7D8D2",
"0X c #ECDBD4",
"qX c #EEDFD8",
"wX c #EFD7D1",
"eX c #F1DBD5",
"rX c #F3DFD9",
"tX c #F1D7D1",
"yX c #EFE0DA",
"uX c #F3E3DD",
"iX c #F2E4DE",
"pX c #F3E5E0",
"aX c #F3E5E0",
"sX c #F6E8E2",
"dX c black",
"fX c black",
"gX c black",
"hX c black",
"jX c black",
"kX c black",
"lX c black",
"zX c black",
"xX c black",
"cX c black",
"vX c black",
"bX c black",
"nX c black",
"mX c black",
"MX c black",
"NX c black",
"BX c black",
"VX c black",
"CX c black",
"ZX c black",
"AX c black",
"SX c black",
"DX c black",
"FX c black",
"GX c black",
"HX c black",
"JX c black",
"KX c black",
"LX c black",
"PX c black",
"IX c black",
"UX c black",
/* pixels */
"  v c c c c                                                                                       ",
"x c c c c c c x                                       l v x c c c c v                             ",
"c c k k k k k c f p                             x x c c c c c c k k c c x                         ",
"v c k k k h k k h g d f                   x x c c k k k k k k k k k k k c c l                     ",
"l c k k h h h h h g g g g g d f x x x c c c k k k k h h h h h h h h k k k k c v                   ",
"l c k h h c I U c c d d g g g g h k k k k k h h h h h h h h h h h h h h h k k k x l               ",
"  m n N W L 7XG.Z.R s s d d d d h k h h h h h h h h h h h h h h h h h h h h h k c c l             ",
"  K C.Z.tXF.5XwXqXH.J a i s i u h h k h h c k h h n x h h v c h c h h h h h h h k c h f           ",
"  K G.5XrXeXrXpXwXG. XH J a u u n W ! h j V L h I oXoXB B }.D.W J.N B I b B h h h k j g           ",
"  M.}.eXrXrXuXpXpXiXqX[.Y.T t u B .XXXL h Y I N 3XuXwXD.P 5XwXrXuXA.Y 7XF.W.N L B h d g s         ",
"    qXuXrXrXuXpXpXuXuX'.Y.Y.@.M I Q 5X<XQ 3XW b R H.&XtX|.<XwXaXuXXXE tXiXXXA.rXJ.f d d j x       ",
"    5XiXuXuXuXiXpXuXuX*XI.Y.B.M.7XuXuXiXuXuX2XJ.J..XrXrXuX0X9XpXuXtX5XuXuXwX2XZ.B i i d k c c v l ",
"    1XiXiXpXiXiXiXiXiX,XI.I.B.6XuXuXiX3X.XW.A.}.iXpXuXuXuXyX9XiXuXiXpXiXiXaXG.h f M a h k c c c v ",
"    ,XpXpXpXpXiXpXiXiX6XI.V.P.0XiXpX&XF.3XS.#.tXuXiXuXiXiXiX8XuXuXpXiXiXpXiX|.b a H S n B c c x   ",
"    '.uXpXpXpXiXpXiXiX5XI.B.~.uXpXpX<XF.&XR #.wXpXiXuXiXpXpX0X0XpXpXpXiXuXrXeXP y N.L I C.c x     ",
"      qXpXpXpXiXiXiXiXwXY.k.`.iXpXaX<X{.|.E P 7XpXiXpXpXpXpXiX9XyXpXiXuXrXrX,XT V.XXE W.D.z       ",
"      5XaXpXpXpXiXiXiXqXU.k.#XiXiXaX<XF.&XR Q <XpXiXpXpXpXpXpXuX8XyXiXuXrXrXuX#X#XwX<XW C         ",
"      1XpXpXpXpXiXiXiXqXP.k.#XiXpXpX<X<XrX.X<XuXiXpXpXpXpXpXpXpXyX4X9XiXuXuXuX#XqXaXrXP           ",
"      #XuXpXpXpXpXpXpXyXP.B.,XpXpXpX}.G.rX{.}.uXiXpXpXpXpXpXpXpXiX4X:XqXuXiX9X6XpXaX5X            ",
"        qXpXpXpXiXpXpXqXU.I.,XpXpXpX7XF.C.{.uXiXiXpXpXpXpXpXpXaXqX9X0X0XiXiX5XqXpXqX              ",
"        4XpXpXpXpXpXpX0X~.I.1XpXiXiXtX.XA.|.rXiXuXiXpXpXpXpXpXiX8XqXyX9XiXiXqXpXuX*X              ",
"        #XuXpXpXiXpXpXuX/.I.6XaXiXpX|.}.W.}.<XiX6X6XiXiXpXiXiX0X9XiXiX9XuXiXpXiX6X                ",
"          0XaXuX4XiXpXiX^.I.6XaXpXpXrX7XXX5XuXiXqX/.#XiXiXiX9X1XuXiXiX0XqXpXaXwX                  ",
"          ;XpXuX;XuXpXpX(.P.6XpXpXpX3XQ A.D.uXiXiX6X~.qXpXiX6X;XiXiXiXuX9XaXqX                    ",
"            yXuX#XyXpXaX].B.4XaXpXpXZ.E A.C.uXiXiXuX(.;XpXiX,X`.iXiXpXpXqXqX$X            +.      ",
"            0XuX`.0XpXaX,Xk.6XiXpXiXW R C.#.eXiXiXiX1X`.iXiX#X#XaXiXiXpXqX(.            Q.$.+.    ",
"              yX`.4XaXpX5XP.1X0XiXtXD.{.XX|.uXiXiXiXqX`.yXiX'.1XaXpXpX0X/.        9.t.T.+X*.      ",
"              9X`.;XaXpXwXP.`.qXiX2XD.W.2XF.yXiXiXiXiX#XqXuX`.9XaXpX9X).        4.e.a.x.E.        ",
"                '.#XpXpXqXU.!.uXiXiX&XS.&X XqXuXiXiXiX4XqXqX#XuXpX4X).      4.0.p.e.3...          ",
"                ^.`.uXpXuX~.(.aXiXyX5X&X&X2XwX9X0XqXiX0XqX4X4XuX,X~.    2.0.s.s.a.-               ",
"                  ~.0XaXiX(.;XiX9X2XS.D.}.R {.uX9X4XyX0X0X;X4X`.Y.h.  1.0.p.4.3 -                 ",
"                  l.;XiXuX~.#X4X0XA.R E S.W C.qXiXqX9X0X;X(.~.`.l.1 <.0.p.3.=                     ",
"                    !.6XqXP.^.0XiX&X&X^.5X7X7XyXiXiX0X;X~.P.!.qX>Xr.a.,.< =                       ",
"                      ^.1Xx.4XiXqX4X8Xu.b.>Xv.4XyXiXyX;X!.^.4XaXqXi.2.*                           ",
"                      h.~.`.uXqX$XOX=X8 9 r w :X4XqX9X4X8X8XiXpXaXg.*                             ",
"                        P.4XyX^.~.{ [ } / ~ X.@X:XqXqX9XqXuXpXpXiXm.                              ",
"                        x.4XqXU.%.[ _ _ ` ' ' :.$XyX9XqXiXiXyX1X4X                                ",
"                        :X0X#X(.O._ ` ` ` ` ` ( ;.6X9XyXiXyX`.~.~.                                ",
"                        4X9X8XT.{ ' ] ` ` ` ] _ =.$X1XuXuX`.| r                                   ",
"                        _.#X$X;.) ( { ' ` ) ( ' -.5X#X,X(.q 1 >.<.                                ",
"                      u.9XqX%.O.A %  ./ ^ / # A O.K.l.| 9 , ,.<.1.                                ",
"                    5.-XsX9X$X^.h.7 f.q e Z $ q c.5 @ o >.,.2.8.<                                 ",
"                    6.>XsXaXpX~.x.G @.L.L.K.8 e j.    & < 8.0.0.9.                                ",
"                    6.m._.8XaX^.6 5 D R.R.R.            , a.p.p.>.                                ",
"                  7.1.- - 4 y.j.@ @   &.L.              & ,.,.< =                                 ",
"                1.7.8.,.,.>., O . .                       + 4 w                                   ",
"              q.0.0.0.8.8.4.<., O X       D D               n.%X                                  ",
"                d.d.d.,.3.s.p.e.3.1.< y.R.$.o.              m.n.                                  ",
"                3.w.w.; o < 8.t.a.8.>.B.+XE.$.              > 2                                   ",
"                  = * o +     - < >.1 k.Q.E.*.              O O                                   ",
"                                    = 5 7 D F               : : >                                 ",
"                                    7 | q r 6               : : 2                                 ",
"                                        e                   2 0 y.G                               ",
"                                        j.                    ....D                               ",
"                                        j.                      5                                 "
};
