/* XPM */
static char *_85c59152a4d4ccce0fc19c7cea1f04a3LQ5iPqnxZn6qCxt_17[] = {
/* columns rows colors chars-per-pixel */
"50 55 256 2 ",
"   c None",
".  c #151519",
"X  c #1D1F2A",
"o  c #0A2A3A",
"O  c #1E243C",
"+  c #1A3539",
"@  c #313336",
"#  c #645219",
"$  c #5A462C",
"%  c #716229",
"&  c #0D2D4C",
"*  c #0B324A",
"=  c #153446",
"-  c #143659",
";  c #0E2D5A",
":  c #242A55",
">  c #303656",
",  c #043374",
"<  c #073979",
"1  c #143C7C",
"2  c #0C3667",
"3  c #2F3767",
"4  c #284965",
"5  c #554E54",
"6  c #775C59",
"7  c #6A5A5B",
"8  c #736B49",
"9  c #455669",
"0  c #5C5270",
"q  c #645863",
"w  c #536770",
"e  c #776868",
"r  c #7B6F74",
"t  c #63636D",
"y  c #BF3635",
"u  c #DF0001",
"i  c #D40606",
"p  c #DA1918",
"a  c #E30404",
"s  c #EC0202",
"d  c #EC0C0B",
"f  c #F20203",
"g  c #FD0D0B",
"h  c #F90B0A",
"j  c #FE110E",
"k  c #F41614",
"l  c #FC1412",
"z  c #F31915",
"x  c #F91D1B",
"c  c #EC1A18",
"v  c #ED201C",
"b  c #C92C2B",
"n  c #F42A29",
"m  c #F62523",
"M  c #F3302F",
"N  c #F33836",
"B  c #E83A36",
"V  c #907632",
"C  c #AB7A2B",
"Z  c #CA413E",
"A  c #956B51",
"S  c #BF7C5B",
"D  c #866274",
"F  c #BC5350",
"G  c #DC5754",
"H  c #E64844",
"J  c #F34543",
"K  c #F34C4A",
"L  c #E95C5A",
"P  c #F25855",
"I  c #C87772",
"U  c #EC6864",
"Y  c #EA716D",
"T  c #E0716E",
"R  c #E97572",
"E  c #EA7A76",
"W  c #EA7D7A",
"Q  c #F27D79",
"!  c #F16E69",
"~  c #9C9B22",
"^  c #BFA422",
"/  c #A5941D",
"(  c #F3DD18",
")  c #F1D70B",
"_  c #FEEA02",
"`  c #FAE507",
"'  c #DFC33F",
"]  c #F1DC21",
"[  c #E4CE30",
"{  c #D7C611",
"}  c #93827D",
"|  c #89856B",
" . c #B68876",
".. c #A3A163",
"X. c #C8865F",
"o. c #D3B44C",
"O. c #D7AD48",
"+. c #D08D69",
"@. c #D49A75",
"#. c #EB827E",
"$. c #E7807C",
"%. c #E49F79",
"&. c #C8A86D",
"*. c #DFA67F",
"=. c #E8A37B",
"-. c #DFC358",
";. c #DEC768",
":. c #E9D563",
">. c #043A87",
",. c #023D95",
"<. c #023E9C",
"1. c #083E93",
"2. c #003FA0",
"3. c #0B4599",
"4. c #13479B",
"5. c #1B4483",
"6. c #29569C",
"7. c #0240A4",
"8. c #0643A7",
"9. c #0145BA",
"0. c #0E48B4",
"q. c #0054BD",
"w. c #1754B8",
"e. c #134AA0",
"r. c #2656A7",
"t. c #767783",
"y. c #6C728E",
"u. c #426FBD",
"i. c #014ACB",
"p. c #0349C3",
"a. c #0C55D0",
"s. c #0056E4",
"d. c #847A82",
"f. c #758AA8",
"g. c #918080",
"h. c #AA8E87",
"j. c #AB9A8E",
"k. c #BB968C",
"l. c #B69E97",
"z. c #A89892",
"x. c #BCA29C",
"c. c #AFA298",
"v. c #969CA5",
"b. c #9FA3AC",
"n. c #B4ADB1",
"m. c #B9B4B2",
"M. c #CB8A84",
"N. c #C8968B",
"B. c #D4958F",
"V. c #C59D94",
"C. c #D59992",
"Z. c #D88E89",
"A. c #EB8681",
"S. c #EC8985",
"D. c #EB8E8A",
"F. c #E78985",
"G. c #EB928E",
"H. c #E6918D",
"J. c #EC9A96",
"K. c #EB9E99",
"L. c #E89793",
"P. c #F09691",
"I. c #DCA785",
"U. c #C5A096",
"Y. c #C5A49A",
"T. c #C7A49A",
"R. c #D8B69A",
"E. c #CEAD89",
"W. c #EBB38C",
"Q. c #F3B48C",
"!. c #EDA29D",
"~. c #EDA690",
"^. c #C6ABA2",
"/. c #CBADA3",
"(. c #CDB3AA",
"). c #D2B6AC",
"_. c #D2B6AA",
"`. c #C9B9B6",
"'. c #D4BBB2",
"]. c #D8BFB7",
"[. c #DBAAA3",
"{. c #ECABA5",
"}. c #EDA9A4",
"|. c #ECB4AE",
" X c #E3B4AD",
".X c #ECB6B0",
"XX c #EDBAB4",
"oX c #E7BAB3",
"OX c #F0BAB4",
"+X c #F2B0AA",
"@X c #D5C08D",
"#X c #FCC298",
"$X c #E3D29E",
"%X c #DBC3BB",
"&X c #DBC6B9",
"*X c #D4C7B6",
"=X c #ECC4BD",
"-X c #E2C8BC",
";X c #F1C2BC",
":X c #E1CFA1",
">X c #A9AFC1",
",X c #DDCBC3",
"<X c #DACBC6",
"1X c #D4CDCF",
"2X c #EEC6C0",
"3X c #E2CCC4",
"4X c #EDCBC4",
"5X c #E7CFC8",
"6X c #F1CCC6",
"7X c #F3CFC9",
"8X c #F0C6C0",
"9X c #E4D2CB",
"0X c #ECD4CD",
"qX c #E5D3C6",
"wX c #F2D2CC",
"eX c #E6D7D0",
"rX c #E6D8D1",
"tX c #EBDBD4",
"yX c #EEDFD8",
"uX c #E9D7D0",
"iX c #F1DBD4",
"pX c #F2DFD9",
"aX c #F3D6D1",
"sX c #EFE0DA",
"dX c #F2E4DE",
"fX c #F3E5E0",
"gX c #F7E9E3",
"hX c black",
"jX c black",
"kX c black",
"lX c black",
"zX c black",
"xX c black",
"cX c black",
"vX c black",
"bX c black",
"nX c black",
"mX c black",
"MX c black",
"NX c black",
"BX c black",
"VX c black",
"CX c black",
"ZX c black",
"AX c black",
"SX c black",
"DX c black",
"FX c black",
"GX c black",
"HX c black",
"JX c black",
"KX c black",
"LX c black",
"PX c black",
"IX c black",
"UX c black",
/* pixels */
"    z l l l l                                                                                       ",
"v k l l l l l l k                                         z k l l l l z                             ",
"  k l j j j j j l d                                 k l l l l l l j j l l z                         ",
"  z l j j g g j j g f s a                     k l l j j j j j j j j j j j l k                       ",
"  z l j g g g g g g f f f f f f s k k k l l l j j j j g g g g g g g g j j j j l z                   ",
"  z l g l x x ! J l l s s s s s f j j j j j j g g g g g g g g g g g g g g j j j l k                 ",
"    x m N D.L 6XG.S.! a u s s s a j j g g g g g g g g g g g g g g g g g g g g g j l l               ",
"    H G.J.7X}.2XtXtXD.G b i a u i g j l g g l l g g x m g g M n l l g g k g g g g j l h             ",
"    H S.2XwX7XaXfXpX{.|.I I b i i x Q Y g h N J g P }..XK n |.{.S.P.n M P m M g g g j h s           ",
"    C..X7X7X7XpXfXfXdX0X[.C.M.y i n +X|.K g U P m ;X7X=X}.L .X2XiXiXP.U 6XG.J.m J J j s f a         ",
"      0XiXwXwXiXdXdXiXaX XB.C.M.Z ! D.0X0XA.8X#.n Y H.|.7X;X=X4XdXiX=X#.wXpXXXW 6X!.c a s h k       ",
"      3XdXdXpXiXdXdXdXtX XN.B.M.B.7XiXpXdXiXiXXXJ.OX4XwX7XwXaX9XdXiXiXpXdXpXpX=XQ n a u f j l l z   ",
"      3XdXdXfXdXdXdXdXsX-XN.N.N.2XaXpXpXXXXXJ.W !.iXdXaXiXdXdX9XdXiXpXfXdXdXfX|.k f b p g j l l l z ",
"      %XdXfXfXfXdXfXdXdX3XN.N.V.wXdXfX=X}.0XA.E 7XpXdXpXdXdXfXtXtXpXdXdXdXdXpX;XN i F B x M l l z   ",
"        dXfXfXfXdXfXdXdX5XT.N.).pXdXfX4XJ.2XR Y 4XfXdXdXdXfXfXsX9XdXfXfXdXiXwX6XT Z M.J P A.k k     ",
"        tXfXfXfXdXdXdXdX9XT.k.].dXfXfX0X{.|.R L 2XfXdXfXdXdXfXfXtXtXdXfXiX7X7X=XZ.V. XU K.G.c       ",
"        9XfXfXfXfXdXdXdX0XV.N.%XdXfXfX2XK.4X#.L.0XdXfXfXfXdXfXfXfXtXtXdXpXwX7XtX%X%XwXwX#.B         ",
"        3XfXfXfXfXdXdXdXtXV.k.%XdXfXfX4X0XdX2X=XdXdXfXfXfXdXdXfXfXdX9X9XsXpX0XtX%XuXfXpXU           ",
"          dXfXfXfXdXdXdXtXU.U.3XfXfXfX.XG.6XJ..XdXdXfXfXfXdXdXfXfXdXrX9XtXpXyXtX5XdXfX0X            ",
"          tXfXfXfXdXdXfXtXT.T.3XfXfXfXdX|.R !.dXdXdXdXfXfXfXdXfXfXsXtXsXtXdXsXtXyXfXtX              ",
"          9XfXfXfXfXdXfXtX/.T.3XfXdXdX4X XG.K.6XdXtXdXfXfXfXdXdXdXtXyXdXtXsXdXsXfXdX-X              ",
"          %XdXfXdXdXfXfXdX).U.3XfXfXfX|..X}.XX2XdX9X%XyXdXfXdXdXeXtXdXdXtXyXdXfXdX3X                ",
"            tXfXyX9XfXfXdX(.U.9XfXfXfXpX7XXX2XdXdXdX'.'.dXdXdXtX,XdXdXdXyXtXdXfXtX                  ",
"            ,XfXyX,XdXfXfX'.U.9XfXfXfXXXE D.S.pXdXdXtX(.tXfXdX0X%XdXdXdXdXtXfXtX                    ",
"              dXyX%XdXfXfX%XV.9XfXfXfXS.U D.E iXdXdXdX%X,XfXdX3X'.dXdXdXfXsXtX'.            +.      ",
"              tXsX'.tXfXfX3Xk.9XdXfXdXE R S.#.wXdXdXdX9X'.dXdX3X%XfXdXdXfXtX'.            W.@.+.    ",
"              eXyX).9XfXfX0XU.3XtXdXiXG.+XXX|.dXdXdXsXdX%XsXdX%X3XfXfXdX0X_.        8.r.R.#X=.      ",
"                tX'.,XfXfXtXU.'.tXdX4XL.K.=XL.sXdXdXdXdX9XtXdX*XtXfXfX0X/.        4.w.p.x.Q.        ",
"                  ].%XfXfXyXT.^.dXdXdX=XF.=XoXyXdXdXdXdXtXtXtX%XdXdX9X_.      4.9.i.w.3. .          ",
"                  (.).dXfXdX/.'.fXdXsX0X=X2X2XtXtXtXyXdXtXtX9X9XdX3X_.    2.9.a.a.p.-               ",
"                    ^.tXfXdX).,XdXrX2XF.G.{.Y }.dXtX9XsXtXtX,X9X'./.h.1 1.9.i.4.1 -                 ",
"                    l.,XdXdX/.%X9XtXD.Y U S.E A.tXdXyXrXtX,X)./.'.l.1 <.9.i.3.=                     ",
"                      ^.9XtXU.(.tXdX=X=X(.0XwX4XdXdXdXtX,X^.U.^.tX1Xe.p.,., =                       ",
"                        (.3Xx.9XdXsX9XrXy.b.1Xv.9XsXdXdX,X^.(.9XfXyXu.2.*                           ",
"                        h./.'.dXyX&X@X:X8 9 t w <X9XyXrX9XeXeXdXfXfXf.*                             ",
"                          Y.9XsX(./.[ ] { ~ ~ ..$X<XtXyXrXyXdXfXfXdXn.                              ",
"                          x.9XtXY.&.] _ _ _ ` ` :.&XsXtXtXdXdXsX3X9X                                ",
"                          <XtX%X_.o.` _ _ _ _ _ ( ;.qXtXdXdXdX'././.                                ",
"                          9XtXeXR.[ ` ` _ _ _ ` ` ' &X3XdXdX'.} t                                   ",
"                          `.%X&X;.) ( [ ` _ ) ( ` -.0X%X3X).t 2 >.<.                                ",
"                        y.rXtX&.O.C % | / ^ / # C o.E.l.} 9 , >.<.1.                                ",
"                      5.>XgXtX&X(.h.6 d.q e V $ q c.5 @ o < ,.2.7.<                                 ",
"                      6.1XgXfXfX/.x.D @.I.I.N.8 e j.    & < 8.9.9.8.                                ",
"                      6.n.`.eXdX(.7 5 A W.W.W.            , p.i.i.>.                                ",
"                    7.1.- - 4 t.z.@ @   *.I.              & >.,.< =                                 ",
"                  1.7.7.,.,.>., O . .                       + 4 w                                   ",
"                0.9.9.9.7.8.4.<., O X       A A               m.*X                                  ",
"                  s.s.s.>.4.a.i.w.4.1.< t.W.@.X.              n.m.                                  ",
"                  3.q.q.; o < 8.r.p.8.>.V.#XQ.%.              > 3                                   ",
"                    = * o +     - < >.2 h.W.Q.=.              O O                                   ",
"                                      = 5 6 A S               : : 3                                 ",
"                                      6 g.q r 7               : : 3                                 ",
"                                          r                   3 0 t.D                               ",
"                                          z.                     . .A                               ",
"                                          j.                      5                                 "
};
