/* XPM */
static char *_85c59152a4d4ccce0fc19c7cea1f04a3LQ5iPqnxZn6qCxt_18[] = {
/* columns rows colors chars-per-pixel */
"50 55 256 2 ",
"   c None",
".  c #151518",
"X  c #1D1F32",
"o  c #092A3A",
"O  c #1E263B",
"+  c #153135",
"@  c #2C3438",
"#  c #675425",
"$  c #0C324A",
"%  c #153546",
"&  c #14365A",
"*  c #112C54",
"=  c #293053",
"-  c #033374",
";  c #06387A",
":  c #123A75",
">  c #0C3567",
",  c #3B3D62",
"<  c #252F6A",
"1  c #284965",
"2  c #554E54",
"3  c #765C59",
"4  c #6A5A5B",
"5  c #736B4A",
"6  c #4C556C",
"7  c #645863",
"8  c #4C6271",
"9  c #736669",
"0  c #7B6F74",
"q  c #61686E",
"w  c #DA0405",
"e  c #D11717",
"r  c #CF090A",
"t  c #E50203",
"y  c #EC0303",
"u  c #E50B09",
"i  c #F20303",
"p  c #FD0D0B",
"a  c #F90807",
"s  c #FE110E",
"d  c #F4110F",
"f  c #EC1A16",
"g  c #F51513",
"h  c #FB1311",
"j  c #F21915",
"k  c #FA1C1A",
"l  c #F71A19",
"z  c #D8201F",
"x  c #F1201F",
"c  c #C82D2C",
"v  c #F32C2A",
"b  c #F62524",
"n  c #F53432",
"m  c #F23A38",
"M  c #E73431",
"N  c #816D3D",
"B  c #AC7B2B",
"V  c #BC4541",
"C  c #956B50",
"Z  c #BF7C5B",
"A  c #82676D",
"S  c #C9524E",
"D  c #CC504C",
"F  c #E84A46",
"G  c #F34A47",
"H  c #E65552",
"J  c #F25855",
"K  c #F4504E",
"L  c #E8615D",
"P  c #CB7F79",
"I  c #EB6A67",
"U  c #F06965",
"Y  c #E9716D",
"T  c #F1726D",
"R  c #EB7572",
"E  c #EA7C78",
"W  c #F07F7B",
"Q  c #9F9D25",
"!  c #AA8C26",
"~  c #BFA123",
"^  c #A19319",
"/  c #F3DC19",
"(  c #EED30D",
")  c #FAE603",
"_  c #FEEB03",
"`  c #F9E609",
"'  c #DEC33E",
"]  c #E3CC2D",
"[  c #EBD62E",
"{  c #D7C610",
"}  c #92827D",
"|  c #89866B",
" . c #B68776",
".. c #A4A162",
"X. c #C8865F",
"o. c #D4B44D",
"O. c #D6AD48",
"+. c #D18D6A",
"@. c #D08F79",
"#. c #ED827E",
"$. c #E7807C",
"%. c #EA8F7A",
"&. c #C8A86D",
"*. c #DEA67E",
"=. c #E8A37B",
"-. c #E0C55A",
";. c #DCC86B",
":. c #E4CE64",
">. c #043A86",
",. c #023D95",
"<. c #023E9C",
"1. c #083E94",
"2. c #123C80",
"3. c #003FA0",
"4. c #0B4599",
"5. c #13479B",
"6. c #1B4483",
"7. c #2A569C",
"8. c #0240A4",
"9. c #0142AA",
"0. c #0945A3",
"q. c #0145BB",
"w. c #0E48B4",
"e. c #0153BD",
"r. c #1754B8",
"t. c #134AA0",
"y. c #2656A8",
"u. c #767783",
"i. c #6C738E",
"p. c #426FBD",
"a. c #014ACB",
"s. c #0349C3",
"d. c #0C55D1",
"f. c #0056E4",
"g. c #847A82",
"h. c #758AA8",
"j. c #918080",
"k. c #A98E88",
"l. c #AC9A8D",
"z. c #B8958B",
"x. c #BB9D93",
"c. c #A89892",
"v. c #B9A39C",
"b. c #969CA5",
"n. c #9FA3AC",
"m. c #B4ADB2",
"M. c #BAB4B2",
"N. c #C88981",
"B. c #D38B85",
"V. c #D68781",
"C. c #C3968D",
"Z. c #C29D93",
"A. c #C99C93",
"S. c #DF9791",
"D. c #EC8A85",
"F. c #EB8E8A",
"G. c #E88783",
"H. c #EA948F",
"J. c #E6908D",
"K. c #EC9691",
"L. c #EB9B96",
"P. c #F19B95",
"I. c #CEA689",
"U. c #DCA785",
"Y. c #C5A39A",
"T. c #C9A39A",
"R. c #C5A599",
"E. c #D8A19A",
"W. c #D8B69A",
"Q. c #EBB38C",
"!. c #F3B58B",
"~. c #ECA19D",
"^. c #E0A59F",
"/. c #EDA791",
"(. c #C6ABA2",
"). c #CBADA4",
"_. c #CCB3AB",
"`. c #D1B4AB",
"'. c #D3B9AD",
"]. c #D1B2A6",
"[. c #C8BBB8",
"{. c #D4BBB3",
"}. c #DBBDB5",
"|. c #D0AEA3",
" X c #ECAAA4",
".X c #E9A9A3",
"XX c #F1A7A2",
"oX c #ECB1AB",
"OX c #E1B1AA",
"+X c #EDBBB5",
"@X c #ECBAB4",
"#X c #F1BBB5",
"$X c #F2BAB4",
"%X c #F2B3AC",
"&X c #D4C08D",
"*X c #FCC298",
"=X c #E4D29E",
"-X c #DAC3BB",
";X c #DCC8BB",
":X c #D4C7B6",
">X c #EDC2BC",
",X c #E0C7BF",
"<X c #F3C2BC",
"1X c #E1CFA1",
"2X c #A9AFC1",
"3X c #DDCAC3",
"4X c #DACBC6",
"5X c #D4CDCF",
"6X c #ECC7C0",
"7X c #E1CCC4",
"8X c #EDCBC4",
"9X c #EACFC8",
"0X c #F2CEC9",
"qX c #F2C8C2",
"wX c #E4D2CB",
"eX c #EBD4CC",
"rX c #E5D6C5",
"tX c #F1D2CC",
"yX c #E6D7D0",
"uX c #EBDBD4",
"iX c #EEDFD9",
"pX c #E8D8D1",
"aX c #F1D7D1",
"sX c #F1DAD4",
"dX c #F1DFD9",
"fX c #EFE0DA",
"gX c #F2E4DE",
"hX c #F3E5E0",
"jX c #F7E9E3",
"kX c black",
"lX c black",
"zX c black",
"xX c black",
"cX c black",
"vX c black",
"bX c black",
"nX c black",
"mX c black",
"MX c black",
"NX c black",
"BX c black",
"VX c black",
"CX c black",
"ZX c black",
"AX c black",
"SX c black",
"DX c black",
"FX c black",
"GX c black",
"HX c black",
"JX c black",
"KX c black",
"LX c black",
"PX c black",
"IX c black",
"UX c black",
/* pixels */
"  j h h h h h                                                                                       ",
"f h h h h s h h j                                         j g h h h h j                             ",
"  g h s s s s s h u                                 g h h h s s h s s h h                           ",
"  j h s s p p s s p y y u                       g h s s s s s s s s s s s h f                       ",
"  j h s p p p p p p i i i i i i y g g g g h h s s s s p p p p p p p p s s s s h                     ",
"  j h p l n b T G h g y y y y y y p s s s s s s p p p p p p p p p p p p p s s s h j                 ",
"    v n J ~.I <XH.D.U u w t y t t p s p p p p p p p p p p p p p p p p p p p p p s h g               ",
"    H H.XX<X X>XuXpXD.H c e w w w p h h p p h h p p b n h p G G h l p p k h p p p s h d             ",
"    F G.#X<X<XtXhXgX+XoXP @.S r w l W T p a m G p K XX$XI v  XoXK.P.n n K b v p p p p a y           ",
"    E.#X<X<X<XsXhXgXsX8X^.B.B.S e b ~.oXK p U J b #X<XoX%XI ~.@XaXtXP.I >XF.K.v G J l i i u         ",
"      8XaX0XqXeXgXgXtXeX.XB.B.@.D E L.eXeXD.<XD.m R F. X<X<X#X>XgXtX>XL.tXaX#XE #XP.x t y a g       ",
"      6XsXgXdXaXgXgXdXeXOXB.B.@.S.qXtXsXgX0X0XoXL.<XtXqX<X0XaXwXgXaXtXgXgXaXdX6XT x t w y s h g     ",
"      9XdXgXhXgXgXgXgXiX}.N.N.N.+XtXdXaXoX>X~.E ~.8XuXtXtXgXgXpXfXtXsXhXgXdXhXqXv y c z p h h h h f ",
"      7XhXhXhXhXhXhXgXfX,XC.N.A.8XgXhX8X.XeXF.D.8XaXgXsXdXgXhXiXeXaXgXhXgXgXaX<XL r V F k n h h j   ",
"      }.gXhXhXhXgXhXgXfX7XT.C.{.uXgXhX8X.X>XE I 8XhXgXgXgXgXhXgXpXfXhXhXgX0X<X>XV.S V.K J #.h j     ",
"        uXhXhXhXgXgXgXgXwXT.Z.-XfXhXhXeX.XoXR I >XhXgXhXgXgXhXhXgXpXgXhXaX<X<X+XE.E.OXI ~.#.f       ",
"        eXhXhXhXgXgXgXgXeXZ.C.-XgXhXhX>X.XeXL.@XpXgXhXhXhXgXhXhXhXfXpXiXgXtX>XeX7X}.eXtX#.M         ",
"        3XgXhXhXhXgXgXgXiXZ.x.;XgXhXhX+X>XgX+X.XgXgXhXhXhXgXgXhXhXhXuX3XuXsX9XpX7XpXhXaXL           ",
"          gXhXhXhXgXgXgXiXY.T.7XgXhXhX+X#.oXH.>XgXgXgXhXhXgXgXhXhXgXpXuXpXsXiXuXwXgXhXeX            ",
"          uXhXhXhXgXgXgXpX(.T.7XgXgXgXgX>X$.XXsXgXgXgXhXhXhXgXhXhXfXpXgXpXgXiXuXiXhXiX              ",
"          wXhXhXhXhXgXhXpX).T.7XgXgXhX>X.XL.H.>XgXuXfXhXhXhXgXgXgXpXfXgXuXiXfXgXhXdX                ",
"          -XgXhXgXgXhXgXgX].T.wXhXhXhX+X8XoX6XeXgXpX-XpXgXgXgXiXwXuXgXgXiXuXgXhXgX7X                ",
"            pXhXfXwXhXgXgX).T.wXhXhXhXsX+X X@XgXgXgX7X'.fXhXgXpX;XfXgXgXgXpXgXhXpX                  ",
"            3XhXiX3XgXhXgX_.Y.wXhXhXhXoXR H.F.dXgXgXfX{.wXhXgXeX{.fXgXhXgXuXgXiX                    ",
"              gXiX-XfXhXhX-XZ.wXhXhXhXF.R D.G.aXgXgXgX7X-XhXgXwX{.gXgXgXhXgXuX'.            +.      ",
"              uXfX}.uXhXhX7Xx.wXgXgXgX#.R F.K.tXgXfXgXpX}.gXgX7X-XhXgXgXgXpX`.            Q.*.+.    ",
"                iX{.wXhXhXeXY.7XiXgXaXF. X+XoXgXgXgXiXgX-XuXgX;XwXhXhXgXwX].        0.y.W.*X=.      ",
"                pX{.7XhXhXuXY.{.iXgX9XK.L.>XJ.iXgXgXgXfXwXuXfX-XuXhXhXwX].        5.r.s.v.!.        ",
"                  }.-XhXhXiXR.(.gXgXgX>XJ.>X@XiXgXgXgXfXuXuXpX-XgXgXwX].      5.q.a.r.4. .          ",
"                  _.'.gXhXgX).'.hXgXfXeX>X6X8XpXuXuXiXgXuXiX7XwXgX3X].    <.q.d.d.s.&               ",
"                    ).pXhXgX'.3XgXpX6XG.K. XY XXgXuXwXfXiXpX3XwX}.).k.: 1.q.a.5.: &                 ",
"                    x.3XgXgX).-XwXuXF.Y I D.E G.sXgXiXpXpX7X'.).{.v.2.<.q.a.4.%                     ",
"                      (.wXiXY._.uXgX>X>X_.eXtX8XgXgXgXuX3X).Y.(.iX5Xt.s.,.- %                       ",
"                        _.7Xv.wXgXiXwXpXi.n.5Xb.wXfXgXgX-X(._.wXhXiXp.3.$                           ",
"                        k.).{.gXiX;X&X1X5 6 q 8 4XwXiXpXwXwXpXgXhXhXh.$                             ",
"                          R.wXfX_.).[ / { ^ Q ..=X4XiXiXpXiXgXhXhXhXm.                              ",
"                          v.wXiXR.&./ _ ) ) ` ` :.;XfXpXuXgXgXfX7XwX                                ",
"                          4XuX-X'.o.) _ _ _ _ _ / ;.rXpXgXgXgX{.(.).                                ",
"                          wXpXpXW.] ` ` _ _ _ ` ) ' ;X7XgXgX}.} q                                   ",
"                          [.-X;X;.( / ] ` ) ( / / -.rX-X7X'.q > >.<.                                ",
"                        i.pXiX&.O.B # | ! ~ ^ # ! O.I.x.} 6 - ,.<.1.                                ",
"                      6.2XjXpX;X_.k.3 g.7 9 N # 7 v.2 @ o >.,.3.9.;                                 ",
"                      7.5XjXhXhX).v.A @.U.U.I.5 9 l.    $ ; 9.q.q.0.                                ",
"                      7.m.[.wXgX_.4 2 C Q.Q.Q.            - s.a.a.>.                                ",
"                    0.1.& & 1 u.c.@ @   *.U.              $ >.,.>.%                                 ",
"                  1.8.9.,.,.>.- O . .                       @ 1 8                                   ",
"                w.q.q.q.9.9.5.<.- O X       C C               M.:X                                  ",
"                  f.f.f.>.4.d.a.r.4.1.; u.Q.*.X.              m.M.                                  ",
"                  4.e.e.> o ; 9.y.s.9.2.Z.*X!.=.              , ,                                   ",
"                    % $ o +     & ; >.: z.Q.!.=.              O O                                   ",
"                                      % 2 3 C Z               = * =                                 ",
"                                      3 j.7 0 4               = * <                                 ",
"                                          0                   , 6 u.A                               ",
"                                          c.                     . .C                               ",
"                                          l.                      2                                 "
};
