/* XPM */
static char *_dee9ba828d948fcdd1831683750095bIAt6Fn3CIQZyxXwi_18[] = {
/* columns rows colors chars-per-pixel */
"82 93 256 2 ",
"   c None",
".  c #121217",
"X  c #161C2A",
"o  c #062935",
"O  c #182C34",
"+  c #183337",
"@  c #132A2E",
"#  c #2D2F35",
"$  c #221E22",
"%  c #4E3B36",
"&  c #4D3B1B",
"*  c #695A29",
"=  c #072B4A",
"-  c #173545",
";  c #032B55",
":  c #1C2756",
">  c #043257",
",  c #12334E",
"<  c #232A55",
"1  c #2F364D",
"2  c #022E68",
"3  c #043668",
"4  c #033778",
"5  c #13366F",
"6  c #2D356A",
"7  c #453C47",
"8  c #493C53",
"9  c #38494D",
"0  c #2A4B78",
"q  c #554D54",
"w  c #675051",
"e  c #756459",
"r  c #4B5570",
"t  c #645763",
"y  c #76576C",
"u  c #736C6F",
"i  c #50647E",
"p  c #2B4537",
"a  c #B72724",
"s  c #CA0608",
"d  c #DD0102",
"f  c #D80707",
"g  c #CB1413",
"h  c #D91D18",
"j  c #E40102",
"k  c #EC0203",
"l  c #E70908",
"z  c #F30303",
"x  c #F50B0A",
"c  c #FD0D0B",
"v  c #FB0706",
"b  c #FE110E",
"n  c #F4110F",
"m  c #EC1A16",
"M  c #E81C18",
"N  c #F51613",
"B  c #FC1311",
"V  c #F31815",
"C  c #F71B1A",
"Z  c #F80F10",
"A  c #F6201E",
"S  c #D33735",
"D  c #EC2928",
"F  c #F42423",
"G  c #F42A29",
"H  c #ED3938",
"J  c #F23736",
"K  c #F5302E",
"L  c #D6221C",
"P  c #A35A28",
"I  c #F2403E",
"U  c #8F7051",
"Y  c #877470",
"T  c #B77C6E",
"R  c #A76151",
"E  c #CA5956",
"W  c #EA4A49",
"Q  c #E95855",
"!  c #F1514E",
"~  c #CD7258",
"^  c #EF615D",
"/  c #CF7974",
"(  c #E76967",
")  c #EA716E",
"_  c #EA7471",
"`  c #EB7975",
"'  c #E77A76",
"]  c #B28A24",
"[  c #A4961C",
"{  c #D1B20F",
"}  c #D5B036",
"|  c #D2A11A",
" . c #F4DC07",
".. c #ECD00D",
"X. c #FEEB01",
"o. c #F9E506",
"O. c #FAE914",
"+. c #DDC435",
"@. c #EAD42F",
"#. c #F8EB33",
"$. c #B08A72",
"%. c #A48E5E",
"&. c #CBAB4F",
"*. c #CA8868",
"=. c #C4847B",
"-. c #C69778",
";. c #DA9975",
":. c #D78B6E",
">. c #E8827D",
",. c #E89879",
"<. c #D9AB75",
"1. c #E5A178",
"2. c #D3855D",
"3. c #DEC752",
"4. c #E6D054",
"5. c #EEDF5E",
"6. c #013A8C",
"7. c #033984",
"8. c #013C94",
"9. c #013E9C",
"0. c #113E8A",
"q. c #013FA1",
"w. c #094299",
"e. c #184996",
"r. c #15428B",
"t. c #264B89",
"y. c #0141A5",
"u. c #0042AC",
"i. c #0B47A6",
"p. c #0043B4",
"a. c #0045BB",
"s. c #0849B9",
"d. c #1451B3",
"f. c #2B5EB1",
"g. c #3666B3",
"h. c #53678F",
"j. c #6C718A",
"k. c #5B699E",
"l. c #0047C2",
"z. c #0049CB",
"x. c #044AC6",
"c. c #004CD3",
"v. c #004ED8",
"b. c #0354DB",
"n. c #1C5CC0",
"m. c #005BE7",
"M. c #1464DC",
"N. c #4C7DC8",
"B. c #877D83",
"V. c #75859B",
"C. c #928E90",
"Z. c #A99388",
"A. c #BB948B",
"S. c #B7948A",
"D. c #BA9C93",
"F. c #AE938B",
"G. c #BAA49B",
"H. c #A6A19D",
"J. c #A59FA4",
"K. c #AFA9A9",
"L. c #97A2B9",
"P. c #CC8A83",
"I. c #D38B85",
"U. c #D88E88",
"Y. c #C5988B",
"T. c #C49D94",
"R. c #C99E95",
"E. c #D3978F",
"W. c #E98A86",
"Q. c #EA928D",
"!. c #E4918D",
"~. c #EC9A95",
"^. c #E99B96",
"/. c #F0948F",
"(. c #DCA886",
"). c #C4A49B",
"_. c #CAA39A",
"`. c #C6A499",
"'. c #D1B396",
"]. c #EAAC84",
"[. c #EAB28B",
"{. c #F2B38A",
"}. c #F4B68B",
"|. c #ECA29C",
" X c #E5A39D",
".X c #F1A29B",
"XX c #F7BD93",
"oX c #C5ABA2",
"OX c #CCADA4",
"+X c #CCB4AC",
"@X c #CAB1A7",
"#X c #D3B5AC",
"$X c #D4B6AB",
"%X c #CCB8B1",
"&X c #D4BBB3",
"*X c #D9BDB4",
"=X c #D4BFB8",
"-X c #D7ABA4",
";X c #ECABA5",
":X c #E8ABA5",
">X c #EBB2AC",
",X c #E4B2AB",
"<X c #EDBAB4",
"1X c #E9BBB5",
"2X c #F2BBB4",
"3X c #F3BDB8",
"4X c #F1AEA8",
"5X c #FAC49C",
"6X c #FAC398",
"7X c #D5C3BC",
"8X c #DBC5BC",
"9X c #DAC4BA",
"0X c #D7C5AD",
"qX c #ECC3BD",
"wX c #E3C5BC",
"eX c #F3C1BC",
"rX c #EBCFB1",
"tX c #BDBCC5",
"yX c #C6BFC0",
"uX c #DDCBC3",
"iX c #D8CCC7",
"pX c #DED0CB",
"aX c #D0CCCC",
"sX c #E2CCC4",
"dX c #ECCBC4",
"fX c #E9CCC6",
"gX c #F1C6C1",
"hX c #F1CAC4",
"jX c #F1CEC8",
"kX c #E4D3CC",
"lX c #ECD4CD",
"zX c #E7D5C6",
"xX c #F1D3CC",
"cX c #E6D7D0",
"vX c #EBDCD4",
"bX c #EEDFD8",
"nX c #EAD8D1",
"mX c #F1DBD5",
"MX c #F1DFD8",
"NX c #F1D7D1",
"BX c #EFE0DA",
"VX c #F2E4DE",
"CX c #F3E0D7",
"ZX c #F3E5E0",
"AX c #F6E8E1",
"SX c black",
"DX c black",
"FX c black",
"GX c black",
"HX c black",
"JX c black",
"KX c black",
"LX c black",
"PX c black",
"IX c black",
"UX c black",
/* pixels */
"    V N N N N N B                                                                                                                                                   ",
"M N B B B B B B B B B B                                                                                   M V N N M                                                 ",
"V B B B B B B B b B B B N                                                                       M N B B B B B B B B M                                               ",
"V B B B B b b b b b b b B N g                                                           M V N B B B B B B B B b b B B N                                             ",
"M N B B B b b b b b b b B B x f                                                     m B B B B B b b b b b B B b b B B B B M                                         ",
"L N B B b b b b c b b b b b c z l f f                                         M V B b b B b b b b b b b b b b b b b b B B B m                                       ",
"  V B B b b b c c c c c b b c v z z z z k k l l l                   M M m V N B B b b b b b b b b b c c c c c c b b b b b B B m                                     ",
"  V B B b b c c c c c c c c c c z k z z z z z z z z k x V N N N N B B B b b b b b b b b b c c c c c c c c c c c c b b b b b b B B m                                 ",
"  m B B b b c c c c B F F c c b x k k k z z k k z z k x b b b B b b b b b b b b b c c c c c c c c c c c c c c c c c c b b b b b b B V                               ",
"    B b c c b Q W B ( ;X.XI N C N k j j k k k k j k k c b b b b b b b b b b c c c c c c c c c c c c c x c c c c c c c c c b b b b b B B V                           ",
"    B A F c J 4X~.D .XeX3XQ W Q.! z d j j k k k k k j c b b b b b c c c c c c c c c c c c c c c c c c c c c c c c c c c c c c b b b b b B N                         ",
"    m ^ W.F W.eX3X) W.eXdX^.qXVX|.N L g d j j j j j s x b b c c c c c c c c c c c c c c c c c c c c x x c c c c c c c B N c c c c c b b B B N                       ",
"    M _ 2X' 2XeXeX2X XeXMXVXbXfX^.D >.S s g f d j d s x c c c c c c c c c N c c c c c N F B c c c G ( W c c c c c c c F F c c c c c c b b b B n                     ",
"    h H ~.;X3XeXeXeXeXjXVXVXVX1X' _ ,XR E / E g d d s c c G ! ! V c c c D H B c c B ! /.;XW.K v F ~.<X4X^ ! >.J c c C K C N C c c c c c b b b c k                   ",
"      Q Q ^.eXeXeXeXeXNXZXZXZXZXmXgXqXE.I.U.U.E s s s c G ~.eX~.A c c v J ^.F c C ) 2XeXeXeXQ.V H 2X<X>X2X,XgX.XJ c Q W.G F W K c c c c c b c z z l                 ",
"      :X2XeXeXeXeXeXeXmXZXZXZXVXmXlXdX,XU.U.U.I.E g s v J 2XNX;XJ Z v v H <XG v ( xXhXeX<X2X2X( D !.<X,XeXNXlXeX.XH >.VXQ.W |.~.C c C G F b c k z z l               ",
"      -XeXxXhXeXeXeXeXmXZXVXZXMXlXNXfX>XU.I.I.I.P.E g C C ( ^.NXxXW.C F ~.<XC v ^ jXNX;X>.<XeX2X|.:X<X,XNXVXmXeXeXW.! jXVXqX<X;XF Q .X4X.XH z k k k z l             ",
"      R.qXVXmXeXxXhXeXjXbXVXZXmXgXmXfX1XU.I.I.I.P.=.S ( ~.' >XNXVXlXW.~.xXlXQ V G W _ ( ^.eXeXeXeXeX2X1XVXVXVXgXeX,X` qXZXmXeX2XQ ~.eXeX|.G j j k k z b m           ",
"        1XmXVXmXVXMXgXdXbXVXZXVXlXbXdX1XE.I.I.I.P.T E ;XmXVXxXlXVXVXxXgXMXmX2X~.~.~.;XdXeXeXeX3XeXjXdXwXVXVXVXgXhXVXVXVXZXxXxXMX,X2X2X` K z d j j k c B B V         ",
"        1XjXNXVXVXZXMXVXVXVXVXVXVXVXkXwXE.I.I.I.=.=.>XeXgXgXjXVXVXVXlXdXlX,X~.` qXVXZXVXhX3XeXgXNXVXvXkXBXVXVXgXxXVXVXZXVXxXVXVXmX4XW c v j d d j x b B B B B m     ",
"        9XMXmXVXZXZXZXVXVXZXVXVXVXVXvXkXE.P.P.P.T E.eXeXhXNXVXVXmX>X^.qXQ.' W.` 2XjXlXbXxXeXlXvXVXVXVXkXvXVXmXeXmXVXVXZXMXmXZXZXmX~.n v z s g f k c b b B B B B V M ",
"        $XVXZXZXZXZXZXZXVXZXZXVXVXVXvXlXE.P.P.P.T -XeXxXVXZXVXlXW.;XlXVX^.) ` 3XeXeXjXVXNXjXVXVXVXVXVXvXkXVXjXjXVXVXVXVXBXVXZXVXxX;XD v d S / S c b N C N B B B B V ",
"        OXbXZXZXZXZXZXZXZXZXZXVXVXVXbXvXOXP.P.=.$.1XeXNXZXZXVXqX>X<XdXmX) W.Q.xXNXNXVXVXMXxXVXVXZXZXZXVXkXlXjXVXZXZXVXVXVXVXVXNXeX3XQ z s a ~ W c C K F B B B B m   ",
"          lXZXZXZXZXZXZXZXZXZXZXVXVXbXvX$XR.R.S.`.kXlXMXZXZXVXVX^.W.lXxX( ( W.1XZXVXVXVXVXNXVXVXZXZXZXZXvXkXVXZXZXZXZXVXVXmXjXeXeXqX XS a a / K c Q ~.H B B N m     ",
"          uXZXZXZXZXZXZXVXVXZXZXVXVXbXvX&X_.`.A.OXkXBXZXZXZXVXlX!.xX1X1X' Q Q qXZXZXVXVXZXVXVXVXZXZXZXZXVXkXvXZXZXZXZXVXNXeXeXeXeX1XU.S =.E.>X^ N ~.2XK B N M       ",
"          &XVXZXZXZXZXZXZXVXZXVXZXVXbXvX*X_.A.T.#XkXVXZXZXZXVXBXvX,X|.qXQ ` W <XZXZXVXVXZXZXZXVXVXZXZXZXZXVXkXbXZXZXZXVXhXeXeXeXeX-X/ / OX*X X! J <XeXK N M         ",
"          OXbXZXZXZXZXZXZXVXVXVXVXVXVXbX*X_.S._.$XkXVXZXZXZXVXlX^.' gXqXW ' Q ,XZXVXVXZXZXZXZXVXVXZXZXZXZXZXbXkXBXZXVXVXhXeXeXeXqXfXkX&X*XfX^.>.>XdX|.D h           ",
"            nXZXZXZXZXZXZXZXVXVXVXVXVXVX*XT.A.R.#XkXVXZXZXZXVXdX' 1XVXdX' >XdXvXVXVXVXZXZXZXZXVXVXZXZXZXZXZXZXvXpXBXVXVXVXNXeXqXfXvXkX#XwXjXNXVXdX! F L             ",
"            sXZXZXZXZXZXZXZXVXVXZXVXVXVX8XY.S.A.$XvXVXZXZXZXVXlXdXVXVXmXhXqXNXVXZXVXVXZXZXZXZXZXVXZXZXZXZXZXZXVXvXuXkXbXVXVXdXqXlXbXsX#XNXVXZXVX~.C M               ",
"            &XVXZXZXZXZXZXZXVXVXVXVXVXZXsXA.S.R.*XvXVXZXZXZXZX:X^.mXVXxXqX' !.VXZXVXVXZXZXZXZXZXVXVXZXZXZXZXZXZXbXpX7XkXVXNXdXlXvXbX9XkXZXZXZXMX;XS                 ",
"            ).bXZXZXZXZXZXZXVXVXVXVXVXZXkXA._._.*XvXVXZXZXZXZX<X! ) xXdX' ^.fXVXVXVXVXZXZXZXZXZXVXVXZXZXZXZXZXVXkXvXvXpXvXNXbXvXbXvX8XVXZXVXZXMX-X                  ",
"              lXZXZXZXZXZXZXVXVXVXVXVXVXsXD._._.*XbXZXZXZXZXVXVX<XW.W.' W.xXVXVXVXVXVXZXZXZXZXZXZXVXVXZXZXZXZXVXkXBXVXkXBXVXbXvXBXkXkXZXZXZXVXwX                    ",
"              sXZXZXZXZXZXZXZXVXVXVXVXVX8X`._._.9XBXZXVXZXVXVXmXNXNX>.Q 2XxXVXVXVXVXVXZXZXZXZXZXZXVXVXZXZXZXZXvXkXVXVXkXbXVXbXbXVXkXVXZXZXZXfX                      ",
"              $XVXZXZXZXZXZXZXZXVXVXVXVX8XOX_.R.8XBXVXVXVXVXVXVXdX$X X|.^.<XVXVXVXVXVXVXVXZXZXZXZXZXVXVXZXVXBXkXBXVXVXvXcXVXbXbXBXbXZXZXZXlX                        ",
"                vXZXZXZXZXZXZXZXVXVXVXVXuXOX_.`.8XBXZXVXVXVXVX<X) gXW.;X>._ VXVXVXkXnXVXVXVXVXZXZXZXVXBXVXVXkXvXVXVXVXBXkXVXbXVXVXVXZXZXvX#X                        ",
"                uXZXZXZXZXZXVXZXZXZXZXVXvXOXR.R.8XVXZXZXVXZXVX^.Q.CX>.;XdX^.mXVXVXlX$XuXVXVXVXZXZXZXVXBXnXkXkXVXVXVXVXVXkXBXbXVXZXZXZXVX*X                          ",
"                +XVXZXZXZXVXkXVXZXZXZXZXbX).R._.sXVXZXZXZXZXVXlXmXZXdXfXVXVXVXVXVXVXsXOX&XbXVXZXZXVXVXVX8XuXvXVXVXVXVXVXcXvXBXVXZXZXZXkX                            ",
"                  nXZXZXZXBX7XBXZXZXZXVXBX).R._.sXVXZXZXZXZXZXmXxXqX<X;X>XMXZXVXVXVXVX*X_.8XVXVXZXVXVXVX*XsXbXVXVXVXVXVXbXkXVXZXZXZXbX-X                            ",
"                  &XVXZXZXBX&XbXZXZXZXVXVX).R._.sXVXZXZXZXZXVXVXQ.( ` >.) xXZXVXVXVXVXvXOX+XVXZXZXZXVXVX$X8XbXVXVXVXZXZXVXkXVXZXZXVX9X                              ",
"                  oXbXZXZXVX&XvXZXZXZXZXVX@XD._.8XVXVXZXZXZXVX<XW Q.|.;X_ xXZXVXVXVXVXVX8XOXvXZXZXZXVXbX#X&XVXBXVXZXZXVXVXcXBXZXVXwX                                ",
"                    sXZXZXVX&XkXZXZXZXZXVX9XS._.8XVXZXZXZXVXVXW.! ~.Q.Q.( dXZXVXVXVXVXVXlXOX8XVXVXVXVXbXOX7XVXVXBXVXZXZXZXbXBXVXuX                    *.            ",
"                    7XVXZXVX#X8XVXZXZXZXZXkXS.R.8XVXVXZXZXVXVX` ! ` _ W._ <XZXVXBXVXVXVXBX&X+XVXVXVXVXnXOXuXVXVXVXBXVXZXZXZXVXsXA.                    ;.:.;.        ",
"                      vXZXVX&X&XVXZXZXZXVXlXD.A.uXVXVXZXZXVXmX( _ W.Q.Q.>.;XZXVXBXbXBXVXVXsXOXbXVXVXVXkXOXkXZXVXZXVXBXVXZXVX8XA.                  ;.].].;.*.*.      ",
"                      kXZXVX&X+XVXZXZXZXZXvX_.T.uXbXvXVXVXVXmX_ ( W.|.|.,XlXZXVXVXBXvXbXVXbX@XkXVXVXVXsXOXvXZXZXVXVXVXVXbX9XT.              r.t.-.5X6X{.;.1.        ",
"                        bXVX*XoXvXZXZXZXZXbXOXT.uXkXvXVXVXVX<XQ.4XxXxX>X^.VXVXVXVXVXBXvXVXVX%XuXVXVXBX9X%XVXZXZXZXZXZXlX*XT.              w.p.a.J.5X5XXX].2.        ",
"                        pXVX9XoXcXZXZXZXVXVX#XS.=XuXVXVXVXkX:X) ( dXNX:X_ MXVXVXVXVXVXbXbXVXuXuXVXBXBX&X8XVXZXZXZXZXvX*X_.              t.d.l.z.k.5X5X{.:.          ",
"                          vX8XOXuXZXZXZXVXVX*XA.).uXVXVXVXbXvXhX' ' qX;X) 8XBXVXVXVXVXVXvXVXvXuXVXbXbX+XkXZXZXZXVXvX=X_.            w.y.i.g.x.c.k.[.;.              ",
"                          uXuXOX=XZXZXZXZXVX9XA.S.pXZXZXVXVXVXqXW.' xX:X,XVXVXVXVXVXVXVXbXBXBXkXVXbXsX%XBXZXZXVXkX=X_.        0.r.i.a.z.c.n.f.p.i ].2.              ",
"                            9X#X+XBXZXZXVXVXsXT.F.vXZXZXVXVXVXwX1XqXVXfXbXBXcXcXbXVXVXVXVXbXBXkXVXbX&XuXZXZXVXsX&X-XY.    0.y.p.d.f.c.b.b.w., -                     ",
"                            oX#XOXcXZXVXVXVXkXR.G.VXZXVXVXbXvXVXlXdXqXqXgXlXVXbXkXcXcXbXVXbXBXkXVXvX+XbXZXbX8X$X-XY.    0.q.p.z.z.N.b.m.y.- +                       ",
"                              G.OXuXZXZXVXVXnX).+XZXVXVXkXkXfXW.W.^.:X!.W ( xXVXBXcXuXkXVXVXBXkXVXuX7XVXkX*X#X-XY.    4 9.p.z.v.c.t.r.4 -                           ",
"                                `.&XVXZXZXVXvXD.&XZXVXkXsXVX_ Q _ W.VX` W.Q.^.ZXVXVXvXkXcXVXbXkXBX7XkXuX#XOX_.Y.  4 6.9.a.z.v.c.4 - + +                             ",
"                                D.oXvXVXZXZXsXS.8XbX7XkXVX<XH Q.Q H W.W ) ` ( VXVXVXVXBXuXbXvXkXsX+X#XOX).7X+Xt 7.8.q.a.l.v.c.7.+ #                                 ",
"                                  D.8XcXVXZX8XS.#X+XkXVXVX|.( ~. X:X3X2X4X|.;XVXVXVXVXVXvXpXvXuXoX`._.`.+XVXvXh.8.y.a.l.u.a.4 +                                     ",
"                                    oX8XbXVX$XS.).kXVXVXVXVXVXAXaXK.VXVXAXAXVXVXVXVXVXVXVXcXuX@XT._.`.D.cXZXAXL.y.a.z.9.> > +                                       ",
"                                      OXuXbXOXZ.uXVXVXVXVXkXvXBXaX0 K.kXvXiXJ.vXcXVXVXVXVXvX7XD.T.).oXuXZXZXZXaXd.z.a.= @                                           ",
"                                      Z.oXkX).G.VXVXVXVXkXpXuXsXH.; 0 pXyXr i cXuXvXVXVXVXbXkX8X&X8XuXVXZXZXZXBXg.u.> O                                             ",
"                                        S.&X).uXZXBXVXvX&X'.'.nX&.p , C.r ; j.kXkXkXVXbXkXkXuXvXbXpXBXZXZXZXZXZXV.> O                                               ",
"                                        $.OXOXBXZXkX8X8XoX} @.5.@.[ - * [ , J.rXuX8XbXkXvXBXuXBXkXbXVXZXZXZXZXAXH.O                                                 ",
"                                          ).7XZXVXvXD.D.+X4.X. . . .[ ..{ %.4.3.vX=XbXVXZXkXkXVXVXVXVXVXZXZXVXVX%X                                                  ",
"                                          S.uXBXVXBXD.$.0X3.X.X.o.X.o.X.o. .X.4.zXuXvXVXVXuXbXVXVXVXVXZXVXkXcXVX7X                                                  ",
"                                          G.kX&XuXVX@X%.+...X.X.X.X.X.X.X.X.X...3.wXsXVXBXuXVXVXVXZXZXvX&X#XkX9X                                                    ",
"                                          iXZXvX@XsX&X`.} o.X.X.X.X.o.X.X.X.X.o.@.3.'.VXvXkXVXVXVXZXbX#XD.+XOXA.                                                    ",
"                                          vXAXAXkX&X'.&.3. .X.X.X.X.O.X.X.X.X.X. .3.0XvXkXkXZXVXVXBX&XD.).D.$.                                                      ",
"                                          vXuXvXVXuX$X&.o.X.O.O.O.X.X.X.X.O.o.X. .+.<.sXuXuXZXZXVX8XS.Y q ,                                                         ",
"                                        i iX%XoXuXCX'.+.o.O.5.#.O.X.X.X.o.#.#.O...<.sXAXuX=XbXkX*XF.1 ; 2 7.9.r.                                                    ",
"                                        j.pXVXkX$X<.....{ ..{ ] { o. .o.{ { .. . .4.0XvX8XOX&X+XZ.1 2 6.6.9.u.e.                                                    ",
"                                      0 tXvXVXVX-.] } %.P * 9 H.] { ] { [ & & P ] } &.OXOXG.F.u - 2 6.6.8.q.y.                                                      ",
"                                    5 k.BXZXZX8X-.'.0XoXe % i V.j.* u e [ * # # D.0X$.$.t # X ; 7.6.8.8.q.u.7.                                                      ",
"                                    0.L.AXZXZXkXbXvXG.G.K.w ;.Y r t u r q P % # G.K.9 + @ X o 6.7.8.9.y.u.u.4                                                       ",
"                                  r.e.aXZXZXZXZXZXVX).Z.uXt U (.S.[.].-.D.-.# # G.Z.        = 6.4 y.u.p.a.a.y.                                                      ",
"                                  9.f.vXAXZXZXZXZXVX+X$.G.C.% ].XX6X{.}.}.;.    `.          O o 6.a.a.l.l.x.u.                                                      ",
"                                  9.g.iXpXcXVXAXAXBX&Xu 7 C.$ U XX(.(.XX[.      $.            O 9.l.l.z.z.c.8.                                                      ",
"                                i.q.5 7 # 9 t C.iXvX*XY . t $ % 1.(.(.[.                      O 4 l.z.z.z.p.>                                                       ",
"                                y.y.9.2 ; 2 ; ; - t F.Y . $ $     1.1.                          o 4 7.4 4 > +                                                       ",
"                              0.y.y.y.9.6.9.9.8.7.; # # . . $                                     @ o o o 9                                                         ",
"                          e.w.8.u.u.u.9.9.9.6.7.7.4 X . . .             U U                         u V.C.H.                                                        ",
"                          s.a.a.a.a.a.u.y.u.e.e.8.9.4 , # .             U %.*                         aXaX7X                                                        ",
"                          x.v.c.v.v.v.9.6.c.f.x.a.a.p.w.0 5 5   5 r $.1.~ R *.                        iXcXiX                                                        ",
"                          d.m.m.m.m.m.y.; i.n.b.v.z.f.d.u.u.9.4 0 _.5X6X{.*.*.                        J.aXJ.                                                        ",
"                            i.b.m.m.m.w.o o > u.v.b.N.x.l.p.8.4 h.6X5XXX{.{.:.                      1 6 r 6 1                                                       ",
"                            # > 4 s.3 o o o @ - 3 3 0 p.z.a.6.7.j.5X6X{.{.{.1.                        X : <                                                         ",
"                                + - = o + +         O ; 7.q.2 4 j.6XXX{.{.{.1.~                       X X X                                                         ",
"                                                        O = o = 1 w T $.:.1.2.                        < : < 6                                                       ",
"                                                                # 7 7 7 7 U                           < : : 6                                                       ",
"                                                              w Y Z.t q u q                           < : : 6                                                       ",
"                                                              U   D.t u G.$.w                         < : : 5 6                                                     ",
"                                                                  H.t C.    e                         6 6 r h.j.y                                                   ",
"                                                                  K.B.Z.                              w $.].].1.~                                                   ",
"                                                                  %XK.                                  $.T *.U w                                                   ",
"                                                                  H.G.                                  8 8 8 8                                                     ",
"                                                                  C.$.                                                                                              ",
"                                                                  Z.                                                                                                "
};
