/* XPM */
static char *_85c59152a4d4ccce0fc19c7cea1f04a3LQ5iPqnxZn6qCxt_19[] = {
/* columns rows colors chars-per-pixel */
"49 55 256 2 ",
"   c None",
".  c #151519",
"X  c #1D1E2A",
"o  c #0A2A3A",
"O  c #1D243C",
"+  c #143135",
"@  c #25383A",
"#  c #333135",
"$  c #675526",
"%  c #0D2D4C",
"&  c #0B3249",
"*  c #153446",
"=  c #143659",
"-  c #0E2D5A",
";  c #242A55",
":  c #303656",
">  c #043374",
",  c #06397B",
"<  c #113A75",
"1  c #0C3667",
"2  c #2F3767",
"3  c #284965",
"4  c #554E54",
"5  c #765C59",
"6  c #6A5A5B",
"7  c #736B49",
"8  c #4D556C",
"9  c #645862",
"0  c #4C6271",
"q  c #776869",
"w  c #7B6F74",
"e  c #62686E",
"r  c #BF3A37",
"t  c #DB0304",
"y  c #D71A19",
"u  c #CC1B1B",
"i  c #E60203",
"p  c #EB0404",
"a  c #E20C0C",
"s  c #F20202",
"d  c #FD0D0B",
"f  c #F80908",
"g  c #FE110E",
"h  c #F4100F",
"j  c #ED1A16",
"k  c #F51513",
"l  c #FB1412",
"z  c #F41814",
"x  c #F81E1C",
"c  c #E3110E",
"v  c #F6201F",
"b  c #D12D2B",
"n  c #F62827",
"m  c #F43735",
"M  c #EB2B29",
"N  c #816E3E",
"B  c #A77C29",
"V  c #F3413F",
"C  c #956B50",
"Z  c #BE7C5B",
"A  c #856374",
"S  c #CD514D",
"D  c #EB4B48",
"F  c #F54543",
"G  c #F3504E",
"H  c #F25A57",
"J  c #E45651",
"K  c #E3615E",
"L  c #CA7C75",
"P  c #D37E79",
"I  c #CF6763",
"U  c #EC6D6A",
"Y  c #EB6864",
"T  c #F26A66",
"R  c #E9706D",
"E  c #EB7976",
"W  c #EC7B77",
"Q  c #F27673",
"!  c #A69A25",
"~  c #BBA023",
"^  c #A09319",
"/  c #F2DB18",
"(  c #EED30C",
")  c #FAE502",
"_  c #FEEB02",
"`  c #FAE608",
"'  c #FDEC10",
"]  c #E6CF31",
"[  c #D7C610",
"{  c #93827D",
"}  c #8A886D",
"|  c #B68776",
" . c #A5A261",
".. c #C8865F",
"X. c #D4B04A",
"o. c #C3837B",
"O. c #D6827C",
"+. c #D49672",
"@. c #ED827D",
"#. c #E7837F",
"$. c #EA917C",
"%. c #C8A86E",
"&. c #DFA67F",
"*. c #E8A37B",
"=. c #E0C459",
"-. c #DDC86B",
";. c #E4CE64",
":. c #043A87",
">. c #023D95",
",. c #023E9C",
"<. c #083E93",
"1. c #123C81",
"2. c #023FA0",
"3. c #0B4599",
"4. c #13479B",
"5. c #1C4483",
"6. c #2A569C",
"7. c #0240A5",
"8. c #0643A7",
"9. c #0145BA",
"0. c #0D48B4",
"q. c #0154BD",
"w. c #1754B8",
"e. c #134AA0",
"r. c #2656A7",
"t. c #767783",
"y. c #6C728E",
"u. c #416FBD",
"i. c #014ACB",
"p. c #0349C3",
"a. c #0C55D0",
"s. c #0056E4",
"d. c #847A82",
"f. c #758AA8",
"g. c #918080",
"h. c #A78E86",
"j. c #AD978E",
"k. c #BA968C",
"l. c #AC9A93",
"z. c #BDA39D",
"x. c #B6A199",
"c. c #969CA5",
"v. c #9FA3AC",
"b. c #B5ADB1",
"n. c #B7B1AF",
"m. c #C29C93",
"M. c #C99D94",
"N. c #D38E88",
"B. c #EB8985",
"V. c #EB8E8A",
"C. c #EA8783",
"Z. c #F08884",
"A. c #EC918D",
"S. c #EB9A95",
"D. c #E89A95",
"F. c #F19B97",
"G. c #D9A987",
"H. c #C6A097",
"J. c #C5A39A",
"K. c #C9A39A",
"L. c #C4AA9C",
"P. c #D8B69A",
"I. c #D7A08F",
"U. c #EBB38C",
"Y. c #F2B58C",
"T. c #ECA19D",
"R. c #F1A19D",
"E. c #E9AA83",
"W. c #C6ABA2",
"Q. c #CBAEA4",
"!. c #DAA9A2",
"~. c #CDB4AA",
"^. c #CBB0A7",
"/. c #D2B5AC",
"(. c #D1B4A8",
"). c #C7B9B6",
"_. c #D4BBB3",
"`. c #D9BDB5",
"'. c #EBA6A1",
"]. c #ECAAA5",
"[. c #EAAFA9",
"{. c #F2AAA6",
"}. c #ECB2AC",
"|. c #F4B1AD",
" X c #ECBAB4",
".X c #EBBBB5",
"XX c #F2B6B2",
"oX c #F2BBB6",
"OX c #F3BEB9",
"+X c #D4C08E",
"@X c #FCC298",
"#X c #E4D29D",
"$X c #DBC4BC",
"%X c #DECBBA",
"&X c #D4C7B5",
"*X c #ECC4BD",
"=X c #E6C5BE",
"-X c #F1C4BE",
";X c #E1CFA1",
":X c #A9AFC0",
">X c #DECAC3",
",X c #DACCC6",
"<X c #D4CDCF",
"1X c #E2CCC4",
"2X c #ECCAC4",
"3X c #EACDC7",
"4X c #F1CBC5",
"5X c #F1CBC5",
"6X c #E4D3CC",
"7X c #EBD4CD",
"8X c #E5D6C5",
"9X c #F1D3CC",
"0X c #EDD6D0",
"qX c #E6D8D1",
"wX c #EBDCD5",
"eX c #EEDFD9",
"rX c #E6D7D0",
"tX c #F1DBD4",
"yX c #F1DFD8",
"uX c #F0D6D1",
"iX c #EFE0DA",
"pX c #F2E4DE",
"aX c #F3E5E0",
"sX c #F7E9E3",
"dX c black",
"fX c black",
"gX c black",
"hX c black",
"jX c black",
"kX c black",
"lX c black",
"zX c black",
"xX c black",
"cX c black",
"vX c black",
"bX c black",
"nX c black",
"mX c black",
"MX c black",
"NX c black",
"BX c black",
"VX c black",
"CX c black",
"ZX c black",
"AX c black",
"SX c black",
"DX c black",
"FX c black",
"GX c black",
"HX c black",
"JX c black",
"KX c black",
"LX c black",
"PX c black",
"IX c black",
"UX c black",
/* pixels */
"  z l l k l                                                                                       ",
"j l l l l l g l                                             k l l l l z                           ",
"  z l l g g g g l c                                   k l l g g g l g l l                         ",
"  z l g g d d g g f p p i                       z l g g g g g g g g g g g l                       ",
"  z l g d d d d d d s s s s s s p k k k k k l l g g g g d d d d d d d g g g l z                   ",
"  j l d n G m Q F l l i p p p p p h g g g g g g d d d d d d d f d d d d d g g g z                 ",
"    m F U R.E |.V.Z.T a t i i i i d g d d d d d d d d d d d d h d d d d d d d g g l               ",
"    D V.{.|.{.oXwX0XV.K S b y t t d l l d d l l d d n F x d H Y n x d g n l d d d g l h           ",
"    J @.|.|.|.5XaXpX5X[.N.O.I u t x @.T d f m V d G F.|.W M V.'.F.A.m m G n n d d d d f p         ",
"    I.XXoX|.|.9XaXpX9X*XD.P O.I y n S.}.G h U H v }.|.S.|.Z.S.].9X4XF.E XXB.A.n F T n s s p       ",
"      *X9X5X5X2XpXpX5X2XD.P P L J B.'.7X7XB.-XA.F Z.S.T.|.|.XX.XpX9XoX X9X9XXXE {.B.M i i f j     ",
"      .XuXpXpXtXpXpXpX6X!.P P L D.oX5XtXyX*X*XS.A.9XtXOXXX4XtX6XpX9X5XaXpX9XtX5XT k i t p g l z   ",
"      1XpXpXaXaXpXaXpXwX`.L L o.}.5XyX9X}.2X'.E T.oX0X5X7XpXpXwXwX4XuXaXpXtXaX5XG s b b f l l l z ",
"      1XpXaXaXaXaXaXpXiX$XM.o.M.*XyXaX3X].3XV.B.*XtXpXtXtXpXaXpX6X7XpXaXpXpX9XoX#.y r D x m l l z ",
"      $XpXaXaXaXpXaXpXiX%XK.m._.wXaXaX7X}..X#.Y OXaXpXpXpXpXaXaXwXwXaXaXpX-X|.[.N.S O.G H @.l z   ",
"        wXaXaXaXpXpXpXpX1XH.m.`.eXaXaX7XT. XR E *XaXpXaXaXpXaXaXaXwXwXaXtXXX|.}.!.!.[.U T.Z.j     ",
"        7XaXaXaXpXpXpXpX7Xm.k.`.iXaXaX2X XtX].*XpXpXpXaXaXpXpXaXaXpXwXwXiXtX X=X1X`.3X9X@.m       ",
"        1XaXaXaXaXpXpXpXwXJ.m.$XpXaXaX}.}.tX].T.pXpXpXaXaXpXpXaXaXaXwX6X7XwX*X7X1X7XaXuXY         ",
"          pXaXaXaXpXpXpXwXL.K.%XpXaXaX3XS.S.B.3XpXpXpXaXaXaXpXpXaXaXwXiXqXwXwXwX7XpXaX7X          ",
"          wXaXaXaXpXpXaXwXQ.K.1XpXaXpXtX*XB.T.9XpXpXaXaXaXaXpXpXaXeXwXpXwXiXwXwXiXaXwX            ",
"          6XaXaXaXaXpXaXwX(.H.1XaXpXaX X'.S.V.}.pX7X7XpXpXaXpXiXiXwXpXpXwXwXwXpXaXyX              ",
"          `.pXaXpXiXaXaXpX(.K.1XaXaXaX*X9X.X7X0XpXwX$X1XpXaXaXiX1XwXpXpXiXwXpXaXpX1X              ",
"            wXaXeX6XaXaXpXQ.K.6XaXaXaXtX}.D.T.pXpXpX6X~.wXaXaXwX`.wXpXpXpXwXpXaXwX                ",
"            >XaXeX>XpXaXpX/.K.6XaXaXaX}.W A.A.yXpXpXpX`.6XaXaXwX_.wXpXpXaXwXpXwX                  ",
"              pXiX$XiXaXaX`.m.7XaXaXpXA.E A.V.tXpXpXpX6X$XpXpX7X`.pXpXpXaXpXwX/.            +.    ",
"              wXpX`.wXaXaX>Xk.6XpXpXpXB.E A.S.uXpXwXwXeX$XiXpX1X%XpXpXiXpXrX/.            E.+.    ",
"                eX_.7XaXaX7XH.1XwXpXtXS.]. X[.pXpXpXwXpX>XwXpX>X6XaXaXpX6XQ.        8.r.P.@X*.    ",
"                rX_.>XaXaXwXJ._.wXpX7XS.S.*XD.wXpXpXiXwXwXwXwX$XwXaXpX6X(.        4.w.a.z.Y.      ",
"                  `.$XaXaXeXL.W.pXpXpX*XV.*X.XwXiXpXpXwXwXwX7X$XpXpX6X/.      4.9.i.w.4.|         ",
"                  ~._.pXaXpXQ./.aXpXiX7X*X*X*X0XqXwXwXpXwXwX>X6XiX>X/.    2.9.a.a.p.=             ",
"                    Q.wXaXpX/.>XpXqX2XC.A.].R T.pXwX6XiXwXwX>X6X`.(.j.< <.9.i.4.< =               ",
"                    z.>XpXpXQ.$X6XwXV.R Y B.E C.tXpXwXqXwX>X/.Q._.x.1.,.9.i.3.*                   ",
"                      W.6XwXJ.~.wXpX*X*X~.7X9X3XpXpXpXwX>XQ.H.W.wX<Xe.p.>.> *                     ",
"                        ^.1Xz.7XpXeX7XrXy.v.<Xc.6XiXpXpX>XW.^.6XaXeXu.2.&                         ",
"                        h.Q._.pXeX%X+X;X7 8 e 0 ,X6XeXqX6XrXrXpXaXaXf.&                           ",
"                          J.7XiX~.Q.] / [ ^ !  .#X,XwXeXqXiXpXaXaXpXn.                            ",
"                          z.6XwXL.%./ _ ) ) ` ` ;.%XiXwXwXpXpXeX1X7X                              ",
"                          ,XwX$X/.X.) _ _ _ _ _ / -.8XwXpXpXpX_.Q.Q.                              ",
"                          6XwXrXP.] ` ' ` _ _ ` ` ] %X1XpXpX`.{ e                                 ",
"                          ).$X%X-.( / ] ` ) ( / / =.7X$X1X/.e 1 :.,.                              ",
"                        y.qXwX%.X.B $ } ! ~ ^ $ B X.G.x.{ 8 > :.,.<.                              ",
"                      5.:XsXwX%X~.h.5 d.9 q N $ 9 x.4 @ o , >.2.7.,                               ",
"                      6.<XsXaXaXQ.z.A +.G.G.I.7 q j.    % , 7.9.9.8.                              ",
"                      6.b.).rXaX~.6 4 C U.U.U.            > p.i.i.:.                              ",
"                    8.<.= = 3 t.j.# #   &.G.              % :.>., *                               ",
"                  <.7.7.>.>.:.> O . .                       @ 3 0                                 ",
"                0.9.9.9.7.8.4.,.> O X       C C               ).&X                                ",
"                  s.s.s.:.3.a.i.w.3.<., t.U.+...              b.n.                                ",
"                  3.q.q.- o , 8.r.p.7.1.m.@XY.*.              : 2                                 ",
"                    * & o +     = , :.< j.U.Y.*.              O O                                 ",
"                                      * 4 5 C Z               ; ; :                               ",
"                                      5 g.9 w 6               ; ; 2                               ",
"                                          w                   2 8 t.A                             ",
"                                          l.                    | | C                             ",
"                                          j.                      4                               "
};
