/* XPM */
static char *_dee9ba828d948fcdd1831683750095bIAt6Fn3CIQZyxXwi_19[] = {
/* columns rows colors chars-per-pixel */
"82 93 256 2 ",
"   c None",
".  c #121217",
"X  c #131C2A",
"o  c #19292C",
"O  c #062A35",
"+  c #1A2A34",
"@  c #183236",
"#  c #0C2D35",
"$  c #253738",
"%  c #2F2D34",
"&  c #211E23",
"*  c #4E3A36",
"=  c #563D25",
"-  c #6B6326",
";  c #153443",
":  c #042A54",
">  c #1C2755",
",  c #043257",
"<  c #0E304C",
"1  c #232A56",
"2  c #30354D",
"3  c #063568",
"4  c #033778",
"5  c #0C326D",
"6  c #2E376A",
"7  c #443C47",
"8  c #483C53",
"9  c #37494D",
"0  c #2A4B77",
"q  c #545054",
"w  c #695151",
"e  c #74665B",
"r  c #4D556F",
"t  c #685864",
"y  c #736C6F",
"u  c #51647E",
"i  c #2B4536",
"p  c #BB2524",
"a  c #DB0203",
"s  c #D50A09",
"d  c #CF0B0B",
"f  c #E40203",
"g  c #EC0203",
"h  c #E80B0A",
"j  c #F30303",
"k  c #F60C0A",
"l  c #FD0D0B",
"z  c #FA0605",
"x  c #FE110D",
"c  c #EC1A16",
"v  c #E81B17",
"b  c #F41613",
"n  c #FC1411",
"m  c #F21915",
"M  c #F31C1C",
"N  c #F91A18",
"B  c #DB211C",
"V  c #ED221C",
"C  c #C82221",
"Z  c #CD3634",
"A  c #F52726",
"S  c #EC3937",
"D  c #F43837",
"F  c #EE2D2C",
"G  c #9B6922",
"H  c #D4413D",
"J  c #F3413E",
"K  c #8F6F51",
"L  c #877570",
"P  c #B67667",
"I  c #A15F4C",
"U  c #D35653",
"Y  c #EB4846",
"T  c #F24946",
"R  c #EB5A58",
"E  c #F15855",
"W  c #ED524E",
"Q  c #E6605E",
"!  c #CB7B75",
"~  c #D47E79",
"^  c #D87B76",
"/  c #C7706A",
"(  c #E96967",
")  c #E9706E",
"_  c #E87976",
"`  c #F3706D",
"'  c #CA7B55",
"]  c #BA8D25",
"[  c #A4951D",
"{  c #CFB10F",
"}  c #D4AE35",
"|  c #D39B0F",
" . c #F4DC06",
".. c #ECD10E",
"X. c #FEEB01",
"o. c #FBE706",
"O. c #FAE817",
"+. c #E9D02C",
"@. c #F8EB2D",
"#. c #DDC325",
"$. c #B08A73",
"%. c #A58E5E",
"&. c #CEAF4F",
"*. c #CA8969",
"=. c #D9817C",
"-. c #C69678",
";. c #DB9A76",
":. c #D1896F",
">. c #EA817E",
",. c #E79F77",
"<. c #D9AB75",
"1. c #DB936B",
"2. c #DEC752",
"3. c #E5CF53",
"4. c #EEDF59",
"5. c #013A8C",
"6. c #043984",
"7. c #013D94",
"8. c #013E9B",
"9. c #0D3E94",
"0. c #173F83",
"q. c #013FA1",
"w. c #094299",
"e. c #174795",
"r. c #13438C",
"t. c #264B89",
"y. c #0141A5",
"u. c #0041AC",
"i. c #0B47A5",
"p. c #0044B4",
"a. c #0045BB",
"s. c #0849B9",
"d. c #1351B2",
"f. c #2A5EB0",
"g. c #3666B2",
"h. c #54678F",
"j. c #6C718A",
"k. c #5B689E",
"l. c #0046C3",
"z. c #0049CB",
"x. c #044AC6",
"c. c #004CD3",
"v. c #004ED8",
"b. c #0354DB",
"n. c #1C5CC0",
"m. c #005AE7",
"M. c #0E65DF",
"N. c #4C7CC6",
"B. c #877D83",
"V. c #75869B",
"C. c #928E90",
"Z. c #B78E84",
"A. c #AA948A",
"S. c #BC958B",
"D. c #B7968B",
"F. c #BC9C92",
"G. c #B59C93",
"H. c #AA948D",
"J. c #BAA39B",
"K. c #A7A19D",
"L. c #A49EA3",
"P. c #AFA9A9",
"I. c #97A2B9",
"U. c #C49D93",
"Y. c #CB9991",
"T. c #CF9189",
"R. c #EB8682",
"E. c #E98B87",
"W. c #EB928D",
"Q. c #E5918D",
"!. c #EC9A95",
"~. c #E99A95",
"^. c #F19C98",
"/. c #F18D89",
"(. c #C4A095",
"). c #C4A49B",
"_. c #CAA39A",
"`. c #C7A899",
"'. c #D5AE8E",
"]. c #E9AC85",
"[. c #F3B48B",
"{. c #EBA29D",
"}. c #E5A19C",
"|. c #F7BD93",
" X c #EEAC92",
".X c #C5ABA2",
"XX c #CCADA3",
"oX c #D4ADA5",
"OX c #CDB3AB",
"+X c #CAB1A7",
"@X c #D3B4AB",
"#X c #D5B7AA",
"$X c #D4BBB3",
"%X c #D9BCB4",
"&X c #DABFB8",
"*X c #CAB8B2",
"=X c #ECAAA4",
"-X c #E8ABA5",
";X c #F3AFAA",
":X c #F2A8A4",
">X c #ECB3AD",
",X c #E6B2AC",
"<X c #F4B1AD",
"1X c #EDBBB5",
"2X c #EEBEB8",
"3X c #E8B9B3",
"4X c #F2B6B1",
"5X c #F1B9B4",
"6X c #F0BEB8",
"7X c #FAC49B",
"8X c #DBC4BC",
"9X c #D8C3BA",
"0X c #D7C6AD",
"qX c #ECC2BC",
"wX c #E4C4BB",
"eX c #F1C2BC",
"rX c #F4CCA8",
"tX c #D2C09E",
"yX c #BDBCC5",
"uX c #C5BEC0",
"iX c #DDCBC3",
"pX c #D8CCC7",
"aX c #D5CDCC",
"sX c #EDC7C0",
"dX c #E2CCC4",
"fX c #EDCBC4",
"gX c #EECFC8",
"hX c #E1CEC7",
"jX c #F1CAC4",
"kX c #F1C8C3",
"lX c #E4D3CC",
"zX c #ECD4CD",
"xX c #E5D4C6",
"cX c #F1D3CC",
"vX c #E6D7D0",
"bX c #EAD7D0",
"nX c #EBDBD4",
"mX c #EEDFD8",
"MX c #E7D9D3",
"NX c #F1DCD5",
"BX c #F1DFD9",
"VX c #F1D6D0",
"CX c #EFE0DA",
"ZX c #F2E4DE",
"AX c #F3E5E0",
"SX c #F6E8E1",
"DX c black",
"FX c black",
"GX c black",
"HX c black",
"JX c black",
"KX c black",
"LX c black",
"PX c black",
"IX c black",
"UX c black",
/* pixels */
"    m n b   c N n                                                                                                                                                   ",
"c b n n n n n n n n n                                                                                     c m b b m                                                 ",
"m n b n n n n n n n n n b                                                                       V m b n n n n x x n c                                               ",
"c b n n n n n x x x x x n c                                                               c b n n n n n n n n n x n n m                                             ",
"B N n n n n x x x x x x n n h                                                         b n n n n n x x x x x n x x n n n b                                           ",
"B n n n n x x x l l x x x x l h s s                                             c b x x n x x x x x x x x x x x x x x n x b                                         ",
"  N n n x x x l l l l l x x l j j j j j g g g j j g s                     c b n n n x x x x x x x l l l l l l l x x x x x n m                                       ",
"  m n n x x l l l l l l l l l z j g j j j j g j j j j k b b b b b b n n n n x x x x x x x l l l l l l l l l l l l l x x x x x n m                                   ",
"  c n n x l l A M l M D A l l l k g g g j j f g g g g k n x x n x x x x x x x x x x l l l l l l l l l k l l l l l l l x x x x x x b V                               ",
"  v n n l l M /.R M R.:XW.J N N N g f f g g g f f f g k x x x x x x x x x x x l l l l l l l l l l l l k l l l l l l l l x x x x x x n m                             ",
"    b D J l R ;X!.Y ^.<X=XR T >.W j a a f g g g g g f k x x x x x l l l l l l l l l l l l l l l l l l k l l l l l l l l l l x x x x x n n                           ",
"    c ( R.Y {.<X<XW.R.<XsX}.qXZX:Xb Z C a a f f f f a k x x l l l l l l l l l l l l l l l l l l l l A M l l l l l l l n b l l l l l x x n n c                       ",
"    v ( :X!.<X<X;X<X:X5XBXZXbXqXE.F R.U C H C s f a d k l l l l l l l l l M l l l l l M D F l l z T W._ A l n l l l l A A l l l l l l x x n n b                     ",
"      F ( ~.<X<X;X<X<XkXZXZXZXzX=XW.=X/ / =.^ Z a a d k n S R W N l l l A D n l l n W W.:X:XR k M W.;X{.R.( R.D l l M D A b A l l l l l x x x z f                   ",
"      _ _ :X<X;X;X<X<XVXAXAXAXAXVX2X,X~.=.~ ~ ^ Z d d z F ^.4XE.M l l z S !.A l m ( ;X<X<X<X{.S b _ ;X~.<X<X5X:XT l R ` A A T A l l l l l x l j j f                 ",
"      -X<X4X<X<X;X;X4XNXAXAXAXZXcXgX2X=X=.~ ~ =.! Z d z F :XcX>XT n z z T 1XA z R cXeX<X{.:X<XW.R ) =X~.4XcXzX4X:XR >.NXR.W ~.!.A l A D D M z g j j f               ",
"      Y.4XVXeX;X6X4X<XVXZXAXAXnXqXcXwX=XT.~ ~ ~ =./ B F A R ~.nXcXR.M F !.1XM z W 6XcX!._ :X<X<X<X;X;X}.zXZXNX5X<X-XQ 2XZXqX=X:XF T ^.:X:X( k f g g j h             ",
"      T.>XBXcX6XNXgX<XqXnXAXAXVX4XzX2X-XT.~ ~ ~ ! / S ) =X^.2XzXZXzXE.^.jXzX( F D E _ _ ^.<X<X<X;X<X<X,XCXZXZX6X4XzX>XsXAXNX4X5X( >.4X;XE.S f f g g j x v           ",
"        -XcXZXNXAXZXfXgXZXZXZXZXzXnX3X-XT.~ ~ ~ ! / ^ :XcXVXeXgXZXZXcX1XNXzX<X!.4XjXcXNX6X;X<X<X5XcXfXdXmXZXZX2X5XZXAXAXAXgXkXZXsX=X^.R M j a f f g l n n c         ",
"        %XkXgXmXAXAXZXZXZXZXZXZXZXZXdXwXT.~ ~ ~ ! =.;X<X<X5XjXZXAXBXqXqX1X{.>.R >XZXZXZXkX<X4XqXNXZXnXlXnXZXZX6XeXZXAXZXZXfXNXZXZX5XT j z g a a f k x n n n m       ",
"        $XZXBXZXAXAXAXZXZXZXZXZXZXZXlXlXT.! ! ! P T.<X5XkXVXZXZXqX{.-XzX{.) _ W.;X5XqXnXcX5XbXnXZXZXZXnXlXZXNX4XcXAXZXAXZXzXZXAXZX4XS j j d C d g l x x x n n m v   ",
"        OXmXAXAXAXAXAXAXAXAXAXZXZXZXnXlXY.! ! ! P }.<XgXZXAXZXsXW.kXzXZXW.R._ >X4X4XfXZXNXeXZXCXZXAXAXZXlXnXqXqXZXAXZXZXCXZXZXZXcX4XQ j f p ! U k x n M N n n n b c ",
"          nXAXAXAXAXAXAXAXAXAXAXZXZXnXlXXXT.T.$.Z.%X1XzXAXAXZXbXqX~.qXNX) E.^.sXNXNXZXZXZXjXNXZXAXAXAXAXnXdXfXZXAXAXAXZXZXZXZXcX4X<XE.v s d U W l M D A n n n b m   ",
"          bXAXAXAXAXAXAXAXAXAXAXZXZXnXlX@X_._.S.XXdXzXZXAXAXAXVX_ =XzXfX_ R ) ,XZXZXZXZXAXBXnXZXZXAXAXAXZXlXCXAXAXAXAXZXZXzX6X<X<X=X3XQ Z I ^ T l E !.D n n b m     ",
"          dXAXAXAXAXAXAXZXZXAXAXAXZXnXzX@X_.U.S.oXhXCXAXAXAXZXbX3XgX=XqX_ _ R =XAXAXZXZXAXAXZXCXZXAXAXAXAXnXlXZXAXAXAXZXVX4X;X<X<X-XT.Z P Y.=X` b E.>XD n b c       ",
"          %XZXAXAXAXAXAXAXZXZXZXZXZXZXzX@X_.S.U.@XlXCXAXAXAXZXZXzXQ.3XqXY ) Y -XAXAXZXZXAXAXAXZXZXAXAXAXAXAXnXlXZXAXAXZXkX;X<X<X;X-X~.T.oX#XQ.W S 1XqXD b c         ",
"          XXmXAXAXAXAXAXAXZXZXZXZXZXAXnX@XU.S._.@XlXCXAXAXZXZXzX_ E.gXqXW W.~.wXZXZXZXAXAXAXAXZXZXAXAXAXAXAXAXnXlXZXZXZXzX6X<X<X>X3XdX8X%XfX~.E.>XfX^.F v           ",
"            nXAXAXAXAXAXAXAXZXZXZXZXZXZX%XU.S.S.OXlXZXAXAXAXZXNX{.gXZXbX-X6XZXZXZXZXZXAXAXAXAXAXCXZXAXAXAXAXAXZXnXlXCXCXZXZXsX<X3XzXlX@X#XsXcXZXeXT A B             ",
"            dXAXAXAXAXAXAXAXZXZXZXZXZXZXdXS.Z.S.@XlXZXAXAXAXAX3X,XZXZXVXeX{.-XZXAXZXZXAXAXAXAXAXCXZXAXAXAXAXAXAXZXiXiXlXZXZXfX,XdXnXdXoXzXZXAXBX^.A v               ",
"            9XZXAXAXAXAXAXAXZXZXZXZXZXAXlXS.U._.$XbXZXAXAXAXAX-X) 1XZXgX{.) }.ZXAXZXZXAXAXAXAXAXZXCXAXAXAXAXAXAXnXlXnXiXCXzXqXfXzXnXdXlXAXAXAXNX=XH                 ",
"            XXCXAXAXAXAXAXAXZXZXZXZXZXZXlXF._._.$XnXAXAXAXAXZXcXE.( 1X=XQ >XZXZXZXZXZXAXAXAXAXAXAXCXZXAXAXAXAXZXnXnXZXlXnXbXnXzXnXnXdXZXAXAXAXnXoX                  ",
"              zXAXAXAXAXAXAXZXZXZXZXZXZXiX(._._.$XnXAXAXAXAXZXNXfXqX_ R !.kXNXZXZXZXZXAXAXAXAXAXAXZXZXAXAXAXAXZXlXCXZXnXnXZXmXzXnXnXbXAXAXAXZXwX                    ",
"              &XAXAXAXAXAXAXAXZXZXZXZXZX8XXX_.U.9XnXZXZXZXZXZXnXbXfXW._ 1X2XZXZXZXZXZXAXAXAXAXAXAXAXCXZXAXAXZXnXlXZXZXmXvXZXnXbXZXnXZXAXAXZXdX                      ",
"              XXZXAXAXAXAXAXAXAXZXZXZXZXiXXX_.U.8XmXAXZXZXZXZXZX-X-X{.^._ E.ZXZXZXnXZXZXZXAXAXAXAXAXZXCXZXZXnXlXZXZXZXZXlXZXnXnXZXCXAXAXAXzX                        ",
"                bXAXAXAXAXAXAXAXZXZXZXZXlXXXU.U.9XmXAXAXZXZXZX=X( cXE.=X~.Q zXZXZXdX9XbXZXZXZXAXAXAXZXCXmXCXlXCXZXZXZXZXlXCXnXmXZXAXAXAXbXoX                        ",
"                8XAXAXAXAXZXZXAXAXAXAXAXnXXXU.(.8XZXAXAXZXAXZX>X1XZXQ.,XVXqXNXZXZXZX8X@XlXZXZXAXAXAXAXZXlXlXlXZXZXZXZXZXnXnXnXZXAXAXAXZX%X                          ",
"                OXZXAXAXAXmXlXAXAXAXAXAXnX).U._.8XZXAXAXAXAXZXzXVXZXnXnXNXZXAXZXZXZXbX#XXXdXZXAXAXAXZXZXiX9XvXZXZXZXZXZXnXvXmXZXAXAXAXzX                            ",
"                  bXAXAXAXnX8XZXAXAXAXZXCX).U._.iXZXAXAXAXAXZXZXqX-X~._ E.VXAXZXZXZXZXdXXXOXZXAXAXAXZXZX8X%XnXZXZXZXZXZXZXlXmXZXAXAXnX                              ",
"                  9XAXAXAXmX$XmXAXAXAXZXZX.XU._.dXZXAXAXAXAXZXNXR.>.>.W._ cXAXZXZXZXZXmX%XXXnXAXAXAXZXZX%XOXnXnXZXZXAXAXZXvXCXAXAXZX9X                              ",
"                  .XCXAXAXZX%XnXAXAXAXAXZXOXF._.dXZXAXAXAXZXZX=XY W.W.Q._ cXAXZXZXZXZXZXhXXXlXAXAXAXZXZX$XOXZXCXmXZXAXAXAXnXnXAXZX%X                                ",
"                    vXAXAXZX$XiXAXAXAXAXZX%XS._.dXZXAXAXAXZXZXE.( !.W.W.( fXAXZXZXZXZXZXnX@X9XZXAXZXZXCX@X$XZXZXCXmXAXAXAXZXCXZX8X                    *.            ",
"                    iXZXAXZX$X9XAXAXAXAXZX8XZ._.dXZXZXAXAXZXZX_ E _ R.=XE.1XAXZXnXnXZXZXZXiX$XZXZXZXZXbX@X8XZXZXZXmXCXAXAXAXZX8XU.                    ;.:.;.        ",
"                      nXAXZX%X*XZXAXAXAXZXhXS.S.iXZXZXAXZXZXNX) _ R.R.R.>.>XAXZXZXnXnXCXZXnXOXnXZXZXZXlXOXlXAXAXZXZXmXZXAXnX9X(.                  ;.].].;.:.        ",
"                      iXZXZX%XOXCXAXAXAXAXnX_.U.iXnXnXZXZXZXBX>.) W.>X=X1XNXZXZXZXZXnXzXZXZX$XlXZXZXCXdXOXnXAXAXZXZXZXmXlX%X(.              r.t.-.7X7X[.;.;.        ",
"                        mXZX9X.XnXAXAXAXAXCXXXS.8XlXmXZXZXZX2XW.;XjXcX=XQ.ZXZXZXZXZXZXzXnXZXiXiXZXCXmXdXOXZXAXAXAXAXZXlX$XU.              w.p.a.L.7X7X|.].*.        ",
"                        iXZX8X.XlXAXAXAXZXZX@XZ.9XiXCXZXZXzX-X_ _ 2XcX>X_ bXZXZXZXZXZXnXnXZXnXiXZXnXnX9X8XZXAXAXAXZXlX%X_.              t.d.l.z.k.7X7X[.1.          ",
"                          nX8XXXiXAXAXAXAXZX%XS.).iXZXZXZXCXbXfX>._ sX1X_ 8XZXZXZXZXZXZXnXCXCXiXZXnXnX*XnXAXAXAXZXlX%X_.            w.y.i.g.x.c.k.[.;.              ",
"                          iXdXXX$XAXAXAXAXZX8XS.D.hXAXAXZXZXZXqXE._ VXoX,XZXZXZXZXZXZXZXmXnXZXlXZXnXdX$XZXAXAXZXlX%XoX        9.0.i.a.z.c.n.f.p.u ].1.              ",
"                            9X@XOXZXAXAXZXZXdXU.A.nXAXAXZXZXZXwXqXqXNXhXnXCXlXlXnXZXZXZXZXnXCXiXZXnX%XiXAXZXmXdX%X@X      9.y.p.d.f.c.m.b.w.< ;                     ",
"                            .X@XXXnXAXAXAXZXlXU.J.ZXAXZXZXnXvXZXzXfXqX2X1XgXCXmXlXlXnXnXZXmXnXlXZXzXOXmXZXnX8X$X@XY.    0.y.p.l.z.N.b.m.y.; $                       ",
"                              ).XXiXAXAXAXZXbX(.OXAXZXZXlXlXzXE.E.~.-XQ.Y Q gXZXCXvXiXlXZXZXnXlXZXiX9XZXlX%X$X@XU.    4 q.p.l.v.c.t.r.4 ;                           ",
"                                `.$XZXAXAXZXnXF.$XAXZXlXiXCX_ W ) R.ZX_ R.W.~.AXZXZXnXlXnXZXnXlXZX9XlXdX@XXXXXY.  4 5.8.a.z.v.c.4 ; # $                             ",
"                                F.XXnXZXAXAXhXD.8XnX9XlXAX>XS W.R S E.Y ) _ ( ZXZXZXZXCXlXnXnXlXdXOX@XXX).9XOXt 6.7.y.a.l.v.c.6.@ $                                 ",
"                                  F.8XvXZXAX8XZ.@XOXlXZXZX{.) !.}.-XqX5X;X{.=XZXZXZXZXZXnXiXnXiX.X)._.).OXZXnXh.7.y.a.a.u.a.4 @                                     ",
"                                    .X8XnXZX@XZ.).lXZXZXZXZXZXSXaXP.ZXSXSXSXZXZXZXZXZXZXZXvXiX+XU._.(.F.vXAXAXI.y.a.z.8., , @                                       ",
"                                      XXiXnXXXA.iXAXZXZXZXlXnXZXaX0 P.lXnXaXL.nXvXZXZXZXZXnX9XG.U.(..XiXAXAXAXaXd.z.p.: #                                           ",
"                                      A..XlX).J.ZXZXZXZXlXhXiXhXK., 0 aXuXr u vXiXnXZXZXZXnXlX8X$X8XiXZXAXAXAXmXg.u., o                                             ",
"                                        D.$X).iXAXCXZXnX9X'.tXbX&.i , C.r : j.lXlXlXZXnXlXlXiXnXmXiXCXAXAXAXAXZXV., @                                               ",
"                                        $.XXXXCXAXlX8X8X.X} +.4.+.[ ; - [ < L.wXiX8XnXlXnXCXiXCXlXmXAXAXAXAXAXSXK.@                                                 ",
"                                          ).9XAXZXnXF.F.OX3.X. . . .[ ..{ %.3.2.MX$XnXZXZXlXlXZXZXZXZXAXAXAXZXZX*X                                                  ",
"                                          D.iXZXZXCXF.$.0X2.X.X.o.X.o.X. . .X.3.xX8XnXZXZXiXmXZXZXZXZXAXZXlXbXZX9X                                                  ",
"                                          J.lX$XiXZX+X%.#...X.X.X.X.X.X.X.X.X.+.2.wXhXZXCXiXZXZXZXAXAXnX$X@XlX9X                                                    ",
"                                          iXAXnX+XdX$X`.} o.X.X.X.X.o.o.X.X.X.o.+.2.'.ZXnXlXZXZXZXAXnX@XF.OXXXS.                                                    ",
"                                          nXSXSXlX$XoX&.2. .X.X.X.X.o.o.X.X.X.X. .2.tXMXlXlXAXZXZXmX$XF.).D.$.                                                      ",
"                                          nXiXvXZXdX#X&.o.X.o.O.O.o.X.X.o.O.o.X. .#.<.dXiXiXAXAXCX8XD.L q 1                                                         ",
"                                        u aX*X.XiXCX'.#.o.O.@.@.O.X.X.o.o.O.@.O...<.xXSXiX%XmXlX%XH.2 : 3 6.8.r.                                                    ",
"                                        j.lXZXlX$X<.....{ ..{ ] .. . . .{ { .. . .3.0XnX8XXX$XOXA.2 3 5.5.8.y.e.                                                    ",
"                                      0 yXnXZXZX-.] } %.G - q K.[ { G { [ = = G ] } &.oXXXJ.H.y ; 3 5.5.7.q.y.                                                      ",
"                                    5 k.CXAXAX8X-.'.0X.Xw * u V.j.- y e ] - % % H.#X$.$.t $ o : 6.5.7.7.8.u.6.                                                      ",
"                                    0.I.SXAXAXlXnXnXJ.J.P.w ;.L r t y r q G * % J.P.9 $ X X O 5.6.7.8.y.u.u.4                                                       ",
"                                  r.e.aXAXAXAXAXAXZX).A.iXt K '.Z.].].-.F.-.% % J.A.        < 5.4 y.u.p.a.a.y.                                                      ",
"                                  8.f.MXSXAXAXAXAXZXOX$.J.C.* ].|.7X[.|.|.;.    (.          o O 5.p.a.l.l.l.u.                                                      ",
"                                  8.g.aXaXvXZXSXSXCX$XL 7 C.& K |.].].|.[.      $.            + 7.l.l.z.z.c.7.                                                      ",
"                                w.q.0.7 2 9 q C.pXnX%XL . t & * <.'.'.].                      + 4 l.z.z.z.p.,                                                       ",
"                                y.y.8.3 : 3 : : 2 t H.L . o &     ;.;.                          O 4 6.4 4 , @                                                       ",
"                              0.y.y.y.8.5.8.8.7.6.: + % . . &                                     # # # # 9                                                         ",
"                          e.w.7.u.u.u.8.8.8.5.6.6.4 X . . .             K K                         y V.C.K.                                                        ",
"                          s.a.a.a.a.a.u.y.u.e.e.7.8.4 < % .             K %.=                         pXaX9X                                                        ",
"                          x.v.c.v.v.v.q.5.c.f.x.a.a.p.w.0 5 5   5 r $.,.' I *.                        pXMXpX                                                        ",
"                          d.m.m.m.m.m.y.: i.n.b.v.z.f.d.u.u.8.4 0 Y.7X7X[.*.*.                        L.aXL.                                                        ",
"                            i.b.m.m.m.w.O O , p.v.b.N.x.l.p.7.4 h.7X7X|.[.[.1.                      2 6 r 6 2                                                       ",
"                            $ , 4 p.3 O O O o ; 3 3 0 p.z.a.5.6.j.7X7X[.[.[.,.                        + > >                                                         ",
"                                @ ; < O # @         @ < 6.q.3 4 j.7X|.[.[.[.,.'                       X X +                                                         ",
"                                                        @ < # < 2 w P $.:.,.*.                        1 > 1 6                                                       ",
"                                                                % 7 7 7 7 K                           1 > 1 6                                                       ",
"                                                              w L H.t q y q                           1 > > 6                                                       ",
"                                                              K   G.t y J.$.w                         1 > > 6 6                                                     ",
"                                                                  K.t C.    e                         6 6 r h.j.t                                                   ",
"                                                                  P.B.A.                              w $.].].,.'                                                   ",
"                                                                  *XP.                                  $.P *.K w                                                   ",
"                                                                  K.J.                                  8 8 8 8                                                     ",
"                                                                  C.$.                                                                                              ",
"                                                                  A.                                                                                                "
};
