/* XPM */
static char *_dee9ba828d948fcdd1831683750095bIAt6Fn3CIQZyxXwi_22[] = {
/* columns rows colors chars-per-pixel */
"81 94 256 2 ",
"   c None",
".  c #121219",
"X  c #141C2E",
"o  c #211E2C",
"O  c #052935",
"+  c #183236",
"@  c #112B31",
"#  c #2C2F35",
"$  c #4C3A31",
"%  c #523B1C",
"&  c #6B5A28",
"*  c #173544",
"=  c #022954",
"-  c #1C2756",
";  c #053256",
":  c #11314D",
">  c #232A55",
",  c #2F364D",
"<  c #053667",
"1  c #033677",
"2  c #0C316C",
"3  c #2F3669",
"4  c #443C47",
"5  c #483C53",
"6  c #37494E",
"7  c #2A4B78",
"8  c #534F53",
"9  c #674F50",
"0  c #716559",
"q  c #4B5570",
"w  c #655863",
"e  c #78576B",
"r  c #736B6F",
"t  c #51647D",
"y  c #2C4637",
"u  c #DA0506",
"i  c #CF1615",
"p  c #E40304",
"a  c #EC0303",
"s  c #EA0B0B",
"d  c #F20304",
"f  c #FD0D0B",
"g  c #F80807",
"h  c #FE110E",
"j  c #F5100F",
"k  c #EA1A17",
"l  c #F51614",
"z  c #FB1311",
"x  c #F21916",
"c  c #F31C1B",
"v  c #F91917",
"b  c #DE211C",
"n  c #F2211E",
"m  c #D12F2C",
"M  c #F52423",
"N  c #F42C2A",
"B  c #EC3736",
"V  c #F43634",
"C  c #EE2A28",
"Z  c #A06923",
"A  c #F1413F",
"S  c #BC5650",
"D  c #8D6D52",
"F  c #877470",
"G  c #B47F64",
"H  c #99664F",
"J  c #CA5A55",
"K  c #DB5C59",
"L  c #D45B57",
"P  c #D54946",
"I  c #E94846",
"U  c #F24C4A",
"Y  c #F24644",
"T  c #E65A57",
"R  c #F25A57",
"E  c #EE504E",
"W  c #CB6D5A",
"Q  c #DB6562",
"!  c #CF7773",
"~  c #E96966",
"^  c #F46C68",
"/  c #ED716D",
"(  c #F3716D",
")  c #E97976",
"_  c #F47E7A",
"`  c #F47673",
"'  c #F2625E",
"]  c #BE2F2C",
"[  c #AF9022",
"{  c #A3941D",
"}  c #CEB00F",
"|  c #E5BB09",
" . c #D4AF36",
".. c #C38C21",
"X. c #F3DC08",
"o. c #ECD20D",
"O. c #FEEA01",
"+. c #FBE606",
"@. c #FAE919",
"#. c #EAD12B",
"$. c #F7E82B",
"%. c #DDC324",
"&. c #B08973",
"*. c #A0885A",
"=. c #CAAF53",
"-. c #CB8969",
";. c #C69678",
":. c #DA9A76",
">. c #D78972",
",. c #E9827D",
"<. c #F5827D",
"1. c #F8837D",
"2. c #E79E78",
"3. c #D9AC74",
"4. c #E6A078",
"5. c #D2855D",
"6. c #DDC553",
"7. c #E3CC51",
"8. c #E7D26F",
"9. c #013A8C",
"0. c #033984",
"q. c #013C94",
"w. c #013E9B",
"e. c #153F80",
"r. c #003FA1",
"t. c #08429A",
"y. c #174695",
"u. c #13438C",
"i. c #264B8A",
"p. c #0241A5",
"a. c #0142AC",
"s. c #0B47A6",
"d. c #0044B5",
"f. c #0045BB",
"g. c #0849B8",
"h. c #1451B2",
"j. c #2B5EB1",
"k. c #3566B3",
"l. c #53678F",
"z. c #6C718A",
"x. c #5B689E",
"c. c #0046C3",
"v. c #0049CC",
"b. c #044AC6",
"n. c #004CD3",
"m. c #004ED8",
"M. c #0354DB",
"N. c #1C5CC0",
"B. c #005BE7",
"V. c #1564DC",
"C. c #4C7CC7",
"Z. c #877D83",
"A. c #76859B",
"S. c #928D90",
"D. c #A9948A",
"F. c #BC958B",
"G. c #B6958B",
"H. c #BB9C93",
"J. c #AC938C",
"K. c #BAA39A",
"L. c #A7A09E",
"P. c #A59FA4",
"I. c #B0AAA9",
"U. c #97A2B9",
"Y. c #C3988E",
"T. c #C39C93",
"R. c #D28B86",
"E. c #EB8682",
"W. c #EC8E8A",
"Q. c #E88A85",
"!. c #F68481",
"~. c #F88481",
"^. c #F38985",
"/. c #F38E8A",
"(. c #EC928D",
"). c #E5928D",
"_. c #F2918E",
"`. c #EB9691",
"'. c #EC9A95",
"]. c #EC9E99",
"[. c #E49994",
"{. c #F19995",
"}. c #C4A59B",
"|. c #CAA49B",
" X c #C6A397",
".X c #D1B699",
"XX c #D7A98E",
"oX c #EAAC85",
"OX c #F3B58B",
"+X c #ECA29D",
"@X c #E2A19B",
"#X c #F1B191",
"$X c #C5ACA3",
"%X c #CCADA3",
"&X c #CCB3AA",
"*X c #C9B2A7",
"=X c #D2B4AB",
"-X c #D6B5AA",
";X c #D4BCB4",
":X c #D9BDB4",
">X c #D8BBB4",
",X c #CEB0A9",
"<X c #EBAAA4",
"1X c #EAA9A4",
"2X c #ECB3AD",
"3X c #E5B1AA",
"4X c #ECB6B1",
"5X c #ECBAB4",
"6X c #EDBEB9",
"7X c #E4BBB4",
"8X c #F0BAB4",
"9X c #F0AFAA",
"0X c #FAC49A",
"qX c #D6C1BA",
"wX c #DBC4BC",
"eX c #D9C3B9",
"rX c #D8C6AD",
"tX c #EDC2BC",
"yX c #E1CABD",
"uX c #F0C8B4",
"iX c #BDBCC5",
"pX c #C5BFC0",
"aX c #DDCBC3",
"sX c #D8CCC7",
"dX c #DED1CB",
"fX c #D0CBCD",
"gX c #E2CCC4",
"hX c #EDCBC4",
"jX c #E8CCC5",
"kX c #F0CEC7",
"lX c #E4D3CC",
"zX c #ECD4CD",
"xX c #E7D4C7",
"cX c #F0D4CD",
"vX c #E6D7D0",
"bX c #E7D8D1",
"nX c #EBDBD4",
"mX c #EEDFD8",
"MX c #E9D8D2",
"NX c #F1DCD5",
"BX c #F1DCD5",
"VX c #EFE0DA",
"CX c #F2E4DE",
"ZX c #F3E5E0",
"AX c #F6E8E1",
"SX c black",
"DX c black",
"FX c black",
"GX c black",
"HX c black",
"JX c black",
"KX c black",
"LX c black",
"PX c black",
"IX c black",
"UX c black",
/* pixels */
"            c                                                                                                                                                     ",
"x z z       x v z                                                                                                                                                 ",
"l z l x z   k x z z z                                                                                       x z z z                                               ",
"l l x z z z z l z z z z                                                                           k l z z z l z z z k                                             ",
"k x z z z z z h h h h z l                                                                     l l z z z z z z l z z z x                                           ",
"b z z z z z h h h h h h z l                                                             l l z z z z h h h h h h h z z z                                           ",
"k z z z z h h f f f h h h h s                                                       l z z z h h h h h h h h h h h h h h l                                         ",
"  z z z h h f h f f f f h h g s s p a a a p d d d d d d l                       l z h h h h h h h h h f f f f f h h h h z                                         ",
"  l z z h h v U c f l f f f f g g d d d d a p a d d d a l l l l l l x x     l z h h h h h f f h f f f f f f f f f f h h h l                                       ",
"  k z z h f A 1.U N ^ R n h f g d a a a d d p u u u s s z h h z z z z h h z h h h h f f f f f f f f f f g f f f f f f h h h z z                                   ",
"  k z V M M ( ~.` U _ 1.^ U v N c a p a a a a a p p p j h h h h h h h h h h h f f f f f f f f f f f f f g f f f f f f f h h h h h                                 ",
"    n ( R R ~.~.~.( ` ~.]./ B ,.R d u i p p p p p a u s h h h h h f f f f f f f f f f f f f f f f f M U c f f f f f f f f f h h h h z                             ",
"    n ^ _ _ ~.~.~.~._ {.hX5X1XBX'.k I P i B P m u p u s f f f f f f f f f f f f f f f f h v z f f M ` <.Y f f f f f f f f f f f f f h z                           ",
"    b N E _ ~.~.~.~.~.8XCXCXzXBX2X~ ) Q P T T T m u u s f z z f f f f f z M f f f f f V R ( ' M g V 1._ / U N h f f f V N f f f f f f h z z                       ",
"    L R ^ ~.~.~.~.~./.cXZXCXCXZXkXW.E.) ~ K K T L i u g l R ^ U l f f f c Y z f f z U _ ~.~.1.R c M ~ _ ) ~._ R v f M ^ V l M f f f f h h h z                     ",
"      E.^._.~.~.^.1.{.BXZXZXCXCXhX1X@X) Q K K K L P i g M _ {.E.c f f g B (.M f l ~ /.~.1._ ~.<.( ^ _ _ ` {.+X^.^ V R ( Y V R c f f f f h z g d                   ",
"      ,.].kX_./.6X_._.zXCXZXZXzX<X4X3X) Q K K K L J b c c ,.kX2XY l g g E 4XN g E zXcX].T / ~.~.~.~.1._ ).BXzX`.1.(.1X+X/ E (.( N f M Y R R V d a a               ",
"      >.<XCX<X4XZXtXW.3XmXZXZXhXW.tX-X) Q K K K L J B E ~ ) 4XmXzXQ.V U `.tXB z R {.9X]./ 1.~.~.~.~.^.E.7XCXCX<X1.2XNXhXcX6X+X~.R c ^ ~.~.( C a a a a             ",
"      R.(.kXMXCXZXCXkXnXCXZXCXBXhXNX-XR.W L L L J J T _ 5XcXtXtXCXNX].!.6XkX<.' {.8XtXcX8X1.~.!.(.8XtX3XlXCXCX5X!.6XZXZXCXCX+X+X2X/ _ _ Y x d p p a d j           ",
"        3X<X6XmXZXZXZXCXZXZXZXCXCXCXwX:X! L L L J W ~.~._.+X].hXZXNX+X].tX1X~ U ].CXZXCXcX/.(.5XgXCXVXMXbXmXCXtX^.tXZXZXZXBX1XcXCXkX^.Y d d a u p a f z l         ",
"        gXBXBXCXZXZXZXZXZXZXZXCXCXCXgXwXY.J J J S ! ~./.{.9XcXBXtX2X@XzX5X(.E ^ ^.<X5XjXCX].2XCXmXCXCXCXMXnXCX5XW.cXZXCXCXzXtXCXCXcX/.B d a u u p g h z l         ",
"        eXCXZXZXZXZXZXZXZXZXZXZXCXCXzXwX|.&.W J S ! E.4XBXCXCXzXtXtXkXCX1X+X,.` ~.!.].zXZX5X9XCXmXZXZXZXVXvXzX'.2XCXZXZXCXzXnXZXZXtX^.I a p m m s f h h z l       ",
"        =XmXZXZXZXZXZXZXZXZXZXZXCXCXMXwX%X|.Y.&.T.%X`.tXZXZXCXCXtX+XcXCX].(.1X2XtXhXMXCXZXBX4XmXVXZXZXZXCXMX>X5XBXZXZXZXCXCXCXCXtX_.,.T s u m T c f z n z z l     ",
"          MXZXZXZXZXZXZXZXCXZXZXZXCXMXwX%X|.T.T.=X:X7XBXZXZXCXCX2XkXtXzX1X(.Q.2XCXCXCXCXZXZXnXmXmXCXZXZXCXCXvXmXZXZXZXZXCXCXhX+X^.1.,.Q.P ] m I z n U V z z z k k ",
"          lXZXZXZXZXZXZXCXCXZXZXZXZXCXgX%X|.T. X=XqXmXZXZXZXCXCXmX6X2XhX,.) / ).CXCXCXCXZXZXZXZXnXCXZXZXZXCXVXlXVXZXZXZXCXcX_.1.1.<.R.R.L ! Q R z R W.N h z x l x ",
"          gXZXZXZXCXZXZXCXCXCXCXCXCXZXlX%X XY.|.=XeXVXZXZXZXCXmX<X).5X6XT ) ~ [.CXZXCXZXZXZXZXZXmXCXZXZXZXZXCXCXbXVXZXZXCX4X1.1.1.,.>.! R.|.) ^ M W.tXY z x x x   ",
"          wXCXZXZXZXZXZXZXCXCXCXCXCXZXmX,XT.T. X=XeXCXZXZXZXCXNX`.(.tXzXQ.'.hXmXCXZXCXZXZXZXZXZXVXVXZXZXZXZXZXZXVXMXVXCXCXhX'.1.1.,.R.|.wXyX).I I 6XtXY l k       ",
"          =XmXZXZXZXZXZXZXCXCXCXCXCXCXCX>XT.T.Y.=XwXCXZXZXZXZXzX+XkXCXNX<X`.hXCXZXZXCXZXZXZXZXZXCXmXZXZXZXZXZXZXZXCXlXbXnXCXcX].E.|.:XgXwX7X{.'.tXtXW.C k         ",
"            MXZXZXZXZXZXZXCXCXCXCXCXCXCXgXF.F. X=XgXCXZXZXZXZX7X[.CXCXhX+X,.Q.zXZXCXCXZXZXZXZXZXCXmXCXZXZXZXZXZXZXVXbXlXlXCXCX2XQ.>XgXwX%X2XhXCX6XU C b           ",
"            gXZXZXZXZXZXZXZXCXCXCXCXCXCXgXT. X X&XlXZXZXZXZXCXtX) E.zXtX) ) hXCXZXCXCXCXZXZXZXZXZXCXCXZXZXZXZXZXCXnXmXCXvXmXtX+X-XgXlXaXzXCXZXCX_.N k             ",
"            ;XCXZXZXZXZXZXZXCXCXCXCXCXCXgX X X X=XMXZXZXZXZXCXNX`./ 1X'.T 1XzXCXCXCXCXCXZXZXZXZXZXCXnXCXZXZXZXZXCXlXCXCXMXlXjXzXgXgXzXlXZXZXZXNX'.P               ",
"            H.nXZXZXZXZXZXZXCXCXCXCXCXCXaX|. XT.;XnXZXZXZXZXZXzX2XhX).~ E.].zXCXCXCXCXCXZXZXZXZXZXZXmXmXZXZXZXCXnXnXCXCXnXVXCXMXgXMXMXVXZXZXZXBX-X                ",
"              lXZXZXZXZXZXZXZXCXCXCXCXCXaX%X XT.eXmXZXZXCXCXCXmXzX3X5X) ].W.kXCXCXCXCXZXZXZXZXZXZXZXCXnXVXZXCXmXvXCXCXCXmXnXCXzXjXmXmXZXZXZXCXwX                  ",
"              wXZXZXZXZXZXZXZXZXCXCXCXCXaX%XT.T.:XmXZXCXZXCXCXMX).1X2XE.) T hXCXCXmXnXCXZXZXZXZXZXZXZXCXMXCXVXbXVXCXCXCXVXnXCXlXzXCXCXZXZXCXjX                    ",
"              =XCXZXZXZXZXZXZXZXCXCXCXCXlX%XT.T.;XmXZXZXCXCXCX2X/ zX`.W.2XQ.hXCXCXmXaXgXVXCXCXZXZXZXZXCXmXlXlXmXCXCXCXCXCXMXCXlXmXCXZXZXZXjX                      ",
"                MXZXZXZXZXCXZXZXZXZXCXZXMX%XF. XeXCXZXZXCXZXCX3X5XCX1X5XCXNXCXCXCXCXMXeXgXmXZXZXZXZXZXZXCXaXaXnXCXCXCXCXCXnXVXzXCXZXZXZXmX                        ",
"                aXZXZXZXZXmXmXZXZXZXZXZXnX}.T.|.wXCXZXZXZXZXCXtX9XBXCXzX6XhXCXCXCXCXCXgX>XwXCXZXZXZXZXZXCXeXgXMXCXCXCXCXCXnXmXMXCXZXZXCXwX                        ",
"                &XCXZXZXZXnXlXZXZXZXCXCXVX}. X|.eXCXZXZXZXZXCXCXkX+X+X) '.cXCXCXCXCXZXmXwX;XmXZXZXZXZXZXmX;XgXMXmXZXCXCXCXmXMXVXZXZXZXjX                          ",
"                  lXZXZXZXnXlXZXZXCXCXCXmX$XT.|.wXCXZXZXZXCXCXCX1X,.~ +X'.kXZXCXCXCXZXCXlX;XlXZXZXZXZXZXMX=XaXCXbXCXCXZXZXVXMXCXZXZXmX-X                          ",
"                  qXZXZXZXnXaXCXZXZXZXZXCX&XT.|.wXCXZXZXZXCXCX2XT +X`.1X) kXZXCXCXCXCXCXmXeXaXZXZXZXZXCXzX=XlXCXmXMXCXZXZXCXnXCXZXCX>X                            ",
"                  $XVXZXZXmXqXvXZXZXZXZXCX;XF.|.wXCXZXZXZXCXCX]./ '.(.2X) 6XZXCXmXCXCXCXCXgXqXCXZXZXCXCXgX;XnXCXCXnXmXZXZXCXmXZXCXgX                              ",
"                    bXZXZXmX;XaXZXZXZXZXZXeXG.|.wXCXZXZXZXCXCX+X!.`.W.'.`.5XCXCXnXgXMXCXCXzX;XnXZXCXCXCXwXeXVXCXCXCXMXCXZXZXZXCXwX                    -.          ",
"                    aXCXZXmX;XqXZXZXZXZXCXgXG.T.gXCXCXZXZXCXNXE.~ Q.`.(.].2XCXCXCXMXgXlXCXmXeXlXCXCXCXMXwXaXCXZXCXCXmXMXZXCXmXwX X                    :.-.:.      ",
"                      nXZXVX:X;XCXZXZXZXZXlXF.T.gXVXCXCXCXCXcX~ E ,.E.,.`.hXCXCXCXCXzXwXMXCXaXaXCXCXmXMXwXlXCXZXZXCXCXnXMXlXeX%X                  :.oXoX:.-.      ",
"                      lXCXVXeX&XmXZXZXZXZXzXT. XgXnXVXCXCXCXNXE.` <X2X+X+XCXCXCXCXCXCXjXgXCXlXwXCXVXlXlXqXnXCXZXZXZXZXmXaX;X|.              u.i.;.0X0XOX:.:.      ",
"                        nXVXeX%XmXZXZXZXZXmX|.G.aXbXCXCXCXMX<X) W.5X6X+X) BXCXCXCXCXCXmXaXmXmXaXCXVXlXlXwXCXCXZXZXZXVXgX:X%X              t.d.f.P.0X0XOXoX5.      ",
"                        gXCXwX}.lXZXZXZXCXmX,XF.;XlXmXCXCXMXhX'.,.4XhX4XQ.zXCXCXCXCXCXCXlXlXCXlXCXCXgXeXgXCXZXZXZXVXlXwX=X              i.h.c.v.x.0X0XOX>.        ",
"                          nXwX$XwXZXZXZXZXCX=XF.}.aXCXCXCXVXhX2X) Q.zX2X).zXCXCXCXCXCXCXmXlXCXbXVXCXwX;XMXZXZXZXVXgXwX=X            t.p.s.k.b.n.x.#X:.            ",
"                          lXaX%X;XCXZXZXCXCXwXF.G.aXZXZXCXCXCXhXQ.) cX3X3XVXCXCXCXCXCXCXCXlXnXMXVXCXeX;XCXZXCXmXgXaX>X        p.u.s.f.v.n.N.j.d.t oX5.            ",
"                            eX=X&XVXZXCXCXCXgXT.J.nXZXZXCXCXCX7X7X5XNXjXzXCXmXMXnXCXCXCXCXnXlXlXVXmX&XaXZXCXmXgXwX>X      q.a.a.h.j.n.M.M.t.: *                   ",
"                              &X%XnXZXZXCXCXlXT.K.CXZXCXCXnXMXNXzXhX6X5XtXzXVXVXnXlXbXnXCXCXMXMXCXMX$XnXCXMXgXwX=XT.    9.p.d.c.v.C.M.B.p.* #                     ",
"                              }.%XaXZXZXZXCXzX X&XZXCXCXlXlXjX).Q.[.<X).I ~ kXCXmXMXdXlXVXCXnXMXCXaX;XVXlXwX:X,XY.    1 w.d.c.m.n.i.u.1 *                         ",
"                                }.;XZXZXZXZXMXH.;XZXCXlXgXCX) T / E.CX` E.(.'.ZXCXVXMXlXlXCXMXlXCXqXlXgX;X%X}.T.  1 9.w.d.v.m.n.1 * + +                           ",
"                                K.$XnXCXZXZXgXG.wXmXwXlXCX4XB `.T B Q.I / ) ~ CXCXCXCXmXdXnXnXlXlX&X=X%X}.qX&Xw 0.q.r.f.c.m.n.0.+ #                               ",
"                                  H.wXvXCXZXwXG.=X&XlXCXCX+X~ `.@X3XtX8X9X+X1XCXCXCXCXCXnXdXMXaX$X X|. X&XCXnXl.q.p.f.f.a.f.1 +                                   ",
"                                    $XwXmXCX=XG.}.lXCXCXCXCXCXAXsXI.CXCXCXAXCXCXCXCXCXCXCXbXaX*XT. X XH.vXZXZXU.p.f.v.t.; ; +                                     ",
"                                      %XaXmX%XJ.aXCXCXCXCXlXMXCXfX7 I.lXMXsXP.nXvXCXCXCXCXMXqXH.T. X$XaXZXZXZXfXh.v.d.; @                                         ",
"                                      D.$XlX}.K.CXCXCXCXlXgXaXgXL.; 7 dXpXq t bXdXnXCXCXCXmXlXwX;XwXaXCXZXZXZXmXk.a.; +                                           ",
"                                        G.;X}.aXZXVXCXmX;X.X.XMX=.y ; S.q = z.lXlXlXCXmXlXlXaXnXmXdXVXZXZXCXZXCXA.; +                                             ",
"                                        &.%X$XVXZXlXwXwX$X .#.8.#.{ * & { : P.yXaXwXmXlXnXVXaXVXlXmXZXZXZXCXCXAXL.+                                               ",
"                                          }.qXZXCXMXH.H.=X7.O.X.X.X.{ o.} *.7.6.bX;XmXCXZXlXlXCXCXCXCXCXZXZXCXCX*X                                                ",
"                                          G.aXVXCXVXH.&.rX7.O.O.+.O.X.O.X.X.O.7.xXwXnXZXCXaXmXCXCXCXCXZXCXlXvXCXqX                                                ",
"                                          K.lX;XaXCX*X&.%.o.O.O.O.O.O.O.O.O.O.o.6.yXgXCXVXgXCXCXCXZXZXnX;X=XlXeX                                                  ",
"                                          sXZXMX*XgX;X X .+.O.O.O.O.+.+.O.O.O.+.#.6..XCXnXlXCXCXCXZXmX=XH.&X,XF.                                                  ",
"                                          MXAXAXlX>X.X=.6.X.O.O.O.+.+.+.O.O.O.O.X.6.rXbXlXlXZXCXCXmX;XH.}.G.&.                                                    ",
"                                          nXaXMXCXaX-X=.X.O.+.@.@.+.O.+.+.+.+.+.X.%.3.yXaXaXZXZXVXwXG.F 8 >                                                       ",
"                                        t sX=X$XaXmX.X%.+.@.$.$.@.O.O.+.@.@.@.$.#.3.yXZXaX;XmXlX:XJ., ; < 0.w.u.                                                  ",
"                                        z.dXCXlX;X3.%.o.| | } [ | +.X.X.} } | o.X.7.rXMXwX%X;X=XD., < 9.9.w.p.y.                                                  ",
"                                      7 iXnXCXCX;... .*.Z & 8 L.[ } { } [ % % Z .. .=..X%XK.J.r * < 9.9.q.r.p.                                                    ",
"                                    2 x.VXZXZXwX;.XXeX$X0 $ t A.z.& r 0 [ & o # J.-X&.&.w # o = 0.9.q.q.w.a.0.                                                    ",
"                                    e.U.AXZXZXlXmXnXK.K.I.9 :.F q w r q 8 Z $ # K.I.6 + X X O 9.0.q.w.p.a.a.1                                                     ",
"                                  u.y.fXZXZXZXZXZXCX}.J.aXw D XXF.oXoX;.H.;.# # K.D.        : 9.1 p.a.d.f.d.p.                                                    ",
"                                  w.j.nXAXZXZXZXZXCX&X&.K.S.$ oXOX0XOXOXOX:.     X          @ O 9.d.f.c.c.c.a.                                                    ",
"                                  w.k.sXdXvXCXAXAXVX;Xr 4 S.o D 0XXXXXOX#X      &.            @ q.c.c.v.v.n.q.                                                    ",
"                                t.r.e.4 , 6 w S.sXMX>XF . w o $ 4.XXXXoX                      + 1 c.v.v.v.d.;                                                     ",
"                                p.p.w.2 = < = = * w J.F . o o     4.:.                          O 1 0.1 1 ; +                                                     ",
"                              e.p.p.p.w.9.w.w.q.0.= # # . . .                                     @ O O O 6                                                       ",
"                          y.w.q.a.a.a.w.w.w.9.0.0.1 X . . .             D D                         r A.S.L.                                                      ",
"                          g.f.f.f.f.f.a.p.a.y.y.q.w.1 : # .             D *.9                         fXfXqX                                                      ",
"                          b.m.n.m.m.m.r.9.n.j.b.f.f.d.t.7 2 2   2 q &.4.W Z -.                        sXvXsX                                                      ",
"                          h.B.B.B.B.B.p.= s.N.M.m.v.j.h.a.a.w.1 7  X0X0XOX-.-.                        P.fXP.                                                      ",
"                            s.M.B.B.B.t.O O ; a.m.M.C.b.c.d.q.1 l.0X0XOXOXoX>.                      , 3 q 3 ,                                                     ",
"                            # ; 1 g.< O O O @ * < < 7 d.v.f.9.0.z.0X0XOXOXOX2.                        X - >                                                       ",
"                                + * O O @ +         + ; 0.r.< 1 z.0XOXOXOXOX2.W                       o X o                                                       ",
"                                                        + : O : , 0 G &.;.4.5.                        > - > 3                                                     ",
"                                                                # 4 4 4 4 D                           > - - 3                                                     ",
"                                                              9 F D.w 8 r 8                           > - - 3                                                     ",
"                                                              D   H.w r K.&.9                         > - - 3 3                                                   ",
"                                                                  L.w S.    0                         3 3 q l.z.e                                                 ",
"                                                                  I.Z.D.                              9 &.oXoX2.W                                                 ",
"                                                                  &XI.                                  &.G G D 9                                                 ",
"                                                                  L.K.                                  5 5 5 5                                                   ",
"                                                                  S.&.                                                                                            ",
"                                                                  D.                                                                                              "
};
