/* XPM */
static char *_dee9ba828d948fcdd1831683750095bIAt6Fn3CIQZyxXwi_23[] = {
/* columns rows colors chars-per-pixel */
"79 94 256 2 ",
"   c None",
".  c #121117",
"X  c #141B2C",
"o  c #211E2C",
"O  c #052935",
"+  c #182E33",
"@  c #183237",
"#  c #0F2B30",
"$  c #33383B",
"%  c #2A2C34",
"&  c #4C3A31",
"*  c #50381B",
"=  c #6B5B28",
"-  c #032A54",
";  c #1C2756",
":  c #043257",
">  c #11314A",
",  c #232A55",
"<  c #2E354E",
"1  c #053667",
"2  c #023677",
"3  c #0C316C",
"4  c #2F3668",
"5  c #453C4D",
"6  c #39494C",
"7  c #2A4B78",
"8  c #524A52",
"9  c #685252",
"0  c #4B5570",
"q  c #655963",
"w  c #78586D",
"e  c #746C6E",
"r  c #60666C",
"t  c #2C4636",
"y  c #D90708",
"u  c #DA1917",
"i  c #C81C1B",
"p  c #E30203",
"a  c #EC0203",
"s  c #E70B0B",
"d  c #F20303",
"f  c #FD0D0B",
"g  c #F60909",
"h  c #FD100E",
"j  c #F6110F",
"k  c #EA1916",
"l  c #F51513",
"z  c #FB1311",
"x  c #F51C1A",
"c  c #F61916",
"v  c #EA100F",
"b  c #F7201F",
"n  c #CF2C29",
"m  c #EA2725",
"M  c #F42826",
"N  c #EA3735",
"B  c #F43836",
"V  c #F5312F",
"C  c #DF211E",
"Z  c #996122",
"A  c #ED403F",
"S  c #BA4C45",
"D  c #8D6D53",
"F  c #887572",
"G  c #B97A69",
"H  c #965C55",
"J  c #C64B46",
"K  c #D94C49",
"L  c #DC504D",
"P  c #D5504D",
"I  c #DB5654",
"U  c #CA5450",
"Y  c #EA4A48",
"T  c #F34947",
"R  c #E75654",
"E  c #F35855",
"W  c #EF514E",
"Q  c #C67B50",
"!  c #F4615E",
"~  c #E6605E",
"^  c #D96B68",
"/  c #D97875",
"(  c #C9726D",
")  c #E86966",
"_  c #F56D69",
"`  c #F36864",
"'  c #E9716E",
"]  c #F5726E",
"[  c #F8726E",
"{  c #E97976",
"}  c #F57571",
"|  c #F97571",
" . c #F27D7A",
".. c #F67975",
"X. c #B18B24",
"o. c #A7961A",
"O. c #D2B310",
"+. c #E3B90A",
"@. c #D5AF36",
"#. c #C38C21",
"$. c #F3DB06",
"%. c #EED40E",
"&. c #FEEB02",
"*. c #FAE606",
"=. c #FBEB1B",
"-. c #EAD12B",
";. c #F7E72C",
":. c #DEC424",
">. c #AE8A72",
",. c #A0885A",
"<. c #CAAE53",
"1. c #C69678",
"2. c #DA9A76",
"3. c #CE8A6A",
"4. c #EA827E",
"5. c #EC937B",
"6. c #DAAD74",
"7. c #DC936B",
"8. c #DEC64F",
"9. c #E4CD54",
"0. c #E8D26E",
"q. c #013A8C",
"w. c #033984",
"e. c #013C94",
"r. c #013E9B",
"t. c #153F80",
"y. c #003FA1",
"u. c #08429A",
"i. c #174795",
"p. c #15428C",
"a. c #264B8A",
"s. c #0241A5",
"d. c #0142AC",
"f. c #0C48A5",
"g. c #0144B5",
"h. c #0045BB",
"j. c #0849B9",
"k. c #1451B2",
"l. c #2A5EB1",
"z. c #3666B3",
"x. c #54678F",
"c. c #6C718A",
"v. c #5B699E",
"b. c #0046C4",
"n. c #0049CB",
"m. c #054AC5",
"M. c #004CD3",
"N. c #004ED8",
"B. c #0354DB",
"V. c #1C5CC0",
"C. c #005BE7",
"Z. c #1564DC",
"A. c #4C7CC7",
"S. c #877E83",
"D. c #75869B",
"F. c #928E90",
"G. c #A99489",
"H. c #BC958C",
"J. c #B5958B",
"K. c #BC9D94",
"L. c #B59C93",
"P. c #AD938B",
"I. c #B9A49B",
"U. c #A6A19D",
"Y. c #A59EA4",
"T. c #AFAAA9",
"R. c #97A2B9",
"E. c #C3988E",
"W. c #C39C93",
"Q. c #CA9D96",
"!. c #CD9089",
"~. c #EB8682",
"^. c #EB8A85",
"/. c #EC8E8A",
"(. c #E58C87",
"). c #F18B87",
"_. c #EB928D",
"`. c #E6938E",
"'. c #EB9A95",
"]. c #EA9994",
"[. c #F19995",
"{. c #F2928E",
"}. c #C4A59B",
"|. c #CBA49B",
" X c #C6A498",
".X c #D2B897",
"XX c #D6A88E",
"oX c #E8AC85",
"OX c #F3B48A",
"+X c #EBA29D",
"@X c #E5A19A",
"#X c #F8BC93",
"$X c #EDAC8E",
"%X c #CDADA4",
"&X c #C5ACA3",
"*X c #CDB3AA",
"=X c #C9B2A7",
"-X c #D2B4AB",
";X c #D4B9AE",
":X c #DAB4A9",
">X c #D4BBB3",
",X c #D9BEB5",
"<X c #D6BFB8",
"1X c #CFB0A8",
"2X c #ECAAA4",
"3X c #E9A9A3",
"4X c #ECB3AD",
"5X c #E2B3AD",
"6X c #ECBBB5",
"7X c #EDBFB8",
"8X c #E9B8B2",
"9X c #F0B2AC",
"0X c #FBC49C",
"qX c #FCC599",
"wX c #DCC4BC",
"eX c #D7C2B8",
"rX c #D8C7AD",
"tX c #E4C4BD",
"yX c #EDC3BD",
"uX c #E1CABE",
"iX c #EDCAB5",
"pX c #BDBCC5",
"aX c #C5BFC0",
"sX c #DDCBC3",
"dX c #D7CBC7",
"fX c #D4CDCC",
"gX c #E1CCC4",
"hX c #EDCAC3",
"jX c #EBCBC4",
"kX c #F0CCC5",
"lX c #E4D3CC",
"zX c #ECD3CC",
"xX c #E8D6C7",
"cX c #F0D4CD",
"vX c #E6D7D0",
"bX c #EAD7D0",
"nX c #E7D8D1",
"mX c #EBDBD4",
"MX c #EEDFD8",
"NX c #E5DCDA",
"BX c #F1DBD4",
"VX c #F1DCD5",
"CX c #EFE1DA",
"ZX c #F2E4DE",
"AX c #F3E5E0",
"SX c #F6E8E1",
"DX c black",
"FX c black",
"GX c black",
"HX c black",
"JX c black",
"KX c black",
"LX c black",
"PX c black",
"IX c black",
"UX c black",
/* pixels */
"            x                                                                                                                                                 ",
"            c c z                                                                                                                                             ",
"      c z   k c z z                                                                                                                                           ",
"    c z z z z l z z z z                                                                             l z z z c k   c k                                         ",
"  c z z z z z h h h h z l                                                                     l c z z z z z z l l z z l                                       ",
"k z z z z h h h h h h h z k                                                               l z z z h z h h h h h h z z z                                       ",
"k z z z z h h f f f f h h j                                                           l z h h h h h h h h h h h h h h h l                                     ",
"k z z z h h h M z f f f h h g     p a d a s                                       z h h h h h h h h f f f f f f f h h h z                                     ",
"  c z z h f M ` M c M z f f f g g a d d d d y           k l l l l l           l j h h f f f f f f f f f f f f f f f h h h l                                   ",
"  k z c h z E | W B _ E x j f g g a a a d d a y y y s v z h h z z z z j l l j h h f f f f f f f f f f f f f f f f f f h h j j                                 ",
"  u x W M V ] | [ W _ | ` W c M c a p p a a a a a p p g h h h h h h h h h h f f f f f f f f f f f f f x c f f f f f f f h h h h                               ",
"    m ] E ! ..| | _ ` ..+X] N ).E d y u y s u u p a p s h h f f f f f f f f f f f f f f f f f f f f B ` B f f f f f f f f f f f h j                           ",
"    m E _ ] | | | | ] [.zX6X3XmX].m Y K n K L Y u p y s h f f f f f f f f f f f f f f f l M M f f x _ | E c f f f f f f f f f f f f h                         ",
"    n M Y ] | | | | ..hXAXZXzXZX7X] ' ) I L R R K u y s f c x j f f f f z b f f f f j B ! [ _ B g c ! ] ` ! B z f f f V M f f f f f f h h                     ",
"      ` ] | | | | [ ).BXAXZXZXAXkX4./ ' R L R R L n y g c E _ T c f f f c T l f f z T [ | | | _ A B E ] ) | ] E M f M ] T z M f f f f f h h                   ",
"       .).[.| ..{...{.ZXAXAXZXZXhX+X@X) I L L L P J u g b _ {.~.b f f f V /.M f c ) )..._ ` | | } | | ] ) {.[. ._ T !  .W V ` x f f f f z c c g               ",
"      { 2XVX).'.BX'. .tXZXAXZXjX'.4X:X^ I P P P P J m M x { cX4XT z g f W 4XM g W hXBX2XW ` | | | | [ ] (.BXBX/.] ).yX+X] R _.` V f b T E ` T g a             ",
"      4.2XZX7XzXAXcX+X8XCXAXZXhX^.hX:X^ I P P P P S N E { _.hXVXcX~.B W /.yXT x ` [.9X4X~.[ | ] }  .^.4.6XZXZX2X} +XZXMXhX6X3X| ` M W ..| E m a a a a         ",
"      !.^.4XzXZXAXAXZXZXZXAXZXZXzXZX1XQ.( P P P J S ` } 4XcX6X6XZXVX_.} 6XyX] E +XcXBXZXkX .| ~.].kXbX5XbXCXZXyX..2XAXAXAXZX+X_.6X(.] _ B g d p p a g j       ",
"        7X9XyXZXAXAXZXZXZXAXAXZXZXZX<X,X!.U P P J U | [  .).].cXZXkX(.].7X'.W T /.VXZXMXVX)./.zXbXZXZXMXMXMXZXhX{ 8XAXAXZXMX'.hXAXVX{.E a d a p p a f z       ",
"        lXAXAXAXAXAXAXAXAXAXAXZXZXZXgX,X|.( U J S ( } ).+X6XBXBX6X7X5XVX6X+XW E .._.+X5XZX2X[.ZXmXZXZXZXZXbXZX7X4.hXAXZXZXmX8XZXZXZX{.E s a y y p g f z l     ",
"        wXZXAXAXAXAXAXAXAXAXAXAXAXAXbX,X%XQ.G U G / { 4XZXZXZXVXzX4XzXZX2X+X'.{  .4.+XbXAXzX'.BXmXZXAXAXAXmXtX`.3XZXAXAXZXmXbXAXZXyX .~ v p i n v f h h z l   ",
"        >XCXAXAXAXAXAXAXAXAXAXAXZXZXmXwX%X|.Q.H.%X-X`.hXAXAXZXZX4X7XBXmX2X_._.2XkXcXZXZXAXZXhXzXmXZXAXAXZXZXgXtXZXAXAXAXZXZXZXmX8X4.} ) m y i Y x f z x l z l ",
"          bXAXAXAXAXAXAXZXZXAXAXAXAXMXwX%X|.W.|.-X>XtXZXAXAXZXZXzXBX6XmX4X'.`.'.ZXZXZXZXAXAXZXZXmXZXAXAXZXZXCXnXZXAXAXAXAXZXhX_.| [ ' / ^ J n N l b W B l z l ",
"          gXAXAXAXAXAXAXZXZXZXAXAXAXZXgX%X|.W.|.-X>XCXAXAXAXAXZXzX4XyXhX^.{ ) { ZXAXAXZXAXAXAXAXMXCXAXAXAXZXZXCXbXZXAXAXZXBX).[ | } / !.( 3.^ E l E /.M h z c ",
"          wXZXAXAXZXAXAXZXZXZXZXZXZXAXbX%XW.Q.|.-X>XCXAXAXAXZXVX'.(.4XyX' ^.(.8XZXAXZXAXAXAXAXAXZXMXAXAXAXAXAXAXMXbXZXAXZXzX .[ | } ^ ( !.|.' ` M /.6XT z c   ",
"          ,XZXAXAXAXAXAXAXZXZXZXZXZXAXZX-XW.W.W.*X<XZXAXAXAXZXZX+X+XkXVX+X'.zXZXAXAXZXZXAXAXAXAXZXbXZXAXAXAXAXAXAXCXbXCXMXZX6X4.} / / Q.wXtX`.Y W 7XyXT l     ",
"            mXAXAXAXAXAXAXZXZXZXZXZXAXZXwXH.H.W.%XwXZXAXAXAXZXyX`.BXAXzX'.~.+XVXAXAXZXZXAXAXAXAXAXbXCXAXAXAXAXAXAXZXlXvXlXZXZX7X{ !.,XgXwX5X/._.yXyX^.m       ",
"            zXAXAXAXAXAXAXZXZXZXZXZXAXZXwXH.W.|.%XgXAXAXAXAXAX8X(.yXMX7X'.{ 3XVXAXZXZXZXAXAXAXAXAXMXMXAXAXAXAXAXAXZXbXCXlXCXZX6X/ %XgXgX%X5XyXVX7XT m C       ",
"            sXAXAXAXAXAXAXAXZXZXZXZXZXZXsXW.|.|.*XlXAXAXAXAXZXmX^.R yX4X) _.zXZXZXZXZXZXAXAXAXAXAXZXmXZXAXAXAXAXZXmXMXZXmXmXtX3X5XwXlXlXbXAXAXMX/.M k         ",
"            >XZXAXAXAXAXAXAXAXZXZXZXZXZXsX X|.W.-XbXAXAXAXAXAXzX'.3X'.{ R _.7XZXZXZXZXZXAXAXAXAXAXAXMXmXAXAXAXAXZXnXZXZXMXbXmXMXgXgXbXbXZXAXAXMX_.L           ",
"              MXAXAXAXAXAXAXZXZXZXZXZXZXsX|.|.E.>XbXAXAXZXAXAXzXjXyX3X' '.].hXZXZXZXZXAXAXAXAXAXAXAXZXnXCXAXAXZXmXmXZXZXCXMXZXMXwXlXmXZXAXAXAXMX:X            ",
"              zXAXAXAXAXAXAXAXAXZXZXZXZXgX%XW.W.,XMXAXAXAXAXZXZXyX].yX4.4.' hXZXZXZXZXAXAXAXAXAXAXAXAXCXmXZXZXmXmXZXZXZXZXmXZXbXwXMXCXAXAXAXZXeX              ",
"              gXAXAXAXAXAXAXAXAXZXZXZXZXgX%XE.W.-XMXAXZXAXAXZXyX' 7X6X4.'.) tXZXZXMXlXMXZXAXZXAXAXAXAXZXMXnXMXbXZXZXZXZXZXmXZXzXlXZXZXAXAXZXuX                ",
"              *XZXAXAXAXAXAXAXAXZXZXZXZXbX%XH.W.,XCXAXAXAXAXZX4X`.VX3X+XzXyXzXZXZXZXlXgXbXZXZXAXAXAXAXAXZXgXlXbXZXZXZXZXZXmXZXlXbXAXAXAXZXxX                  ",
"                lXAXAXAXAXZXZXAXAXAXAXAXmX}.E.|.wXZXAXAXAXAXZX4X4XZXhXkXzXzXZXAXZXZXZXgXwXlXZXAXAXAXAXAXZXgXwXlXZXZXZXZXZXMXMXlXCXAXAXAXmX                    ",
"                wXAXAXAXAXMXmXAXAXAXAXAXmXK.W.|.wXZXAXAXAXAXZXcX2XyXZX6X3XhXZXZXZXZXAXmXwXwXCXAXAXAXAXAXZXwXsXlXmXZXZXZXZXMXmXbXZXAXAXZXeX                    ",
"                %XZXAXAXAXmXvXAXAXAXAXZXbXK.|.|.wXZXAXZXAXAXZXZXBX].) { '.cXAXZXZXZXAXZXlXwXbXAXAXAXAXAXZXeXwXCXvXZXZXAXAXZXbXMXAXAXAXzX                      ",
"                  bXAXAXAXmXlXAXAXZXAXZXmX}.Q.|.wXZXAXAXZXZXZXBX(.`.4.4X+XcXZXZXZXZXAXZXbXwXsXAXAXAXAXAXMX>XsXZXmXbXZXAXAXZXmXZXAXAXMX,X                      ",
"                  wXAXAXAXMXsXCXAXAXAXZXZX-XW.|.wXZXAXAXAXZXZX2XR '._.3X) hXAXZXZXZXZXZXZXgXwXZXAXAXAXAXbX;XlXZXZXnXMXAXAXZXmXZXAXMX,X                        ",
"                  *XMXAXAXMXeXlXAXAXAXAXZX<XH.|.wXZXAXAXAXZXZX2X).4X'.6X4.7XAXZXlXlXZXZXZXzX<XmXAXAXZXZXgX<XbXZXZXCXnXZXAXAXZXAXZXwX                          ",
"                    lXAXAXMX<XsXAXAXAXAXAXwXJ.|.sXZXZXAXAXZXZX+X4._._.+X2XyXZXZXCXgXgXmXZXMXwXvXAXZXZXCXsXwXCXZXZXZXmXmXAXAXAXCXuX X                  3.      ",
"                    sXZXAXMX<X<XAXAXAXAXZXsXJ.W.gXZXZXAXAXZXVX~.` _._.{ ^.6XZXZXZXMXgXwXMXZXgXlXZXZXZXbXgXsXZXAXZXZXZXnXZXZXbXwX1X                    2.3.2.  ",
"                      MXAXCXwX>XZXAXAXAXAXlXH.W.gXCXZXZXZXZXcX) Y ~./.~.'.cXZXZXZXZXMXwXlXZXlXsXZXZXbXlXsXlXZXAXAXAXAXMXlXlXwX-X                  2.oXoX2.3.  ",
"                      lXZXZXwX*XCXAXAXAXAXbXW.W.gXmXZXZXZXZXBX~. .2X4X'.(.ZXZXZXZXZXZXzXwXCXMXsXZXZXlXlXwXmXZXAXAXAXAXMXsX,X%X              p.a.!.0X0XOX2.2.  ",
"                        mXZXwX&XmXAXAXAXZXMX|.J.sXbXCXZXZXmX3X) ~.4X8X'.) BXZXZXZXZXZXZXwXlXZXsXCXZXgXgXsXZXAXAXAXAXMXgXwX-X              u.g.h.Y.0X0X#XoX3.  ",
"                        lXZXwX}.lXAXAXAXAXCX-XH.<XlXMXZXZXbXhX[./.8XhX6X(.zXCXZXZXZXZXZXzXsXZXlXMXZXgX;XlXZXAXAXAXMXlXwX;X              a.k.b.n.v.0X0XOX7.    ",
"                          mXwX&XsXAXAXAXAXZX>XJ.}.sXZXZXZXMXyX2X{ /.kX4X`.bXZXZXZXZXZXZXZXsXMXnXCXZXwX*XmXAXAXAXMXlXgX;X            u.s.f.z.m.M.v.$X2.        ",
"                          lXsX%X>XZXAXAXZXZXwXH.J.sXAXAXZXZXZXjX(.{ cX3X3XmXCXCXZXZXZXZXZXlXbXmXCXZX,X>XZXAXZXMXgXgX>X          p.s.h.b.M.V.l.d.0 oX3.        ",
"                            wX-X*XZXAXAXZXZXgXW.P.mXAXAXZXZXZXtX7X7XVXgXzXZXmXvXbXCXZXZXZXCXnXmXCXZX*XsXAXZXMXgXgX>X|.        d.k.l.M.B.B.u.> >               ",
"                            >X*X&XbXAXAXZXZXgXW.I.ZXAXZXZXMXbXMXzXhX7X6XyXzXmXmXbXbXbXmXZXZXnXbXZXmX&XmXZXbXgXwX-XW.        g.b.n.A.B.C.s.> @                 ",
"                              }.&XsXAXAXAXZXzXW.*XAXZXZXlXlXzX(.(.].2X_.Y ) kXZXmXmXlXlXCXZXbXbXZXgX>XCXlXtX,X%XE.      s.g.b.N.M.a.p.2 >                     ",
"                                }.>XZXAXAXZXbXK.>XAXZXlXgXZX{ R ' ~.ZX{ ^._.'.AXZXCXbXlXvXZXmXlXZXeXlXgX>X%X}.E.    q.r.g.n.N.M.2 > @ @                       ",
"                                K.&XmXZXAXAXgXJ.wXMXeXlXZX8XN `.R N ~.Y ' { ) ZXZXZXZXMXlXmXmXlXlX*X;X%X}.eX*Xq w.e.y.h.b.N.M.w.@ $                           ",
"                                  K.sXvXZXAXwXJ.-X*XlXZXZX+X) '.@X3XyX6X9X+X3XZXZXZXZXZXmXlXnXsX&X X|. X*XZXmXx.e.s.h.h.d.h.2 @                               ",
"                                    &XwXMXZX;XJ.}.lXZXZXZXZXZXSXfXT.ZXZXSXSXZXZXZXZXZXZXZXnXsX=XW.|. XK.vXAXSXR.s.h.n.r.: : @                                 ",
"                                      &XsXMX%XP.sXZXZXZXZXlXbXZXdX7 T.lXbXfXY.mXvXZXZXZXZXbXeXL.W. X&XsXAXAXAXfXk.n.g.- #                                     ",
"                                      P.&XlX}.I.ZXZXZXZXlXgXsXgXU.: 7 fXdX0 0 nXlXmXZXZXZXMXlXwX>XwXsXZXAXAXAXCXz.d.: +                                       ",
"                                        J.>X}.sXAXCXZXMXeX.X.XbX<.t : F.0 - c.lXlXlXZXMXlXlXsXmXMXsXCXAXAXZXAXZXD.: +                                         ",
"                                        >.%X&XCXAXlXwXwX&X@.-.0.-.o.@ = o.3 Y.uXsXsXMXlXmXCXsXCXlXMXZXAXAXZXAXSXU.+                                           ",
"                                          }.eXAXZXbXK.L.*X9.&.$.$.$.o.%.O.,.9.8.nX>XMXZXAXvXlXZXZXZXZXZXAXAXZXZX=X                                            ",
"                                          J.sXZXZXCXK.>.rX8.&.*.*.*.$.&.$.$.*.9.xXwXbXZXZXgXMXZXZXZXZXAXZXlXvXZXeX                                            ",
"                                          I.lX>XsXZX=X>.:.%.&.&.&.&.&.&.&.&.*.%.9.uXgXZXCXsXZXZXZXAXAXmX>X-XlXwX                                              ",
"                                          dXAXbX=XgX;X X@.*.&.&.&.&.*.*.&.&.&.*.-.9..XZXmXlXZXZXZXAXMX-XK.*X1XH.                                              ",
"                                          bXSXSXlX<X.X<.8.$.&.&.&.*.*.*.&.&.&.&.%.9.rXnXlXlXAXZXZXMX>XK.}.L.>.                                                ",
"                                          mXsXbXZXgX;X<.$.*.*.=.=.*.&.*.*.*.*.*.$.:.<.gXsXsXAXAXZXwXJ.F 8 ,                                                   ",
"                                        0 fX;X&XsXCX.X:.*.=.;.;.*.&.&.*.=.=.=.;.-.6.uXAXsX>XMXlX,XP.< - 1 w.r.p.                                              ",
"                                        c.lXZXlX;X6.:.%.+.+.O.X.%.*.$.$.O.O.+.%.%.8.rXbXwX&X;X-XG.< 1 q.q.r.s.i.                                              ",
"                                      7 pXmXZXZX1.#.@.,.Z = 6 U.X.o.X.O.o.* * Z #.@.<..X%X}.P.e < 1 q.q.e.y.s.                                                ",
"                                    3 v.CXAXAXwX1.XXeX&X9 & r D.c.= e e o.= o $ P.;X>.>.q $ o - w.q.e.e.r.d.w.                                                ",
"                                    t.R.SXAXAXlXMXmXI.I.T.8 2.F 0 q e 0 8 X.& $ I.T.6 % # X O q.w.e.r.s.d.d.2                                                 ",
"                                  p.i.fXAXAXAXAXAXZX}.P.sXq D oXJ.$XoX1.K.1.$ % I.G.        > q.2 s.d.g.h.h.s.                                                ",
"                                  r.l.NXSXAXAXAXAXZX*X>.I.F.& oX#XqXOX#X#X2.     X          + O q.g.h.b.b.b.d.                                                ",
"                                  r.z.fXfXvXZXSXAXCX>XF 5 F.o D qXoXXX#XOX      >.            + e.b.b.n.n.M.e.                                                ",
"                                u.y.t.5 < 6 q F.dXbX,XF . q o & 6.XXXX$X                      + 2 b.n.n.n.g.:                                                 ",
"                                s.s.r.3 - 1 - - < r P.e . o o     2.2.                          O 2 w.2 2 : @                                                 ",
"                              t.s.s.s.r.q.r.r.e.w.- % % . . .                                     # O O O 6                                                   ",
"                          i.r.e.d.d.d.r.r.r.q.w.w.2 X . . .             D D                         e D.F.U.                                                  ",
"                          j.h.h.h.h.h.d.s.d.i.i.e.r.2 > % .             D ,.=                         dXfXeX                                                  ",
"                          m.N.M.N.N.N.y.q.M.l.m.h.h.g.u.7 3 3   3 0 >.2.Q Z 3.                        fXNXdX                                                  ",
"                          k.C.C.C.C.C.s.- f.V.B.N.n.l.k.d.d.r.2 7  X0X0XOX3.3.                        Y.fXY.                                                  ",
"                            f.B.C.C.C.u.O O : d.N.B.A.m.b.g.e.2 x.#X0X#XOXOX7.                      < 4 0 4 <                                                 ",
"                            $ : 2 j.1 O O O + > 1 1 7 g.n.h.q.q.c.0X0XOXOXOX5.                        o ; ,                                                   ",
"                                @ > O O @ @         + : w.y.1 2 c.0X#XOXOXOX5.Q                       o X o                                                   ",
"                                                        + > O > < 9 G >.3.5.3.                        , ; , 4                                                 ",
"                                                                $ 5 8 5 5 H                           , ; ; 4                                                 ",
"                                                              9 F G.q 8 e 8                           , ; ; 4                                                 ",
"                                                              D   L.q e I.>.9                         , ; ; 3 4                                               ",
"                                                                  U.q F.    9                         4 4 0 x.c.w                                             ",
"                                                                  T.S.G.                              9 >.$XoX5.Q                                             ",
"                                                                  *XT.                                  >.G 3.H 9                                             ",
"                                                                  U.I.                                  8 5 5 5                                               ",
"                                                                  F.>.                                                                                        ",
"                                                                  G.                                                                                          "
};
