/* XPM */
static char *_dee9ba828d948fcdd1831683750095bIAt6Fn3CIQZyxXwi_3[] = {
/* columns rows colors chars-per-pixel */
"82 93 256 2 ",
"   c None",
".  c #121218",
"X  c #141C2A",
"o  c #062A35",
"O  c #182A33",
"+  c #173237",
"@  c #142A2E",
"#  c #33383B",
"$  c #292E34",
"%  c #211E22",
"&  c #4B3A1B",
"*  c #4E3A35",
"=  c #68592A",
"-  c #153443",
";  c #042A54",
":  c #1C2755",
">  c #043257",
",  c #0E304C",
"<  c #232A56",
"1  c #30354E",
"2  c #043568",
"3  c #033778",
"4  c #0D326C",
"5  c #2E376A",
"6  c #443C47",
"7  c #493C53",
"8  c #37494C",
"9  c #2B4B78",
"0  c #575055",
"q  c #695151",
"w  c #74665B",
"e  c #4B556F",
"r  c #645863",
"t  c #75586E",
"y  c #736C6F",
"u  c #51647E",
"i  c #2B4636",
"p  c #B63B37",
"a  c #B81717",
"s  c #CB0809",
"d  c #DD0102",
"f  c #D80706",
"g  c #D11815",
"h  c #E40203",
"j  c #EC0203",
"k  c #E50D0B",
"l  c #F30202",
"z  c #F50B0B",
"x  c #FD0D0C",
"c  c #FA0706",
"v  c #FD120E",
"b  c #F5110E",
"n  c #EC1A16",
"m  c #E71C18",
"M  c #F51614",
"N  c #FB1312",
"B  c #F31915",
"V  c #F61B1A",
"C  c #F70F10",
"Z  c #F7201E",
"A  c #D23634",
"S  c #EC2827",
"D  c #F42423",
"F  c #F42A29",
"G  c #ED3A38",
"H  c #F23634",
"J  c #ED302E",
"K  c #DE211D",
"L  c #9B6222",
"P  c #F0403E",
"I  c #906F50",
"U  c #877470",
"Y  c #B87A6A",
"T  c #A15852",
"R  c #C65551",
"E  c #EA4948",
"W  c #EA5755",
"Q  c #F0504D",
"!  c #CA7453",
"~  c #EA625F",
"^  c #D77A76",
"/  c #CE736E",
"(  c #E86966",
")  c #E8716E",
"_  c #EA7572",
"`  c #E87975",
"'  c #F37C77",
"]  c #B18A24",
"[  c #A5961D",
"{  c #CEAF10",
"}  c #D6B333",
"|  c #CD9617",
" . c #F4DB06",
".. c #EACE0E",
"X. c #FEEB01",
"o. c #FAE506",
"O. c #FAE914",
"+. c #EAD32F",
"@. c #F8EB32",
"#. c #DCC434",
"$. c #B08A74",
"%. c #A48D5E",
"&. c #CBAB50",
"*. c #CB8867",
"=. c #CA837D",
"-. c #D3857F",
";. c #C69778",
":. c #DA9A76",
">. c #D58E68",
",. c #E9817D",
"<. c #E79F77",
"1. c #D9AB75",
"2. c #D88F67",
"3. c #DEC651",
"4. c #E4CE55",
"5. c #EEDF5D",
"6. c #013A8C",
"7. c #033984",
"8. c #013D94",
"9. c #013E9B",
"0. c #113D8A",
"q. c #013FA1",
"w. c #08429A",
"e. c #174795",
"r. c #15428A",
"t. c #264B89",
"y. c #0241A5",
"u. c #0042AC",
"i. c #0B47A5",
"p. c #0043B4",
"a. c #0045BB",
"s. c #0849B9",
"d. c #1351B3",
"f. c #2A5EB1",
"g. c #3666B3",
"h. c #6C728A",
"j. c #4D6FAD",
"k. c #5F638D",
"l. c #0046C3",
"z. c #0049CB",
"x. c #044AC6",
"c. c #004CD3",
"v. c #004ED8",
"b. c #0354DB",
"n. c #1C5CC0",
"m. c #005AE7",
"M. c #0165EC",
"N. c #2965C6",
"B. c #4C7DC7",
"V. c #877D83",
"C. c #75859B",
"Z. c #928E90",
"A. c #B4948B",
"S. c #BA948A",
"D. c #BD9C92",
"F. c #B59C93",
"G. c #AB938A",
"H. c #BAA49B",
"J. c #A6A29E",
"K. c #A6A5A7",
"L. c #B7ACAB",
"P. c #9CA1B2",
"I. c #D68983",
"U. c #C49A8C",
"Y. c #C49D94",
"T. c #CF9A92",
"R. c #CE918A",
"E. c #E98985",
"W. c #EB928D",
"Q. c #E4918C",
"!. c #EC9691",
"~. c #EC9A95",
"^. c #E79B96",
"/. c #F19B95",
"(. c #F28C87",
"). c #C4A49B",
"_. c #C9A39A",
"`. c #C5A397",
"'. c #D5AD91",
"]. c #E9AB84",
"[. c #ECB28C",
"{. c #F3B48A",
"}. c #EBA39D",
"|. c #E4A19B",
" X c #F1A39D",
".X c #F7BD93",
"XX c #C5ACA2",
"oX c #CCACA3",
"OX c #CCB3AA",
"+X c #CAB1A7",
"@X c #D2B4AB",
"#X c #D6B7AC",
"$X c #D4BBB3",
"%X c #D9BDB5",
"&X c #CEB5AD",
"*X c #EBABA5",
"=X c #E9ABA5",
"-X c #ECB2AC",
";X c #E4B3AD",
":X c #F2B3AE",
">X c #EDBBB5",
",X c #EABBB5",
"<X c #F3BAB5",
"1X c #F2BEB9",
"2X c #F1B6B0",
"3X c #F2ADA7",
"4X c #FAC49C",
"5X c #FBC598",
"6X c #DBC5BC",
"7X c #D7C3B9",
"8X c #D6C4AD",
"9X c #ECC3BC",
"0X c #E3C5BD",
"qX c #F1C1BC",
"wX c #EBCFB1",
"eX c #D2C09E",
"rX c #BCBEC6",
"tX c #C5BFC0",
"yX c #DDCBC4",
"uX c #D8CBC6",
"iX c #DCD1CC",
"pX c #D0CDCE",
"aX c #E2CCC3",
"sX c #EDCBC4",
"dX c #EACBC4",
"fX c #F1CAC5",
"gX c #F1CCC6",
"hX c #E4D3CC",
"jX c #EDD3CC",
"kX c #E7D7C9",
"lX c #F1D3CC",
"zX c #E7D7D0",
"xX c #E6D8D2",
"cX c #EBDBD4",
"vX c #EEDFD8",
"bX c #ECD7D2",
"nX c #F1D7D0",
"mX c #F1DBD5",
"MX c #F1DFD8",
"NX c #EFE1DA",
"BX c #F2E4DD",
"VX c #F2E0D7",
"CX c #F2E5E0",
"ZX c #F5E8E1",
"AX c black",
"SX c black",
"DX c black",
"FX c black",
"GX c black",
"HX c black",
"JX c black",
"KX c black",
"LX c black",
"PX c black",
"IX c black",
"UX c black",
/* pixels */
"    B M M M M M N                                                                                                                                                   ",
"m M N N N N N N N N N N                                                                                   m B M M m                                                 ",
"M N N N N N N N v N N N M                                                                       m M N N N M N N N N m                                               ",
"B N N N N v v v v v v v N M g                                                           m B M N N N N N N N N N N N N M                                             ",
"m M N N v v v v v v v v N N z f                                                     n M N N N N v v v v v v N v v v N N N n                                         ",
"K M N N v v v x x x x v v v x l j f f                                         n B N v v N v v v v v v v v v v v v v v v v N n                                       ",
"  B N N v v v x x x x x x v x c l l l l j j j h h                   m n n M M N N v v v v v v v x x x x x x x x x v v v v N N n                                     ",
"  B N N v v x x x x x x x x x x l j l l l l l l l l j z B M M M M N N N v v v v v v v v x x x x x x x x x x x x x x x v v v v N N n                                 ",
"  n N N v x x x x x N D D x x x z h h j l l j j j l j z v v v N v v v v v v v v x x x x x x x x x x x x x x x x x x x x x v v v v v B                               ",
"  m N v x x x W E N (  X/.E N V V j h h j j j j h j j x v v v v v v v v v x x x x x x x x x x x x x x z x x x x x x x x x x v v v v N N B                           ",
"    M Z D x H 3XW.J /.<X>X~ E W.W j d h h h h h h h h x v v v v x x x x x x x x x x x x x x x x x x x x x x x x x x x x x x x x x v v N N B                         ",
"    n W E.D ,.<X2X) E.<XsX^.,XBX}.M g g d h h h h h f z v x x x x x x x x x x x x x x x x x x x x x z z x x x x x x x N M x x x x x v v N N M                       ",
"    m ) :X` :X<X<X:X^.>XMXBXcXdX~.S ^ A s g f d h d s z x x x x x x x x x V x x x x x N D M x x x D ( E x x x x x x x F D x x x x x x v v N N b                     ",
"    K G W.*X<X<X<X<X<XfXBXBXVX9X,._ =XR R ^ R s d d s z x F Q Q M x x x S P N x x N Q (. XE.J c D W.:X*XW Q ' H x x V H D N V x x x x x v v N c j                   ",
"      W W Q.<X<X<X<X<XnXBXBXBXCXmX9X,XR.I.I.I.R s s s x D !.<X!.Z x x x H ^.D x V ) :X<X<X<XW.B G :X-X-X:X*XqX XH x W (.J D Q F x x x x x v x c l j                 ",
"      =X:X<X<X<X<X<X<XmXBXBXBXBXmXjX9X=XI.I.I.-.R a s x G 2XlX*XG C c c G 2XF c ~ jXqX<X-X2X:X~ S E.-X=X1XmXjX1X/.G E.BXW.E }.!.V x V F D v x j l l h               ",
"      T.1XlXfX<X1X<X<XmXBXBXBXcXsXlXdX=XI.-.I.-.=.R g V Z ( ^.nXgXE.V D !.>XV c ( gXmX*X^ -X<X:X~.}.-X=XlXBXmX1X<XQ.W gXVXsX2X XS Q /.3X/.G l h j j l k             ",
"      U.1XMXmXqXnXgX<XsXcXBXBXmXqXbX9X-XI.-.-.-.=./ A ( !.,.-XnXBXjX,.!.gXjXW M F Q ` ) ~.<X<X<X<X<X2X;XVXBXMXqX<X;X` sXCXmX1X>XW !.<X<X~.S h h h h c v n           ",
"        ,XnXBXmXBXVXfXsXVXBXBXVXjXcX0X;XI.-.-.-.=.Y ~ }.nXmXgXjXBXBXlXqXmXmX:X!.!./.*XsXqX<X<X<X1XgXdX0XBXBXVXqXqXBXVXBXBXgXgXVX;X2X:X` J j d h h j x N N B         ",
"        %XfXlXMXBXCXVXVXBXBXBXBXBXVXhX0XR.-.-.-.=./ *X<X1XqXfXVXBXBXjXsXjX-X~._ 1XBXBXBXfX<X<X9XmXBXcXhXNXBXVXqXfXBXBXBXBXsXmXBXMX:XE z c h d d h z v N N N M n     ",
"        7XMXmXVXBXCXBXBXBXBXBXBXBXNXcXhXR.=.=.=.Y R.<X1XfXmXBXBXmX-X|.9X!.,.E._ :XqXsXcXlXqXnXcXBXBXBXhXcXBXmX1XnXBXBXBXMXbXBXBXMX!.z c l s g f j x v v N N N N M m ",
"        #XNXCXCXCXCXBXBXBXBXBXBXBXVXcXjXT.=.=.=.Y |.1XjXBXBXBXjXW.*XjXVX}._ ` <X<X1XsXVXmXfXBXNXBXBXBXcXhXVXsXsXBXBXBXBXNXVXBXBXlX*XS c d p / A x v N Z N N N N N B ",
"        _.cXCXCXCXCXBXBXBXBXBXBXBXBXcXcXoXR.R.=.$.%X1XjXCXBXBX9X-X>XdXmX_ W.!.nXmXmXBXBXVXgXVXBXCXCXCXBXhXjXsXVXCXBXBXBXBXBXBXnX1X2XW j s a / E x V H D N N N M n   ",
"          hXCXCXBXBXBXBXBXBXBXBXBXBXcXcX#X`.`.S.).aXjXVXBXBXBXVX^.E.jXjX( ) E.,XBXBXBXBXBXmXMXNXCXCXCXBXcXhXBXCXCXCXBXBXBXmXfX<X<X>X|.A p p / J x W }.G N N M n     ",
"          yXCXCXBXBXBXBXBXBXBXBXBXBXcXcX#X`.`.S.oXhXNXBXBXBXBXjXQ.lX,X,X` W W 9XBXBXBXBXBXBXBXBXBXCXCXBXBXhXcXCXCXCXBXBXmX1X<X<X<X;XI.A $.T.*XW M !.>XH N M n       ",
"          $XBXCXBXCXBXBXBXBXBXBXBXBXNXcX$X`.S.Y.@XhXNXBXBXBXBXvXcX-X^.9XW ` E >XBXBXBXBXCXCXCXBXBXCXCXCXBXVXhXvXCXCXCXBXfX<X<X<X<X|.^ / oX%X^.Q G 1X9XH M m         ",
"          oXvXCXCXBXBXBXBXBXBXBXBXBXBXcX%XY.S.`.#XhXNXBXBXBXBXjX^._ 9X9XE ,.~ ;XBXBXBXBXCXCXCXBXNXCXCXCXCXBXvXhXNXCXBXVXsX1X<X<X,X0XdX$X%XaX!.,.-XsX/.J K           ",
"            zXCXCXBXBXBXBXBXBXBXBXBXBXVX%XY.S.Y.@XhXBXBXCXCXBXsX) 2XVXdX` -XjXbXBXBXBXCXCXCXCXBXNXCXCXCXCXCXBXcXhXNXBXBXBXmX9X>XaXcXhX@X,XfXnXBX9XQ D K             ",
"            aXCXCXBXBXCXBXBXBXBXBXBXBXBX6XY.A.S.#XjXBXBXBXBXBXjX9XBXBXbX9X9XnXBXBXBXBXCXCXCXCXCXNXBXCXCXCXCXCXBXcXuXhXcXBXBXsX,XhXcXaX@XnXBXCXVX~.V m               ",
"            #XBXCXCXBXCXBXBXBXBXBXBXBXBXaXS.S.Y.%XcXBXBXBXBXBX=X^.mXBXjX9X_ Q.VXBXBXBXCXCXCXCXCXBXBXCXCXCXCXCXBXcXiXuXhXBXjXsXdXcXcX7XhXCXCXCXmX=XA                 ",
"            ).vXCXCXBXBXBXBXBXBXBXBXBXBXhXS.Y.`.%XcXBXBXBXBXBX>XW ( lX9X_ !.dXBXBXBXBXCXCXCXCXCXBXNXCXCXCXCXCXBXhXcXcXiXcXnXcXcXcXcX6XBXCXCXCXcXoX                  ",
"              hXCXCXBXBXBXBXBXBXBXBXBXBXaXD.`.`.$XcXBXBXBXBXBXmX-XE.W.,.,.gXMXBXBXBXBXCXCXCXCXCXCXNXBXCXCXCXCXVXhXNXBXhXNXBXvXcXNXhXhXCXCXCXBX0X                    ",
"              yXCXCXBXBXCXBXBXBXBXBXBXBX6X).`.Y.7XvXBXBXBXBXBXcXbXjX,.( >XfXVXBXBXBXBXBXCXCXCXCXCXBXNXCXCXCXBXcXhXBXBXhXcXBXcXcXVXhXBXCXCXBXdX                      ",
"              #XBXCXBXBXCXBXBXBXBXBXBXBX6XoX`.Y.6XvXBXBXBXBXBXBX9X#X}.~.^.-XBXBXBXBXBXBXBXCXCXCXCXCXNXBXBXBXNXhXNXBXBXcXzXBXcXcXvXcXCXCXCXjX                        ",
"                cXCXCXBXBXBXBXBXBXBXBXBXyXoX`.Y.7XvXBXBXBXBXBX>X) sXW.*XE.) MXBXVXhXcXBXBXBXBXBXBXBXBXNXBXBXhXcXBXBXBXNXhXBXcXNXBXBXCXCXbXoX                        ",
"                yXCXCXBXBXBXBXBXBXBXBXBXcXoXY.Y.6XVXBXBXBXBXBX^.~.VXE.*XsX|.cXBXBXjX$XaXVXBXBXBXBXBXBXBXcXhXhXBXBXBXBXBXhXNXcXVXBXCXCXBX%X                          ",
"                OXBXCXCXCXBXhXBXBXCXBXBXcX).Y.`.aXBXBXBXBXBXBXjXmXBXdXjXBXBXBXBXBXBXaXoX$XcXBXBXBXBXBXBX6XyXcXBXBXBXBXBXzXcXNXBXCXCXCXhX                            ",
"                  zXCXCXCXNX7XNXBXBXBXBXNX).Y._.aXBXBXBXBXBXBXMXgX1X>X=X-XmXBXBXBXBXVX%X_.6XBXBXBXBXBXVX%XaXcXBXBXBXBXBXcXhXVXBXCXCXcXoX                            ",
"                  $XBXCXCXNX7XvXBXBXBXBXBXXXY._.aXBXBXBXBXBXBXVX!.( _ E.` lXBXBXBXBXBXcXOXOXVXBXBXBXBXVX#X6XNXNXBXBXBXBXBXhXBXCXCXBX6X                              ",
"                  XXvXCXCXVX$XcXCXCXBXBXBXoXD.`.6XBXBXBXBXBXBX-XE !.}.}._ lXBXBXBXBXBXBX6XoXzXBXBXBXBXNX@X$XBXNXNXBXBXCXBXzXNXCXBX0X                                ",
"                    hXCXCXVX$XyXCXCXCXBXBX7XS.`.6XBXBXCXCXBXBXW.W ~.!.W.( sXBXBXBXBXBXBXjXoXyXBXBXBXBXcXoX7XBXBXvXNXBXBXBXcXNXBXaX                    *.*.          ",
"                    7XBXCXVX@X6XBXCXBXBXBXhXA.Y.6XBXBXBXCXBXBX' W ' _ W.` >XCXBXcXVXBXBXNX$X#XBXBXBXBXcXoXyXBXBXBXNXBXBXCXCXBXaXS.                    :.*.:.        ",
"                      xXCXNX$X$XBXBXCXBXBXjXD.S.yXBXBXBXBXBXmX) ) W.W.W.E.-XCXBXVXbXcXBXBXaX+XvXBXBXBXhX+XhXBXBXBXBXvXBXCXNX6XU.                  :.].].:.*.*.      ",
"                      iXCXVX$X+XNXBXBXBXBXbX_.Y.yXcXcXBXBXBXmX_ ( E.}.}.-XjXBXBXBXVXcXcXBXcX+XhXBXBXVXaX+XcXBXBXBXBXBXNXcX7X`.              r.t.;.4X4X{.:.:.        ",
"                        vXVX%XXXcXBXBXBXBXcXoXY.yXhXcXBXBXVX>XW.3XlXlX-X^.BXBXBXBXBXNXcXNXBX&XyXBXBXNX7X$XBXBXBXBXCXCXzX%XU.              w.p.a.J.4X4X.X].*.        ",
"                        iXBX7XXXhXBXBXBXBXVX@XA.7XyXNXBXBXhX=X) ( sXlX}.) mXBXBXBXBXBXcXcXBXyXyXBXvXcX$XyXBXBXBXBXCXcX%X_.              t.d.l.z.h.4X4X[.2.          ",
"                          cX6XoXyXCXBXBXBXVX$XS.).yXBXBXBXvXbX9X` ` 9X-X) 6XNXBXBXBXBXBXcXVXcXyXBXcXcXOXhXBXBXBXBXcX%XoX            w.y.i.g.x.c.j.[.:.              ",
"                          yXyXoX$XCXBXBXBXBX7XS.S.iXBXBXBXBXVX9XE._ lX=X;XVXBXBXBXBXBXBXvXvXNXhXBXcXaX$XNXBXBXBXhX%XoX        0.r.i.a.z.c.N.f.q.u ].2.              ",
"                            7X@X+XNXCXBXBXBXaXY.A.cXBXBXBXBXBX0X,X9XmXdXcXVXzXzXvXBXBXBXBXcXNXhXBXcX$XyXBXBXVXaX$X@XU.    0.y.p.d.f.c.b.b.w., -                     ",
"                            XX@XoXzXCXBXBXBXhXY.H.BXBXBXBXcXcXVXjXsX9X9XsXjXNXcXhXzXzXvXBXNXvXhXBXcX+XcXBXcX6X#X@XU.    0.q.p.l.z.B.b.m.y.- $                       ",
"                              `.oXyXCXCXBXBXzX`.OXBXBXBXhXhXdXQ.E.^.*XW.E ( jXBXNXzXyXhXBXVXcXhXBXyX$XBXjX%X#X@XU.    3 9.p.l.v.c.t.r.3 -                           ",
"                                ).$XBXCXCXBXcXD.$XBXBXhXaXVX_ W _ E.BX` E.W.~.BXNXNXcXhXcXBXcXhXNX7XhXyX@XoX).U.  3 6.9.a.z.v.c.3 - + +                             ",
"                                F.XXcXBXCXCXaXS.6XcX7XhXBX2XG W.W G E.E ) _ ( VXBXBXBXNXyXcXcXhXaXOX@XoX).7X+Xr 7.8.y.a.l.v.c.7.+ #                                 ",
"                                  F.6XzXBXCX7XA.#XOXhXBXBX}.( ~.|.=X9X<X3X}.=XBXBXBXBXBXcXiXcXyXXX).`.).+XNXcXk.8.y.a.l.u.a.3 +                                     ",
"                                    XX6XcXBX#XA.).hXBXBXBXBXBXZXpXK.BXCXZXZXBXBXBXBXBXBXBXzXyX+XY.`.`.D.zXCXZXP.q.a.z.9.> > +                                       ",
"                                      oXyXcXoXG.yXCXBXBXBXhXcXNXpX9 L.hXcXuXK.cXzXBXBXBXBXcX7XF.D.Y.XXyXCXCXZXpXd.z.p.; @                                           ",
"                                      G.XXhX).H.BXBXBXBXhXaXyXaXJ.; 9 iXtXe u zXiXcXBXBXBXcXhX6X$X6XyXBXCXCXCXNXj.u.> O                                             ",
"                                        A.$X).yXCXNXBXcX7X'.eXkX&.i > Z.e ; h.hXhXhXBXcXhXhXyXcXvXiXNXCXCXBXCXZXC.> +                                               ",
"                                        $.oXoXNXCXhX6X6XXX} +.5.+.[ - = [ > K.wXyX6XcXhXcXNXyXNXhXvXCXCXCXCXCXZXJ.+                                                 ",
"                                          ).7XCXBXcXD.F.&X4.X. . . .[ ..{ %.3.4.xX$XvXBXCXhXhXBXVXBXBXCXCXCXBXBXOX                                                  ",
"                                          A.uXNXBXVXD.$.8X3.X.X.o.X.o.X. . .X.4.kXyXcXBXBXyXvXBXBXBXBXCXNXhXzXVX7X                                                  ",
"                                          H.hX$XyXVX+X%.#...X.X.X.X.X.X.X.X.X...4.0XaXBXvXyXBXBXBXCXCXcX$X#XhX7X                                                    ",
"                                          uXCXcX+XaX$X`.} o.X.X.X.X.o.X.X.X.X.o.+.3.'.BXcXhXCXBXBXCXcX#XD.+X+XS.                                                    ",
"                                          cXCXCXhX$XoX&.3. .X.X.X.X.O.X.X.X.X.X. .3.eXcXhXhXCXBXBXvX$XD.).F.$.                                                      ",
"                                          cXyXzXBXaX#X&.o.X.O.O.O.X.X.X.X.O.o.X. .} 1.aXyXyXZXCXNX6XA.U 0 <                                                         ",
"                                        u uX&XXXyXVX'.#.o.O.5.@.O.X.X.X.O.@.@.O...1.aXZXyX$XvXhX%XA.1 ; 2 7.9.r.                                                    ",
"                                        h.iXBXzX#X1.....{ ..{ ] ..o. . .{ { .. . .4.8XcX6XoX@XOXG.1 2 6.6.9.y.e.                                                    ",
"                                      9 rXcXBXBX;.| } %.L = 8 J.] { ] { [ & & L ] } &.oXoXH.F.y 1 2 6.6.8.q.y.                                                      ",
"                                    4 j.NXCXCX6X;.'.8XXXq * u C.h.= y w [ = $ # F.8X$.%.r # X ; 7.6.8.8.9.u.7.                                                      ",
"                                    0.P.ZXCXCXhXcXcXH.H.L.q :.U e r y e 0 L * # H.K.8 $ X X o 6.7.8.9.y.u.u.3                                                       ",
"                                  r.e.pXZXCXCXCXCXNX).G.yXr I '.S.[.].;.D.;.# $ H.G.        , 6.7.y.u.p.a.a.y.                                                      ",
"                                  9.f.cXZXCXCXCXCXBX+X$.H.Z.* ]..X4X{..X.X:.    `.          @ o 6.p.a.l.l.l.u.                                                      ",
"                                  9.g.uXiXxXNXZXCXNX$XU 6 Z.% I .X'.]..X[.      $.            O 8.l.l.z.z.c.8.                                                      ",
"                                w.q.3 6 # 8 r Z.uXcX%XU . r % * 1.'.'.[.                      O 3 l.z.z.z.p.>                                                       ",
"                                y.y.9.4 ; 2 ; ; 1 r G.U . % %     <.:.                          o 3 7.3 3 > +                                                       ",
"                              0.y.y.y.9.6.9.9.8.7.; $ $ . . %                                     @ o o o 8                                                         ",
"                          e.9.8.u.u.u.9.9.9.6.7.7.3 X . . .             I I                         y C.Z.J.                                                        ",
"                          s.a.a.a.a.a.u.y.u.e.e.8.9.3 , $ .             I %.=                         pXpX7X                                                        ",
"                          x.v.c.v.v.v.q.6.c.f.x.a.a.p.w.9 4 4   4 e $.<.! L *.                        pXxXuX                                                        ",
"                          d.m.m.m.m.m.y.; i.n.b.v.z.f.d.u.u.9.3 9 `.4X4X{.*.*.                        K.pXJ.                                                        ",
"                            i.c.M.M.m.w.o o > u.v.b.B.x.l.p.8.3 k..X4X.X{.{.>.                      1 5 e 5 1                                                       ",
"                            $ > 3 p.2 o o o @ - 2 2 9 p.z.a.6.7.h.4X4X{.{.{.<.                        O : :                                                         ",
"                                + - , o + +         + , 7.q.2 3 h.4X.X{.{.{.<.!                       X X O                                                         ",
"                                                        + , o , 1 q Y $.;.<.*.                        < : < 5                                                       ",
"                                                                # 6 6 6 6 I                           < : < 5                                                       ",
"                                                              q U G.r 0 y 0                           < : < 5                                                       ",
"                                                              I   F.r y H.$.q                         < : : 5 5                                                     ",
"                                                                  J.r Z.    w                         5 5 e k.k.t                                                   ",
"                                                                  L.V.G.                              q $.[.].<.!                                                   ",
"                                                                  &XL.                                  $.Y *.I q                                                   ",
"                                                                  J.H.                                  7 7 7 7                                                     ",
"                                                                  Z.$.                                                                                              ",
"                                                                  G.                                                                                                "
};
