/* XPM */
static char *_dee9ba828d948fcdd1831683750095bIAt6Fn3CIQZyxXwi_34[] = {
/* columns rows colors chars-per-pixel */
"82 93 256 2 ",
"   c None",
".  c #121218",
"X  c #141C2A",
"o  c #19292C",
"O  c #062A35",
"+  c #192A34",
"@  c #183237",
"#  c #0B2C33",
"$  c #33383A",
"%  c #2B2D35",
"&  c #211D22",
"*  c #4E3B36",
"=  c #553C25",
"-  c #696126",
";  c #153443",
":  c #042A55",
">  c #1C2755",
",  c #043257",
"<  c #0E304D",
"1  c #232A56",
"2  c #2E3650",
"3  c #043568",
"4  c #033778",
"5  c #0D326C",
"6  c #2F376A",
"7  c #443C47",
"8  c #483C53",
"9  c #39494D",
"0  c #2A4B77",
"q  c #575056",
"w  c #695151",
"e  c #74665B",
"r  c #4B5570",
"t  c #645863",
"y  c #75586E",
"u  c #736C6F",
"i  c #51647E",
"p  c #2B4537",
"a  c #BA2B29",
"s  c #DC0101",
"d  c #D40A09",
"f  c #CD1210",
"g  c #E40202",
"h  c #EC0203",
"j  c #E70B0A",
"k  c #F30303",
"l  c #FD0C0B",
"z  c #F80908",
"x  c #FD110E",
"c  c #F2120F",
"v  c #ED1A16",
"b  c #E91C18",
"n  c #F51513",
"m  c #FB1411",
"M  c #F31915",
"N  c #F41D1C",
"B  c #F91A18",
"V  c #F60F11",
"C  c #D4211D",
"Z  c #F8211E",
"A  c #D12E2C",
"S  c #EC2A29",
"D  c #F42827",
"F  c #EC3939",
"G  c #F33635",
"H  c #9A6222",
"J  c #ED403E",
"K  c #8F6F51",
"L  c #877571",
"P  c #B87869",
"I  c #98544D",
"U  c #CD4C48",
"Y  c #EB4846",
"T  c #EA5856",
"R  c #EF514F",
"E  c #C67B50",
"W  c #EA605D",
"Q  c #CA7D77",
"!  c #CF706B",
"~  c #E86765",
"^  c #E8716E",
"/  c #E87975",
"(  c #F17774",
")  c #B18A24",
"_  c #A4951D",
"`  c #CDAF10",
"'  c #D5B036",
"]  c #D1A01B",
"[  c #F4DC07",
"{  c #EACE0E",
"}  c #FEEB01",
"|  c #FAE607",
" . c #F9E717",
".. c #EAD32F",
"X. c #F8EB2E",
"o. c #DDC534",
"O. c #B18A75",
"+. c #A58D5E",
"@. c #CDAD50",
"#. c #CA8767",
"$. c #CD827B",
"%. c #D4817C",
"&. c #D9837E",
"*. c #C69678",
"=. c #DB9B77",
"-. c #D48F68",
";. c #E9817D",
":. c #EA9479",
">. c #D9AB75",
",. c #E6A078",
"<. c #D2865D",
"1. c #DEC753",
"2. c #E5CE53",
"3. c #EEDF5C",
"4. c #013A8C",
"5. c #033984",
"6. c #013C94",
"7. c #013E9B",
"8. c #0D3E95",
"9. c #153E84",
"0. c #013FA1",
"q. c #09439B",
"w. c #174795",
"e. c #13438C",
"r. c #264B8A",
"t. c #0241A5",
"y. c #0041AC",
"u. c #0A47A7",
"i. c #0044B4",
"p. c #0045BB",
"a. c #0849B9",
"s. c #1351B2",
"d. c #2A5EB1",
"f. c #3666B2",
"g. c #54678F",
"h. c #6C728A",
"j. c #5B689E",
"k. c #0046C3",
"l. c #0049CB",
"z. c #044AC5",
"x. c #004CD3",
"c. c #004ED8",
"v. c #0353DB",
"b. c #1C5CC0",
"n. c #005AE7",
"m. c #0E65DF",
"M. c #4C7DC7",
"N. c #877D83",
"B. c #75859B",
"V. c #918E8E",
"C. c #A99389",
"Z. c #BB958B",
"A. c #B6958B",
"S. c #BC9B92",
"D. c #B39B93",
"F. c #AF928A",
"G. c #B9A49B",
"H. c #A6A19E",
"J. c #A59FA3",
"K. c #AFAAA9",
"L. c #999DB1",
"P. c #D68883",
"I. c #C7988C",
"U. c #C49D94",
"Y. c #CC9C93",
"T. c #D5968F",
"R. c #EB8A86",
"E. c #EB8D89",
"W. c #E78985",
"Q. c #EB928D",
"!. c #E3938E",
"~. c #EC9691",
"^. c #EB9A95",
"/. c #E79B96",
"(. c #F19B96",
"). c #F0918C",
"_. c #C4A49B",
"`. c #C9A39A",
"'. c #C7A498",
"]. c #D5B18D",
"[. c #E9AC85",
"{. c #F3B48A",
"}. c #EBA29D",
"|. c #E5A19B",
" X c #F7BD93",
".X c #EEAA94",
"XX c #C5ACA3",
"oX c #CCACA3",
"OX c #D5ADA4",
"+X c #CCB3AB",
"@X c #CAB1A7",
"#X c #D2B4AB",
"$X c #D5B9AD",
"%X c #D4BBB3",
"&X c #DABDB4",
"*X c #D2BFB8",
"=X c #C7B8B2",
"-X c #EBAAA5",
";X c #E9AAA4",
":X c #F1AEA9",
">X c #F1ABA5",
",X c #ECB3AD",
"<X c #E4B1AB",
"1X c #F3B2AD",
"2X c #EDBBB5",
"3X c #EBBBB5",
"4X c #F2B6B1",
"5X c #F1BAB4",
"6X c #F2BEB8",
"7X c #FBC49C",
"8X c #FAC398",
"9X c #DBC4BC",
"0X c #D7C3BA",
"qX c #D7C5AD",
"wX c #ECC3BC",
"eX c #E5C2BB",
"rX c #F1C3BD",
"tX c #EBCFB1",
"yX c #D3C09E",
"uX c #BCBDC6",
"iX c #C5BFC0",
"pX c #DDCBC4",
"aX c #DECFC9",
"sX c #D7C9C4",
"dX c #D3CECD",
"fX c #E2CCC4",
"gX c #EDCBC4",
"hX c #EBCBC5",
"jX c #F0CBC4",
"kX c #F0C9C3",
"lX c #E4D3CC",
"zX c #ECD4CD",
"xX c #E4D4C5",
"cX c #F1D3CD",
"vX c #E6D7D0",
"bX c #EBD7D0",
"nX c #E6D8D2",
"mX c #EBDBD4",
"MX c #EDDFD8",
"NX c #E4DCDB",
"BX c #F1DCD5",
"VX c #F1DFD9",
"CX c #F0D7D0",
"ZX c #EFE1DA",
"AX c #F2E4DD",
"SX c #F2E5E0",
"DX c #F5E8E2",
"FX c black",
"GX c black",
"HX c black",
"JX c black",
"KX c black",
"LX c black",
"PX c black",
"IX c black",
"UX c black",
/* pixels */
"    M n n n M n m                                                                                                                                                   ",
"b n n n n m m n m m m                                                                                     v M M n v                                                 ",
"n m n n m m m m x x m m n                                                                       b M n n n n n m m n b                                               ",
"M n n m m x x x x x x x m c                                                               M n n m m m m m m n m m m m M                                             ",
"C n m m x x x x x x x x m x j                                                       v n n m m x x x x x x x x x x x m x n                                           ",
"C n m m x x x l l l l x x x l k j d d                                           M n x x x x x x x x x x x x x x x x x x x n                                         ",
"  n m m x x x l l l l l l x l k k k k k h h h h h j d                 b v v M m x x x x x x x x l l l l l l l l l x x x x x n v                                     ",
"  n m m x x l l l l l l l l l z k h k k k k h k k k k z M M n n n n n m x x x x x x x x l l l l l l l l l l l l l l x x x x x m n                                   ",
"  v m m x l l n m l n D D l l l z h h h k k g h h h h V m x x m x x x x x x x x x l l l l l l l l l l l l l l l l l l l x x x x x m b                               ",
"  b n x l l n ( R n ^ }.~.Y n B B h g g h h h g g g h l x x x x x x x x x l l l l l l l l l l l l l l z l l l l l l l l l l x x x x m n                             ",
"    n D G z Y :XR.F (.1X,XT Y R.T h s g g h h h h h g l x x l l l l l l l l l l l l l l l l l l l l z z l l l l l l l l l l l l l x x x m M                         ",
"    v W E.S R.1X1X/ W.1XkX!.3XAX}.n C f s s g g g g d z l l l l l l l l l l l l l l l l l l l l l l n c l l l l l l l m n l l l l l x x m m v                       ",
"    b ~ :XE.1X1X1X1X}.2XAXAXmXwXQ.S ;.U f A f s s s d z l l l l l l l l l N l l l l l n D D l l z F / ~ n l m l l l l D D l l l l l l x x m m c                     ",
"    C S ( /.1X1X1X1X1XkXAXAXAXhX~.;.;X! ! %.! C s s d z l G R R n l l l S F n l l m R ).>X(.Y z N ~.:X-X( T ( G z l N G D n Z l l l l l x x x z h                   ",
"      ~ W ~.1X1X1X1X1XCXAXAXAXSXBX6X,XT.%.&.&.! C d d z D ~.4XQ.N l l l F ^.D l n ~ :X1X1X1X~.N N ~.:X}.1X-X5X(.J l T ;.D D R D l l l l l x l k k h                 ",
"      ;X1X5X4X1X1X1X4XBXAXAXAXAXcXgXeX;X&.%.&.&.! a d z G >XcX-XF n z z F 2XD z W cXrX1X-X>X:X^ F / >X|.4XcXzX4X(.Y ;.AXE.R |.).N l N G D n z h k k g               ",
"      T.4XcXrX1X6X4X4XCXAXAXAXmXwXzXeX;XP.%.%.%.$.! C S D ~ /.mXcXW.M D ~.2XN z T kXzX}./ >X1X1X>X>X>X/.zXAXBX5X1X/.T kXAXwX,X}.D Y ).>X}.R k g h h k j             ",
"      I.2XVXcX6XBXjX1XwXmXAXAXBX2XbXeX;XP.%.%.Q $.! F ~ }.Q.,XzXAXfX/ (.jXzXT D G R ^ / ~.1X1X1X1X1X1XOXMXAXAX6X4XwX/.wXSXBX5X2XT W.4X1XQ.S g g h h k x v           ",
"        <XcXAXBXAXAXgXcXAXAXAXAXzXMXeX<XP.Q %.Q Q P ! }.cXBXrXgXAXAXjX6XBXBX1X^.-X2XwXBX6X1X1X1X5XcXgX9XZXAXAX6X5XAXAXAXAXjXkXAXeX-X}.~ D k s g g h l m n v         ",
"        &XkXcXMXAXSXAXAXAXAXAXAXAXZXfXfXP.Q %.%.Q Q >X1X1X5XjXAXAXAXgXwXgX-XE.~ ,XAXAXAXkX1X5XwXBXAXMXlXMXAXAX6XrXAXAXAXAXgXBXAXAX1XY z k g s s g z x m m m n       ",
"        %XAXVXAXSXSXAXAXAXAXAXAXAXZXlXlXT.Q Q $.P T.1X5XkXBXAXAXcX;X|.gX/./ ;.;.:X5XwXmXcX5XmXMXAXAXAXbXbXAXBX5XcXAXAXAXAXzXAXAXAX-XD k k f f f h l x x m m m n v   ",
"        @XMXSXSXSXSXAXAXAXAXAXAXAXAXbXzXY.Q Q Q P Y.4XcXAXAXAXgXE.2XbXAX/./ / 2X4X5XgXAXBXrXAXZXAXAXAXMXlXAXkXkXAXAXAXAXZXZXAXAXcX:XY k g a Q U V l n Z n m m n n M ",
"          bXSXSXAXSXAXAXAXAXAXAXAXAXMXzXoXI.I.O.Z.&X2XzXAXAXAXzXwX}.3XBX^ Q.^.zXBXBXAXAXAXjXBXZXAXSXSXAXlXlXgXVXSXAXAXAXAXAXAXcX5X1X/ c f f U Y l N G D x m m n M   ",
"          lXSXSXAXAXAXAXAXAXAXAXAXAXMXzX#X`.`.Z.`.fXzXAXAXAXAXVXE.W.zXzX^ ~ ;.<XAXAXAXAXAXVXmXZXAXSXSXSXmXpXAXSXSXSXAXAXAXCXwX1X1X,X<XU a U ! G l T ^.F x m n v     ",
"          9XSXSXAXAXAXAXAXAXAXAXAXAXMXzX$X`.U.Z.oXfXZXAXAXAXAXzX!.gX<X3X/ ~ T -XSXAXAXAXAXSXAXZXAXSXSXAXAXvXlXAXSXSXSXAXBX4X1X1X1XOXP.A P T.-XT n Q.,XG n n b       ",
"          #XAXSXAXAXAXAXAXAXAXAXAXAXAXbX%X`.Z.U.#XlXAXAXAXAXAXZXbX}.;XwXT W.R ;XSXAXAXAXSXSXSXAXAXSXSXSXAXAXvXbXAXSXSXAXkX:X1X1X1X;XP.$.oX$X!.Y F 6XwXG n b         ",
"          `.MXSXSXAXAXAXAXAXAXAXAXAXAXMX&XU.Z.`.#XlXAXAXSXAXAXzX!./ gX2XT Q.W.3XAXAXAXSXSXSXSXAXZXSXSXSXSXAXAXlXmXAXAXAXzX6X1X1X,X3XfX&X&XgX/.W.,XgX^.S b           ",
"            lXSXSXAXAXAXAXAXAXAXAXAXAXAX0XU.Z.U.@XlXAXAXAXAXAXCXE.wXAXzX/.2XAXAXAXAXAXSXSXSXSXAXZXAXSXSXSXSXSXAXlXmXAXAXAXAXkX,XeXzXlX#X&XkXcXAXwXY D C             ",
"            pXSXSXAXAXSXAXAXAXAXAXAXAXAXfXS.A.Z.#XlXAXAXAXAXAXhXwXAXAXCXrX2XgXAXAXAXAXSXSXSXSXSXZXAXSXSXSXSXSXSXMX0XlXbXAXAXgX,XfXbXfX#XzXAXSXVX~.N b               ",
"            %XAXSXSXAXAXAXAXAXAXAXAXAXAXfXZ.Z.`.%XbXAXAXAXAXAX;XW.gXAXjX-X^ /.AXAXAXAXSXSXSXSXSXAXZXSXSXSXSXSXAXmXpXpXpXAXzXwXhXbXmX9XlXSXSXSXBX}.A                 ",
"              MXSXSXAXAXAXAXAXAXAXAXAXAXlXS.`.`.%XbXAXAXAXAXAXgX~ ~ kX2X~ -XBXAXAXAXAXSXSXSXSXSXAXZXAXSXSXSXSXAXlXmXZXaXbXmXMXbXbXmXfXZXSXSXSXMXOX                  ",
"              lXSXSXAXAXAXAXAXAXAXAXAXAXfXS.`.`.%XMXAXAXAXAXAXBXwX}./ ~ E.kXmXAXAXAXAXSXSXSXSXSXSXZXZXSXSXSXSXAXlXAXAXlXZXAXMXzXMXlXbXSXSXSXAXeX                    ",
"              &XSXSXAXAXSXAXAXAXAXAXAXAX9X`.`.U.0XMXAXAXAXAXAXBXMXhXE.^ 2XwXVXAXAXAXAXAXAXSXSXSXSXAXZXAXSXSXAXbXlXAXAXbXbXAXMXbXAXlXAXSXSXAXfX                      ",
"              oXAXSXAXAXSXAXAXAXAXAXAXAX9XoX`.U.9XMXAXAXAXAXAXAX3XOX;X^.W.}.AXAXAXZXAXAXAXAXAXSXSXSXAXZXAXAXZXlXZXAXAXZXlXAXMXmXAXMXSXSXAXzX                        ",
"                bXSXSXAXAXAXAXAXAXAXAXAXlXoXU.U.0XMXAXAXAXAXAX-X~ gXW.-XQ.^ MXAXAXfXfXAXAXAXAXAXAXAXAXZXZXAXlXmXAXAXAXAXlXAXMXMXAXAXSXSXmX$X                        ",
"                pXSXSXAXAXAXAXAXAXAXAXAXMXoXU.'.9XAXAXAXAXAXAX;X-XAXE.,XcX3XBXAXAXmX%X9XMXAXAXAXAXAXAXAXlXlXlXAXAXAXAXAXvXMXMXAXAXSXSXAX&X                          ",
"                +XAXSXSXAXZXlXAXAXAXAXAXMX_.U.`.pXAXAXAXAXAXAXzXcXAXzXbXVXAXAXAXAXAXlX#X#XbXAXAXAXAXAXAXfX9XvXAXAXAXAXAXmXbXMXAXSXSXSXfX                            ",
"                  bXSXSXAXZX9XZXAXAXAXAXZX_.U.`.fXAXAXAXAXAXAXAXgX,X}.E./.BXAXAXAXAXAX9XoX0XAXAXAXAXAXAX9X9XmXAXAXAXAXAXZXlXZXAXSXSXmX`.                            ",
"                  0XSXSXSXZX0XMXAXAXAXAXAX_.U.`.fXAXAXAXAXAXAXBXE.^ ^ Q.;.cXAXAXAXAXAXMX$X+XZXAXAXAXAXAX&X%XMXMXAXAXAXAXAXlXZXSXSXAX9X                              ",
"                  XXZXSXSXAX%XbXSXSXAXAXAX+XS.`.fXAXAXAXAXAXAX-XY E./././ cXAXAXAXAXAXAXfXoXlXAXAXAXAXAX$X+XZXZXMXAXAXAXAXbXMXSXAXfX                                ",
"                    lXSXSXAX%XpXAXSXSXAXAX%XZ.`.fXAXAXSXAXAXAXE.T Q.}./.~ gXAXAXAXAXAXAXMX#X9XAXAXAXAXMXoX%XAXAXZXZXAXAXAXZXZXAXfX                    #.#.          ",
"                    0XZXSXAX%X0XAXSXAXAXAX9XA.U.9XAXAXAXSXAXAX;.R / W.~./ 6XSXAXMXMXAXAXAX9X%XAXAXAXAXzXoXpXAXAXAXZXZXAXSXSXAXfXU.                    =.#.-.        ",
"                      nXSXAX%X%XAXAXSXAXAXlXS.Z.9XAXAXAXAXAXBX^ ^ ~.W./ ;.,XAXAXAXbXbXZXAXzX+XmXAXAXAXlX@XlXAXAXAXAXMXZXSXMXpX`.                  =.[.[.=.#.-.      ",
"                      aXAXAX%X@XZXAXAXAXAXmX`.U.9XMXmXAXAXAXBX^ ^ ~.}.^.2XBXAXAXAXAXbXbXAXAX%XlXAXAXAXfX+XmXAXAXAXAXAXMXbX0XoX              e.r.*.7X7X{.=.=.        ",
"                        MXAX&XXXmXAXAXAXAXMXoXZ.9XlXMXAXAXAX2XE.:XjXcX,X!.AXAXAXAXAXAXbXMXAXpXpXAXAXMXfX%XAXAXAXAXSXAXlX%X'.              q.i.p.J.7X7X X[.<.        ",
"                        aXAX0XXXlXAXAXAXAXAX#XA.0XpXZXAXAXzX<X;./ 6XzX,X/ MXAXAXAXAXAXMXbXAXlXpXAXMXMX%XpXAXAXAXAXAXlX&X`.              r.s.k.l.j.7X7X{.-.          ",
"                          mX9XXXpXSXAXAXAXAX%XZ._.sXAXAXAXZXbXkX;.^ wX2X/ 9XZXAXAXAXAXAXbXZXmXsXAXMXbX+XlXAXAXAXAXlX&X`.            q.t.u.f.z.x.j.[.=.              ",
"                          sXpXoX%XSXAXAXAXAX9XZ.A.aXAXAXAXAXAXwXW./ cXOX,XZXAXAXAXAXAXAXMXmXZXaXAXMXfX%XZXAXAXAXlX&XoX        8.9.u.p.l.x.b.d.i.i [.-.              ",
"                            0X#X+XAXSXAXAXAXfXU.F.bXAXAXAXAXAXeXeXeXBXfXmXZXlXlXmXAXAXAXAXmXZXlXAXMX%XpXAXAXAXfX&X#X      8.t.i.s.d.x.v.v.q.< ;                     ",
"                            oX#XXXvXSXAXAXAXlXU.G.AXAXAXAXMXbXAXzXgXeXwXwXcXMXbXlXvXvXmXAXMXMXlXAXzX@XMXAXMX9X%X#XU.    9.t.i.k.l.M.v.n.t.; @                       ",
"                              `.XXpXSXSXAXAXzXU.+XAXAXAXlXlXhXE.W./.-XQ.Y ~ cXAXZXvXpXlXAXAXMXlXAXpX*XAXlX&X%X#XU.    4 0.i.k.c.x.r.e.4 ;                           ",
"                                _.%XAXSXSXAXbXS.*XAXAXlXlXZX^ T ^ R.AX( R.Q./.AXZXZXmXlXbXAXMXlXZX0XlXfX#XoXXXI.  4 4.7.p.l.c.x.4 ; @ @                             ",
"                                S.XXmXAXSXSXfXA.9XMX0XlXAX2XF ~.T F W.Y ^ / ~ AXAXAXAXZXlXMXbXlXpX+X#XoX_.*X+Xt 5.6.t.p.k.c.x.5.@ $                                 ",
"                                  D.9XlXAXSX9XA.#X+XlXAXAX}.~ ^.|.<XwX5X>X}.-XAXAXAXAXAXmXaXbXpXXX'.`.'.+XZXmXg.6.t.p.p.y.p.4 @                                     ",
"                                    XX9XmXAX$XF._.lXAXAXAXAXAXDXdXK.AXAXDXDXAXAXAXAXAXAXAXvXsX@XU.`.'.S.vXSXDXL.0.p.l.7., , @                                       ",
"                                      oXpXMXoXF.sXAXAXAXAXlXbXAXsX0 K.lXbXdXJ.mXvXAXAXAXAXbX0XD.S.U.XXpXSXSXDXdXs.l.i.: #                                           ",
"                                      F.XXlX_.G.AXAXAXAXlXlXpXxXH.: 0 aXiXr i vXaXmXAXAXAXMXlX9X*X9XpXAXSXSXSXZXf.y., o                                             ",
"                                        A.%X_.sXSXZXAXmX0X].yXbX@.p , V.r : h.lXlXlXAXMXlXlXpXmXMXaXZXSXSXSXSXDXB., @                                               ",
"                                        O.oXXXMXSXlX9X9XXX' ..3..._ ; - _ < J.tXpX9XMXlXmXZXpXZXlXMXSXSXSXSXSXDXH.@                                                 ",
"                                          `.0XSXAXbXS.S.%X2.} [ [ [ _ { ` +.2.1.nX*XMXAXSXlXlXAXAXAXAXSXSXSXAXAX=X                                                  ",
"                                          A.sXZXAXZXS.+.qX1.} } | } | } [ [ } 2.xXsXmXSXAXpXMXAXAXAXAXSXZXlXvXAX0X                                                  ",
"                                          G.lX%XpXAX@X+.o.{ } } } } } } } } } { 1.9XxXAXZXpXAXAXAXSXSXmX%X#XlX0X                                                    ",
"                                          pXSXbX@XfX%X'.' | } } } } | } } } } | ..1.].AXmXlXSXAXAXSXMX#XS.+X@XZ.                                                    ",
"                                          mXDXDXlX%XOX@.1.[ } } } } | } } } } } [ 1.yXmXlXlXSXAXAXMX%XS._.D.O.                                                      ",
"                                          mXpXvXAXfX$X@.| } |  . .} } } } | | } [ o.>.fXpXpXDXSXAX9XA.L q 1                                                         ",
"                                        i dX%XXXpXZX].o.|  .3.X. .} } | |  .X. .{ >.fXDXpX%XMXlX&XF.2 : 3 5.7.e.                                                    ",
"                                        h.aXAXlX$X>.{ { ` { ` ) { [ [ [ ` ` { [ [ 1.qXbX9XXX$X+XC.2 3 4.4.7.t.w.                                                    ",
"                                      0 uXmXAXAX*.) ' +.H - 9 H.) ` H ` _ = = H ) ' @.OXoXG.D.u ; 3 4.4.6.0.t.                                                      ",
"                                    5 j.ZXSXSX9X*.].qXXXw * i B.h.- u e _ - % % D.qXO.+.t $ o : 5.4.6.6.7.y.5.                                                      ",
"                                    9.L.DXSXSXlXMXmXG.G.K.w =.L r t u r q H * 2 G.K.9 @ X X O 4.5.6.7.t.y.y.4                                                       ",
"                                  e.w.dXDXSXSXSXSXAX_.F.sXt K ].Z.[.[.*.S.*.% % G.C.        < 4.5.t.y.i.p.p.t.                                                      ",
"                                  7.d.NXDXSXSXSXSXAX+XO.G.V.* [. X7X{. X X=.    '.          o O 4.i.p.k.k.k.y.                                                      ",
"                                  7.f.dXaXnXZXDXDXZX%XL 7 V.& K 8X].[. X{.      O.            + 6.k.k.l.l.x.6.                                                      ",
"                                q.0.4 7 $ 9 t V.sXbX&XL . t & * ,.].].[.                      @ 4 k.l.l.l.i.,                                                       ",
"                                t.t.7.3 : 3 : : 2 t F.L . o &     ,.=.                          O 4 5.4 4 , @                                                       ",
"                              9.t.t.t.7.4.7.7.6.5.: % % . . &                                     # # # O 9                                                         ",
"                          w.7.6.y.y.y.7.7.7.4.5.5.4 X . . .             K K                         u B.V.H.                                                        ",
"                          a.p.p.p.p.p.y.t.y.w.w.6.7.4 < % .             K +.=                         sXdX0X                                                        ",
"                          z.c.x.c.c.c.0.4.x.d.z.p.p.i.q.0 5 5   5 r O.,.E H #.                        dXNXsX                                                        ",
"                          s.n.n.n.n.n.t.: u.b.v.c.l.d.s.y.y.7.4 0 '.7X7X{.#.-.                        J.dXJ.                                                        ",
"                            u.v.n.n.n.q.O O , y.c.v.M.z.k.i.6.4 g. X7X X{.{.-.                      2 6 r 6 2                                                       ",
"                            % , 4 i.3 O O O o ; 3 3 0 i.l.p.4.5.h.7X7X{.{.{.,.                        + > >                                                         ",
"                                @ ; < O # @         @ < 5.0.3 4 h.7X X{.{.{.,.E                       X X +                                                         ",
"                                                        @ < # < 2 w P O.-.,.<.                        1 > 1 6                                                       ",
"                                                                $ 7 8 7 7 I                           1 > 1 6                                                       ",
"                                                              w L C.t q u q                           1 > > 6                                                       ",
"                                                              K   D.t u G.O.w                         2 > > 6 6                                                     ",
"                                                                  H.t V.    e                         6 6 r g.h.y                                                   ",
"                                                                  K.N.C.                              w O.[.[.,.E                                                   ",
"                                                                  =XK.                                  O.P #.K w                                                   ",
"                                                                  H.G.                                  8 8 8 8                                                     ",
"                                                                  V.O.                                                                                              ",
"                                                                  C.                                                                                                "
};
