/* XPM */
static char *_85c59152a4d4ccce0fc19c7cea1f04a3LQ5iPqnxZn6qCxt_4[] = {
/* columns rows colors chars-per-pixel */
"49 55 256 2 ",
"   c None",
".  c #161318",
"X  c #1D1E33",
"o  c #0A2A39",
"O  c #1E253B",
"+  c #1A3439",
"@  c #313236",
"#  c #675426",
"$  c #0D2E4B",
"%  c #0C3249",
"&  c #163446",
"*  c #143659",
"=  c #142B59",
"-  c #272C57",
";  c #323853",
":  c #033374",
">  c #06397B",
",  c #113975",
"<  c #0C3666",
"1  c #2F3767",
"2  c #284965",
"3  c #554E54",
"4  c #765C59",
"5  c #6A5A5B",
"6  c #726B49",
"7  c #4D556C",
"8  c #645862",
"9  c #4C6271",
"0  c #72666A",
"q  c #7B6F74",
"w  c #61686E",
"e  c #BF3A38",
"r  c #DC0303",
"t  c #DB0808",
"y  c #D71A19",
"u  c #CD1B1A",
"i  c #E60304",
"p  c #EC0303",
"a  c #E60A09",
"s  c #F20302",
"d  c #FD0D0C",
"f  c #F80A08",
"g  c #FD110E",
"h  c #F5110F",
"j  c #EC1B17",
"k  c #F51613",
"l  c #FB1312",
"z  c #F41815",
"x  c #F81D1B",
"c  c #E3120F",
"v  c #D22C2A",
"b  c #F52524",
"n  c #F62A28",
"m  c #F43735",
"M  c #EB2A29",
"N  c #816D3E",
"B  c #A67B28",
"V  c #C9423F",
"C  c #F4413F",
"Z  c #956B50",
"A  c #BE7C5B",
"S  c #83686D",
"D  c #CF5652",
"F  c #EA4945",
"G  c #F34846",
"H  c #F1514F",
"J  c #E95E5B",
"K  c #F25855",
"L  c #E2534F",
"P  c #C9625E",
"I  c #EF625E",
"U  c #C87A73",
"Y  c #D37B76",
"T  c #D87D78",
"R  c #CC6F69",
"E  c #EE6965",
"W  c #E96A67",
"Q  c #F06B67",
"!  c #E9706D",
"~  c #EB7A76",
"^  c #EB7D7A",
"/  c #EB7673",
"(  c #F17975",
")  c #9F9C24",
"_  c #B49C25",
"`  c #9F9219",
"'  c #F2DB18",
"]  c #EDD20D",
"[  c #FAE503",
"{  c #FEEB02",
"}  c #F9E608",
"|  c #FDEC10",
" . c #DFC43F",
".. c #E7D22D",
"X. c #D6C610",
"o. c #93827D",
"O. c #8D8B6C",
"+. c #B68775",
"@. c #A4A161",
"#. c #C8865F",
"$. c #D4B04A",
"%. c #D4847E",
"&. c #D29572",
"*. c #EC827E",
"=. c #E49F79",
"-. c #C8A86D",
";. c #DEA67F",
":. c #E8A27A",
">. c #E0C35A",
",. c #DEC768",
"<. c #E8D363",
"1. c #043A87",
"2. c #023D95",
"3. c #013E9B",
"4. c #083E94",
"5. c #123C81",
"6. c #003FA0",
"7. c #0B4598",
"8. c #13479B",
"9. c #1B4483",
"0. c #29569C",
"q. c #0340A3",
"w. c #0142AA",
"e. c #0945A3",
"r. c #0145BA",
"t. c #0D48B4",
"y. c #0252BD",
"u. c #1754B8",
"i. c #134AA0",
"p. c #2656A8",
"a. c #70748A",
"s. c #426FBD",
"d. c #014ACB",
"f. c #0349C3",
"g. c #0D55D0",
"h. c #0056E3",
"j. c #847A82",
"k. c #758AA8",
"l. c #918080",
"z. c #A78E86",
"x. c #AD978E",
"c. c #BA968C",
"v. c #AC9A94",
"b. c #BAA29B",
"n. c #969CA5",
"m. c #9FA3AC",
"M. c #BAB6B7",
"N. c #B4ADAC",
"B. c #CB9C8B",
"V. c #C49D94",
"C. c #C99E95",
"Z. c #DD9A93",
"A. c #CD8B83",
"S. c #EB8581",
"D. c #EC8985",
"F. c #EC8E8A",
"G. c #E78B87",
"H. c #F08783",
"J. c #EA928D",
"K. c #E6938E",
"L. c #EB9A95",
"P. c #EC9E99",
"I. c #E99691",
"U. c #F29A96",
"Y. c #F1928E",
"T. c #DCA786",
"R. c #C4A299",
"E. c #C7A39A",
"W. c #D7B098",
"Q. c #EBB38C",
"!. c #ECA29D",
"~. c #F2A19C",
"^. c #F0B28A",
"/. c #C6ABA2",
"(. c #CBAEA4",
"). c #CEB4AB",
"_. c #C9B0A4",
"`. c #D2B6AD",
"'. c #D2B5AA",
"]. c #C6BAB8",
"[. c #D5BCB3",
"{. c #DBBCB5",
"}. c #D7A9A2",
"|. c #EBAAA4",
" X c #EAAAA5",
".X c #F4ABA6",
"XX c #F3ABA6",
"oX c #EBB3AD",
"OX c #F1B3AE",
"+X c #EDB6B1",
"@X c #EDBAB4",
"#X c #EABCB6",
"$X c #F1B7B1",
"%X c #F3BDB7",
"&X c #D5C08D",
"*X c #F4C79A",
"=X c #DAC4BC",
"-X c #DECBBD",
";X c #DCC3B7",
":X c #D4C7B6",
">X c #ECC3BD",
",X c #E2C2BB",
"<X c #F1C1BB",
"1X c #E1CFA1",
"2X c #A9AFC2",
"3X c #DECCC4",
"4X c #DACAC4",
"5X c #D4CDCF",
"6X c #EAC7C0",
"7X c #E1CCC5",
"8X c #EECAC4",
"9X c #E9CFC8",
"0X c #F1CCC6",
"qX c #F1CEC8",
"wX c #F1C5C0",
"eX c #E4D3CC",
"rX c #EBD3CC",
"tX c #E5D3C5",
"yX c #F0D2CC",
"uX c #E6D7D0",
"iX c #EDD7D0",
"pX c #E6D8D1",
"aX c #EBDCD5",
"sX c #EEDFD9",
"dX c #F0DBD4",
"fX c #F1DFD8",
"gX c #F0D7D1",
"hX c #EFE1DA",
"jX c #F2E4DD",
"kX c #F2E5E0",
"lX c #F7E9E3",
"zX c black",
"xX c black",
"cX c black",
"vX c black",
"bX c black",
"nX c black",
"mX c black",
"MX c black",
"NX c black",
"BX c black",
"VX c black",
"CX c black",
"ZX c black",
"AX c black",
"SX c black",
"DX c black",
"FX c black",
"GX c black",
"HX c black",
"JX c black",
"KX c black",
"LX c black",
"PX c black",
"IX c black",
"UX c black",
/* pixels */
"  z z k z l                                                                                       ",
"j k l l l l l l                                             z l k l l z                           ",
"  z l l g g g g l c                                   k l l l g g l g l k                         ",
"  z l g g d d d g f a i a                       k l g g g g d d d d g g g l                       ",
"  z l g d d d d d d s s s p p s p k k k k k l l g g g d d d d d d d d d g g l k                   ",
"  j l d n G m / G z k i p p i i p d g g g g g d d d d d d d d d d d d d d g g g k                 ",
"    m C Q U./ XXJ.S.Q a t i i i i d d d d d d d d d d d d d d h d d d d d d d d g l               ",
"    F D..X.X~.@XaXiXF.J V v y r t d k k d d l k d d b C x d K E b x d l n l d d d g l h           ",
"    L ^ XX.X.XqXjXjX>X X%.T R u r x ^ Q d f m G d H U..X( b D.!.L.Y.m m H n n d d d d f p         ",
"    Z.$X$XXXXXyXjXjXqX>XK.Y T P y n L.oXH h E J b oXOXY..X*.F.!.yX0XU.~ +XG.F.n G I n p s i       ",
"      >XyXyXwX6XjXjX8X6XZ.Y Y U L S.|.rXrXS.%XF.G H.P.P..XXXOX+XjXyX$X@XyXyXOX~ ~.H.M i i f k     ",
"      #XrXjXjXfXjXjXjXeX}.Y Y U K.$XwXgXfX>X>XL.F.qXfX%XOX8XfXeXjXyX<XjXjXyXfXqXQ k i r p g l z   ",
"      7XjXjXkXjXjXjXjXaX{.U U U  XqXfXyXoX8X|.^ P.$XrXqXrXhXjXaXaX8XyXjXjXaXjXqXF p v v f l l l z ",
"      7XjXkXjXjXjXjXjXaX=XB.A.C.>XfXkXqX XrXJ.F.6XdXjXfXiXjXkXjXeXrXjXjXjXjXqXOX^ y e F x m k l z ",
"      [.hXkXjXjXjXjXjXsX,XE.V.`.aXjXjXrXoX#X*.W %XkXjXjXjXjXkXkXaXaXkXkXjX<X.X|.A.P %.H K *.k z   ",
"        aXkXjXjXjXjXjXjX7XC.V.[.aXjXjXrXP.@X! / >XjXjXkXkXhXkXkXjXaXaXkXfX$X.X X}.}. XW !.*.j     ",
"        rXkXjXjXjXjXjXjXrXC.c.[.sXjXjX8X+XaX|.>XjXjXjXkXkXjXjXkXkXjXaXpXhXdX+X,X7X{.8XrX^ m       ",
"        7XkXjXjXjXjXjXjXaXR.V.;XjXjXjXoXoXgX|.!.jXjXjXkXkXjXjXkXkXkXaXeXpXiX>XrX7XrXkXgXI         ",
"          jXkXjXjXjXjXjXaXE.E.=XjXjXjX8XL.L.S.8XjXjXjXkXkXkXjXjXkXjXpXhXpXaXiXpXrXkXkXrX          ",
"          aXkXjXjXjXjXjXpX(.R.7XjXjXjXfX>XG.P.8XjXjXjXjXkXkXjXhXkXhXpXjXaXjXiXaXhXkXiX            ",
"          7XkXjXjXjXjXjXaX'.C.7XjXjXjX+X XP.F.oXjXrXrXjXjXjXjXjXhXpXjXjXaXaXaXjXkXsX              ",
"          [.jXkXjXhXjXjXjX'.R.7XjXjXjX>XrX#XrXiXjXaX{.7XjXjXjXjX3XpXjXjXjXaXhXkXjXtX              ",
"            pXkXaXeXjXjXjX(.E.tXjXjXjXgXoXL.|.jXjXjXeX`.aXjXjXaX;XpXjXjXjXpXjXkXpX                ",
"            3XkXsX3XjXjXjX`.R.eXjXjXkXoX^ J.J.fXjXjXjX;XtXjXjXaX[.aXhXjXjXaXjXiX                  ",
"              hXhX;XhXkXjX[.V.eXkXjXjXY.~ J.F.gXjXhXjXeX=XjXjXrX[.jXjXhXjXjXaX`.            #.    ",
"              aXhX[.aXkXjX=Xc.tXjXjXjXD.~ F.L.gXjXaXaXsX=XhXjX7X=XjXjXhXhXpX`.            ^.=.    ",
"                sX[.eXjXjXrXR.3XaXjXiXY.|.+X XjXjXjXpXhX7XaXjX3XtXjXjXjXeX(.        e.p.W.*X:.    ",
"                pX[.3XjXjXiXR.[.aXjXrXP.L.>XI.aXjXjXjXaXpXpXaX=XaXjXjXeX'.        8.u.g.b.^.      ",
"                  [.;XkXjXsXE./.jXjXjX>XF.>X#XaXhXjXjXaXaXaXrX=XjXjXeX`.      8.r.d.u.7.+.        ",
"                  ).[.jXjXjX(.).jXjXhXrX>X>X>XiXuXpXaXjXpXaX3XtXhX3X`.    6.r.g.g.f.*             ",
"                    (.pXkXjX`.4XjXuX6XS.J. X! !.hXpXeXhXaXaX4XeX{.).x., 2.r.d.8., *               ",
"                    b.4XjXjX(.=XtXaXF.! E D.~ S.aXjXsXpXpX3X`.(.[.b.5.3.r.d.7.&                   ",
"                      /.eXaXR.).aXjX>X>X).rXyX8XhXjXjXaX3X(.C./.aX5Xi.f.2.: &                     ",
"                        _.7Xb.eXjXsXpXuXa.m.5Xn.eXhXjXjX4X/.).tXkXsXs.6.%                         ",
"                        z.(.[.jXsX-X&X1X6 7 w 9 3XeXsXpXtXpXpXjXkXkXk.%                           ",
"                          R.eXhX).(...' X.` ) @.1X3XaXsXuXhXjXkXkXjXN.                            ",
"                          b.tXaXE.-.' { [ [ } } <.-XhXpXaXjXjXhX7XeX                              ",
"                          3XaX=X'.$.[ { { { { { ' ,.tXpXhXjXhX[.(.(.                              ",
"                          eXaXpXW...} | | { { | }  .;X7XjXjX[.o.w                                 ",
"                          ].=X-X,.] ' ..} [ ] ' ' >.eX=X7X`.w < 1.3.                              ",
"                        a.pXaX-.$.B # O._ _ ` # B $.W.b.o.7 : 1.3.4.                              ",
"                      9.2XlXuX;X).z.4 j.8 0 N # 8 b.3 @ o 1.2.6.w.>                               ",
"                      0.5XlXkXkX(.b.S &.T.T.B.6 0 x.    $ > w.r.r.e.                              ",
"                      0.N.].uXkX).5 3 Z Q.Q.^.            : f.d.d.1.                              ",
"                    e.4.* * 2 a.v.@ @   ;.T.              $ 1.3.> &                               ",
"                  4.q.w.2.2.1.: O . .                       + 2 9                                 ",
"                t.r.r.r.w.w.8.3.: O X       Z Z               M.:X                                ",
"                  h.h.h.1.8.g.d.u.8.4.> a.Q.&.#.              N.M.                                ",
"                  7.y.y.< o > w.p.f.w.5.V.*X^.=.              ; 1                                 ",
"                    & % o +     * > 1., x.^.^.:.              O O                                 ",
"                                      & 3 4 Z A               - - -                               ",
"                                      4 l.8 q 5               - - 1                               ",
"                                          q                   1 7 a.S                             ",
"                                          v.                    +.+.Z                             ",
"                                          x.                      3                               "
};
