/* XPM */
static char *_dee9ba828d948fcdd1831683750095bIAt6Fn3CIQZyxXwi_4[] = {
/* columns rows colors chars-per-pixel */
"82 93 256 2 ",
"   c None",
".  c #121117",
"X  c #151C2B",
"o  c #062934",
"O  c #162D33",
"+  c #163237",
"@  c #0F2C32",
"#  c #223437",
"$  c #33383B",
"%  c #2D2832",
"&  c #221D22",
"*  c #4E3A36",
"=  c #4A3A1D",
"-  c #6A5B29",
";  c #153543",
":  c #032A54",
">  c #1C2756",
",  c #043257",
"<  c #0F304D",
"1  c #232A54",
"2  c #2E354E",
"3  c #022E68",
"4  c #053567",
"5  c #033778",
"6  c #163470",
"7  c #2F3668",
"8  c #453C47",
"9  c #483C54",
"0  c #37494D",
"q  c #2B4B78",
"w  c #504C52",
"e  c #685252",
"r  c #4D556F",
"t  c #685864",
"y  c #736C6F",
"u  c #60666C",
"i  c #2B4536",
"p  c #BC2524",
"a  c #DC0203",
"s  c #D40A09",
"d  c #CB0506",
"f  c #E40203",
"g  c #EC0303",
"h  c #E70C0A",
"j  c #F30403",
"k  c #F60C0B",
"l  c #FD0D0C",
"z  c #F90807",
"x  c #FD110E",
"c  c #F7100F",
"v  c #EC1A16",
"b  c #E91A17",
"n  c #F51614",
"m  c #FB1312",
"M  c #F21915",
"N  c #F51B1B",
"B  c #D3211C",
"V  c #F6201F",
"C  c #E7221A",
"Z  c #CE312F",
"A  c #EB2B2A",
"S  c #F42C2B",
"D  c #F52422",
"F  c #EC3837",
"G  c #F33736",
"H  c #F4302E",
"J  c #9A6822",
"K  c #CD413C",
"L  c #F4413F",
"P  c #8D6D53",
"I  c #877471",
"U  c #B77465",
"Y  c #A1604E",
"T  c #D0534F",
"R  c #EB4645",
"E  c #EA5957",
"W  c #EF4F4C",
"Q  c #EC615F",
"!  c #CA7B74",
"~  c #D27A75",
"^  c #D97A76",
"/  c #CD6E69",
"(  c #E86966",
")  c #E7716D",
"_  c #E87975",
"`  c #F2706D",
"'  c #CA7B54",
"]  c #B0862B",
"[  c #AC9B18",
"{  c #D1B310",
"}  c #D3AF35",
"|  c #D29A0F",
" . c #F4DB07",
".. c #EACF0E",
"X. c #FEEB01",
"o. c #FAE606",
"O. c #F9E816",
"+. c #E8CF2D",
"@. c #F8EB2D",
"#. c #DCC431",
"$. c #B08B74",
"%. c #A58E5E",
"&. c #CDAF4F",
"*. c #C98768",
"=. c #C69678",
"-. c #DA9976",
";. c #D58774",
":. c #EA817D",
">. c #EB937A",
",. c #D9AB75",
"<. c #E5A079",
"1. c #D3855D",
"2. c #DEC753",
"3. c #E4CF54",
"4. c #EEDF58",
"5. c #013A8C",
"6. c #043984",
"7. c #013C94",
"8. c #013E9B",
"9. c #0D3E94",
"0. c #183F82",
"q. c #003FA1",
"w. c #07429B",
"e. c #174795",
"r. c #14438C",
"t. c #264B8A",
"y. c #0241A5",
"u. c #0042AD",
"i. c #0B47A6",
"p. c #0044B4",
"a. c #0045BB",
"s. c #0849B9",
"d. c #1451B2",
"f. c #2A5EB1",
"g. c #3667B3",
"h. c #54678F",
"j. c #6C718A",
"k. c #5B689E",
"l. c #0047C2",
"z. c #0049CC",
"x. c #034AC6",
"c. c #004DD3",
"v. c #004ED8",
"b. c #0354DB",
"n. c #1D5CC0",
"m. c #005BE7",
"M. c #1564DC",
"N. c #4C7DC8",
"B. c #877E83",
"V. c #75859B",
"C. c #918E8E",
"Z. c #AB9389",
"A. c #BC958C",
"S. c #B6958A",
"D. c #BC9B92",
"F. c #B59C93",
"G. c #AE938B",
"H. c #BAA49B",
"J. c #A7A19E",
"K. c #A6A5A7",
"L. c #B6ACAB",
"P. c #9C9DAD",
"I. c #C7988C",
"U. c #C49D94",
"Y. c #CB9E95",
"T. c #D3938C",
"R. c #EB8682",
"E. c #E98B87",
"W. c #F18B87",
"Q. c #EC928D",
"!. c #E5928C",
"~. c #EB9A95",
"^. c #E99994",
"/. c #F19B96",
"(. c #F0928E",
"). c #C4A49A",
"_. c #CAA39A",
"`. c #C6A497",
"'. c #D5B18D",
"]. c #E9AC85",
"[. c #F3B48B",
"{. c #EBA29D",
"}. c #E4A39D",
"|. c #F2A39E",
" X c #F7BD95",
".X c #ECB18B",
"XX c #C5ACA3",
"oX c #CCADA4",
"OX c #D6ADA4",
"+X c #CDB3AB",
"@X c #CAB1A7",
"#X c #D3B4AB",
"$X c #D4B7AA",
"%X c #D4BCB3",
"&X c #D9BDB5",
"*X c #D2BFB8",
"=X c #CBB8B1",
"-X c #EAA6A1",
";X c #ECABA5",
":X c #E7ADA7",
">X c #F4AAA5",
",X c #F3ADA9",
"<X c #F2A6A1",
"1X c #ECB3AD",
"2X c #E5B2AC",
"3X c #F2B3AD",
"4X c #ECBAB4",
"5X c #EDBEB8",
"6X c #E7B9B3",
"7X c #F1BAB4",
"8X c #F0B8B3",
"9X c #FBC49C",
"0X c #FBC599",
"qX c #DBC4BC",
"wX c #D8C3BA",
"eX c #D7C6AD",
"rX c #EDC3BD",
"tX c #E4C5BB",
"yX c #F1C1BB",
"uX c #F1CEAC",
"iX c #D3C09D",
"pX c #BCBDC6",
"aX c #C5BFC0",
"sX c #DDCBC4",
"dX c #D8CBC6",
"fX c #D3CECD",
"gX c #E2CCC4",
"hX c #EDCAC4",
"jX c #EECEC8",
"kX c #E7CAC3",
"lX c #F1CBC5",
"zX c #F0CCC6",
"xX c #E4D3CC",
"cX c #ECD4CC",
"vX c #E5D5C5",
"bX c #F0D3CC",
"nX c #EBD7D0",
"mX c #EBDBD4",
"MX c #EEDFD8",
"NX c #E6D8D1",
"BX c #F0DCD5",
"VX c #F1DFD8",
"CX c #F1D6D0",
"ZX c #EFE1DA",
"AX c #F2E4DD",
"SX c #F2E5E0",
"DX c #F5E8E1",
"FX c black",
"GX c black",
"HX c black",
"JX c black",
"KX c black",
"LX c black",
"PX c black",
"IX c black",
"UX c black",
/* pixels */
"    M n n   v n m                                                                                                                                                   ",
"v n m n m m m m m m m                                                                                     v M M n M                                                 ",
"n m n m m m m m x m m m n                                                                       C M n m m n n m m m b                                               ",
"v n m m m x x x x x x x m v                                                               v n n m m m m m m m m m m m M                                             ",
"B n m m m x x x x x x x m m h                                                         M m m m m x x x x x x m x x x m m n                                           ",
"B n m m x x x l l l l x x x l h s s                                             v n m x m x x x x x x x x x x x x x x x x n                                         ",
"  n m m x x l l l l l l l x l z z j j j g g g j j g s                     v M n m x x x x x x x l l l l l l l l l x x x x m M                                       ",
"  n m m x x l l l l l l l l l z j g j j j g g j j j j k n n n n n n n m m x x x x x x x l l l l l l l l l l l l l l l x x x x m M                                   ",
"  v m m x l l S N l N H D x l l k g g g j j f f g g g k m x x m x x x x x x x x l l l l l l l l l l l l l l l l l l l l x x x x x n C                               ",
"  b m m l l N R.E N :.|.(.R n V N g f f g g g f f f g l x x x x x x x x x l l l l l l l l l l l l l l l l l l l l l l l l l x x x x m v                             ",
"    n H L l E >X(.R (.,X;XE R R.W g a a f g g g g g f k x x l l l l l l l l l l l l l l l l l l l l l k l l l l l l l l l l l l l x x m m                           ",
"    v ( :.L /.,X>XW.:.,XhX}.4XAX{.M Z B a a f f f f a k x l l l l l l l l l l l l l l l l l l l l l D v l l l l l l l m n l l l l l x x m m v                       ",
"    b E |.~.,X,X>X>X{.8XAXAXmXkXE.A :.T B Z B s f a d k l l l l l l l l x V l l l l l N G S l l l R Q._ V l m l l l l S S l l l l l l l x m m M                     ",
"    B A ( Q.,X>X>X>X>XlXAXAXAXcX;XW.-X/ / ^ ~ Z a a d k m F E W n l l l D F m l l m W (.<X/.E k N W.>X~.:.Q :.F l l V L S n D l l l l l x x x k f                   ",
"      ) ` /.,X>X>X>X,XCXAXAXAXSXCX4X2X!.^ ^ ^ ~ Z d d z S /.3XE.N l l z F ~.S l n ( >X,X,X,X~.F M _ <X^.>X;X8X/.R m E _ H S W D l l l l l l l z j h                 ",
"      }.,X7X,X>X>X>X3XBXAXAXAXAXcXhX6X{.;.^ ^ ^ / Z s z S <XbX1XR m z z R 4XS z E cXyX,X~.|.>XW.E ( {.^.3XCXcX3X/.E :.BXE.W ~.(.D l D G G N z g j j f               ",
"      T.8XBXyX,XyX3X,XcXAXAXSXnX4XjX6X{.;.~ ^ ^ ! / B A A Q ^.mXbXR.N S ~.4XN z W 5XbX~.) <X>X>X>X>X<X^.jXAXBX3X>X-X( 5XAXrX;X|.H F (.<X|.Q j f g g j h             ",
"      I.1XAXcXrXAXbX,X4XmXAXAXCX1XnX6X}.;.~ ~ ~ ! / F ( ;X~.5XcXAXcXR.(.hXcX( S L Q :.R.~.>X>X>X>X,X,X:XMXAXAX4X,XjX1XhXAXBX3X8X( _ ,X>XR.A f f g g z m v           ",
"        :XlXVXAXAXAXjXnXAXAXAXAXnXMX&X:X;.~ ~ ~ ! U ) |.lXbX5XhXAXAXzX4XBXcX>XQ.1XzXbXVX7X>X>X>X7XbXjXtXMXAXAX5X3XBXSXAXAXjXrXAXjX;X/.E v j a f f g l m m v         ",
"        &XhXhXMXAXSXAXAXAXAXAXAXAXAXgXkXT.~ ~ ~ ! ! >X>X,X8XhXAXAXBX5XrX4X{.:.E ;XCXAXZXlX>X4XrXmXAXZXxXmXAXAX7X5XAXAXAXAXhXCXAXAX7XR j z g a a f k l x m m M       ",
"        %XAXAXAXSXSXAXAXAXAXAXAXAXAXxXxXT.! ~ ~ U T.,X8XlXBXAXAXrX{.:XcX{._ _ W.>X3X4XnXCX3XmXZXAXAXAXmXxXAXBX3XjXAXAXAXAXcXAXAXAX3XF j j s B s g l l x m m m n b   ",
"        +XZXSXSXSXSXAXAXAXAXAXAXAXAXnXxXY.! ! ! U Y.;XhXAXAXAXhX^.lXcXAX^.W._ 1X3X8XjXAXAX5XBXZXAXSXAXAXxXmXrXrXAXAXAXAXAXZXAXAXbX3XE g f p / T k l n D n m m m n b ",
"          mXSXSXAXSXAXAXAXAXAXAXAXAXmXxXoXU.I.$.A.&X4XcXAXAXAXmXrX{.rXBX_ E.{.hXBXVXAXAXAXjXCXZXAXSXSXAXNXxXjXVXSXAXAXAXAXAXVXzX3X>XE.b s p T W l N G D m m m n M   ",
"          xXSXSXAXAXAXAXAXAXAXAXAXAXmXcX#X_._.A.oXgXcXAXAXAXAXCX:.;XcXhX_ E ) :XAXAXAXAXAXAXmXZXAXSXSXSXAXxXZXSXSXSXSXAXAXbX8X,X>X;X2XE K T / R l Q ~.F m m n M     ",
"          sXSXSXAXAXAXAXAXAXAXAXAXAXmXcX#X_.U.A.#XgXZXAXAXAXAXmX6XjX-XrX_ _ E ;XSXAXAXAXAXSXAXAXAXSXSXSXAXmXxXAXSXSXSXAXCX3X>X>X>X}.;.Z U T.{.Q n Q.4XF m M v       ",
"          %XAXSXSXAXAXAXAXAXAXAXAXAXAXcX#X_.A.U.#XgXAXAXAXAXAXAXcXE.1X5XR ( R -XSXAXAXAXSXSXSXAXZXSXSXSXSXAXmXxXAXSXSXAXhX>X>X>X>X}.T.T.#X&X!.W F 5XrXF n b         ",
"          oXMXSXSXAXAXAXAXAXAXAXAXAXAXmX#XU.A._.#XgXAXAXSXAXAXcX_ R.cXrXE !.}.kXAXAXAXSXSXSXSXAXZXSXSXSXSXSXAXmXxXAXAXAXBXrX,X>X:X6XkXqX&XkX^.E.1XhX~.A b           ",
"            nXSXSXAXAXAXAXAXAXAXAXAXAXAXwXU.A.A.@XgXAXAXAXAXAXmX^.cXAXmX-X1XAXAXAXAXAXSXSXSXSXAXZXAXSXSXSXSXSXAXmXxXZXZXAXAXjX;X6XcXcX#X$XrXbXAXrXR D B             ",
"            gXSXSXAXAXSXAXAXAXAXAXAXAXAXgXA.S.A.#XxXAXAXAXAXAX6X6XAXAXbXyX-X1XAXAXAXAXSXSXSXSXSXAXAXSXSXSXSXSXSXAXsXsXxXAXAXjX:XtXcXgX#XcXAXSXVX/.V b               ",
"            wXAXSXSXAXAXAXAXAXAXAXAXAXAXxXA.U._.$XxXAXAXAXAXAX:X_ 1XAXhX{.) }.AXAXAXAXSXSXSXSXSXAXZXSXSXSXSXSXSXmXxXmXsXZXcXrXhXcXmXgXxXSXSXSXBX-XK                 ",
"            oXZXSXSXAXAXAXAXAXAXAXAXAXAXxXD._._.%XnXAXAXAXAXAXbXE.( 5X-XE 1XBXAXAXAXAXSXSXSXSXSXSXZXAXSXSXSXSXAXnXmXAXxXmXmXMXcXcXmXgXAXSXSXSXmXOX                  ",
"              cXSXSXAXAXAXAXAXAXAXAXAXAXgXU._.`.%XmXAXAXAXAXAXBXhXyX_ E Q.yXmXAXAXAXAXAXSXSXSXSXSXAXZXSXSXSXSXAXxXZXAXnXmXAXZXcXmXnXnXSXSXSXAXtX                    ",
"              qXSXSXAXAXSXAXAXAXAXAXAXAXqX_._.U.wXmXAXAXAXAXAXAXmXhX^._ 4X4XBXAXAXAXAXAXAXSXSXSXSXSXZXZXSXAXAXnXxXAXAXMXNXAXMXcXMXnXAXSXSXAXkX                      ",
"              oXZXSXSXAXSXAXAXAXAXAXAXAXsXoX_.U.wXmXAXAXAXAXAXBX-X:X-X~.:.E.BXAXAXmXAXAXAXAXAXAXSXSXAXZXAXAXmXxXAXAXAXAXxXAXmXnXAXZXSXSXAXcX                        ",
"                nXSXSXAXAXAXAXAXAXAXAXAXxXoXU.U.wXZXAXAXAXAXAX-X( bXE.{.^.( cXAXAXgXqXnXAXAXAXAXAXAXAXAXmXZXxXZXAXAXAXAXxXMXmXmXAXSXSXSXmXOX                        ",
"                qXSXSXAXAXAXAXSXAXAXAXAXmXoXU.`.qXAXAXAXAXAXAX1X5XAX^.6XBXkXBXAXAXAXqX$XxXAXAXAXAXAXAXAXxXsXxXAXAXAXAXAXmXmXmXZXAXSXSXAX&X                          ",
"                oXAXSXSXAXmXxXAXAXAXAXAXmX).U._.qXAXAXAXAXAXAXcXhXAXmXmXcXAXAXAXAXAXmX$X#XgXAXAXAXAXAXAXgXwXxXAXAXAXAXAXmXNXmXAXSXSXAXcX                            ",
"                  NXSXSXSXmXqXAXAXAXAXAXZX).U._.qXAXAXAXAXAXAXAXrX-X^.) Q.BXAXAXAXAXAXgXoX=XAXAXAXAXAXAXqX&XnXZXAXAXAXAXAXxXMXAXSXSXmX                              ",
"                  wXSXSXSXmX%XmXAXAXAXAXAXXXU._.sXAXAXAXAXAXAXCXR.R.:.^.:.bXAXAXAXAXAXMX&X@XmXAXAXAXAXAX&X+XmXmXAXAXAXAXAXnXZXSXSXAXwX                              ",
"                  XXZXSXSXAX&XnXSXSXAXAXAX+XD._.sXAXAXAXAXAXAX-XR ~.^.!._ bXAXAXAXAXAXAXgXoXxXAXAXAXAXAX%X+XAXAXmXAXAXAXAXnXmXSXAXwX                                ",
"                    NXSXSXAX%XsXAXSXAXAXAX&XA._.gXAXAXSXAXAXAXQ.` ~.Q.~.( hXAXAXZXAXAXAXmX$XqXAXAXAXAXZX#X&XAXAXAXmXAXAXAXAXZXAXqX                    *.'           ",
"                    sXAXSXAX%XwXAXSXAXAXAXqXS.`.gXAXAXAXSXAXAX:.Q _ R.-XE.5XAXAXmXnXAXAXAXsX%XAXAXAXAXnX#XsXAXAXAXZXmXAXSXSXZXqX`.                    -.*.-.        ",
"                      mXSXAX&X=XAXAXSXAXAXgXA.A.qXAXAXAXAXAXBX) ) R.R._ _ 1XAXAXAXnXxXmXAXnX+XmXAXAXAXxX+XxXAXAXAXAXZXZXSXmXqX`.                  -.].].-.*.        ",
"                      sXAXAX&X@XZXAXAXAXAXnX`.U.qXmXmXAXAXAXBX:.) Q.1X-X1XBXAXAXAXAXnXxXAXAX%XxXAXAXZXgX+XmXAXAXAXAXAXMXxX&X`.              r.t.=.9X9X[.-.-.        ",
"                        MXAXwXXXmXAXAXAXAXMXoXA.qXxXMXAXAXAX5XQ.,XlXzX:X!.AXAXAXAXAXAXcXmXAXsXsXAXZXZXgX%XAXAXAXAXSXAXxX%XU.              w.p.a.J.9X9X X].1.        ",
"                        sXAXwX).xXSXAXAXAXAX#XS.wXsXZXAXAXcX:X:._ 5XjX1X_ mXAXAXAXAXAXZXNXAXnXsXAXmXmXwXsXAXAXAXAXAXxX&X_.              t.d.l.z.k.9X9X[.-.          ",
"                          mXqXXXsXSXAXAXAXAX%XA.).sXAXAXAXZXcXrX:._ hX5X_ qXAXAXAXAXAXAXnXmXZXsXAXmXxX%XnXAXAXAXAXxX&X_.            w.y.i.g.x.c.k..X-.              ",
"                          sXgXoX&XSXAXAXAXAXqXA.S.sXAXAXAXAXAXrXE._ CXOX2XZXAXAXAXAXAXAXZXnXAXxXAXmXqX%XZXAXAXAXxX&X#X        9.0.i.a.z.c.n.f.q.r ].1.              ",
"                            wX#X+XAXSXAXAXAXgXU.G.NXAXAXAXAXAXtXtX4XmXkXmXZXxXxXnXAXAXAXAXmXZXxXAXmX%XsXAXAXmXgX&X#X      9.y.p.d.f.c.b.b.w.< ;                     ",
"                            XX#XoXmXSXAXAXAXxXU.H.AXAXAXAXmXNXAXcXhXrX5X5XjXZXmXxXxXnXmXAXMXmXxXAXcX@XmXAXnXqX%X#XU.    0.y.p.x.z.N.b.m.y.; #                       ",
"                              ).oXsXSXSXAXAXcXU.+XAXAXAXxXxXjXE.E.^.:X!.R ( jXAXZXxXsXxXAXAXmXxXAXsXwXAXxX&X%X#XI.    5 8.p.x.v.c.t.r.5 ;                           ",
"                                ).%XAXSXSXAXnXD.%XAXAXxXgXZX_ E ) R.AX_ R.Q.^.SXZXZXnXxXnXAXmXxXAXwXxXgX#XoX_.I.  5 5.8.a.z.v.c.5 ; + #                             ",
"                                F.XXmXAXSXSXgXS.qXmXwXxXAX1XF ^.E F E.R ` _ ( AXAXAXAXMXxXmXnXxXgX+X#XoX).wX+Xt 6.7.y.a.l.v.c.6.+ $                                 ",
"                                  F.qXxXAXSXqXS.#X+XxXAXAX-X( ~.}.:XrX8X,X{.;XAXAXAXAXAXmXsXNXsXXX`._.`.@XZXmXh.7.y.a.l.u.a.5 +                                     ",
"                                    XXqXmXAX#XS.).xXAXAXAXAXAXDXfXK.AXAXDXDXAXAXAXAXAXAXAXNXsX@XU._.`.D.NXSXDXP.q.a.z.w., , +                                       ",
"                                      oXsXmXoXG.sXSXAXAXAXxXnXZXfXq L.xXnXdXK.mXNXAXAXAXAXnXwXF.D.U.XXsXSXSXDXfXd.z.p.: @                                           ",
"                                      Z.XXxX).H.AXAXAXAXxXsXsXvXJ., q fXaXr u NXgXmXAXAXAXmXxXqX%XqXsXAXSXSXSXZXg.u., O                                             ",
"                                        S.%X).sXSXZXAXmXwX'.iXnX&.i , C.r : j.xXxXxXAXMXxXxXsXmXMXsXZXSXSXSXSXDXV., O                                               ",
"                                        $.oXXXZXSXxXqXqXXX} +.4.+.[ ; - [ < K.tXsXsXmXxXmXZXsXZXxXMXSXSXSXAXSXDXJ.O                                                 ",
"                                          ).wXSXAXnXD.D.=X3.X. . . .[ ..{ %.3.2.NX*XmXAXAXxXxXAXAXAXAXSXSXSXAXAX=X                                                  ",
"                                          S.sXZXAXAXF.$.eX2.X.X.o.X.o.X. . .X.3.vXqXnXAXAXsXMXAXAXAXAXSXZXxXNXZXwX                                                  ",
"                                          H.xX%XsXAX@X%.#...X.X.X.X.X.X.X.X.X.+.2.tXvXAXZXsXAXAXAXSXSXmX%X#XxXwX                                                    ",
"                                          dXSXNX@XgX%X`.} o.X.X.X.X.o.X.X.X.X.o.+.2.'.AXmXxXAXAXAXSXmX#XD.+X@XA.                                                    ",
"                                          mXDXDXxX%XoX&.2. .X.X.X.X.o.X.X.X.X.X. .2.iXmXxXxXSXAXAXZX%XD.).F.$.                                                      ",
"                                          mXsXNXAXgX$X&.o.X.o.O.O.X.X.X.X.O.o.X. .#.,.gXsXsXDXSXZXqXS.I w 1                                                         ",
"                                        r dX=XXXsXZX'.#.o.O.@.@.O.X.X.o.o.O.@.O...,.gXDXsX%XMXxX&XG.2 : 3 6.8.r.                                                    ",
"                                        j.xXAXxX$X,.....{ ..{ [ .. . . .{ { .. . .2.eXnXqXoX%X#XZ.2 3 5.5.8.y.e.                                                    ",
"                                      q pXmXAXAX=.] } %.J - w J.] [ J { [ = = J ] } &.OXoXH.G.y ; 3 5.5.7.q.y.                                                      ",
"                                    6 k.ZXSXSXqX=.'.eXXXe * u V.j.- y y [ - % % G.$X$.%.t $ X : 6.5.7.7.q.u.6.                                                      ",
"                                    0.P.DXAXAXxXmXmXH.H.L.e -.I r t y r w J * $ H.K.0 # X X o 5.6.7.8.y.u.u.5                                                       ",
"                                  r.e.fXDXAXSXSXSXAX).G.sXt P ].S..X].=.D.=.$ % H.Z.        < 5.6.y.u.p.a.a.y.                                                      ",
"                                  8.f.mXDXSXSXSXSXAX+X$.H.C.* ]. X9X[.[.[.,.    `.          O o 5.a.a.l.l.x.u.                                                      ",
"                                  8.g.fXfXNXZXDXSXZX%Xy 8 C.& P 0X'.]. X.X      $.            O 7.l.l.z.z.c.7.                                                      ",
"                                i.q.0.8 $ 0 r C.dXnX&XI . t & * <.'.'..X                      O 5 l.z.z.z.p.,                                                       ",
"                                y.y.8.3 : 3 : : 2 u G.I . & &     <.,.                          o 5 6.5 5 , +                                                       ",
"                              0.y.y.y.8.5.8.8.7.6.: # % . . &                                     @ o o o 0                                                         ",
"                          e.w.7.u.u.u.8.8.8.5.6.6.5 X . . .             P P                         y V.C.J.                                                        ",
"                          s.a.a.a.a.a.u.y.u.e.e.7.8.5 < % .             P %.*                         dXfXwX                                                        ",
"                          x.v.c.c.v.v.q.5.c.f.x.a.a.p.w.q 6 6   6 r $.<.' Y *.                        fXNXdX                                                        ",
"                          d.m.m.m.m.m.y.: i.n.b.v.z.f.d.u.u.8.5 q `.9X9X.X*.*.                        K.fXJ.                                                        ",
"                            i.b.m.m.m.w.o o , u.v.b.N.x.l.p.7.5 h. X9X X[.[.;.                      8 7 r 7 2                                                       ",
"                            # , 5 s.4 o o o O ; 4 4 q p.z.a.5.6.j.9X9X[.[.[.<.                        X > 1                                                         ",
"                                + ; ; o @ +         O < 6.y.3 5 j.9X X[.[.[.<.'                       X X X                                                         ",
"                                                        O < o < 2 e U $.=.<.1.                        1 > 1 7                                                       ",
"                                                                $ 8 8 8 8 P                           1 > > 7                                                       ",
"                                                              e I Z.t w y w                           1 > > 7                                                       ",
"                                                              P   F.t y H.$.e                         1 > > 6 7                                                     ",
"                                                                  J.t C.    e                         7 7 r h.j.t                                                   ",
"                                                                  L.B.Z.                              e $.].].<.'                                                   ",
"                                                                  =XL.                                  $.U *.P e                                                   ",
"                                                                  J.H.                                  w 9 9 9                                                     ",
"                                                                  C.$.                                                                                              ",
"                                                                  Z.                                                                                                "
};
