/* XPM */
static char *_dee9ba828d948fcdd1831683750095bIAt6Fn3CIQZyxXwi_49[] = {
/* columns rows colors chars-per-pixel */
"82 93 256 2 ",
"   c None",
".  c #121218",
"X  c #131C2A",
"o  c #19292C",
"O  c #062A35",
"+  c #192A34",
"@  c #183237",
"#  c #0A2C32",
"$  c #33383B",
"%  c #2B2D35",
"&  c #211D22",
"*  c #4F3A36",
"=  c #4A3A1C",
"-  c #6A5B29",
";  c #153443",
":  c #042A55",
">  c #1C2755",
",  c #043257",
"<  c #0E304D",
"1  c #232A56",
"2  c #2E3650",
"3  c #043568",
"4  c #033778",
"5  c #0D326C",
"6  c #2F376A",
"7  c #443C47",
"8  c #483C53",
"9  c #38494D",
"0  c #2B4B78",
"q  c #575056",
"w  c #695151",
"e  c #74665B",
"r  c #4B5570",
"t  c #645863",
"y  c #75596E",
"u  c #736C6F",
"i  c #51647E",
"p  c #2B4537",
"a  c #BA2B29",
"s  c #DC0101",
"d  c #D40A09",
"f  c #CD1210",
"g  c #E40202",
"h  c #EC0203",
"j  c #E70B0A",
"k  c #F30303",
"l  c #FD0C0B",
"z  c #F80908",
"x  c #FD110E",
"c  c #F2120F",
"v  c #ED1A16",
"b  c #E91C18",
"n  c #F51513",
"m  c #FB1411",
"M  c #F31915",
"N  c #F41D1C",
"B  c #F91A18",
"V  c #F60F11",
"C  c #D4211D",
"Z  c #F8211E",
"A  c #D12E2C",
"S  c #EC2A29",
"D  c #F42827",
"F  c #EC3939",
"G  c #F33635",
"H  c #9B6222",
"J  c #ED403E",
"K  c #8F6F51",
"L  c #877571",
"P  c #B87869",
"I  c #97544D",
"U  c #CD4C48",
"Y  c #EB4846",
"T  c #EA5856",
"R  c #EF514F",
"E  c #C67B50",
"W  c #EA605D",
"Q  c #CA7D77",
"!  c #CF706B",
"~  c #E86765",
"^  c #E8716E",
"/  c #E87975",
"(  c #F17774",
")  c #B08924",
"_  c #A3941D",
"`  c #D0B20F",
"'  c #D4AF36",
"]  c #D1A01B",
"[  c #F4DC06",
"{  c #EBCF0E",
"}  c #FEEB01",
"|  c #FBE707",
" . c #F9E717",
".. c #EAD42F",
"X. c #F8EB2E",
"o. c #DDC534",
"O. c #B18A75",
"+. c #A48D5E",
"@. c #CDAD50",
"#. c #CA8767",
"$. c #CD827C",
"%. c #D4817C",
"&. c #D9837E",
"*. c #C69678",
"=. c #DB9B77",
"-. c #D48F68",
";. c #E9817D",
":. c #EA9479",
">. c #D9AB75",
",. c #E6A078",
"<. c #D2865D",
"1. c #DEC753",
"2. c #E5CE53",
"3. c #EEDF5C",
"4. c #013A8C",
"5. c #033984",
"6. c #013C94",
"7. c #013E9B",
"8. c #0D3E95",
"9. c #153E84",
"0. c #013FA1",
"q. c #09439B",
"w. c #174795",
"e. c #13438C",
"r. c #264B8A",
"t. c #0241A5",
"y. c #0041AC",
"u. c #0A47A7",
"i. c #0044B4",
"p. c #0045BB",
"a. c #0849B9",
"s. c #1351B2",
"d. c #2A5EB1",
"f. c #3666B2",
"g. c #54678F",
"h. c #6C728A",
"j. c #5B689E",
"k. c #0046C3",
"l. c #0049CB",
"z. c #044AC5",
"x. c #004CD3",
"c. c #004ED8",
"v. c #0353DB",
"b. c #1C5CC0",
"n. c #005AE7",
"m. c #0E65DF",
"M. c #4C7DC7",
"N. c #867D83",
"B. c #75859B",
"V. c #918D8F",
"C. c #A99389",
"Z. c #BB958B",
"A. c #B6958B",
"S. c #BC9B92",
"D. c #B39C93",
"F. c #AF928A",
"G. c #B9A49B",
"H. c #A6A19E",
"J. c #A6A5A7",
"K. c #B6ACAA",
"L. c #9C9DAD",
"P. c #D68883",
"I. c #C7988C",
"U. c #C49D94",
"Y. c #CC9C93",
"T. c #D5968F",
"R. c #EB8A86",
"E. c #EB8D89",
"W. c #E78985",
"Q. c #EB928D",
"!. c #E3938E",
"~. c #EC9691",
"^. c #EB9A95",
"/. c #E79B96",
"(. c #F19B96",
"). c #F0918C",
"_. c #C4A49B",
"`. c #C9A39A",
"'. c #C7A498",
"]. c #D5B18D",
"[. c #E9AC85",
"{. c #F3B48A",
"}. c #EBA29D",
"|. c #E5A19B",
" X c #F7BD93",
".X c #EEAA94",
"XX c #C6ACA3",
"oX c #CCACA3",
"OX c #D5ADA4",
"+X c #CCB3AB",
"@X c #CAB1A7",
"#X c #D2B4AB",
"$X c #D5B9AD",
"%X c #D4BBB3",
"&X c #DABCB4",
"*X c #C7B8B2",
"=X c #EBAAA5",
"-X c #E9AAA4",
";X c #F1AEA9",
":X c #F1ABA5",
">X c #ECB3AD",
",X c #E4B1AB",
"<X c #F3B2AD",
"1X c #EDBBB5",
"2X c #EBBBB5",
"3X c #F2B6B1",
"4X c #F1BAB4",
"5X c #F2BEB8",
"6X c #FBC49C",
"7X c #FAC398",
"8X c #DBC4BC",
"9X c #D7C3BA",
"0X c #D7C5AD",
"qX c #ECC3BC",
"wX c #E4C4BB",
"eX c #F1C3BD",
"rX c #F1CEAC",
"tX c #D2C09E",
"yX c #BCBDC6",
"uX c #C5BFC0",
"iX c #DDCBC3",
"pX c #DECFC9",
"aX c #D6CAC5",
"sX c #D3CFCD",
"dX c #E2CCC4",
"fX c #EDCBC4",
"gX c #EBCBC5",
"hX c #F0CBC4",
"jX c #F0C9C3",
"kX c #E4D3CC",
"lX c #ECD4CD",
"zX c #E4D4C5",
"xX c #F1D3CD",
"cX c #E6D7D0",
"vX c #EBD7D0",
"bX c #E6D8D2",
"nX c #EBDBD4",
"mX c #EDDFD8",
"MX c #E4DCDB",
"NX c #F1DCD5",
"BX c #F1DFD9",
"VX c #F0D7D0",
"CX c #EFE1DA",
"ZX c #F2E4DD",
"AX c #F2E5E0",
"SX c #F5E8E2",
"DX c black",
"FX c black",
"GX c black",
"HX c black",
"JX c black",
"KX c black",
"LX c black",
"PX c black",
"IX c black",
"UX c black",
/* pixels */
"    M n n n M n m                                                                                                                                                   ",
"b n n n n m m n m m m                                                                                     v M M n v                                                 ",
"n m n n m m m m x x m m n                                                                       b M n n n n n m m n b                                               ",
"M n n m m x x x x x x x m c                                                               M n n m m m m m m n m m m m M                                             ",
"C n m m x x x x x x x x m x j                                                       v n n m m x x x x x x x x x x x m x n                                           ",
"C n m m x x x l l l l x x x l k j d d                                           M n x x x x x x x x x x x x x x x x x x x n                                         ",
"  n m m x x x l l l l l l x l k k k k k h h h h h j d                 b v v M m x x x x x x x x l l l l l l l l l x x x x x n v                                     ",
"  n m m x x l l l l l l l l l z k h k k k k h k k k k z M M n n n n n m x x x x x x x x l l l l l l l l l l l l l l x x x x x m n                                   ",
"  v m m x l l n m l n D D l l l z h h h k k g h h h h V m x x m x x x x x x x x x l l l l l l l l l l l l l l l l l l l x x x x x m b                               ",
"  b n x l l n ( R n ^ }.~.Y n B B h g g h h h g g g h l x x x x x x x x x l l l l l l l l l l l l l l z l l l l l l l l l l x x x x m n                             ",
"    n D G z Y ;XR.F (.<X>XT Y R.T h s g g h h h h h g l x x l l l l l l l l l l l l l l l l l l l l z z l l l l l l l l l l l l l x x x m M                         ",
"    v W E.S R.<X<X/ W.<XjX!.2XZX}.n C f s s g g g g d z l l l l l l l l l l l l l l l l l l l l l l n c l l l l l l l m n l l l l l x x m m v                       ",
"    b ~ ;XE.<X<X<X<X}.1XZXZXnXqXQ.S ;.U f A f s s s d z l l l l l l l l l N l l l l l n D D l l z F / ~ n l m l l l l D D l l l l l l x x m m c                     ",
"    C S ( /.<X<X<X<X<XjXZXZXZXgX~.;.-X! ! %.! C s s d z l G R R n l l l S F n l l m R ).:X(.Y z N ~.;X=X( T ( G z l N G D n Z l l l l l x x x z h                   ",
"      ~ W ~.<X<X<X<X<XVXZXZXZXAXNX5X>XT.%.&.&.! C d d z D ~.3XQ.N l l l F ^.D l n ~ ;X<X<X<X~.N N ~.;X}.<X=X4X(.J l T ;.D D R D l l l l l x l k k h                 ",
"      -X<X4X3X<X<X<X3XNXZXZXZXZXxXfXqX-X&.%.&.&.! a d z G :XxX=XF n z z F 1XD z W xXeX<X=X:X;X^ F / :X|.3XxXlX3X(.Y ;.ZXE.R |.).N l N G D n z h k k g               ",
"      T.3XxXeX<X5X3X3XVXZXZXZXnXqXlXwX-XP.%.%.%.$.! C S D ~ /.nXxXW.M D ~.1XN z T jXlX}./ :X<X<X:X:X:X/.lXZXNX4X<X/.T jXZXqX>X}.D Y ).:X}.R k g h h k j             ",
"      I.1XBXxX5XNXhX<XqXnXZXZXNX1XvXwX-XP.%.%.Q $.! F ~ }.Q.>XlXZXdX/ (.hXlXT D G R ^ / ~.<X<X<X<X<X<XOXmXZXZX5X3XqX/.qXAXNX4X1XT W.3X<XQ.S g g h h k x v           ",
"        ,XxXZXNXZXZXfXxXZXZXZXZXlXmXwX,XP.Q %.Q Q P ! }.xXNXeXfXZXZXhX5XNXNX<X^.=X1XqXNX5X<X<X<X4XxXfX8XCXZXZX5X4XZXZXZXZXhXjXZXwX=X}.~ D k s g g h l m n v         ",
"        &XjXxXmXZXAXZXZXZXZXZXZXZXCXdXdXP.Q %.%.Q Q :X<X<X4XhXZXZXZXfXqXfX=XE.~ >XZXZXZXjX<X4XqXNXZXmXkXmXZXZX5XeXZXZXZXZXfXNXZXZX<XY z k g s s g z x m m m n       ",
"        &XZXBXZXAXAXZXZXZXZXZXZXZXCXkXkXT.Q Q $.P T.<X4XjXNXZXZXxX-X|.fX/./ ;.;.;X4XqXnXxX4XnXmXZXZXZXvXvXZXNX4XxXZXZXZXZXlXZXZXZX=XD k k f f f h l x x m m m n v   ",
"        @XmXAXAXAXAXZXZXZXZXZXZXZXZXvXlXY.Q Q Q P Y.3XxXZXZXZXfXE.1XvXZX/./ / 1X3X4XfXZXNXeXZXCXZXZXZXmXkXZXjXjXZXZXZXZXCXCXZXZXxX;XY k g a Q U V l n Z n m m n n M ",
"          vXAXAXZXAXZXZXZXZXZXZXZXZXmXlXoXI.I.O.Z.&X1XlXZXZXZXlXqX}.2XNX^ Q.^.lXNXNXZXZXZXhXNXCXZXAXAXZXkXkXfXBXAXZXZXZXZXZXZXxX4X<X/ c f f U Y l N G D x m m n M   ",
"          kXAXAXZXZXZXZXZXZXZXZXZXZXmXlX#X`.`.Z.`.dXlXZXZXZXZXBXE.W.lXlX^ ~ ;.,XZXZXZXZXZXBXnXCXZXAXAXAXnXiXZXAXAXAXZXZXZXVXqX<X<X>X,XU a U ! G l T ^.F x m n v     ",
"          8XAXAXZXZXZXZXZXZXZXZXZXZXmXlX$X`.U.Z.oXdXCXZXZXZXZXlX!.fX,X2X/ ~ T =XAXZXZXZXZXAXZXCXZXAXAXZXZXcXkXZXAXAXAXZXNX3X<X<X<XOXP.A P T.=XT n Q.>XG n n b       ",
"          #XZXAXZXZXZXZXZXZXZXZXZXZXZXvX%X`.Z.U.#XkXZXZXZXZXZXCXvX}.-XqXT W.R -XAXZXZXZXAXAXAXZXZXAXAXAXZXZXcXvXZXAXAXZXjX;X<X<X<X-XP.$.oX$X!.Y F 5XqXG n b         ",
"          `.mXAXAXZXZXZXZXZXZXZXZXZXZXmX&XU.Z.`.#XkXZXZXAXZXZXlX!./ fX1XT Q.W.2XZXZXZXAXAXAXAXZXCXAXAXAXAXZXZXkXnXZXZXZXlX5X<X<X>X2XdX&X&XfX/.W.>XfX^.S b           ",
"            kXAXAXZXZXZXZXZXZXZXZXZXZXZX9XU.Z.U.@XkXZXZXZXZXZXVXE.qXZXlX/.1XZXZXZXZXZXAXAXAXAXZXCXZXAXAXAXAXAXZXkXnXZXZXZXBXjX>XwXlXkX#X&XjXxXZXqXY D C             ",
"            iXAXAXZXZXAXZXZXZXZXZXZXZXZXdXS.A.Z.#XkXZXZXZXZXZXgXqXZXZXVXeX1XfXZXZXZXZXAXAXAXAXAXCXZXAXAXAXAXAXAXmX9XkXvXZXZXfX>XdXvXdX#XlXZXAXBX~.N b               ",
"            %XZXAXAXZXZXZXZXZXZXZXZXZXZXdXZ.Z.`.%XvXZXZXZXZXZX-XW.fXZXhX=X^ /.ZXZXZXZXAXAXAXAXAXZXCXAXAXAXAXAXZXnXpXiXiXZXlXqXgXvXnX8XkXAXAXAXNX}.A                 ",
"              mXAXAXZXZXZXZXZXZXZXZXZXZXkXS.`.`.%XvXZXZXZXZXZXfX~ ~ jX1X~ =XNXZXZXZXZXAXAXAXAXAXZXCXZXAXAXAXAXZXkXnXCXpXvXnXmXvXvXmXdXCXAXAXAXmXOX                  ",
"              kXAXAXZXZXZXZXZXZXZXZXZXZXdXS.`.`.%XmXZXZXZXZXZXNXqX}./ ~ E.jXnXZXZXZXZXAXAXAXAXAXAXCXCXAXAXAXAXZXkXZXZXkXCXZXmXlXmXkXvXAXAXAXZXwX                    ",
"              &XAXAXZXZXAXZXZXZXZXZXZXZX8X`.`.U.9XmXZXZXZXZXZXNXmXgXE.^ 1XqXBXZXZXZXZXZXZXAXAXAXAXZXCXZXAXAXZXvXkXZXZXvXvXZXmXvXZXkXZXAXAXZXdX                      ",
"              oXZXAXZXZXAXZXZXZXZXZXZXZX8XoX`.U.8XmXZXZXZXZXZXZX2XOX-X^.W.}.ZXZXZXCXZXZXZXZXZXAXAXAXZXCXZXZXCXkXCXZXZXCXkXZXmXmXZXmXZXAXZXlX                        ",
"                vXAXAXZXZXZXZXZXZXZXZXZXkXoXU.U.9XmXZXZXZXZXZX=X~ fXW.=XQ.^ mXZXZXdXdXZXZXZXZXZXZXZXZXCXCXZXkXnXZXZXZXZXkXZXmXmXZXZXAXAXnX$X                        ",
"                iXAXAXZXZXZXZXZXZXZXZXZXmXoXU.'.8XZXZXZXZXZXZX-X=XZXE.>XxX2XNXZXZXnX%X8XmXZXZXZXZXZXZXZXkXkXkXZXZXZXZXZXcXmXmXZXZXAXAXZX&X                          ",
"                +XZXAXAXZXCXkXZXZXZXZXZXmX_.U.`.iXZXZXZXZXZXZXlXxXZXlXvXBXZXZXZXZXZXkX#X#XvXZXZXZXZXZXZXdX8XcXZXZXZXZXZXnXvXmXZXAXAXAXdX                            ",
"                  vXAXAXZXCX8XCXZXZXZXZXCX_.U.`.dXZXZXZXZXZXZXZXfX>X}.E./.NXZXZXZXZXZX8XoX9XZXZXZXZXZXZX8X8XnXZXZXZXZXZXCXkXCXZXAXAXnX`.                            ",
"                  9XAXAXAXCX9XmXZXZXZXZXZX_.U.`.dXZXZXZXZXZXZXNXE.^ ^ Q.;.xXZXZXZXZXZXmX$X+XCXZXZXZXZXZX&X%XmXmXZXZXZXZXZXkXCXAXAXZX8X                              ",
"                  XXCXAXAXZX%XvXAXAXZXZXZX+XS.`.dXZXZXZXZXZXZX=XY E./././ xXZXZXZXZXZXZXdXoXkXZXZXZXZXZX$X+XCXCXmXZXZXZXZXvXmXAXZXdX                                ",
"                    kXAXAXZX%XiXZXAXAXZXZX%XZ.`.dXZXZXAXZXZXZXE.T Q.}./.~ fXZXZXZXZXZXZXmX#X8XZXZXZXZXmXoX%XZXZXCXCXZXZXZXCXCXZXdX                    #.#.          ",
"                    9XCXAXZX%X9XZXAXZXZXZX8XA.U.8XZXZXZXAXZXZX;.R / W.~./ 5XAXZXmXmXZXZXZX8X%XZXZXZXZXlXoXiXZXZXZXCXCXZXAXAXZXdXU.                    =.#.-.        ",
"                      bXAXZX&X%XZXZXAXZXZXkXS.Z.8XZXZXZXZXZXNX^ ^ ~.W./ ;.>XZXZXZXvXvXCXZXlX+XnXZXZXZXkX@XkXZXZXZXZXmXCXAXmXiX`.                  =.[.[.=.#.-.      ",
"                      pXZXZX%X@XCXZXZXZXZXnX`.U.8XmXnXZXZXZXNX^ ^ ~.}.^.1XNXZXZXZXZXvXvXZXZX%XkXZXZXZXdX+XnXZXZXZXZXZXmXvX9XoX              e.r.*.6X6X{.=.=.        ",
"                        mXZX&XXXnXZXZXZXZXmXoXZ.8XkXmXZXZXZX1XE.;XhXxX>X!.ZXZXZXZXZXZXvXmXZXiXiXZXZXmXdX%XZXZXZXZXAXZXkX%X'.              q.i.p.L.6X6X X[.<.        ",
"                        pXZX9XXXkXZXZXZXZXZX#XA.9XiXCXZXZXlX,X;./ 5XlX>X/ mXZXZXZXZXZXmXvXZXkXiXZXmXmX&XiXZXZXZXZXZXkX&X`.              r.s.k.l.j.6X6X{.-.          ",
"                          nX8XXXiXAXZXZXZXZX%XZ._.iXZXZXZXCXvXeX;.^ qX1X/ 8XCXZXZXZXZXZXvXCXnXaXZXmXvX+XkXZXZXZXZXkX&X`.            q.t.u.f.z.x.j.{.=.              ",
"                          iXiXoX%XAXZXZXZXZX8XZ.A.pXZXZXZXZXZXqXW./ xXOX,XCXZXZXZXZXZXZXmXnXCXpXZXmXdX%XCXZXZXZXkX&XoX        8.9.u.p.l.x.b.d.y.i [.-.              ",
"                            9X#X+XZXAXZXZXZXdXU.F.vXZXZXZXZXZXwXwXqXNXdXnXCXkXkXnXZXZXZXZXnXCXkXZXmX%XiXZXZXZXdX&X#X      8.t.i.s.d.x.v.v.q.< ;                     ",
"                            oX#XXXcXAXZXZXZXkXU.G.ZXZXZXZXmXvXZXlXfXqXqXqXxXmXvXkXcXcXnXZXmXmXkXZXlX@XmXZXmX8X%X#XU.    9.t.i.k.l.M.v.n.t.; @                       ",
"                              `.oXiXAXAXZXZXlXU.+XZXZXZXkXkXgXE.W./.=XQ.Y ~ xXZXCXcXiXkXZXZXmXkXZXiX%XZXkX&X%X#XU.    4 0.i.k.c.x.r.e.4 ;                           ",
"                                _.%XZXAXAXZXvXS.%XZXZXkXpXCX^ T ^ R.ZX( R.Q./.ZXCXCXnXkXvXZXmXkXCX9XkXdX#XoXXXI.  4 4.7.p.l.c.x.4 ; @ @                             ",
"                                S.XXnXZXAXAXdXA.8XmX9XkXZX1XF ~.T F W.Y ^ / ~ ZXZXZXZXCXkXmXvXkXiX+X#XoX_.%X+Xt 5.6.t.p.k.c.x.5.@ $                                 ",
"                                  D.8XkXZXAX8XA.#X+XkXZXZX}.^ ^.|.,X5X4X:X}.=XZXZXZXZXZXnXpXvXiXXX'.`.'.+XCXnXg.6.t.p.k.y.p.4 @                                     ",
"                                    XX8XnXZX$XF._.kXZXZXZXZXZXSXsXJ.ZXZXSXSXZXZXZXZXZXZXZXcXiX@XU.`.'.S.cXAXSXL.0.p.l.7., , @                                       ",
"                                      oXiXmXoXF.iXZXZXZXZXkXvXZXaX0 K.kXvXsXJ.nXcXZXZXZXZXvX9XD.S.U.XXiXAXAXSXsXs.l.i.: #                                           ",
"                                      F.XXkX_.G.ZXZXZXZXkXiXiXzXH., 0 pXuXr i cXpXnXZXZXZXmXkX8X%X8XiXZXAXAXAXCXf.y., o                                             ",
"                                        A.%X_.iXAXCXZXnX9X].tXvX@.p , V.r : h.kXkXkXZXmXkXkXiXnXmXpXCXAXAXAXAXSXB., @                                               ",
"                                        O.oXXXCXAXkX8X8XXX' ..3..._ ; - _ < J.wXiX8XmXkXnXCXiXCXkXmXAXAXAXAXAXSXH.@                                                 ",
"                                          `.9XAXZXvXS.S.*X2.} [ [ [ _ { ` +.2.1.bX%XmXZXAXkXkXZXZXZXZXAXAXAXZXZX*X                                                  ",
"                                          A.iXCXZXCXS.+.0X1.} } | } | } [ [ } 2.zXiXnXAXZXiXmXZXZXZXZXAXCXkXcXZX9X                                                  ",
"                                          G.kX%XiXZX@X+.o.{ } } } } } } } } } { 1.8XzXZXCXiXZXZXZXAXAXnX%X#XkX9X                                                    ",
"                                          iXAXvX@XdX%X'.' | } } } } | } } } } | ..1.].ZXnXkXAXZXZXAXmX#XS.+X@XZ.                                                    ",
"                                          nXSXSXkX&XOX@.1.[ } } } } | } } } } } [ 1.tXnXkXkXAXZXZXmX%XS._.D.O.                                                      ",
"                                          nXiXcXZXdX$X@.| } |  . .} } } } | | } [ o.>.dXiXiXSXAXCX8XA.L q 1                                                         ",
"                                        i sX*XXXiXCX].o.|  .3.X. .} } | |  .X. .{ >.wXSXiX%XmXkX&XF.2 : 3 5.7.e.                                                    ",
"                                        h.pXZXkX$X>.{ { ` { ` ) ` [ [ [ ` ` { [ [ 1.0XvX8XoX$X+XC.2 3 4.4.7.t.w.                                                    ",
"                                      0 yXnXZXZX*.) ' +.H - 9 H.) ` ) ` _ = = H ) ' @.OXoX_.D.u 2 3 4.4.6.0.t.                                                      ",
"                                    5 j.CXAXAX8X*.].0XXXw * i B.h.- u e _ - % $ D.0XO.+.t $ o : 5.4.6.6.7.y.5.                                                      ",
"                                    9.L.SXAXAXkXmXnXG.G.K.w =.L r t u r q H * 2 G.J.9 @ X X O 4.5.6.7.t.y.y.4                                                       ",
"                                  e.w.sXSXAXAXAXAXZX_.F.iXt K ].Z.[.[.*.S.*.% % G.C.        < 4.5.t.y.i.p.p.t.                                                      ",
"                                  7.d.MXSXAXAXAXAXZX+XO.G.V.* [. X6X{. X X=.    '.          o O 4.i.p.k.k.k.y.                                                      ",
"                                  7.f.sXpXbXCXSXSXCX%XL 7 V.& K  X[.[. X{.      O.            + 6.k.k.l.l.x.6.                                                      ",
"                                q.0.4 7 $ 9 t V.aXvX&XL . t & * ,.].].[.                      @ 4 k.l.l.l.i.,                                                       ",
"                                t.t.7.3 : 3 : : 2 t F.L . o &     ,.=.                          O 4 5.4 4 , @                                                       ",
"                              9.t.t.t.7.4.7.7.6.5.: % % . . &                                     # # # O 9                                                         ",
"                          w.7.6.y.y.y.7.7.7.4.5.5.4 X . . .             K K                         u B.V.H.                                                        ",
"                          a.p.p.p.p.p.y.t.y.w.w.6.7.4 < % .             K +.*                         aXsX9X                                                        ",
"                          z.c.x.c.c.c.0.4.x.d.z.p.p.i.q.0 5 5   5 r O.,.E H #.                        sXMXaX                                                        ",
"                          s.n.n.n.n.n.t.: u.b.v.c.l.d.s.y.y.7.4 0 '.6X6X{.#.-.                        H.sXH.                                                        ",
"                            u.v.n.n.n.q.O O , y.c.v.M.z.k.i.6.4 g. X6X X{.{.-.                      2 6 r 6 2                                                       ",
"                            % , 4 i.3 O O O o ; 3 3 0 i.l.p.4.5.h.6X6X{.{.{.,.                        + > >                                                         ",
"                                @ ; < O # @         @ < 5.0.3 4 h.6X X{.{.{.,.E                       X X +                                                         ",
"                                                        @ < # < 2 w P O.-.,.<.                        1 > 1 6                                                       ",
"                                                                $ 7 8 7 7 I                           1 > 1 6                                                       ",
"                                                              w L C.t q u q                           1 > > 6                                                       ",
"                                                              e   D.t u G.O.w                         2 > > 6 6                                                     ",
"                                                                  H.t V.    e                         6 6 r g.h.y                                                   ",
"                                                                  K.N.C.                              w O.[.[.,.E                                                   ",
"                                                                  *XK.                                  O.P #.K w                                                   ",
"                                                                  H.G.                                  8 8 8 8                                                     ",
"                                                                  V.O.                                                                                              ",
"                                                                  C.                                                                                                "
};
