/* XPM */
static char *_dee9ba828d948fcdd1831683750095bIAt6Fn3CIQZyxXwi_67[] = {
/* columns rows colors chars-per-pixel */
"81 94 256 2 ",
"   c None",
".  c #121219",
"X  c #131C2C",
"o  c #211E2B",
"O  c #062934",
"+  c #182E34",
"@  c #173236",
"#  c #102C32",
"$  c #33383A",
"%  c #2A2C34",
"&  c #4C3A31",
"*  c #4F391C",
"=  c #6A5A28",
"-  c #173544",
";  c #032A54",
":  c #1C2756",
">  c #043257",
",  c #0F304D",
"<  c #232954",
"1  c #2F3650",
"2  c #022E68",
"3  c #053567",
"4  c #033678",
"5  c #16346F",
"6  c #2E366A",
"7  c #453C4D",
"8  c #37494D",
"9  c #2A4B78",
"0  c #504A51",
"q  c #665151",
"w  c #716559",
"e  c #4B5570",
"r  c #655963",
"t  c #77586B",
"y  c #726B6F",
"u  c #51647D",
"i  c #2B4536",
"p  c #DA0506",
"a  c #D41514",
"s  c #E50102",
"d  c #EC0304",
"f  c #EA0A0A",
"g  c #F30303",
"h  c #FD0D0B",
"j  c #F60A09",
"k  c #FD110E",
"l  c #F4110F",
"z  c #ED1B17",
"x  c #EA1B18",
"c  c #F51613",
"v  c #FB1411",
"b  c #F31916",
"n  c #F61C1B",
"m  c #DB221C",
"M  c #F8211F",
"N  c #CF3230",
"B  c #ED2928",
"V  c #F42726",
"C  c #EA3836",
"Z  c #F33736",
"A  c #F0302F",
"S  c #A06A23",
"D  c #BB5651",
"F  c #8D6D52",
"G  c #877470",
"H  c #9D6C54",
"J  c #C95A56",
"K  c #D35D5A",
"L  c #DC5E5B",
"P  c #DC5653",
"I  c #D64A46",
"U  c #EC4846",
"Y  c #F24846",
"T  c #F2514F",
"R  c #EA5957",
"E  c #F25856",
"W  c #E8514E",
"Q  c #CF6A5A",
"!  c #EF615E",
"~  c #D2716D",
"^  c #E86967",
"/  c #F36A67",
"(  c #EB716D",
")  c #EC7572",
"_  c #E97A77",
"`  c #F27E7B",
"'  c #F27773",
"]  c #F3726F",
"[  c #BC2D29",
"{  c #B79C13",
"}  c #978629",
"|  c #AB9D19",
" . c #D1B30F",
".. c #E4BA08",
"X. c #D4AF37",
"o. c #C28B21",
"O. c #F2DB08",
"+. c #EBD10D",
"@. c #FDEA01",
"#. c #FAE606",
"$. c #FAE919",
"%. c #E9D02B",
"&. c #F7E72C",
"*. c #DCC330",
"=. c #B18973",
"-. c #A6905B",
";. c #CDAD4F",
":. c #C98768",
">. c #C69778",
",. c #D99975",
"<. c #D58B6C",
"1. c #E8817E",
"2. c #EF8E7B",
"3. c #D9AC74",
"4. c #E4A079",
"5. c #D1855D",
"6. c #DDC64F",
"7. c #E3CD54",
"8. c #E6D26F",
"9. c #023984",
"0. c #013A8C",
"q. c #053983",
"w. c #013C94",
"e. c #013E9B",
"r. c #083D94",
"t. c #153F80",
"y. c #003FA1",
"u. c #08429A",
"i. c #174695",
"p. c #13428D",
"a. c #264B89",
"s. c #0241A5",
"d. c #0142AD",
"f. c #0A46A5",
"g. c #0144B5",
"h. c #0045BB",
"j. c #0849B9",
"k. c #1451B2",
"l. c #2A5EB1",
"z. c #3566B3",
"x. c #665C83",
"c. c #54678F",
"v. c #6B718A",
"b. c #5371AF",
"n. c #0047C2",
"m. c #004ACC",
"M. c #0349C6",
"N. c #004CD4",
"B. c #004ED8",
"V. c #0354DB",
"C. c #1C5CC0",
"Z. c #005BE7",
"A. c #1464DC",
"S. c #4C7DC8",
"D. c #867D83",
"F. c #76859B",
"G. c #918D8F",
"H. c #A9948A",
"J. c #B8958B",
"K. c #BD9C92",
"L. c #B59C93",
"P. c #AC938B",
"I. c #BAA39A",
"U. c #A7A19E",
"Y. c #AEA9A9",
"T. c #9C9DAE",
"R. c #D98985",
"E. c #C4988D",
"W. c #C39D93",
"Q. c #D2938D",
"!. c #EC8582",
"~. c #EB8985",
"^. c #E78B87",
"/. c #F58582",
"(. c #F58985",
"). c #F38D89",
"_. c #EB928D",
"`. c #E3908A",
"'. c #F2928E",
"]. c #EC9691",
"[. c #EC9A95",
"{. c #E99D98",
"}. c #F19995",
"|. c #C4A59B",
" X c #CBA49B",
".X c #C7A498",
"XX c #D2B799",
"oX c #D6AA8E",
"OX c #E9AC85",
"+X c #F3B48A",
"@X c #EBA29C",
"#X c #E5A19B",
"$X c #F0B192",
"%X c #C5ACA3",
"&X c #CCACA3",
"*X c #D3ABA4",
"=X c #CDB3AB",
"-X c #C9B2A7",
";X c #D2B4AB",
":X c #D6B6AB",
">X c #D4BCB4",
",X c #D9BDB4",
"<X c #D6BFB8",
"1X c #CBB8B2",
"2X c #EBA6A1",
"3X c #EBAAA4",
"4X c #E8ACA7",
"5X c #EBB3AD",
"6X c #E5B1AA",
"7X c #EDB7B1",
"8X c #EDBBB4",
"9X c #E8BEB7",
"0X c #F1B1AB",
"qX c #FAC49C",
"wX c #FAC397",
"eX c #DBC4BC",
"rX c #D7C3BA",
"tX c #D7C7AD",
"yX c #ECC2BC",
"uX c #E1CABD",
"iX c #EDCBB6",
"pX c #BCBDC6",
"aX c #C5BFC0",
"sX c #DDCBC4",
"dX c #D8CCC7",
"fX c #DCD1CC",
"gX c #CFCDCE",
"hX c #EDC7C0",
"jX c #E2CCC4",
"kX c #EDCBC5",
"lX c #E6CFC8",
"zX c #F0CDC7",
"xX c #E4D3CC",
"cX c #ECD3CC",
"vX c #E7D5C7",
"bX c #F0D4CD",
"nX c #E6D7D0",
"mX c #E7D8D1",
"MX c #EBDBD4",
"NX c #EEDFD8",
"BX c #EAD8D2",
"VX c #F0DBD4",
"CX c #F1DED7",
"ZX c #EFE1DA",
"AX c #F2E4DD",
"SX c #F2E5E0",
"DX c #F6E8E2",
"FX c black",
"GX c black",
"HX c black",
"JX c black",
"KX c black",
"LX c black",
"PX c black",
"IX c black",
"UX c black",
/* pixels */
"            b                                                                                                                                                     ",
"z b v       z b v                                                                                                                                                 ",
"c v c b v v z z v v v                                                                                     x b v v v                                               ",
"b c b v v v v c v v v v                                                                           z c v v v c c v v z                                             ",
"x b v v v v v k k k k k v                                                                     c c v v v v v v c v v v b                                           ",
"m c v v v k k h h k k k k c                                                             c v v v k k k k k k k k k k k v z                                         ",
"x v v v v k k h h h h k k k f                                                       c v k k k k k k k k k k h k k k k k c                                         ",
"x v v v k k h h h h h h h k h f f d d d d f g g g g g f                         c v k k k k k k h h h h h h h h h k k k k c                                       ",
"  b v v k h v Z n h k h h h h j g d g g g d s d g g g f c c c c c c c b z b c v k k k h h h h h h h h h h h h h h h h k k v                                       ",
"  x v k h h A ` Y V E T M k h h g d d d g g s p p s f f v k k v k v v k k k k k h h h h h h h h h h h h h h h h h h h h k k k v                                   ",
"  m v A n c / (.] U ` (.] Y b V n d s s d d d d s s d j k k k k k k k k k k h h h h h h h h h h h h h j h h h h h h h h k k k k k c                               ",
"    z / T Z /.(.(./ ) (.@X/ C !.E f p p s s s s s d p f k k h h h h h h h h h h h h h h h h h h h h n C v h h h h h h h h h h h h k v                             ",
"    B ] ` ' (.(.(./.` }.zX5X4XVX[.x I N a N N m p s p f k h h h h h h h h h h h h h h h h v h h h V / ' Z j h h h h h h h h h h h h k k c                         ",
"    x Z ! ` (.(./././.8XAXAXcXcX2X! _ K I L L P m p p f h k v h h h h h v V h h h h h A E / T b h Y (.` / Z V h h h h Z V h h h h h h k k v                       ",
"    P T R 1.(./././.'.bXAXAXAXSXzX_.^._ L L L L I a p f v T / Y c h h h n U c h h v T ` (.(./.T j A ' ` ` 1.` T c h V ! Z c V h h h h h h k k                     ",
"      ~.).'././.(./.}.CXAXAXAXAXkX3X#X1.^ L L L K N p h V ` }.~.n h h j C _.V h c ^ )./.1.1./.` E E ) ` ` }.@X(./ V E ] U A E M h h h h h k h g d                 ",
"      !.@XkX'.'.yX}.'.cXAXAXAXcX5X7X6X1.L L L L K J m c n !.cX5XU c j h T 7XV j W cXbX@X^ ) /././././.` `.VXbX]./._.[.0X( W ].] A h V Y E E V g d d               ",
"      R.3XAX0X8XAXyX_.6XNXAXAXkX_.yX:X_ Q K L L K J C Y R ` 5XNXcX~.B Y ].9XA h T }.5X@X( /././././.).!.9XAXAX3X/.5XcX8XcXyX2X/.T n ] (.(.) B d d d d             ",
"      Q.].zXBXAXSXAXzXMXAXAXAXCXhXCX:XQ.~ K K K K D R ` 8XzXyXyXAXBX[./.yXcX` E ~.0X7XkX8X/././.].8XyX6XxXAXAX8X/.8XSXAXAXAX2X@X0X( /.` T z d s s d j l           ",
"        6X3XyXNXSXAXAXAXAXAXAXAXAXAXeX,X~ K K K J J /./.}.2X{.kXAXAX3X@XkX5X' T @XAXSXAXbX).].8XlXAXZXcXmXAXAXyX(.hXAXAXAXVX2XbXAXkX(.C g g s p s d h v c         ",
"        jXCXCXAXSXAXAXAXAXAXAXAXAXAXlXeXE.J K K D ~ (.).}.5XcXAXzX5X{.cX5X^.R / (.3X9XjXAX}.5XAXNXAXAXAXBXNXAX9X_.cXAXAXAXcXyXAXAXbX).B g d p p s j k k v         ",
"        eXAXSXSXSXAXAXAXAXAXAXAXAXAXcXeX X=.Q J D ~ ~.8XCXAXAXcX5XkXcXAX2X{.1.1.(.(.{.cXAX8X0XAXNXSXAXAXNXBXcX{.5XAXAXAXAXcXMXAXAXyX~.C d p N N f h k k v v       ",
"        ;XNXSXSXAXAXAXAXAXAXAXAXAXAXBXeX&X XE.=.E.*X].yXSXAXAXAXhX@XcXAX[.].2X5XyXhXMXAXAXVX7XNXZXSXSXAXAXxX9X8XNXSXSXAXAXAXAXAXhX}.!.W s p N P c h v n c v v z   ",
"        &XBXSXSXAXAXSXAXAXAXAXAXAXAXBXeX&X X.XW.;X,X9XNXSXAXAXAX2XhXyXcX@X_ !.6XAXAXAXAXAXSXMXNXNXAXSXSXAXZXnXAXSXSXSXSXAXAXkX2X)./.!._ N [ N U v M Y Z v v v b z ",
"          lXSXSXAXAXAXAXAXAXAXAXAXAXZXjX&X XW.W.;XrXNXAXAXAXAXAXcXkX2XhX`.^.) _.SXAXAXAXAXSXSXAXMXAXSXSXAXAXNXmXAXSXSXSXAXcX'./././.R.R.J ~ Q T k E _.A k v b c b ",
"          eXSXSXSXAXAXAXAXAXAXAXAXAXAXxX&X XK. X;XrXZXAXSXAXAXAXhX`.6X9XR ) ^ {.AXAXAXAXSXSXSXAXNXZXSXSXSXAXAXNXmXAXSXSXAX8X/././.!.1.~ ~ Q._ / V _.yXU v b z z   ",
"          >XAXSXSXAXAXAXAXAXAXAXAXAXAXNX;XW.W. X;XrXZXAXSXSXAXVX^.!.yXkX) _.yXcXAXAXAXAXSXSXSXAXZXZXSXSXSXSXAXAXMXmXAXAXAXkX[././.R.R.*X,XuX`.U U 8XyXU c x       ",
"          &XNXSXSXAXAXAXAXAXAXAXAXAXAXAX,XW.W.K.;XeXAXAXAXAXAXcX{.kXAXNX3X[.cXAXAXAXAXAXAXSXSXSXAXNXAXSXSXSXAXSXAXMXxXMXZXAXbX@X!. X,XjXeX9X}.].9XyX_.B x         ",
"            BXSXSXAXAXSXAXAXAXAXAXAXAXAXjXK.J.W.;XsXAXAXAXAXAX9X#XAXAXkX2X^.{.CXAXAXAXAXSXSXSXSXAXNXAXSXSXSXSXSXAXNXxXfXBXAXAX5XR.,XlXeX*X5XhXAXyXT B m           ",
"            jXSXSXAXAXSXAXAXAXAXAXAXAXAXjXW.W. X;XxXAXAXAXAXAXyX_ [.VXyX~.( 5XAXAXAXAXAXSXSXSXSXSXZXZXSXSXSXSXAXAXBXNXMXxXZXyX@X:XjXxXeXcXAXSXAX].V x             ",
"            ;XAXSXSXAXAXAXAXAXAXAXAXAXAXjXW. X X;XBXAXAXAXAXAXVX~.( 8X2XR @XcXAXAXAXAXAXSXSXSXSXSXAXMXAXSXSXSXAXAXmXAXAXmXcXlXcXjXlXxXxXAXSXSXCX[.I               ",
"            W.MXSXSXAXAXAXAXAXAXAXAXAXAXsX.X XW.>XBXAXAXAXAXAXcX7X9X1.^ _ @XcXAXAXAXAXAXSXSXSXSXSXSXNXNXSXSXSXAXMXBXAXAXBXAXAXBXjXBXxXZXSXSXSXAX:X                ",
"              xXSXSXAXAXAXAXAXAXAXAXAXAXsX X.XW.eXNXAXAXAXAXAXNXBX5X4X( @X[.zXAXAXAXAXAXAXSXSXSXSXSXAXMXZXAXAXZXnXAXAXAXMXNXAXcXxXNXNXAXSXSXAXuX                  ",
"              eXSXSXAXAXSXAXAXAXAXAXAXZXsX&XW.W.,XNXAXAXAXAXAXBX#X2X5X1._ ( kXAXAXNXZXAXAXAXSXSXSXSXSXZXBXAXAXxXZXAXAXAXNXMXAXxXcXZXAXSXSXAXjX                    ",
"              =XAXSXSXAXAXAXAXAXAXAXAXAXjX&XE.K.;XNXAXAXAXAXAX7X( kX[._.6X_ hXAXAXMXsXcXAXAXAXAXSXSXAXAXNXxXnXNXAXAXAXAXZXBXAXxXNXAXSXSXAXcX                      ",
"                nXSXSXAXAXAXAXAXAXAXAXAXBX&XK..X,XAXAXAXAXAXAX4X5XAX@XyXAXzXNXAXAXAXxXeXxXAXAXAXSXSXAXAXZXeXsXNXAXAXAXAXAXBXAXxXAXSXSXSXBX                        ",
"                eXSXSXSXAXNXNXAXAXAXAXAXNX|.W. XeXAXAXAXAXAXAXyX0XVXBXcXyXkXAXAXAXAXAXjX>XjXAXAXAXAXAXAXNXeXxXmXAXAXAXAXAXMXNXBXAXSXSXAX,X                        ",
"                =XAXSXSXAXBXxXAXAXAXAXAXZX|..X.XeXAXAXAXAXAXAXAXzX4X3X^.3XVXAXAXAXAXAXMX,X<XZXAXAXAXAXAXNX>XxXBXNXAXAXAXAXMXMXZXSXSXSXlX                          ",
"                  xXSXSXSXNXsXAXAXAXAXAXNX%XW..XeXAXAXAXAXAXAXAX4X1.^ _.].zXAXAXAXAXAXAXjX>XxXAXSXSXAXAXBX=XxXAXmXAXAXAXAXNXMXAXSXSXNX:X                          ",
"                  rXSXSXSXNXsXAXAXAXAXAXAX=XW..XeXAXAXAXAXAXAX8XR @X{.3X_ zXAXAXAXAXAXAXBX<XsXAXAXSXAXAXxX=XxXAXNXBXAXAXAXZXMXSXSXAXuX                            ",
"                  %XZXSXSXNXrXnXSXSXSXAXAX>XK..XeXAXAXAXAXAXAX{.( _.^.5X( 9XAXAXNXAXAXAXAXeX<XZXAXAXAXAXjX;XBXAXAXMXNXAXAXAXNXSXAXeX                              ",
"                    mXSXSXNX<XsXAXAXAXAXAXeXJ. XeXAXAXAXSXAXAX@X/.{.~.{._.8XAXAXMXlXBXAXAXxX>XMXAXAXAXAXeXrXZXAXAXAXBXZXSXSXSXAXeX                    :.:.        ",
"                    sXZXSXNX<XrXAXSXAXAXAXjXJ.W.jXAXAXAXAXAXAX~.! ~._.].2X5XAXAXAXBXjXxXAXNX<XxXAXAXAXBXeXsXAXAXAXAXNXBXAXAXNXeX.X                    ,.:.<.      ",
"                      MXSXNX<X1XAXSXSXAXAXxXK.W.jXAXAXAXAXAXbX^ R 1.~.) ].kXAXAXAXAXcXeXBXAXsXlXAXAXNXBXeXxXAXAXAXAXAXMXMXxXrX X                  ,.OXOX,.:.      ",
"                      xXAXNX,X=XNXAXAXAXAXcXW.W.jXMXZXAXAXAXVX1.` 2X5X@X3XAXAXAXAXAXAXxXjXAXxXsXAXZXcXxX<XBXAXAXAXAXSXNXsX>X X              p.a.>.qXqX+X,.,.      ",
"                        NXZXeX%XMXAXAXAXAXMX XJ.sXnXZXAXAXCX4X( _.9X9X@X_ AXAXAXAXAXAXNXsXNXNXsXAXAXxXxXrXAXAXAXAXSXZXjX,X&X              u.g.h.T.qXqX+XOX5.      ",
"                        xXZXeX|.xXSXAXAXAXNX&XJ.<XsXNXAXAXBX9X_.1.8XkX7X~.cXZXAXAXAXAXAXxXxXAXfXAXAXjXeXsXAXAXAXAXZXxXeX;X              a.k.n.m.b.qXqX+X<.        ",
"                          MXeX&XeXSXAXAXAXAX>XK.|.sXAXAXAXZXkX7X1.!.cX7X`.xXAXAXAXAXAXAXNXxXAXxXZXAXeX=XBXAXAXAXZXjXeX&X            u.s.f.z.M.N.b.$X,.            ",
"                          fXsX&X1XAXAXAXAXAXeXK.J.sXAXAXAXAXAXhX!.) cX6X6XZXAXAXAXAXAXAXAXxXMXxXZXAXeX>XAXAXAXNXjXeX>X        f.p.f.h.m.N.C.l.d.u OX5.            ",
"                            eX;X=XZXSXAXAXAXjXW.P.MXAXAXAXAXAX9X9X7XCXjXcXAXMXBXBXZXAXAXAXMXxXnXAXNX=XsXAXAXNXjXeX:X      r.d.d.k.l.N.V.V.u., -                   ",
"                            =X=X%XMXSXAXAXAXxXW.I.AXAXAXAXMXmXNXcXhX9X7XyXzXZXNXBXxXBXMXAXAXBXBXAXBX%XMXAXBXjXeX;XW.    0.s.g.M.m.S.V.Z.s.- %                     ",
"                              |.&XsXSXSXAXAXcXW.=XAXAXAXxXxXlX`.`.{.4X`.U ^ zXAXNXBXfXxXZXAXMXxXAXsX>XAXxXeX,X;XE.    4 e.g.M.B.N.a.p.4 -                         ",
"                                |.>XSXSXSXAXBXK.>XAXAXxXfXAX) R ) !.AX` ~._.[.SXZXZXMXxXnXAXBXxXAX<XxXjX>X%X|.E.  4 0.e.h.m.B.N.4 - @ @                           ",
"                                K.%XMXAXSXSXlXJ.eXMXrXxXAX7XC ].R C !.U ( ) ^ AXAXAXAXNXxXNXMXxXjX=X:X&X|.rX=Xr q.w.s.h.n.B.N.9.@ $                               ",
"                                  K.eXnXAXAXeXJ.;X=XxXAXAX@X( [.#X4XyX8X0X@X3XAXAXAXAXAXNXfXmXsX%X.X X.X=XZXMXc.w.s.h.n.d.h.4 @                                   ",
"                                    %XeXMXAX:XJ.|.xXAXAXAXAXAXDXdXY.AXAXAXDXAXAXAXAXAXAXAXmXsX-XW. X.XK.nXSXDXT.y.h.m.u.> > @                                     ",
"                                      %XsXNX&XP.sXAXAXAXAXxXBXZXgX9 Y.xXBXdXU.MXnXAXAXAXAXBXrXL.W..X%XsXSXSXDXgXk.m.g.; #                                         ",
"                                      H.%XxX|.I.AXAXAXAXxXjXsXjXU.; 9 fXaXe u mXfXMXAXAXAXNXxXeX>XeXsXAXSXSXSXZXz.d.> +                                           ",
"                                        J.>X|.sXSXZXAXMX<XXXXXBX;.i , G.e ; v.xXfXxXAXNXxXxXsXMXNXfXZXSXSXAXSXDXF.> +                                             ",
"                                        =.&X%XZXSXxXeXeX%XX.%.8.%.| @ = } 5 Y.uXsXeXNXxXMXZXsXZXxXNXSXSXSXAXSXDXU.+                                               ",
"                                          |.rXSXAXBXK.L.=X7.@.O.O.O.| +. .-.7.6.mX>XNXAXSXxXxXAXAXAXAXSXSXSXAXAX-X                                                ",
"                                          J.sXZXAXZXK.=.tX6.@.#.#.#.O.@.O.O.#.7.vXeXMXAXAXsXZXAXAXAXAXSXZXxXnXZXrX                                                ",
"                                          I.xX>XsXAX-X-.*.+.@.@.@.@.@.@.@.@.#.+.7.uXjXAXZXsXAXAXAXSXSXMX>X;XxXeX                                                  ",
"                                          sXSXBX-XjX>X.XX.#.@.@.@.@.#.#.@.@.@.#.%.6.XXAXMXxXSXAXAXSXMX;XK.=X=XJ.                                                  ",
"                                          MXDXSXxX<XXX;.6.O.@.@.@.#.#.#.@.@.@.#.O.6.tXMXxXxXSXAXAXZX>XK.|.L.=.                                                    ",
"                                          MXsXmXAXsX:X;.O.#.#.$.$.#.@.#.#.#.#.#.O.*.3.jXsXsXSXAXZXeXJ.G 0 <                                                       ",
"                                        u dX1X%XsXZXXX*.#.$.&.&.$.@.@.#.$.$.&.&.%.3.uXDXsX>XNXxX,XP.1 ; 2 9.e.p.                                                  ",
"                                        v.fXAXxX:X3.+.+..... .{ +.#.O.O. . .+.+.O.6.tXBXeX&X:X=XH.1 2 0.0.e.d.i.                                                  ",
"                                      9 pXMXAXAX>.o.X.-.S = 0 U.} { }  .{ * * S o.X.;.XX&XI.P.y - 2 0.0.w.y.s.                                                    ",
"                                    5 b.ZXSXSXeX>.oXrX%Xw & u F.v.= y w { = o % P.:X=.=.r $ o ; 9.0.w.w.y.d.q.                                                    ",
"                                    t.T.DXSXSXxXNXMXI.I.Y.q ,.G e r y e 0 S & $ I.Y.8 % X X O 0.9.w.e.s.d.d.4                                                     ",
"                                  p.i.gXDXSXSXSXSXZX|.P.sXr H oXJ.OXOX>.K.>.$ % I.H.        , 0.4 s.d.g.h.h.s.                                                    ",
"                                  e.l.MXDXDXSXSXSXAX=X=.I.G.& OX+XqX+X+X+X4.    .X          + O 0.h.h.n.n.M.d.                                                    ",
"                                  e.z.dXfXmXZXDXDXZX>Xy 7 G.o H wXoXoX$X$X      =.            + e.n.n.m.m.N.w.                                                    ",
"                                u.y.t.7 $ 8 r G.dXBX,XG . r o & 4.oXoXOX                      + 4 n.m.m.m.g.>                                                     ",
"                                s.s.e.2 ; 2 ; ; - r P.G . o o     4.4.                          O 4 9.4 4 > @                                                     ",
"                              t.s.s.s.e.0.e.e.w.9.; % % . . .                                     # O O O 8                                                       ",
"                          i.e.w.d.d.d.e.e.e.0.9.9.4 X . . .             F F                         y F.G.U.                                                      ",
"                          j.h.h.h.h.h.d.s.d.i.i.w.e.4 , % .             F -.=                         gXdXrX                                                      ",
"                          M.B.N.N.B.B.y.0.N.l.M.h.h.g.u.9 5 5   5 e =.4.Q H :.                        gXmXdX                                                      ",
"                          k.Z.Z.Z.Z.Z.s.; f.C.V.B.m.l.k.d.d.e.4 9 .XqXqX+X:.<.                        U.gXU.                                                      ",
"                            f.V.Z.Z.Z.u.O O > d.B.V.S.M.n.g.w.4 x.qXqX$X+X+X<.                      1 6 e 6 1                                                     ",
"                            $ > 4 j.3 O O O + - 3 3 9 g.m.h.0.9.v.qXqX+X+X+X4.                        o : <                                                       ",
"                                @ - O O # @         + , 9.s.2 4 v.qX$X+X+X+X4.Q                       o X o                                                       ",
"                                                        + , # , 1 w H =.<.4.5.                        < : < 6                                                     ",
"                                                                $ 7 0 7 7 F                           < : : 6                                                     ",
"                                                              q G H.r 0 y 0                           < : : 6                                                     ",
"                                                              F   L.r y I.=.q                         < : : 5 6                                                   ",
"                                                                  U.r G.    w                         6 6 e x.x.t                                                 ",
"                                                                  Y.D.H.                              q =.OXOX4.Q                                                 ",
"                                                                  1XY.                                  =.~ :.F q                                                 ",
"                                                                  U.I.                                  0 7 7 7                                                   ",
"                                                                  G.=.                                                                                            ",
"                                                                  H.                                                                                              "
};
