/* XPM */
static char *_dee9ba828d948fcdd1831683750095bIAt6Fn3CIQZyxXwi_7[] = {
/* columns rows colors chars-per-pixel */
"81 94 256 2 ",
"   c None",
".  c #121117",
"X  c #141B2C",
"o  c #052935",
"O  c #182B33",
"+  c #173236",
"@  c #0F2B30",
"#  c #263637",
"$  c #2E2D35",
"%  c #221D22",
"&  c #4C3A31",
"*  c #52391C",
"=  c #6A5A28",
"-  c #163543",
";  c #032A55",
":  c #1C2756",
">  c #043257",
",  c #0F304D",
"<  c #232A55",
"1  c #2E354E",
"2  c #022E68",
"3  c #053568",
"4  c #033678",
"5  c #17346F",
"6  c #2F3668",
"7  c #453C4E",
"8  c #36484D",
"9  c #2A4B78",
"0  c #524C52",
"q  c #684F50",
"w  c #716559",
"e  c #4B556F",
"r  c #655963",
"t  c #75586B",
"y  c #736C6F",
"u  c #51647E",
"i  c #2B4536",
"p  c #BE3633",
"a  c #DA0507",
"s  c #CF1415",
"d  c #E40204",
"f  c #EC0203",
"g  c #EB0B0B",
"h  c #F30303",
"j  c #FD0D0C",
"k  c #F70908",
"l  c #FD110E",
"z  c #F4110F",
"x  c #EB1A17",
"c  c #F41613",
"v  c #FB1311",
"b  c #F21915",
"n  c #F41C1B",
"m  c #F91917",
"M  c #DD211C",
"N  c #F6201F",
"B  c #E9231F",
"V  c #D12D2C",
"C  c #F42423",
"Z  c #F32B2A",
"A  c #EC3837",
"S  c #F43634",
"D  c #EB2C2A",
"F  c #9A6122",
"G  c #F3403E",
"H  c #BD554F",
"J  c #8D6D52",
"K  c #877470",
"L  c #9B6558",
"P  c #D74945",
"I  c #CC5754",
"U  c #DC5A56",
"Y  c #D45855",
"T  c #C54D49",
"R  c #EB4846",
"E  c #F24A47",
"W  c #E85956",
"Q  c #F25856",
"!  c #E9514E",
"~  c #CD6B58",
"^  c #D3736E",
"/  c #E96865",
"(  c #F36A67",
")  c #EB716E",
"_  c #E87A76",
"`  c #F37976",
"'  c #F57E7A",
"]  c #F47673",
"[  c #F4736F",
"{  c #B69B14",
"}  c #B08B24",
"|  c #9A9220",
" . c #D2B310",
".. c #D5AF36",
"X. c #D3A216",
"o. c #F2DB07",
"O. c #EACF0C",
"+. c #FDEA01",
"@. c #FAE605",
"#. c #F9E818",
"$. c #EBD329",
"%. c #F8E82A",
"&. c #DBC32F",
"*. c #AF8971",
"=. c #A6905B",
"-. c #CDAE4E",
";. c #CA8868",
":. c #C69678",
">. c #DA9A76",
",. c #D18675",
"<. c #EB827E",
"1. c #F6817D",
"2. c #E79E78",
"3. c #DAAC74",
"4. c #E6A078",
"5. c #D2855D",
"6. c #DEC655",
"7. c #E4CE4E",
"8. c #E7D26E",
"9. c #023984",
"0. c #013A8C",
"q. c #053983",
"w. c #013C94",
"e. c #013E9B",
"r. c #153F80",
"t. c #003FA1",
"y. c #07429A",
"u. c #174695",
"i. c #13428C",
"p. c #264B89",
"a. c #0241A5",
"s. c #0042AC",
"d. c #0B47A6",
"f. c #0144B4",
"g. c #0045BB",
"h. c #0849B9",
"j. c #1451B2",
"k. c #2A5EB1",
"l. c #3666B3",
"z. c #665D84",
"x. c #54678F",
"c. c #6B728A",
"v. c #5371AF",
"b. c #0047C2",
"n. c #004ACC",
"m. c #0349C6",
"M. c #004CD4",
"N. c #004ED8",
"B. c #0353DB",
"V. c #1C5CC0",
"C. c #005BE7",
"Z. c #1564DC",
"A. c #4C7CC7",
"S. c #877E83",
"D. c #75869B",
"F. c #918D8E",
"G. c #AA948A",
"H. c #B8958B",
"J. c #BC9C93",
"K. c #B59C93",
"L. c #AE928A",
"P. c #BAA39A",
"I. c #A6A19E",
"U. c #A6A5A7",
"Y. c #B6ACAB",
"T. c #9C9DAD",
"R. c #C2998E",
"E. c #C39C93",
"W. c #CA9D94",
"Q. c #D19089",
"!. c #EB8581",
"~. c #EB8A85",
"^. c #EB8E8A",
"/. c #E58A86",
"(. c #F28985",
"). c #EB938E",
"_. c #E4928D",
"`. c #EC9591",
"'. c #EC9A95",
"]. c #E89B96",
"[. c #F19995",
"{. c #F1918D",
"}. c #C4A49B",
"|. c #CAA39A",
" X c #C6A699",
".X c #D1B799",
"XX c #D6AA8E",
"oX c #E9AC85",
"OX c #F3B38A",
"+X c #F6B98D",
"@X c #ECA29D",
"#X c #E5A19B",
"$X c #F8BC93",
"%X c #EDAF8C",
"&X c #CCACA3",
"*X c #C5ACA3",
"=X c #CDB3AA",
"-X c #CAB1A7",
";X c #D2B4AB",
":X c #D6B6AA",
">X c #CCB8B1",
",X c #D5BCB4",
"<X c #D9BDB5",
"1X c #D5BDB5",
"2X c #D4AEA5",
"3X c #EBA6A1",
"4X c #EBAAA4",
"5X c #E8ACA7",
"6X c #EBB3AD",
"7X c #E4B5AF",
"8X c #ECB6B1",
"9X c #ECBAB4",
"0X c #EDBEB9",
"qX c #E5BBB4",
"wX c #F0B1AB",
"eX c #FBC49C",
"rX c #FBC499",
"tX c #D6C2BA",
"yX c #DBC4BC",
"uX c #D9C4B8",
"iX c #D7C7AD",
"pX c #EDC3BC",
"aX c #E2C6BB",
"sX c #F0C9B4",
"dX c #BCBEC6",
"fX c #C5BFC0",
"gX c #DDCBC3",
"hX c #D9CBC6",
"jX c #DCD1CC",
"kX c #CFCDCE",
"lX c #E2CCC4",
"zX c #EDCBC4",
"xX c #E9CBC4",
"cX c #F0CCC6",
"vX c #E4D3CC",
"bX c #ECD4CD",
"nX c #E5D3C6",
"mX c #F0D3CC",
"MX c #E6D7D0",
"NX c #E7D8D1",
"BX c #EBDBD4",
"VX c #EEDFD8",
"CX c #E7D8D4",
"ZX c #F0DCD5",
"AX c #F1DDD7",
"SX c #EFE1DA",
"DX c #F2E4DD",
"FX c #F2E5E0",
"GX c #F6E8E2",
"HX c black",
"JX c black",
"KX c black",
"LX c black",
"PX c black",
"IX c black",
"UX c black",
/* pixels */
"            b                                                                                                                                                     ",
"b v v       b v v                                                                                                                                                 ",
"v v c b v   x b v v v                                                                                       b v v v                                               ",
"c b b v v v v c v l v v                                                                           n c v v v c c l v x                                             ",
"x b v v v v v l l l l v c                                                                     b c v v v v v v c v v v b                                           ",
"M v v v v l l l j l l l l c                                                             c c v v l l l l l l l l l l l v                                           ",
"x v v v v l l j j j j l l l g                                                       c v v l l l l l l l l l j l l l l l c                                         ",
"x v v v l l j l j j j j j l k g g d f f f d h h h h h h c                       c v l l l l l l j j j j j j j j j l l l l                                         ",
"  b v v l j m E n j c j j j j k k f h h h h a d f h f g c c c c c c b b     c v l l l j j j j j j j j j j j j j j j j l l c                                       ",
"  x v v j j A ' E Z ( Q N v j k k f f f h h f a a a g z l l l v l v v l l l l l l j j j j j j j j j j j j j j j j j j j l l l l                                   ",
"  x c S C C ( 1.[ E ` ' ( E m Z n f d d f f f f f d f z l l l l l l l l l l j j j j j j j j j j j j j j j j j j j j j j j l l l l                                 ",
"    n ( Q Q 1.1.1.( ) (.3X) A !.Q g a s d d d d d f a g l l j j j j j j j j j j j j j j j j j j j j C E n j j j j j j j j j j j j l v                             ",
"    B ( ` ` 1.1.1.' ` [.bX9X5XZX'.x R P s V P V a d a g l j j j j j j j j j j j j j j j v m v j j C [ ` E j j j j j j j j j j j j j l v                           ",
"    M Z ! ` 1.1.1.1.1.0XDXDXbXZX6X/ _ U P U W U V a a g j v m j j j j j v C j j j j l S Q ( Q C k S ' ` ( E Z l j j j S Z j j j j j j l l v                       ",
"    ~ Q ( ' 1.1.' ' (.ZXDXDXDXFXcX~.<._ / U U U Y s a z m Q ( E m j j j n E m j j m E ` 1.' ' Q n C / ` ) ' ` Q m j C ( G v C j j j j j l l l                     ",
"      <.(.`.1.1.(.' [.AXDXDXDXDXzX3X#X_ U U U U Y T s k C ` [.~.N j j j A ).Z j c / (.1.` ` ' ' ( ( ` ` ) [.@X1.( S Q ] E S ( N j j j j j v j h                   ",
"      _ @XbX{.`.cX[.~.zXDXDXDXzX3X6X7X_ U U U U Y I M b n <.bX6XR c k k ! 6XC k ! bXZX3XW ( 1.' 1.' ' ` /.ZXBX).' ^.3X@X) ! `.( Z j C E Q Q D h f f               ",
"      ^ @XDX9XzXFXcX`.7XVXDXDXzX^.zX:X^ Y Y U U I T D E / <.8XVXbX~.D E ).0XA v Q [.wX3X_ ' ' ' ' 1.(.!.qXDXDX4X' wXAXzXbX0X@X1.Q n ( 1.1.( D f f f f             ",
"      ^ ^.pXBXDXFXDXZXDXDXDXDXDXcXAX:XW.~ Y Y Y I H W ` 8XcX0XqXDXVX'.1.0XzX` Q '.0XpXmXpX1.' !.'.pXzX7XvXDXDX0X' 8XDXDXDXDX@X'.6X_ ' ] E b f d d f k z           ",
"        7X4XpXDXFXDXDXDXDXDXDXDXDXDXtXyX,.I Y Y T I ' ' (.[.'.cXDXAX].].pX5X/ E '.DXDXDXZX(.).zXvXDXDXCXNXSXDXzX!.0XDXDXDXAX@XbXDXmX(.A h h f a d f j v c         ",
"        yXDXDXFXFXDXDXDXDXDXDXDXDXDXlXyXW.~ I I H ^ 1.(.[.8XbXAXpX6X3XbX9X`.! ( 1.@X6XaXDX3X4XDXBXDXDXDXNXCXDX0X~.bXDXDXDXbX0XDXDXAX{.A f f a a d k l l c         ",
"        ;XDXFXFXFXDXDXDXDXDXDXDXDXDXCXyX&XR.^ H H ^ !.9XDXDXDXbXpXpXbXDX4X3X/.<.!.!.@XbXDXzX@XAXBXDXDXDXSXNXxX'.5XDXDXDXDXCXBXDXDXzX(.R f d V V g j l l v c       ",
"        ;XVXFXFXDXDXDXDXDXDXDXDXDXDXCXyX&X|.W.H.|.2X].pXFXDXDXDXpX@XbXDX@X`.4X9XzXzXAXDXDXDX9XbXVXDXFXFXDXBXaXpXAXFXFXDXDXDXDXVX0X(.' W g a V ! b j v n m v c     ",
"          CXFXFXDXDXDXDXDXDXDXDXDXDXVXyX&X|.W.E.;X,XaXDXFXDXDXDX6XmXpXbX4X).~.5XDXDXDXDXDXFXDXVXVXDXFXFXDXDXNXVXFXFXFXFXDXDXzX'.1.' _ ,.P p V R v N E S v v v b n ",
"          vXFXFXDXDXDXDXDXDXDXDXDXDXDXlX&X|.E.|.;XtXVXDXDXDXDXDXVXpX6XzX_ _ / /.DXDXDXDXDXFXFXDXVXSXFXFXDXDXDXvXSXFXFXFXDXZX{.' ' ` ,.Q.I ,.~ Q v Q ).Z l v c c b ",
"          gXFXFXDXDXDXDXDXDXDXDXDXDXDXbX&X|.R.|.;XtXSXDXDXDXDXAX6X!.6XpXW _ ) ].DXDXDXDXFXFXFXDXVXVXFXFXFXDXDXSXNXSXFXDXDXpX' ' ' _ ^ ^ ,.W._ ( C ^.pXR v b b b   ",
"          yXDXFXFXDXDXDXDXDXDXDXDXDXDXVX2XE.E.|.;XyXSXDXFXDXDXAX/.^.zXbX/.).zXVXDXDXDXDXFXFXFXDXSXBXDXFXFXFXDXDXSXCXSXDXDXZX4X1.' _ Q.|.<XaX_.R E 0XpXE c x       ",
"          ;XVXFXFXDXDXDXDXDXDXDXDXDXDXDX<XE.R.R.=XyXDXDXDXDXDXzX].mXDXBX@X).pXDXDXDXDXDXDXFXFXFXDXBXDXFXFXFXDXFXDXDXvXNXVXDXDX5X_ W.<XlXyXqX`.`.pXzX^.B x         ",
"            MXFXFXDXDXFXDXDXDXDXDXDXDXDXlXJ.H.W.=XgXDXDXDXDXDXqX#XAXDXpX3X!./.bXDXDXDXDXFXFXFXFXFXBXSXFXFXFXDXFXDXSXNXvXvXDXDX8X/.;XlXyX2X6XpXAXpX! D M           ",
"            lXFXFXDXDXFXDXDXDXDXDXDXDXDXlXE.|.|.=XvXDXDXDXDXDXzX_ _ bX0X_ _ zXDXDXDXDXDXFXFXFXFXFXSXBXFXFXFXFXDXDXBXVXDXMXVXaX@X:XlXvXgXbXDXFXDX`.Z x             ",
"            <XDXFXFXDXDXDXDXDXDXDXDXDXDXlXE.|.|.;XbXDXDXDXDXDXZX^._ 3X'.! '.zXDXDXDXDXDXFXFXFXFXFXDXBXSXFXFXFXDXDXMXDXDXCXCXbXBXlXlXbXvXFXFXFXAX'.P               ",
"              VXFXFXDXDXDXDXDXDXDXDXDXDXgX X|.E.,XCXDXDXDXDXDXbXpXpX/./ ~.@XbXDXDXDXDXDXFXFXFXFXFXFXDXBXDXFXFXDXBXBXDXDXBXSXDXCXlXbXMXSXFXFXFXAX2X                ",
"              vXFXFXDXDXDXDXDXDXDXDXDXDXgX&XW.E.<XVXDXDXDXDXDXSXbX5X9X) '.).zXDXDXDXDXDXDXFXFXFXFXFXFXVXBXDXDXVXNXDXDXDXVXVXDXbXlXVXVXFXFXFXDXuX                  ",
"              gXFXFXDXDXFXDXDXDXDXDXDXDXlX&XE.E.,XVXDXDXDXDXDXbX/.5X6X!.<./ xXDXDXVXBXDXDXDXDXDXFXFXFXDXBXVXSXNXSXDXDXDXSXCXDXvXvXDXDXFXFXDXxX                    ",
"              =XDXFXFXDXDXDXDXDXDXDXDXDXvX&XR.J.<XSXDXDXDXDXDX6X_ mX'.'.pX].zXDXDXVXlXlXVXDXDXDXFXFXFXDXDXvXvXBXDXDXDXDXDXCXDXvXVXDXFXFXDXnX                      ",
"                BXFXFXDXDXDXDXDXDXDXDXDXCX&XE.|.uXDXDXDXDXDXDX4X6XDX5XpXAXbXDXDXDXDXCXyXlXVXDXDXDXFXDXDXDXlXtXvXDXDXDXDXDXCXDXvXDXFXFXFXBX                        ",
"                gXFXFXFXDXVXVXDXDXDXDXDXCXJ.W.|.<XDXDXDXDXDXDXzX4XzXSXxX8XpXDXDXDXDXDXlX<XyXDXFXDXFXDXDXSXyXvXvXSXDXDXDXDXBXVXCXDXFXFXDXuX                        ",
"                &XDXFXFXDXBXvXDXDXDXDXDXVXP.|.|.yXDXDXDXDXDXDXDXZX@X)._ 3XZXDXDXDXDXDXVXyX<XVXFXFXFXDXDXVX,XlXBXCXDXDXDXDXVXBXVXFXFXFXnX                          ",
"                  vXFXFXFXCXvXDXDXDXDXDXVX*XW.|.yXDXDXDXDXDXDXDX@X/.) @X'.mXDXDXDXDXDXDXvX<XvXDXFXFXDXDXBX;XgXDXCXVXDXDXDXSXCXDXFXFXVX2X                          ",
"                  tXFXFXFXBXgXSXDXDXDXDXDX=XE.|.yXDXDXDXDXDXDX6XW @X`.3X) cXDXDXDXDXDXDXVXyXgXDXFXFXDXDXbX=XvXDXDXMXDXDXDXDXBXFXFXDX<X                            ",
"                  -XSXFXFXVXtXvXFXFXFXDXDX,XH.|.yXDXDXDXDXDXDX@X` @X`.9X_ 9XDXDXbXBXDXDXDXlXyXDXDXDXDXDXlX,XBXDXDXVXCXDXDXDXVXFXDXlX                              ",
"                    MXFXFXVX<XgXDXDXDXDXDXyXH.|.gXDXDXDXDXDXDX3X!.`.).'.'.0XDXDXVXlXvXSXDXbXyXBXDXDXDXDXyXyXSXDXDXDXCXVXFXFXFXDXlX                    ;.;.        ",
"                    hXDXFXVX<XtXDXFXDXDXDXlXH.W.lXDXDXDXDXDXAX~./ !.).~.).8XDXDXDXBXyXgXSXSXyXvXDXDXDXCXyXgXDXDXDXDXDXNXDXDXVXyX|.                    >.;.>.      ",
"                      BXFXSX<X>XDXFXFXDXDXvXH.E.lXSXSXDXDXDXmX/ ! <.!.<.^.zXDXDXDXDXCXyXvXDXgXgXDXDXCXvXyXvXDXDXDXDXDXVXMXvXuX X                  >.oXoX>.;.      ",
"                      vXDXSXyX-XSXDXDXDXDXbXE.W.lXBXSXDXDXDXAX~.` 4X6X@X].DXDXDXDXDXDXvXgXDXvXgXDXDXvXvXtXBXDXDXDXDXFXVXgX<X X              i.p.:.eXeXOX>.>.      ",
"                        BXSXyX*XBXDXDXDXDXVX|.H.gXNXSXDXDXBX6X) ^.9X9X@X) AXDXDXDXDXDXDXgXBXVXgXDXDXlXlXyXDXDXDXDXFXSXlXyX-X              y.f.g.I.eXeX+XoX5.      ",
"                        vXSXyX}.vXFXDXDXDXVX2XH.<XvXVXDXDXCXxX]./.9XzX9X^.bXSXDXDXDXDXDXvXvXDXvXDXDXlX<XlXDXDXDXDXSXvXyX;X              p.j.b.n.v.eXeXOX>.        ",
"                          BXyX}.yXFXDXDXDXDX,XH.}.gXSXDXDXVXxX6X_ ~.bX6X_.bXDXDXDXDXDXDXVXgXSXNXDXDXyX=XCXDXDXDXVXvXyX;X            y.a.d.l.m.M.v.%X>.            ",
"                          vXgX&X>XDXDXDXDXDXyXH.H.gXDXDXDXDXDXxX/._ ZX5X5XVXDXDXDXDXDXDXDXvXCXCXSXDX<X,XDXDXDXVXlXgX<X        a.i.d.g.n.M.V.k.t.u oX5.            ",
"                            yX;X=XSXFXDXDXDXlXE.L.BXDXDXDXDXDXqXqX9XAXxXbXDXVXCXBXDXDXDXDXBXMXMXSXSX=XgXDXDXBXlXyX,X      w.a.f.j.k.M.B.B.y., -                   ",
"                            >X=X*XBXFXDXDXDXlXW.P.DXDXDXDXVXCXAXbXzX0X9XpXbXVXVXBXvXNXBXDXDXBXCXDXBX*XBXDXCXlXyX;XE.    0.a.f.m.n.A.B.C.a.- #                     ",
"                              }.*XgXFXFXDXDXbXE.=XDXDXDXvXvXxX/./.].5X_.R / cXDXBXNXjXvXSXDXCXvXDXlX1XDXvXyX<X2XR.    4 e.f.m.N.M.p.i.4 -                         ",
"                                }.1XFXFXFXDXCXJ.1XDXDXvXjXDX) ! ) !.DX` ~.).'.DXDXSXBXvXvXDXCXvXDXtXvXlX,X*X}.E.  4 0.e.g.n.N.M.4 - + #                           ",
"                                J.*XBXDXFXFXlXH.yXVXtXvXDX8XA ).W A /.R ) ) / DXDXDXDXVXjXBXBXvXlX=X;X&X}.tX=Xr q.w.a.g.b.N.M.9.+ #                               ",
"                                  J.gXMXDXFXyXH.;X=XvXDXDX@X/ '.#X5XpX9XwX@X5XDXDXDXDXDXVXjXCXgX*X X|. X-XSXBXx.w.a.g.b.s.g.4 +                                   ",
"                                    *XyXBXDX;XL.}.vXDXDXDXDXDXGXkXU.DXGXGXGXDXDXDXDXDXDXDXNXgX-XE.|. XJ.MXFXGXT.t.g.n.y.> > +                                     ",
"                                      *XgXVX&XL.gXDXDXDXDXvXCXSXkX9 Y.vXCXhXU.BXMXDXDXDXDXCXtXK.E.}.*XgXFXFXGXkXj.n.f.; @                                         ",
"                                      G.*XvX}.P.DXDXDXDXvXjXgXnXI.; 9 jXkXe u NXjXBXDXDXDXVXvXyX1XyXgXDXFXFXFXSXl.s.> O                                           ",
"                                        H.,X}.gXFXSXDXVXtX.X.XNX-.i , F.e ; c.vXvXvXDXVXvXvXgXBXVXjXSXFXFXDXFXGXD.> +                                             ",
"                                        *.&X*XVXFXvXyXyX*X..$.8.$.{ + = | 5 U.aXgXyXVXvXBXSXgXSXvXVXDXDXFXDXFXGXI.+                                               ",
"                                          }.tXFXDXCXJ.J.=X7.+.o.o.o.| O. .=.7.6.NX,XVXDXDXMXvXDXDXDXDXFXFXFXDXDX>X                                                ",
"                                          H.gXSXDXSXJ.*.iX7.+.@.@.@.o.+.o.o.@.7.nXyXCXDXDXgXVXDXDXDXDXFXSXvXMXSXtX                                                ",
"                                          P.vX,XgXDX-X=.&.o.+.+.+.+.+.+.+.+.@.$.6.aXnXDXSXgXDXDXDXFXFXBX,X;XvXyX                                                  ",
"                                          hXFXCX-XlX,X X..@.+.+.+.+.@.@.+.+.+.@.$.6..XDXBXvXDXDXDXFXVX;XJ.=X-XH.                                                  ",
"                                          BXGXGXvX<X.X-.6.o.+.+.+.@.@.@.+.+.+.+.o.6.iXBXvXvXFXDXDXSX<XJ.}.K.*.                                                    ",
"                                          BXgXNXDXgX:X-.o.@.@.%.#.@.+.+.@.@.@.@.o.&.3.lXgXgXFXFXDXyXH.K 0 <                                                       ",
"                                        u hX>X*XgXSX.X&.@.#.%.%.#.+.+.@.#.#.%.#.$.3.aXDXgX1XVXvX<XL.1 ; 2 9.e.i.                                                  ",
"                                        c.jXDXvX,X3.O.O. .O. .{ O.o.o.o. .X.O.O.o.7.iXCXyX*X;X;XG.1 2 0.0.e.s.u.                                                  ",
"                                      9 dXBXDXDX:.} ..=.F = 0 I.| { |  .{ * * F } X.-..X&X}.K.y 1 2 0.0.w.t.a.                                                    ",
"                                    5 v.SXFXFXyX:.XXuX}.w & u D.c.= y w { = $ $ G.:X*.*.r # X ; 9.0.w.w.t.s.q.                                                    ",
"                                    r.T.GXFXFXvXVXBXP.P.Y.q >.K e r y e 0 F & $ Y.U.8 # @ X o 0.9.w.e.a.s.s.4                                                     ",
"                                  i.u.kXGXFXFXFXFXDX}.L.gXr L XXH.%XoX:.J.:.$ $ P.G.        , 0.9.a.s.f.g.g.a.                                                    ",
"                                  e.k.CXGXFXFXFXFXDX=X*.P.F.& oX$XeXOX+X+X>.     X          O o 0.g.g.b.b.m.s.                                                    ",
"                                  e.l.hXjXNXSXGXGXSX,Xy 7 F.% L $XoXXX$X%X      *.            O w.b.b.n.n.M.w.                                                    ",
"                                d.t.r.7 $ 8 r F.hXCX<XK . r % & 3.XXXX%X                      O 4 b.n.n.n.f.>                                                     ",
"                                a.a.e.2 ; 2 ; ; 1 r G.K . % %     4.3.                          o 4 9.4 4 > +                                                     ",
"                              r.a.a.a.e.0.e.e.w.9.; $ $ . . %                                     @ o o o 8                                                       ",
"                          u.y.w.s.s.s.e.e.e.0.9.9.4 X . . .             J J                         y D.F.I.                                                      ",
"                          h.g.g.g.g.g.s.a.s.u.u.w.e.4 , $ .             J =.=                         kXkXtX                                                      ",
"                          m.N.M.N.N.N.t.0.M.k.m.g.g.f.y.9 5 5   5 e *.4.~ F ;.                        kXCXhX                                                      ",
"                          j.C.C.C.C.C.a.; d.V.B.N.n.k.j.s.s.e.4 9 |.eXeX%X;.;.                        U.kXI.                                                      ",
"                            d.B.C.C.C.y.o o > s.N.B.A.m.b.f.w.4 z.eXeX$XOXOX,.                      1 6 e 6 1                                                     ",
"                            # > 4 h.3 o o o O - 3 3 9 f.n.g.0.9.c.eXeXOXOXOX2.                        X : <                                                       ",
"                                + - o o + +         + , 9.t.2 4 c.eX$XOXOXOX2.~                       X X O                                                       ",
"                                                        + , @ , 1 w L *.:.4.5.                        < : < 6                                                     ",
"                                                                $ 7 0 7 7 J                           < : : 6                                                     ",
"                                                              q K G.r 0 y 0                           < : : 6                                                     ",
"                                                              J   K.r y P.*.q                         < : : 5 6                                                   ",
"                                                                  I.r F.    w                         6 6 e z.z.t                                                 ",
"                                                                  Y.S.G.                              q *.%X%X2.~                                                 ",
"                                                                  >XY.                                  *.^ ;.J q                                                 ",
"                                                                  I.P.                                  0 7 7 7                                                   ",
"                                                                  F.*.                                                                                            ",
"                                                                  G.                                                                                              "
};
