/* XPM */
static char *_85c59152a4d4ccce0fc19c7cea1f04a3LQ5iPqnxZn6qCxt_8[] = {
/* columns rows colors chars-per-pixel */
"51 56 256 2 ",
"   c None",
".  c #151419",
"X  c #1D1E33",
"o  c #0A2A39",
"O  c #1E263C",
"+  c #1A3439",
"@  c #313336",
"#  c #624E19",
"$  c #67542C",
"%  c #0D2E4C",
"&  c #0D3249",
"*  c #153446",
"=  c #143659",
"-  c #142B59",
";  c #293053",
":  c #033374",
">  c #073979",
",  c #0C3667",
"<  c #3B3D61",
"1  c #24306A",
"2  c #284965",
"3  c #554E54",
"4  c #775C59",
"5  c #6A5A5B",
"6  c #736B49",
"7  c #4D556B",
"8  c #645862",
"9  c #4C6271",
"0  c #726669",
"q  c #7B6F74",
"w  c #61686E",
"e  c #DA0909",
"r  c #D91C1B",
"t  c #E50404",
"y  c #EB0203",
"u  c #E90C0C",
"i  c #F40404",
"p  c #F60C0B",
"a  c #FD0D0B",
"s  c #FA0504",
"d  c #FC110E",
"f  c #F7100E",
"g  c #EB1C19",
"h  c #F51513",
"j  c #FA1411",
"k  c #F41915",
"l  c #F91B19",
"z  c #DB2928",
"x  c #DE3230",
"c  c #F52423",
"v  c #F82927",
"b  c #F7312E",
"n  c #E73533",
"m  c #F43836",
"M  c #E72625",
"N  c #826D3D",
"B  c #A77D29",
"V  c #C7403D",
"C  c #F2403E",
"Z  c #956B50",
"A  c #BE7C5B",
"S  c #82676D",
"D  c #C84C48",
"F  c #DC4D4B",
"G  c #D44A48",
"H  c #D05552",
"J  c #F34A47",
"K  c #F55956",
"L  c #F45E5B",
"P  c #F25653",
"I  c #E45552",
"U  c #EB635F",
"Y  c #F0615E",
"T  c #D66966",
"R  c #C6756E",
"E  c #EA6A67",
"W  c #F46A66",
"Q  c #E8716D",
"!  c #F6716E",
"~  c #F8716D",
"^  c #EA7672",
"/  c #ED7E7A",
"(  c #ED7B76",
")  c #F37A76",
"_  c #F47976",
"`  c #A69A25",
"'  c #BCA023",
"]  c #9E9119",
"[  c #EFD715",
"{  c #F2DA18",
"}  c #EBCE0F",
"|  c #FAE502",
" . c #FEEA02",
".. c #F9E408",
"X. c #FDEC11",
"o. c #E6CE30",
"O. c #D7C610",
"+. c #93827D",
"@. c #89866C",
"#. c #B68775",
"$. c #A5A262",
"%. c #C8865F",
"&. c #D3B34D",
"*. c #D7AC49",
"=. c #C5847E",
"-. c #D39671",
";. c #EE817D",
":. c #E4847F",
">. c #F1817D",
",. c #E49F78",
"<. c #C8A76D",
"1. c #DFA77E",
"2. c #E8A37A",
"3. c #E1C659",
"4. c #DFC768",
"5. c #E9D462",
"6. c #043A87",
"7. c #023D95",
"8. c #013E9C",
"9. c #083E93",
"0. c #003FA0",
"q. c #1A4282",
"w. c #0B4598",
"e. c #13479A",
"r. c #29569C",
"t. c #0240A4",
"y. c #0142AA",
"u. c #0945A3",
"i. c #1349A1",
"p. c #0145BA",
"a. c #0E49B4",
"s. c #0252BD",
"d. c #1754B8",
"f. c #2656A8",
"g. c #70748A",
"h. c #426FBD",
"j. c #014ACB",
"k. c #0349C3",
"l. c #0D55D0",
"z. c #0056E4",
"x. c #847A82",
"c. c #758AA8",
"v. c #918180",
"b. c #A88E86",
"n. c #AC9A8E",
"m. c #B49E98",
"M. c #AF978F",
"N. c #BDA39C",
"B. c #AFA296",
"V. c #969CA5",
"C. c #9FA3AC",
"Z. c #B4AEB2",
"A. c #B9B5B3",
"S. c #CE9788",
"D. c #C39D94",
"F. c #D3908A",
"G. c #E98581",
"H. c #EA8A86",
"J. c #F28884",
"K. c #E9928D",
"L. c #E1938E",
"P. c #EA9B96",
"I. c #EC9E99",
"U. c #E99691",
"Y. c #F2928E",
"T. c #DCA785",
"R. c #C5A299",
"E. c #CAA39A",
"W. c #C7A69B",
"Q. c #D5B395",
"!. c #EBB38C",
"~. c #F3B58B",
"^. c #ECA39E",
"/. c #E7A19D",
"(. c #F0A29D",
"). c #E9AA83",
"_. c #C6ABA3",
"`. c #CBADA3",
"'. c #CDB3AB",
"]. c #CAB1A7",
"[. c #D2B5AC",
"{. c #D3B9AE",
"}. c #C8B9B6",
"|. c #D5BBB3",
" X c #D8BCB5",
".X c #ECABA5",
"XX c #EAACA6",
"oX c #F1AEA8",
"OX c #ECB3AD",
"+X c #E5B4AD",
"@X c #EEB7B1",
"#X c #EBBCB6",
"$X c #E9BCB6",
"%X c #F0B3AD",
"&X c #D5C08E",
"*X c #F4C79A",
"=X c #DBC3BC",
"-X c #DCC7BA",
";X c #D4C7B6",
":X c #ECC3BD",
">X c #E3C2BB",
",X c #F1C3BD",
"<X c #E1CEA1",
"1X c #A9AFC2",
"2X c #DECBC3",
"3X c #DBCAC4",
"4X c #D4CDCF",
"5X c #E2CDC5",
"6X c #EDCBC5",
"7X c #E2CFC8",
"8X c #EACAC3",
"9X c #F0CDC7",
"0X c #E4D3CC",
"qX c #EDD4CD",
"wX c #E5D6C5",
"eX c #F1D4CE",
"rX c #E6D7D0",
"tX c #E7D8D2",
"yX c #EBDBD5",
"uX c #EEDFD8",
"iX c #EAD7D0",
"pX c #F0DBD4",
"aX c #F1DCD5",
"sX c #EFE0DA",
"dX c #F2E4DE",
"fX c #F2E5E0",
"gX c #F5E9E2",
"hX c black",
"jX c black",
"kX c black",
"lX c black",
"zX c black",
"xX c black",
"cX c black",
"vX c black",
"bX c black",
"nX c black",
"mX c black",
"MX c black",
"NX c black",
"BX c black",
"VX c black",
"CX c black",
"ZX c black",
"AX c black",
"SX c black",
"DX c black",
"FX c black",
"GX c black",
"HX c black",
"JX c black",
"KX c black",
"LX c black",
"PX c black",
"IX c black",
"UX c black",
/* pixels */
"      g k k k                                                                                         ",
"    k k j j j j u t                                   k j                                             ",
"  j j j j j j j d i t                       h j j j j j j j j h k   k k j j j j                       ",
"k j j d d d d d d i i                     j d d d d j j j j d d d d j j d d d j h                     ",
"h j d d d a a d p p i y               j j d d d d d d d d d d a a d d d d a d d j j g                 ",
"k j a b m c l a p i y i y e       h h j j d d d d a a a a a a a a a a d d a a d d j j g               ",
"g v c L W P W m l h y y y t t u f d d d d d d a a a a a a a j p a a a a d a a d d j j h               ",
"  J L ! ~ W Y.P./ W g r r z u t p a a a a a a a a a j j a v K c a a a a a a a d d d j i               ",
"  m L ! ~ ! ,XuXiXOXE I F I x e p c l a a j j a a v K K c m W K b d d v d a a a d d p i t             ",
"  ^ J._ J.>.9XdXdX:XL.E F F G r k ! W p s m J a J _ W ! W L W / J.J J W m b a a j k p i t             ",
"  :.@XoX9X.X$XdXyX^.+XT G F D x C I.@XP l W Y c .X@XQ ~ ! _ / :X:X) %XoXH.) b b K J u y i h h j j h k ",
"    .X6XdXdXdXdXdXqX5XF.H G D I J.OX6XeX/ .X;.Y ,XeXoX/ ^.6X:XuXpXH.9XdXeXI.^.) J h t y p j j j j j   ",
"    6XaXfXdXdXdXdXdXiX[.R D D ^ Y.@XeX8X+X#X^ Y ^.:X6X^.uXdXdXuXqXU.eXdXqX6XfX(.M y e y a j d j j     ",
"    0XfXdXdXdXdXdXdXuX{.E.=.S.L.eXdXpX#XiX@XP.P..X9XdX:XiXdXfXsX>X#XdXdXuXuX,X>.n e x f d j j j       ",
"    5XdXdXdXdXdXdXdXdX XE.R.[.5XdXdXaX6X6X.XG.OXfXdXdXdXuXsXfXdXuXsXfXfXuX(.! Q T V n c C k j         ",
"      sXfXdXdXdXdXdXdX>XD.E.[.iXfXdXiX^.#XH.G.$XdXdXfXfXsXuXfXdXdXuXsXfXqX) W T =.F.J L ;.j k         ",
"      yXfXdXdXdXdXdXdX0XD.D.[.uXdXdX:XXXpX^..XdXdXdXdXfXdXuXdXfXdXdXyXyXsXOX^ F.|.+XQ .X;.g           ",
"      0XfXdXdXdXdXdXdXiXR.D.|.dXdXdX$X^.6XK.I.aXdXdXfXfXfXsXdXfXfXdXuXyXuX:XL.=X=X$X9X;.n             ",
"      =XfXdXdXdXdXdXdXiX`.D. XdXdXdX6XK.I.E XXdXdXdXfXfXfXsXuXfXfXsXuXdXiX6X>X0XuXfXqXU               ",
"        sXfXdXdXdXdXdXiX`.D.=XdXdXdXiX#XP.G..XdXdXdXfXfXfXfXsXsXdXuXdXdXuXuX5XyXdXfXqX                ",
"        yXfXdXdXdXdXdXuX`.D.=XdXdXdX:XXXXXP.OXdXsXiXdXdXfXfXdXiXiXsXdXdXuXyXqXdXfXiX                  ",
"        5XfXdXdXdXdXdXdX`.D.5XdXdXdXOX:X:X6XqXdXdX0X0XdXfXfXdXqX2XuXdXdXuXiXuXfXuX                    ",
"         XdXfXsXuXdXdXsX`.E.5XdXdXdXpX@X^.OXuXdXdXuX2XiXfXfXdX0X5XyXdXdXsXyXdXdX5X                    ",
"          yXfXuXiXdXdXdX'.E.5XdXdXdX8XK.K.^.aXdXdXdX0X0XfXfXdX2X0XuXuXdXdXsXfXiX                      ",
"          2XfXuX5XdXdXdX|.R.0XdXdXdX.XU..XP.pXsXiXdXuX2XdXdXdX=XyXdXyXdXdXdXiX                        ",
"            sXuX=XuXdXdX XD.0XdXdXdX^.;.K.I.eXdXqX5XuX5XuXdXiX2XsXdXsXuXdXiX{.            %.          ",
"            iXsX XyXdXdX2XD.0XdXdXdX/ ^ K.P.uXdXdX7X0XrXyXuX0X7XdXdXdXyX7X{.            ).-.-.        ",
"            0XuX|.0XdXdX0XD.2XsXdXqXG.I..XU.dXdXdXuX5XiXiXuX2X0XdXdXdX7X{.        u.f.Q.*X2.          ",
"              iX|.2XdXdXiXR.|.uXdXqXP.P.:X/.uXdXdXdXqXiXyXiX XuXdXdX0X|.        e.d.l.N.~.            ",
"              0X X=XfXdXuXW._.dXdXdX$XH.:X+XuXsXdXdXsXrXuX0X=XdXdX0X XW.    i.p.j.d.w.#.              ",
"                {.{.sXdXdX`.{.dXdXsXqX:X:X:XiXiXyXuXdXrXuX2X2XuX5X|.E.    p.l.l.k.=                   ",
"                  `.yXfXdX'.3XdXrX8XG.K..XQ ^.sXyX0XsXyXuX2X0X=X`.M.  8.p.j.e.> =                     ",
"                  N.2XdXdX`.=X0XyXK.Q W H.( G.uXdXuXrXiX2X[.`.|.m.q.8.p.j.w.*                         ",
"                    _.0XuXR.'.yXdX:X:X'.qXeX6XsXdXdXyX2X_.R._.yX4Xi.k.7.> *                           ",
"                      ].5XN.0XfXsX0XrXg.C.4XV.0XsXdXdX=X_.'.0XfXuXh.0.&                               ",
"                      b.`.|.dXuX-X&X<X6 7 w 9 3X0XuXrX0XrXrXdXfXgXc.&                                 ",
"                        R.0XsX'._.o.{ O.] ` $.<X3XuXuXrXsXdXfXfXdXZ.                                  ",
"                        N.0XuXW.<.{ | | | ....5.-XsXiXuXdXdXsX5X0X                                    ",
"                        7XyX=X{.&.|  . . . . .{ 4.wXiXsXdXsX|._.`.                                    ",
"                        0XtXrXQ.o...X. . . . ...o.-X7XsXdX X+.w                                       ",
"                        }.=X-X4.} { o...| [ [ { 3.wX=X5X[.w , 6.8.                                    ",
"                      g.tXuX<.*.B $ @.` ' ] # B &.Q.m.+.7 : 7.8.9.                                    ",
"                    q.1XgXrX-X'.b.4 x.8 0 N $ 8 B.3 @ o 6.7.0.y.>                                     ",
"                    r.4XgXgXfX`.N.S -.T.T.S.6 0 n.    % > y.p.p.u.                                    ",
"                    r.Z.}.rXfX'.5 3 Z !.!.!.            : k.j.j.6.                                    ",
"                  u.9.= = 2 g.n.@ @   1.T.              % 6.8.> *                                     ",
"                9.t.y.7.7.6.: O . .                       + 2 9                                       ",
"              a.p.p.p.y.y.e.8.: O X       Z Z               A.;X                                      ",
"                z.z.z.6.e.l.j.d.e.9.> g.!.-.%.              Z.A.                                      ",
"                w.s.s., o > y.f.k.y.6.D.*X~.,.              < <                                       ",
"                  * & o +     = > 6., M.!.~.2.              O O                                       ",
"                                    * 3 4 Z A               ; - ;                                     ",
"                                    4 v.8 q 5               ; - 1                                     ",
"                                        q                   < 7 g.S                                   ",
"                                        n.                    #.#.Z                                   ",
"                                        n.                      3                                     "
};
