/* XPM */
static char *_dee9ba828d948fcdd1831683750095bIAt6Fn3CIQZyxXwi_82[] = {
/* columns rows colors chars-per-pixel */
"81 94 256 2 ",
"   c None",
".  c #121219",
"X  c #131C2C",
"o  c #211E2B",
"O  c #062934",
"+  c #182E34",
"@  c #173236",
"#  c #102C32",
"$  c #34383A",
"%  c #2A2C34",
"&  c #4C3A31",
"*  c #50391C",
"=  c #6A5A28",
"-  c #173544",
";  c #032A54",
":  c #1C2756",
">  c #053257",
",  c #0F304D",
"<  c #232954",
"1  c #2F3650",
"2  c #022E68",
"3  c #053567",
"4  c #033678",
"5  c #16346F",
"6  c #2E366A",
"7  c #463C4E",
"8  c #37494D",
"9  c #2A4B78",
"0  c #504C51",
"q  c #665151",
"w  c #716659",
"e  c #4B5570",
"r  c #655963",
"t  c #76576A",
"y  c #726B6F",
"u  c #51647D",
"i  c #2B4536",
"p  c #DB0506",
"a  c #D31514",
"s  c #E50203",
"d  c #EC0303",
"f  c #EB0B0A",
"g  c #F30303",
"h  c #FD0D0B",
"j  c #F70908",
"k  c #FD110E",
"l  c #F4100F",
"z  c #ED1A16",
"x  c #EA1B18",
"c  c #F51613",
"v  c #FB1411",
"b  c #F31815",
"n  c #F61C1B",
"m  c #DB211C",
"M  c #F8211F",
"N  c #CF3230",
"B  c #ED2928",
"V  c #F42726",
"C  c #EA3736",
"Z  c #F33736",
"A  c #EF302E",
"S  c #9A6322",
"D  c #BB5750",
"F  c #8D6D52",
"G  c #877470",
"H  c #B37F64",
"J  c #9A654E",
"K  c #C95B56",
"L  c #D35D5A",
"P  c #DB5D59",
"I  c #D64A46",
"U  c #EC4846",
"Y  c #F24846",
"T  c #E95957",
"R  c #F15855",
"E  c #ED514F",
"W  c #D0695A",
"Q  c #EB615E",
"!  c #D2716D",
"~  c #E86A67",
"^  c #F36A67",
"/  c #EC7571",
"(  c #E97A77",
")  c #F27E7B",
"_  c #F27774",
"`  c #ED716D",
"'  c #BC2C2A",
"]  c #978529",
"[  c #B88F25",
"{  c #AF9C13",
"}  c #D1B20F",
"|  c #E4BA08",
" . c #D4AE36",
".. c #C38B21",
"X. c #F2DC08",
"o. c #ECD20D",
"O. c #FDEA01",
"+. c #FAE606",
"@. c #FAE819",
"#. c #E9D02B",
"$. c #F7E72C",
"%. c #DCC324",
"&. c #B18E51",
"*. c #AF8975",
"=. c #A09667",
"-. c #CDAD4F",
";. c #CA8768",
":. c #C69678",
">. c #DA9A76",
",. c #D28B6E",
"<. c #E8817D",
"1. c #EF8E7B",
"2. c #D9AC74",
"3. c #E5A078",
"4. c #D2855D",
"5. c #DEC752",
"6. c #E4CD52",
"7. c #E6D26F",
"8. c #023984",
"9. c #013A8C",
"0. c #053984",
"q. c #013C94",
"w. c #013E9B",
"e. c #083D94",
"r. c #153F80",
"t. c #003FA1",
"y. c #09429A",
"u. c #174695",
"i. c #13428D",
"p. c #264B89",
"a. c #0241A5",
"s. c #0142AD",
"d. c #0A46A5",
"f. c #0144B5",
"g. c #0045BB",
"h. c #0849B9",
"j. c #1451B2",
"k. c #2A5EB1",
"l. c #3566B3",
"z. c #665C83",
"x. c #54678F",
"c. c #6B718A",
"v. c #5371AF",
"b. c #0047C3",
"n. c #0049CC",
"m. c #054AC6",
"M. c #004CD4",
"N. c #004ED8",
"B. c #0354DB",
"V. c #1C5CC0",
"C. c #005BE7",
"Z. c #1464DC",
"A. c #4C7DC7",
"S. c #867D83",
"D. c #76859B",
"F. c #928E90",
"G. c #A9948A",
"H. c #B8958B",
"J. c #BC9C92",
"K. c #B59C93",
"L. c #AC938B",
"P. c #BAA39A",
"I. c #A7A19E",
"U. c #A6A5A7",
"Y. c #B7ACAB",
"T. c #9CA1B2",
"R. c #D98985",
"E. c #C4988D",
"W. c #C39D93",
"Q. c #D2938D",
"!. c #EC8582",
"~. c #EB8985",
"^. c #E78C87",
"/. c #F58682",
"(. c #F58985",
"). c #F38D89",
"_. c #EB928D",
"`. c #F2928E",
"'. c #EC9591",
"]. c #EC9A95",
"[. c #E99D98",
"{. c #F19995",
"}. c #DCA886",
"|. c #C4A59B",
" X c #CBA49B",
".X c #C7A498",
"XX c #D2B197",
"oX c #EAAC85",
"OX c #F3B48A",
"+X c #ECA29C",
"@X c #E5A19B",
"#X c #F1B291",
"$X c #C5ACA3",
"%X c #CCACA3",
"&X c #D3ABA4",
"*X c #CDB3AB",
"=X c #C9B2A7",
"-X c #D2B4AB",
";X c #D6B6AB",
":X c #D4BCB4",
">X c #D9BDB4",
",X c #D6BFB8",
"<X c #CBB8B2",
"1X c #EBA6A1",
"2X c #EBAAA4",
"3X c #E8ADA8",
"4X c #EBB3AD",
"5X c #E5B1AA",
"6X c #EDB7B1",
"7X c #EDBBB4",
"8X c #E9BEB7",
"9X c #F0B1AB",
"0X c #FAC49C",
"qX c #FAC297",
"wX c #DBC4BC",
"eX c #D7C3BA",
"rX c #D7C7AD",
"tX c #ECC2BC",
"yX c #E1CABC",
"uX c #F0C9B5",
"iX c #BCBDC6",
"pX c #C5BFC0",
"aX c #DDCBC4",
"sX c #D8CCC7",
"dX c #DCD1CC",
"fX c #CFCDCE",
"gX c #EDC7C0",
"hX c #E2CCC4",
"jX c #EDCBC5",
"kX c #E7CFC8",
"lX c #F0CDC7",
"zX c #E4D3CC",
"xX c #ECD3CC",
"cX c #E7D5C7",
"vX c #F0D5CE",
"bX c #E6D7D0",
"nX c #E7D8D1",
"mX c #EBDBD4",
"MX c #EEDFD8",
"NX c #EAD8D2",
"BX c #F0DBD4",
"VX c #F1DED7",
"CX c #EFE1DA",
"ZX c #F2E4DD",
"AX c #F2E5E0",
"SX c #F6E8E2",
"DX c black",
"FX c black",
"GX c black",
"HX c black",
"JX c black",
"KX c black",
"LX c black",
"PX c black",
"IX c black",
"UX c black",
/* pixels */
"            b                                                                                                                                                     ",
"z b v       z b v                                                                                                                                                 ",
"c v c b v v z z v v v                                                                                     x b v v v                                               ",
"b c b v v v v c v v v v                                                                           z c v v v b c v v z                                             ",
"x b v v v v v k k k k k v                                                                     c c v v v v v v c v v v b                                           ",
"m c v v v k k h h k k k k c                                                             c v v v k k k k k k k k k k k v z                                         ",
"x v v v v k k h h h h k k k f                                                       c v k k k k k k k k k k h k k k k k c                                         ",
"x v v v k k h h h h h h h k h f f d d d d f g j j j g f                         c v k k k k k k h h h h h h h h h k k k k b                                       ",
"  b v v k h v Z n h k h h h h j j d g g g d s d g g g j c c c c c b b z z z c v k k k h h h h h h h h h h h h h h h h k k v                                       ",
"  x v k h h A ) Y V R R M k h j j d d d g g d p p p f l v k k v k v v k k k k k h h h h h h h h h h h h h h h h h h h h k k k v                                   ",
"  m v A n v ^ (._ U ) (.` Y c V n d s s d d d d s s d j k k k k k k k k k k h h h h h h h h h h h h h j h h h h h h h h k k k k k c                               ",
"    z ^ E Z /.(.(.^ / (.+X^ C !.R f p p s s s s s d p f k k h h h h h h h h h h h h h h h h h h h h n C c h h h h h h h h h h h h k v                             ",
"    B _ ) _ (.(.(./.) {.lX4X3XBX].x I N a N N m p s p f h h h h h h h h h h h h h h h h h v h h h V ^ _ Z j h h h h h h h h h h h h k v c                         ",
"    x Z Q ) (.(./././.7XZXZXxXxX1XQ ( L I P P P m p p f h k v h h h h h v V h h h h h A R ^ E b h Y (.) ^ Z V h h h h Z V h h h h h h k k v                       ",
"    L E T <.(./././.`.vXZXZXZXAXlX_.^.( ~ P P P I a p j v E ^ Y c h h h n U c h h c Y ) (.(./.E l A _ ) ) <.) E v h V Q Z c V h h h h h h k k                     ",
"      ~.).`././.(./.{.VXZXZXZXZXjX2X@X<.~ P P P L N a j V ) {.~.n h h j C _.V h c ~ )./.<.<./.) R R / ) ) {.+X(.^ V R _ Y A R M h h h h h k h j d                 ",
"      !.+XjX`.`.tX{.`.xXZXZXZXxX4X6X5X<.~ P P P L K m b n !.xX4XU c j j E 6XV j E xXvX+X~ / /././././.) ^.BXvX'./._.].9X/ E '._ A h V Y R R V g d d               ",
"      R.2XZX3X7XZXtX_.5XMXZXZXjX_.tX;X( W L P P L K C Y T ) 4XMXxX~.B Y '.8XA h E {.4X+X` /././././.).!.8XZXZX2X/.4XxX8XxXtX1X/.E n ` (.(./ B d d d d             ",
"      Q.'.lXNXZXAXZXlXmXZXZXZXVXgXVX;XQ.W L L L L D T ) 7XlXtXtXZXNX]./.tXxX) R ~.9X6XjX7X/././.'.7XtX5XzXZXZX7X/.8XZXZXZXZX1X+X3X~ /.) E z d s s d j l           ",
"        5X2XtXMXAXZXZXZXZXZXZXZXZXZXwX>X! L L L K K /./.{.1X[.jXZXZX2X+XjX4X/ E +XZXAXZXvX).'.7XkXZXCXxXnXZXZXtX(.tXZXZXZXBX1XvXZXjX(.Z g g s p s d h v b         ",
"        hXVXVXZXAXZXZXZXZXZXZXZXZXZXkXwXE.K L L D ! (.).{.4XxXZXlX4X[.xX4X^.T ^ (.2X8XhXZX{.4XZXMXZXZXZXNXMXZX8X_.xXZXZXZXxXtXZXZXvX).B g d p p s j h k v         ",
"        wXZXAXAXAXZXZXZXZXZXZXZXZXZXxXwX X*.W K D ! ~.7XVXZXZXxX4XjXxXZX1X[.<.<.(.(.[.xXZX7X9XZXMXAXZXZXMXNXxX[.4XZXZXZXZXxXmXZXZXtX~.C d p N N f h h k v v       ",
"        -XMXAXAXZXZXZXZXZXZXZXZXZXZXNXwX%X XE.*.E.&X'.tXAXZXZXZXgX+XxXZX].'.1X4XtXgXmXZXZXBX6XMXCXAXAXZXZXzX8X7XMXAXAXZXZXZXZXCXgX'.!.E s p N P c h v n c v v z   ",
"        %XNXAXAXZXZXAXZXZXZXZXZXZXZXNXwX%X X.XW.-XwX8XMXAXZXZXZX1XgXtXxX+X( !.3XZXZXZXZXZXAXmXMXMXZXAXAXZXCXbXZXAXAXAXAXZXZXjX1X)./.!.( N ' N U v M Y Z v v v b z ",
"          kXAXAXZXZXZXZXZXZXZXZXZXZXCXhX%X XW.W.-XeXMXZXZXZXZXZXxXjX1XgX^.^./ _.AXZXZXZXZXAXAXZXmXZXAXAXZXZXMXnXZXAXAXAXZXxX'./././.R.R.K ! W Y k R _.A k v b b b ",
"          wXAXAXAXZXZXZXZXZXZXZXZXZXZXzX%X XJ. X-XeXCXZXZXZXZXZXgX^.3X8XT / ~ [.ZXZXZXZXAXAXAXZXMXCXAXAXAXZXZXMXnXZXAXAXZX7X/././.!.<.! ! Q.( ^ M _.tXU v b z z   ",
"          :XZXAXAXZXZXZXZXZXZXZXZXZXZXMX-XW.E. X-XeXCXZXAXAXZXmX^.!.tXjX/ _.tXxXZXZXZXZXAXAXAXZXCXCXAXAXAXAXZXZXmXnXZXZXZXjX]././.R.R.&X>XyX^.U U 8XtXY b x       ",
"          %XMXAXAXZXZXZXZXZXZXZXZXZXZXZX>XW.W.J.-XwXZXZXZXZXZXxX[.jXZXMX2X].xXZXZXZXZXZXZXAXAXAXZXMXZXAXAXAXZXAXZXmXzXmXCXZXvX+X!. XwXhXwX8X{.'.8XtX_.B x         ",
"            NXAXAXZXZXAXZXZXZXZXZXZXZXZXhXJ.H.W.-XaXZXZXZXZXZX8X@XZXZXjX1X_.[.VXZXZXZXZXAXAXAXAXZXMXZXAXAXAXAXAXZXMXzXdXNXZXZX4XR.>XkXwX&X4XgXZXtXE B m           ",
"            hXAXAXZXZXAXZXZXZXZXZXZXZXZXhXW.W. X*XzXZXZXZXZXZXtX( ].NXtX~.~ 4XZXZXZXZXZXAXAXAXAXAXCXCXAXAXAXAXZXZXNXMXmXzXCXtX+X;XhXzXwXxXZXAXZX'.V x             ",
"            -XZXAXAXZXZXZXZXZXZXZXZXZXZXhX.X X X-XNXZXZXZXZXZXBX~.~ 7X1XT +XxXZXZXZXZXZXAXAXAXAXAXZXmXZXAXAXAXZXZXnXZXZXnXxXkXxXhXkXzXzXZXAXAXVX].I               ",
"            W.mXAXAXZXZXZXZXZXZXZXZXZXZXaX X XW.:XNXZXZXZXZXZXxX6X8X<.~ ( +XxXZXZXZXZXZXAXAXAXAXAXAXMXMXAXAXAXZXmXNXZXZXNXZXZXNXhXNXzXCXAXAXAXMX;X                ",
"              zXAXAXZXZXZXZXZXZXZXZXZXZXaX X.XW.wXMXZXZXZXZXZXCXNX4X3X~ +X].lXZXZXZXZXZXZXAXAXAXAXAXZXmXCXZXZXCXbXZXZXZXmXMXZXxXzXMXMXZXAXAXZXyX                  ",
"              wXAXAXZXZXAXZXZXZXZXZXZXCXaX%XW.W.>XMXZXZXZXZXZXNX@X1X4X<.( ~ jXZXZXCXCXZXZXZXAXAXAXAXAXCXNXZXZXzXCXZXZXZXMXmXZXzXxXCXZXAXAXZXhX                    ",
"              *XZXAXAXZXZXZXZXZXZXZXZXZXhX%XE.J.-XMXZXZXZXZXZX7X~ jX]._.3X( gXZXZXmXaXxXZXZXZXZXAXAXZXZXMXzXbXMXZXZXZXZXCXNXZXzXMXZXAXAXZXxX                      ",
"                bXAXAXZXZXZXZXZXZXZXZXZXNX%XJ..X>XZXZXZXZXZXZX2X4XZX+XtXZXlXMXZXZXZXzXwXzXZXZXZXAXAXZXZXCXwXaXMXZXZXZXZXZXNXZXzXZXAXAXAXNX                        ",
"                wXAXAXAXZXMXMXZXZXZXZXZXMX|.W. XwXZXZXZXZXZXZXtX3XBXNXxXtXjXZXZXZXZXZXhX:XhXZXZXZXZXZXZXMXwXzXnXZXZXZXZXZXmXMXNXZXAXAXZX>X                        ",
"                *XZXAXAXZXNXzXZXZXZXZXZXCX|..X XwXZXZXZXZXZXZXZXlX3X2X^.2XBXZXZXZXZXZXmX>X,XCXZXZXZXZXZXMX:XzXNXMXZXZXZXZXmXmXCXAXAXAXkX                          ",
"                  zXAXAXAXMXaXZXZXZXZXZXMX$XW. XwXZXZXZXZXZXZXZX3X<.~ _.'.lXZXZXZXZXZXZXhX:XzXZXAXAXZXZXNX-XzXZXnXZXZXZXZXMXmXZXAXAXMX;X                          ",
"                  eXAXAXAXMXaXZXZXZXZXZXZX*XW. XwXZXZXZXZXZXZX7XT +X[.2X( lXZXZXZXZXZXZXNX,XaXZXZXAXZXZXzX*XzXZXMXNXZXZXZXCXmXAXAXZXyX                            ",
"                  $XCXAXAXMXeXbXAXAXAXZXZX:XJ. XwXZXZXZXZXZXZX+X` _.^.4X~ 8XZXZXMXZXZXZXZXwX,XCXZXZXZXZXhX-XNXZXZXmXMXZXZXZXMXAXZXwX                              ",
"                    nXAXAXMX,XaXZXZXZXZXZXwXH. XwXZXZXZXZXZXZX+X/.[.~.[._.7XZXZXmXkXNXZXZXzX:XmXZXZXZXZXwXeXCXZXZXZXNXCXAXAXAXZXwX                    ;.;.        ",
"                    aXCXAXMX,XeXZXAXZXZXZXhXH.W.hXZXZXZXZXZXZX~.Q ~._.'.1X4XZXZXZXNXhXzXZXMX,XzXZXZXZXNXwXaXZXZXZXZXMXNXZXZXMXwX.X                    >.;.,.      ",
"                      mXAXMX,X<XZXAXAXZXZXzXJ.W.hXZXZXZXZXZXvX~ T <.~./ '.jXZXZXZXZXxXwXNXZXaXkXZXZXMXNXwXzXZXZXZXZXZXmXmXzXeX X                  >.oXoX>.;.      ",
"                      zXZXMX>X*XMXZXZXZXZXxXW.W.hXmXCXZXZXZXBX<.) 1X4X+X2XZXZXZXZXZXZXzXhXZXzXaXZXCXxXzX,XNXZXZXZXZXAXMXaX:X X              i.p.:.0X0XOX>.>.      ",
"                        MXCXwX$XmXZXZXZXZXmX XH.aXbXCXZXZXVX3X` _.8X8X+X( ZXZXZXZXZXZXMXaXMXMXaXZXZXzXzXeXZXZXZXZXAXCXhX>X%X              y.f.g.I.0X0X#XoX4.      ",
"                        zXCXwX|.zXAXZXZXZXMX%XH.,XaXMXZXZXNX8X_.<.7XjX6X!.xXCXZXZXZXZXZXzXzXZXdXZXZXhXwXaXZXZXZXZXCXzXwX-X              p.j.b.n.v.0X0X#X,.        ",
"                          mXwX%XwXAXZXZXZXZX:XJ.|.aXZXZXZXCXgX6X<.!.xX6X^.zXZXZXZXZXZXZXMXzXZXzXCXZXwX*XNXZXZXZXCXhXwX%X            y.a.d.l.m.M.v.oX>.            ",
"                          dXaX%X<XZXZXZXZXZXwXJ.H.aXZXZXZXZXZXgX!./ vX5X5XCXZXZXZXZXZXZXZXzXmXzXCXZXwX:XZXZXZXMXhXwX:X        d.i.d.g.n.M.V.k.t.u oX4.            ",
"                            wX-X*XCXAXZXZXZXhXW.L.mXZXZXZXZXZX8X8X7XMXhXxXZXmXNXNXCXZXZXZXmXzXbXZXMX*XaXZXZXMXhXwX;X      e.a.s.j.k.M.B.B.y., -                   ",
"                            *X*X$XmXAXZXZXZXzXW.P.ZXZXZXZXmXnXMXxXgX8X7X8XlXCXMXNXzXNXmXZXZXNXNXZXNX$XmXZXNXhXwX-XW.    9.a.f.b.n.A.B.C.a.- %                     ",
"                              |.%XaXAXAXZXZXxXW.*XZXZXZXzXzXkX^.^.[.3X_.U ~ lXZXMXNXdXzXCXZXmXzXZXaX:XZXzXwX>X-XE.    4 w.f.b.N.M.p.i.4 -                         ",
"                                |.:XAXAXAXZXNXJ.:XZXZXzXdXCX/ T / !.ZX) ~._.].AXCXCXmXzXbXZXNXzXZX,XzXhX:X$X|.E.  4 9.w.f.n.N.n.4 - @ @                           ",
"                                J.$XmXZXAXAXkXH.wXmXeXzXZX6XC '.T C ~.U ` / ~ ZXZXZXZXMXzXMXmXzXhX*X;X%X|.eX*Xr 0.q.t.g.b.N.M.8.@ $                               ",
"                                  J.wXbXZXZXwXH.-X*XzXZXZX+X~ ].@X5XtX7X9X+X2XZXZXZXZXZXMXdXnXaX$X.X X.X*XCXmXx.q.a.g.g.s.g.4 @                                   ",
"                                    $XwXmXZX;XH.|.zXZXZXZXZXZXSXsXU.ZXZXSXSXZXZXZXZXZXZXZXnXaX=XW. X.XJ.bXAXSXT.t.g.n.w.> > @                                     ",
"                                      $XaXMX%XL.aXZXZXZXZXzXNXCXfX9 Y.zXNXsXU.mXbXZXZXZXZXNXeXK.W..X$XaXAXAXSXfXj.n.f.; #                                         ",
"                                      G.$XzX|.P.ZXZXZXZXzXdXaXhXI.; 9 dX<Xe u nXdXmXZXZXZXMXzXwX:XwXaXZXAXAXAXCXl.s.> +                                           ",
"                                        H.:X|.aXAXCXZXmX,XXXrXnX-.i , F.e ; c.zXdXzXZXMXzXzXaXmXMXdXCXAXAXZXAXSXD.> +                                             ",
"                                        *.%X$XCXAXzXwXwX$X .#.7.#.{ @ = ] 5 U.yXaXwXMXzXmXCXaXCXzXMXAXAXAXZXAXSXI.+                                               ",
"                                          |.eXAXZXNXJ.K.*X6.O.X.X.X.] o.} =.6.5.nX:XMXZXZXzXzXZXZXZXZXAXAXAXZXZX=X                                                ",
"                                          H.aXCXZXCXJ.*.rX5.O.+.+.+.X.O.X.X.+.6.cXwXmXZXZXaXCXZXZXZXZXAXCXzXbXCXeX                                                ",
"                                          P.zX:XaXZX=X&.%.o.O.O.O.O.O.O.O.O.+.o.5.yXhXZXCXaXZXZXZXAXAXmX:X-XzXwX                                                  ",
"                                          aXAXNX=XhX:X.X .+.O.O.O.O.+.+.O.O.O.+.#.5.XXZXmXzXAXZXZXAXmX-XJ.*X*XH.                                                  ",
"                                          mXSXSXzX:XXX-.5.X.O.O.O.+.+.+.O.O.O.+.X.5.rXnXzXzXAXZXZXCX:XJ.|.K.*.                                                    ",
"                                          mXaXNXZXaX;X-.X.+.+.@.@.+.O.+.+.+.+.+.X.%.2.hXaXaXAXZXCXwXH.G 0 <                                                       ",
"                                        u sX<X$XaXCXXX%.+.@.$.$.@.O.O.+.@.@.$.$.#.2.yXSXaX:XMXzX>XL.1 ; 2 8.w.i.                                                  ",
"                                        c.dXZXzX;X2.%.o.| | } [ | +.X.X.} } | o.X.6.rXNXwX%X;X*XG.1 2 9.9.w.a.u.                                                  ",
"                                      9 iXmXZXZX:... .&.S = 0 I.] { ] } { * * S [  .-.&X%XP.L.y - 2 9.9.q.t.a.                                                    ",
"                                    5 v.CXAXAXwX:.XXeX$Xw & u D.c.= y w { = o $ L.;X*.*.r $ o ; 8.9.q.q.w.s.0.                                                    ",
"                                    r.T.SXAXAXzXmXmXP.P.Y.q >.G e r y e 0 S & $ Y.U.8 @ X X O 9.8.q.w.a.s.s.4                                                     ",
"                                  i.u.fXSXAXAXAXAXCX|.L.aXr F }.H.oXoX:.J.:.$ % P.G.        , 9.4 a.s.f.g.g.a.                                                    ",
"                                  w.k.mXSXSXAXAXAXZX*X*.P.F.& oXOX0XOXOXOX>.    .X          + O 9.f.g.b.b.b.s.                                                    ",
"                                  w.l.sXdXnXCXSXSXCX:XG 7 F.o F qX}.}.#X#X      *.            + q.b.b.n.n.M.q.                                                    ",
"                                y.t.r.7 $ 8 r F.sXNX>XG . r o & 3.}.}.oX                      + 4 b.n.n.n.f.>                                                     ",
"                                a.a.w.2 ; 2 ; ; - r L.G . o o     3.>.                          O 4 8.4 4 > @                                                     ",
"                              r.a.a.a.w.9.w.w.q.8.; % % . . .                                     # O O O 8                                                       ",
"                          u.y.q.s.s.s.w.w.w.9.8.8.4 X . . .             F F                         y D.F.I.                                                      ",
"                          h.g.g.g.g.g.s.a.s.u.u.q.w.4 , % .             F &.=                         fXsXeX                                                      ",
"                          m.N.M.M.N.N.t.9.M.k.m.g.g.f.y.9 5 5   5 e *.3.W J ;.                        fXnXsX                                                      ",
"                          j.C.C.C.C.C.a.; d.V.B.N.n.k.j.s.s.w.4 9 .X0X0XOX;.,.                        U.fXI.                                                      ",
"                            d.B.C.C.C.y.O O > s.N.B.A.m.b.f.q.4 z.0X0X#XOXoX,.                      1 6 e 6 1                                                     ",
"                            $ > 4 h.3 O O O + - 3 3 9 f.n.g.9.8.c.0X0XOXOXOX3.                        o : <                                                       ",
"                                @ - O O # @         + , 8.t.2 4 c.0X#XOXOXOX3.W                       o X o                                                       ",
"                                                        + , O , 1 q H *.,.3.4.                        < : < 6                                                     ",
"                                                                $ 7 0 7 7 J                           < : : 6                                                     ",
"                                                              q G G.r 0 y 0                           < : : 6                                                     ",
"                                                              F   K.r y P.*.q                         < : : 5 6                                                   ",
"                                                                  I.r F.    w                         6 6 e z.z.t                                                 ",
"                                                                  Y.S.G.                              q *.oXoX3.W                                                 ",
"                                                                  <XY.                                  *.H ;.F q                                                 ",
"                                                                  I.P.                                  7 7 7 7                                                   ",
"                                                                  F.*.                                                                                            ",
"                                                                  G.                                                                                              "
};
