/* XPM */
static char *_85c59152a4d4ccce0fc19c7cea1f04a3LQ5iPqnxZn6qCxt_9[] = {
/* columns rows colors chars-per-pixel */
"50 56 256 2 ",
"   c None",
".  c #161418",
"X  c #1D1E32",
"o  c #0A2A39",
"O  c #1E263B",
"+  c #1A3539",
"@  c #313236",
"#  c #634F19",
"$  c #68552C",
"%  c #0C304A",
"&  c #143546",
"*  c #143659",
"=  c #122B55",
"-  c #2C3255",
";  c #043374",
":  c #06387B",
">  c #0E376B",
",  c #2F3767",
"<  c #284965",
"1  c #554E53",
"2  c #765D59",
"3  c #6A5B5B",
"4  c #736B49",
"5  c #4D556B",
"6  c #645962",
"7  c #4C6271",
"8  c #6E6A6E",
"9  c #DB090A",
"0  c #DD1E1C",
"q  c #EB0203",
"w  c #E70707",
"e  c #F40303",
"r  c #F50A0A",
"t  c #FC0D0B",
"y  c #F80807",
"u  c #FC110E",
"i  c #F7100E",
"p  c #EB1917",
"a  c #F51613",
"s  c #FA1411",
"d  c #F31916",
"f  c #F91816",
"g  c #F81C1B",
"h  c #E4110F",
"j  c #FA211F",
"k  c #DC2D2B",
"l  c #E42424",
"z  c #F52C2B",
"x  c #F82826",
"c  c #F4302E",
"v  c #E73634",
"b  c #F53937",
"n  c #826D3E",
"m  c #A77C2A",
"M  c #C6413D",
"N  c #D4413E",
"B  c #F3403D",
"V  c #956C50",
"C  c #BF7C5B",
"Z  c #83676D",
"A  c #DB4341",
"S  c #C1534E",
"D  c #D05450",
"F  c #F34543",
"G  c #F24C49",
"H  c #E55855",
"J  c #F65956",
"K  c #F55D5A",
"L  c #F45452",
"P  c #EA4946",
"I  c #D5605E",
"U  c #F0615D",
"Y  c #D2736F",
"T  c #EA6966",
"R  c #F86361",
"E  c #F26966",
"W  c #E9726D",
"Q  c #EC7672",
"!  c #EC7E7A",
"~  c #EC7A76",
"^  c #F17A76",
"/  c #F2736F",
"(  c #A79A24",
")  c #BDA123",
"_  c #9F9119",
"`  c #EFD615",
"'  c #F2DA17",
"]  c #EBCD10",
"[  c #FAE402",
"{  c #FEEA02",
"}  c #F9E508",
"|  c #FDEB13",
" . c #E3CB2A",
".. c #E8D033",
"X. c #D7C610",
"o. c #93827D",
"O. c #89866C",
"+. c #B68776",
"@. c #A6A262",
"#. c #C7865F",
"$. c #D4B14B",
"%. c #D9996F",
"&. c #D09473",
"*. c #EC827E",
"=. c #E49F79",
"-. c #C9A76D",
";. c #DFA67E",
":. c #E8A37B",
">. c #E0C55B",
",. c #DEC768",
"<. c #E9D462",
"1. c #043A87",
"2. c #023D95",
"3. c #013E9C",
"4. c #083E94",
"5. c #193F80",
"6. c #003FA1",
"7. c #0B4598",
"8. c #13479A",
"9. c #1B4483",
"0. c #2A569D",
"q. c #0240A4",
"w. c #0142AA",
"e. c #0944A3",
"r. c #1449A0",
"t. c #0145BA",
"y. c #0E49B4",
"u. c #0252BD",
"i. c #1754B8",
"p. c #2656A8",
"a. c #707489",
"s. c #426FBD",
"d. c #014ACB",
"f. c #0349C3",
"g. c #0D55D0",
"h. c #0056E4",
"j. c #847A82",
"k. c #758AA8",
"l. c #918180",
"z. c #A88E86",
"x. c #AC9A8D",
"c. c #B8958B",
"v. c #B79E97",
"b. c #A89992",
"n. c #BDA39D",
"m. c #AFA196",
"M. c #969CA5",
"N. c #9FA3AC",
"B. c #B4AEB2",
"V. c #B9B5B3",
"C. c #C49D94",
"Z. c #CA9B94",
"A. c #DE9590",
"S. c #CF8B85",
"D. c #EB8E89",
"F. c #EA8884",
"G. c #F08884",
"H. c #EA938E",
"J. c #E0908B",
"K. c #F1928D",
"L. c #EA9B96",
"P. c #EB9E99",
"I. c #EB9792",
"U. c #F09994",
"Y. c #CFA788",
"T. c #DCA786",
"R. c #C5A39A",
"E. c #CAA39A",
"W. c #C7A499",
"Q. c #D8B69A",
"!. c #EBB38C",
"~. c #F3B48B",
"^. c #EAA29C",
"/. c #E9AA83",
"(. c #C6ABA3",
"). c #CBADA3",
"_. c #CCB3AB",
"`. c #D2B5AC",
"'. c #D2B8AD",
"]. c #D9B7AF",
"[. c #C7BBB8",
"{. c #D4BBB3",
"}. c #D9BDB5",
"|. c #ECA6A1",
" X c #EDAAA4",
".X c #E8AFA9",
"XX c #F1ACA6",
"oX c #ECB3AD",
"OX c #E6B5AF",
"+X c #EDB6B1",
"@X c #ECBBB5",
"#X c #EBBCB6",
"$X c #F0B8B3",
"%X c #D5C08E",
"&X c #F4C79A",
"*X c #DBC4BC",
"=X c #DBC7BA",
"-X c #D4C7B6",
";X c #ECC3BC",
":X c #E2C7BF",
">X c #F1C2BC",
",X c #E1CEA1",
"<X c #A9AFC2",
"1X c #DECBC4",
"2X c #DACBC5",
"3X c #D3CDCF",
"4X c #E2CDC5",
"5X c #EDCAC4",
"6X c #E3CFC8",
"7X c #EFCEC8",
"8X c #F0CBC5",
"9X c #E4D3CC",
"0X c #EDD4CD",
"qX c #E6D3C5",
"wX c #F2D4CC",
"eX c #E6D7D0",
"rX c #E6D8D1",
"tX c #EBDBD4",
"yX c #EDDFD8",
"uX c #E9D7D0",
"iX c #F0DCD6",
"pX c #F1DFD8",
"aX c #F0D7D1",
"sX c #EFE0DA",
"dX c #F2E4DE",
"fX c #F2E5E0",
"gX c #F5E9E2",
"hX c black",
"jX c black",
"kX c black",
"lX c black",
"zX c black",
"xX c black",
"cX c black",
"vX c black",
"bX c black",
"nX c black",
"mX c black",
"MX c black",
"NX c black",
"BX c black",
"VX c black",
"CX c black",
"ZX c black",
"AX c black",
"SX c black",
"DX c black",
"FX c black",
"GX c black",
"HX c black",
"JX c black",
"KX c black",
"LX c black",
"PX c black",
"IX c black",
"UX c black",
/* pixels */
"      p f f d                                                                                       ",
"    d f s s s a h                                       d                                           ",
"p s s a s s s s t e                           a s s s s s s s s d   d d s s a                       ",
"a s s u t u u s u y e                     a u u u u u s s s u u u u s s u u u s p                   ",
"a s u f f t t u t r e q               a s u u u u u u u u u u u t u u u u u u u s d                 ",
"d s u b F z j t r r q e q 9       a s s u u u u u t t t t t t t t t t u t t u u s s a               ",
"p c z J K L J b f a q q q w w w i u u u u u t t t t t t t t x s t t t t t t t u u s s d             ",
"  B J R R K G.P.! E l l l v h w t t t t t t t t t t s f t x J x t t t t t t t t u u s r             ",
"  b J R R E >XyXtX+XH H A P k 9 u x g t t f f t t x L J c z J L z t u x u t t t u u t y w           ",
"  T K./ K.^ 5XfXdX+XJ.H A A N 0 f E E t y b F t G ^ K K K J K Q ^ b F / b c t t s g r e w           ",
"  W +X#XiX@X;XdXtXP..XI A A M k F |.@XL g E E z XX;XQ K E ^ ~ ;X5X/ XX>XH.~ z z L F a q e a d a a d ",
"    ^.5XfXdXdXdXdXiX4XZ.D N M H ^ |.5X0X~  XQ K 8XiX@X^ oX0X0XtXiXG.;XfXiXI. X^ F r q q r s s s s s ",
"    0XdXfXdXdXdXdXdXtX`.S.S S T K.+XwX;X#X@X~ L D.OX0XP.tXsXdXsX0XD.7XdXtX;XgXXXv q 9 q u u u s s   ",
"    6XfXdXdXdXdXdXdXyX].E.C.Z.A.aXfXiX;XtX@X^.^.oX0XdX7X0XsXfXdX4X;XdXdXdXtX@X/ v 9 k a u s s s     ",
"    *XdXdXdXdXdXdXdXdX}.E.E.`.6XdXdXpX5X5X^.F.oXgXdXdXfXsXyXfXdXdXsXdXfXdXP.R U Y S v x B f s       ",
"      sXfXdXdXdXdXdXdX4XC.E.`.tXfXdX0XL.@XD.H.5XdXdXdXfXdXyXdXdXdXsXyXdXiXG.K I Y S.F K ! a p       ",
"      tXfXdXdXdXdXdXdX0XR.C.`.yXfXdX#XoXiX|.L.iXdXdXdXdXdXtXdXfXdXdXsXtXsX8XQ S.]..XT |.*.p         ",
"      9XfXdXdXdXdXdXdXtXE.E.{.dXdXdX;XH.;X*.P.pXdXdXdXfXfXsXsXfXfXdXyXsXtX5XA.}.*X#X8X*.v           ",
"      1XfXdXdXdXdXdXdXtX).C.}.dXdXdX5X XI.W |.dXdXdXfXfXfXdXtXdXfXsXyXdXtX0X:X9XyXfXaXT             ",
"        sXdXdXdXdXdXdXtX).C.*XdXdXdX0XoX^.! ^.dXdXdXfXfXfXfXdXtXsXyXdXdXsXdX4XtXdXfX0X              ",
"        tXfXdXdXdXdXdXtX).c.*XdXdXdX#X+X@XoX#XdXsXuXsXdXfXfXdXtX9XyXdXdXsXtX9XdXfXtX                ",
"        4XfXdXdXdXdXdXdX).C.4XdXdXdX+X@X5X;X0XdXdXtX6XsXfXfXdXtX1XeXdXdXsXtXtXfXsX                  ",
"        {.dXfXyXyXdXdXsX).E.4XdXdXdXpXoXH.XXpXdXdXdX4X9XfXfXdX9X4XtXsXdXdXtXdXdXqX                  ",
"          tXfXyXtXdXdXdX_.E.9XdXdXdX@XH.L.H.aXdXdXdXtX9XdXfXdX4X9XdXtXdXdXsXfXtX                    ",
"          4XfXyX1XdXdXdX`.R.9XfXdXdXoXP.|.^.0XsX9XtXsX9XdXdXdX1XtXdXtXyXdXdXtX                      ",
"            sXyX*XsXdXdX{.C.9XdXdXdX^.! D.L.wXdXtX*XtX9XtXdXtX4XsXdXdXtXdXtX}.            &.        ",
"            tXsX{.tXfXdX1XC.9XdXdXdX! Q H.P.pXdXdX0X4XtXtXtX6X9XdXdXdXtX4X`.            /.%.%.      ",
"            9XsX{.9XdXdX9XC.1XsXdX0XF.L. XP.dXdXdXdX4XtXtXtX*XtXdXdXsX9X{.        e.p.Q.&X:.        ",
"              tX{.1XdXdXtXR.{.tXdX0XL.P.;X^.tXdXdXdX9X9XyXtX{.yXdXdX9X{.        8.i.g.n.~.          ",
"              1X{.*XfXdXtXR.(.dXdXdX#XD.;XOXsXdXdXdXyX9XyX9X*XdXdX9X}.E.    r.t.d.i.8.+.            ",
"                `.'.sXdXdX).'.dXdXsX0X;X;X5XtXtXtXtXdXtXyX4X1XyX4X'.E.    t.g.g.f.*                 ",
"                  ).tXfXdX_.1XdXrX5XF.H. XW |.dXtX9XsXtXtX2X9X*X).c.  3.t.d.8.> *                   ",
"                  v.1XdXdX).*X9XtXD.W E F.~ F.tXsXyXeXtX1X{.).{.v.: 3.t.d.7.&                       ",
"                    (.9XtXR._.tXdX;X;X_.0XwX5XsXdXdXtX1X).R.(.tX3Xr.f.2.; &                         ",
"                      _.4Xn.9XgXsX9X9Xa.N.3XM.9XsXdXdX2X(._.9XfXyXs.3.%                             ",
"                      z.).{.dXyX=X%X,X4 5 8 7 2X9XyXrX9XeXeXdXfXgXk.%                               ",
"                        R.9XsX_.)...' X._ ( @.,X2XtXtXrXyXdXfXfXdXB.                                ",
"                        n.9XtXR.-.' { [ [ } } <.=XsXtXtXdXdXsX4X9X                                  ",
"                        2XtX*X'.$.[ { { { { { ' ,.qXtXsXdXsX{.).).                                  ",
"                        9XtXeXQ. .} | { { { { } ..=X6XsXdX{.o.8                                     ",
"                        [.*X=X,.] `  .} [ ` ` ` >.qX*X4X'.6 > 1.3.                                  ",
"                      a.rXtX-.$.m $ O.( ) _ # m $.Y.v.o.5 ; 1.3.4.                                  ",
"                    9.<XgXtX=X_.z.2 j.6 8 n $ 6 m.1 @ o 1.2.6.w.:                                   ",
"                    0.3XgXgXfX).n.Z &.T.T.Y.4 8 x.    % : w.t.t.e.                                  ",
"                    0.B.[.eXgX_.3 1 V !.!.!.            ; f.d.d.1.                                  ",
"                  e.4.* * < a.b.@ @   ;.T.              % 1.3.: &                                   ",
"                4.q.w.2.2.1.; O . .                       + < 7                                     ",
"              y.t.t.t.w.w.8.3.; O X       V V               V.-X                                    ",
"                h.h.h.1.8.g.d.i.8.4.: a.!.%.#.              B.V.                                    ",
"                7.u.u.* o : w.p.f.w.1.C.&X~.=.              - ,                                     ",
"                  & & o +     * : 1.> c.~.~.:.              O O                                     ",
"                                    & 1 2 V C               - = -                                   ",
"                                    2 l.6 8 3               - = ,                                   ",
"                                        8                   , 5 a.Z                                 ",
"                                        b.                    +.+.V                                 ",
"                                        x.                      1                                   "
};
