/* XPM */
static char *_dee9ba828d948fcdd1831683750095bIAt6Fn3CIQZyxXwi_95[] = {
/* columns rows colors chars-per-pixel */
"82 93 256 2 ",
"   c None",
".  c #121117",
"X  c #151C2B",
"o  c #052935",
"O  c #172E33",
"+  c #173237",
"@  c #102C32",
"#  c #34383B",
"$  c #292C34",
"%  c #221D22",
"&  c #4E3A35",
"*  c #563B26",
"=  c #6B6226",
"-  c #163543",
";  c #042A55",
":  c #1C2756",
">  c #043257",
",  c #0F304D",
"<  c #232955",
"1  c #2E364E",
"2  c #053567",
"3  c #033678",
"4  c #0C316C",
"5  c #2F3669",
"6  c #463C4E",
"7  c #37494D",
"8  c #2B4B78",
"9  c #534E53",
"0  c #674F50",
"q  c #716458",
"w  c #4B5570",
"e  c #655863",
"r  c #78586C",
"t  c #736C6F",
"y  c #51647E",
"u  c #2B4537",
"i  c #CD0708",
"p  c #DC0203",
"a  c #D40C0C",
"s  c #D11111",
"d  c #E40304",
"f  c #EB0303",
"g  c #E60B09",
"h  c #F30403",
"j  c #F50C0B",
"k  c #FD0D0B",
"l  c #FA0807",
"z  c #FD110D",
"x  c #F7110F",
"c  c #EC1B16",
"v  c #EA1A17",
"b  c #F51513",
"n  c #FB1411",
"m  c #F41815",
"M  c #F61918",
"N  c #E1110E",
"B  c #D7211C",
"V  c #F5201F",
"C  c #E22119",
"Z  c #CF2E2D",
"A  c #EA2B2A",
"S  c #F52422",
"D  c #F42C2B",
"F  c #F82322",
"G  c #EC3736",
"H  c #F23C3A",
"J  c #F33432",
"K  c #9A6722",
"L  c #F1413E",
"P  c #C0423E",
"I  c #8C6D52",
"U  c #877471",
"Y  c #B97667",
"T  c #A66453",
"R  c #CD4B47",
"E  c #EB4846",
"W  c #F34946",
"Q  c #E95856",
"!  c #EF5351",
"~  c #EC625F",
"^  c #C86B65",
"/  c #CB746D",
"(  c #D3746F",
")  c #DC716D",
"_  c #D97974",
"`  c #CD7670",
"'  c #E86966",
"]  c #EA716E",
"[  c #E87A76",
"{  c #F26F6C",
"}  c #CA7B54",
"|  c #B91414",
" . c #AB931D",
".. c #D1B20F",
"X. c #D0AB31",
"o. c #D8A716",
"O. c #F3DC07",
"+. c #EACE0E",
"@. c #FEEB01",
"#. c #FBE707",
"$. c #F9E81A",
"%. c #EBD52F",
"&. c #E9D631",
"*. c #AF8B74",
"=. c #A6905A",
"-. c #CE845E",
";. c #CDAD4F",
":. c #CA8869",
">. c #C69778",
",. c #DA9B77",
"<. c #D18B6F",
"1. c #EA837E",
"2. c #EB9479",
"3. c #DAAC75",
"4. c #E6A078",
"5. c #DEC750",
"6. c #E3CD55",
"7. c #EEDD57",
"8. c #013A8C",
"9. c #043984",
"0. c #013C94",
"q. c #013E9B",
"w. c #0A3D92",
"e. c #173F83",
"r. c #003FA1",
"t. c #08419A",
"y. c #174795",
"u. c #13438C",
"i. c #264B89",
"p. c #0241A5",
"a. c #0042AC",
"s. c #0B47A6",
"d. c #0143B4",
"f. c #0045BB",
"g. c #0849B9",
"h. c #1551B2",
"j. c #2B5EB1",
"k. c #3666B3",
"l. c #54678F",
"z. c #6C718A",
"x. c #5B699E",
"c. c #0047C2",
"v. c #0049CC",
"b. c #0349C6",
"n. c #004DD4",
"m. c #004ED8",
"M. c #0353DB",
"N. c #1C5CC0",
"B. c #005BE7",
"V. c #1464DC",
"C. c #4C7CC7",
"Z. c #877E83",
"A. c #75859B",
"S. c #928E90",
"D. c #A99388",
"F. c #B8948B",
"G. c #A99793",
"H. c #BD9C92",
"J. c #B59C92",
"K. c #B38E85",
"L. c #BAA49B",
"P. c #A6A19E",
"I. c #ADA8AB",
"U. c #999DAC",
"Y. c #C5988D",
"T. c #C39C94",
"R. c #C89D95",
"E. c #D59790",
"W. c #EB8581",
"Q. c #EB8E89",
"!. c #E78A85",
"~. c #F18C87",
"^. c #EA928D",
"/. c #E5928D",
"(. c #EC9A95",
"). c #E99994",
"_. c #F29E99",
"`. c #F19792",
"'. c #F1918C",
"]. c #C4A49B",
"[. c #CAA39A",
"{. c #C7A598",
"}. c #D6B18E",
"|. c #EAAC85",
" X c #F3B48B",
".X c #EBA39D",
"XX c #E5A19B",
"oX c #F4A29D",
"OX c #F1B58E",
"+X c #C5ACA3",
"@X c #CCADA3",
"#X c #D6AEA7",
"$X c #CCB3AB",
"%X c #C9B2A7",
"&X c #D2B4AB",
"*X c #D5B7AA",
"=X c #D4BBB3",
"-X c #D9BDB5",
";X c #D6BFB8",
":X c #CAB8B1",
">X c #E5ABA5",
",X c #EBAAA5",
"<X c #EBAAA5",
"1X c #F3A5A1",
"2X c #F2AAA5",
"3X c #F1AEA9",
"4X c #EDB3AD",
"5X c #E5B1AB",
"6X c #F1B2AD",
"7X c #EDB6B1",
"8X c #EDBBB5",
"9X c #E9BCB6",
"0X c #F0BBB5",
"qX c #FAC39B",
"wX c #DBC4BC",
"eX c #D7C4B9",
"rX c #D6C6AD",
"tX c #EBC4BD",
"yX c #E2C6BB",
"uX c #F0C3BD",
"iX c #F4CCA8",
"pX c #BCBEC7",
"aX c #C5BFC0",
"sX c #DDCBC3",
"dX c #D9CCC7",
"fX c #DCD1CB",
"gX c #CFCDCE",
"hX c #EDC7C0",
"jX c #E2CCC4",
"kX c #EDCBC4",
"lX c #EBCFC8",
"zX c #F1CBC4",
"xX c #E4D3CC",
"cX c #ECD3CC",
"vX c #E5D4C6",
"bX c #F0D4CD",
"nX c #F0D0C6",
"mX c #E6D7D0",
"MX c #EBDCD4",
"NX c #EDDFD8",
"BX c #E8D8D1",
"VX c #F0DCD5",
"CX c #F1DFD8",
"ZX c #F1D7D0",
"AX c #EFE1DA",
"SX c #F2E4DD",
"DX c #F2E5E0",
"FX c #F6E8E2",
"GX c black",
"HX c black",
"JX c black",
"KX c black",
"LX c black",
"PX c black",
"IX c black",
"UX c black",
/* pixels */
"  c m n m   c m n                                                                                                                                                   ",
"c b n b n n n b n n n                                                                                     c m b n m                                                 ",
"m n m n n n n n z z n n b                                                                         m b n n b b n n n v                                               ",
"c m n n n z z z z z z z n v                                                                 m n n n n n n n n b x n n m                                             ",
"C m n n z z z z z z z z z x N                                                         m n n n z z z z z z z z z z z z z b                                           ",
"B b n n z z z k k k k z z z j g a                                               v b x z z z z z z z z z z z z z z z z z z m                                         ",
"  m n n z z k k k k k k k z k l l h h h f g h h h f f N                     m b n z z z z z z z k k k k k k k k k z z z z n c                                       ",
"  m n z z z k k k k k k k k k l h f h h h f f h h h h j b b b b b b b b n x z z z z z z k k k k k k k k k k k k k k z z z z x b                                     ",
"  c n z z k k H V k D H F k k k l f f f h h d d f f f j x z z n z z z z z z z z z k k k k k k k k k k j k k k k k k k k z z z z x m                                 ",
"  C n n k k D '.Q S ~.oXW.L M F M f d d f f f f d d f j z z z z z z z z z z k k k k k k k k k k k k k j k k k k k k k k k z z z z z b                               ",
"    b W W b { 1X`.! ~.oX,X~ E W.! h p p d f f f f f p j z z k k k k k k k k k k k k k k k k k k k k k j k k k k k k k k k k k k k z z x b                           ",
"    v [ 1.! _.1X1XQ.W.2XkX>X8XSX.Xc Z Z p p p d d d i j z k k k k k k k k k k k k k k k k k k k k k J A k k k k k k k x n k k k k k z z n n                         ",
"    C ' _.(.1X1X1XoX_.7XSXSXZXhXQ.G W.R Z R Z s p p i j k k j k k k k k x V k k k k k F H H M k k ! `.!.J n b k k k k J D k k k k k k z z z n v                     ",
"      A Q !.1X1X1X1X1XzXSXSXSXVX8X`..X/ ^ _ _ R s p i j n E ~ W m k k k S H n k k n ! ~.oX_.] b m W.oX).~.' 1.L k k F W D b S k k k k k z z z l d                   ",
"      [ 1._.1X1X1XoX2XZXSXSXSXDXbX7X>X)._ _ _ _ R i i k D `.3X~.M k k k H (.S k m ' oX1XoXoX_.E b ' oX^.oX2X4X_.! b ! { J D ! S k k k k k k k l h d                 ",
"      XX2X0X2XoX1XoX2XVXSXSXSXSXnXkX9X)._ _ _ _ / P a j D (.bX4XW b l l E 8XD l Q cXhX1XQ.`.oX`.] [ _.^.2XbXcX2X_.' [ bX1.! ).~.S j F H H S k h h h d               ",
"      E.4XCX0X2XzX6X1XkXSXSXSXcX4XkX9X)._ ( _ ( ` ^ B G J ~ XXVXbX!.c D ^.9Xc l ! 7XkX).' _.oXoXoXoXoX).kXSXVX4XoX4X[ 7XSXtX<X_.G G ~.oXoX] j f f f h N             ",
"      Y.4XSXZXkXSXbX3X9XMXSXSXMX4XZX9X)._ ( ( ( / ^ G ] 4X3XtXkXSXlX!.`.hXcX] H ! ' [ /.(.oXoXoXoX2X3X>XMXSXSX7X1XcXkXkXSXVX3X6X[ ] 1XoX[ J f d d f l x v           ",
"        >XuXVXSXSXSXcXVXSXSXSXSXMXAX-X#X_ ( ( ( / Y [ _.uXnX7XkXSXSXzX4XVXnXoX~.7XZXVXSX0XoXoX1X0XVXcXjXBXSXSX8X2XVXSXSXSXnX8XSXcX,X'.E b l p p d f j n b           ",
"        wXhXhXMXDXDXSXSXSXSXSXSXSXSXjXjX<.( ( ( ^ ` 1X1X1X6XkXSXSXcX5XtX4X).[ ! 1XcXMXMXnX1X8XkXMXSXAXBXxXSXSX8X4XSXSXSXSXkXcXSXSXuX! h l f p p d j z z n n c       ",
"        wXSXSXSXDXDXSXSXSXSXSXSXSXSXcXlXY./ / / Y E.1X7XnXCXSXCX7X.X4XVX,X[ ] Q.oX1X4XcXVX6XVXAXAXSXSXNXfXSXVX3XkXSXSXSXSXcXSXSXSX0XQ h l s Z s f k k z z n n m     ",
"        =XAXDXDXDXDXSXSXSXSXSXSXSXSXBXlX[.:./ / Y E.1XkXDXSXSXtX<XnXcXCXQ.(.W.4X6X7XcXSXSX0XZXAXSXDXDXSXxXcX9X8XSXSXSXSXSXAXSXSXbX2X] g f | ^ R j k b V b n n n m C ",
"        [.MXDXDXSXSXSXSXSXSXSXSXSXSXBXlX@XR.Y.*.T.-X7XcXDXSXSXVX9X^.kXVX[ !.(.tXSXSXSXSXSXbXnXAXSXDXDXDXNXjXlXSXDXDXSXSXSXSXVXhX2XoX/.A s | R E x V H D n n n m m   ",
"          xXDXDXSXSXSXSXSXSXSXSXSXSXBXxX&X[.R.F.@XsXcXSXSXSXSXVX!.8XkXtX1.~ ' 5XSXSXSXSXSXSXMXAXAXDXDXSXSXBXBXDXDXDXDXSXSXcX6XoXoX.X#X) R T ( L k ~ (.J z n m m     ",
"          sXDXDXSXSXSXSXSXSXSXSXSXSXMXxX&X[.Y.T.@XsXAXSXSXSXSXSXlXhX<XtX] [ Q ,XDXSXSXSXDXDXDXSXAXDXDXSXSXSXxXMXDXDXDXSXVX3XoXoXoX).<.R Y E.(.{ M Q.8XH n m v       ",
"          =XSXDXDXSXSXSXSXSXSXSXSXSXSXcX&XR.F.[.&XsXAXSXSXSXSXNXtXW.7XhXQ [ Q >XDXSXSXSXDXDXDXSXAXDXDXDXDXSXSXxXMXSXDXSXcX1XoXoXoX).E.E.@X-X!.E H 9XtXH m v         ",
"          @XMXDXDXSXSXSXSXSXSXSXSXSXSXNX&XT.F.R.&XjXAXSXDXDXSXMX[ ).cXcX[ (.tXcXSXSXSXDXDXDXDXSXNXSXDXDXDXDXSXAXxXNXSXSXSXkX3XoX.X*XyXwX-XhX(.Q.7XhX(.A v           ",
"            xXDXDXSXSXSXSXSXSXSXSXSXSXSX-XT.F.F.$XjXSXSXSXSXSXcX5XVXSXVX4X4XVXSXSXSXSXDXDXDXDXSXAXAXDXDXDXDXDXSXAXxXMXMXSXSXcX,X5XxXcX&X#X9XnXSXtXW A B             ",
"            jXDXDXSXSXDXSXSXSXSXSXSXSXSXwXH.K.T.&XxXSXSXSXSXSX5X>XSXSXbXtX).<XSXSXSXSXDXDXDXDXDXSXNXDXDXDXDXDXDXSXxXfXsXSXSXkX,XyXcXxX=XcXSXDXCX(.S v               ",
"            -XSXDXDXSXSXSXSXSXSXSXSXSXSXjXH.T.[.&XxXSXSXSXSXSX4X' ).VXuX^.[ tXSXSXSXSXDXDXDXDXDXSXNXSXDXDXDXDXDXAXxXAXsXMXcXtXkXxXBXjXxXDXDXDXVX<XE                 ",
"              NXDXDXSXSXSXSXSXSXSXSXSXSXxXH.[.[.&XBXSXSXSXSXSXVX).[ 4X(.' 8XVXSXSXSXSXDXDXDXDXDXDXAXAXDXDXDXDXSXBXMXSXBXBXMXSXcXxXMXjXAXDXDXDXMX#X                  ",
"              cXDXDXSXSXSXSXSXSXSXSXSXSXjX].[.R.=XMXSXSXSXSXSXMXkXnX[ Q ^.8XVXSXSXSXSXSXDXDXDXDXDXSXNXSXDXDXDXSXxXAXSXMXBXSXAXxXBXBXBXDXDXDXSXyX                    ",
"              wXDXDXSXSXDXSXSXSXSXSXSXSXsX@X[.T.wXMXSXSXSXSXSXSXMX9X.XW.5X,XVXSXSXSXSXSXSXDXDXDXDXDXSXAXSXSXSXBXBXSXSXSXxXSXAXxXNXBXSXDXDXSXjX                      ",
"              &XSXDXDXSXDXSXSXSXSXSXSXSXsX@XR.R.-XMXSXSXSXSXSXcX/.5X.X(.[ ] VXSXSXMXMXSXSXSXSXSXSXDXSXNXAXSXMXxXSXSXSXSXxXAXNXBXSXAXDXDXSXcX                        ",
"                BXDXDXSXSXSXSXSXSXSXSXSXxX@XT.T.wXAXSXSXSXSXSX.X] bX!..X8X_ cXSXSXBXwXxXSXSXSXSXSXSXSXSXBXMXxXSXSXSXSXSXBXMXMXBXSXDXDXDXMX                          ",
"                eXDXDXDXSXSXAXSXSXSXSXSXMX@XT.].wXAXSXSXSXSXSX9XkXSX>XtXSXMXSXSXSXSXjX&XjXAXSXSXSXSXSXSXxXsXsXSXSXSXSXSXMXBXMXMXSXDXDXSX-X                          ",
"                +XAXDXDXDXMXxXSXSXSXSXSXNXL.R.[.wXSXSXSXSXDXSXbXuXVXAXcXhXZXSXSXSXSXSXwX&XsXSXSXSXSXSXSXxXwXxXAXSXSXSXSXAXBXMXSXDXDXDXvX                            ",
"                  mXDXDXDXMXsXSXSXSXSXSXAX].R.[.wXSXSXSXSXSXSXSXtXQ.W.' W.VXSXSXSXSXSXBX&X=XAXSXSXSXSXSXjX-XMXMXSXSXSXSXSXxXNXSXDXDXMX@X                            ",
"                  eXDXDXDXMXwXSXSXSXSXSXSX+XR.[.sXSXSXSXSXSXSXbX[ !.^.<XW.bXSXSXSXSXSXSXwX$XmXSXSXSXSXSXwX$XMXMXMXSXSXSXSXBXNXDXDXSXyX                              ",
"                  +XNXDXDXMX=XMXDXDXSXSXSX$XH.[.sXSXSXSXSXSXSX.XE Q.)./.' cXSXSXSXSXSXSXxX&XsXSXSXSXSXSX-X$XNXSXMXNXSXSXSXMXMXDXSXwX                                ",
"                    xXDXDXMX&XsXSXDXSXSXSX-XF.[.sXSXSXDXSXSXSX`.{ .X).Q.' hXSXSXMXSXSXSXSX-X=XSXSXSXSXNX&X=XSXSXSXMXSXSXSXSXSXSXwX                    :.-.          ",
"                    dXSXDXAX=XeXSXDXSXSXSXwXK.].jXSXSXSXSXSXSXW.Q W.^.(.^.9XSXSXMXxXMXSXSXjX%XMXSXSXSXBX&XsXSXSXSXSXMXSXDXDXAXwXT.                    ,.:.<.        ",
"                      MXDXSX-X:XSXSXDXSXSXxXF.H.jXSXSXSXSXSXVX] ' Q.1.' 1.8XSXSXSXMXxXBXSXMX$XBXSXSXSXxX&XxXSXSXSXSXAXNXSXMXwX].                  ,.|.|.,.:.        ",
"                      xXDXSX-X%XAXSXSXSXSXcX].T.sXMXMXSXSXSXSX[ ' .X4X.X8XSXSXSXSXSXMXxXAXSXeXxXSXSXMXxX&XMXSXSXSXSXDXNXxX-X].              u.i.Y.qXqX X,.,.        ",
"                        MXSXwX+XMXSXSXSXSXMX@XF.sXBXNXSXSXSX5X[ .XhXzX<X!.SXSXSXSXSXSXBXxXSXjXsXSXMXBXsX=XSXSXSXSXDXSXxX=X{.              t.d.f.P.qXqXOX|.-.        ",
"                        fXSXwX].xXDXSXSXSXSX&XK.-XsXAXSXSXcX>X[ [ 9XkX4X[ MXSXSXSXSXSXSXxXAXBXsXSXMXBXwXsXSXSXSXSXSXxX-X[.              i.h.c.v.x.qXqXOX<.          ",
"                          BXwX{.sXDXSXSXSXSX-XF.].sXSXSXSXAXcX8X[ [ kX8X[ jXSXSXSXSXSXSXBXMXAXfXSXMXxX-XmXSXSXSXSXxX-X{.            t.p.s.k.b.n.x.OX,.              ",
"                          sXjX@X=XDXSXSXSXSXwXF.F.fXSXSXSXSXSXtX1.[ VX>X5XAXSXSXSXSXSXSXAXBXSXxXSXMXwX=XSXSXSXSXjX-X&X        t.e.s.f.v.n.N.j.r.y |.-.              ",
"                            wX&X$XAXDXSXSXSXjXT.K.BXSXSXSXSXSXyX9X9XVXjXMXSXBXxXBXSXSXSXSXBXNXxXSXMX=XsXSXSXNXjX-X&X      w.p.d.h.j.n.M.M.t., -                     ",
"                            +X&X@XMXDXSXSXSXxXT.L.SXSXSXSXMXxXVXcXhXtX9X8XnXSXNXxXxXBXMXSXNXMXxXSXcX%XMXSXBXwX=X&XT.    e.p.d.b.v.C.M.B.p.- $                       ",
"                              ].@XsXDXDXSXSXcX].$XSXSXSXxXxXkX!.!.).,X^.E ' nXSXAXxXsXfXSXSXMXxXSXsXeXSXxX-X=X&XY.    3 q.d.b.m.n.i.u.3 -                           ",
"                                {.=XSXDXDXSXBXH.=XDXSXxXjXSX[ Q ] W.SX[ ~.^.).SXAXAXBXxXBXSXMXxXSXeXxXjX=X@X@XY.  3 8.q.f.v.m.n.3 - + +                             ",
"                                H.+XMXSXDXDXjXF.wXMXeXxXDX7XG ^.Q G !.E ] [ ' SXSXSXSXNXxXNXBXxXjX$X&X@X].eX$Xe 9.0.p.f.c.m.n.9.+ #                                 ",
"                                  J.wXmXSXDXwXK.&X$XxXSXSX.X' (.XX>XtX0X3X.X,XSXSXSXSXSXMXfXBXsX+X].[.].%XSXMXl.0.p.f.c.a.f.3 +                                     ",
"                                    +XwXMXSX&XK.].xXSXSXSXSXSXFXgXI.SXSXFXFXSXSXSXSXSXSXSXBXsX%XT.[.].H.mXDXFXU.p.f.v.t.> > +                                       ",
"                                      @XsXMX@XK.sXDXSXSXSXxXBXAXgX8 I.xXBXdXP.MXmXSXSXSXSXBXeXJ.H.T.+XsXDXDXDXgXh.v.d.; @                                           ",
"                                      D.+XxX].L.SXSXSXSXxXjXsXjXP.; 8 fXaXw y BXfXMXSXSXSXMXxXwX=XwXsXSXDXDXDXAXk.a.> O                                             ",
"                                        F.=X].sXDXAXSXMXeX}.*XBX;.u > S.w ; z.xXxXxXSXMXxXxXsXMXNXfXAXDXDXSXDXDXA.> O                                               ",
"                                        *.@X+XAXDXxXwXwX+XX.%.7.&. .- =  ., I.yXsXsXNXxXMXAXsXAXxXNXSXDXDXSXDXFXP.O                                                 ",
"                                          ].eXDXSXBXH.J.:X6.@.O.O.O. .+...=.5.5.BX=XMXSXSXxXxXSXSXSXSXDXDXDXSXSX:X                                                  ",
"                                          F.sXAXSXAXH.*.rX5.@.@.#.@.O.@.O.O.@.6.vXwXBXSXSXjXNXSXSXSXSXDXAXxXmXAXeX                                                  ",
"                                          L.xX=XsXSX%X=.&.O.@.@.@.@.@.@.@.@.@.%.6.wXjXSXAXsXSXSXSXDXDXMX=X&XxXwX                                                    ",
"                                          dXDXBX%XjX=X{.X.#.@.@.@.@.#.#.@.@.@.#.&.6.}.SXMXxXSXSXSXDXMX&XH.$X$XF.                                                    ",
"                                          MXFXFXxX=X@X;.5.O.@.@.@.@.#.#.@.@.@.@.O.5.rXMXxXxXSXSXSXNX=XH.].J.*.                                                      ",
"                                          MXsXBXSXjX*X;.O.@.#.$.$.#.@.@.#.#.#.@.O.%.3.jXsXsXDXDXAXwXF.U 9 <                                                         ",
"                                        y dX:X+XsXAX}.X.#.$.&.%.$.@.@.#.#.$.$.$.+.3.yXDXsX=XNXxX-XG.1 , 2 9.q.u.                                                    ",
"                                        z.fXSXmX*X3.+.+...+...X.+.O.O.O.....+.+.O.5.rXBXwX@X=X$XD.1 2 8.8.q.a.y.                                                    ",
"                                      8 pXMXSXSX>. .X.=.K = 9 G. ...K .. .* * K  .X.;.#X@XL.G.t - 2 8.8.0.r.p.                                                      ",
"                                    4 x.AXDXDXwX>.}.eX+Xq & y A.z.= t q  .= $ # G.*X*.*.e # X ; 9.8.0.0.r.a.9.                                                      ",
"                                    e.U.FXDXDXxXMXMXL.L.I.0 ,.U w e t w 0 K & # L.I.7 $ X X o 8.9.0.q.p.a.a.3                                                       ",
"                                  u.y.gXDXDXDXDXDXSX].K.sXe I }.K.|.|.>.H.>.# $ L.D.        , 8.3 p.a.d.f.f.p.                                                      ",
"                                  q.j.MXFXDXDXDXDXSX$X*.L.S.& |.OXqX XOXOX,.    {.          O o 8.f.f.c.c.b.a.                                                      ",
"                                  q.k.dXfXmXAXFXFXAX=Xt 6 S.% I qX}.|.OXOX      *.            O 0.c.c.v.v.v.0.                                                      ",
"                                t.r.e.6 1 7 e S.dXBX-XU . e % & 4.}.}.|.                      O 3 c.v.v.v.d.>                                                       ",
"                                p.p.q.4 ; 2 ; ; 1 e G.U . % %     3.3.                          o 3 9.3 3 > +                                                       ",
"                              e.p.p.p.q.8.q.q.0.9.; $ $ . . %                                     @ o o o 7                                                         ",
"                          y.t.0.a.a.a.q.q.q.8.9.9.3 X . . .             I I                         t A.S.P.                                                        ",
"                          g.f.f.f.f.f.a.a.a.y.y.0.q.3 , $ .             I =.*                         gXgXeX                                                        ",
"                          b.m.n.m.m.m.r.8.n.j.b.f.f.d.t.8 4 4   4 w *.4.} T :.                        fXmXdX                                                        ",
"                          h.B.B.B.B.B.p.; s.N.M.m.v.j.h.a.a.q.3 8 {.qXqX X:.<.                        P.gXP.                                                        ",
"                            s.M.B.B.B.t.o o > a.m.M.C.b.c.d.0.3 l.OXqXOX X X<.                      1 5 w 5 1                                                       ",
"                            # > 3 s.2 o o o O - 2 2 8 d.v.f.8.9.z.qXqX X X X4.                        X : <                                                         ",
"                                + - + o @ +         O , 9.p.2 3 z.qXOX X X X4.}                       X X X                                                         ",
"                                                        O , o , 1 q Y *.<.4.-.                        < : < 5                                                       ",
"                                                                # 6 9 6 6 I                           < : : 5                                                       ",
"                                                              0 U G.e 9 t 9                           < : : 5                                                       ",
"                                                              I   J.e t L.*.0                         < : : 5 5                                                     ",
"                                                                  P.e S.    q                         5 5 w l.z.r                                                   ",
"                                                                  I.Z.D.                              0 *.|.|.4.}                                                   ",
"                                                                  :XI.                                  *.Y / I 0                                                   ",
"                                                                  G.L.                                  6 6 6 6                                                     ",
"                                                                  S.*.                                                                                              ",
"                                                                  D.                                                                                                "
};
