/* XPM */
static char *_b1d476dc93c4b33b52adb2169e5640aaxbrgIiijIM7XimY_1[] = {
/* columns rows colors chars-per-pixel */
"48 39 256 2 ",
"   c None",
".  c #8B9AAF",
"X  c #8097B6",
"o  c #518DCC",
"O  c #3684D5",
"+  c #217EDD",
"@  c #137AE2",
"#  c #0977E5",
"$  c #0575E6",
"%  c #0474E6",
"&  c #0374E6",
"*  c #0275E7",
"=  c #0275E8",
"-  c #0275E9",
";  c #0175E9",
":  c #0074EA",
">  c #0175EA",
",  c #0175EB",
"<  c #0174EC",
"1  c #0075EC",
"2  c #0275EC",
"3  c #097DED",
"4  c #188DF2",
"5  c #1B91F2",
"6  c #1D94F3",
"7  c #1E95F4",
"8  c #1F95F4",
"9  c #1F93F3",
"0  c #2192F1",
"q  c #2D97EB",
"w  c #42A1ED",
"e  c #4BA5EE",
"r  c #50A8EF",
"t  c #52A9EF",
"y  c #54AAF1",
"u  c #57ADF2",
"i  c #5AB0F6",
"p  c #5CB2F8",
"a  c #5EB2F8",
"s  c #63B1F2",
"d  c #67B4F5",
"f  c #71B8F5",
"g  c #78BCF6",
"h  c #7BBEF6",
"j  c #81C1F7",
"k  c #86C3F7",
"l  c #90CAFB",
"z  c #9BC9F3",
"x  c #A4CDF2",
"c  c #A8D4FA",
"v  c #AAD4F9",
"b  c #ABD2F7",
"n  c #ACD2F6",
"m  c #ACD1F5",
"M  c #B0D1F2",
"N  c #B0D2F2",
"B  c #AFD1F3",
"V  c #AED2F5",
"C  c #AED3F7",
"Z  c #B1D5F8",
"A  c #BCDBF8",
"S  c #C1DCF7",
"D  c #C5DEF6",
"F  c #C9DFF6",
"G  c #CBE0F5",
"H  c #D3E5F7",
"J  c #E6F1FA",
"K  c #F2F8FC",
"L  c #F7FAFD",
"P  c #FBFDFE",
"I  c #F9FCFE",
"U  c #1C74CE",
"Y  c #1370CE",
"T  c #0D71D4",
"R  c #0775E2",
"E  c #0475E2",
"W  c #0273E3",
"Q  c #0073E5",
"!  c #0074E6",
"~  c #0074E8",
"^  c #0174EA",
"/  c #0174EB",
"(  c #0275EB",
")  c #0477EC",
"_  c #077BED",
"`  c #1186EF",
"'  c #198FF1",
"]  c #1D93F1",
"[  c #1D95F1",
"{  c #1E95F0",
"}  c #1E96F1",
"|  c #1F96F3",
" . c #1E95F2",
".. c #1F94F0",
"X. c #2093EE",
"o. c #2491E9",
"O. c #2591E8",
"+. c #2592E8",
"@. c #2692E9",
"#. c #2793EC",
"$. c #2894EE",
"%. c #2B96EF",
"&. c #3399EC",
"*. c #389BEC",
"=. c #3D9DEB",
"-. c #44A0EC",
";. c #4AA4EE",
":. c #53A6EB",
">. c #52A8F0",
",. c #58AFF7",
"<. c #65B2F5",
"1. c #6EB4F4",
"2. c #75B7F4",
"3. c #7FBBF6",
"4. c #8BBEF2",
"5. c #98BFE9",
"6. c #9DBFE6",
"7. c #9EC1E7",
"8. c #A2C7EE",
"9. c #A4C9F0",
"0. c #A5CBF2",
"q. c #A5CFF7",
"w. c #A5CFF8",
"e. c #A6CFF8",
"r. c #A7CFF9",
"t. c #A8CFF8",
"y. c #A8CFF6",
"u. c #A8CFF5",
"i. c #A8D0F5",
"p. c #A9D0F5",
"a. c #AAD0F5",
"s. c #AAD1F4",
"d. c #ACD3F7",
"f. c #B4D6F6",
"g. c #BBD9F7",
"h. c #C2DCF7",
"j. c #C5DDF8",
"k. c #C9DFF8",
"l. c #CBE0F8",
"z. c #D0E2F7",
"x. c #D7E8FA",
"c. c #DEECFB",
"v. c #E9F4FD",
"b. c #F2F9FD",
"n. c #F6FBFD",
"m. c #FBFCFD",
"M. c #F9FCFD",
"N. c #6895BF",
"B. c #4B8DC8",
"V. c #3588D3",
"C. c #2284DD",
"Z. c #137CE0",
"A. c #0F78E1",
"S. c #0B77E2",
"D. c #0676E4",
"F. c #0575E4",
"G. c #0574E3",
"H. c #0474E4",
"J. c #0272E5",
"K. c #0172E6",
"L. c #0071E7",
"P. c #0172E8",
"I. c #0072E8",
"U. c #0073EA",
"Y. c #0376E9",
"T. c #0679EA",
"R. c #0D81EC",
"E. c #158AEE",
"W. c #198EF0",
"Q. c #1B91F0",
"!. c #1D92F1",
"~. c #1D92F0",
"^. c #1E91F0",
"/. c #1F92F0",
"(. c #2A98F1",
"). c #359BEF",
"_. c #3D9DEE",
"`. c #419EEE",
"'. c #45A0EE",
"]. c #4AA2EF",
"[. c #4EA4F0",
"{. c #50A6F1",
"}. c #52A8F2",
"|. c #54ADF9",
" X c #58AEF6",
".X c #5CAEF4",
"XX c #60AFF4",
"oX c #73B4EE",
"OX c #87B5E4",
"+X c #95B8E0",
"@X c #9CBBE1",
"#X c #A0C1E6",
"$X c #A2C2E8",
"%X c #A4C5EA",
"&X c #A5C8EE",
"*X c #A5CAF0",
"=X c #A4CBF1",
"-X c #A4CBF2",
";X c #A3CCF3",
":X c #A3CEF5",
">X c #A3CEF6",
",X c #A3CEF8",
"<X c #A4CFF7",
"1X c #A4CFF6",
"2X c #A5CFF5",
"3X c #A6D0F5",
"4X c #ABD3F6",
"5X c #B4D8F8",
"6X c #BADCFB",
"7X c #BEDFFC",
"8X c #C0E0FC",
"9X c #C4E2FC",
"0X c #CAE1F8",
"qX c #CDE4F9",
"wX c #D1E6F9",
"eX c #E0EFFB",
"rX c #E5F2FC",
"tX c #EBF6FD",
"yX c #F4FBFE",
"uX c #F0FAFE",
"iX c black",
"pX c black",
"aX c black",
"sX c black",
"dX c black",
"fX c black",
"gX c black",
"hX c black",
"jX c black",
"kX c black",
"lX c black",
"zX c black",
"xX c black",
"cX c black",
"vX c black",
"bX c black",
"nX c black",
"mX c black",
"MX c black",
"NX c black",
"BX c black",
"VX c black",
"CX c black",
"ZX c black",
"AX c black",
"SX c black",
"DX c black",
"FX c black",
"GX c black",
"HX c black",
"JX c black",
"KX c black",
"LX c black",
"PX c black",
"IX c black",
"UX c black",
/* pixels */
"                l.l.8.u.u.x u.a.a.p.x x x 0.x 9.9.6.:.:.:.=.O +.+.+.+.O O O O o                 ",
"              M K K g.b b n b b b b b b b b b C j.g.f i i ,.,.,.,.,.,.,.i i i 3.8..             ",
"            6.v.m.M.J f.b b b b b b b b b t.m S l.l.C <.,.i i ,.,.,.,.,.,.,.f q.u.7.            ",
"          M c.m.m.m.m.c.V t.b b b b b b b n g.l.l.z.l.q.i ,.,.,.,.,.,.,.,.<.z y.y.t.7.          ",
"        S x.M.m.m.m.m.M.H n a.b b b b b n g.k.l.l.l.l.k.z i ,.i ,.,.i ,.i k y.e.e.u.u.6.        ",
"        H L m.m.m.m.m.m.L j.b b d.b b b f.l.l.l.l.l.l.l.h.3.i ,.,.,.i i 3.q.e.p.t.t.y.0.X       ",
"      z.n.m.m.m.m.m.m.m.m.K g.b b a.s.Z k.l.l.l.l.l.l.l.l.g.f i i i ,.f q.y.t.y.t.y.y.w.x X     ",
"    x.K m.m.m.m.m.m.m.m.m.m.J f.n y.b j.l.z.z.l.l.l.l.l.l.k.Z <.,.,.<.z y.y.y.t.t.y.y.t.y.8.    ",
"  G K m.m.m.m.m.m.m.m.m.m.m.m.c.n n h.l.l.l.l.l.l.l.l.l.z.l.l.q.i i z y.t.y.e.t.y.q.q.t.y.y.6.  ",
"N v.K K K K K K K K K K K K K K l.C g.S S S h.h.j.j.j.j.j.k.j.j.4.3.q.q.q.q.q.q.y.y.y.y.y.y.q.5.",
"6.B V m n n m V V V C V C V C f.y.e w w w w w -.r r r r >.r >.>.>.@.O.@.O.@.@.q =.=.-.-.:.:.:.o ",
"  6.0.y.r.e.y.y.y.y.y.t.t.t.t.y.e.>.[  . . . . . . . . . . . . .' > : ^ : ^ : ^ : ^ - ~ ( ~ R Y ",
"    6.u.t.y.u.y.y.y.y.t.t.t.t.y.t.2... . . . . . . . . . . . . .3 ( : ^ / , , , : ( , ( ~ % T   ",
"      6.u.y.y.p.y.y.y.t.e.t.t.y.y.4.%. . . .[  .[  . . . . .[  .- , / / : : : / : / ~ ( ~ T     ",
"        6.y.y.y.y.y.y.t.t.t.t.t.y.z %.[ |  . . . . . . .[  ...' ; , : : : , : ^ : ^ > ~ T       ",
"        X 8.t.e.t.t.t.t.t.t.t.y.y.w.;. . .[  . . . . . .[ [  .` > : / : : ( ^ ~ ; ^ ( +         ",
"          X 0.e.t.t.y.t.t.t.t.e.p.t.1. . .[  .[ [  . . . . . .- ^ , , / : ! , ^ ~ ~ R           ",
"            6.0.t.t.y.t.t.t.e.e.y.p.4... . . . . .[  . . .[ ' - ^ , / : : , 2 ~ ( R             ",
"              7.y.t.y.t.t.t.t.y.q.y.z %. . .[  .[ [  .[  . .` ^ ; , : / : > 2 * R Y             ",
"                8.y.t.y.y.y.t.y.y.y.q.w [  ...[  .|  . .[  .- ^ : , ( , ^ - > * T               ",
"                X 8.t.e.y.y.t.t.e.y.q.s [  ...[  . . . . .0 $ : ^ , ( , ( 2 & T                 ",
"                  6.0.t.e.e.t.y.w.t.u.3.....[  . . . . . .` ; : / 2 ^ > ( - T                   ",
"                    6.u.y.e.y.y.t.i.t.z %... .[  . . . . .3 , ~ / , / ^ Q T                     ",
"                      6.u.t.y.y.t.y.r.q.w ..[ .. . . . .] * ( ~ ^ ; 2 > +                       ",
"                        7.y.u.t.t.t.t.t.u  .X.|  . . . .` * ^ : ^ > ~ R                         ",
"                        X 9.e.t.t.t.t.t.3.[  .[ |  .[  .3 > / , ^ > R T                         ",
"                          X 9.t.t.t.t.y.z %. ...[  .[ ] - 2 ( : ^ = T                           ",
"                            6.y.t.t.t.t.q.*.....[  .[ ' ; : ^ / ~ T                             ",
"                              5.u.e.t.y.w.y ..[ ..[ [ ` ( , Q ( +                               ",
"                                7.t.r.i.e.2. . . .[  .( ; ^ ( R                                 ",
"                                X 8.y.u.t.4.}  . .[ ' - ; 2 E T                                 ",
"                                  7.0.y.y.z &.[  .[ ` , ^ W T                                   ",
"                                    7.y.y.y.>.[  ...) , = T                                     ",
"                                      8.y.y.1.[ { ' - % T                                       ",
"                                        9.e.4.[ ..` > +                                         ",
"                                          x z %.[ - R                                           ",
"                                          6.0.;.0 +                                             ",
"                                            6.:.O.T                                             ",
"                                              :.T                                               "
};
