/* XPM */
static char *_b1d476dc93c4b33b52adb2169e5640aaxbrgIiijIM7XimY_2[] = {
/* columns rows colors chars-per-pixel */
"48 39 256 2 ",
"   c #1F93F0",
".  c None",
"X  c #8097B6",
"o  c #518DCC",
"O  c #3684D5",
"+  c #217EDD",
"@  c #137AE2",
"#  c #0977E5",
"$  c #0575E6",
"%  c #0474E6",
"&  c #0374E6",
"*  c #0275E7",
"=  c #0275E8",
"-  c #0275E9",
";  c #0175E9",
":  c #0074EA",
">  c #0175EA",
",  c #0175EB",
"<  c #0174EC",
"1  c #0075EC",
"2  c #0275EC",
"3  c #097DED",
"4  c #188DF2",
"5  c #1B91F2",
"6  c #1D94F3",
"7  c #1E95F4",
"8  c #1F95F4",
"9  c #1F93F3",
"0  c #2192F1",
"q  c #2D97EB",
"w  c #42A1ED",
"e  c #4BA5EE",
"r  c #50A8EF",
"t  c #52A9EF",
"y  c #54AAF1",
"u  c #57ADF2",
"i  c #5AB0F6",
"p  c #5CB2F8",
"a  c #5EB2F8",
"s  c #63B1F2",
"d  c #67B4F5",
"f  c #71B8F5",
"g  c #78BCF6",
"h  c #7BBEF6",
"j  c #81C1F7",
"k  c #86C3F7",
"l  c #90CAFB",
"z  c #9BC9F3",
"x  c #A4CDF2",
"c  c #A8D4FA",
"v  c #AAD4F9",
"b  c #ABD2F7",
"n  c #ACD2F6",
"m  c #ACD1F5",
"M  c #B0D1F2",
"N  c #B0D2F2",
"B  c #AFD1F3",
"V  c #AED2F5",
"C  c #AED3F7",
"Z  c #B1D5F8",
"A  c #BCDBF8",
"S  c #C1DCF7",
"D  c #C5DEF6",
"F  c #C9DFF6",
"G  c #CBE0F5",
"H  c #D3E5F7",
"J  c #E6F1FA",
"K  c #F2F8FC",
"L  c #F7FAFD",
"P  c #FBFDFE",
"I  c #F9FCFE",
"U  c #1C74CE",
"Y  c #1370CE",
"T  c #0D71D4",
"R  c #0775E2",
"E  c #0475E2",
"W  c #0273E3",
"Q  c #0073E5",
"!  c #0074E6",
"~  c #0074E8",
"^  c #0174EA",
"/  c #0174EB",
"(  c #0275EB",
")  c #0477EC",
"_  c #077BED",
"`  c #1186EF",
"'  c #198FF1",
"]  c #1D93F1",
"[  c #1D95F1",
"{  c #1E95F0",
"}  c #1E96F1",
"|  c #1F96F3",
" . c #1E95F2",
".. c #1F94F0",
"X. c #2093EE",
"o. c #2491E9",
"O. c #2591E8",
"+. c #2592E8",
"@. c #2692E9",
"#. c #2793EC",
"$. c #2894EE",
"%. c #2B96EF",
"&. c #3399EC",
"*. c #389BEC",
"=. c #3D9DEB",
"-. c #44A0EC",
";. c #4AA4EE",
":. c #53A6EB",
">. c #52A8F0",
",. c #58AFF7",
"<. c #65B2F5",
"1. c #6EB4F4",
"2. c #75B7F4",
"3. c #7FBBF6",
"4. c #8BBEF2",
"5. c #98BFE9",
"6. c #9DBFE6",
"7. c #9EC1E7",
"8. c #A2C7EE",
"9. c #A4C9F0",
"0. c #A5CBF2",
"q. c #A5CFF7",
"w. c #A5CFF8",
"e. c #A6CFF8",
"r. c #A7CFF9",
"t. c #A8CFF8",
"y. c #A8CFF6",
"u. c #A8CFF5",
"i. c #A8D0F5",
"p. c #A9D0F5",
"a. c #AAD0F5",
"s. c #AAD1F4",
"d. c #ACD3F7",
"f. c #B4D6F6",
"g. c #BBD9F7",
"h. c #C2DCF7",
"j. c #C5DDF8",
"k. c #C9DFF8",
"l. c #CBE0F8",
"z. c #D0E2F7",
"x. c #D7E8FA",
"c. c #DEECFB",
"v. c #E9F4FD",
"b. c #F2F9FD",
"n. c #F6FBFD",
"m. c #FBFCFD",
"M. c #F9FCFD",
"N. c #6895BF",
"B. c #4B8DC8",
"V. c #3588D3",
"C. c #2284DD",
"Z. c #137CE0",
"A. c #0F78E1",
"S. c #0B77E2",
"D. c #0676E4",
"F. c #0575E4",
"G. c #0574E3",
"H. c #0474E4",
"J. c #0272E5",
"K. c #0172E6",
"L. c #0071E7",
"P. c #0172E8",
"I. c #0072E8",
"U. c #0073EA",
"Y. c #0376E9",
"T. c #0679EA",
"R. c #0D81EC",
"E. c #158AEE",
"W. c #198EF0",
"Q. c #1B91F0",
"!. c #1D92F1",
"~. c #1D92F0",
"^. c #1E91F0",
"/. c #1F92F0",
"(. c #2A98F1",
"). c #359BEF",
"_. c #3D9DEE",
"`. c #419EEE",
"'. c #45A0EE",
"]. c #4AA2EF",
"[. c #4EA4F0",
"{. c #50A6F1",
"}. c #52A8F2",
"|. c #54ADF9",
" X c #58AEF6",
".X c #5CAEF4",
"XX c #60AFF4",
"oX c #73B4EE",
"OX c #87B5E4",
"+X c #95B8E0",
"@X c #9CBBE1",
"#X c #A0C1E6",
"$X c #A2C2E8",
"%X c #A4C5EA",
"&X c #A5C8EE",
"*X c #A5CAF0",
"=X c #A4CBF1",
"-X c #A4CBF2",
";X c #A3CCF3",
":X c #A3CEF5",
">X c #A3CEF6",
",X c #A3CEF8",
"<X c #A4CFF7",
"1X c #A4CFF6",
"2X c #A5CFF5",
"3X c #A6D0F5",
"4X c #ABD3F6",
"5X c #B4D8F8",
"6X c #BADCFB",
"7X c #BEDFFC",
"8X c #C0E0FC",
"9X c #C4E2FC",
"0X c #CAE1F8",
"qX c #CDE4F9",
"wX c #D1E6F9",
"eX c #E0EFFB",
"rX c #E5F2FC",
"tX c #EBF6FD",
"yX c #F4FBFE",
"uX c #F0FAFE",
"iX c black",
"pX c black",
"aX c black",
"sX c black",
"dX c black",
"fX c black",
"gX c black",
"hX c black",
"jX c black",
"kX c black",
"lX c black",
"zX c black",
"xX c black",
"cX c black",
"vX c black",
"bX c black",
"nX c black",
"mX c black",
"MX c black",
"NX c black",
"BX c black",
"VX c black",
"CX c black",
"ZX c black",
"AX c black",
"SX c black",
"DX c black",
"FX c black",
"GX c black",
"HX c black",
"JX c black",
"KX c black",
"LX c black",
"PX c black",
"IX c black",
"UX c black",
/* pixels */
". . . . . . . . 4XeX5Xi.i.i.2X-X;X-X2Xi.=X*X*X%X%X$XOX'.'.'.`._.C.N.N.B.V.N.N.N.. . . . . . . . ",
". . . . . . . &XqXyXeX4X3Xi.i.i.4Xi.i.i.i.i.i.i.5X9Xi. X X X X.X X X X X X X XoX&X+X. . . . . . ",
". . . . . . 4X0XuXyXyXwX4Xi.i.i.i.i.i.i.i.i.i.4X9X0X0X;X X.X|. X X X X X X X.X;X:X=X. . . . . . ",
". . . . . %X8XuXyXyXyXyX0X3Xi.i.i.i.i.i.i.3X4X8X0X0X0X8XoX X X|. X X X X X XoX1X1X1X%X. . . . . ",
". . . . 0X8XtXyXyXyXyXyXuX5Xi.i.i.i.i.i.i.i.6X0X0X0X0X0X7XoX.X X X X X X XoX>X2X<X1X2X@X. . . . ",
". . . . 0XrXyXyXyXyXyXyXyXtX4Xi.4Xi.i.i.i.5X0X0X0X0X0X0X0X5XXX X X X X XXX;X<X<X<X1X1X:X+X. . . ",
". . . wXeXyXyXyXyXyXyXyXyXyXeX4Xi.i.i.i.5X0X0X0X0X0X0X0X0X0X>X.X X X X.X;X1X1X1X1X1X<X,X-X+X. . ",
". . eXeXyXyXyXyXyXyXyXyXyXyXyXwXi.i.i.5X0X0X0X0X0X0X0X0X0X0X0X;X X X|.oX:X1X1X1X1X<X,X<X2X*X. . ",
". wXtXyXyXyXyXyXyXyXyXyXyXyXyXyX0Xi.4X9X0X0X0X0X0X0X0X0X0X0X0X8XoX XXX;X1X<X1X1X1X1X<X2X2X,X%X. ",
"0XrXtXrXrXrXrXtXtXtXtXtXtXtXtXtXrX5X5X6X7X8X8X8X8X9X9X9X9X9X0X0X6XoX;X>X<X<X>X<X1X<X<X<X<X<X>X$X",
". 5X6X4Xi.1X3Xi.i.i.3Xi.i.4X4X4X4X;X_._.`.'.[.[.].].].[.[.[.[.XXXX].'.'.'.'.'.'.'.'.'.[.[.oXoX].",
". . 5Xi.<X<X<X<X<X<X<X<X<X<X<X1X,X;X  !.      !.!.  !.!.!.!.!.  /.R.P.P.L.L.P.P.L.P.: P.Y.P.K.A.",
". . 4X4X<X1X1X<X<X<X<X1X<X<X<X1X<X,X`.!.    ~.    !.    !.!.~./.^.Y.^ U.U.U.: U.U.: K.P.P.H.D.. ",
". . . &Xi.2X<X<X<X<X<X<X<X<X<X<X1X<X[.!.                  ~.~.!.E.P.U.P.P.I.P.I.P.U.P.P.P.D.. . ",
". . . . i.2X<X<X<X1X<X<X<X<X<X<X1X1XoX!.!.    !.      !.    /.!.T.U.U.P.P.U.U.I.U.P.K.P.D.. . . ",
". . . . . *X2X,X1X1X,X<X<X<X<X1X<X2XoX/.!.            !.~.!.~.^.Y.I.U.I.I.P.U.P.: P.P.H.. . . . ",
". . . . . %X=X>X<X1X<X<X<X<X<X>X<X>X;X    !.          !.!.!./.E.P.I.U.U.I.P.Y.: I.P.K.. . . . . ",
". . . . . . &X=X1X1X<X1X<X<X<X1X<X<X<X_.!.!.!.!.    !.!.!.~.!.R.I.U.U.U.U.: U.L.P.K.S.. . . . . ",
". . . . . . . $X;X1X<X<X1X<X<X<X<X<X>XXX!.!.!.  !.!.!.  !.  ^.Y.U.I.I.P.I.P.^ J.K.A.. . . . . . ",
". . . . . . . . %X;X<X<X1X<X,X<X<X<X>XoX!.~.!.!.  !.!.  !.  E.P.U.I.U.P.U.Y.P.K.D.. . . . . . . ",
". . . . . . . . . &X>X,X<X<X<X<X<X<X1X;X  ~.~.!.  !.  !.!.!.T.U.: U.U.U.U.P.K.F.. . . . . . . . ",
". . . . . . . . . #X%X>X<X<X<X<X<X<X<X>X)./.!.!.!.!.!.!./.Q.P.U.: U.U.^ ^ P.G.. . . . . . . . . ",
". . . . . . . . . . @X&X1X,X<X<X<X<X<X,X[.!.!.!.!.  !.  !.E.P.U.U.I.: U.P.F.. . . . . . . . . . ",
". . . . . . . . . . . %X-X,X<X<X<X<X<X1XXX!.!.!.  !.!.  !.T.^ I.U.P.U.P.H.. . . . . . . . . . . ",
". . . . . . . . . . . . %X;X2X<X<X<X<X<XoX/.!.!.!.!.!.  ^.K.^ U.I.U.P.K.S.. . . . . . . . . . . ",
". . . . . . . . . . . . . $X1X<X<X<X<X<X;X  ~.!.!.!.    E.P.^ U.P.P.P.S.. . . . . . . . . . . . ",
". . . . . . . . . . . . . +X&X1X1X<X<X<X:X).~.~.  /./.!.T.U.U.U.U.P.D.. . . . . . . . . . . . . ",
". . . . . . . . . . . . . . @X-X1X<X<X<X1X{./.!.!.  !.^.K.: U.I.U.F.. . . . . . . . . . . . . . ",
". . . . . . . . . . . . . . . @X;X<X<X1X<XoX!./.~.!.!.E.P.: L.P.H.. . . . . . . . . . . . . . . ",
". . . . . . . . . . . . . . . . #X<X,X2X>XoX  !.!.!.!.T.L.U.P.K.. . . . . . . . . . . . . . . . ",
". . . . . . . . . . . . . . . . . *X>X2X<X;X(.!.!.~.Q.Y.^ U.H.G.. . . . . . . . . . . . . . . . ",
". . . . . . . . . . . . . . . . . +X&X2X<X,X].!.~.!.E.P.U.F.S.. . . . . . . . . . . . . . . . . ",
". . . . . . . . . . . . . . . . . . @X:X<X1X}./.!.!.R.U.L.G.. . . . . . . . . . . . . . . . . . ",
". . . . . . . . . . . . . . . . . . . *X:X<XoX^.!.W.P.K.G.. . . . . . . . . . . . . . . . . . . ",
". . . . . . . . . . . . . . . . . . . . *X>X;X  !.E.U.F.. . . . . . . . . . . . . . . . . . . . ",
". . . . . . . . . . . . . . . . . . . . . =X;X).!.T.F.. . . . . . . . . . . . . . . . . . . . . ",
". . . . . . . . . . . . . . . . . . . . . @X;X[.W.D.. . . . . . . . . . . . . . . . . . . . . . ",
". . . . . . . . . . . . . . . . . . . . . . &X{.R.S.. . . . . . . . . . . . . . . . . . . . . . ",
". . . . . . . . . . . . . . . . . . . . . . . ].Z.. . . . . . . . . . . . . . . . . . . . . . . "
};
