/* XPM */
static char *_b1d476dc93c4b33b52adb2169e5640aaxbrgIiijIM7XimY_3[] = {
/* columns rows colors chars-per-pixel */
"48 39 128 2 ",
"   c #969CA3",
".  c #688DB7",
"X  c #3C7BBD",
"o  c #0B64C5",
"O  c #0866CA",
"+  c #076AD3",
"@  c #066ED9",
"#  c #0371E3",
"$  c #0171E5",
"%  c #0071E6",
"&  c #0071E7",
"*  c #0072E9",
"=  c #0073E9",
"-  c #0073E8",
";  c #0173E7",
":  c #0174E7",
">  c #0376E7",
",  c #0578E7",
"<  c #077AE7",
"1  c #097DE7",
"2  c #0A7EE8",
"3  c #0E82EA",
"4  c #1185EB",
"5  c #1387EB",
"6  c #178CEE",
"7  c #1A8FF0",
"8  c #1C91F1",
"9  c #1C92F1",
"0  c #1D91F1",
"q  c #1F91F2",
"w  c #1E91EE",
"e  c #2F94E8",
"r  c #3697E8",
"t  c #409EEB",
"y  c #49A3ED",
"u  c #4DA6EF",
"i  c #50A8F0",
"p  c #53ABF3",
"a  c #56AEF5",
"s  c #58AEF5",
"d  c #60AFF2",
"f  c #66B1F2",
"g  c #6EB9F9",
"h  c #79BEFA",
"j  c #82BDF3",
"k  c #95BEE7",
"l  c #98C0E8",
"z  c #9AC2EA",
"x  c #9EC9F3",
"c  c #9FCBF6",
"v  c #A0CCF7",
"b  c #9FCCF7",
"n  c #A4CDF8",
"m  c #A4CDF7",
"M  c #A2CDF6",
"N  c #A3CCF5",
"B  c #A3CAF2",
"V  c #A4C8ED",
"C  c #A6C6EA",
"Z  c #A8C8EB",
"A  c #A9C9EC",
"S  c #ABCAED",
"D  c #ADCCEF",
"F  c #AFCEF0",
"G  c #AFD0F2",
"H  c #B4D2F4",
"J  c #B8D4F3",
"K  c #BBD6F4",
"L  c #BFD9F4",
"P  c #C4DCF5",
"I  c #C7DFF6",
"U  c #C9DFF6",
"Y  c #CCE1F6",
"T  c #D2E5F8",
"R  c #D8E9F9",
"E  c #DDECFA",
"W  c #E1EFFB",
"Q  c #EAF3FC",
"!  c #F1F6FD",
"~  c #F8FAFC",
"^  c None",
"/  c black",
"(  c black",
")  c black",
"_  c black",
"`  c black",
"'  c black",
"]  c black",
"[  c black",
"{  c black",
"}  c black",
"|  c black",
" . c black",
".. c black",
"X. c black",
"o. c black",
"O. c black",
"+. c black",
"@. c black",
"#. c black",
"$. c black",
"%. c black",
"&. c black",
"*. c black",
"=. c black",
"-. c black",
";. c black",
":. c black",
">. c black",
",. c black",
"<. c black",
"1. c black",
"2. c black",
"3. c black",
"4. c black",
"5. c black",
"6. c black",
"7. c black",
"8. c black",
"9. c black",
"0. c black",
"q. c black",
"w. c black",
"e. c black",
"r. c black",
"t. c black",
"y. c black",
"u. c black",
/* pixels */
"^ ^ ^ ^ ^ ^ ^ ^ S J R A x k k k k k B B V V B V x k k r e r i y t . . . . X X X ^ ^ ^ ^ ^ ^ ^ ^ ",
"^ ^ ^ ^ ^ ^ ^ Z J W ~ T N m m n n n n m m m m n N K P j a a a a s s s s s s a p j k ^ ^ ^ ^ ^ ^ ",
"^ ^ ^ ^ ^ ^ J J E ~ ~ ~ P m m m m m m m m n m m J I Y L g a a s a a a a a a a h c z ^ ^ ^ ^ ^ ^ ",
"^ ^ ^ ^ ^ J L T ~ ~ ~ ~ ! H m m m m m m m n m G U U Y Y H d a a a a a a a a f c N c l ^ ^ ^ ^ ^ ",
"^ ^ ^ ^ P T Y ~ ~ ~ ~ ~ ~ Q G m m m m m n m G P Y U U U Y N s a a a a a a s j c b c c k ^ ^ ^ ^ ",
"^ ^ ^ ^ E Y ! ~ ~ ~ ~ ~ ~ ~ R m m m m m n G P Y U Y Y U Y I x a a a a a a j b c c b c c k ^ ^ ^ ",
"^ ^   E T ! ~ ~ ~ ~ ~ ~ ~ ~ ~ Y N m m m m L Y U U U Y Y U Y I j a a a a f c b v b b b b x k ^ ^ ",
"^   R Q ! ~ ~ ~ ~ ~ ~ ~ ~ ~ ~ ! L M N N K U U U U U U U U U U L f a a s j v v v v b b b c z ^ ^ ",
"^ Y ~ ! ~ ~ ~ ~ ~ ~ ~ ~ ~ ~ ~ ~ Q H N K U Y Y Y Y Y Y Y Y Y U U H d a j c v v v b b c c c c l ^ ",
"C W Q Q W E E W W W W Q Q Q Q ! ! R G K L L L P P P I I I I I I I x f c b c c c v v v v v v c k ",
"^ F U Y G N M M M M M M N N m N m m d t t t y u u u i i i d f f f f y u u y u d i f f f f j j f ",
"^ ^ S Y H b b v v b b b v b b c b v f 9 9 9 9 9 9 9 9 9 9 9 8 0 0 7 > ; % ; - - ; - ; ; # $ # + ",
"^ ^ ^ J H c b b b b b v b b b b c c j w 9 9 9 9 9 9 0 9 9 9 9 9 8 5 ; : ; ; % ; & ; ; - ; ; @ ^ ",
"^ ^ ^ k G N b b b b b v v b v b c c j w 9 9 9 9 9 9 9 9 9 9 9 9 0 2 - - - - - - - - ; = ; + ^ ^ ",
"^ ^ ^ ^ k m v b b b b b b v v c c v x w 9 9 9 9 9 9 9 9 9 9 9 0 7 : - - - - ; ; - - - % # ^ ^ ^ ",
"^ ^ ^ ^ ^ C m c c v b c c c c b N c N u 7 9 9 0 9 9 9 9 9 9 9 0 4 & - ; - - $ - & = - # + ^ ^ ^ ",
"^ ^ ^ ^ ^ ^ Z M b c b c c c c c c c N f 9 0 9 9 9 9 9 9 9 9 9 0 < & - ; - ; - = % - # + ^ ^ ^ ^ ",
"^ ^ ^ ^ ^ ^ z D c c c c c c c c v b c j w q 9 9 9 9 9 9 9 9 0 6 ; ; ; ; ; - = ; - # + ^ ^ ^ ^ ^ ",
"^ ^ ^ ^ ^ ^ ^ l N v c c c c c b v b b j w 0 9 q 9 9 9 9 9 9 q 3 - - ; ; ; ; - ; $ + ^ ^ ^ ^ ^ ^ ",
"^ ^ ^ ^ ^ ^ ^ ^ C N v v b c c b b v b c w 9 q 9 9 9 9 9 9 9 0 , - ; & - - = - ; @ ^ ^ ^ ^ ^ ^ ^ ",
"^ ^ ^ ^ ^ ^ ^ ^ ^ C N v b v b b b b v b y 8 q 9 9 9 9 9 9 8 6 : - - - - - - - @ ^ ^ ^ ^ ^ ^ ^ ^ ",
"^ ^ ^ ^ ^ ^ ^ ^ ^ ^ B c v v b b b b b b d 0 0 9 9 9 9 9 9 0 3 ; - & : ; ; : # ^ ^ ^ ^ ^ ^ ^ ^ ^ ",
"^ ^ ^ ^ ^ ^ ^ ^ ^ ^ k V v v c b b b b v j 7 9 9 9 9 9 9 0 7 > - - ; - ; ; # + ^ ^ ^ ^ ^ ^ ^ ^ ^ ",
"^ ^ ^ ^ ^ ^ ^ ^ ^ ^ ^ k B b c b b b b c j w 9 9 9 9 9 9 0 5 ; * ; ; - - # + ^ ^ ^ ^ ^ ^ ^ ^ ^ ^ ",
"^ ^ ^ ^ ^ ^ ^ ^ ^ ^ ^ ^ l x c c c v v v x w 9 9 9 9 9 9 0 2 ; ; - - ; # + ^ ^ ^ ^ ^ ^ ^ ^ ^ ^ ^ ",
"^ ^ ^ ^ ^ ^ ^ ^ ^ ^ ^ ^ ^ l c c b b b v c y 9 9 9 9 9 9 7 : ; ; ; & ; + ^ ^ ^ ^ ^ ^ ^ ^ ^ ^ ^ ^ ",
"^ ^ ^ ^ ^ ^ ^ ^ ^ ^ ^ ^ ^ ^ z v b v b v b i 9 9 9 9 0 q 4 ; - ; - ; @ ^ ^ ^ ^ ^ ^ ^ ^ ^ ^ ^ ^ ^ ",
"^ ^ ^ ^ ^ ^ ^ ^ ^ ^ ^ ^ ^ ^ l V b b c b v f 9 0 9 9 9 0 < - - ; - @ ^ ^ ^ ^ ^ ^ ^ ^ ^ ^ ^ ^ ^ ^ ",
"^ ^ ^ ^ ^ ^ ^ ^ ^ ^ ^ ^ ^ ^ ^ k x b c b c j 0 9 9 9 9 7 % - - - @ ^ ^ ^ ^ ^ ^ ^ ^ ^ ^ ^ ^ ^ ^ ^ ",
"^ ^ ^ ^ ^ ^ ^ ^ ^ ^ ^ ^ ^ ^ ^ ^ k c v c c j w 9 9 0 8 4 % - $ @ o ^ ^ ^ ^ ^ ^ ^ ^ ^ ^ ^ ^ ^ ^ ^ ",
"^ ^ ^ ^ ^ ^ ^ ^ ^ ^ ^ ^ ^ ^ ^ ^ ^ l c c c c t 0 9 9 0 , ; - # O ^ ^ ^ ^ ^ ^ ^ ^ ^ ^ ^ ^ ^ ^ ^ ^ ",
"^ ^ ^ ^ ^ ^ ^ ^ ^ ^ ^ ^ ^ ^ ^ ^ ^ k z c v b u 0 9 0 6 ; - # O ^ ^ ^ ^ ^ ^ ^ ^ ^ ^ ^ ^ ^ ^ ^ ^ ^ ",
"^ ^ ^ ^ ^ ^ ^ ^ ^ ^ ^ ^ ^ ^ ^ ^ ^ ^ k x c v f 0 9 7 3 - % + ^ ^ ^ ^ ^ ^ ^ ^ ^ ^ ^ ^ ^ ^ ^ ^ ^ ^ ",
"^ ^ ^ ^ ^ ^ ^ ^ ^ ^ ^ ^ ^ ^ ^ ^ ^ ^ ^ z c c j 0 0 7 > # + ^ ^ ^ ^ ^ ^ ^ ^ ^ ^ ^ ^ ^ ^ ^ ^ ^ ^ ^ ",
"^ ^ ^ ^ ^ ^ ^ ^ ^ ^ ^ ^ ^ ^ ^ ^ ^ ^ ^ ^ V c j w 0 5 ; @ ^ ^ ^ ^ ^ ^ ^ ^ ^ ^ ^ ^ ^ ^ ^ ^ ^ ^ ^ ^ ",
"^ ^ ^ ^ ^ ^ ^ ^ ^ ^ ^ ^ ^ ^ ^ ^ ^ ^ ^ ^ ^ V c w 0 2 @ ^ ^ ^ ^ ^ ^ ^ ^ ^ ^ ^ ^ ^ ^ ^ ^ ^ ^ ^ ^ ^ ",
"^ ^ ^ ^ ^ ^ ^ ^ ^ ^ ^ ^ ^ ^ ^ ^ ^ ^ ^ ^ ^ k x u 7 @ ^ ^ ^ ^ ^ ^ ^ ^ ^ ^ ^ ^ ^ ^ ^ ^ ^ ^ ^ ^ ^ ^ ",
"^ ^ ^ ^ ^ ^ ^ ^ ^ ^ ^ ^ ^ ^ ^ ^ ^ ^ ^ ^ ^ ^ k d 1 O ^ ^ ^ ^ ^ ^ ^ ^ ^ ^ ^ ^ ^ ^ ^ ^ ^ ^ ^ ^ ^ ^ ",
"^ ^ ^ ^ ^ ^ ^ ^ ^ ^ ^ ^ ^ ^ ^ ^ ^ ^ ^ ^ ^ ^ ^ y O ^ ^ ^ ^ ^ ^ ^ ^ ^ ^ ^ ^ ^ ^ ^ ^ ^ ^ ^ ^ ^ ^ ^ "
};
