/* XPM */
static char *_b1d476dc93c4b33b52adb2169e5640aaxbrgIiijIM7XimY_4[] = {
/* columns rows colors chars-per-pixel */
"48 39 128 2 ",
"   c #949AA1",
".  c #8B99A9",
"X  c #7C94B1",
"o  c #5E8AB7",
"O  c #4985C2",
"+  c #317BC9",
"@  c #1E73CD",
"#  c #0A6BD1",
"$  c #076AD2",
"%  c #056BD5",
"&  c #036CD8",
"*  c #026EDE",
"=  c #0170E3",
"-  c #0071E3",
";  c #0171E4",
":  c #0071E4",
">  c #0071E5",
",  c #0071E6",
"<  c #0173E7",
"1  c #0476E9",
"2  c #087AEB",
"3  c #0C7EEC",
"4  c #0E81EE",
"5  c #1387F0",
"6  c #178BF1",
"7  c #198DF2",
"8  c #1B90F3",
"9  c #1D90F2",
"0  c #1D90F1",
"q  c #1B90F0",
"w  c #1C90F0",
"e  c #1D8FED",
"r  c #3597EB",
"t  c #3A9AEB",
"y  c #429EED",
"u  c #4BA3EF",
"i  c #51A7F2",
"p  c #56AAF4",
"a  c #5DAFF6",
"s  c #6FBAFB",
"d  c #76BEFC",
"f  c #81C4FD",
"g  c #88C7FD",
"h  c #8EC9FC",
"j  c #94CAF9",
"k  c #98C9F5",
"l  c #98C7F0",
"z  c #99C3EC",
"x  c #99C0E7",
"c  c #9AC0E6",
"v  c #9AC2EA",
"b  c #9AC9F3",
"n  c #9ACBF5",
"m  c #9BCBF5",
"M  c #A2CDF5",
"N  c #A3CDF5",
"B  c #A4CDF5",
"V  c #A5CDF5",
"C  c #A7CDF3",
"Z  c #ABCEF4",
"A  c #AED0F4",
"S  c #B2D3F5",
"D  c #B3D5F6",
"F  c #B4D5F5",
"G  c #B6D5F2",
"H  c #B7D6F3",
"J  c #B9D8F6",
"K  c #BCD9F7",
"L  c #C0DCF8",
"P  c #C7DFF9",
"I  c #C9E0F8",
"U  c #CBE1F8",
"Y  c #CCE1F8",
"T  c #CEE4F9",
"R  c #D2E6FA",
"E  c #D9EBFC",
"W  c #DCEDFC",
"Q  c #E4F1FD",
"!  c #EEF7FE",
"~  c #EBF5FE",
"^  c None",
"/  c black",
"(  c black",
")  c black",
"_  c black",
"`  c black",
"'  c black",
"]  c black",
"[  c black",
"{  c black",
"}  c black",
"|  c black",
" . c black",
".. c black",
"X. c black",
"o. c black",
"O. c black",
"+. c black",
"@. c black",
"#. c black",
"$. c black",
"%. c black",
"&. c black",
"*. c black",
"=. c black",
"-. c black",
";. c black",
":. c black",
">. c black",
",. c black",
"<. c black",
"1. c black",
"2. c black",
"3. c black",
"4. c black",
"5. c black",
"6. c black",
"7. c black",
"8. c black",
"9. c black",
"0. c black",
"q. c black",
"w. c black",
"e. c black",
"r. c black",
"t. c black",
"y. c black",
"u. c black",
/* pixels */
"^ ^ ^ ^ ^ ^ ^ ^ C A I U C b b c c c c c C l b z c c c X t u t o O o O O + o ^ ^ ^ ^ ^ ^ ^ ^ ^ ^ ",
"^ ^ ^ ^ ^ ^ ^ C S L ~ ! L N B N N B B N N B B V B V L J a p p p p p p i i i i i a c ^ ^ ^ ^ ^ ^ ",
"^ ^ ^ ^ ^ ^ c H K Q ! ! Q F N N N B B B B B N N V J I I Z p p p p p p p p p p a j v X ^ ^ ^ ^ ^ ",
"^ ^ ^ ^ ^ R Y J Q ! ! ! ! W Z N N N B V B M M B J I I I I k p p p p p p p p p f n n x ^ ^ ^ ^ ^ ",
"^ ^ ^ ^ c W K W ! ! ! ! ! ! R C B M N V B N V D P U U U I P d p p p p p p p s n n n n c ^ ^ ^ ^ ",
"^ . ^ ^ W T E ! ! ! ! ! ! ! ~ L V N B B N B S P Y I U U I U L a p p p p p a j n n n n b c ^ ^ ^ ",
"^   . R Q E ! ! ! ! ! ! ! ! ! ~ J N N N B A P U U I U U U U U A a p p p p d n n m n n n l c ^ ^ ",
"^ . R ! ~ ! ! ! ! ! ! ! ! ! ! ! Q A B N Z L I U U U U I U U Y I m p p p a j n n n n n m n v ^ ^ ",
"^ Y ! ! ! ! ! ! ! ! ! ! ! ! ! ! ! E Z Z L U Y I U U U U U U I I P f p p h n m n n n n b k k x ^ ",
"c Q ~ Q ~ R R R R E E W W W Q Q Q Q L S K L L L L P P P P P I I I L s d m n m n n m n n n n m c ",
". G U E E A N b n m m m m m m m b M k y y y u u u i i p p a a a s s a i p i p a s s s d d d f z ",
"^ ^ c J R L m n n n n n n n n n n n k r 8 0 0 8 8 8 8 8 9 0 w 0 w 0 4 = = > , : = = * = = * > * ",
"^ ^ ^ C J K b n n n n n n n n n n n n u 8 8 0 0 8 8 8 8 9 0 8 8 8 0 1 , > > , , , > , , > > * ^ ",
"^ ^ ^ ^ A Z b m n n n n n n n n k b n a 9 8 9 w 8 8 8 8 9 9 8 8 8 6 > , , , , , , > > = , * $ ^ ",
"^ ^ ^ ^ c A M m n n n n n n n m k b m s w 9 8 9 8 8 8 8 8 8 8 9 0 3 , > > , , , , , , , = $ ^ ^ ",
"^ ^ ^ ^ ^ c A m k m n n n n n n n n n d w 9 9 8 8 8 8 8 0 8 8 0 9 < , , , ; > , > < , > & ^ ^ ^ ",
"^ ^ ^ ^ ^ ^ C Z m n n n n n n n n n n g w 9 9 8 8 8 8 8 0 8 9 0 5 > , , , , , > ; : - & ^ ^ ^ ^ ",
"^ ^ ^ ^ ^ ^ ^ C V n k n n n n n n n n j y 8 9 8 8 8 8 8 0 8 0 9 2 , < , , < > , < > & ^ ^ ^ ^ ^ ",
"^ ^ ^ ^ ^ ^ ^ c Z M n n n n n n n n n n u 8 9 9 8 8 8 8 8 8 q 6 , , < , , , > , = % ^ ^ ^ ^ ^ ^ ",
"^ ^ ^ ^ ^ ^ ^ ^ c A m n n m n n n n n n p 8 9 0 9 8 8 8 8 0 0 4 , , , , , , > , & ^ ^ ^ ^ ^ ^ ^ ",
"^ ^ ^ ^ ^ ^ ^ ^ ^ C V n j n n n n n n n a w 8 0 9 8 8 8 8 0 9 1 > , , , , < < * # ^ ^ ^ ^ ^ ^ ^ ",
"^ ^ ^ ^ ^ ^ ^ ^ ^ ^ C M k m m n n n n n d e 9 0 8 8 8 8 8 0 6 > , , , , , , = ^ ^ ^ ^ ^ ^ ^ ^ ^ ",
"^ ^ ^ ^ ^ ^ ^ ^ ^ ^ c C m n n n n n n n j e 9 w 8 8 8 8 8 9 3 , , , , , , = % ^ ^ ^ ^ ^ ^ ^ ^ ^ ",
"^ ^ ^ ^ ^ ^ ^ ^ ^ ^ ^ c C m n n n n n n k r 9 0 8 9 9 9 0 7 , , , , , , = % ^ ^ ^ ^ ^ ^ ^ ^ ^ ^ ",
"^ ^ ^ ^ ^ ^ ^ ^ ^ ^ ^ ^ c M n b m n n n k i 8 9 0 w q q q 4 , , , , ; ; & ^ ^ ^ ^ ^ ^ ^ ^ ^ ^ ^ ",
"^ ^ ^ ^ ^ ^ ^ ^ ^ ^ ^ ^ ^ c b n n n n m k p 9 8 q q q q 0 1 , , , > ; * ^ ^ ^ ^ ^ ^ ^ ^ ^ ^ ^ ^ ",
"^ ^ ^ ^ ^ ^ ^ ^ ^ ^ ^ ^ ^ ^ z b n n m m k s 0 8 q q w 0 6 > , , , ; & ^ ^ ^ ^ ^ ^ ^ ^ ^ ^ ^ ^ ^ ",
"^ ^ ^ ^ ^ ^ ^ ^ ^ ^ ^ ^ ^ ^ c z m n m n k d w 9 q q 0 0 3 , , > > * ^ ^ ^ ^ ^ ^ ^ ^ ^ ^ ^ ^ ^ ^ ",
"^ ^ ^ ^ ^ ^ ^ ^ ^ ^ ^ ^ ^ ^ ^ c l n m n k g w 9 9 0 w 9 > , > , * ^ ^ ^ ^ ^ ^ ^ ^ ^ ^ ^ ^ ^ ^ ^ ",
"^ ^ ^ ^ ^ ^ ^ ^ ^ ^ ^ ^ ^ ^ ^ ^ c b n m k j y 9 9 9 0 5 ; , ; * # ^ ^ ^ ^ ^ ^ ^ ^ ^ ^ ^ ^ ^ ^ ^ ",
"^ ^ ^ ^ ^ ^ ^ ^ ^ ^ ^ ^ ^ ^ ^ ^ ^ v k b n j u 0 0 9 9 1 , < = $ ^ ^ ^ ^ ^ ^ ^ ^ ^ ^ ^ ^ ^ ^ ^ ^ ",
"^ ^ ^ ^ ^ ^ ^ ^ ^ ^ ^ ^ ^ ^ ^ ^ ^ c x k n n p 9 0 8 7 > > - % ^ ^ ^ ^ ^ ^ ^ ^ ^ ^ ^ ^ ^ ^ ^ ^ ^ ",
"^ ^ ^ ^ ^ ^ ^ ^ ^ ^ ^ ^ ^ ^ ^ ^ ^ ^ c b n n a 0 0 0 3 > ; @ ^ ^ ^ ^ ^ ^ ^ ^ ^ ^ ^ ^ ^ ^ ^ ^ ^ ^ ",
"^ ^ ^ ^ ^ ^ ^ ^ ^ ^ ^ ^ ^ ^ ^ ^ ^ ^ ^ c b n d 0 9 0 1 = & ^ ^ ^ ^ ^ ^ ^ ^ ^ ^ ^ ^ ^ ^ ^ ^ ^ ^ ^ ",
"^ ^ ^ ^ ^ ^ ^ ^ ^ ^ ^ ^ ^ ^ ^ ^ ^ ^ ^ ^ c n h w 9 5 , & ^ ^ ^ ^ ^ ^ ^ ^ ^ ^ ^ ^ ^ ^ ^ ^ ^ ^ ^ ^ ",
"^ ^ ^ ^ ^ ^ ^ ^ ^ ^ ^ ^ ^ ^ ^ ^ ^ ^ ^ ^ ^ z k y 0 2 * ^ ^ ^ ^ ^ ^ ^ ^ ^ ^ ^ ^ ^ ^ ^ ^ ^ ^ ^ ^ ^ ",
"^ ^ ^ ^ ^ ^ ^ ^ ^ ^ ^ ^ ^ ^ ^ ^ ^ ^ ^ ^ ^ c l u q * ^ ^ ^ ^ ^ ^ ^ ^ ^ ^ ^ ^ ^ ^ ^ ^ ^ ^ ^ ^ ^ ^ ",
"^ ^ ^ ^ ^ ^ ^ ^ ^ ^ ^ ^ ^ ^ ^ ^ ^ ^ ^ ^ ^ ^ c p 2 % ^ ^ ^ ^ ^ ^ ^ ^ ^ ^ ^ ^ ^ ^ ^ ^ ^ ^ ^ ^ ^ ^ ",
"^ ^ ^ ^ ^ ^ ^ ^ ^ ^ ^ ^ ^ ^ ^ ^ ^ ^ ^ ^ ^ ^ ^ t % ^ ^ ^ ^ ^ ^ ^ ^ ^ ^ ^ ^ ^ ^ ^ ^ ^ ^ ^ ^ ^ ^ ^ "
};
