/* XPM */
static char *_b1d476dc93c4b33b52adb2169e5640aaxbrgIiijIM7XimY_5[] = {
/* columns rows colors chars-per-pixel */
"48 39 128 2 ",
"   c gray40",
".  c gray42",
"X  c #8194A4",
"o  c #7A95AF",
"O  c #7199BE",
"+  c #6C9BC6",
"@  c #639BCC",
"#  c #4698DB",
"$  c #2292EF",
"%  c #2091F0",
"&  c #1F91F1",
"*  c #1F91F2",
"=  c #1C91F3",
"-  c #1B91F4",
";  c #1B91F3",
":  c #1B91F2",
">  c #1A91F3",
",  c #1A90F4",
"<  c #1A8FF3",
"1  c #188DF2",
"2  c #188CF1",
"3  c #158AF0",
"4  c #1286EE",
"5  c #0E80EB",
"6  c #0A7CE9",
"7  c #0475E6",
"8  c #0071E4",
"9  c #0071E3",
"0  c #0170E2",
"q  c #026FE0",
"w  c #036FDD",
"e  c #056DDA",
"r  c #066DD9",
"t  c #076ED8",
"y  c #0970D9",
"u  c #1177DC",
"i  c #197FE1",
"p  c #2086E5",
"a  c #2F94ED",
"s  c #41A0F2",
"d  c #53ABF6",
"f  c #64B5F9",
"g  c #74BDFB",
"h  c #7DC1FB",
"j  c #84C4FC",
"k  c #8CC7FC",
"l  c #90C8FB",
"z  c #93CAF9",
"x  c #94CAF8",
"c  c #96C9F8",
"v  c #97CAF7",
"b  c #9ACBF7",
"n  c #A1CEF7",
"m  c #A3CEF7",
"M  c #A6CFF7",
"N  c #A8CFF6",
"B  c #A4CFF6",
"V  c #A0CBF6",
"C  c #9BC9F5",
"Z  c #99C8F4",
"A  c #97C8F5",
"S  c #99C3ED",
"D  c #9ABFE7",
"F  c #9CBDE3",
"G  c #9EBCE0",
"H  c #A0BDE0",
"J  c #A5BFE0",
"K  c #ACC2E1",
"L  c #B5C7E4",
"P  c #B9C9E3",
"I  c #B8CDE7",
"U  c #B9D1EB",
"Y  c #BDD4EE",
"T  c #BFD8F1",
"R  c #BFDBF4",
"E  c #C5DDF6",
"W  c #C7DEF6",
"Q  c #CBE0F5",
"!  c #D2E4F6",
"~  c #D5E7F7",
"^  c #E0EDFA",
"/  c #EBF5FC",
"(  c #F3FBFE",
")  c None",
"_  c black",
"`  c black",
"'  c black",
"]  c black",
"[  c black",
"{  c black",
"}  c black",
"|  c black",
" . c black",
".. c black",
"X. c black",
"o. c black",
"O. c black",
"+. c black",
"@. c black",
"#. c black",
"$. c black",
"%. c black",
"&. c black",
"*. c black",
"=. c black",
"-. c black",
";. c black",
":. c black",
">. c black",
",. c black",
"<. c black",
"1. c black",
"2. c black",
"3. c black",
"4. c black",
"5. c black",
"6. c black",
"7. c black",
"8. c black",
"9. c black",
"0. c black",
"q. c black",
"w. c black",
"e. c black",
"r. c black",
"t. c black",
"y. c black",
"u. c black",
/* pixels */
") ) ) ) ) ) ) L L K Q I V C Z D F G G G V S S F G + o + @ @ @ # o   ) ) ) ) ) ) ) ) ) ) ) ) ) ) ",
") ) ) ) ) ) P Q T ~ ( / N n m m m m n n m m m m B N E V d d d d d d s s s s s d G ) ) ) ) ) ) ) ",
") ) ) ) ) J Q U ^ ( ( ( ^ N n m m m B m m m m n N R W E h d d d d d d d d d d h S O ) ) ) ) ) ) ",
") ) ) ) P ^ Y W ( ( ( ( ( ! m n m B m m n n m M R Q Q W R f d d d d d d d d f c v D ) ) ) ) ) ) ",
") ) ) X ^ Q E / ( ( ( ( ( ( R m m m m m n m M R W Q W W W R d d d d d d d d k v A v G ) ) ) ) ) ",
"Y ) ) ^ ^ T / ( ( ( ( ( ( ( / N n B m m m M T W W W W W W W V d d d d d d g c A v A A G ) ) ) ) ",
"I T ~ ( ^ / ( ( ( ( ( ( ( ( ( ^ N m n m B T W W W W W Q W W E S d d d d f l Z c A A A Z + ) ) ) ",
") ^ ( ( ( ( ( ( ( ( ( ( ( ( ( ( ! n n m N E W W W W W W W Q Q R f d d d h v A c A v v v D ) ) ) ",
"~ ( ( ( ( ( ( ( ( ( ( ( ( ( ( ( ( R m N E Q Q W W Q Q Q W Q Q W R d d f c Z c c v A Z c c G ) ) ",
"Y ( ( ( / Q ! ! ~ ~ ~ ^ ^ ^ ^ / / ^ N N R R R R E E W W W W W W Q M d j A A A A v A v A A A + ) ",
"Q ^ ~ ^ / N v Z Z c v C C C C Z C V f a a s s s s d d d f f f g h h d f f f g g h h h h j j A + ",
") G U N ~ Q A v A v C v c v v v v c g * = > ; ; ; ; ; , ; = * & ; = 7 q 0 0 q q q w q 9 9 i u t ",
") ) J N V N A c c Z Y Z c Z v v c c h & ; : ; ; ; ; ; ; > - > ; * 3 0 9 9 8 8 9 8 8 8 0 9 w t ) ",
") ) ) K N b v A Z N N A c A v v c c j $ ; : ; ; ; ; ; ; : : : : = 5 9 8 9 9 9 9 9 0 q 9 q t ) ) ",
") ) ) G S M C A N N Z v c v c c c A z s > : > ; ; ; > > > > ; ; < 9 9 9 9 8 8 8 9 9 0 9 t ) ) ) ",
") ) ) ) G N B N N C A A A A A A A A A s ; > > ; ; ; ; ; ; > > ; 4 0 8 8 8 9 9 9 8 8 0 t ) ) ) ) ",
") ) ) ) ) D T N v A A A A A A A A A A d : > ; ; ; ; ; ; ; > ; : 7 9 8 9 9 8 8 8 8 0 w ) ) ) ) ) ",
") ) ) ) ) ) N N C v A A A A A A A A A f : > : ; ; ; ; - ; : ; 3 8 8 8 9 9 8 8 8 0 e ) ) ) ) ) ) ",
") ) ) ) ) ) O N m v A A A A A A A A v g & > : ; ; ; ; - ; ; , 6 8 8 8 8 8 8 8 q e ) ) ) ) ) ) ) ",
") ) ) ) ) ) ) G N V C A Z A A A A A c h * ; : ; ; ; ; ; - ; 1 8 8 8 8 8 8 8 q e ) ) ) ) ) ) ) ) ",
") ) ) ) ) ) ) ) G N C v A v A A A A c l * ; : ; ; ; ; > - , 4 9 8 8 8 8 8 9 q t ) ) ) ) ) ) ) ) ",
") ) ) ) ) ) ) ) ) J m v A A A A A A v x s ; > ; ; ; ; ; ; < 7 8 8 8 8 8 0 q e ) ) ) ) ) ) ) ) ) ",
") ) ) ) ) ) ) ) ) o L V A v A A A A A c s : > ; ; ; ; ; ; 3 8 8 8 8 8 8 0 t ) ) ) ) ) ) ) ) ) ) ",
") ) ) ) ) ) ) ) ) ) G B C v A A A v A v d * > ; ; ; ; ; ; 6 9 9 9 8 8 0 r ) ) ) ) ) ) ) ) ) ) ) ",
") ) ) ) ) ) ) ) ) ) ) G V C v v v c v A f ; ; ; ; ; ; : 2 9 8 8 9 9 9 t ) ) ) ) ) ) ) ) ) ) ) ) ",
") ) ) ) ) ) ) ) ) ) ) ) H V c c c v v A g & ; ; ; ; ; : 5 9 8 8 9 q w ) ) ) ) ) ) ) ) ) ) ) ) ) ",
") ) ) ) ) ) ) ) ) ) ) ) ) S C v c v A A h % ; ; ; ; ; = 7 8 8 8 9 t ) ) ) ) ) ) ) ) ) ) ) ) ) ) ",
") ) ) ) ) ) ) ) ) ) ) ) ) O S Z c A A v l & ; ; ; ; ; 4 9 8 8 9 w . ) ) ) ) ) ) ) ) ) ) ) ) ) ) ",
") ) ) ) ) ) ) ) ) ) ) ) ) ) G S v A v v z s ; ; ; : : 6 8 9 8 t t ) ) ) ) ) ) ) ) ) ) ) ) ) ) ) ",
") ) ) ) ) ) ) ) ) ) ) ) ) ) ) G Z v A c c s ; : - ; 3 q 8 0 w t ) ) ) ) ) ) ) ) ) ) ) ) ) ) ) ) ",
") ) ) ) ) ) ) ) ) ) ) ) ) ) ) ) G A A c v d : ; - = 5 9 8 0 t ) ) ) ) ) ) ) ) ) ) ) ) ) ) ) ) ) ",
") ) ) ) ) ) ) ) ) ) ) ) ) ) ) ) + D A c v f : ; - 1 7 0 9 t ) ) ) ) ) ) ) ) ) ) ) ) ) ) ) ) ) ) ",
") ) ) ) ) ) ) ) ) ) ) ) ) ) ) ) ) + S c A g & > = 4 9 9 t ) ) ) ) ) ) ) ) ) ) ) ) ) ) ) ) ) ) ) ",
") ) ) ) ) ) ) ) ) ) ) ) ) ) ) ) ) ) G Z A h & ; : 6 q t ) ) ) ) ) ) ) ) ) ) ) ) ) ) ) ) ) ) ) ) ",
") ) ) ) ) ) ) ) ) ) ) ) ) ) ) ) ) ) ) F x l & ; 3 9 t ) ) ) ) ) ) ) ) ) ) ) ) ) ) ) ) ) ) ) ) ) ",
") ) ) ) ) ) ) ) ) ) ) ) ) ) ) ) ) ) ) ) D x s = 6 w ) ) ) ) ) ) ) ) ) ) ) ) ) ) ) ) ) ) ) ) ) ) ",
") ) ) ) ) ) ) ) ) ) ) ) ) ) ) ) ) ) ) ) + Z s 2 w ) ) ) ) ) ) ) ) ) ) ) ) ) ) ) ) ) ) ) ) ) ) ) ",
") ) ) ) ) ) ) ) ) ) ) ) ) ) ) ) ) ) ) ) ) G d p t ) ) ) ) ) ) ) ) ) ) ) ) ) ) ) ) ) ) ) ) ) ) ) ",
") ) ) ) ) ) ) ) ) ) ) ) ) ) ) ) ) ) ) ) ) ) @ y ) ) ) ) ) ) ) ) ) ) ) ) ) ) ) ) ) ) ) ) ) ) ) ) "
};
