/* XPM */
static char *_b1d476dc93c4b33b52adb2169e5640aaxbrgIiijIM7XimY_6[] = {
/* columns rows colors chars-per-pixel */
"48 39 128 2 ",
"   c #8092A7",
".  c #658AB1",
"X  c #4F85BC",
"o  c #3D80C5",
"O  c #2F7CCC",
"+  c #1F77D1",
"@  c #0F71D5",
"#  c #0A6FD5",
"$  c #076ED5",
"%  c #056ED7",
"&  c #046ED8",
"*  c #036FDA",
"=  c #0370DD",
"-  c #0170DF",
";  c #0170E1",
":  c #0070E3",
">  c #0070E4",
",  c #0071E4",
"<  c #0071E5",
"1  c #0171E5",
"2  c #0273E6",
"3  c #0577E7",
"4  c #097BE9",
"5  c #0C7FEB",
"6  c #0F82ED",
"7  c #1185EE",
"8  c #1388F0",
"9  c #168AF1",
"0  c #1A8FF2",
"q  c #1A90F2",
"w  c #1A90F3",
"e  c #1B90F2",
"r  c #1B8FF0",
"t  c #1C8FF1",
"y  c #1D8FF1",
"u  c #1F90F0",
"i  c #3295EB",
"p  c #3999EC",
"a  c #409DEE",
"s  c #46A1EF",
"d  c #4CA4F0",
"f  c #4EA6F3",
"g  c #4FA7F4",
"h  c #52A9F5",
"j  c #58AAF2",
"k  c #5EACF1",
"l  c #69AEEE",
"z  c #6FB0EB",
"x  c #7EADDD",
"c  c #89ACD5",
"v  c #90AED3",
"b  c #99B3D5",
"n  c #9BB4D4",
"m  c #9EB5D5",
"M  c #9FB8D8",
"N  c #9DBEE1",
"B  c #9AC0E7",
"V  c #96C3EF",
"C  c #94C5F2",
"Z  c #93C5F3",
"A  c #91C5F4",
"S  c #93C6F6",
"D  c #92C7F6",
"F  c #91C6F7",
"G  c #87C3F9",
"H  c #90C6F8",
"J  c #93C7F8",
"K  c #95C8F8",
"L  c #9CCAF7",
"P  c #9ECBF7",
"I  c #A1CCF6",
"U  c #A5CDF5",
"Y  c #A7CEF4",
"T  c #A8CEF4",
"R  c #AECFF2",
"E  c #B1CEF0",
"W  c #B4D1F0",
"Q  c #BDD7F2",
"!  c #C5DCF6",
"~  c #C7DCF3",
"^  c #CADCEF",
"/  c #D0E1F2",
"(  c #D6E5F6",
")  c #E4EEFB",
"_  c #F0F5FB",
"`  c #F4F7FC",
"'  c None",
"]  c black",
"[  c black",
"{  c black",
"}  c black",
"|  c black",
" . c black",
".. c black",
"X. c black",
"o. c black",
"O. c black",
"+. c black",
"@. c black",
"#. c black",
"$. c black",
"%. c black",
"&. c black",
"*. c black",
"=. c black",
"-. c black",
";. c black",
":. c black",
">. c black",
",. c black",
"<. c black",
"1. c black",
"2. c black",
"3. c black",
"4. c black",
"5. c black",
"6. c black",
"7. c black",
"8. c black",
"9. c black",
"0. c black",
"q. c black",
"w. c black",
"e. c black",
"r. c black",
"t. c black",
"y. c black",
"u. c black",
/* pixels */
"' ' ' ' ' ' ' m W E W / N B V V B N b v B V B b c v   N X X X o ' ' ' ' ' ' ' ' ' ' ' ' ' ' ' ' ",
"' ' ' ' ' ' n Q Q ! ) ` ( U P P I I P P P P P P P I R ! z f f f f d p p p p i p x ' ' ' ' ' ' ' ",
"' ' ' ' ' ' / W W ) ` ` ` ! I P P P P P P P P P P R ! ~ Q k g f h h g h g g g l Z c ' ' ' ' ' ' ",
"' ' ' ' ' ) ~ R ( ` ` ` ` _ Q I P P P P P P P P T ! ! ! ~ T h g g h g g g g j G S B . ' ' ' ' ' ",
"' ' ' ' ( ) W ( ` ` ` ` ` ` ) T I I P P P P P Y Q ! ! ! ! ~ A f h h g g g g l S S F B ' ' ' ' ' ",
"' ' ' ( ` ~ ( _ ` ` ` ` ` ` ` ( I P I P P P I Q ! ~ ~ ! ! ! ! l g g g g g j H J D J S c ' ' ' ' ",
"' ( / ` ) ) ` ` ` ` ` ` ` ` ` ` ! P P P P I Q ! ! ! ! ! ! ~ ! Q k g g g f G D J D D D C c ' ' ' ",
"' ^ ` ` ` ` ` ` ` ` ` ` ` ` ` ` _ Q P P I Q ~ ! ! ! ! ! ~ ~ ! ! T j g h k H D J J F D J B ' ' ' ",
"^ ` ` ` ` ` ` ` ` ` ` ` ` ` ` ` ` ) T I Q ~ ! ! ! ! ! ~ ! ~ ! ! ! A g g G J S J J J S J J B ' ' ",
"N ( ` ` ` ) ! ! ! / ( ( ( ( ) ) ) ) / T Q Q ! ! ! ! ~ ! ! ! ! ! ! Q l k F J J D J J F D D S c ' ",
"' ( ) ! / ) V S J S S S K S S S K Z S d a s d f j k l l l l G A V C G k G G G G G G A H H H A c ",
"' M E R U Y U J J J J L I D J J J J F s e 0 w w w q 0 q e e t t e t 8 - - ; - - ; , 3 3 - 3 - o ",
"' ' M R T L F J D J S T Z D J J J J F j q 0 w 0 q q q q 0 w q 0 q e 5 , , , , , : : , : , : O ' ",
"' ' ' B E T S S S J L U S J J J J J J k 0 t 0 q e q w q q q q q t r , > , , , , , > ; : ; O ' ' ",
"' ' ' ' B R P J S L R S J J J J J J J l 0 t 0 q e w w w 0 q 0 0 0 6 , < , , , > , , : , & ' ' ' ",
"' ' ' ' v E R S L T C J D D J J J J J G y e 0 q q q e w q q 0 q t 3 , , < , , , < , : $ ' ' ' ' ",
"' ' ' ' ' v R U L S D J J J J J J J J G u 0 0 q q q e q q q e 0 7 : , , , , , , < : - ' ' ' ' ' ",
"' ' ' ' ' ' M R I D J J J J J J J J J G u q q q q q q q q q 0 t 3 > , , > , , , : * O ' ' ' ' ' ",
"' ' ' ' ' ' ' B T L D J J D J J J J D H p e q q q q q q q q 0 8 , < , , , < < : & X ' ' ' ' ' ' ",
"' ' ' ' ' ' ' b E U S D J D J J J J J F d t 0 q e q q q q 0 t 5 , , , , , , : - O ' ' ' ' ' ' ' ",
"' ' ' ' ' ' ' ' n R L J J D J J J J J J f t 0 q q q q e q q r , , , , , , , ; % ' ' ' ' ' ' ' ' ",
"' ' ' ' ' ' ' ' ' M R S J J J J J J J J k 0 0 q q q q 0 q 0 5 : , , , , : ; o ' ' ' ' ' ' ' ' ' ",
"' ' ' ' ' ' ' ' ' ' E U S D J J J J D F l e 0 q q q q 0 t t 2 : , , , , : & ' ' ' ' ' ' ' ' ' ' ",
"' ' ' ' ' ' ' ' ' ' v E L D J J J J J F z e 0 q q q 0 0 0 7 > , , , , : + ' ' ' ' ' ' ' ' ' ' ' ",
"' ' ' ' ' ' ' ' ' ' ' v T K J J J J J S G y e q q q e 0 t 3 1 : , : , O ' ' ' ' ' ' ' ' ' ' ' ' ",
"' ' ' ' ' ' ' ' ' ' ' ' M U J J J J D J G u e q q q q 0 8 ; , , , : = ' ' ' ' ' ' ' ' ' ' ' ' ' ",
"' ' ' ' ' ' ' ' ' ' ' ' ' N L S J J J J H a 0 q q q q 0 4 , , , : $ . ' ' ' ' ' ' ' ' ' ' ' ' ' ",
"' ' ' ' ' ' ' ' ' ' ' ' '   B S J J J J H a q q q q q 9 : > , , $ X ' ' ' ' ' ' ' ' ' ' ' ' ' ' ",
"' ' ' ' ' ' ' ' ' ' ' ' ' ' n I D S J S F d 0 q w q t 5 , : 1 = @ ' ' ' ' ' ' ' ' ' ' ' ' ' ' ' ",
"' ' ' ' ' ' ' ' ' ' ' ' ' ' ' M C F J S J j e q w 0 t ; , : = X ' ' ' ' ' ' ' ' ' ' ' ' ' ' ' ' ",
"' ' ' ' ' ' ' ' ' ' ' ' ' ' ' ' B A J J J l 0 q q q 7 : < ; O ' ' ' ' ' ' ' ' ' ' ' ' ' ' ' ' ' ",
"' ' ' ' ' ' ' ' ' ' ' ' ' ' ' ' v B S J J l y q 0 0 3 ; : # ' ' ' ' ' ' ' ' ' ' ' ' ' ' ' ' ' ' ",
"' ' ' ' ' ' ' ' ' ' ' ' ' ' ' ' ' v V F D G u q e 7 : , o ' ' ' ' ' ' ' ' ' ' ' ' ' ' ' ' ' ' ' ",
"' ' ' ' ' ' ' ' ' ' ' ' ' ' ' ' ' ' b C F G u q 0 4 = * ' ' ' ' ' ' ' ' ' ' ' ' ' ' ' ' ' ' ' ' ",
"' ' ' ' ' ' ' ' ' ' ' ' ' ' ' ' ' ' ' N F H u e 9 , + ' ' ' ' ' ' ' ' ' ' ' ' ' ' ' ' ' ' ' ' ' ",
"' ' ' ' ' ' ' ' ' ' ' ' ' ' ' ' ' ' ' ' B F s 0 5 $ ' ' ' ' ' ' ' ' ' ' ' ' ' ' ' ' ' ' ' ' ' ' ",
"' ' ' ' ' ' ' ' ' ' ' ' ' ' ' ' ' ' ' ' v A d r * ' ' ' ' ' ' ' ' ' ' ' ' ' ' ' ' ' ' ' ' ' ' ' ",
"' ' ' ' ' ' ' ' ' ' ' ' ' ' ' ' ' ' ' ' ' x d - X ' ' ' ' ' ' ' ' ' ' ' ' ' ' ' ' ' ' ' ' ' ' ' ",
"' ' ' ' ' ' ' ' ' ' ' ' ' ' ' ' ' ' ' ' ' ' O X ' ' ' ' ' ' ' ' ' ' ' ' ' ' ' ' ' ' ' ' ' ' ' ' "
};
