/* XPM */
static char *_b1d476dc93c4b33b52adb2169e5640aaxbrgIiijIM7XimY_7[] = {
/* columns rows colors chars-per-pixel */
"48 39 128 2 ",
"   c #879AB9",
".  c #899EC0",
"X  c #859DC0",
"o  c #7193C1",
"O  c #588BC7",
"+  c #3C82CE",
"@  c #2A7DD3",
"#  c #126DCA",
"$  c #0F6AC7",
"%  c #0968C9",
"&  c #0668CE",
"*  c #0569D1",
"=  c #046BD5",
"-  c #036DDB",
";  c #0270E0",
":  c #0170E1",
">  c #0070E3",
",  c #0070E4",
"<  c #0272E4",
"1  c #0575E5",
"2  c #0677E6",
"3  c #087AE7",
"4  c #0B7DE8",
"5  c #0D81EA",
"6  c #1187ED",
"7  c #138AEF",
"8  c #178FF2",
"9  c #188FF3",
"0  c #188FF2",
"q  c #198FF1",
"w  c #1A8EF1",
"e  c #1B8EF3",
"r  c #1A8FF4",
"t  c #1B8FF3",
"y  c #1C90F2",
"u  c #2191F1",
"i  c #2E95ED",
"p  c #3798EB",
"a  c #3999EB",
"s  c #3B9AEB",
"d  c #3D9BEB",
"f  c #409DEC",
"g  c #45A1EF",
"h  c #4AA5F2",
"j  c #55ABF4",
"k  c #66B3F5",
"l  c #72B8F6",
"z  c #7DBEF7",
"x  c #8BC4F7",
"c  c #8CC4F7",
"v  c #8DC4F6",
"b  c #8EC4F5",
"n  c #8FC4F3",
"m  c #90C4F3",
"M  c #90C4F2",
"N  c #93C0EA",
"B  c #90C5F4",
"V  c #90C5F5",
"C  c #90C4F5",
"Z  c #93C5F5",
"A  c #95C6F6",
"S  c #98CAF7",
"D  c #9BCAF7",
"F  c #9CCBF7",
"G  c #9ECBF7",
"H  c #9FCBF6",
"J  c #A0CBF5",
"K  c #A1CCF4",
"L  c #A3CCF3",
"P  c #A5CDF2",
"I  c #A8CFF2",
"U  c #ADD1F2",
"Y  c #B2D4F3",
"T  c #B8D8F4",
"R  c #BEDCF5",
"E  c #C2DEF5",
"W  c #C5DFF6",
"Q  c #C7DFF7",
"!  c #C8E0F6",
"~  c #CBE2F6",
"^  c #CEE6F8",
"/  c #D2E9FA",
"(  c #D6EBFB",
")  c #D9EDFB",
"_  c #DEEDFA",
"`  c #E3F2FC",
"'  c #E8F4FD",
"]  c #ECF6FD",
"[  c #F1F8FD",
"{  c #F4F7FD",
"}  c #F4F7FC",
"|  c None",
" . c black",
".. c black",
"X. c black",
"o. c black",
"O. c black",
"+. c black",
"@. c black",
"#. c black",
"$. c black",
"%. c black",
"&. c black",
"*. c black",
"=. c black",
"-. c black",
";. c black",
":. c black",
">. c black",
",. c black",
"<. c black",
"1. c black",
"2. c black",
"3. c black",
"4. c black",
"5. c black",
"6. c black",
"7. c black",
"8. c black",
"9. c black",
"0. c black",
"q. c black",
"w. c black",
"e. c black",
"r. c black",
"t. c black",
"y. c black",
"u. c black",
/* pixels */
"| | | | | | | | Y U I R ! N A A N N N . N M N N .   X . o + | | | | | | | | | | | | | | | | | | ",
"| | | | | | N ! Y U W ] [ E G H F G F F F F G G G F H T U h g f d d d s p O d d f | | | | | | | ",
"| | | | | | _ T Y R ' } { ] Y G F F F F F F F F F G Y W W A h h h h h h h h h j n N | | | | | | ",
"| | | | | ' ) U R ' { } { { ` K F F F F F F F F D Y W W Q W z h h h h h h h h l b N X | | | | | ",
"| | | | _ [ R T ` { { { { { { / H H F F F F F G U W ! Q W Q T k h h h h h h j v B V N | | | | | ",
"| | | _ { _ T ` { { { { { { { [ R D G F F F F I W Q Q ! Q Q ! I j h h h h h l V b V b N | | | | ",
"| | ` { [ ^ _ { { { { { { { { } ] Y F F F H I E Q ! ! Q Q Q ! Q Z h h h h j x B b C b n N | | | ",
"| ~ } { [ ] { } { { { { { { } [ [ _ K F S K E ! Q Q Q Q Q Q Q Q W l h h h l v V b b n c N | | | ",
"~ [ [ { [ { { { } } { { { { [ } { { ^ H J R W Q ! W ! ! ! ! ! Q ! T k h j v C v b B m b b N | | ",
"U T R ` ) ) R T R W Q ~ ^ / ( ) _ ` ` Y U R R E E W W W W W Q ! Q ! I j l v m C B B b C b C . | ",
"| N E Q L K J B V m b b m B Z V M M A z a g g g h j k k l z n n Z A J l l z z z x x x x v v M X ",
"| | U Y U A V V V B B B B B B B B V V z u 9 9 9 0 0 w 0 8 8 0 0 8 0 y 5 ; ; : 1 1 1 3 4 4 p p @ ",
"| | . U U P m V b B B B B B B B B B B z u 9 0 q 0 t 9 0 0 0 0 0 0 w w 1 , , , , , > : > > > = | ",
"| | | N Y U J B V V B B B B B B B B B x u 9 0 0 t 9 9 9 9 9 9 0 0 t 6 > , , , , , > > , > - | | ",
"| | | | P Y I Z b B B B B B B B B B B v g 9 0 9 9 9 9 0 9 9 0 9 0 e 1 , , , > > > > , : = | | | ",
"| | | | | U Y L C m B B b b B B B B B v g 0 0 9 r 9 9 9 r r 9 9 0 6 , , > , , , > > > - % | | | ",
"| | | | | N U U S b B B V b B B B B B v h 0 0 9 9 9 9 9 9 9 9 r 0 2 , , , , , , , > - | | | | | ",
"| | | | | | N U I Z B B b b B B B B V V j 0 0 9 9 9 9 9 9 9 9 9 7 > , , , , , , < - & | | | | | ",
"| | | | | | | P U K B B b C B B B B b m k 0 0 9 9 9 9 9 9 9 r t 3 , > > , , , , ; & | | | | | | ",
"| | | | | | | | P I A b b b B B B B b m k 0 9 9 9 9 9 9 9 9 0 7 < , , , , , > ; * | | | | | | | ",
"| | | | | | | | N U P B C B B B B B b m l q 0 9 r 9 9 0 r 9 0 4 , , , , > > : * | | | | | | | | ",
"| | | | | | | | | N U D C b B B B B b B z u 9 9 9 9 9 0 9 9 w < , , , , > , = | | | | | | | | | ",
"| | | | | | | | | | P I Z b B B B B B V z u 0 9 9 r 9 8 9 e 5 > , , , , > - | | | | | | | | | | ",
"| | | | | | | | | | | P L B B B B B B b x u 0 9 9 9 9 9 9 w < , , , , > = | | | | | | | | | | | ",
"| | | | | | | | | | | N U S b V B B B b x g 0 9 r 9 9 9 0 5 , > > > > = | | | | | | | | | | | | ",
"| | | | | | | | | | | | P I B b b B m b v g 0 9 9 9 9 9 0 1 , , , , - | | | | | | | | | | | | | ",
"| | | | | | | | | | | | | P K B v b m v C h 0 9 9 9 9 0 6 > , , > = $ | | | | | | | | | | | | | ",
"| | | | | | | | | | | | | | I A b b m b B j 0 9 9 9 r w 1 , > , - $ | | | | | | | | | | | | | | ",
"| | | | | | | | | | | | | | N L V B m v m k 0 0 9 0 0 6 , : , - # | | | | | | | | | | | | | | | ",
"| | | | | | | | | | | | | | | N J B m v m k q t 9 0 w 1 : > ; % | | | | | | | | | | | | | | | | ",
"| | | | | | | | | | | | | | | | N m C b B l q 0 9 0 7 < < ; * | | | | | | | | | | | | | | | | | ",
"| | | | | | | | | | | | | | | | | N m B b z u 9 9 0 4 > > * | | | | | | | | | | | | | | | | | | ",
"| | | | | | | | | | | | | | | | | N M B b z u 0 0 7 < : * | | | | | | | | | | | | | | | | | | | ",
"| | | | | | | | | | | | | | | | | | N M b v u 0 0 4 ; = | | | | | | | | | | | | | | | | | | | | ",
"| | | | | | | | | | | | | | | | | | | N v v i 0 w < = | | | | | | | | | | | | | | | | | | | | | ",
"| | | | | | | | | | | | | | | | | | | | N b g 0 5 = | | | | | | | | | | | | | | | | | | | | | | ",
"| | | | | | | | | | | | | | | | | | | | . n h w - | | | | | | | | | | | | | | | | | | | | | | | ",
"| | | | | | | | | | | | | | | | | | | | | N h 1 | | | | | | | | | | | | | | | | | | | | | | | | ",
"| | | | | | | | | | | | | | | | | | | | | | d $ | | | | | | | | | | | | | | | | | | | | | | | | "
};
