/* XPM */
static char *_b1d476dc93c4b33b52adb2169e5640aaxbrgIiijIM7XimY_8[] = {
/* columns rows colors chars-per-pixel */
"48 40 128 2 ",
"   c #727F96",
".  c #728097",
"X  c #899AB6",
"o  c #849BBC",
"O  c #7491B6",
"+  c #387CC5",
"@  c #2C77C8",
"#  c #2073CC",
"$  c #1370D2",
"%  c #096DD7",
"&  c #066DDA",
"*  c #046DDC",
"=  c #036DDE",
"-  c #026EDF",
";  c #016EE0",
":  c #016FE1",
">  c #006FE2",
",  c #0070E2",
"<  c #0070E3",
"1  c #0071E4",
"2  c #0273E3",
"3  c #0475E4",
"4  c #0778E6",
"5  c #097BE7",
"6  c #0D81EB",
"7  c #1084ED",
"8  c #1489F0",
"9  c #168CF2",
"0  c #168DF3",
"q  c #168DF4",
"w  c #188DF2",
"e  c #188DF1",
"r  c #188EF2",
"t  c #188DF3",
"y  c #1A8CF3",
"u  c #1A8CF2",
"i  c #1C8CF0",
"p  c #1F8CEF",
"a  c #228CED",
"s  c #2C8EE7",
"d  c #328FE4",
"f  c #3491E4",
"g  c #3793E5",
"h  c #3C97E7",
"j  c #429DE9",
"k  c #47A2ED",
"l  c #4AA5F1",
"z  c #52A8F1",
"x  c #69B4F5",
"c  c #78BBF6",
"v  c #87C1F6",
"b  c #89C2F6",
"n  c #8BC2F5",
"m  c #8CC2F4",
"M  c #8AC2F6",
"N  c #8AC3F8",
"B  c #89C3F8",
"V  c #88C3F9",
"C  c #8BC4F8",
"Z  c #91C5F5",
"A  c #94C6F4",
"S  c #97C7F3",
"D  c #99C9F1",
"F  c #9CCAF4",
"G  c #9DCBF5",
"H  c #9ECCF6",
"J  c #A2CEF7",
"K  c #A4D0F7",
"L  c #A6D0F6",
"P  c #A9D1F5",
"I  c #ADD3F5",
"U  c #B4D6F4",
"Y  c #BAD8F3",
"T  c #BFDAF4",
"R  c #C4DDF4",
"E  c #C8DFF6",
"W  c #CFE3F7",
"Q  c #D4E6F8",
"!  c #DAE9F8",
"~  c #E3EEF9",
"^  c #ECF4FC",
"/  c #F4F8FC",
"(  c None",
")  c black",
"_  c black",
"`  c black",
"'  c black",
"]  c black",
"[  c black",
"{  c black",
"}  c black",
"|  c black",
" . c black",
".. c black",
"X. c black",
"o. c black",
"O. c black",
"+. c black",
"@. c black",
"#. c black",
"$. c black",
"%. c black",
"&. c black",
"*. c black",
"=. c black",
"-. c black",
";. c black",
":. c black",
">. c black",
",. c black",
"<. c black",
"1. c black",
"2. c black",
"3. c black",
"4. c black",
"5. c black",
"6. c black",
"7. c black",
"8. c black",
"9. c black",
"0. c black",
"q. c black",
"w. c black",
"e. c black",
"r. c black",
"t. c black",
"y. c black",
"u. c black",
/* pixels */
"( ( ( ( ( ( ( ( ( X ( ( ( ( ( ( ( ( ( ( ( ( ( ( ( ( ( ( ( ( ( ( ( ( ( ( ( ( ( ( ( ( ( ( ( ( ( ( ",
"( ( ( ( ( ( ( ( U I I U W Y D F F D m o m S m o o o A o O ( ( ( ( ( ( ( ( ( ( ( ( ( ( ( ( ( ( ( ",
"( ( ( ( ( ( X W U I U ! / ^ I F F F F G F G F G G F G F Y m k j h h f + f g f + g ( ( ( ( ( ( ( ",
"( ( ( ( ( ( ~ W I I W / / / ! G F F G G G G G G G G G Y E T x l l l l l l l l l c o ( ( ( ( ( ( ",
"( ( ( ( ( ! ^ U I W / / / / / W G F G G G G G G G F Y E E E I z l l l l l l l z b m o ( ( ( ( ( ",
"( ( ( ( W / Q I E / / / / / / ^ U F F G G G G F F U E E E E E F l l l l l l l c n M m ( ( ( ( ( ",
"( ( ( ! / ^ Y R / / / / / / / / ^ P G G G G G G I E E E E E E R c l l l l l z v B M M x ( ( ( ( ",
"( ( Q / / ! E ^ / / / / / / / / / ! G F F F F I E E E E E E E E T x l l l l c V M M M n o ( ( ( ",
"( R / / / Q ^ / / / / / / / / / / ^ E F F F P E E E E E E E E E E I z l l z V B N N M B m ( ( ( ",
"Y ^ ^ ^ ~ ~ / / / / / / / / / / / / ^ I F P R E E E E E E E E E E E A l l x B M B B M N N m ( ( ",
"D I U U P L P U E W W Q Q W Q ! ! ~ ~ Q J U T R R E E E E E E E E E R c z v B M B N N n N M o ( ",
"( D I I I A B F P L H J K F M n n Z Z Z z k k l z z x x c m m A S J P F x v v B N N B M M N m O ",
"( ( D I I L n G L A M n n Z N N N N M B z t t t w w e t t w w w w e p a 4 2 2 3 3 d s g h j k f ",
"( ( ( D I I F H A N V B B N N N N N N N z w 0 w t t 0 w e e w t t t w 7 < < < < < < < < , , = # ",
"( ( ( o I I P A M B N N M M N N N N N N x e 0 r t t 0 q q q w w r r 9 4 > < < < < < < < , - ( ( ",
"( ( ( ( D I I G M N N N N B N N N N N N x i w t r w w w t t 0 0 0 t 7 , < < < < < < < < * # ( ( ",
"( ( ( ( ( D I I A B N N N N N N N N N B x i w r r r r t t t 0 t w w 4 < 1 1 1 1 1 < : : $ ( ( ( ",
"( ( ( ( ( o P I L C V V N N N N N N N B c e r e r r r w t t 9 9 w 7 < < < 1 1 1 1 , ; % ( ( ( ( ",
"( ( ( ( ( ( D I I F M B V N N N N N N B c e t r r r r w t t t t u 5 < 1 1 < 1 1 < : % ( ( ( ( ( ",
"( ( ( ( ( ( ( D I P Z M V N N N N N N N v p t r r r r t t t t w 7 , , < 1 1 1 1 : % ( ( ( ( ( ( ",
"( ( ( ( ( ( ( ( D I H M M B N N N N N N v r w r r r r w t t w w 5 < < < < : 1 ; % ( ( ( ( ( ( ( ",
"( ( ( ( ( ( ( ( o P I Z N B N N N N N B v r w r r r e r r t 9 8 < < < < < < : % ( ( ( ( ( ( ( ( ",
"( ( ( ( ( ( ( ( ( D I L N M N N N N N B B k e e r r r r r w t 5 < , > < : , $ ( ( ( ( ( ( ( ( ( ",
"( ( ( ( ( ( ( ( ( ( D I F M N N N N N B M k w r r r r t r r 8 2 < < < < > * ( ( ( ( ( ( ( ( ( ( ",
"( ( ( ( ( ( ( ( ( ( ( P P Z N N N N N B M l t r r r r t w w 5 < < > , > & ( ( ( ( ( ( ( ( ( ( ( ",
"( ( ( ( ( ( ( ( ( ( ( o P H n V N n B M B z t r r r r w w 8 , < < , , $ ( ( ( ( ( ( ( ( ( ( ( ( ",
"( ( ( ( ( ( ( ( ( ( ( ( D I A B B M N M B z u r r r r w y 5 , < < < &   ( ( ( ( ( ( ( ( ( ( ( ( ",
"( ( ( ( ( ( ( ( ( ( ( ( ( D L n N M N B N x w r r e e w 8 2 > < < & $ ( ( ( ( ( ( ( ( ( ( ( ( ( ",
"( ( ( ( ( ( ( ( ( ( ( ( ( ( P F N N N B M x e r r r r w 5 , < < & $ ( ( ( ( ( ( ( ( ( ( ( ( ( ( ",
"( ( ( ( ( ( ( ( ( ( ( ( ( ( o P Z M b N B c w t t w w 8 < : , * + ( ( ( ( ( ( ( ( ( ( ( ( ( ( ( ",
"( ( ( ( ( ( ( ( ( ( ( ( ( ( ( D H M B N B c e r r t t 6 - < - @ ( ( ( ( ( ( ( ( ( ( ( ( ( ( ( ( ",
"( ( ( ( ( ( ( ( ( ( ( ( ( ( ( ( D Z N M N c i r r w 9 3 > : & ( ( ( ( ( ( ( ( ( ( ( ( ( ( ( ( ( ",
"( ( ( ( ( ( ( ( ( ( ( ( ( ( ( ( ( D n M N c p w r w 6 : : @ ( ( ( ( ( ( ( ( ( ( ( ( ( ( ( ( ( ( ",
"( ( ( ( ( ( ( ( ( ( ( ( ( ( ( ( ( D A N n v p w w 9 2 : # ( ( ( ( ( ( ( ( ( ( ( ( ( ( ( ( ( ( ( ",
"( ( ( ( ( ( ( ( ( ( ( ( ( ( ( ( ( ( D M n B p w u 6 = & ( ( ( ( ( ( ( ( ( ( ( ( ( ( ( ( ( ( ( ( ",
"( ( ( ( ( ( ( ( ( ( ( ( ( ( ( ( ( ( ( m M B k t 9 2 $ ( ( ( ( ( ( ( ( ( ( ( ( ( ( ( ( ( ( ( ( ( ",
"( ( ( ( ( ( ( ( ( ( ( ( ( ( ( ( ( ( ( ( m b l u 6 $ ( ( ( ( ( ( ( ( ( ( ( ( ( ( ( ( ( ( ( ( ( ( ",
"( ( ( ( ( ( ( ( ( ( ( ( ( ( ( ( ( ( ( ( o m l 8 * ( ( ( ( ( ( ( ( ( ( ( ( ( ( ( ( ( ( ( ( ( ( ( ",
"( ( ( ( ( ( ( ( ( ( ( ( ( ( ( ( ( ( ( ( ( m l 3 ( ( ( ( ( ( ( ( ( ( ( ( ( ( ( ( ( ( ( ( ( ( ( ( ",
"( ( ( ( ( ( ( ( ( ( ( ( ( ( ( ( ( ( ( ( ( ( f . ( ( ( ( ( ( ( ( ( ( ( ( ( ( ( ( ( ( ( ( ( ( ( ( "
};
